<?xml version="1.0" encoding="utf-8"?>
<!-- Generator: Adobe Illustrator 16.0.0, SVG Export Plug-In . SVG Version: 6.00 Build 0)  -->
<!DOCTYPE svg PUBLIC "-//W3C//DTD SVG 1.1//EN" "http://www.w3.org/Graphics/SVG/1.1/DTD/svg11.dtd">
<svg version="1.1" id="圖層_1" xmlns="http://www.w3.org/2000/svg" xmlns:xlink="http://www.w3.org/1999/xlink" x="0px" y="0px"
	 width="122.511px" height="168.141px" viewBox="0 0 122.511 168.141" enable-background="new 0 0 122.511 168.141"
	 xml:space="preserve">
<g>
	<path fill="#ED773E" d="M61.253,0C27.425,0,0,27.427,0,61.253c0,33.828,61.253,106.888,61.253,106.888s61.258-73.06,61.258-106.888
		C122.511,27.427,95.081,0,61.253,0z"/>
	<path fill="#FFFFFF" d="M61.251,110.475c-27.181,0-49.219-22.034-49.219-49.222c0-27.185,22.038-49.222,49.219-49.222
		c27.184,0,49.229,22.037,49.229,49.222C110.48,88.441,88.435,110.475,61.251,110.475z"/>
	<polygon fill="#FACC70" points="61.256,50.452 71.24,67.746 81.225,85.04 61.256,85.04 41.287,85.04 51.271,67.746 	"/>
	<path fill="#F5A82E" d="M95.633,78.768c-1.65,0-3.675-1.169-4.5-2.598L80.255,57.328c-0.825-1.429-2.175-3.767-3-5.196
		L62.756,27.02c-0.825-1.429-2.175-1.429-3,0L45.259,52.132c-0.825,1.429-2.175,3.767-3,5.196L31.379,76.17
		c-0.825,1.429-2.85,2.598-4.5,2.598h-1.363c-1.65,0-3,1.35-3,3v0.271c0,1.65,0.842,3,1.871,3s3.221,0,4.871,0h13.735
		c1.65,0,3.046,0,3.102,0c0.057,0,0.103-0.079,0.103-0.177s0.675-1.347,1.5-2.776l12.059-20.888c0.825-1.429,2.175-1.429,3,0
		l12.059,20.888c0.825,1.429,1.5,2.678,1.5,2.776s0.046,0.177,0.103,0.177c0.056,0,1.451,0,3.102,0h13.735c1.65,0,3.842,0,4.871,0
		s1.871-1.35,1.871-3v-0.271c0-1.65-1.35-3-3-3H95.633z"/>
	<g>
		<path fill="#F5A82E" d="M61.258,31.344c-0.897,0-1.728-0.51-2.223-1.364l-4.448-7.706c-0.516-0.895-0.21-2.038,0.685-2.554
			c0.894-0.518,2.037-0.212,2.553,0.684l3.434,5.946l3.433-5.946c0.517-0.896,1.661-1.202,2.553-0.684
			c0.896,0.516,1.201,1.659,0.684,2.554l-4.446,7.703c-0.493,0.854-1.324,1.366-2.221,1.367H61.258z"/>
	</g>
</g>
</svg>
