<svg id="ebbmmhzs1tbh1" xmlns="http://www.w3.org/2000/svg" xmlns:xlink="http://www.w3.org/1999/xlink" viewBox="0 0 375 180" shape-rendering="geometricPrecision" text-rendering="geometricPrecision"><style><![CDATA[#ebbmmhzs1tbh31_tr {animation: ebbmmhzs1tbh31_tr__tr 2000ms linear infinite normal forwards}@keyframes ebbmmhzs1tbh31_tr__tr { 0% {transform: translate(347.602000px,203.816000px) rotate(1.500000deg)} 50% {transform: translate(347.602000px,203.816000px) rotate(-1.500000deg)} 100% {transform: translate(347.602000px,203.816000px) rotate(1.500000deg)} }#ebbmmhzs1tbh90_tr {animation: ebbmmhzs1tbh90_tr__tr 2000ms linear infinite normal forwards}@keyframes ebbmmhzs1tbh90_tr__tr { 0% {transform: translate(223.708000px,180.935000px) rotate(-1.800000deg)} 50% {transform: translate(223.708000px,180.935000px) rotate(1.800000deg)} 100% {transform: translate(223.708000px,180.935000px) rotate(-1.800000deg)} }#ebbmmhzs1tbh126_ts {animation: ebbmmhzs1tbh126_ts__ts 2000ms linear infinite normal forwards}@keyframes ebbmmhzs1tbh126_ts__ts { 0% {transform: translate(110.850895px,70.545000px) scale(1,1)} 50% {transform: translate(110.850895px,70.545000px) scale(1.030000,1.030000)} 100% {transform: translate(110.850895px,70.545000px) scale(1,1)} }]]></style><defs><rect id="ebbmmhzs1tbh2" width="375" height="180" rx="0" ry="0"/><path id="ebbmmhzs1tbh3" d="M53.376000,171.911000C47.944000,167.781000,42.763000,163.842000,41.864000,163.163000C40.968000,162.478000,44.993000,161.919000,50.808000,161.919000C56.627000,161.919000,57.185000,158.242000,52.049000,153.746000L49.659000,151.653000C44.523000,147.162000,39.680000,142.924000,38.902000,142.242000C38.121000,141.560000,41.335000,140.998000,46.044000,140.998000C50.752000,140.998000,50.743000,136.969000,46.019000,132.043000L45.518000,131.521000C40.793000,126.595000,35.381000,120.949000,33.489000,118.974000C31.596000,116.998000,32.715000,115.385000,35.969000,115.385000C39.227000,115.385000,39.347000,112.294000,36.234000,108.515000C33.119000,104.736000,28.027000,98.554000,24.916000,94.775000C21.801000,90.999000,16.706000,90.999000,13.593000,94.775000C10.481000,98.554000,5.384000,104.736000,2.273000,108.515000C-0.840000,112.294000,-0.720000,115.385000,2.536000,115.385000C5.791000,115.385000,6.910000,116.999000,5.020000,118.974000C3.126000,120.949000,-2.289000,126.595000,-7.013000,131.521000L-7.512000,132.043000C-12.237000,136.969000,-12.250000,140.998000,-7.538000,140.998000C-2.830000,140.998000,0.384000,141.560000,-0.396000,142.242000C-1.176000,142.924000,-6.014000,147.162000,-11.153000,151.653000L-13.542000,153.746000C-18.678000,158.242000,-18.121000,161.919000,-12.305000,161.919000C-6.489000,161.919000,-2.463000,162.478000,-3.361000,163.163000C-4.258000,163.842000,-9.436000,167.780000,-14.872000,171.911000L-19.362000,175.328000C-24.794000,179.459000,-23.654000,182.839000,-16.830000,182.839000L6.846000,182.839000C13.668000,182.839000,24.838000,182.839000,31.662000,182.839000L55.336000,182.839000C62.161000,182.839000,63.301000,179.459000,57.867000,175.328000L53.376000,171.911000Z"/><path id="ebbmmhzs1tbh4" d="M398.347000,177.183000C393.185000,173.258000,388.261000,169.515000,387.408000,168.870000C386.556000,168.219000,390.382000,167.688000,395.908000,167.688000C401.438000,167.688000,401.968000,164.193000,397.088000,159.921000L394.817000,157.932000C389.936000,153.664000,385.335000,149.636000,384.594000,148.988000C383.852000,148.340000,386.906000,147.806000,391.381000,147.806000C395.856000,147.806000,395.847000,143.977000,391.357000,139.296000L390.881000,138.800000C386.391000,134.118000,381.247000,128.753000,379.449000,126.877000C377.650000,125,378.713000,123.466000,381.806000,123.466000C384.902000,123.466000,385.016000,120.528000,382.057000,116.937000C379.097000,113.346000,374.258000,107.471000,371.301000,103.879000C368.340000,100.291000,363.499000,100.291000,360.540000,103.879000C357.582000,107.470000,352.739000,113.345000,349.782000,116.937000C346.823000,120.528000,346.937000,123.466000,350.031000,123.466000C353.125000,123.466000,354.188000,125,352.392000,126.877000C350.592000,128.753000,345.447000,134.119000,340.956000,138.800000L340.482000,139.296000C335.992000,143.977000,335.979000,147.806000,340.457000,147.806000C344.931000,147.806000,347.985000,148.340000,347.244000,148.988000C346.502000,149.636000,341.904000,153.664000,337.021000,157.932000L334.750000,159.921000C329.870000,164.193000,330.398000,167.688000,335.926000,167.688000C341.454000,167.688000,345.280000,168.219000,344.426000,168.870000C343.573000,169.515000,338.653000,173.258000,333.488000,177.183000L329.220000,180.430000C324.059000,184.356000,325.142000,187.568000,331.627000,187.568000L354.126000,187.568000C360.609000,187.568000,371.225000,187.568000,377.710000,187.568000L400.207000,187.568000C406.693000,187.568000,407.776000,184.356000,402.613000,180.430000L398.347000,177.183000Z"/><path id="ebbmmhzs1tbh5" d="M183.780000,179.529000C178.618000,175.604000,173.694000,171.861000,172.841000,171.216000C171.989000,170.565000,175.815000,170.034000,181.341000,170.034000C186.871000,170.034000,187.401000,166.539000,182.521000,162.267000L180.250000,160.278000C175.369000,156.010000,170.768000,151.982000,170.027000,151.334000C169.285000,150.686000,172.339000,150.152000,176.814000,150.152000C181.289000,150.152000,181.280000,146.323000,176.790000,141.642000L176.314000,141.146000C171.824000,136.464000,166.680000,131.099000,164.882000,129.223000C163.083000,127.346000,164.146000,125.812000,167.239000,125.812000C170.335000,125.812000,170.449000,122.874000,167.490000,119.283000C164.530000,115.692000,159.691000,109.817000,156.734000,106.225000C153.773000,102.637000,148.932000,102.637000,145.973000,106.225000C143.015000,109.816000,138.172000,115.691000,135.215000,119.283000C132.256000,122.874000,132.370000,125.812000,135.464000,125.812000C138.558000,125.812000,139.621000,127.346000,137.825000,129.223000C136.025000,131.099000,130.880000,136.465000,126.389000,141.146000L125.915000,141.642000C121.425000,146.323000,121.412000,150.152000,125.890000,150.152000C130.364000,150.152000,133.418000,150.686000,132.677000,151.334000C131.935000,151.982000,127.337000,156.010000,122.454000,160.278000L120.183000,162.267000C115.303000,166.539000,115.831000,170.034000,121.359000,170.034000C126.887000,170.034000,130.713000,170.565000,129.859000,171.216000C129.006000,171.861000,124.086000,175.604000,118.921000,179.529000L114.653000,182.776000C109.492000,186.702000,110.575000,189.914000,117.060000,189.914000L139.559000,189.914000C146.042000,189.914000,156.658000,189.914000,163.143000,189.914000L185.640000,189.914000C192.126000,189.914000,193.209000,186.702000,188.046000,182.776000L183.780000,179.529000Z"/><rect id="ebbmmhzs1tbh6" width="8.334000" height="106.395000" rx="0" ry="0"/><rect id="ebbmmhzs1tbh7" width="375" height="180" rx="0" ry="0"/><path id="ebbmmhzs1tbh8" d="M268.196000,198.549000C274.252000,193.964000,280.025000,189.592000,281.028000,188.835000C282.027000,188.078000,277.542000,187.457000,271.055000,187.457000C264.567000,187.457000,263.948000,183.372000,269.673000,178.385000L272.339000,176.061000C278.065000,171.074000,283.463000,166.372000,284.332000,165.615000C285.202000,164.854000,281.618000,164.238000,276.367000,164.238000C271.116000,164.238000,271.131000,159.762000,276.398000,154.293000L276.955000,153.715000C282.222000,148.245000,288.259000,141.980000,290.367000,139.789000C292.477000,137.597000,291.233000,135.805000,287.601000,135.805000C283.966000,135.805000,283.835000,132.374000,287.306000,128.179000C290.779000,123.985000,296.456000,117.118000,299.928000,112.924000C303.400000,108.733000,309.078000,108.733000,312.548000,112.924000C316.023000,117.118000,321.700000,123.985000,325.171000,128.179000C328.640000,132.374000,328.510000,135.805000,324.877000,135.805000C321.247000,135.805000,320.001000,137.597000,322.113000,139.789000C324.221000,141.979000,330.258000,148.245000,335.523000,153.715000L336.080000,154.293000C341.347000,159.763000,341.361000,164.238000,336.109000,164.238000C330.864000,164.238000,327.276000,164.854000,328.145000,165.615000C329.017000,166.372000,334.413000,171.074000,340.143000,176.061000L342.806000,178.385000C348.532000,183.372000,347.910000,187.457000,341.424000,187.457000C334.938000,187.457000,330.449000,188.078000,331.452000,188.835000C332.455000,189.592000,338.225000,193.964000,344.286000,198.549000L349.290000,202.340000C355.348000,206.926000,354.079000,210.678000,346.471000,210.678000L320.075000,210.678000C312.467000,210.678000,300.012000,210.678000,292.402000,210.678000L266.007000,210.678000C258.398000,210.678000,257.127000,206.926000,263.184000,202.340000L268.196000,198.549000Z"/><rect id="ebbmmhzs1tbh9" width="8.232000" height="104.605000" rx="0" ry="0"/><path id="ebbmmhzs1tbh10" d="M163.846000,176.394000C168.845000,172.608000,173.616000,168.997000,174.443000,168.372000C175.269000,167.745000,171.563000,167.232000,166.210000,167.232000C160.852000,167.232000,160.339000,163.861000,165.067000,159.740000L167.268000,157.827000C171.995000,153.706000,176.455000,149.822000,177.171000,149.196000C177.891000,148.567000,174.931000,148.057000,170.594000,148.057000C166.259000,148.057000,166.269000,144.362000,170.620000,139.848000L171.077000,139.369000C175.429000,134.853000,180.413000,129.679000,182.153000,127.870000C183.898000,126.059000,182.872000,124.578000,179.871000,124.578000C176.870000,124.578000,176.763000,121.745000,179.631000,118.282000C182.495000,114.817000,187.185000,109.151000,190.050000,105.683000C192.917000,102.222000,197.606000,102.222000,200.473000,105.683000C203.342000,109.151000,208.031000,114.817000,210.898000,118.282000C213.762000,121.745000,213.653000,124.578000,210.654000,124.578000C207.657000,124.578000,206.630000,126.059000,208.368000,127.870000C210.113000,129.679000,215.097000,134.853000,219.445000,139.369000L219.907000,139.848000C224.254000,144.362000,224.267000,148.057000,219.929000,148.057000C215.596000,148.057000,212.636000,148.567000,213.352000,149.196000C214.074000,149.822000,218.528000,153.706000,223.258000,157.827000L225.460000,159.740000C230.186000,163.861000,229.674000,167.232000,224.319000,167.232000C218.962000,167.232000,215.253000,167.745000,216.083000,168.372000C216.906000,168.997000,221.677000,172.608000,226.681000,176.394000L230.815000,179.522000C235.816000,183.309000,234.769000,186.407000,228.483000,186.407000L206.689000,186.407000C200.404000,186.407000,190.120000,186.407000,183.838000,186.407000L162.043000,186.407000C155.759000,186.407000,154.708000,183.309000,159.708000,179.522000L163.846000,176.394000Z"/></defs><g id="ebbmmhzs1tbh11"><g id="ebbmmhzs1tbh12"><g id="ebbmmhzs1tbh13"><g id="ebbmmhzs1tbh14" clip-path="url(#ebbmmhzs1tbh124)"><rect id="ebbmmhzs1tbh15" width="441.566000" height="208.385000" rx="0" ry="0" transform="matrix(1 0 0 1 -34.44400000000002 -14.19200000000001)" fill="rgb(60,150,180)" stroke="none" stroke-width="1"/><g id="ebbmmhzs1tbh16"><path id="ebbmmhzs1tbh17" d="M331.671000,170.791000C337.449000,166.603000,342.965000,162.613000,343.917000,161.926000C344.874000,161.230000,340.587000,160.665000,334.399000,160.665000C328.207000,160.665000,327.612000,156.939000,333.079000,152.382000L335.625000,150.260000C341.089000,145.703000,346.239000,141.409000,347.072000,140.716000C347.901000,140.028000,344.480000,139.458000,339.472000,139.458000C334.459000,139.458000,334.469000,135.372000,339.496000,130.376000L340.028000,129.851000C345.054000,124.860000,350.818000,119.134000,352.831000,117.132000C354.847000,115.132000,353.657000,113.494000,350.192000,113.494000C346.720000,113.494000,346.598000,110.363000,349.908000,106.530000C353.222000,102.699000,358.642000,96.436000,361.958000,92.600000C365.268000,88.773000,370.693000,88.773000,374.002000,92.600000C377.317000,96.436000,382.737000,102.699000,386.050000,106.530000C389.362000,110.363000,389.239000,113.494000,385.776000,113.494000C382.304000,113.494000,381.115000,115.132000,383.130000,117.132000C385.148000,119.134000,390.906000,124.860000,395.937000,129.851000L396.463000,130.376000C401.490000,135.372000,401.502000,139.458000,396.494000,139.458000C391.485000,139.458000,388.063000,140.027000,388.893000,140.716000C389.725000,141.409000,394.876000,145.703000,400.334000,150.260000L402.879000,152.382000C408.348000,156.940000,407.755000,160.665000,401.565000,160.665000C395.374000,160.665000,391.091000,161.229000,392.047000,161.926000C393.002000,162.614000,398.514000,166.604000,404.298000,170.791000L409.073000,174.256000C414.854000,178.441000,413.643000,181.867000,406.379000,181.867000L381.187000,181.867000C373.922000,181.867000,362.040000,181.867000,354.776000,181.867000L329.580000,181.867000C322.319000,181.867000,321.107000,178.440000,326.886000,174.256000L331.671000,170.791000Z" fill="rgb(65,140,109)" stroke="none" stroke-width="1"/><path id="ebbmmhzs1tbh18" d="M-22.025000,173.629000C-17.727000,170.515000,-13.625000,167.547000,-12.917000,167.035000C-12.205000,166.517000,-15.394000,166.097000,-19.996000,166.097000C-24.601000,166.097000,-25.044000,163.326000,-20.977000,159.936000L-19.083000,158.358000C-15.020000,154.969000,-11.188000,151.775000,-10.569000,151.259000C-9.952000,150.747000,-12.497000,150.323000,-16.221000,150.323000C-19.950000,150.323000,-19.942000,147.284000,-16.202000,143.568000L-15.806000,143.177000C-12.068000,139.465000,-7.781000,135.206000,-6.284000,133.717000C-4.785000,132.230000,-5.670000,131.012000,-8.247000,131.012000C-10.829000,131.012000,-10.920000,128.683000,-8.458000,125.832000C-5.993000,122.982000,-1.962000,118.324000,0.504000,115.472000C2.966000,112.625000,7.001000,112.625000,9.462000,115.472000C11.928000,118.325000,15.959000,122.983000,18.423000,125.832000C20.886000,128.683000,20.795000,131.012000,18.219000,131.012000C15.637000,131.012000,14.752000,132.230000,16.250000,133.717000C17.751000,135.206000,22.034000,139.465000,25.775000,143.177000L26.167000,143.568000C29.906000,147.284000,29.915000,150.323000,26.190000,150.323000C22.464000,150.323000,19.919000,150.747000,20.537000,151.259000C21.156000,151.775000,24.987000,154.969000,29.047000,158.358000L30.940000,159.936000C35.007000,163.326000,34.567000,166.097000,29.962000,166.097000C25.357000,166.097000,22.172000,166.517000,22.883000,167.035000C23.594000,167.547000,27.694000,170.514000,31.995000,173.629000L35.547000,176.206000C39.847000,179.318000,38.946000,181.867000,33.543000,181.867000L14.804000,181.867000C9.401000,181.867000,0.563000,181.867000,-4.840000,181.867000L-23.580000,181.867000C-28.980000,181.867000,-29.882000,179.318000,-25.584000,176.206000L-22.025000,173.629000Z" fill="rgb(65,140,109)" stroke="none" stroke-width="1"/><g id="ebbmmhzs1tbh19"><path id="ebbmmhzs1tbh20" d="M306.859000,25.503000C297.470000,25.503000,230.615000,197.274000,230.615000,197.274000L383.101000,197.274000C383.102000,197.274000,316.245000,25.503000,306.859000,25.503000Z" fill="rgb(13,85,156)" stroke="none" stroke-width="1"/></g><path id="ebbmmhzs1tbh21" d="M309.274000,60.473000C307.695000,56.760000,303.199000,57.599000,301.849000,60.473000C298.474000,65.506000,293.073000,72.698000,289.696000,68.383000C288.148000,66.237000,286.493000,64.177000,284.740000,62.230000C293.748000,38.421000,301.393000,22.367000,306.864000,22.367000C313.163000,22.367000,319.527000,37.635000,328.160000,60.134000C328.376000,60.709000,330.224000,65.104000,326.710000,63.938000C320.786000,61.971000,323.506000,71.028000,319.682000,71.214000C317.159000,71.213000,311.300000,65.506000,309.274000,60.473000Z" fill="rgb(200,242,242)" stroke="none" stroke-width="1"/><g id="ebbmmhzs1tbh22"><path id="ebbmmhzs1tbh23" d="M262.167000,63.749000C253.810000,63.749000,194.307000,181.807000,194.307000,181.807000L330.021000,181.807000C330.021000,181.807000,270.523000,63.749000,262.167000,63.749000Z" fill="rgb(24,123,162)" stroke="none" stroke-width="1"/></g><path id="ebbmmhzs1tbh24" d="M264.316000,87.786000C262.907000,85.233000,258.909000,85.807000,257.706000,87.786000C254.702000,91.244000,249.897000,96.183000,246.891000,93.223000C245.516000,91.748000,244.040000,90.329000,242.479000,88.992000C250.496000,72.632000,257.302000,61.593000,262.169000,61.593000C267.776000,61.593000,273.438000,72.088000,281.122000,87.554000C281.320000,87.947000,282.963000,90.965000,279.834000,90.166000C274.563000,88.814000,276.983000,95.039000,273.581000,95.169000C271.331000,95.168000,266.119000,91.244000,264.316000,87.786000Z" fill="rgb(200,242,242)" stroke="none" stroke-width="1"/><g id="ebbmmhzs1tbh25"><g id="ebbmmhzs1tbh26" clip-path="url(#ebbmmhzs1tbh29)"><rect id="ebbmmhzs1tbh27" width="115.176000" height="110.535000" rx="0" ry="0" transform="matrix(1 0 0 1 248.65299999999999 104.95999999999999)" fill="rgb(102,197,145)" stroke="none" stroke-width="1"/><path id="ebbmmhzs1tbh28" d="M304.122000,171.672000L296.052000,165.241000C295.306000,164.649000,295.186000,163.566000,295.783000,162.824000C296.379000,162.082000,297.468000,161.961000,298.212000,162.553000L304.625000,167.664000L304.625000,162.079000C304.449000,162.015000,304.280000,161.924000,304.122000,161.799000L296.052000,155.372000C295.306000,154.776000,295.186000,153.696000,295.783000,152.951000C296.379000,152.210000,297.468000,152.088000,298.212000,152.681000L304.625000,157.790000L304.625000,143.003000C304.625000,142.055000,305.402000,141.285000,306.356000,141.285000C307.311000,141.285000,308.086000,142.055000,308.086000,143.003000L308.086000,152.554000L314.269000,147.629000C315.014000,147.034000,316.102000,147.155000,316.700000,147.897000C317.295000,148.642000,317.176000,149.728000,316.430000,150.320000L308.357000,156.746000C308.271000,156.816000,308.178000,156.874000,308.086000,156.922000L308.086000,162.424000L314.269000,157.503000C315.014000,156.908000,316.102000,157.029000,316.700000,157.772000C317.295000,158.513000,317.176000,159.597000,316.430000,160.193000L308.357000,166.620000C308.271000,166.688000,308.178000,166.745000,308.086000,166.796000L308.086000,172.298000L314.269000,167.374000C315.014000,166.778000,316.102000,166.900000,316.700000,167.645000C317.295000,168.387000,317.176000,169.471000,316.430000,170.064000L308.357000,176.492000C308.271000,176.559000,308.178000,176.618000,308.086000,176.669000L308.086000,182.171000L314.269000,177.247000C315.014000,176.651000,316.102000,176.773000,316.700000,177.517000C317.295000,178.258000,317.176000,179.342000,316.430000,179.938000L308.357000,186.363000C308.271000,186.433000,308.178000,186.490000,308.086000,186.541000L308.086000,192.042000L314.269000,187.120000C315.014000,186.525000,316.102000,186.644000,316.700000,187.389000C317.295000,188.131000,317.176000,189.215000,316.430000,189.809000L308.357000,196.237000C308.271000,196.307000,308.178000,196.366000,308.086000,196.414000L308.086000,201.915000L314.269000,196.991000C315.014000,196.396000,316.102000,196.518000,316.700000,197.261000C317.295000,198.005000,317.176000,199.089000,316.430000,199.682000L308.357000,206.107000C308.271000,206.177000,308.178000,206.234000,308.086000,206.285000L308.086000,209.817000C308.086000,210.767000,307.311000,211.539000,306.356000,211.539000C306.149000,211.539000,305.955000,211.496000,305.774000,211.432000C305.587000,211.496000,305.395000,211.539000,305.202000,211.539000C304.824000,211.539000,304.444000,211.418000,304.122000,211.161000L296.052000,204.730000C295.306000,204.138000,295.186000,203.055000,295.783000,202.313000C296.379000,201.571000,297.468000,201.450000,298.212000,202.045000L304.625000,207.152000L304.625000,201.567000C304.449000,201.504000,304.280000,201.411000,304.122000,201.291000L296.052000,194.860000C295.306000,194.267000,295.186000,193.184000,295.783000,192.442000C296.379000,191.697000,297.468000,191.577000,298.212000,192.174000L304.625000,197.281000L304.625000,191.693000C304.449000,191.630000,304.280000,191.543000,304.122000,191.419000L296.052000,184.986000C295.306000,184.394000,295.186000,183.311000,295.783000,182.569000C296.379000,181.827000,297.468000,181.705000,298.212000,182.298000L304.625000,187.408000L304.625000,181.824000C304.449000,181.761000,304.280000,181.670000,304.122000,181.543000L296.052000,175.116000C295.306000,174.524000,295.186000,173.441000,295.783000,172.696000C296.379000,171.954000,297.468000,171.832000,298.212000,172.428000L304.625000,177.534000L304.625000,171.950000C304.449000,171.885000,304.280000,171.795000,304.122000,171.672000Z" fill="rgb(91,187,131)" stroke="none" stroke-width="1"/><clipPath id="ebbmmhzs1tbh29"><use id="ebbmmhzs1tbh30" width="93.763306" height="100.897270" xlink:href="#ebbmmhzs1tbh8" fill="rgb(0,0,0)" stroke="none" stroke-width="1"/></clipPath></g></g><g id="ebbmmhzs1tbh31_tr" transform="translate(347.602000,203.816000) rotate(1.500000)"><g id="ebbmmhzs1tbh31" transform="translate(-347.602000,-203.816000)"><g id="ebbmmhzs1tbh32"><g id="ebbmmhzs1tbh33" clip-path="url(#ebbmmhzs1tbh72)"><rect id="ebbmmhzs1tbh34" width="11.521000" height="146.449000" rx="0" ry="0" transform="matrix(1 0 0 1 341.56900000000002 57.36699999999999)" fill="rgb(138,99,80)" stroke="none" stroke-width="1"/><g id="ebbmmhzs1tbh35"><g id="ebbmmhzs1tbh36"><path id="ebbmmhzs1tbh37" d="M335.374000,99.778000C335.374000,96.461000,337.622000,93.767000,340.380000,93.767000C343.138000,93.767000,345.385000,96.460000,345.385000,99.778000C345.385000,103.087000,343.138000,105.783000,340.380000,105.783000C337.622000,105.783000,335.374000,103.087000,335.374000,99.778000ZM335.924000,99.778000C335.924000,102.788000,337.922000,105.236000,340.380000,105.236000C342.834000,105.236000,344.833000,102.788000,344.833000,99.778000C344.833000,96.761000,342.834000,94.312000,340.380000,94.312000C337.922000,94.312000,335.924000,96.762000,335.924000,99.778000Z" fill="rgb(165,128,108)" stroke="none" stroke-width="1"/></g><g id="ebbmmhzs1tbh38"><path id="ebbmmhzs1tbh39" d="M333.341000,99.778000C333.341000,95.100000,336.499000,91.297000,340.380000,91.297000C344.261000,91.297000,347.419000,95.101000,347.419000,99.778000C347.419000,104.449000,344.261000,108.256000,340.380000,108.256000C336.499000,108.256000,333.341000,104.449000,333.341000,99.778000ZM333.887000,99.778000C333.887000,104.148000,336.800000,107.708000,340.380000,107.708000C343.957000,107.708000,346.870000,104.148000,346.870000,99.778000C346.870000,95.399000,343.957000,91.840000,340.380000,91.840000C336.800000,91.841000,333.887000,95.399000,333.887000,99.778000Z" fill="rgb(165,128,108)" stroke="none" stroke-width="1"/></g><g id="ebbmmhzs1tbh40"><path id="ebbmmhzs1tbh41" d="M331.594000,99.778000C331.594000,93.930000,335.534000,89.178000,340.380000,89.178000C345.227000,89.178000,349.166000,93.930000,349.166000,99.778000C349.166000,105.617000,345.227000,110.373000,340.380000,110.373000C335.534000,110.373000,331.594000,105.617000,331.594000,99.778000ZM332.144000,99.778000C332.144000,105.318000,335.837000,109.824000,340.380000,109.824000C344.923000,109.824000,348.618000,105.318000,348.618000,99.778000C348.618000,94.233000,344.923000,89.724000,340.380000,89.724000C335.837000,89.724000,332.144000,94.233000,332.144000,99.778000Z" fill="rgb(165,128,108)" stroke="none" stroke-width="1"/></g><g id="ebbmmhzs1tbh42"><path id="ebbmmhzs1tbh43" d="M330.140000,99.778000C330.140000,92.957000,334.732000,87.410000,340.380000,87.410000C346.025000,87.410000,350.621000,92.957000,350.621000,99.778000C350.621000,106.591000,346.024000,112.136000,340.380000,112.136000C334.731000,112.137000,330.140000,106.592000,330.140000,99.778000ZM330.685000,99.778000C330.685000,106.289000,335.036000,111.591000,340.380000,111.591000C345.724000,111.591000,350.070000,106.288000,350.070000,99.778000C350.070000,93.259000,345.723000,87.960000,340.380000,87.960000C335.035000,87.960000,330.685000,93.260000,330.685000,99.778000Z" fill="rgb(165,128,108)" stroke="none" stroke-width="1"/></g><g id="ebbmmhzs1tbh44"><path id="ebbmmhzs1tbh45" d="M335.561000,183.531000C335.561000,180.219000,337.803000,177.527000,340.563000,177.527000C343.320000,177.527000,345.569000,180.218000,345.569000,183.531000C345.569000,186.844000,343.320000,189.541000,340.563000,189.541000C337.803000,189.541000,335.561000,186.844000,335.561000,183.531000ZM336.106000,183.531000C336.106000,186.546000,338.107000,188.997000,340.562000,188.997000C343.017000,188.997000,345.016000,186.546000,345.016000,183.531000C345.016000,180.521000,343.017000,178.068000,340.562000,178.068000C338.107000,178.068000,336.106000,180.521000,336.106000,183.531000Z" fill="rgb(165,128,108)" stroke="none" stroke-width="1"/></g><g id="ebbmmhzs1tbh46"><path id="ebbmmhzs1tbh47" d="M333.521000,183.531000C333.521000,178.859000,336.683000,175.054000,340.562000,175.054000C344.445000,175.054000,347.602000,178.859000,347.602000,183.531000C347.602000,188.207000,344.445000,192.011000,340.562000,192.011000C336.684000,192.012000,333.521000,188.207000,333.521000,183.531000ZM334.069000,183.531000C334.069000,187.906000,336.983000,191.467000,340.562000,191.467000C344.139000,191.467000,347.054000,187.906000,347.054000,183.531000C347.054000,179.157000,344.139000,175.596000,340.562000,175.596000C336.983000,175.597000,334.069000,179.157000,334.069000,183.531000Z" fill="rgb(165,128,108)" stroke="none" stroke-width="1"/></g><g id="ebbmmhzs1tbh48"><path id="ebbmmhzs1tbh49" d="M331.776000,183.531000C331.776000,177.689000,335.717000,172.936000,340.562000,172.936000C345.408000,172.936000,349.350000,177.689000,349.350000,183.531000C349.350000,189.375000,345.408000,194.129000,340.562000,194.129000C335.718000,194.129000,331.776000,189.375000,331.776000,183.531000ZM332.325000,183.531000C332.325000,189.076000,336.019000,193.585000,340.562000,193.585000C345.106000,193.585000,348.799000,189.076000,348.799000,183.531000C348.799000,177.988000,345.106000,173.482000,340.562000,173.482000C336.020000,173.482000,332.325000,177.988000,332.325000,183.531000Z" fill="rgb(165,128,108)" stroke="none" stroke-width="1"/></g><g id="ebbmmhzs1tbh50"><path id="ebbmmhzs1tbh51" d="M330.323000,183.531000C330.323000,176.718000,334.915000,171.172000,340.562000,171.172000C346.208000,171.172000,350.803000,176.718000,350.803000,183.531000C350.803000,190.350000,346.207000,195.896000,340.562000,195.896000C334.915000,195.896000,330.323000,190.351000,330.323000,183.531000ZM330.870000,183.531000C330.870000,190.049000,335.217000,195.346000,340.562000,195.346000C345.907000,195.346000,350.256000,190.048000,350.256000,183.531000C350.256000,177.017000,345.906000,171.719000,340.562000,171.719000C335.217000,171.719000,330.870000,177.018000,330.870000,183.531000Z" fill="rgb(165,128,108)" stroke="none" stroke-width="1"/></g><g id="ebbmmhzs1tbh52"><path id="ebbmmhzs1tbh53" d="M348.454000,124.176000C348.454000,121.449000,350.200000,119.231000,352.344000,119.231000C354.490000,119.231000,356.237000,121.450000,356.237000,124.176000C356.237000,126.899000,354.491000,129.115000,352.344000,129.115000C350.200000,129.115000,348.454000,126.898000,348.454000,124.176000ZM348.880000,124.176000C348.880000,126.676000,350.434000,128.715000,352.344000,128.715000C354.257000,128.715000,355.813000,126.676000,355.813000,124.176000C355.813000,121.672000,354.257000,119.633000,352.344000,119.633000C350.434000,119.633000,348.880000,121.672000,348.880000,124.176000Z" fill="rgb(165,128,108)" stroke="none" stroke-width="1"/></g><g id="ebbmmhzs1tbh54"><path id="ebbmmhzs1tbh55" d="M346.867000,124.176000C346.867000,120.320000,349.324000,117.187000,352.344000,117.187000C355.366000,117.187000,357.824000,120.320000,357.824000,124.176000C357.824000,128.029000,355.366000,131.161000,352.344000,131.161000C349.324000,131.161000,346.867000,128.028000,346.867000,124.176000ZM347.294000,124.176000C347.294000,127.806000,349.563000,130.758000,352.344000,130.758000C355.131000,130.758000,357.397000,127.806000,357.397000,124.176000C357.397000,120.546000,355.131000,117.591000,352.344000,117.591000C349.562000,117.591000,347.294000,120.546000,347.294000,124.176000Z" fill="rgb(165,128,108)" stroke="none" stroke-width="1"/></g><g id="ebbmmhzs1tbh56"><path id="ebbmmhzs1tbh57" d="M345.511000,124.176000C345.511000,119.356000,348.573000,115.439000,352.344000,115.439000C356.115000,115.439000,359.181000,119.356000,359.181000,124.176000C359.181000,128.990000,356.116000,132.913000,352.344000,132.913000C348.573000,132.913000,345.511000,128.990000,345.511000,124.176000ZM345.938000,124.176000C345.938000,128.771000,348.812000,132.508000,352.344000,132.508000C355.881000,132.508000,358.757000,128.771000,358.757000,124.176000C358.757000,119.581000,355.881000,115.841000,352.344000,115.841000C348.812000,115.841000,345.938000,119.581000,345.938000,124.176000Z" fill="rgb(165,128,108)" stroke="none" stroke-width="1"/></g><g id="ebbmmhzs1tbh58"><path id="ebbmmhzs1tbh59" d="M344.378000,124.176000C344.378000,118.552000,347.954000,113.980000,352.344000,113.980000C356.740000,113.980000,360.318000,118.552000,360.318000,124.176000C360.318000,129.794000,356.741000,134.369000,352.344000,134.369000C347.954000,134.369000,344.378000,129.794000,344.378000,124.176000ZM344.803000,124.176000C344.803000,129.577000,348.188000,133.966000,352.344000,133.966000C356.505000,133.966000,359.887000,129.577000,359.887000,124.176000C359.887000,118.776000,356.505000,114.380000,352.344000,114.380000C348.188000,114.380000,344.803000,118.775000,344.803000,124.176000Z" fill="rgb(165,128,108)" stroke="none" stroke-width="1"/></g><g id="ebbmmhzs1tbh60"><path id="ebbmmhzs1tbh61" d="M333.470000,142.071000C333.470000,137.172000,336.146000,133.184000,339.440000,133.184000C342.730000,133.184000,345.412000,137.171000,345.412000,142.071000C345.412000,146.976000,342.730000,150.961000,339.440000,150.961000C336.146000,150.961000,333.470000,146.977000,333.470000,142.071000ZM334.016000,142.071000C334.016000,146.672000,336.449000,150.414000,339.440000,150.414000C342.429000,150.414000,344.862000,146.672000,344.862000,142.071000C344.862000,137.474000,342.429000,133.731000,339.440000,133.731000C336.448000,133.731000,334.016000,137.475000,334.016000,142.071000Z" fill="rgb(165,128,108)" stroke="none" stroke-width="1"/></g><g id="ebbmmhzs1tbh62"><path id="ebbmmhzs1tbh63" d="M331.459000,142.071000C331.459000,135.947000,335.039000,130.962000,339.439000,130.962000C343.839000,130.962000,347.418000,135.947000,347.418000,142.071000C347.418000,148.201000,343.839000,153.183000,339.439000,153.183000C335.039000,153.183000,331.459000,148.201000,331.459000,142.071000ZM332.007000,142.071000C332.007000,147.899000,335.341000,152.640000,339.440000,152.640000C343.541000,152.640000,346.871000,147.899000,346.871000,142.071000C346.871000,136.248000,343.541000,131.509000,339.440000,131.509000C335.341000,131.510000,332.007000,136.248000,332.007000,142.071000Z" fill="rgb(165,128,108)" stroke="none" stroke-width="1"/></g><g id="ebbmmhzs1tbh64"><path id="ebbmmhzs1tbh65" d="M329.199000,142.071000C329.199000,134.925000,333.793000,129.109000,339.439000,129.109000C345.085000,129.109000,349.680000,134.924000,349.680000,142.071000C349.680000,149.220000,345.085000,155.037000,339.439000,155.037000C333.793000,155.037000,329.199000,149.221000,329.199000,142.071000ZM329.744000,142.071000C329.744000,148.923000,334.097000,154.491000,339.439000,154.491000C344.785000,154.491000,349.133000,148.923000,349.133000,142.071000C349.133000,135.226000,344.784000,129.658000,339.439000,129.658000C334.097000,129.658000,329.744000,135.227000,329.744000,142.071000Z" fill="rgb(165,128,108)" stroke="none" stroke-width="1"/></g><g id="ebbmmhzs1tbh66"><path id="ebbmmhzs1tbh67" d="M349.225000,164.837000C349.225000,159.934000,351.903000,155.947000,355.197000,155.947000C358.489000,155.947000,361.166000,159.933000,361.166000,164.837000C361.166000,169.738000,358.489000,173.723000,355.197000,173.723000C351.902000,173.723000,349.225000,169.738000,349.225000,164.837000ZM349.771000,164.837000C349.771000,169.435000,352.204000,173.177000,355.196000,173.177000C358.182000,173.177000,360.617000,169.435000,360.617000,164.837000C360.617000,160.238000,358.182000,156.492000,355.196000,156.492000C352.204000,156.492000,349.771000,160.238000,349.771000,164.837000Z" fill="rgb(165,128,108)" stroke="none" stroke-width="1"/></g><g id="ebbmmhzs1tbh68"><path id="ebbmmhzs1tbh69" d="M347.216000,164.837000C347.216000,158.709000,350.794000,153.725000,355.196000,153.725000C359.597000,153.725000,363.175000,158.709000,363.175000,164.837000C363.175000,170.965000,359.598000,175.949000,355.196000,175.949000C350.794000,175.949000,347.216000,170.965000,347.216000,164.837000ZM347.763000,164.837000C347.763000,170.662000,351.100000,175.403000,355.197000,175.403000C359.294000,175.403000,362.630000,170.662000,362.630000,164.837000C362.630000,159.009000,359.294000,154.271000,355.197000,154.271000C351.100000,154.271000,347.763000,159.009000,347.763000,164.837000Z" fill="rgb(165,128,108)" stroke="none" stroke-width="1"/></g><g id="ebbmmhzs1tbh70"><path id="ebbmmhzs1tbh71" d="M344.956000,164.837000C344.956000,157.686000,349.548000,151.872000,355.196000,151.872000C360.842000,151.872000,365.438000,157.685000,365.438000,164.837000C365.438000,171.986000,360.842000,177.799000,355.196000,177.799000C349.548000,177.799000,344.956000,171.986000,344.956000,164.837000ZM345.502000,164.837000C345.502000,171.684000,349.853000,177.252000,355.196000,177.252000C360.543000,177.252000,364.888000,171.684000,364.888000,164.837000C364.888000,157.993000,360.542000,152.419000,355.196000,152.419000C349.853000,152.419000,345.502000,157.993000,345.502000,164.837000Z" fill="rgb(165,128,108)" stroke="none" stroke-width="1"/></g></g><clipPath id="ebbmmhzs1tbh72"><use id="ebbmmhzs1tbh73" width="8.232000" height="104.605003" xlink:href="#ebbmmhzs1tbh9" transform="matrix(1 0 0 1 343.21400000000000 78.28900000000000)" fill="rgb(0,0,0)" stroke="none" stroke-width="1"/></clipPath></g></g><path id="ebbmmhzs1tbh74" d="M347.800000,71.816000C348.131000,71.837000,348.464000,71.902000,348.799000,72.008000C350.080000,72.435000,352.664000,76.154000,354.218000,77.082000C358.477000,79.622000,363.618000,80.735000,368.496000,81.200000C368.496000,81.200000,372.337000,81.566000,371.607000,85.024000C371.607000,85.024000,370.876000,87.394000,367.036000,84.844000C367.036000,84.844000,365.205000,88.850000,359.172000,85.024000C359.172000,85.024000,355.331000,88.124000,352.038000,84.479000C352.038000,84.479000,349.843000,85.754000,348.196000,85.754000L346.460000,85.754000C344.815000,85.754000,342.622000,84.479000,342.622000,84.479000C339.330000,88.124000,335.488000,85.024000,335.488000,85.024000C329.451000,88.850000,327.623000,84.844000,327.623000,84.844000C323.782000,87.394000,323.051000,85.024000,323.051000,85.024000C322.322000,81.572000,326.145000,81.203000,326.159000,81.200000C330.699000,80.766000,336.353000,79.506000,340.240000,77.196000C343.134000,75.485000,344.586000,71.621000,347.800000,71.816000Z" fill="rgb(91,203,178)" stroke="none" stroke-width="1"/><path id="ebbmmhzs1tbh75" d="M368.496000,81.201000C363.618000,80.736000,358.476000,79.623000,354.218000,77.083000C352.664000,76.154000,350.080000,72.436000,348.799000,72.009000C348.464000,71.903000,348.131000,71.838000,347.800000,71.817000C344.586000,71.622000,343.134000,75.486000,340.240000,77.198000C336.353000,79.508000,330.699000,80.768000,326.159000,81.202000C326.147000,81.205000,323.405000,81.479000,323.014000,83.668000C322.538000,80.469000,326.144000,80.111000,326.159000,80.111000C330.699000,79.674000,336.353000,78.412000,340.240000,76.107000C343.134000,74.393000,344.586000,70.530000,347.800000,70.724000C348.131000,70.745000,348.464000,70.806000,348.799000,70.917000C350.080000,71.341000,352.664000,75.063000,354.218000,75.989000C358.477000,78.529000,363.618000,79.643000,368.496000,80.110000C368.496000,80.110000,372.118000,80.462000,371.644000,83.667000C371.257000,81.473000,368.496000,81.201000,368.496000,81.201000Z" fill="rgb(101,219,193)" stroke="none" stroke-width="1"/><path id="ebbmmhzs1tbh76" d="M348.573000,97.772000C350.587000,97.772000,351.867000,97.047000,351.867000,97.047000C353.879000,101.050000,359.366000,98.685000,359.366000,98.685000C360.827000,103.052000,367.964000,102.143000,367.964000,102.143000C369.974000,107.242000,373.997000,104.512000,373.997000,104.512000C378.935000,107.605000,378.021000,103.052000,378.021000,103.052000C378.021000,103.052000,368.144000,89.760000,347.845000,88.851000L346.814000,88.851000C326.515000,89.760000,316.635000,103.052000,316.635000,103.052000C316.635000,103.052000,315.721000,107.605000,320.660000,104.512000C320.660000,104.512000,324.683000,107.241000,326.697000,102.143000C326.697000,102.143000,333.830000,103.052000,335.292000,98.685000C335.292000,98.685000,340.779000,101.050000,342.793000,97.047000C342.793000,97.047000,344.069000,97.772000,346.083000,97.772000L348.573000,97.772000Z" fill="rgb(91,203,178)" stroke="none" stroke-width="1"/><path id="ebbmmhzs1tbh77" d="M347.846000,88.852000L346.815000,88.852000C327.232000,89.731000,317.352000,102.125000,316.677000,103.002000C316.463000,102.281000,316.636000,101.414000,316.636000,101.414000C316.636000,101.414000,326.516000,88.119000,346.815000,87.211000L347.846000,87.211000C368.145000,88.119000,378.022000,101.414000,378.022000,101.414000C378.022000,101.414000,378.195000,102.281000,377.981000,103.002000C377.307000,102.125000,367.429000,89.730000,347.846000,88.852000Z" fill="rgb(101,219,193)" stroke="none" stroke-width="1"/><path id="ebbmmhzs1tbh78" d="M348.125000,119.780000C349.096000,119.611000,349.988000,119.157000,350.666000,118.347000C353.595000,124.175000,358.895000,119.804000,358.895000,119.804000C363.286000,126.540000,367.125000,121.990000,367.125000,121.990000C370.967000,126.728000,373.527000,123.446000,373.527000,123.446000C381.025000,126.361000,377.918000,121.081000,377.918000,121.081000C377.918000,121.081000,359.443000,108.697000,347.924000,108.697000L346.734000,108.697000C335.209000,108.697000,316.741000,121.081000,316.741000,121.081000C316.741000,121.081000,313.631000,126.361000,321.129000,123.446000C321.129000,123.446000,323.690000,126.728000,327.529000,121.990000C327.529000,121.990000,331.369000,126.541000,335.761000,119.804000C335.761000,119.804000,341.065000,124.175000,343.992000,118.347000C343.992000,118.347000,345.091000,119.620000,346.553000,119.804000C347.087000,119.871000,347.615000,119.865000,348.125000,119.780000Z" fill="rgb(91,203,178)" stroke="none" stroke-width="1"/><path id="ebbmmhzs1tbh79" d="M377.919000,121.081000C377.919000,121.081000,359.444000,108.697000,347.925000,108.697000L346.735000,108.697000C335.214000,108.697000,316.742000,121.081000,316.742000,121.081000C316.742000,121.081000,316.350000,121.746000,316.182000,122.473000C315.842000,121.517000,316.742000,119.985000,316.742000,119.985000C316.742000,119.985000,335.215000,107.606000,346.735000,107.606000L347.925000,107.606000C359.445000,107.606000,377.919000,119.985000,377.919000,119.985000C377.919000,119.985000,378.815000,121.517000,378.480000,122.473000C378.312000,121.746000,377.919000,121.081000,377.919000,121.081000Z" fill="rgb(101,219,193)" stroke="none" stroke-width="1"/><path id="ebbmmhzs1tbh80" d="M348.125000,138.570000C349.096000,138.424000,349.988000,138.011000,350.666000,137.288000C353.595000,142.516000,358.895000,138.596000,358.895000,138.596000C363.286000,144.637000,367.125000,140.555000,367.125000,140.555000C370.967000,144.801000,373.527000,141.862000,373.527000,141.862000C381.025000,144.475000,377.918000,139.741000,377.918000,139.741000C377.918000,139.741000,359.443000,128.637000,347.924000,128.637000L346.734000,128.637000C335.209000,128.637000,316.741000,139.741000,316.741000,139.741000C316.741000,139.741000,313.631000,144.475000,321.129000,141.862000C321.129000,141.862000,323.690000,144.801000,327.529000,140.555000C327.529000,140.555000,331.369000,144.637000,335.761000,138.596000C335.761000,138.596000,341.065000,142.516000,343.992000,137.288000C343.992000,137.288000,345.091000,138.434000,346.553000,138.596000C347.087000,138.656000,347.615000,138.649000,348.125000,138.570000Z" fill="rgb(91,203,178)" stroke="none" stroke-width="1"/><path id="ebbmmhzs1tbh81" d="M377.919000,139.740000C377.919000,139.740000,359.444000,128.636000,347.925000,128.636000L346.735000,128.636000C335.214000,128.636000,316.742000,139.740000,316.742000,139.740000C316.742000,139.740000,316.377000,140.292000,316.201000,140.918000C315.814000,140.060000,316.742000,138.643000,316.742000,138.643000C316.742000,138.643000,335.215000,127.543000,346.735000,127.543000L347.925000,127.543000C359.445000,127.543000,377.919000,138.643000,377.919000,138.643000C377.919000,138.643000,378.846000,140.060000,378.460000,140.918000C378.282000,140.292000,377.919000,139.740000,377.919000,139.740000Z" fill="rgb(101,219,193)" stroke="none" stroke-width="1"/><path id="ebbmmhzs1tbh82" d="M347.330000,151.349000C349.248000,154.628000,353.923000,152.580000,353.923000,152.580000C356.530000,158.863000,360.645000,154.353000,360.645000,154.353000C362.841000,160.226000,368.329000,156.401000,368.329000,156.401000C372.029000,158.177000,376.011000,156.401000,378.891000,153.401000C381.770000,150.394000,378.615000,150.122000,378.615000,150.122000C370.113000,152.717000,362.704000,150.940000,358.041000,149.029000C353.379000,147.118000,347.332000,146.710000,347.332000,146.710000C347.332000,146.710000,341.285000,147.118000,336.619000,149.029000C331.960000,150.940000,324.550000,152.717000,316.047000,150.122000C316.047000,150.122000,312.893000,150.394000,315.772000,153.401000C318.653000,156.401000,322.628000,158.177000,326.334000,156.401000C326.334000,156.401000,331.821000,160.226000,334.015000,154.353000C334.015000,154.353000,338.132000,158.863000,340.739000,152.580000C340.736000,152.580000,345.411000,154.628000,347.330000,151.349000Z" fill="rgb(91,203,178)" stroke="none" stroke-width="1"/><path id="ebbmmhzs1tbh83" d="M364.680000,163.916000C371.266000,171.152000,366.463000,175.934000,364.959000,175.250000C363.443000,174.566000,364.133000,171.701000,364.133000,171.701000C364.133000,171.701000,360.836000,171.834000,361.393000,168.832000C361.393000,168.832000,358.372000,171.424000,356.866000,164.596000C356.866000,164.596000,351.925000,166.098000,350.417000,160.911000C350.417000,160.911000,349.934000,162.959000,347.331000,162.959000L347.331000,162.959000C344.725000,162.959000,344.245000,160.911000,344.245000,160.911000C342.736000,166.098000,337.794000,164.596000,337.794000,164.596000C336.288000,171.424000,333.272000,168.832000,333.272000,168.832000C333.820000,171.834000,330.532000,171.701000,330.532000,171.701000C330.532000,171.701000,331.214000,174.566000,329.705000,175.250000C328.196000,175.934000,323.394000,171.152000,329.980000,163.916000C336.561000,156.676000,347.332000,156.401000,347.332000,156.401000C347.332000,156.401000,358.095000,156.676000,364.680000,163.916000Z" fill="rgb(91,203,178)" stroke="none" stroke-width="1"/></g></g><g id="ebbmmhzs1tbh84"><g id="ebbmmhzs1tbh85" clip-path="url(#ebbmmhzs1tbh88)"><rect id="ebbmmhzs1tbh86" width="95.110000" height="91.276000" rx="0" ry="0" transform="matrix(1 0 0 1 147.70599999999999 99.11000000000000)" fill="rgb(102,197,145)" stroke="none" stroke-width="1"/><path id="ebbmmhzs1tbh87" d="M193.513000,154.195000L186.850000,148.886000C186.233000,148.398000,186.133000,147.503000,186.626000,146.893000C187.121000,146.279000,188.016000,146.179000,188.632000,146.670000L193.932000,150.885000L193.932000,146.273000C193.781000,146.225000,193.642000,146.148000,193.513000,146.047000L186.850000,140.737000C186.233000,140.247000,186.133000,139.351000,186.626000,138.738000C187.121000,138.125000,188.016000,138.022000,188.632000,138.515000L193.932000,142.734000L193.932000,130.526000C193.932000,129.738000,194.570000,129.103000,195.359000,129.103000C196.146000,129.103000,196.788000,129.738000,196.788000,130.526000L196.788000,138.407000L201.889000,134.345000C202.508000,133.854000,203.407000,133.954000,203.899000,134.569000C204.391000,135.179000,204.293000,136.077000,203.676000,136.566000L197.012000,141.875000C196.940000,141.930000,196.864000,141.979000,196.788000,142.018000L196.788000,146.565000L201.889000,142.498000C202.508000,142.006000,203.407000,142.107000,203.899000,142.722000C204.391000,143.335000,204.293000,144.229000,203.676000,144.717000L197.012000,150.027000C196.940000,150.085000,196.864000,150.131000,196.788000,150.174000L196.788000,154.716000L201.889000,150.649000C202.508000,150.158000,203.407000,150.259000,203.899000,150.873000C204.391000,151.484000,204.293000,152.382000,203.676000,152.873000L197.012000,158.179000C196.940000,158.237000,196.864000,158.283000,196.788000,158.325000L196.788000,162.868000L201.889000,158.803000C202.508000,158.314000,203.407000,158.410000,203.899000,159.024000C204.391000,159.638000,204.293000,160.533000,203.676000,161.025000L197.012000,166.333000C196.940000,166.390000,196.864000,166.437000,196.788000,166.477000L196.788000,171.023000L201.889000,166.958000C202.508000,166.463000,203.407000,166.567000,203.899000,167.178000C204.391000,167.791000,204.293000,168.686000,203.676000,169.178000L197.012000,174.486000C196.940000,174.542000,196.864000,174.587000,196.788000,174.633000L196.788000,179.173000L201.889000,175.108000C202.508000,174.618000,203.407000,174.718000,203.899000,175.332000C204.391000,175.942000,204.293000,176.838000,203.676000,177.332000L197.012000,182.638000C196.940000,182.697000,196.864000,182.742000,196.788000,182.783000L196.788000,185.698000C196.788000,186.486000,196.146000,187.121000,195.359000,187.121000C195.188000,187.121000,195.027000,187.088000,194.879000,187.035000C194.725000,187.088000,194.568000,187.121000,194.405000,187.121000C194.091000,187.121000,193.779000,187.019000,193.513000,186.809000L186.850000,181.504000C186.233000,181.012000,186.133000,180.115000,186.626000,179.503000C187.121000,178.890000,188.016000,178.790000,188.632000,179.280000L193.932000,183.498000L193.932000,178.890000C193.781000,178.836000,193.642000,178.758000,193.513000,178.659000L186.850000,173.351000C186.233000,172.861000,186.133000,171.966000,186.626000,171.353000C187.121000,170.739000,188.016000,170.639000,188.632000,171.133000L193.932000,175.349000L193.932000,170.737000C193.781000,170.688000,193.642000,170.611000,193.513000,170.508000L186.850000,165.199000C186.233000,164.710000,186.133000,163.813000,186.626000,163.202000C187.121000,162.589000,188.016000,162.488000,188.632000,162.980000L193.932000,167.199000L193.932000,162.586000C193.781000,162.533000,193.642000,162.457000,193.513000,162.357000L186.850000,157.048000C186.233000,156.557000,186.133000,155.661000,186.626000,155.048000C187.121000,154.435000,188.016000,154.334000,188.632000,154.828000L193.932000,159.045000L193.932000,154.431000C193.780000,154.375000,193.642000,154.300000,193.513000,154.195000Z" fill="rgb(91,187,131)" stroke="none" stroke-width="1"/><clipPath id="ebbmmhzs1tbh88"><use id="ebbmmhzs1tbh89" width="77.427032" height="83.319756" xlink:href="#ebbmmhzs1tbh10" fill="rgb(0,0,0)" stroke="none" stroke-width="1"/></clipPath></g></g><g id="ebbmmhzs1tbh90_tr" transform="translate(223.708000,180.935000) rotate(-1.800000)"><g id="ebbmmhzs1tbh90" transform="translate(-223.708000,-180.935000)"><path id="ebbmmhzs1tbh91" d="M200.090000,132.788000C200.090000,147.012000,210.661000,158.539000,223.708000,158.539000C236.749000,158.539000,247.322000,147.012000,247.322000,132.788000C247.322000,118.561000,236.749000,107.031000,223.708000,107.031000C210.661000,107.031000,200.090000,118.562000,200.090000,132.788000Z" fill="rgb(158,208,232)" stroke="none" stroke-width="1"/><path id="ebbmmhzs1tbh92" d="M208.927000,118.668000C210.541000,113.525000,216.335000,110.398000,219.616000,110.532000C220.757000,110.576000,221.649000,111.531000,221.605000,112.667000C221.563000,113.802000,220.602000,114.693000,219.462000,114.648000C219.446000,114.648000,219.433000,114.648000,219.415000,114.648000C218.145000,114.648000,213.962000,116.440000,212.875000,119.898000C212.598000,120.779000,211.783000,121.345000,210.900000,121.345000C210.699000,121.345000,210.485000,121.315000,210.283000,121.247000C209.193000,120.914000,208.586000,119.756000,208.927000,118.668000Z" fill="rgb(203,227,255)" stroke="none" stroke-width="1"/><g id="ebbmmhzs1tbh93"><line id="ebbmmhzs1tbh94" x1="223.708000" y1="124.133000" x2="223.708000" y2="180.935000" fill="rgb(58,53,96)" stroke="none" stroke-width="1"/><path id="ebbmmhzs1tbh95" d="M223.708000,182.462000C224.555000,182.462000,225.239000,181.777000,225.239000,180.935000L225.239000,124.133000C225.239000,123.291000,224.554000,122.608000,223.708000,122.608000C222.860000,122.608000,222.172000,123.292000,222.172000,124.133000L222.172000,180.935000C222.172000,181.777000,222.860000,182.462000,223.708000,182.462000Z" fill="rgb(58,53,96)" stroke="none" stroke-width="1"/></g><g id="ebbmmhzs1tbh96"><path id="ebbmmhzs1tbh97" d="M223.957000,134.810000C224.388000,134.810000,224.824000,134.789000,225.257000,134.748000C232.235000,134.087000,236.438000,128.320000,236.611000,128.072000C237.102000,127.388000,236.941000,126.431000,236.253000,125.945000C235.565000,125.456000,234.611000,125.617000,234.114000,126.298000L234.114000,126.298000C234.080000,126.350000,230.511000,131.197000,224.940000,131.710000C221.096000,132.059000,217.125000,130.307000,213.111000,126.490000C212.499000,125.907000,211.527000,125.930000,210.942000,126.543000C210.356000,127.150000,210.380000,128.117000,210.992000,128.701000C215.257000,132.759000,219.616000,134.810000,223.957000,134.810000Z" fill="rgb(58,53,96)" stroke="none" stroke-width="1"/></g><g id="ebbmmhzs1tbh98"><path id="ebbmmhzs1tbh99" d="M223.971000,149.650000C233.587000,149.650000,239.678000,143.174000,239.766000,143.079000C240.337000,142.457000,240.290000,141.489000,239.665000,140.921000C239.039000,140.358000,238.074000,140.396000,237.501000,141.019000C237.035000,141.526000,225.870000,153.247000,209.695000,141.233000C209.016000,140.728000,208.058000,140.867000,207.548000,141.544000C207.041000,142.219000,207.180000,143.176000,207.862000,143.682000C213.866000,148.141000,219.330000,149.650000,223.971000,149.650000Z" fill="rgb(58,53,96)" stroke="none" stroke-width="1"/></g></g></g></g><g id="ebbmmhzs1tbh100"><polygon id="ebbmmhzs1tbh101" points="176.817000,184.483000 78.002000,184.483000 89.305000,162.139000 100.905000,139.213000 159.182000,139.213000" fill="rgb(239,167,0)" stroke="none" stroke-width="1"/><polygon id="ebbmmhzs1tbh102" points="154.821000,152.694000 144.534000,184.483000 105.221000,184.483000" opacity="0.1" fill="rgb(143,117,178)" stroke="none" stroke-width="1"/><polygon id="ebbmmhzs1tbh103" points="153.276000,139.213000 89.305000,162.139000 100.905000,139.213000" opacity="0.3" fill="rgb(248,248,248)" stroke="none" stroke-width="1"/><path id="ebbmmhzs1tbh104" d="M159.182000,139.331000C159.117000,139.331000,159.063000,139.277000,159.063000,139.213000L159.063000,138.597000C159.063000,138.532000,159.117000,138.478000,159.182000,138.478000C159.248000,138.478000,159.303000,138.532000,159.303000,138.597000L159.303000,139.213000C159.303000,139.277000,159.248000,139.331000,159.182000,139.331000Z" fill="rgb(72,61,127)" stroke="none" stroke-width="1"/><polygon id="ebbmmhzs1tbh105" points="159.182000,139.213000 144.534000,184.483000 176.817000,184.483000" fill="rgb(250,131,13)" stroke="none" stroke-width="1"/><polygon id="ebbmmhzs1tbh106" points="156.882000,184.483000 159.182000,139.213000 144.534000,184.483000" fill="rgb(253,212,101)" stroke="none" stroke-width="1"/><polygon id="ebbmmhzs1tbh107" points="159.182000,139.213000 156.882000,184.483000 163.505000,184.483000" fill="rgb(72,61,127)" stroke="none" stroke-width="1"/><polygon id="ebbmmhzs1tbh108" points="159.182000,139.213000 163.505000,184.483000 171.634000,184.483000" fill="rgb(252,180,43)" stroke="none" stroke-width="1"/><g id="ebbmmhzs1tbh109"><path id="ebbmmhzs1tbh110" d="M139.929000,182.222000C139.912000,182.222000,139.896000,182.219000,139.880000,182.211000C139.819000,182.184000,139.793000,182.113000,139.819000,182.053000L159.174000,138.939000L159.288000,139.160000L181.499000,182.048000C181.531000,182.107000,181.508000,182.179000,181.447000,182.209000C181.390000,182.240000,181.317000,182.218000,181.287000,182.158000L159.188000,139.487000L140.037000,182.153000C140.018000,182.195000,139.974000,182.222000,139.929000,182.222000Z" fill="rgb(72,61,127)" stroke="none" stroke-width="1"/><path id="ebbmmhzs1tbh111" d="M75.879000,182.222000C75.858000,182.222000,75.837000,182.217000,75.818000,182.206000C75.762000,182.172000,75.742000,182.100000,75.775000,182.042000L100.785000,139.180000L100.785000,138.272000C100.785000,138.207000,100.838000,138.153000,100.905000,138.153000C100.971000,138.153000,101.024000,138.207000,101.024000,138.272000L101.024000,139.244000L75.981000,182.164000C75.959000,182.201000,75.920000,182.222000,75.879000,182.222000Z" fill="rgb(72,61,127)" stroke="none" stroke-width="1"/></g></g><g id="ebbmmhzs1tbh112"><polygon id="ebbmmhzs1tbh113" points="104.312000,183.554000 13.424000,183.554000 23.821000,163.001000 34.490000,141.915000 88.092000,141.915000" fill="rgb(239,167,0)" stroke="none" stroke-width="1"/><polygon id="ebbmmhzs1tbh114" points="84.080000,154.315000 74.619000,183.554000 38.460000,183.554000" opacity="0.1" fill="rgb(143,117,178)" stroke="none" stroke-width="1"/><polygon id="ebbmmhzs1tbh115" points="82.660000,141.915000 23.821000,163.001000 34.490000,141.915000" opacity="0.3" fill="rgb(248,248,248)" stroke="none" stroke-width="1"/><path id="ebbmmhzs1tbh116" d="M88.092000,142.024000C88.031000,142.024000,87.983000,141.974000,87.983000,141.915000L87.983000,141.348000C87.983000,141.288000,88.032000,141.240000,88.092000,141.240000C88.154000,141.240000,88.203000,141.289000,88.203000,141.348000L88.203000,141.915000C88.203000,141.975000,88.153000,142.024000,88.092000,142.024000Z" fill="rgb(72,61,127)" stroke="none" stroke-width="1"/><polygon id="ebbmmhzs1tbh117" points="88.092000,141.915000 74.619000,183.554000 104.312000,183.554000" fill="rgb(250,131,13)" stroke="none" stroke-width="1"/><polygon id="ebbmmhzs1tbh118" points="85.976000,183.554000 88.092000,141.915000 74.619000,183.554000" fill="rgb(253,212,101)" stroke="none" stroke-width="1"/><polygon id="ebbmmhzs1tbh119" points="88.092000,141.915000 85.976000,183.554000 92.068000,183.554000" fill="rgb(72,61,127)" stroke="none" stroke-width="1"/><polygon id="ebbmmhzs1tbh120" points="88.092000,141.915000 92.068000,183.554000 99.545000,183.554000" fill="rgb(252,180,43)" stroke="none" stroke-width="1"/><g id="ebbmmhzs1tbh121"><path id="ebbmmhzs1tbh122" d="M70.384000,181.473000C70.368000,181.473000,70.354000,181.470000,70.338000,181.464000C70.283000,181.439000,70.259000,181.374000,70.283000,181.319000L88.085000,141.662000L88.190000,141.864000L108.620000,181.312000C108.648000,181.366000,108.627000,181.431000,108.572000,181.459000C108.519000,181.487000,108.453000,181.467000,108.425000,181.413000L88.100000,142.167000L70.484000,181.408000C70.465000,181.449000,70.425000,181.473000,70.384000,181.473000Z" fill="rgb(72,61,127)" stroke="none" stroke-width="1"/><path id="ebbmmhzs1tbh123" d="M11.472000,181.473000C11.452000,181.473000,11.434000,181.469000,11.416000,181.458000C11.364000,181.428000,11.345000,181.360000,11.376000,181.308000L34.380000,141.885000L34.380000,141.049000C34.380000,140.988000,34.429000,140.940000,34.490000,140.940000C34.551000,140.940000,34.600000,140.989000,34.600000,141.049000L34.600000,141.944000L11.565000,181.420000C11.546000,181.454000,11.509000,181.473000,11.472000,181.473000Z" fill="rgb(72,61,127)" stroke="none" stroke-width="1"/></g></g><clipPath id="ebbmmhzs1tbh124"><use id="ebbmmhzs1tbh125" width="375" height="180" xlink:href="#ebbmmhzs1tbh7" fill="rgb(0,0,0)" stroke="none" stroke-width="1"/></clipPath></g></g><g id="ebbmmhzs1tbh126_ts" transform="translate(110.850895,70.545000) scale(1,1)"><g id="ebbmmhzs1tbh126" transform="translate(-110.850895,-70.545000)" opacity="0.9"><path id="ebbmmhzs1tbh127" d="M70.713000,30.880000C71.859000,30.880000,72.514000,32.134000,71.913000,33.062000L66.293000,42.066000C65.475000,43.429000,63.946000,44.248000,62.364000,44.248000C61.218000,44.248000,60.509000,42.994000,61.109000,42.066000L66.674000,33.117000C67.548000,31.698000,69.076000,30.880000,70.713000,30.880000ZM68.421000,45.339000C69.294000,44.030000,70.768000,43.157000,72.404000,43.157000C73.550000,43.157000,74.205000,44.411000,73.659000,45.393000L71.968000,48.176000C71.586000,48.776000,71.422000,49.431000,71.422000,50.141000L71.422000,74.967000C71.422000,76.168000,70.386000,77.205000,69.185000,77.205000C67.930000,77.205000,66.894000,76.168000,66.894000,74.967000L66.894000,56.962000C66.894000,56.798000,66.675000,56.689000,66.511000,56.853000C65.693000,57.945000,64.329000,58.599000,62.965000,58.599000L62.583000,58.599000C61.437000,58.599000,60.782000,57.343000,61.382000,56.416000L68.421000,45.339000ZM104.216000,74.368000C105.198000,75.022000,104.707000,76.604000,103.507000,76.604000L103.452000,76.604000C100.888000,76.604000,98.323000,75.840000,96.194000,74.368000L92.702000,71.968000C92.157000,71.640000,91.502000,71.640000,91.011000,72.022000L87.847000,74.533000C86.156000,75.896000,84.027000,76.605000,81.844000,76.605000C80.917000,76.605000,80.371000,75.078000,81.080000,74.478000L87.792000,69.076000C88.229000,68.693000,88.283000,68.039000,87.901000,67.603000L84.409000,63.455000C84.300000,63.292000,84.026000,63.292000,83.863000,63.455000C83.262000,64.274000,82.280000,64.766000,81.244000,64.766000L80.098000,64.766000C79.007000,64.766000,78.352000,63.455000,79.117000,62.637000L82.281000,58.764000C83.864000,56.854000,86.264000,55.707000,88.775000,55.707000L99.415000,55.707000C101.106000,55.707000,102.089000,57.617000,101.161000,59.036000L95.705000,67.221000C95.377000,67.712000,95.486000,68.367000,95.977000,68.694000L104.216000,74.368000ZM83.645000,52.214000C82.008000,52.269000,81.081000,50.413000,82.008000,49.159000L84.572000,45.612000C84.954000,45.174000,84.844000,44.466000,84.409000,44.138000L82.008000,42.229000C80.262000,40.809000,79.880000,38.299000,81.190000,36.444000L84.300000,31.916000C85.228000,30.552000,86.810000,29.733000,88.446000,29.733000C89.592000,29.733000,90.247000,30.988000,89.592000,31.916000L85.390000,37.919000C85.063000,38.409000,85.172000,39.064000,85.609000,39.446000L86.919000,40.483000C87.410000,40.864000,88.065000,40.754000,88.446000,40.319000L90.137000,38.082000C91.119000,36.772000,92.648000,36.063000,94.284000,36.063000C95.320000,36.063000,95.921000,37.262000,95.320000,38.082000L88.773000,47.085000C88.500000,47.413000,88.773000,47.903000,89.209000,47.903000L98.213000,47.631000C98.704000,47.631000,99.086000,47.085000,98.867000,46.595000L98.377000,45.284000C97.994000,44.138000,98.813000,42.938000,100.014000,42.938000C101.541000,42.938000,102.906000,43.866000,103.397000,45.284000L105.634000,51.014000C106.071000,52.159000,105.252000,53.360000,104.051000,53.360000L103.015000,53.360000C102.142000,53.360000,101.378000,52.814000,101.050000,51.996000C100.996000,51.778000,100.778000,51.614000,100.505000,51.614000L83.645000,52.214000ZM91.229000,64.601000C91.611000,64.984000,92.211000,64.929000,92.539000,64.492000L95.049000,60.673000C95.321000,60.291000,94.994000,59.800000,94.558000,59.800000L88.010000,59.800000C87.573000,59.800000,87.356000,60.237000,87.628000,60.565000L91.229000,64.601000Z" fill="rgb(255,255,255)" stroke="none" stroke-width="1"/><path id="ebbmmhzs1tbh128" d="M156.495000,54.724000C155.077000,54.724000,153.767000,53.743000,153.331000,52.378000L153.112000,51.505000C152.948000,51.015000,152.458000,50.687000,151.912000,50.687000L123.865000,51.942000C122.119000,51.997000,120.864000,50.142000,121.628000,48.504000L128.776000,33.226000C129.485000,31.753000,130.959000,30.826000,132.595000,30.826000C133.795000,30.826000,134.614000,32.080000,134.069000,33.226000L128.012000,46.103000C127.793000,46.541000,128.120000,47.031000,128.612000,46.976000L150.383000,46.103000C150.929000,46.048000,151.311000,45.558000,151.148000,45.012000L150.056000,41.138000C149.729000,39.937000,150.602000,38.792000,151.857000,38.792000C153.276000,38.792000,154.586000,39.719000,155.022000,41.138000L158.295000,52.378000C158.624000,53.579000,157.751000,54.724000,156.495000,54.724000ZM126.921000,76.224000C124.738000,76.224000,122.992000,74.478000,122.992000,72.294000L122.992000,61.054000C122.992000,58.872000,124.738000,57.072000,126.921000,57.072000L150.875000,57.072000C153.058000,57.072000,154.858000,58.873000,154.858000,61.054000L154.858000,72.294000C154.858000,74.478000,153.057000,76.224000,150.875000,76.224000L126.921000,76.224000ZM128.776000,61.872000C128.175000,61.872000,127.739000,62.310000,127.739000,62.909000L127.739000,70.438000C127.739000,71.040000,128.176000,71.475000,128.776000,71.475000L149.020000,71.475000C149.620000,71.475000,150.111000,71.039000,150.111000,70.438000L150.111000,62.909000C150.111000,62.309000,149.620000,61.872000,149.020000,61.872000L128.776000,61.872000Z" fill="rgb(255,255,255)" stroke="none" stroke-width="1"/><path id="ebbmmhzs1tbh129" d="M72.814000,99.707000C73.742000,99.707000,74.478000,100.471000,74.478000,101.398000L74.478000,109.447000C74.478000,110.484000,73.660000,111.330000,72.624000,111.330000L64.438000,111.330000C63.402000,111.330000,62.610000,110.484000,62.610000,109.447000L62.610000,94.715000C62.610000,93.705000,63.402000,92.860000,64.438000,92.860000L70.604000,92.860000C71.641000,92.860000,72.487000,93.706000,72.487000,94.715000L72.487000,99.381000C72.487000,99.571000,72.624000,99.707000,72.814000,99.707000ZM69.759000,95.042000L65.312000,95.042000C65.094000,95.042000,64.930000,95.179000,64.930000,95.396000L64.930000,99.353000C64.930000,99.543000,65.094000,99.707000,65.312000,99.707000L69.759000,99.707000C69.950000,99.707000,70.113000,99.544000,70.113000,99.353000L70.113000,95.396000C70.113000,95.179000,69.950000,95.042000,69.759000,95.042000ZM65.312000,109.147000L71.751000,109.147000C71.941000,109.147000,72.105000,109.010000,72.105000,108.793000L72.105000,102.244000C72.105000,102.054000,71.941000,101.890000,71.751000,101.890000L65.312000,101.890000C65.094000,101.890000,64.930000,102.053000,64.930000,102.244000L64.930000,108.793000C64.930000,109.011000,65.094000,109.147000,65.312000,109.147000Z" fill="rgb(255,255,255)" stroke="none" stroke-width="1"/><path id="ebbmmhzs1tbh130" d="M87.330000,108.848000C87.330000,110.184000,86.267000,111.276000,84.957000,111.330000L79.991000,111.330000C78.955000,111.330000,78.108000,110.484000,78.108000,109.447000L78.108000,104.373000C78.108000,103.363000,78.955000,102.518000,79.991000,102.518000L84.683000,102.518000C84.874000,102.518000,85.038000,102.354000,85.038000,102.136000L85.038000,100.308000C85.038000,100.090000,84.874000,99.926000,84.683000,99.926000L79.418000,99.926000C78.845000,99.926000,78.354000,99.462000,78.354000,98.889000C78.354000,98.344000,78.845000,97.852000,79.418000,97.852000L85.475000,97.852000C86.484000,97.852000,87.329000,98.671000,87.329000,99.707000L87.329000,108.848000ZM80.318000,105L80.318000,108.902000C80.318000,109.120000,80.455000,109.283000,80.673000,109.283000L84.683000,109.283000C84.874000,109.283000,85.038000,109.120000,85.038000,108.902000L85.038000,105C85.038000,104.782000,84.874000,104.619000,84.683000,104.619000L80.673000,104.619000C80.455000,104.619000,80.318000,104.782000,80.318000,105Z" fill="rgb(255,255,255)" stroke="none" stroke-width="1"/><path id="ebbmmhzs1tbh131" d="M90.933000,108.848000L90.933000,99.707000C90.933000,98.671000,91.780000,97.852000,92.816000,97.852000L98.927000,97.852000C99.500000,97.852000,99.937000,98.344000,99.937000,98.889000C99.937000,99.462000,99.500000,99.926000,98.927000,99.926000L93.607000,99.926000C93.389000,99.926000,93.225000,100.090000,93.225000,100.308000L93.225000,108.903000C93.225000,109.121000,93.389000,109.284000,93.607000,109.284000L98.955000,109.284000C99.501000,109.284000,99.937000,109.749000,99.937000,110.294000C99.937000,110.867000,99.500000,111.331000,98.955000,111.331000L93.362000,111.331000C92.024000,111.303000,90.933000,110.211000,90.933000,108.848000Z" fill="rgb(255,255,255)" stroke="none" stroke-width="1"/><path id="ebbmmhzs1tbh132" d="M109.678000,103.827000L112.489000,110.129000C112.734000,110.703000,112.325000,111.330000,111.725000,111.330000C110.988000,111.330000,110.279000,110.866000,109.979000,110.184000L107.687000,105C107.578000,104.755000,107.360000,104.646000,107.141000,104.646000L105.695000,104.646000C105.477000,104.646000,105.313000,104.810000,105.313000,105L105.313000,110.184000C105.313000,110.812000,104.794000,111.330000,104.167000,111.330000C103.539000,111.330000,103.021000,110.811000,103.021000,110.184000L103.021000,94.387000C103.021000,93.733000,103.540000,93.242000,104.167000,93.242000C104.794000,93.242000,105.313000,93.732000,105.313000,94.387000L105.313000,102.163000C105.313000,102.353000,105.477000,102.517000,105.695000,102.517000L107.032000,102.517000C107.251000,102.517000,107.496000,102.408000,107.605000,102.190000L109.433000,98.943000C109.870000,98.316000,110.579000,97.851000,111.370000,97.851000C111.971000,97.851000,112.325000,98.480000,112.053000,98.997000L109.734000,103.116000C109.596000,103.363000,109.569000,103.609000,109.678000,103.827000Z" fill="rgb(255,255,255)" stroke="none" stroke-width="1"/><path id="ebbmmhzs1tbh133" d="M114.835000,102.899000C114.835000,102.271000,115.326000,101.781000,115.954000,101.781000L120.374000,101.781000C120.974000,101.781000,121.492000,102.271000,121.492000,102.899000C121.492000,103.527000,120.973000,104.017000,120.374000,104.017000L115.954000,104.017000C115.326000,104.018000,114.835000,103.527000,114.835000,102.899000Z" fill="rgb(255,255,255)" stroke="none" stroke-width="1"/><path id="ebbmmhzs1tbh134" d="M134.533000,111.357000L128.095000,111.330000C127.059000,111.330000,126.212000,110.484000,126.212000,109.447000L126.212000,94.715000C126.212000,93.678000,127.059000,92.860000,128.095000,92.860000L134.533000,92.860000C135.079000,92.860000,135.570000,93.351000,135.570000,93.924000C135.570000,94.524000,135.079000,95.016000,134.533000,95.016000L128.940000,95.016000C128.722000,95.016000,128.558000,95.179000,128.558000,95.397000L128.558000,99.354000C128.558000,99.544000,128.722000,99.708000,128.940000,99.708000L133.714000,99.708000C134.315000,99.708000,134.778000,100.200000,134.778000,100.800000C134.778000,101.400000,134.314000,101.892000,133.714000,101.892000L128.940000,101.892000C128.722000,101.892000,128.558000,102.055000,128.558000,102.246000L128.558000,108.822000C128.558000,109.012000,128.722000,109.176000,128.940000,109.176000L134.533000,109.176000C135.079000,109.176000,135.570000,109.667000,135.570000,110.267000C135.570000,110.866000,135.079000,111.357000,134.533000,111.357000Z" fill="rgb(255,255,255)" stroke="none" stroke-width="1"/><path id="ebbmmhzs1tbh135" d="M146.840000,111.330000C146.267000,111.330000,145.777000,110.839000,145.777000,110.238000L145.777000,100.362000C145.777000,100.172000,145.613000,99.980000,145.394000,99.980000L140.893000,99.980000C140.702000,99.980000,140.539000,100.171000,140.539000,100.362000L140.539000,110.293000C140.539000,110.866000,140.048000,111.330000,139.475000,111.330000C138.902000,111.330000,138.438000,110.866000,138.438000,110.293000L138.438000,99.707000C138.438000,98.671000,139.257000,97.852000,140.293000,97.852000L145.449000,97.852000C146.813000,97.852000,147.905000,98.944000,147.905000,100.308000L147.905000,110.239000C147.904000,110.839000,147.440000,111.330000,146.840000,111.330000Z" fill="rgb(255,255,255)" stroke="none" stroke-width="1"/><path id="ebbmmhzs1tbh136" d="M158.327000,111.330000L153.416000,111.330000C152.380000,111.330000,151.561000,110.484000,151.561000,109.447000L151.561000,99.707000C151.561000,98.671000,152.380000,97.852000,153.416000,97.852000L158.136000,97.852000C158.355000,97.852000,158.519000,97.689000,158.519000,97.471000L158.519000,94.387000C158.519000,93.733000,159.037000,93.242000,159.665000,93.242000C160.292000,93.242000,160.811000,93.732000,160.811000,94.387000L160.811000,108.848000C160.810000,110.211000,159.691000,111.330000,158.327000,111.330000ZM153.771000,100.308000L153.771000,108.903000C153.771000,109.121000,153.935000,109.284000,154.126000,109.284000L158.136000,109.284000C158.355000,109.284000,158.519000,109.121000,158.519000,108.903000L158.519000,100.308000C158.519000,100.090000,158.355000,99.926000,158.136000,99.926000L154.126000,99.926000C153.935000,99.926000,153.771000,100.090000,153.771000,100.308000Z" fill="rgb(255,255,255)" stroke="none" stroke-width="1"/></g></g></g></g></svg>