<svg id="eak7euxpdtmp1" xmlns="http://www.w3.org/2000/svg" xmlns:xlink="http://www.w3.org/1999/xlink" viewBox="0 0 375 180" shape-rendering="geometricPrecision" text-rendering="geometricPrecision"><style><![CDATA[#eak7euxpdtmp41_tr {animation: eak7euxpdtmp41_tr__tr 2000ms linear infinite normal forwards}@keyframes eak7euxpdtmp41_tr__tr { 0% {transform: translate(85.256000px,202.554000px) rotate(1.800000deg)} 50% {transform: translate(85.256000px,202.554000px) rotate(0deg)} 100% {transform: translate(85.256000px,202.554000px) rotate(1.800000deg)} }#eak7euxpdtmp90_tr {animation: eak7euxpdtmp90_tr__tr 2000ms linear infinite normal forwards}@keyframes eak7euxpdtmp90_tr__tr { 0% {transform: translate(53.190000px,184.146000px) rotate(-1.800000deg)} 50% {transform: translate(53.190000px,184.146000px) rotate(1.800000deg)} 100% {transform: translate(53.190000px,184.146000px) rotate(-1.800000deg)} }#eak7euxpdtmp129_ts {animation: eak7euxpdtmp129_ts__ts 2000ms linear infinite normal forwards}@keyframes eak7euxpdtmp129_ts__ts { 0% {transform: translate(263.180481px,71.091000px) scale(1,1)} 50% {transform: translate(263.180481px,71.091000px) scale(1.030000,1.030000)} 100% {transform: translate(263.180481px,71.091000px) scale(1,1)} }]]></style><defs><rect id="eak7euxpdtmp2" width="375" height="180" rx="0" ry="0"/><path id="eak7euxpdtmp3" d="M53.376000,171.911000C47.944000,167.781000,42.763000,163.842000,41.864000,163.163000C40.968000,162.478000,44.993000,161.919000,50.808000,161.919000C56.627000,161.919000,57.185000,158.242000,52.049000,153.746000L49.659000,151.653000C44.523000,147.162000,39.680000,142.924000,38.902000,142.242000C38.121000,141.560000,41.335000,140.998000,46.044000,140.998000C50.752000,140.998000,50.743000,136.969000,46.019000,132.043000L45.518000,131.521000C40.793000,126.595000,35.381000,120.949000,33.489000,118.974000C31.596000,116.998000,32.715000,115.385000,35.969000,115.385000C39.227000,115.385000,39.347000,112.294000,36.234000,108.515000C33.119000,104.736000,28.027000,98.554000,24.916000,94.775000C21.801000,90.999000,16.706000,90.999000,13.593000,94.775000C10.481000,98.554000,5.384000,104.736000,2.273000,108.515000C-0.840000,112.294000,-0.720000,115.385000,2.536000,115.385000C5.791000,115.385000,6.910000,116.999000,5.020000,118.974000C3.126000,120.949000,-2.289000,126.595000,-7.013000,131.521000L-7.512000,132.043000C-12.237000,136.969000,-12.250000,140.998000,-7.538000,140.998000C-2.830000,140.998000,0.384000,141.560000,-0.396000,142.242000C-1.176000,142.924000,-6.014000,147.162000,-11.153000,151.653000L-13.542000,153.746000C-18.678000,158.242000,-18.121000,161.919000,-12.305000,161.919000C-6.489000,161.919000,-2.463000,162.478000,-3.361000,163.163000C-4.258000,163.842000,-9.436000,167.780000,-14.872000,171.911000L-19.362000,175.328000C-24.794000,179.459000,-23.654000,182.839000,-16.830000,182.839000L6.846000,182.839000C13.668000,182.839000,24.838000,182.839000,31.662000,182.839000L55.336000,182.839000C62.161000,182.839000,63.301000,179.459000,57.867000,175.328000L53.376000,171.911000Z"/><path id="eak7euxpdtmp4" d="M398.347000,177.183000C393.185000,173.258000,388.261000,169.515000,387.408000,168.870000C386.556000,168.219000,390.382000,167.688000,395.908000,167.688000C401.438000,167.688000,401.968000,164.193000,397.088000,159.921000L394.817000,157.932000C389.936000,153.664000,385.335000,149.636000,384.594000,148.988000C383.852000,148.340000,386.906000,147.806000,391.381000,147.806000C395.856000,147.806000,395.847000,143.977000,391.357000,139.296000L390.881000,138.800000C386.391000,134.118000,381.247000,128.753000,379.449000,126.877000C377.650000,125,378.713000,123.466000,381.806000,123.466000C384.902000,123.466000,385.016000,120.528000,382.057000,116.937000C379.097000,113.346000,374.258000,107.471000,371.301000,103.879000C368.340000,100.291000,363.499000,100.291000,360.540000,103.879000C357.582000,107.470000,352.739000,113.345000,349.782000,116.937000C346.823000,120.528000,346.937000,123.466000,350.031000,123.466000C353.125000,123.466000,354.188000,125,352.392000,126.877000C350.592000,128.753000,345.447000,134.119000,340.956000,138.800000L340.482000,139.296000C335.992000,143.977000,335.979000,147.806000,340.457000,147.806000C344.931000,147.806000,347.985000,148.340000,347.244000,148.988000C346.502000,149.636000,341.904000,153.664000,337.021000,157.932000L334.750000,159.921000C329.870000,164.193000,330.398000,167.688000,335.926000,167.688000C341.454000,167.688000,345.280000,168.219000,344.426000,168.870000C343.573000,169.515000,338.653000,173.258000,333.488000,177.183000L329.220000,180.430000C324.059000,184.356000,325.142000,187.568000,331.627000,187.568000L354.126000,187.568000C360.609000,187.568000,371.225000,187.568000,377.710000,187.568000L400.207000,187.568000C406.693000,187.568000,407.776000,184.356000,402.613000,180.430000L398.347000,177.183000Z"/><path id="eak7euxpdtmp5" d="M183.780000,179.529000C178.618000,175.604000,173.694000,171.861000,172.841000,171.216000C171.989000,170.565000,175.815000,170.034000,181.341000,170.034000C186.871000,170.034000,187.401000,166.539000,182.521000,162.267000L180.250000,160.278000C175.369000,156.010000,170.768000,151.982000,170.027000,151.334000C169.285000,150.686000,172.339000,150.152000,176.814000,150.152000C181.289000,150.152000,181.280000,146.323000,176.790000,141.642000L176.314000,141.146000C171.824000,136.464000,166.680000,131.099000,164.882000,129.223000C163.083000,127.346000,164.146000,125.812000,167.239000,125.812000C170.335000,125.812000,170.449000,122.874000,167.490000,119.283000C164.530000,115.692000,159.691000,109.817000,156.734000,106.225000C153.773000,102.637000,148.932000,102.637000,145.973000,106.225000C143.015000,109.816000,138.172000,115.691000,135.215000,119.283000C132.256000,122.874000,132.370000,125.812000,135.464000,125.812000C138.558000,125.812000,139.621000,127.346000,137.825000,129.223000C136.025000,131.099000,130.880000,136.465000,126.389000,141.146000L125.915000,141.642000C121.425000,146.323000,121.412000,150.152000,125.890000,150.152000C130.364000,150.152000,133.418000,150.686000,132.677000,151.334000C131.935000,151.982000,127.337000,156.010000,122.454000,160.278000L120.183000,162.267000C115.303000,166.539000,115.831000,170.034000,121.359000,170.034000C126.887000,170.034000,130.713000,170.565000,129.859000,171.216000C129.006000,171.861000,124.086000,175.604000,118.921000,179.529000L114.653000,182.776000C109.492000,186.702000,110.575000,189.914000,117.060000,189.914000L139.559000,189.914000C146.042000,189.914000,156.658000,189.914000,163.143000,189.914000L185.640000,189.914000C192.126000,189.914000,193.209000,186.702000,188.046000,182.776000L183.780000,179.529000Z"/><rect id="eak7euxpdtmp6" width="8.334000" height="106.395000" rx="0" ry="0"/><rect id="eak7euxpdtmp7" width="375" height="180" rx="0" ry="0"/><path id="eak7euxpdtmp8" d="M268.196000,198.549000C274.252000,193.964000,280.025000,189.592000,281.028000,188.835000C282.027000,188.078000,277.542000,187.457000,271.055000,187.457000C264.567000,187.457000,263.948000,183.372000,269.673000,178.385000L272.339000,176.061000C278.065000,171.074000,283.463000,166.372000,284.332000,165.615000C285.202000,164.854000,281.618000,164.238000,276.367000,164.238000C271.116000,164.238000,271.131000,159.762000,276.398000,154.293000L276.955000,153.715000C282.222000,148.245000,288.259000,141.980000,290.367000,139.789000C292.477000,137.597000,291.233000,135.805000,287.601000,135.805000C283.966000,135.805000,283.835000,132.374000,287.306000,128.179000C290.779000,123.985000,296.456000,117.118000,299.928000,112.924000C303.400000,108.733000,309.078000,108.733000,312.548000,112.924000C316.023000,117.118000,321.700000,123.985000,325.171000,128.179000C328.640000,132.374000,328.510000,135.805000,324.877000,135.805000C321.247000,135.805000,320.001000,137.597000,322.113000,139.789000C324.221000,141.979000,330.258000,148.245000,335.523000,153.715000L336.080000,154.293000C341.347000,159.763000,341.361000,164.238000,336.109000,164.238000C330.864000,164.238000,327.276000,164.854000,328.145000,165.615000C329.017000,166.372000,334.413000,171.074000,340.143000,176.061000L342.806000,178.385000C348.532000,183.372000,347.910000,187.457000,341.424000,187.457000C334.938000,187.457000,330.449000,188.078000,331.452000,188.835000C332.455000,189.592000,338.225000,193.964000,344.286000,198.549000L349.290000,202.340000C355.348000,206.926000,354.079000,210.678000,346.471000,210.678000L320.075000,210.678000C312.467000,210.678000,300.012000,210.678000,292.402000,210.678000L266.007000,210.678000C258.398000,210.678000,257.127000,206.926000,263.184000,202.340000L268.196000,198.549000Z"/><rect id="eak7euxpdtmp9" width="8.232000" height="104.605000" rx="0" ry="0"/><path id="eak7euxpdtmp10" d="M163.846000,176.394000C168.845000,172.608000,173.616000,168.997000,174.443000,168.372000C175.269000,167.745000,171.563000,167.232000,166.210000,167.232000C160.852000,167.232000,160.339000,163.861000,165.067000,159.740000L167.268000,157.827000C171.995000,153.706000,176.455000,149.822000,177.171000,149.196000C177.891000,148.567000,174.931000,148.057000,170.594000,148.057000C166.259000,148.057000,166.269000,144.362000,170.620000,139.848000L171.077000,139.369000C175.429000,134.853000,180.413000,129.679000,182.153000,127.870000C183.898000,126.059000,182.872000,124.578000,179.871000,124.578000C176.870000,124.578000,176.763000,121.745000,179.631000,118.282000C182.495000,114.817000,187.185000,109.151000,190.050000,105.683000C192.917000,102.222000,197.606000,102.222000,200.473000,105.683000C203.342000,109.151000,208.031000,114.817000,210.898000,118.282000C213.762000,121.745000,213.653000,124.578000,210.654000,124.578000C207.657000,124.578000,206.630000,126.059000,208.368000,127.870000C210.113000,129.679000,215.097000,134.853000,219.445000,139.369000L219.907000,139.848000C224.254000,144.362000,224.267000,148.057000,219.929000,148.057000C215.596000,148.057000,212.636000,148.567000,213.352000,149.196000C214.074000,149.822000,218.528000,153.706000,223.258000,157.827000L225.460000,159.740000C230.186000,163.861000,229.674000,167.232000,224.319000,167.232000C218.962000,167.232000,215.253000,167.745000,216.083000,168.372000C216.906000,168.997000,221.677000,172.608000,226.681000,176.394000L230.815000,179.522000C235.816000,183.309000,234.769000,186.407000,228.483000,186.407000L206.689000,186.407000C200.404000,186.407000,190.120000,186.407000,183.838000,186.407000L162.043000,186.407000C155.759000,186.407000,154.708000,183.309000,159.708000,179.522000L163.846000,176.394000Z"/></defs><g id="eak7euxpdtmp11"><g id="eak7euxpdtmp12"><g id="eak7euxpdtmp13"><g id="eak7euxpdtmp14" clip-path="url(#eak7euxpdtmp127)"><rect id="eak7euxpdtmp15" width="501.693000" height="241.746000" rx="0" ry="0" transform="matrix(1 0 0 1 -63.34700000000001 -10.87300000000000)" opacity="0.4" fill="rgb(245,255,245)" stroke="none" stroke-width="1"/><g id="eak7euxpdtmp16"><g id="eak7euxpdtmp17"><g id="eak7euxpdtmp18" clip-path="url(#eak7euxpdtmp21)"><rect id="eak7euxpdtmp19" width="103.300000" height="99.581000" rx="0" ry="0" transform="matrix(1 0 0 1 -32.39600000000000 87.59999999999999)" fill="rgb(102,197,145)" stroke="none" stroke-width="1"/><path id="eak7euxpdtmp20" d="M21.152000,147.701000L28.390000,141.909000C29.060000,141.373000,29.166000,140.397000,28.633000,139.728000C28.098000,139.060000,27.120000,138.949000,26.450000,139.483000L20.699000,144.087000L20.699000,139.058000C20.861000,139,21.013000,138.917000,21.151000,138.805000L28.389000,133.019000C29.059000,132.482000,29.165000,131.506000,28.632000,130.835000C28.097000,130.167000,27.119000,130.059000,26.449000,130.596000L20.698000,135.194000L20.698000,121.878000C20.698000,121.020000,20.003000,120.327000,19.148000,120.327000C18.289000,120.327000,17.596000,121.019000,17.596000,121.878000L17.596000,130.481000L12.050000,126.045000C11.381000,125.506000,10.404000,125.615000,9.870000,126.287000C9.336000,126.954000,9.441000,127.931000,10.110000,128.467000L17.350000,134.257000C17.427000,134.320000,17.511000,134.370000,17.595000,134.417000L17.595000,139.373000L12.049000,134.936000C11.380000,134.400000,10.403000,134.510000,9.869000,135.181000C9.335000,135.847000,9.440000,136.823000,10.109000,137.362000L17.349000,143.150000C17.426000,143.215000,17.510000,143.262000,17.594000,143.311000L17.594000,148.265000L12.048000,143.829000C11.379000,143.296000,10.402000,143.406000,9.868000,144.074000C9.334000,144.742000,9.439000,145.721000,10.108000,146.255000L17.348000,152.045000C17.425000,152.108000,17.509000,152.160000,17.593000,152.204000L17.593000,157.160000L12.047000,152.724000C11.378000,152.188000,10.401000,152.300000,9.867000,152.969000C9.333000,153.638000,9.438000,154.614000,10.107000,155.147000L17.347000,160.939000C17.424000,161,17.508000,161.051000,17.592000,161.095000L17.592000,166.054000L12.046000,161.618000C11.377000,161.082000,10.400000,161.192000,9.866000,161.860000C9.332000,162.528000,9.437000,163.506000,10.106000,164.039000L17.346000,169.833000C17.423000,169.896000,17.507000,169.946000,17.591000,169.993000L17.591000,174.949000L12.045000,170.513000C11.376000,169.976000,10.399000,170.084000,9.865000,170.755000C9.331000,171.423000,9.436000,172.401000,10.105000,172.933000L17.345000,178.725000C17.422000,178.788000,17.506000,178.838000,17.590000,178.882000L17.590000,182.064000C17.590000,182.922000,18.282000,183.616000,19.142000,183.616000C19.325000,183.616000,19.499000,183.579000,19.663000,183.522000C19.828000,183.580000,20.002000,183.616000,20.178000,183.616000C20.515000,183.616000,20.857000,183.506000,21.144000,183.277000L28.382000,177.485000C29.052000,176.952000,29.158000,175.975000,28.625000,175.304000C28.090000,174.639000,27.112000,174.529000,26.442000,175.065000L20.691000,179.663000L20.691000,174.634000C20.853000,174.579000,21.005000,174.496000,21.143000,174.383000L28.381000,168.594000C29.051000,168.058000,29.157000,167.082000,28.624000,166.413000C28.089000,165.745000,27.111000,165.635000,26.441000,166.171000L20.690000,170.772000L20.690000,165.742000C20.852000,165.684000,21.004000,165.602000,21.142000,165.492000L28.380000,159.697000C29.050000,159.164000,29.156000,158.187000,28.623000,157.518000C28.088000,156.853000,27.110000,156.740000,26.440000,157.277000L20.689000,161.881000L20.689000,156.848000C20.851000,156.790000,21.003000,156.710000,21.141000,156.598000L28.379000,150.806000C29.049000,150.272000,29.155000,149.299000,28.622000,148.628000C28.087000,147.960000,27.109000,147.846000,26.439000,148.386000L20.700000,152.980000L20.700000,147.948000C20.862000,147.894000,21.015000,147.811000,21.152000,147.701000Z" fill="rgb(91,187,131)" stroke="none" stroke-width="1"/><clipPath id="eak7euxpdtmp21"><use id="eak7euxpdtmp22" width="84.096085" height="90.896019" xlink:href="#eak7euxpdtmp3" fill="rgb(0,0,0)" stroke="none" stroke-width="1"/></clipPath></g></g><g id="eak7euxpdtmp23"><g id="eak7euxpdtmp24" clip-path="url(#eak7euxpdtmp27)"><rect id="eak7euxpdtmp25" width="98.168000" height="94.634000" rx="0" ry="0" transform="matrix(1 0 0 1 316.83499999999998 97.06000000000000)" fill="rgb(102,197,145)" stroke="none" stroke-width="1"/><path id="eak7euxpdtmp26" d="M367.724000,154.176000L374.603000,148.671000C375.240000,148.162000,375.341000,147.234000,374.834000,146.599000C374.325000,145.964000,373.396000,145.859000,372.760000,146.366000L367.294000,150.741000L367.294000,145.961000C367.448000,145.906000,367.593000,145.827000,367.724000,145.720000L374.603000,140.221000C375.240000,139.711000,375.341000,138.783000,374.834000,138.145000C374.325000,137.510000,373.396000,137.408000,372.760000,137.917000L367.294000,142.287000L367.294000,129.632000C367.294000,128.817000,366.634000,128.158000,365.821000,128.158000C365.005000,128.158000,364.346000,128.816000,364.346000,129.632000L364.346000,137.807000L359.075000,133.592000C358.439000,133.080000,357.512000,133.184000,357.004000,133.822000C356.496000,134.456000,356.597000,135.384000,357.233000,135.894000L364.114000,141.396000C364.187000,141.456000,364.266000,141.503000,364.346000,141.548000L364.346000,146.257000L359.075000,142.041000C358.439000,141.531000,357.512000,141.636000,357.004000,142.273000C356.496000,142.906000,356.597000,143.834000,357.233000,144.345000L364.114000,149.845000C364.187000,149.907000,364.266000,149.952000,364.346000,149.998000L364.346000,154.706000L359.075000,150.490000C358.439000,149.983000,357.512000,150.088000,357.004000,150.722000C356.496000,151.357000,356.597000,152.288000,357.233000,152.795000L364.114000,158.297000C364.187000,158.357000,364.266000,158.406000,364.346000,158.448000L364.346000,163.157000L359.075000,158.942000C358.439000,158.433000,357.512000,158.539000,357.004000,159.174000C356.496000,159.810000,356.597000,160.737000,357.233000,161.244000L364.114000,166.748000C364.187000,166.806000,364.266000,166.855000,364.346000,166.897000L364.346000,171.609000L359.075000,167.393000C358.439000,166.884000,357.512000,166.988000,357.004000,167.623000C356.496000,168.258000,356.597000,169.186000,357.233000,169.693000L364.114000,175.200000C364.187000,175.260000,364.266000,175.307000,364.346000,175.352000L364.346000,180.061000L359.075000,175.845000C358.439000,175.335000,357.512000,175.438000,357.004000,176.075000C356.496000,176.710000,356.597000,177.638000,357.233000,178.145000L364.114000,183.649000C364.187000,183.709000,364.266000,183.756000,364.346000,183.798000L364.346000,186.821000C364.346000,187.636000,365.004000,188.296000,365.821000,188.296000C365.995000,188.296000,366.161000,188.261000,366.317000,188.207000C366.473000,188.262000,366.638000,188.296000,366.805000,188.296000C367.125000,188.296000,367.451000,188.192000,367.723000,187.974000L374.602000,182.470000C375.239000,181.963000,375.340000,181.035000,374.833000,180.397000C374.324000,179.765000,373.395000,179.661000,372.759000,180.170000L367.293000,184.540000L367.293000,179.760000C367.447000,179.708000,367.592000,179.629000,367.723000,179.522000L374.602000,174.021000C375.239000,173.511000,375.340000,172.584000,374.833000,171.948000C374.324000,171.313000,373.395000,171.209000,372.759000,171.718000L367.293000,176.091000L367.293000,171.311000C367.447000,171.256000,367.592000,171.178000,367.723000,171.073000L374.602000,165.566000C375.239000,165.059000,375.340000,164.131000,374.833000,163.496000C374.324000,162.864000,373.395000,162.756000,372.759000,163.267000L367.293000,167.642000L367.293000,162.859000C367.447000,162.804000,367.592000,162.728000,367.723000,162.621000L374.602000,157.117000C375.239000,156.610000,375.340000,155.684000,374.833000,155.047000C374.324000,154.412000,373.395000,154.304000,372.759000,154.817000L367.293000,159.189000L367.293000,154.407000C367.448000,154.359000,367.593000,154.280000,367.724000,154.176000Z" fill="rgb(91,187,131)" stroke="none" stroke-width="1"/><clipPath id="eak7euxpdtmp27"><use id="eak7euxpdtmp28" width="79.917450" height="86.380005" xlink:href="#eak7euxpdtmp4" fill="rgb(0,0,0)" stroke="none" stroke-width="1"/></clipPath></g></g><g id="eak7euxpdtmp29"><path id="eak7euxpdtmp30" d="M95.263000,32.737000C104.178000,32.737000,167.675000,183.406000,167.675000,183.406000L22.848000,183.406000C22.848000,183.406000,86.347000,32.737000,95.263000,32.737000Z" fill="rgb(13,85,156)" stroke="none" stroke-width="1"/></g><path id="eak7euxpdtmp31" d="M92.968000,59.470000C94.470000,56.216000,98.738000,56.948000,100.021000,59.470000C103.224000,63.884000,108.355000,70.194000,111.562000,66.409000C113.030000,64.530000,114.606000,62.721000,116.269000,61.012000C107.716000,40.129000,100.451000,26.044000,95.258000,26.044000C89.274000,26.044000,83.232000,39.437000,75.032000,59.174000C74.823000,59.678000,73.068000,63.533000,76.408000,62.509000C82.033000,60.783000,79.450000,68.726000,83.082000,68.891000C85.479000,68.892000,91.044000,63.884000,92.968000,59.470000Z" fill="rgb(200,242,242)" stroke="none" stroke-width="1"/><path id="eak7euxpdtmp32" d="M209.127000,174.723000C204.982000,171.571000,201.032000,168.565000,200.346000,168.044000C199.660000,167.524000,202.733000,167.096000,207.169000,167.096000C211.607000,167.096000,212.033000,164.292000,208.117000,160.862000L206.293000,159.265000C202.371000,155.836000,198.680000,152.606000,198.084000,152.083000C197.489000,151.563000,199.939000,151.137000,203.535000,151.137000C207.126000,151.137000,207.119000,148.061000,203.514000,144.303000L203.132000,143.903000C199.528000,140.145000,195.397000,135.838000,193.952000,134.332000C192.509000,132.827000,193.358000,131.593000,195.848000,131.593000C198.333000,131.593000,198.422000,129.236000,196.046000,126.350000C193.673000,123.470000,189.786000,118.752000,187.409000,115.870000C185.035000,112.984000,181.147000,112.984000,178.774000,115.870000C176.397000,118.752000,172.510000,123.470000,170.135000,126.350000C167.760000,129.235000,167.852000,131.593000,170.334000,131.593000C172.820000,131.593000,173.673000,132.827000,172.228000,134.332000C170.785000,135.838000,166.655000,140.145000,163.051000,143.903000L162.670000,144.303000C159.065000,148.062000,159.056000,151.137000,162.647000,151.137000C166.242000,151.137000,168.691000,151.563000,168.099000,152.083000C167.500000,152.606000,163.811000,155.836000,159.892000,159.265000L158.067000,160.862000C154.149000,164.292000,154.575000,167.096000,159.010000,167.096000C163.448000,167.096000,166.522000,167.525000,165.838000,168.044000C165.151000,168.565000,161.198000,171.571000,157.055000,174.723000L153.627000,177.327000C149.483000,180.479000,150.353000,183.056000,155.559000,183.056000L173.623000,183.056000C178.829000,183.056000,187.350000,183.056000,192.559000,183.056000L210.621000,183.056000C215.829000,183.056000,216.696000,180.479000,212.551000,177.327000L209.127000,174.723000Z" fill="rgb(65,140,109)" stroke="none" stroke-width="1"/><path id="eak7euxpdtmp33" d="M62.512000,178.874000C58.883000,176.114000,55.420000,173.482000,54.822000,173.024000C54.221000,172.569000,56.911000,172.196000,60.800000,172.196000C64.686000,172.196000,65.061000,169.739000,61.628000,166.736000L60.028000,165.338000C56.595000,162.336000,53.363000,159.505000,52.842000,159.047000C52.321000,158.592000,54.467000,158.218000,57.613000,158.218000C60.760000,158.218000,60.753000,155.526000,57.595000,152.232000L57.263000,151.885000C54.105000,148.594000,50.488000,144.820000,49.221000,143.503000C47.957000,142.183000,48.704000,141.104000,50.881000,141.104000C53.059000,141.104000,53.138000,139.040000,51.057000,136.515000C48.977000,133.987000,45.573000,129.858000,43.494000,127.333000C41.416000,124.812000,38.010000,124.812000,35.932000,127.333000C33.851000,129.858000,30.447000,133.987000,28.367000,136.515000C26.288000,139.040000,26.368000,141.104000,28.541000,141.104000C30.720000,141.104000,31.464000,142.184000,30.200000,143.503000C28.938000,144.820000,25.319000,148.594000,22.164000,151.885000L21.828000,152.232000C18.673000,155.523000,18.663000,158.218000,21.813000,158.218000C24.958000,158.218000,27.104000,158.592000,26.584000,159.047000C26.063000,159.504000,22.829000,162.335000,19.399000,165.338000L17.799000,166.736000C14.367000,169.739000,14.738000,172.196000,18.626000,172.196000C22.514000,172.196000,25.201000,172.570000,24.603000,173.024000C24.002000,173.482000,20.543000,176.114000,16.913000,178.874000L13.913000,181.153000C10.282000,183.913000,11.044000,186.174000,15.604000,186.174000L31.422000,186.174000C35.982000,186.174000,43.443000,186.174000,48.004000,186.174000L63.822000,186.174000C68.383000,186.174000,69.143000,183.913000,65.513000,181.153000L62.512000,178.874000Z" fill="rgb(65,140,109)" stroke="none" stroke-width="1"/><path id="eak7euxpdtmp34" d="M141.479000,177.930000C137.847000,175.170000,134.386000,172.538000,133.787000,172.083000C133.186000,171.626000,135.876000,171.252000,139.763000,171.252000C143.652000,171.252000,144.026000,168.795000,140.593000,165.792000L138.993000,164.397000C135.560000,161.394000,132.328000,158.563000,131.805000,158.105000C131.284000,157.650000,133.432000,157.274000,136.577000,157.274000C139.726000,157.274000,139.719000,154.582000,136.559000,151.288000L136.224000,150.941000C133.070000,147.648000,129.452000,143.879000,128.186000,142.557000C126.922000,141.239000,127.668000,140.160000,129.846000,140.160000C132.022000,140.160000,132.101000,138.096000,130.020000,135.571000C127.942000,133.046000,124.538000,128.914000,122.458000,126.392000C120.378000,123.865000,116.974000,123.865000,114.892000,126.392000C112.816000,128.914000,109.411000,133.046000,107.330000,135.571000C105.252000,138.096000,105.333000,140.160000,107.507000,140.160000C109.683000,140.160000,110.431000,141.239000,109.165000,142.557000C107.898000,143.879000,104.283000,147.648000,101.127000,150.941000L100.793000,151.288000C97.639000,154.581000,97.627000,157.274000,100.777000,157.274000C103.921000,157.274000,106.070000,157.650000,105.548000,158.105000C105.028000,158.563000,101.793000,161.393000,98.360000,164.397000L96.762000,165.792000C93.330000,168.795000,93.702000,171.252000,97.589000,171.252000C101.478000,171.252000,104.166000,171.626000,103.566000,172.083000C102.966000,172.538000,99.505000,175.170000,95.876000,177.930000L92.876000,180.212000C89.247000,182.972000,90.007000,185.230000,94.567000,185.230000L110.385000,185.230000C114.945000,185.230000,122.406000,185.230000,126.967000,185.230000L142.783000,185.230000C147.346000,185.230000,148.105000,182.972000,144.476000,180.212000L141.479000,177.930000Z" fill="rgb(65,140,109)" stroke="none" stroke-width="1"/><g id="eak7euxpdtmp35"><g id="eak7euxpdtmp36" clip-path="url(#eak7euxpdtmp39)"><rect id="eak7euxpdtmp37" width="98.168000" height="94.634000" rx="0" ry="0" transform="matrix(1 0 0 1 102.26900000000001 99.40600000000001)" fill="rgb(102,197,145)" stroke="none" stroke-width="1"/><path id="eak7euxpdtmp38" d="M153.157000,156.522000L160.036000,151.017000C160.673000,150.508000,160.774000,149.580000,160.267000,148.945000C159.758000,148.310000,158.829000,148.205000,158.193000,148.712000L152.727000,153.087000L152.727000,148.307000C152.881000,148.252000,153.026000,148.173000,153.157000,148.066000L160.036000,142.567000C160.673000,142.057000,160.774000,141.129000,160.267000,140.491000C159.758000,139.856000,158.829000,139.754000,158.193000,140.263000L152.727000,144.633000L152.727000,131.978000C152.727000,131.163000,152.067000,130.504000,151.254000,130.504000C150.438000,130.504000,149.779000,131.162000,149.779000,131.978000L149.779000,140.153000L144.508000,135.938000C143.872000,135.426000,142.945000,135.530000,142.437000,136.168000C141.929000,136.802000,142.030000,137.730000,142.666000,138.240000L149.547000,143.742000C149.620000,143.802000,149.699000,143.849000,149.779000,143.894000L149.779000,148.603000L144.508000,144.387000C143.872000,143.877000,142.945000,143.982000,142.437000,144.619000C141.929000,145.252000,142.030000,146.180000,142.666000,146.691000L149.547000,152.191000C149.620000,152.253000,149.699000,152.298000,149.779000,152.344000L149.779000,157.052000L144.508000,152.836000C143.872000,152.329000,142.945000,152.434000,142.437000,153.068000C141.929000,153.703000,142.030000,154.634000,142.666000,155.141000L149.547000,160.643000C149.620000,160.703000,149.699000,160.752000,149.779000,160.794000L149.779000,165.503000L144.508000,161.288000C143.872000,160.779000,142.945000,160.885000,142.437000,161.520000C141.929000,162.156000,142.030000,163.083000,142.666000,163.590000L149.547000,169.094000C149.620000,169.152000,149.699000,169.201000,149.779000,169.243000L149.779000,173.955000L144.508000,169.739000C143.872000,169.230000,142.945000,169.334000,142.437000,169.969000C141.929000,170.604000,142.030000,171.532000,142.666000,172.039000L149.547000,177.546000C149.620000,177.606000,149.699000,177.653000,149.779000,177.698000L149.779000,182.407000L144.508000,178.191000C143.872000,177.681000,142.945000,177.784000,142.437000,178.421000C141.929000,179.056000,142.030000,179.984000,142.666000,180.491000L149.547000,185.995000C149.620000,186.055000,149.699000,186.102000,149.779000,186.144000L149.779000,189.167000C149.779000,189.982000,150.437000,190.642000,151.254000,190.642000C151.428000,190.642000,151.594000,190.607000,151.750000,190.553000C151.906000,190.608000,152.071000,190.642000,152.238000,190.642000C152.558000,190.642000,152.884000,190.538000,153.156000,190.320000L160.035000,184.816000C160.672000,184.309000,160.773000,183.381000,160.266000,182.743000C159.757000,182.111000,158.828000,182.007000,158.192000,182.516000L152.726000,186.886000L152.726000,182.106000C152.880000,182.054000,153.025000,181.975000,153.156000,181.868000L160.035000,176.367000C160.672000,175.857000,160.773000,174.930000,160.266000,174.294000C159.757000,173.659000,158.828000,173.555000,158.192000,174.064000L152.726000,178.437000L152.726000,173.657000C152.880000,173.602000,153.025000,173.524000,153.156000,173.419000L160.035000,167.912000C160.672000,167.405000,160.773000,166.477000,160.266000,165.842000C159.757000,165.210000,158.828000,165.102000,158.192000,165.613000L152.726000,169.988000L152.726000,165.205000C152.880000,165.150000,153.025000,165.074000,153.156000,164.967000L160.035000,159.463000C160.672000,158.956000,160.773000,158.030000,160.266000,157.393000C159.757000,156.758000,158.828000,156.650000,158.192000,157.163000L152.726000,161.535000L152.726000,156.753000C152.882000,156.705000,153.026000,156.626000,153.157000,156.522000Z" fill="rgb(91,187,131)" stroke="none" stroke-width="1"/><clipPath id="eak7euxpdtmp39"><use id="eak7euxpdtmp40" width="79.917435" height="86.380005" xlink:href="#eak7euxpdtmp5" fill="rgb(0,0,0)" stroke="none" stroke-width="1"/></clipPath></g></g><g id="eak7euxpdtmp41_tr" transform="translate(85.256000,202.554000) rotate(1.800000)"><g id="eak7euxpdtmp41" transform="translate(-85.256000,-202.554000)"><g id="eak7euxpdtmp42"><g id="eak7euxpdtmp43" clip-path="url(#eak7euxpdtmp78)"><rect id="eak7euxpdtmp44" width="11.666000" height="148.952000" rx="0" ry="0" transform="matrix(1 0 0 1 79.42100000000001 61.65600000000001)" fill="rgb(138,99,80)" stroke="none" stroke-width="1"/><g id="eak7euxpdtmp45"><g id="eak7euxpdtmp46"><path id="eak7euxpdtmp47" d="M92.292000,110.902000C89.499000,110.902000,87.226000,108.160000,87.226000,104.789000C87.226000,101.420000,89.499000,98.678000,92.292000,98.678000C95.087000,98.678000,97.360000,101.420000,97.360000,104.789000C97.360000,108.160000,95.087000,110.902000,92.292000,110.902000ZM92.292000,99.232000C89.806000,99.232000,87.780000,101.728000,87.780000,104.789000C87.780000,107.851000,89.805000,110.345000,92.292000,110.345000C94.780000,110.345000,96.806000,107.851000,96.806000,104.789000C96.806000,101.728000,94.780000,99.232000,92.292000,99.232000Z" fill="rgb(165,128,108)" stroke="none" stroke-width="1"/></g><g id="eak7euxpdtmp48"><path id="eak7euxpdtmp49" d="M92.292000,113.414000C88.362000,113.414000,85.165000,109.546000,85.165000,104.789000C85.165000,100.034000,88.362000,96.164000,92.292000,96.164000C96.222000,96.164000,99.421000,100.035000,99.421000,104.789000C99.421000,109.546000,96.222000,113.414000,92.292000,113.414000ZM92.292000,96.723000C88.669000,96.723000,85.720000,100.341000,85.720000,104.789000C85.720000,109.240000,88.669000,112.856000,92.292000,112.856000C95.915000,112.856000,98.868000,109.239000,98.868000,104.789000C98.868000,100.341000,95.915000,96.723000,92.292000,96.723000Z" fill="rgb(165,128,108)" stroke="none" stroke-width="1"/></g><g id="eak7euxpdtmp50"><path id="eak7euxpdtmp51" d="M92.292000,115.567000C87.388000,115.567000,83.396000,110.732000,83.396000,104.789000C83.396000,98.845000,87.388000,94.010000,92.292000,94.010000C97.198000,94.010000,101.190000,98.845000,101.190000,104.789000C101.190000,110.732000,97.198000,115.567000,92.292000,115.567000ZM92.292000,94.567000C87.692000,94.567000,83.950000,99.154000,83.950000,104.789000C83.950000,110.426000,87.692000,115.014000,92.292000,115.014000C96.892000,115.014000,100.632000,110.426000,100.632000,104.789000C100.632000,99.154000,96.892000,94.567000,92.292000,94.567000Z" fill="rgb(165,128,108)" stroke="none" stroke-width="1"/></g><g id="eak7euxpdtmp52"><path id="eak7euxpdtmp53" d="M92.292000,117.365000C86.573000,117.365000,81.921000,111.722000,81.921000,104.789000C81.921000,97.857000,86.573000,92.217000,92.292000,92.217000C98.009000,92.217000,102.661000,97.857000,102.661000,104.789000C102.661000,111.723000,98.009000,117.365000,92.292000,117.365000ZM92.292000,92.771000C86.882000,92.771000,82.478000,98.163000,82.478000,104.789000C82.478000,111.417000,86.882000,116.806000,92.292000,116.806000C97.704000,116.806000,102.106000,111.417000,102.106000,104.789000C102.106000,98.163000,97.704000,92.771000,92.292000,92.771000Z" fill="rgb(165,128,108)" stroke="none" stroke-width="1"/></g><g id="eak7euxpdtmp54"><path id="eak7euxpdtmp55" d="M92.106000,200.756000C87.200000,200.756000,83.210000,195.921000,83.210000,189.980000C83.210000,184.034000,87.200000,179.199000,92.106000,179.199000C97.012000,179.199000,101.002000,184.034000,101.002000,189.980000C101.003000,195.921000,97.013000,200.756000,92.106000,200.756000ZM92.106000,179.755000C87.506000,179.755000,83.764000,184.342000,83.764000,189.980000C83.764000,195.618000,87.506000,200.202000,92.106000,200.202000C96.708000,200.202000,100.446000,195.618000,100.446000,189.980000C100.446000,184.342000,96.708000,179.755000,92.106000,179.755000Z" fill="rgb(165,128,108)" stroke="none" stroke-width="1"/></g><g id="eak7euxpdtmp56"><path id="eak7euxpdtmp57" d="M92.106000,202.554000C86.389000,202.554000,81.735000,196.911000,81.735000,189.979000C81.735000,183.045000,86.389000,177.405000,92.106000,177.405000C97.825000,177.405000,102.479000,183.045000,102.479000,189.979000C102.479000,196.911000,97.825000,202.554000,92.106000,202.554000ZM92.106000,177.959000C86.696000,177.959000,82.292000,183.352000,82.292000,189.979000C82.292000,196.604000,86.696000,201.994000,92.106000,201.994000C97.518000,201.994000,101.920000,196.604000,101.920000,189.979000C101.921000,183.352000,97.519000,177.959000,92.106000,177.959000Z" fill="rgb(165,128,108)" stroke="none" stroke-width="1"/></g><g id="eak7euxpdtmp58"><path id="eak7euxpdtmp59" d="M80.177000,134.634000C78.001000,134.634000,76.234000,132.376000,76.234000,129.605000C76.234000,126.834000,78.002000,124.579000,80.177000,124.579000C82.349000,124.579000,84.116000,126.834000,84.116000,129.605000C84.116000,132.376000,82.349000,134.634000,80.177000,134.634000ZM80.177000,124.987000C78.239000,124.987000,76.665000,127.060000,76.665000,129.605000C76.665000,132.151000,78.239000,134.223000,80.177000,134.223000C82.109000,134.223000,83.687000,132.151000,83.687000,129.605000C83.687000,127.060000,82.108000,124.987000,80.177000,124.987000Z" fill="rgb(165,128,108)" stroke="none" stroke-width="1"/></g><g id="eak7euxpdtmp60"><path id="eak7euxpdtmp61" d="M80.177000,136.711000C77.116000,136.711000,74.628000,133.523000,74.628000,129.605000C74.628000,125.687000,77.116000,122.501000,80.177000,122.501000C83.234000,122.501000,85.722000,125.687000,85.722000,129.605000C85.722000,133.523000,83.233000,136.711000,80.177000,136.711000ZM80.177000,122.909000C77.353000,122.909000,75.060000,125.915000,75.060000,129.605000C75.060000,133.298000,77.353000,136.302000,80.177000,136.302000C82.995000,136.302000,85.290000,133.299000,85.290000,129.605000C85.290000,125.915000,82.995000,122.909000,80.177000,122.909000Z" fill="rgb(165,128,108)" stroke="none" stroke-width="1"/></g><g id="eak7euxpdtmp62"><path id="eak7euxpdtmp63" d="M80.177000,138.491000C76.359000,138.491000,73.253000,134.506000,73.253000,129.605000C73.253000,124.704000,76.358000,120.719000,80.177000,120.719000C83.991000,120.719000,87.097000,124.704000,87.097000,129.605000C87.097000,134.506000,83.991000,138.491000,80.177000,138.491000ZM80.177000,121.129000C76.597000,121.129000,73.685000,124.932000,73.685000,129.605000C73.685000,134.281000,76.597000,138.081000,80.177000,138.081000C83.755000,138.081000,86.665000,134.281000,86.665000,129.605000C86.665000,124.932000,83.755000,121.129000,80.177000,121.129000Z" fill="rgb(165,128,108)" stroke="none" stroke-width="1"/></g><g id="eak7euxpdtmp64"><path id="eak7euxpdtmp65" d="M80.177000,139.976000C75.726000,139.976000,72.105000,135.323000,72.105000,129.605000C72.105000,123.889000,75.726000,119.237000,80.177000,119.237000C84.622000,119.237000,88.245000,123.889000,88.245000,129.605000C88.245000,135.323000,84.622000,139.976000,80.177000,139.976000ZM80.177000,119.645000C75.964000,119.645000,72.538000,124.114000,72.538000,129.605000C72.538000,135.099000,75.964000,139.565000,80.177000,139.565000C84.384000,139.565000,87.812000,135.099000,87.812000,129.605000C87.812000,124.114000,84.384000,119.645000,80.177000,119.645000Z" fill="rgb(165,128,108)" stroke="none" stroke-width="1"/></g><g id="eak7euxpdtmp66"><path id="eak7euxpdtmp67" d="M93.245000,156.853000C89.911000,156.853000,87.198000,152.796000,87.198000,147.810000C87.198000,142.829000,89.911000,138.772000,93.245000,138.772000C96.577000,138.772000,99.290000,142.828000,99.290000,147.810000C99.290000,152.796000,96.577000,156.853000,93.245000,156.853000ZM93.245000,139.325000C90.216000,139.325000,87.755000,143.131000,87.755000,147.809000C87.755000,152.490000,90.216000,156.295000,93.245000,156.295000C96.270000,156.295000,98.731000,152.489000,98.731000,147.809000C98.731000,143.131000,96.271000,139.325000,93.245000,139.325000Z" fill="rgb(165,128,108)" stroke="none" stroke-width="1"/></g><g id="eak7euxpdtmp68"><path id="eak7euxpdtmp69" d="M93.245000,159.111000C88.788000,159.111000,85.163000,154.043000,85.163000,147.809000C85.163000,141.581000,88.788000,136.510000,93.245000,136.510000C97.702000,136.510000,101.327000,141.581000,101.327000,147.809000C101.327000,154.043000,97.702000,159.111000,93.245000,159.111000ZM93.245000,137.064000C89.095000,137.064000,85.716000,141.886000,85.716000,147.809000C85.716000,153.736000,89.095000,158.556000,93.245000,158.556000C97.393000,158.556000,100.768000,153.736000,100.768000,147.809000C100.769000,141.886000,97.394000,137.064000,93.245000,137.064000Z" fill="rgb(165,128,108)" stroke="none" stroke-width="1"/></g><g id="eak7euxpdtmp70"><path id="eak7euxpdtmp71" d="M93.245000,160.995000C87.526000,160.995000,82.872000,155.083000,82.872000,147.809000C82.872000,140.540000,87.526000,134.623000,93.245000,134.623000C98.962000,134.623000,103.614000,140.540000,103.614000,147.809000C103.614000,155.083000,98.962000,160.995000,93.245000,160.995000ZM93.245000,135.183000C87.831000,135.183000,83.431000,140.847000,83.431000,147.809000C83.431000,154.773000,87.831000,160.441000,93.245000,160.441000C98.657000,160.441000,103.061000,154.774000,103.061000,147.809000C103.062000,140.847000,98.657000,135.183000,93.245000,135.183000Z" fill="rgb(165,128,108)" stroke="none" stroke-width="1"/></g><g id="eak7euxpdtmp72"><path id="eak7euxpdtmp73" d="M77.288000,180.001000C73.956000,180.001000,71.245000,175.949000,71.245000,170.962000C71.245000,165.978000,73.956000,161.922000,77.288000,161.922000C80.624000,161.922000,83.333000,165.978000,83.333000,170.962000C83.333000,175.950000,80.624000,180.001000,77.288000,180.001000ZM77.288000,162.477000C74.263000,162.477000,71.800000,166.286000,71.800000,170.963000C71.800000,175.639000,74.263000,179.447000,77.288000,179.447000C80.317000,179.447000,82.780000,175.639000,82.780000,170.963000C82.780000,166.285000,80.317000,162.477000,77.288000,162.477000Z" fill="rgb(165,128,108)" stroke="none" stroke-width="1"/></g><g id="eak7euxpdtmp74"><path id="eak7euxpdtmp75" d="M77.288000,182.265000C72.833000,182.265000,69.206000,177.197000,69.206000,170.963000C69.206000,164.730000,72.833000,159.662000,77.288000,159.662000C81.745000,159.662000,85.372000,164.730000,85.372000,170.963000C85.372000,177.197000,81.745000,182.265000,77.288000,182.265000ZM77.288000,160.216000C73.140000,160.216000,69.765000,165.038000,69.765000,170.963000C69.765000,176.888000,73.140000,181.708000,77.288000,181.708000C81.438000,181.708000,84.815000,176.889000,84.815000,170.963000C84.815000,165.038000,81.438000,160.216000,77.288000,160.216000Z" fill="rgb(165,128,108)" stroke="none" stroke-width="1"/></g><g id="eak7euxpdtmp76"><path id="eak7euxpdtmp77" d="M77.288000,184.146000C71.569000,184.146000,66.919000,178.231000,66.919000,170.963000C66.919000,163.692000,71.569000,157.777000,77.288000,157.777000C83.009000,157.777000,87.659000,163.692000,87.659000,170.963000C87.659000,178.231000,83.009000,184.146000,77.288000,184.146000ZM77.288000,158.332000C71.876000,158.332000,67.474000,163.998000,67.474000,170.963000C67.474000,177.926000,71.876000,183.593000,77.288000,183.593000C82.702000,183.593000,87.104000,177.926000,87.104000,170.963000C87.104000,163.998000,82.702000,158.332000,77.288000,158.332000Z" fill="rgb(165,128,108)" stroke="none" stroke-width="1"/></g></g><clipPath id="eak7euxpdtmp78"><use id="eak7euxpdtmp79" width="8.334000" height="106.394997" xlink:href="#eak7euxpdtmp6" transform="matrix(1 0 0 1 81.08900000000000 82.93700000000000)" fill="rgb(0,0,0)" stroke="none" stroke-width="1"/></clipPath></g></g><path id="eak7euxpdtmp80" d="M84.778000,76.355000C84.442000,76.376000,84.104000,76.439000,83.764000,76.551000C82.465000,76.983000,79.852000,80.770000,78.280000,81.711000C73.966000,84.296000,68.762000,85.427000,63.817000,85.901000C63.817000,85.901000,59.928000,86.272000,60.671000,89.790000C60.671000,89.790000,61.409000,92.197000,65.302000,89.604000C65.302000,89.604000,67.154000,93.681000,73.263000,89.790000C73.263000,89.790000,77.154000,92.939000,80.488000,89.236000C80.488000,89.236000,82.711000,90.532000,84.375000,90.532000L86.135000,90.532000C87.799000,90.532000,90.024000,89.236000,90.024000,89.236000C93.358000,92.939000,97.247000,89.790000,97.247000,89.790000C103.358000,93.682000,105.210000,89.604000,105.210000,89.604000C109.099000,92.197000,109.841000,89.790000,109.841000,89.790000C110.581000,86.277000,106.704000,85.903000,106.691000,85.901000C102.095000,85.459000,96.371000,84.173000,92.431000,81.826000C89.503000,80.085000,88.030000,76.153000,84.778000,76.355000Z" fill="rgb(91,203,178)" stroke="none" stroke-width="1"/><path id="eak7euxpdtmp81" d="M63.817000,85.900000C68.762000,85.426000,73.965000,84.295000,78.280000,81.710000C79.852000,80.769000,82.466000,76.982000,83.764000,76.550000C84.104000,76.438000,84.442000,76.375000,84.778000,76.354000C88.030000,76.152000,89.503000,80.084000,92.428000,81.825000C96.367000,84.172000,102.092000,85.458000,106.688000,85.900000C106.702000,85.902000,109.481000,86.179000,109.876000,88.406000C110.356000,85.152000,106.702000,84.788000,106.688000,84.788000C102.092000,84.346000,96.368000,83.058000,92.428000,80.716000C89.502000,78.970000,88.030000,75.039000,84.778000,75.240000C84.442000,75.261000,84.104000,75.323000,83.764000,75.436000C82.465000,75.870000,79.852000,79.654000,78.280000,80.596000C73.966000,83.180000,68.762000,84.315000,63.817000,84.788000C63.817000,84.788000,60.151000,85.148000,60.631000,88.406000C61.028000,86.177000,63.817000,85.900000,63.817000,85.900000Z" fill="rgb(101,219,193)" stroke="none" stroke-width="1"/><path id="eak7euxpdtmp82" d="M83.991000,102.755000C81.958000,102.755000,80.659000,102.013000,80.659000,102.013000C78.622000,106.088000,73.065000,103.680000,73.065000,103.680000C71.583000,108.123000,64.360000,107.198000,64.360000,107.198000C62.323000,112.384000,58.251000,109.606000,58.251000,109.606000C53.249000,112.755000,54.175000,108.123000,54.175000,108.123000C54.175000,108.123000,64.177000,94.605000,84.732000,93.680000L85.773000,93.680000C106.334000,94.605000,116.334000,108.123000,116.334000,108.123000C116.334000,108.123000,117.262000,112.755000,112.260000,109.606000C112.260000,109.606000,108.186000,112.384000,106.149000,107.198000C106.149000,107.198000,98.926000,108.123000,97.444000,103.680000C97.444000,103.680000,91.889000,106.087000,89.850000,102.013000C89.850000,102.013000,88.553000,102.755000,86.518000,102.755000L83.991000,102.755000Z" fill="rgb(91,203,178)" stroke="none" stroke-width="1"/><path id="eak7euxpdtmp83" d="M84.731000,93.681000L85.772000,93.681000C105.606000,94.576000,115.610000,107.183000,116.293000,108.072000C116.508000,107.340000,116.332000,106.456000,116.332000,106.456000C116.332000,106.456000,106.332000,92.936000,85.771000,92.011000L84.730000,92.011000C64.175000,92.936000,54.173000,106.456000,54.173000,106.456000C54.173000,106.456000,53.999000,107.340000,54.216000,108.072000C54.899000,107.183000,64.903000,94.575000,84.731000,93.681000Z" fill="rgb(101,219,193)" stroke="none" stroke-width="1"/><path id="eak7euxpdtmp84" d="M84.448000,125.136000C83.466000,124.967000,82.561000,124.501000,81.874000,123.680000C78.911000,129.605000,73.540000,125.162000,73.540000,125.162000C69.099000,132.015000,65.208000,127.386000,65.208000,127.386000C61.319000,132.200000,58.728000,128.866000,58.728000,128.866000C51.132000,131.830000,54.281000,126.456000,54.281000,126.456000C54.281000,126.456000,72.986000,113.866000,84.652000,113.866000L85.861000,113.866000C97.527000,113.866000,116.232000,126.456000,116.232000,126.456000C116.232000,126.456000,119.378000,131.830000,111.785000,128.866000C111.785000,128.866000,109.193000,132.200000,105.303000,127.386000C105.303000,127.386000,101.416000,132.015000,96.973000,125.162000C96.973000,125.162000,91.600000,129.605000,88.635000,123.680000C88.635000,123.680000,87.524000,124.974000,86.043000,125.162000C85.501000,125.229000,84.960000,125.222000,84.448000,125.136000Z" fill="rgb(91,203,178)" stroke="none" stroke-width="1"/><path id="eak7euxpdtmp85" d="M54.280000,126.456000C54.280000,126.456000,72.985000,113.866000,84.651000,113.866000L85.856000,113.866000C97.526000,113.866000,116.231000,126.456000,116.231000,126.456000C116.231000,126.456000,116.626000,127.139000,116.797000,127.878000C117.139000,126.903000,116.231000,125.348000,116.231000,125.348000C116.231000,125.348000,97.526000,112.756000,85.856000,112.756000L84.651000,112.756000C72.985000,112.756000,54.280000,125.348000,54.280000,125.348000C54.280000,125.348000,53.370000,126.903000,53.712000,127.878000C53.886000,127.138000,54.280000,126.456000,54.280000,126.456000Z" fill="rgb(101,219,193)" stroke="none" stroke-width="1"/><path id="eak7euxpdtmp86" d="M84.448000,144.249000C83.466000,144.098000,82.561000,143.680000,81.874000,142.945000C78.911000,148.258000,73.540000,144.273000,73.540000,144.273000C69.099000,150.416000,65.208000,146.265000,65.208000,146.265000C61.319000,150.583000,58.728000,147.595000,58.728000,147.595000C51.132000,150.251000,54.281000,145.436000,54.281000,145.436000C54.281000,145.436000,72.986000,134.143000,84.652000,134.143000L85.861000,134.143000C97.527000,134.143000,116.232000,145.436000,116.232000,145.436000C116.232000,145.436000,119.378000,150.250000,111.785000,147.595000C111.785000,147.595000,109.193000,150.583000,105.303000,146.265000C105.303000,146.265000,101.416000,150.416000,96.973000,144.273000C96.973000,144.273000,91.600000,148.259000,88.635000,142.945000C88.635000,142.945000,87.524000,144.105000,86.043000,144.273000C85.501000,144.335000,84.960000,144.328000,84.448000,144.249000Z" fill="rgb(91,203,178)" stroke="none" stroke-width="1"/><path id="eak7euxpdtmp87" d="M54.280000,145.436000C54.280000,145.436000,72.983000,134.143000,84.651000,134.143000L85.856000,134.143000C97.526000,134.143000,116.231000,145.436000,116.231000,145.436000C116.231000,145.436000,116.598000,145.998000,116.778000,146.636000C117.169000,145.766000,116.231000,144.324000,116.231000,144.324000C116.231000,144.324000,97.526000,133.032000,85.856000,133.032000L84.651000,133.032000C72.983000,133.032000,54.280000,144.324000,54.280000,144.324000C54.280000,144.324000,53.339000,145.766000,53.733000,146.636000C53.911000,145.998000,54.280000,145.436000,54.280000,145.436000Z" fill="rgb(101,219,193)" stroke="none" stroke-width="1"/><path id="eak7euxpdtmp88" d="M85.257000,157.247000C83.310000,160.579000,78.577000,158.496000,78.577000,158.496000C75.938000,164.884000,71.772000,160.302000,71.772000,160.302000C69.547000,166.274000,63.993000,162.385000,63.993000,162.385000C60.241000,164.188000,56.214000,162.385000,53.298000,159.331000C50.380000,156.273000,53.577000,155.994000,53.577000,155.994000C62.188000,158.634000,69.686000,156.827000,74.411000,154.886000C79.132000,152.939000,85.257000,152.524000,85.257000,152.524000C85.257000,152.524000,91.376000,152.939000,96.099000,154.886000C100.826000,156.828000,108.322000,158.634000,116.935000,155.994000C116.935000,155.994000,120.130000,156.273000,117.212000,159.331000C114.294000,162.385000,110.267000,164.188000,106.517000,162.385000C106.517000,162.385000,100.960000,166.274000,98.740000,160.302000C98.740000,160.302000,94.572000,164.884000,91.933000,158.496000C91.933000,158.496000,87.198000,160.579000,85.257000,157.247000Z" fill="rgb(91,203,178)" stroke="none" stroke-width="1"/><path id="eak7euxpdtmp89" d="M67.683000,170.025000C61.019000,177.387000,65.878000,182.249000,67.408000,181.553000C68.935000,180.858000,68.238000,177.942000,68.238000,177.942000C68.238000,177.942000,71.572000,178.080000,71.017000,175.025000C71.017000,175.025000,74.074000,177.665000,75.601000,170.721000C75.601000,170.721000,80.601000,172.250000,82.130000,166.973000C82.130000,166.973000,82.616000,169.050000,85.257000,169.050000L85.257000,169.050000C87.894000,169.050000,88.378000,166.973000,88.378000,166.973000C89.907000,172.250000,94.909000,170.721000,94.909000,170.721000C96.434000,177.665000,99.493000,175.025000,99.493000,175.025000C98.936000,178.081000,102.270000,177.942000,102.270000,177.942000C102.270000,177.942000,101.575000,180.859000,103.102000,181.553000C104.629000,182.248000,109.493000,177.387000,102.825000,170.025000C96.157000,162.665000,85.257000,162.386000,85.257000,162.386000C85.257000,162.386000,74.354000,162.665000,67.683000,170.025000Z" fill="rgb(91,203,178)" stroke="none" stroke-width="1"/></g></g><g id="eak7euxpdtmp90_tr" transform="translate(53.190000,184.146000) rotate(-1.800000)"><g id="eak7euxpdtmp90" transform="translate(-53.190000,-184.146000)"><ellipse id="eak7euxpdtmp91" rx="22.240000" ry="24.361000" transform="matrix(1 0 0 1 53.19000000000000 130.90000000000001)" fill="rgb(158,208,232)" stroke="none" stroke-width="1"/><path id="eak7euxpdtmp92" d="M67.110000,117.549000C65.586000,112.684000,60.128000,109.724000,57.044000,109.852000C55.968000,109.890000,55.129000,110.797000,55.168000,111.870000C55.209000,112.946000,56.114000,113.787000,57.187000,113.746000C57.202000,113.744000,57.217000,113.744000,57.231000,113.744000C58.430000,113.744000,62.368000,115.439000,63.389000,118.712000C63.651000,119.544000,64.418000,120.079000,65.248000,120.079000C65.441000,120.079000,65.635000,120.048000,65.829000,119.989000C66.859000,119.667000,67.432000,118.577000,67.110000,117.549000Z" fill="rgb(203,227,255)" stroke="none" stroke-width="1"/><g id="eak7euxpdtmp93"><line id="eak7euxpdtmp94" x1="53.191000" y1="122.717000" x2="53.191000" y2="184.447000" fill="rgb(58,53,96)" stroke="none" stroke-width="1"/><path id="eak7euxpdtmp95" d="M53.191000,185.892000C52.392000,185.892000,51.747000,185.246000,51.747000,184.448000L51.747000,122.718000C51.747000,121.921000,52.393000,121.273000,53.191000,121.273000C53.987000,121.273000,54.633000,121.921000,54.633000,122.718000L54.633000,184.448000C54.634000,185.246000,53.987000,185.892000,53.191000,185.892000Z" fill="rgb(58,53,96)" stroke="none" stroke-width="1"/></g><g id="eak7euxpdtmp96"><path id="eak7euxpdtmp97" d="M52.955000,132.816000C52.546000,132.816000,52.138000,132.795000,51.728000,132.754000C45.159000,132.131000,41.205000,126.674000,41.039000,126.444000C40.574000,125.793000,40.726000,124.892000,41.376000,124.429000C42.025000,123.968000,42.924000,124.119000,43.388000,124.764000L43.388000,124.764000C43.423000,124.810000,46.781000,129.397000,52.028000,129.883000C55.646000,130.211000,59.392000,128.554000,63.171000,124.946000C63.748000,124.393000,64.660000,124.414000,65.215000,124.989000C65.762000,125.568000,65.742000,126.482000,65.165000,127.035000C61.146000,130.875000,57.044000,132.816000,52.955000,132.816000Z" fill="rgb(58,53,96)" stroke="none" stroke-width="1"/></g><g id="eak7euxpdtmp98"><path id="eak7euxpdtmp99" d="M52.942000,146.852000C43.885000,146.852000,38.151000,140.729000,38.067000,140.637000C37.528000,140.045000,37.569000,139.134000,38.161000,138.596000C38.751000,138.060000,39.660000,138.099000,40.201000,138.685000C40.641000,139.164000,51.150000,150.251000,66.384000,138.890000C67.022000,138.411000,67.928000,138.547000,68.406000,139.182000C68.881000,139.825000,68.752000,140.728000,68.111000,141.204000C62.458000,145.425000,57.311000,146.852000,52.942000,146.852000Z" fill="rgb(58,53,96)" stroke="none" stroke-width="1"/></g></g></g></g><g id="eak7euxpdtmp100"><polygon id="eak7euxpdtmp101" points="353.899000,183.183000 245.692000,183.183000 258.069000,158.715000 270.771000,133.611000 334.588000,133.611000" fill="rgb(250,131,13)" stroke="none" stroke-width="1"/><polygon id="eak7euxpdtmp102" points="329.812000,148.373000 318.548000,183.184000 275.499000,183.183000" opacity="0.1" fill="rgb(143,117,178)" stroke="none" stroke-width="1"/><polygon id="eak7euxpdtmp103" points="328.119000,133.611000 258.069000,158.715000 270.771000,133.611000" opacity="0.3" fill="rgb(248,248,248)" stroke="none" stroke-width="1"/><path id="eak7euxpdtmp104" d="M334.588000,133.742000C334.515000,133.742000,334.458000,133.682000,334.458000,133.611000L334.458000,132.936000C334.458000,132.865000,334.515000,132.805000,334.588000,132.805000C334.661000,132.805000,334.719000,132.865000,334.719000,132.936000L334.719000,133.611000C334.719000,133.682000,334.661000,133.742000,334.588000,133.742000Z" fill="rgb(72,61,127)" stroke="none" stroke-width="1"/><polygon id="eak7euxpdtmp105" points="334.588000,133.611000 318.548000,183.184000 353.899000,183.184000" fill="rgb(250,131,13)" stroke="none" stroke-width="1"/><polygon id="eak7euxpdtmp106" points="332.068000,183.184000 334.588000,133.611000 318.548000,183.184000" fill="rgb(253,212,101)" stroke="none" stroke-width="1"/><polygon id="eak7euxpdtmp107" points="334.588000,133.611000 332.068000,183.184000 339.321000,183.184000" fill="rgb(72,61,127)" stroke="none" stroke-width="1"/><polygon id="eak7euxpdtmp108" points="334.588000,133.611000 339.321000,183.184000 348.224000,183.184000" fill="rgb(252,180,43)" stroke="none" stroke-width="1"/><rect id="eak7euxpdtmp109" width="1.314000" height="3.187000" rx="0" ry="0" transform="matrix(1 0 0 1 242.39099999999999 179.99700000000001)" fill="rgb(72,61,127)" stroke="none" stroke-width="1"/><rect id="eak7euxpdtmp110" width="1.315000" height="3.187000" rx="0" ry="0" transform="matrix(1 0 0 1 358.61000000000001 179.99700000000001)" fill="rgb(72,61,127)" stroke="none" stroke-width="1"/><rect id="eak7euxpdtmp111" width="1.312000" height="3.187000" rx="0" ry="0" transform="matrix(1 0 0 1 312.45200000000000 179.99700000000001)" fill="rgb(72,61,127)" stroke="none" stroke-width="1"/><g id="eak7euxpdtmp112"><path id="eak7euxpdtmp113" d="M313.504000,180.707000C313.486000,180.707000,313.468000,180.703000,313.451000,180.695000C313.385000,180.667000,313.354000,180.590000,313.385000,180.523000L334.580000,133.309000L334.704000,133.550000L359.028000,180.516000C359.060000,180.580000,359.035000,180.659000,358.971000,180.692000C358.907000,180.726000,358.828000,180.702000,358.794000,180.637000L334.595000,133.909000L313.624000,180.629000C313.602000,180.678000,313.556000,180.707000,313.504000,180.707000Z" fill="rgb(72,61,127)" stroke="none" stroke-width="1"/><path id="eak7euxpdtmp114" d="M243.366000,180.707000C243.345000,180.707000,243.321000,180.702000,243.301000,180.688000C243.239000,180.652000,243.217000,180.574000,243.254000,180.510000L270.643000,133.574000L270.643000,132.579000C270.643000,132.508000,270.700000,132.448000,270.772000,132.448000C270.845000,132.448000,270.903000,132.508000,270.903000,132.579000L270.903000,133.644000L243.480000,180.640000C243.455000,180.685000,243.412000,180.707000,243.366000,180.707000Z" fill="rgb(72,61,127)" stroke="none" stroke-width="1"/></g></g><g id="eak7euxpdtmp115"><polygon id="eak7euxpdtmp116" points="270.711000,183.808000 171.281000,183.808000 182.656000,161.325000 194.328000,138.256000 252.967000,138.256000" fill="rgb(239,167,0)" stroke="none" stroke-width="1"/><polygon id="eak7euxpdtmp117" points="248.577000,151.822000 238.228000,183.809000 198.671000,183.808000" opacity="0.1" fill="rgb(143,117,178)" stroke="none" stroke-width="1"/><polygon id="eak7euxpdtmp118" points="247.023000,138.256000 182.656000,161.325000 194.328000,138.256000" opacity="0.3" fill="rgb(248,248,248)" stroke="none" stroke-width="1"/><path id="eak7euxpdtmp119" d="M252.967000,138.376000C252.901000,138.376000,252.847000,138.321000,252.847000,138.256000L252.847000,137.636000C252.847000,137.572000,252.901000,137.517000,252.967000,137.517000C253.033000,137.517000,253.087000,137.572000,253.087000,137.636000L253.087000,138.256000C253.087000,138.322000,253.033000,138.376000,252.967000,138.376000Z" fill="rgb(72,61,127)" stroke="none" stroke-width="1"/><polygon id="eak7euxpdtmp120" points="252.967000,138.256000 238.228000,183.809000 270.711000,183.809000" fill="rgb(250,131,13)" stroke="none" stroke-width="1"/><polygon id="eak7euxpdtmp121" points="250.650000,183.809000 252.967000,138.256000 238.228000,183.809000" fill="rgb(253,212,101)" stroke="none" stroke-width="1"/><polygon id="eak7euxpdtmp122" points="252.967000,138.256000 250.650000,183.809000 257.316000,183.809000" fill="rgb(72,61,127)" stroke="none" stroke-width="1"/><polygon id="eak7euxpdtmp123" points="252.967000,138.256000 257.316000,183.809000 265.496000,183.809000" fill="rgb(252,180,43)" stroke="none" stroke-width="1"/><g id="eak7euxpdtmp124"><path id="eak7euxpdtmp125" d="M233.594000,181.532000C233.576000,181.532000,233.561000,181.529000,233.543000,181.522000C233.483000,181.496000,233.456000,181.423000,233.483000,181.363000L252.959000,137.981000L253.073000,138.202000L275.423000,181.357000C275.453000,181.417000,275.431000,181.488000,275.371000,181.518000C275.313000,181.550000,275.240000,181.527000,275.209000,181.467000L252.974000,138.531000L233.703000,181.461000C233.683000,181.506000,233.640000,181.532000,233.594000,181.532000Z" fill="rgb(72,61,127)" stroke="none" stroke-width="1"/><path id="eak7euxpdtmp126" d="M169.146000,181.532000C169.125000,181.532000,169.104000,181.528000,169.085000,181.516000C169.028000,181.483000,169.008000,181.409000,169.042000,181.351000L194.207000,138.223000L194.207000,137.309000C194.207000,137.244000,194.261000,137.189000,194.328000,137.189000C194.394000,137.189000,194.448000,137.244000,194.448000,137.309000L194.448000,138.288000L169.249000,181.474000C169.228000,181.511000,169.187000,181.532000,169.146000,181.532000Z" fill="rgb(72,61,127)" stroke="none" stroke-width="1"/></g></g><clipPath id="eak7euxpdtmp127"><use id="eak7euxpdtmp128" width="375" height="180" xlink:href="#eak7euxpdtmp2" fill="rgb(0,0,0)" stroke="none" stroke-width="1"/></clipPath></g></g><g id="eak7euxpdtmp129_ts" transform="translate(263.180481,71.091000) scale(1,1)"><g id="eak7euxpdtmp129" transform="translate(-263.180481,-71.091000)"><path id="eak7euxpdtmp130" d="M246.751000,34.916000C246.587000,35.353000,246.914000,35.844000,247.405000,35.844000L256.245000,35.844000C257.500000,35.844000,258.537000,36.881000,258.537000,38.136000C258.537000,39.391000,257.500000,40.428000,256.245000,40.428000L215.539000,40.428000C214.229000,40.428000,213.247000,39.391000,213.247000,38.136000C213.247000,36.881000,214.229000,35.844000,215.539000,35.844000L223.724000,35.844000C224.215000,35.844000,224.543000,35.353000,224.325000,34.916000L223.888000,33.879000C223.451000,32.733000,224.270000,31.533000,225.525000,31.533000C227.053000,31.533000,228.418000,32.406000,229.017000,33.825000L229.508000,34.916000C229.727000,35.462000,230.272000,35.844000,230.872000,35.844000L240.311000,35.844000C240.912000,35.844000,241.457000,35.462000,241.675000,34.916000L242.057000,33.879000C242.603000,32.460000,243.967000,31.533000,245.495000,31.533000C246.750000,31.533000,247.623000,32.733000,247.132000,33.879000L246.751000,34.916000ZM217.559000,75.786000C216.303000,75.786000,215.322000,74.804000,215.322000,73.549000L215.322000,48.831000C215.322000,46.648000,217.068000,44.902000,219.251000,44.902000L230.928000,44.902000C233.111000,44.902000,234.857000,46.648000,234.857000,48.831000L234.857000,73.549000C234.857000,74.804000,233.875000,75.786000,232.620000,75.786000C231.365000,75.786000,230.383000,74.804000,230.383000,73.549000L230.383000,67.492000C230.383000,66.892000,229.892000,66.401000,229.292000,66.401000L220.889000,66.401000C220.288000,66.401000,219.852000,66.892000,219.852000,67.492000L219.852000,73.549000C219.850000,74.803000,218.813000,75.786000,217.559000,75.786000ZM230.381000,50.467000C230.381000,49.867000,229.890000,49.430000,229.290000,49.430000L220.887000,49.430000C220.286000,49.430000,219.850000,49.867000,219.850000,50.467000L219.850000,52.268000C219.850000,52.868000,220.287000,53.305000,220.887000,53.305000L229.290000,53.305000C229.890000,53.305000,230.381000,52.868000,230.381000,52.268000L230.381000,50.467000ZM219.850000,60.834000C219.850000,61.435000,220.287000,61.871000,220.887000,61.871000L229.290000,61.871000C229.890000,61.871000,230.381000,61.434000,230.381000,60.834000L230.381000,58.924000C230.381000,58.324000,229.890000,57.833000,229.290000,57.833000L220.887000,57.833000C220.286000,57.833000,219.850000,58.324000,219.850000,58.924000L219.850000,60.834000ZM241.840000,69.947000C240.585000,69.947000,239.603000,68.910000,239.603000,67.601000L239.603000,46.593000C239.603000,45.338000,240.585000,44.301000,241.840000,44.301000C243.150000,44.301000,244.132000,45.338000,244.132000,46.593000L244.132000,67.601000C244.132000,68.911000,243.149000,69.947000,241.840000,69.947000ZM253.354000,75.895000C252.098000,75.895000,251.117000,74.858000,251.117000,73.603000L251.117000,44.356000C251.117000,43.101000,252.098000,42.119000,253.354000,42.119000C254.609000,42.119000,255.645000,43.101000,255.645000,44.356000L255.645000,73.603000C255.645000,74.858000,254.608000,75.895000,253.354000,75.895000Z" fill="rgb(36,164,162)" stroke="none" stroke-width="1"/><path id="eak7euxpdtmp131" d="M307.979000,54.723000C306.561000,54.723000,305.251000,53.741000,304.815000,52.377000L304.596000,51.504000C304.432000,51.013000,303.942000,50.686000,303.396000,50.686000L275.349000,51.941000C273.603000,51.996000,272.348000,50.141000,273.112000,48.503000L280.260000,33.225000C280.969000,31.752000,282.443000,30.824000,284.079000,30.824000C285.279000,30.824000,286.098000,32.079000,285.553000,33.225000L279.496000,46.102000C279.277000,46.539000,279.604000,47.030000,280.096000,46.975000L301.867000,46.102000C302.413000,46.047000,302.795000,45.556000,302.632000,45.011000L301.540000,41.137000C301.213000,39.936000,302.086000,38.791000,303.341000,38.791000C304.760000,38.791000,306.070000,39.718000,306.506000,41.137000L309.779000,52.377000C310.107000,53.578000,309.234000,54.723000,307.979000,54.723000ZM278.404000,76.222000C276.221000,76.222000,274.475000,74.476000,274.475000,72.293000L274.475000,61.053000C274.475000,58.870000,276.221000,57.070000,278.404000,57.070000L302.358000,57.070000C304.541000,57.070000,306.341000,58.871000,306.341000,61.053000L306.341000,72.293000C306.341000,74.476000,304.540000,76.222000,302.358000,76.222000L278.404000,76.222000ZM280.260000,61.872000C279.659000,61.872000,279.223000,62.309000,279.223000,62.909000L279.223000,70.439000C279.223000,71.040000,279.660000,71.476000,280.260000,71.476000L300.504000,71.476000C301.104000,71.476000,301.595000,71.039000,301.595000,70.439000L301.595000,62.909000C301.595000,62.309000,301.104000,61.872000,300.504000,61.872000L280.260000,61.872000Z" transform="matrix(1 0 0 1 2 0)" fill="rgb(36,164,162)" stroke="none" stroke-width="1"/><path id="eak7euxpdtmp132" d="M220.109000,92.860000C220.682000,92.860000,221.173000,93.351000,221.173000,93.951000C221.173000,94.552000,220.682000,95.042000,220.109000,95.042000L214.544000,95.042000C214.326000,95.042000,214.162000,95.206000,214.162000,95.397000L214.162000,99.353000C214.162000,99.544000,214.326000,99.707000,214.544000,99.707000L219.318000,99.707000C219.919000,99.707000,220.382000,100.198000,220.382000,100.798000C220.382000,101.398000,219.918000,101.889000,219.318000,101.889000L214.544000,101.889000C214.326000,101.889000,214.162000,102.053000,214.162000,102.243000L214.162000,110.155000C214.162000,110.810000,213.643000,111.328000,212.989000,111.328000C212.334000,111.328000,211.816000,110.809000,211.816000,110.155000L211.816000,94.743000C211.816000,93.706000,212.662000,92.860000,213.698000,92.860000L220.109000,92.860000Z" fill="rgb(36,164,162)" stroke="none" stroke-width="1"/><path id="eak7euxpdtmp133" d="M224.012000,110.185000L224.012000,99.708000C224.012000,98.671000,224.831000,97.853000,225.840000,97.853000L230.123000,97.853000C230.696000,97.853000,231.160000,98.344000,231.160000,98.890000C231.160000,99.463000,230.696000,99.927000,230.123000,99.927000L226.631000,99.927000C226.413000,99.927000,226.277000,100.091000,226.277000,100.309000L226.277000,110.185000C226.277000,110.812000,225.758000,111.331000,225.159000,111.331000C224.503000,111.331000,224.012000,110.812000,224.012000,110.185000Z" fill="rgb(36,164,162)" stroke="none" stroke-width="1"/><path id="eak7euxpdtmp134" d="M240.273000,111.331000L235.117000,111.331000C234.081000,111.331000,233.262000,110.485000,233.262000,109.448000L233.262000,99.708000C233.262000,98.671000,234.081000,97.853000,235.117000,97.853000L240.901000,97.853000C241.856000,98.208000,242.729000,98.672000,242.729000,99.708000L242.729000,108.848000C242.729000,110.212000,241.638000,111.331000,240.273000,111.331000ZM235.363000,100.363000L235.363000,108.793000C235.363000,108.984000,235.526000,109.148000,235.717000,109.148000L240.218000,109.148000C240.437000,109.148000,240.601000,108.984000,240.601000,108.793000L240.601000,100.363000C240.601000,100.172000,240.437000,99.981000,240.218000,99.981000L235.717000,99.981000C235.526000,99.981000,235.363000,100.172000,235.363000,100.363000Z" fill="rgb(36,164,162)" stroke="none" stroke-width="1"/><path id="eak7euxpdtmp135" d="M254.789000,111.331000C254.217000,111.331000,253.726000,110.840000,253.726000,110.240000L253.726000,100.364000C253.726000,100.173000,253.562000,99.982000,253.344000,99.982000L248.842000,99.982000C248.651000,99.982000,248.488000,100.173000,248.488000,100.364000L248.488000,110.295000C248.488000,110.868000,247.997000,111.332000,247.424000,111.332000C246.851000,111.332000,246.387000,110.868000,246.387000,110.295000L246.387000,99.708000C246.387000,98.671000,247.206000,97.853000,248.242000,97.853000L253.398000,97.853000C254.762000,97.853000,255.854000,98.945000,255.854000,100.309000L255.854000,110.240000C255.854000,110.839000,255.390000,111.331000,254.789000,111.331000Z" fill="rgb(36,164,162)" stroke="none" stroke-width="1"/><path id="eak7euxpdtmp136" d="M259.894000,100.145000C259.894000,100.036000,259.812000,99.927000,259.675000,99.927000L259.511000,99.927000C258.911000,99.927000,258.475000,99.463000,258.475000,98.890000C258.475000,98.344000,258.912000,97.853000,259.511000,97.853000L259.675000,97.853000C259.812000,97.853000,259.894000,97.771000,259.894000,97.635000L259.894000,94.388000C259.894000,93.761000,260.412000,93.242000,261.012000,93.242000C261.640000,93.242000,262.158000,93.760000,262.158000,94.388000L262.158000,97.471000C262.158000,97.689000,262.322000,97.853000,262.540000,97.853000L263.959000,97.853000C264.505000,97.853000,264.996000,98.344000,264.996000,98.890000C264.996000,99.463000,264.505000,99.927000,263.959000,99.927000L262.540000,99.927000C262.322000,99.927000,262.158000,100.091000,262.158000,100.309000L262.158000,108.903000C262.158000,109.121000,262.322000,109.285000,262.540000,109.285000L264.395000,109.285000C264.914000,109.285000,265.377000,109.749000,265.377000,110.295000C265.377000,110.868000,264.913000,111.332000,264.395000,111.332000L262.349000,111.332000C260.985000,111.332000,259.894000,110.213000,259.894000,108.849000L259.894000,100.145000Z" fill="rgb(36,164,162)" stroke="none" stroke-width="1"/><path id="eak7euxpdtmp137" d="M268.569000,102.900000C268.569000,102.273000,269.060000,101.781000,269.688000,101.781000L274.108000,101.781000C274.708000,101.781000,275.226000,102.272000,275.226000,102.900000C275.226000,103.528000,274.707000,104.019000,274.108000,104.019000L269.688000,104.019000C269.061000,104.019000,268.569000,103.527000,268.569000,102.900000Z" fill="rgb(36,164,162)" stroke="none" stroke-width="1"/><path id="eak7euxpdtmp138" d="M288.269000,111.358000L281.831000,111.331000C280.795000,111.331000,279.948000,110.485000,279.948000,109.448000L279.948000,94.715000C279.948000,93.678000,280.795000,92.860000,281.831000,92.860000L288.269000,92.860000C288.815000,92.860000,289.306000,93.351000,289.306000,93.924000C289.306000,94.525000,288.815000,95.016000,288.269000,95.016000L282.676000,95.016000C282.458000,95.016000,282.294000,95.180000,282.294000,95.398000L282.294000,99.354000C282.294000,99.545000,282.458000,99.708000,282.676000,99.708000L287.450000,99.708000C288.051000,99.708000,288.514000,100.199000,288.514000,100.799000C288.514000,101.399000,288.050000,101.890000,287.450000,101.890000L282.676000,101.890000C282.458000,101.890000,282.294000,102.054000,282.294000,102.244000L282.294000,108.819000C282.294000,109.010000,282.458000,109.174000,282.676000,109.174000L288.269000,109.174000C288.815000,109.174000,289.306000,109.665000,289.306000,110.265000C289.306000,110.867000,288.814000,111.358000,288.269000,111.358000Z" fill="rgb(36,164,162)" stroke="none" stroke-width="1"/><path id="eak7euxpdtmp139" d="M300.574000,111.331000C300.002000,111.331000,299.511000,110.840000,299.511000,110.240000L299.511000,100.364000C299.511000,100.173000,299.347000,99.982000,299.129000,99.982000L294.627000,99.982000C294.436000,99.982000,294.273000,100.173000,294.273000,100.364000L294.273000,110.295000C294.273000,110.868000,293.782000,111.332000,293.209000,111.332000C292.636000,111.332000,292.172000,110.868000,292.172000,110.295000L292.172000,99.708000C292.172000,98.671000,292.991000,97.853000,294.027000,97.853000L299.183000,97.853000C300.547000,97.853000,301.639000,98.945000,301.639000,100.309000L301.639000,110.240000C301.639000,110.839000,301.175000,111.331000,300.574000,111.331000Z" fill="rgb(36,164,162)" stroke="none" stroke-width="1"/><path id="eak7euxpdtmp140" d="M312.062000,111.331000L307.151000,111.331000C306.115000,111.331000,305.296000,110.485000,305.296000,109.448000L305.296000,99.708000C305.296000,98.671000,306.115000,97.853000,307.151000,97.853000L311.871000,97.853000C312.090000,97.853000,312.253000,97.689000,312.253000,97.471000L312.253000,94.388000C312.253000,93.733000,312.772000,93.242000,313.399000,93.242000C314.026000,93.242000,314.545000,93.733000,314.545000,94.388000L314.545000,108.848000C314.544000,110.212000,313.426000,111.331000,312.062000,111.331000ZM307.505000,100.308000L307.505000,108.902000C307.505000,109.120000,307.669000,109.284000,307.860000,109.284000L311.870000,109.284000C312.089000,109.284000,312.252000,109.120000,312.252000,108.902000L312.252000,100.308000C312.252000,100.090000,312.089000,99.926000,311.870000,99.926000L307.860000,99.926000C307.669000,99.926000,307.505000,100.090000,307.505000,100.308000Z" fill="rgb(36,164,162)" stroke="none" stroke-width="1"/></g></g></g></g></svg>