<?xml version="1.0" encoding="utf-8"?>
<!-- Generator: Adobe Illustrator 16.0.0, SVG Export Plug-In . SVG Version: 6.00 Build 0)  -->
<!DOCTYPE svg PUBLIC "-//W3C//DTD SVG 1.1//EN" "http://www.w3.org/Graphics/SVG/1.1/DTD/svg11.dtd">
<svg version="1.1" xmlns="http://www.w3.org/2000/svg" xmlns:xlink="http://www.w3.org/1999/xlink" x="0px" y="0px" width="350px"
	 height="516px" viewBox="0 0 350 516" enable-background="new 0 0 350 516" xml:space="preserve">
<g id="圖層_1">
	<rect x="-50.397" y="-21.892" fill="#F3F8F4" width="1240.438" height="577.471"/>
	<g>
		<g>
			<defs>
				<rect id="SVGID_13_" x="395.521" y="-9" width="362" height="533"/>
			</defs>
			<clipPath id="SVGID_1_">
				<use xlink:href="#SVGID_13_"  overflow="visible"/>
			</clipPath>
			<path clip-path="url(#SVGID_1_)" fill="#FFFFFF" d="M136.819,376.143l1.576-100.515c0,0,14.465-21.956,33.146-10.71
				c1.46-1.518,3.026-2.883,4.67-4.097c16.287-11.986,40.505-9.047,53.379,6.111c1.653,1.938,3.109,4.076,4.347,6.407
				c0,0,1.151-2.251,3.3-4.817c2.92-3.463,7.654-7.499,13.859-7.312c1.223,0.04,2.507,0.247,3.836,0.646
				c-5.979-23.762,26.043-34.48,38.419-18.249c8.889-24.747,54.049-48.184,78.845-18.731c28.566-19.943,70.705,9.127,51.579,46.613
				c25.836-10.019,24.646,5.438,24.646,5.438s17.233-29.888,41.008-24.323c0.672-25.789,47.799-52.93,74.179-22.64
				c2.279,2.621,4.408,5.662,6.334,9.176c6.161-10.521,12.374-16.065,17.674-18.919c8.294-4.472,14.333-2.34,14.333-2.34
				s-0.692-31.503,28.694-27.099c7.899-25.847,70.877-48.782,77.742,17.844c20.583-0.093,21.66,18.613,21.66,18.613
				s16.863-14.178,29.628,3.922l-2.653,141.836L136.819,376.143z"/>
		</g>
	</g>
	<g>
		<g>
			<defs>
				<rect id="SVGID_24_" x="-7.96" y="-9" width="362" height="533"/>
			</defs>
			<clipPath id="SVGID_3_">
				<use xlink:href="#SVGID_24_"  overflow="visible"/>
			</clipPath>
			<path clip-path="url(#SVGID_3_)" fill="#FFFFFF" d="M-266.661,376.143l1.576-100.515c0,0,14.465-21.956,33.146-10.71
				c1.46-1.518,3.026-2.883,4.67-4.097c16.287-11.986,40.505-9.047,53.379,6.111c1.653,1.938,3.109,4.076,4.347,6.407
				c0,0,1.151-2.251,3.3-4.817c2.92-3.463,7.654-7.499,13.859-7.312c1.223,0.04,2.507,0.247,3.836,0.646
				c-5.979-23.762,26.043-34.48,38.419-18.249c8.889-24.747,54.049-48.184,78.845-18.731c28.566-19.943,70.705,9.127,51.579,46.613
				c25.836-10.019,24.646,5.438,24.646,5.438s17.233-29.888,41.008-24.323c0.672-25.789,47.799-52.93,74.179-22.64
				c2.279,2.621,4.408,5.662,6.334,9.176c6.161-10.521,12.374-16.065,17.674-18.919c8.294-4.472,14.333-2.34,14.333-2.34
				s-0.692-31.503,28.694-27.099c7.899-25.847,70.877-48.782,77.742,17.844c20.583-0.093,21.66,18.613,21.66,18.613
				s16.863-14.178,29.628,3.922l-2.653,141.836L-266.661,376.143z"/>
			<g opacity="0.5" clip-path="url(#SVGID_3_)">
				<path fill="#72CFED" d="M525.53,287.143v129.006H-50.379V250.997c0,0,35.477-18.54,59.426-2.728
					c10.858,7.175,19.229,20.118,26.809,32.219c1.137,1.827,2.264,3.629,3.37,5.39c0.192,0.297,0.375,0.595,0.567,0.893
					c0.484,0.76,0.968,1.521,1.451,2.265c6.281,9.72,12.303,17.632,19.151,19.523c0.814,0.222,1.644,0.362,2.48,0.413
					c1.198,0.066,2.396,0,3.586-0.183h0.009c4.761-0.735,9.481-3.38,14.198-7.058c2.05-1.597,4.091-3.39,6.142-5.307
					c7.28-6.803,14.598-15.15,22.108-21.847c7.647-6.811,15.488-11.91,23.688-11.91c23.683,0,47.822,44.229,73.218,44.113
					c1.697-0.008,3.394-0.214,5.106-0.645c10.773-2.72,23.85,2.396,38.071,9.06c5.897,2.759,11.994,5.785,18.205,8.636
					c5.921,2.713,11.95,5.258,18.009,7.249c3.662,1.207,7.34,2.216,11.019,2.927c1.835,0.364,3.67,0.646,5.498,0.844
					c4.799,0.546,9.574,0.521,14.312-0.265c1.307-0.215,2.61-0.497,3.909-0.836c0.392-0.1,0.791-0.207,1.183-0.321
					c5.65-1.621,11.21-4.455,16.617-8.812c0.99-0.801,1.973-1.652,2.956-2.562c4.4-4.067,8.868-8.349,13.392-12.762
					c6.488-6.332,13.077-12.928,19.703-19.49c0.146-0.141,0.285-0.281,0.431-0.422c1.583-1.57,3.163-3.133,4.745-4.686
					c3.203-3.158,6.411-6.283,9.613-9.358c1.561-1.495,3.119-2.974,4.669-4.438c0.268-0.249,0.528-0.497,0.793-0.736
					c3.277-3.075,6.54-6.066,9.79-8.942c2.948-2.613,5.88-5.133,8.799-7.53c6.727-5.538,13.354-10.44,19.812-14.406
					c13.281-8.151,25.854-12.317,37.11-9.771c15.204,3.447,27.536,14.225,36.712,25.531
					C518.874,270.586,525.53,287.143,525.53,287.143z"/>
				<path opacity="0.1" fill="#9D56A0" d="M339.036,346.174c0.008,6.43-0.722,12.859-2.541,18.721
					c-1.866,6.043-4.883,11.489-9.429,15.713c-0.024,0.017-0.039,0.042-0.062,0.058c-6.028,5.579-13.899,8.183-21.678,10.026
					c-0.27,0.066-0.538,0.124-0.807,0.19c-0.223,0.049-0.454,0.107-0.676,0.148c-3.763,0.859-7.549,1.594-11.357,2.247
					c-3.685,0.629-7.379,1.183-11.089,1.688c-4.237,0.578-8.484,1.099-12.738,1.611c-2.618,0.313-5.229,0.628-7.849,0.941
					c-0.015,0-0.029,0.01-0.045,0.01c-0.062,0.008-0.123,0.016-0.185,0.023c-3.899,0.472-7.801,0.968-11.688,1.514
					c-0.369,0.057-0.737,0.107-1.112,0.156c-3.103,0.456-6.196,0.943-9.275,1.488c-2.681,0.479-5.354,1-8.011,1.578
					c-1.073,0.232-2.156,0.479-3.225,0.735c-0.13,0.025-0.261,0.059-0.384,0.092c-1.321,0.306-2.626,0.637-3.932,0.983v0.008
					c-1.29,0.34-2.572,0.695-3.847,1.076c-2.165,0.635-4.316,1.33-6.458,2.081c-1.943,0.686-3.878,1.414-5.797,2.208
					c-0.63,0.257-1.26,0.52-1.89,0.793c-3.815,1.652-7.532,3.513-11.188,5.514c-0.229,0.123-0.452,0.248-0.684,0.371H-50.379
					v-97.682c4.292,2.241,8.31,5.654,11.703,9.199c5.475,5.722,10.859,12.292,17.469,15.978c2.044,1.142,4.201,2.001,6.513,2.48
					c1.988,0.413,3.953,0.513,5.904,0.38c0.476-0.033,0.952-0.082,1.427-0.141c3.081-0.396,6.121-1.347,9.147-2.57
					c1.236-0.496,2.464-1.042,3.701-1.621c5.338-2.471,10.665-5.438,16.141-7.313c0.937-0.323,1.89-0.611,2.834-0.852
					c2.479-0.662,4.99-1.034,7.555-0.991c8.66,0.147,17.33,5.141,25.671,2.595c3.669-1.124,6.811-3.604,9.937-6.017
					c0.483-0.381,0.975-0.753,1.459-1.125c2.097-1.578,4.3-3.05,6.581-4.381c5.689-3.322,11.878-5.77,18.152-6.894
					c7.293-1.288,14.697-0.794,21.568,2.224c17.21,7.57,28.506,29.457,47.072,30.518c15.027,0.859,27.866-12.789,42.885-13.756
					c10.305-0.66,19.982,4.704,29.641,8.613c2.979,1.206,5.998,2.272,9.054,3.189c1.451,0.446,2.902,0.861,4.37,1.232
					c2.833,0.736,5.689,1.355,8.567,1.853c0.631,0.123,1.268,0.223,1.905,0.321c4.877,0.777,9.806,1.215,14.736,1.331
					c0.644,0.016,1.298,0.023,1.944,0.023c4.476,0.033,8.96-0.196,13.42-0.701c2.335-0.257,4.653-0.595,6.966-1
					c1.052-0.182,2.104-0.38,3.147-0.604c1.221-0.24,2.442-0.513,3.665-0.802c3.031-0.719,6.034-1.57,9.006-2.546
					c0.453-0.148,0.907-0.297,1.351-0.454c2.298-0.778,4.569-1.638,6.819-2.57c0.337-0.141,0.669-0.281,1.007-0.431
					c5.996-2.546,11.793-5.638,17.314-9.249C338.738,338.222,339.029,342.197,339.036,346.174z"/>
				<path fill="#F8F8F8" d="M66.462,308.788c-1.749,1.134-3.53,2.208-5.336,3.225c-1.114,0.636-2.235,1.247-3.372,1.834
					c-7.992,4.15-16.961,7.315-25.654,5.39c-1.55-0.347-3.079-0.902-4.538-1.645c-6.695-3.389-11.871-10.572-11.011-18.366
					c0.374-3.405,1.834-6.711,1.481-10.125c-0.752-7.282-9.114-10.696-15.873-9.901c-6.004,0.709-11.802,3.412-17.776,3.727
					c-0.751,0.041-1.512,0.051-2.272,0c-6.795-0.414-14.053-7.331-11.509-14.126c0.937-2.496,3.056-4.537,3.201-7.231
					c0.3-5.671-7.31-7.035-12.479-5.893c-3.955,0.867-7.856,1.966-11.703,3.282v-7.96c0,0,35.477-18.54,59.426-2.728
					c10.858,7.175,19.229,20.118,26.809,32.219c1.137,1.827,2.264,3.629,3.37,5.39c0.192,0.297,0.375,0.595,0.567,0.893
					c0.484,0.76,0.968,1.521,1.451,2.265c6.281,9.72,12.303,17.632,19.151,19.523c0.814,0.222,1.644,0.362,2.48,0.413
					C64.074,309.037,65.272,308.971,66.462,308.788z"/>
				<path fill="#F8F8F8" d="M205.825,306.78c-9.554,6.125-21.915,4.687-33.096,2.968c-4.798-0.744-9.814-1.58-13.723-4.678
					c-4.054-3.208-6.281-8.366-9.375-12.647c-3.096-4.273-8.108-7.968-12.893-6.29c-6.757,2.355-10.197,14.199-16.994,11.984
					c-3.653-1.189-5.021-6.09-4.729-10.191c0.29-4.09,1.643-8.165,1.043-12.224c-2.42,0.306-4.907-0.091-7.141-1.125
					c7.647-6.811,15.488-11.91,23.688-11.91C156.29,262.667,180.43,306.896,205.825,306.78z"/>
			</g>
			<path clip-path="url(#SVGID_3_)" fill="#F8F8F8" d="M476.734,377.471c0.009,7.279-0.88,14.56-3.098,21.196
				c-2.274,6.842-5.95,13.009-11.491,17.79c-0.03,0.02-0.048,0.048-0.074,0.065c-7.348,6.317-16.94,9.265-26.421,11.352
				c-0.326,0.075-0.655,0.142-0.981,0.216c-0.271,0.056-0.554,0.122-0.823,0.168c-4.587,0.974-9.2,1.806-13.843,2.545
				c-4.49,0.712-8.992,1.339-13.513,1.91c-5.165,0.655-10.342,1.244-15.526,1.824c-3.19,0.355-6.372,0.711-9.564,1.066
				c-0.018,0-0.035,0.011-0.055,0.011c-0.075,0.009-0.15,0.018-0.226,0.026c-4.753,0.534-9.507,1.097-14.243,1.714
				c-0.45,0.064-0.898,0.122-1.355,0.177c-3.781,0.517-7.553,1.068-11.306,1.686c-3.267,0.543-6.523,1.132-9.763,1.787
				c-1.309,0.263-2.628,0.543-3.929,0.832c-0.159,0.028-0.318,0.066-0.468,0.104c-1.611,0.347-3.201,0.722-4.792,1.114v0.009
				c-1.573,0.384-3.136,0.787-4.688,1.218c-2.639,0.72-5.26,1.507-7.87,2.356c-2.369,0.777-4.727,1.602-7.065,2.5
				c-0.768,0.291-1.535,0.589-2.303,0.897c-4.651,1.871-9.181,3.979-13.635,6.244c-0.281,0.139-0.552,0.28-0.834,0.419H2.141V346.1
				c5.231,2.537,10.127,6.402,14.264,10.416c6.672,6.478,13.233,13.917,21.289,18.09c2.49,1.292,5.12,2.266,7.938,2.809
				c2.423,0.468,4.817,0.58,7.195,0.43c0.58-0.037,1.16-0.093,1.739-0.158c3.755-0.448,7.459-1.525,11.147-2.911
				c1.507-0.562,3.003-1.18,4.511-1.835c6.506-2.798,12.999-6.158,19.671-8.28c1.143-0.366,2.304-0.693,3.455-0.965
				c3.021-0.749,6.083-1.171,9.207-1.123c10.556,0.168,21.121,5.821,31.285,2.939c4.473-1.273,8.301-4.082,12.11-6.813
				c0.59-0.43,1.188-0.852,1.778-1.272c2.556-1.788,5.24-3.453,8.021-4.96c6.935-3.762,14.476-6.533,22.123-7.806
				c8.889-1.459,17.912-0.898,26.286,2.517c20.975,8.572,34.74,33.354,57.368,34.553c18.314,0.974,33.962-14.479,52.266-15.573
				c12.559-0.748,24.353,5.325,36.124,9.752c3.632,1.365,7.31,2.572,11.033,3.611c1.77,0.505,3.537,0.975,5.326,1.395
				c3.453,0.834,6.935,1.535,10.442,2.098c0.768,0.14,1.545,0.252,2.321,0.364c5.943,0.88,11.951,1.375,17.96,1.507
				c0.785,0.018,1.581,0.027,2.369,0.027c5.456,0.037,10.921-0.224,16.355-0.795c2.846-0.291,5.672-0.673,8.489-1.132
				c1.282-0.205,2.564-0.431,3.837-0.684c1.487-0.271,2.977-0.58,4.466-0.907c3.695-0.814,7.354-1.778,10.977-2.884
				c0.552-0.168,1.104-0.335,1.646-0.514c2.8-0.881,5.569-1.854,8.312-2.91c0.41-0.159,0.814-0.318,1.227-0.487
				c7.308-2.882,14.372-6.383,21.102-10.472C476.37,368.467,476.726,372.968,476.734,377.471z"/>
			<g clip-path="url(#SVGID_3_)">
				<g>
					<g>
						<path fill="#FFFFFF" d="M356.083,292.31c-7.341,2.094-13.231,7.624-15.793,14.755c-1.636-1.065-3.584-1.69-5.682-1.69
							c-5.762,0-10.432,4.671-10.432,10.433c0,1.828,0.473,3.545,1.299,5.039c-12.135,6.728-20.803,18.934-22.678,33.28
							c-2.058-0.583-4.225-0.901-6.47-0.901c-13.079,0-23.683,10.603-23.683,23.682c0,5.513,1.889,10.58,5.047,14.604
							c-8.379,1.648-15.8,5.965-21.334,12.035c-2.501-1.559-5.452-2.463-8.615-2.463c-9.01,0-16.312,7.304-16.312,16.312
							c0,1.488,0.202,2.929,0.575,4.298c-11.045,0.128-20.269,7.814-22.745,18.129c-5.613-3.108-12.066-4.884-18.938-4.884
							c-15.885,0-29.55,9.468-35.686,23.063h97.657c0.815-1.288,1.521-2.653,2.079-4.095c1.131,1.453,2.371,2.815,3.69,4.095h54.447
							c0.741-0.719,1.464-1.458,2.147-2.233c1.695,0.869,3.466,1.606,5.289,2.233h26.421c3.476-1.198,6.737-2.853,9.714-4.895
							V292.31z"/>
						<path fill="#FFFFFF" d="M-11.991,292.31c7.34,2.094,13.231,7.624,15.793,14.755c1.636-1.065,3.584-1.69,5.682-1.69
							c5.762,0,10.432,4.671,10.432,10.433c0,1.828-0.473,3.545-1.299,5.039c12.135,6.728,20.802,18.934,22.679,33.28
							c2.056-0.583,4.224-0.901,6.469-0.901c13.079,0,23.683,10.603,23.683,23.682c0,5.513-1.889,10.58-5.046,14.604
							c8.378,1.648,15.798,5.965,21.333,12.035c2.501-1.559,5.452-2.463,8.615-2.463c9.01,0,16.313,7.304,16.313,16.312
							c0,1.488-0.203,2.929-0.576,4.298c11.045,0.128,20.269,7.814,22.746,18.129c5.611-3.108,12.065-4.884,18.937-4.884
							c15.885,0,29.551,9.468,35.686,23.063H91.797c-0.815-1.288-1.521-2.653-2.079-4.095c-1.13,1.453-2.371,2.815-3.69,4.095
							H31.579c-0.74-0.719-1.463-1.458-2.146-2.233c-1.695,0.869-3.466,1.606-5.289,2.233H-2.277
							c-3.476-1.198-6.737-2.853-9.714-4.895V292.31z"/>
					</g>
					<g>
						<linearGradient id="SVGID_4_" gradientUnits="userSpaceOnUse" x1="172.0464" y1="560.1895" x2="172.0464" y2="447.1667">
							<stop  offset="0" style="stop-color:#639327"/>
							<stop  offset="1" style="stop-color:#AEC13E"/>
						</linearGradient>
						<path fill="url(#SVGID_4_)" d="M356.083,458.827c-51.908-4.206-113.973-6.653-180.658-6.653
							c-69.604,0-134.176,2.665-187.416,7.218v65.599h368.074V458.827z"/>
						<g>
							<g>
								<path fill="#BBC145" d="M38.141,472.272c1.656,0.663,3.414,0.631,4.942,0.049c-0.706-1.476-1.959-2.709-3.617-3.37
									c-1.657-0.661-3.415-0.631-4.943-0.048C35.229,470.379,36.482,471.611,38.141,472.272z"/>
								<path fill="#BBC145" d="M131.468,508.445c1.396-1.063,2.252-2.572,2.521-4.171c-1.613-0.164-3.294,0.262-4.69,1.327
									c-1.396,1.064-2.251,2.571-2.521,4.17C128.391,509.936,130.071,509.51,131.468,508.445z"/>
								<path fill="#BBC145" d="M83.781,514.969c1.657,0.663,3.415,0.632,4.943,0.049c-0.706-1.475-1.96-2.709-3.617-3.37
									s-3.415-0.631-4.943-0.047C80.87,513.075,82.124,514.308,83.781,514.969z"/>
								<path fill="#BBC145" d="M110.424,489.743c-0.743,1.622-0.801,3.379-0.296,4.935c1.509-0.632,2.803-1.822,3.548-3.443
									c0.743-1.622,0.801-3.381,0.296-4.935C112.463,486.931,111.169,488.12,110.424,489.743z"/>
								<path fill="#BBC145" d="M20.027,482.106c1.094-0.534,1.885-1.438,2.289-2.479c-1.07-0.319-2.268-0.25-3.362,0.286
									c-1.094,0.535-1.884,1.439-2.289,2.479C17.735,482.712,18.933,482.644,20.027,482.106z"/>
								<path fill="#BBC145" d="M1.29,465.545c1.218,0.042,2.339-0.384,3.187-1.11c-0.794-0.784-1.884-1.288-3.102-1.329
									c-1.218-0.044-2.34,0.382-3.187,1.109C-1.018,464.999,0.072,465.502,1.29,465.545z"/>
								<path fill="#BBC145" d="M50.235,494.194c1.216-0.066,2.295-0.591,3.073-1.391c-0.861-0.71-1.991-1.114-3.207-1.047
									c-1.217,0.066-2.297,0.592-3.076,1.391C47.888,493.857,49.018,494.262,50.235,494.194z"/>
								<path fill="#BBC145" d="M83.361,482.048c1.217-0.066,2.296-0.591,3.074-1.391c-0.861-0.71-1.991-1.114-3.208-1.046
									c-1.217,0.065-2.296,0.591-3.075,1.39C81.015,481.711,82.145,482.115,83.361,482.048z"/>
								<path fill="#BBC145" d="M121.439,466.729c1.111-0.499,1.931-1.376,2.37-2.402c-1.059-0.354-2.259-0.323-3.37,0.176
									c-1.111,0.498-1.931,1.376-2.37,2.4C119.128,467.258,120.328,467.229,121.439,466.729z"/>
							</g>
							<g>
								<path fill="#BBC145" d="M252.199,472.689c1.502,0.6,3.095,0.572,4.479,0.043c-0.64-1.336-1.775-2.454-3.277-3.054
									c-1.503-0.6-3.096-0.572-4.48-0.043C249.561,470.973,250.696,472.09,252.199,472.689z"/>
								<path fill="#BBC145" d="M336.78,505.473c1.265-0.965,2.04-2.332,2.284-3.78c-1.462-0.148-2.984,0.237-4.25,1.202
									c-1.265,0.963-2.041,2.33-2.284,3.78C333.991,506.822,335.515,506.438,336.78,505.473z"/>
								<path fill="#BBC145" d="M293.562,511.385c1.502,0.6,3.095,0.572,4.479,0.043c-0.64-1.337-1.775-2.454-3.277-3.054
									s-3.096-0.572-4.48-0.043C290.925,509.666,292.061,510.785,293.562,511.385z"/>
								<path fill="#BBC145" d="M317.708,488.521c-0.674,1.471-0.726,3.064-0.268,4.474c1.367-0.572,2.54-1.651,3.215-3.122
									c0.674-1.469,0.726-3.062,0.268-4.472C319.556,485.973,318.383,487.052,317.708,488.521z"/>
								<path fill="#BBC145" d="M235.784,481.603c0.992-0.486,1.707-1.305,2.074-2.248c-0.97-0.288-2.055-0.226-3.047,0.259
									c-0.992,0.486-1.708,1.305-2.075,2.248C233.706,482.15,234.792,482.087,235.784,481.603z"/>
								<path fill="#BBC145" d="M218.803,466.592c1.104,0.039,2.12-0.347,2.888-1.007c-0.72-0.71-1.707-1.166-2.811-1.205
									c-1.104-0.038-2.12,0.347-2.888,1.007C216.712,466.097,217.699,466.553,218.803,466.592z"/>
								<path fill="#BBC145" d="M263.16,492.557c1.103-0.061,2.08-0.536,2.786-1.261c-0.78-0.645-1.805-1.01-2.908-0.949
									c-1.102,0.061-2.08,0.536-2.786,1.261C261.033,492.252,262.058,492.617,263.16,492.557z"/>
								<path fill="#BBC145" d="M293.182,481.549c1.103-0.061,2.081-0.536,2.786-1.261c-0.78-0.645-1.805-1.01-2.907-0.949
									s-2.081,0.536-2.786,1.261C291.056,481.244,292.079,481.609,293.182,481.549z"/>
								<path fill="#BBC145" d="M327.69,467.666c1.009-0.452,1.75-1.247,2.148-2.177c-0.96-0.321-2.047-0.295-3.054,0.158
									c-1.007,0.451-1.75,1.246-2.148,2.177C325.597,468.145,326.684,468.117,327.69,467.666z"/>
							</g>
							<g>
								<path fill="#BBC145" d="M153.525,488.367c-1.203,0.917-1.94,2.217-2.172,3.595c1.39,0.141,2.838-0.227,4.041-1.144
									c1.204-0.917,1.94-2.217,2.173-3.595C156.177,487.083,154.729,487.449,153.525,488.367z"/>
								<path fill="#BBC145" d="M194.622,482.745c-1.429-0.57-2.943-0.543-4.26-0.042c0.608,1.271,1.688,2.334,3.117,2.904
									c1.428,0.571,2.942,0.544,4.26,0.042C197.13,484.377,196.051,483.314,194.622,482.745z"/>
								<path fill="#BBC145" d="M171.661,504.486c0.642-1.399,0.691-2.913,0.256-4.253c-1.301,0.543-2.416,1.568-3.058,2.967
									c-0.641,1.398-0.691,2.912-0.256,4.254C169.905,506.909,171.021,505.884,171.661,504.486z"/>
								<path fill="#BBC145" d="M249.565,511.065c-0.943,0.462-1.624,1.241-1.974,2.137c0.922,0.274,1.954,0.216,2.897-0.246
									s1.624-1.241,1.974-2.137C251.54,510.545,250.509,510.604,249.565,511.065z"/>
								<path fill="#BBC145" d="M223.532,500.648c-1.048,0.058-1.979,0.509-2.649,1.199c0.742,0.611,1.717,0.959,2.765,0.901
									c1.049-0.058,1.979-0.509,2.649-1.199C225.555,500.939,224.581,500.591,223.532,500.648z"/>
								<path fill="#BBC145" d="M194.984,511.115c-1.049,0.058-1.979,0.511-2.649,1.199c0.742,0.613,1.717,0.961,2.765,0.903
									s1.979-0.511,2.649-1.199C197.007,511.406,196.032,511.059,194.984,511.115z"/>
								<path fill="#BBC145" d="M148.787,467.884c-1.049,0.058-1.979,0.51-2.65,1.199c0.743,0.611,1.717,0.959,2.765,0.901
									c1.049-0.057,1.979-0.509,2.65-1.198C150.809,468.175,149.835,467.827,148.787,467.884z"/>
							</g>
						</g>
					</g>
					<g>
						<g>
							<g>
								<polyline fill="#54AA52" points="217.223,329.654 269.857,424.63 217.223,424.63 164.588,424.63 217.223,329.654 								
									"/>
								<polygon fill="#408338" points="184.581,388.553 244.731,379.293 241.765,373.939 197.016,366.116 								"/>
								<polyline fill="#54AA52" points="217.223,313.824 252.312,377.141 217.223,377.141 182.133,377.141 217.223,313.824 
																	"/>
								<polygon fill="#408338" points="197.912,348.67 233.497,343.191 228.264,333.748 208.132,330.229 								"/>
								<polyline fill="#54AA52" points="217.223,300.426 238.399,338.638 217.223,338.638 196.046,338.638 217.223,300.426 
																	"/>
								<polygon fill="#408338" points="204.604,323.196 227.858,319.616 221.486,308.12 213.712,306.761 								"/>
								<polyline fill="#54AA52" points="217.223,291.141 231.295,316.533 217.223,316.533 203.15,316.533 217.223,291.141 								
									"/>
							</g>
							<g>
								<polyline fill="#54AA52" points="135.59,368.754 165.286,422.34 135.59,422.34 105.894,422.34 135.59,368.754 								"/>
								<polygon fill="#408338" points="117.174,401.984 151.111,396.761 149.437,393.74 124.189,389.326 								"/>
								<polyline fill="#54AA52" points="135.59,359.824 155.388,395.546 135.59,395.546 115.792,395.546 135.59,359.824 								
									"/>
								<polygon fill="#408338" points="124.695,379.483 144.772,376.392 141.819,371.064 130.461,369.079 								"/>
								<polyline fill="#54AA52" points="135.59,352.265 147.537,373.822 135.59,373.822 123.643,373.822 135.59,352.265 								
									"/>
								<polygon fill="#408338" points="128.471,365.111 141.591,363.091 137.996,356.605 133.609,355.839 								"/>
								<polyline fill="#54AA52" points="135.59,347.025 143.529,361.353 135.59,361.353 127.65,361.353 135.59,347.025 								"/>
							</g>
						</g>
						<g>
							<g>
								<defs>
									<rect id="SVGID_27_" x="188.486" y="362.302" width="167.597" height="96.436"/>
								</defs>
								<clipPath id="SVGID_6_">
									<use xlink:href="#SVGID_27_"  overflow="visible"/>
								</clipPath>
								<g clip-path="url(#SVGID_6_)">
									<g>
										<g>
											<path fill="#408338" d="M266.93,459.234c0-0.053,0-0.107,0-0.161c0-44.903-8.511-81.304-19.011-81.304
												c-10.499,0-19.01,36.4-19.01,81.304c0,0.054,0,0.108,0,0.161H266.93z"/>
											<polygon fill="#D1C91A" points="234.271,441.878 245.647,455.261 245.544,459.234 249.316,459.234 248.83,442.658 
												260.485,428.947 248.706,438.403 247.827,408.444 253.224,402.097 247.771,406.475 247.319,391.104 246.571,419.789 
												240.116,414.605 246.511,422.128 245.756,451.097 											"/>
										</g>
										<g>
											<path fill="#B3C738" d="M307.077,459.234c0-0.053,0-0.107,0-0.161c0-44.903-8.512-81.304-19.011-81.304
												c-10.5,0-19.011,36.4-19.011,81.304c0,0.054,0.001,0.108,0.001,0.161H307.077z"/>
											<polygon fill="#D1C91A" points="274.419,441.878 285.794,455.261 285.69,459.234 289.464,459.234 288.978,442.658 
												300.633,428.947 288.853,438.403 287.975,408.444 293.37,402.097 287.917,406.475 287.467,391.104 286.719,419.789 
												280.264,414.605 286.658,422.128 285.903,451.097 											"/>
										</g>
										<g>
											<path fill="#B3C738" d="M209.561,459.338c-0.055-20.833-4.019-37.652-8.903-37.652c-4.884,0-8.849,16.819-8.903,37.652
												H209.561z"/>
											<polygon fill="#DDE197" points="194.264,451.718 199.593,457.986 199.558,459.338 201.297,459.338 201.084,452.083 
												206.544,445.66 201.026,450.09 200.614,436.056 203.142,433.081 200.588,435.133 200.376,427.931 200.026,441.368 
												197.002,438.941 199.997,442.466 199.644,456.037 											"/>
										</g>
										<g>
											<path fill="#72C352" d="M237.043,459.234c-0.049-33.816-6.474-61.165-14.393-61.165s-14.344,27.349-14.394,61.165
												H237.043z"/>
											<polygon fill="#9FD163" points="212.317,446.609 220.93,456.741 220.865,459.234 223.693,459.234 223.341,447.2 
												232.164,436.819 223.246,443.979 222.581,421.296 226.666,416.489 222.537,419.805 222.196,408.166 221.63,429.884 
												216.742,425.96 221.584,431.656 221.013,453.59 											"/>
										</g>
										<g>
											<path fill="#408338" d="M370.069,459.234c-0.104-46.054-8.864-83.251-19.657-83.251
												c-10.792,0-19.553,37.197-19.657,83.251H370.069z"/>
											<polygon fill="#9FD163" points="336.298,442.28 348.063,456.12 347.981,459.234 351.828,459.234 351.354,443.088 
												363.407,428.91 351.226,438.688 350.317,407.707 355.897,401.144 350.258,405.67 349.792,389.773 349.019,419.438 
												342.343,414.078 348.956,421.857 348.175,451.815 											"/>
										</g>
										<g>
											<path fill="#54AA52" d="M337.175,459.234c-0.05-33.816-6.475-61.165-14.394-61.165c-7.918,0-14.343,27.349-14.393,61.165
												H337.175z"/>
											<polygon fill="#9FD163" points="312.448,446.609 321.062,456.741 320.997,459.234 323.825,459.234 323.472,447.2 
												332.296,436.819 323.378,443.979 322.713,421.296 326.798,416.489 322.669,419.805 322.327,408.166 321.762,429.884 
												316.874,425.96 321.716,431.656 321.144,453.59 											"/>
										</g>
									</g>
									<g>
										<g>
											<path fill="#488818" d="M292.948,433.412c-2.065-2.738-5.369-4.48-9.06-4.401c-3.791,0.08-7.094,2.061-9.022,5.012
												c-0.596-0.135-1.218-0.201-1.856-0.188c-4.214,0.09-7.557,3.578-7.468,7.792c0.09,4.213,3.578,7.557,7.791,7.467
												c1.213-0.026,2.354-0.334,3.36-0.858c2.021,1.836,4.719,2.934,7.664,2.872c2.655-0.058,5.071-1.047,6.944-2.648
												c0.626,0.151,1.282,0.226,1.957,0.212c4.213-0.09,7.557-3.577,7.467-7.79C300.636,436.67,297.156,433.33,292.948,433.412
												z"/>
											<path fill="#662B14" d="M282.011,450.16c-0.428,0.009-0.813-0.287-0.905-0.719c-0.021-0.086-0.959-3.636-8.247-6.5
												c-0.467-0.183-0.695-0.709-0.512-1.173c0.183-0.466,0.708-0.694,1.174-0.513c8.378,3.293,9.323,7.641,9.359,7.825
												c0.097,0.49-0.223,0.966-0.713,1.062C282.114,450.153,282.062,450.159,282.011,450.16z"/>
											<path fill="#662B14" d="M284.257,451.41c0.427-0.009,0.799-0.32,0.872-0.757c0.018-0.087,0.805-3.673,7.965-6.844
												c0.458-0.202,0.664-0.737,0.461-1.194c-0.202-0.457-0.736-0.664-1.193-0.462c-8.231,3.646-8.991,8.03-9.02,8.214
												c-0.075,0.495,0.263,0.957,0.757,1.033C284.151,451.407,284.204,451.411,284.257,451.41z"/>
											
												<rect x="280.659" y="436.119" transform="matrix(0.9998 -0.0214 0.0214 0.9998 -9.5079 6.1765)" fill="#B64C23" width="7.267" height="23.838"/>
											<polygon fill="#662B14" points="287.92,447.757 280.736,451.732 280.367,434.299 287.632,434.146 											"/>
											<path fill="#72C352" d="M311.349,424.792c-0.062-2.924-1.699-5.443-4.084-6.769c-1.432-11.771-11.582-20.77-23.69-20.512
												c-11.915,0.253-21.55,9.383-22.74,20.939c-2.958,1.204-5.016,4.134-4.944,7.518c0.031,1.428,0.438,2.759,1.125,3.901
												c-0.767,1.719-1.177,3.628-1.134,5.634c0.153,7.267,6.17,13.032,13.438,12.878c3.935-0.083,7.427-1.888,9.78-4.677
												c1.76,0.382,3.589,0.57,5.467,0.53c1.491-0.03,2.944-0.207,4.352-0.505c2.459,2.553,5.934,4.109,9.756,4.029
												c7.267-0.154,13.033-6.171,12.879-13.438c-0.041-1.926-0.497-3.743-1.275-5.376
												C310.986,427.729,311.382,426.305,311.349,424.792z"/>
											<g>
												<path fill="#E16C23" d="M288.014,452.152c-0.171-0.039-0.347-0.061-0.53-0.057c-1.195,0.026-2.145,1.017-2.119,2.213
													l0.114,5.421c0.002,0.068,0.008,0.138,0.016,0.205l2.684-0.058L288.014,452.152z"/>
												<path fill="#E16C23" d="M283.178,457.268L283.178,457.268c-0.559,0.012-1.021-0.432-1.033-0.99l-0.015-0.717
													c-0.013-0.559,0.431-1.021,0.99-1.033l0,0c0.559-0.012,1.021,0.432,1.033,0.99l0.015,0.716
													C284.181,456.793,283.737,457.256,283.178,457.268z"/>
												<path fill="#E16C23" d="M286.646,451.216L286.646,451.216c-0.4,0.009-0.731-0.308-0.74-0.709l-0.011-0.512
													c-0.008-0.401,0.309-0.731,0.709-0.74l0,0c0.4-0.009,0.731,0.309,0.74,0.709l0.011,0.513
													C287.364,450.877,287.046,451.209,286.646,451.216z"/>
												<path fill="#E16C23" d="M283.222,459.328L283.222,459.328c-0.328,0.007-0.599-0.253-0.605-0.581l-0.01-0.42
													c-0.006-0.328,0.254-0.598,0.581-0.605l0,0c0.327-0.007,0.599,0.252,0.606,0.58l0.009,0.419
													C283.809,459.049,283.55,459.32,283.222,459.328z"/>
											</g>
											<g>
												<circle fill="#9FD163" cx="292.189" cy="413.027" r="1.533"/>
												<circle fill="#9FD163" cx="296.227" cy="408.79" r="1.084"/>
												<circle fill="#9FD163" cx="290.489" cy="405.189" r="2.664"/>
											</g>
										</g>
										<path fill="#409E38" d="M290.553,458.771c0.126-0.265,0.195-0.561,0.188-0.873c-0.023-1.073-0.911-1.925-1.984-1.902
											c-0.236,0.006-0.461,0.055-0.669,0.137c-0.481-1.229-1.687-2.089-3.082-2.059c-1.313,0.027-2.425,0.834-2.909,1.969
											c-0.319-0.157-0.68-0.243-1.06-0.236c-1.269,0.027-2.274,1.077-2.247,2.345c0.008,0.376,0.106,0.727,0.273,1.037
											c-1.466,0.252-2.36,0.566-2.354,0.893c0.014,0.684,3.979,1.152,8.857,1.049s8.82-0.741,8.806-1.424
											C294.364,459.286,292.853,458.945,290.553,458.771z"/>
									</g>
								</g>
							</g>
							<g>
								<defs>
									<rect id="SVGID_29_" x="-11.991" y="363.038" width="167.596" height="96.435"/>
								</defs>
								<clipPath id="SVGID_8_">
									<use xlink:href="#SVGID_29_"  overflow="visible"/>
								</clipPath>
								<g clip-path="url(#SVGID_8_)">
									<g>
										<g>
											<path fill="#408338" d="M77.162,459.971c0-0.054,0-0.107,0-0.161c0-44.903,8.511-81.304,19.01-81.304
												c10.5,0,19.011,36.4,19.011,81.304c0,0.054,0,0.107,0,0.161H77.162z"/>
											<polygon fill="#D1C91A" points="109.819,442.613 98.444,455.996 98.548,459.971 94.774,459.971 95.261,443.395 
												83.606,429.684 95.386,439.14 96.265,409.181 90.868,402.833 96.322,407.211 96.772,391.84 97.52,420.524 
												103.976,415.342 97.581,422.864 98.336,451.833 											"/>
										</g>
										<g>
											<path fill="#B3C738" d="M37.015,459.971c0-0.054,0-0.107,0-0.161c0-44.903,8.512-81.304,19.01-81.304
												c10.501,0,19.012,36.4,19.012,81.304c0,0.054-0.001,0.107-0.001,0.161H37.015z"/>
											<polygon fill="#D1C91A" points="69.673,442.613 58.297,455.996 58.4,459.971 54.628,459.971 55.114,443.395 
												43.46,429.684 55.238,439.14 56.117,409.181 50.722,402.833 56.175,407.211 56.626,391.84 57.373,420.524 
												63.828,415.342 57.434,422.864 58.188,451.833 											"/>
										</g>
										<g>
											<path fill="#B3C738" d="M134.531,460.074c0.055-20.834,4.019-37.653,8.903-37.653s8.849,16.819,8.903,37.653H134.531z"/>
											<polygon fill="#DDE197" points="149.828,452.454 144.499,458.723 144.534,460.074 142.795,460.074 143.008,452.819 
												137.548,446.396 143.065,450.826 143.477,436.792 140.949,433.817 143.504,435.869 143.716,428.667 144.065,442.104 
												147.09,439.678 144.095,443.202 144.448,456.773 											"/>
										</g>
										<g>
											<path fill="#72C352" d="M107.049,459.971c0.049-33.816,6.474-61.165,14.393-61.165s14.344,27.349,14.393,61.165H107.049z
												"/>
											<polygon fill="#9FD163" points="131.774,447.346 123.162,457.478 123.227,459.971 120.399,459.971 120.751,447.937 
												111.928,437.556 120.847,444.716 121.511,422.031 117.426,417.226 121.555,420.541 121.896,408.901 122.462,430.619 
												127.35,426.696 122.509,432.393 123.079,454.326 											"/>
										</g>
										<g>
											<path fill="#408338" d="M-25.978,459.971c0.104-46.054,8.863-83.251,19.657-83.251c10.793,0,19.552,37.197,19.657,83.251
												H-25.978z"/>
											<polygon fill="#9FD163" points="7.794,443.017 -3.972,456.856 -3.89,459.971 -7.737,459.971 -7.263,443.824 
												-19.315,429.646 -7.135,439.425 -6.226,408.443 -11.806,401.88 -6.166,406.406 -5.699,390.51 -4.928,420.174 
												1.749,414.814 -4.864,422.594 -4.083,452.552 											"/>
										</g>
										<g>
											<path fill="#54AA52" d="M6.917,459.971c0.05-33.816,6.475-61.165,14.393-61.165c7.919,0,14.344,27.349,14.394,61.165
												H6.917z"/>
											<polygon fill="#9FD163" points="31.644,447.346 23.03,457.478 23.095,459.971 20.267,459.971 20.62,447.937 
												11.796,437.556 20.714,444.716 21.38,422.031 17.294,417.226 21.423,420.541 21.765,408.901 22.33,430.619 
												27.218,426.696 22.376,432.393 22.948,454.326 											"/>
										</g>
									</g>
									<g>
										<g>
											<path fill="#488818" d="M51.144,434.147c2.064-2.737,5.369-4.479,9.06-4.4c3.791,0.08,7.094,2.061,9.022,5.012
												c0.596-0.135,1.218-0.201,1.856-0.188c4.214,0.09,7.557,3.577,7.468,7.792c-0.091,4.213-3.578,7.557-7.792,7.466
												c-1.212-0.025-2.353-0.333-3.359-0.858c-2.021,1.837-4.719,2.935-7.664,2.873c-2.655-0.058-5.071-1.047-6.944-2.648
												c-0.626,0.151-1.282,0.226-1.957,0.211c-4.214-0.089-7.557-3.577-7.467-7.789
												C43.456,437.406,46.936,434.066,51.144,434.147z"/>
											<path fill="#662B14" d="M62.082,450.896c0.427,0.009,0.812-0.287,0.903-0.719c0.021-0.086,0.96-3.636,8.248-6.5
												c0.466-0.183,0.695-0.709,0.513-1.174c-0.184-0.466-0.709-0.694-1.175-0.512c-8.378,3.293-9.323,7.641-9.359,7.825
												c-0.097,0.49,0.222,0.966,0.714,1.062C61.978,450.89,62.03,450.896,62.082,450.896z"/>
											<path fill="#662B14" d="M59.835,452.146c-0.427-0.009-0.8-0.321-0.872-0.757c-0.018-0.088-0.805-3.673-7.965-6.844
												c-0.458-0.202-0.664-0.737-0.461-1.194c0.202-0.458,0.737-0.665,1.193-0.462c8.231,3.646,8.991,8.03,9.021,8.214
												c0.074,0.495-0.264,0.956-0.758,1.032C59.94,452.144,59.887,452.147,59.835,452.146z"/>
											
												<rect x="56.166" y="436.855" transform="matrix(-0.9998 -0.0214 0.0214 -0.9998 109.9964 898.7241)" fill="#B64C23" width="7.267" height="23.838"/>
											<polygon fill="#662B14" points="56.172,448.493 63.354,452.468 63.725,435.035 56.461,434.881 											"/>
											<path fill="#72C352" d="M32.743,425.528c0.062-2.925,1.699-5.443,4.084-6.77c1.433-11.77,11.582-20.769,23.69-20.511
												c11.915,0.253,21.55,9.383,22.74,20.939c2.958,1.204,5.016,4.134,4.943,7.517c-0.03,1.428-0.438,2.76-1.124,3.902
												c0.767,1.719,1.178,3.628,1.134,5.634c-0.153,7.267-6.17,13.032-13.438,12.878c-3.935-0.083-7.428-1.888-9.78-4.677
												c-1.759,0.382-3.59,0.57-5.467,0.53c-1.491-0.03-2.943-0.207-4.352-0.505c-2.458,2.552-5.934,4.109-9.755,4.029
												c-7.268-0.154-13.034-6.172-12.88-13.438c0.041-1.925,0.497-3.742,1.275-5.376
												C33.105,428.464,32.71,427.041,32.743,425.528z"/>
											<g>
												<path fill="#E16C23" d="M56.078,452.888c0.17-0.038,0.347-0.06,0.53-0.056c1.195,0.025,2.145,1.017,2.119,2.213
													l-0.114,5.42c-0.002,0.069-0.008,0.139-0.016,0.206l-2.684-0.058L56.078,452.888z"/>
												<path fill="#E16C23" d="M60.914,458.004L60.914,458.004c0.559,0.012,1.021-0.432,1.033-0.991l0.015-0.716
													c0.013-0.56-0.431-1.022-0.989-1.033l0,0c-0.56-0.012-1.022,0.431-1.034,0.99l-0.015,0.716
													C59.911,457.529,60.355,457.992,60.914,458.004z"/>
												<path fill="#E16C23" d="M57.445,451.952L57.445,451.952c0.4,0.009,0.731-0.308,0.74-0.709l0.011-0.512
													c0.008-0.401-0.31-0.731-0.709-0.74l0,0c-0.4-0.009-0.731,0.309-0.74,0.709l-0.011,0.513
													C56.728,451.612,57.046,451.945,57.445,451.952z"/>
												<path fill="#E16C23" d="M60.87,460.064L60.87,460.064c0.328,0.007,0.599-0.254,0.605-0.581l0.01-0.42
													c0.006-0.328-0.254-0.599-0.581-0.605l0,0c-0.327-0.007-0.599,0.252-0.606,0.579l-0.009,0.42
													C60.283,459.785,60.542,460.057,60.87,460.064z"/>
											</g>
											<g>
												<circle fill="#9FD163" cx="51.903" cy="413.763" r="1.533"/>
												<circle fill="#9FD163" cx="47.865" cy="409.526" r="1.084"/>
												<circle fill="#9FD163" cx="53.603" cy="405.925" r="2.664"/>
											</g>
										</g>
										<path fill="#409E38" d="M53.539,459.508c-0.126-0.265-0.195-0.561-0.188-0.873c0.023-1.074,0.911-1.925,1.984-1.902
											c0.236,0.006,0.461,0.055,0.67,0.137c0.48-1.229,1.686-2.089,3.081-2.059c1.314,0.027,2.425,0.834,2.908,1.968
											c0.32-0.156,0.681-0.242,1.06-0.235c1.27,0.027,2.275,1.077,2.248,2.345c-0.008,0.376-0.106,0.727-0.273,1.037
											c1.465,0.251,2.361,0.566,2.354,0.893c-0.015,0.683-3.979,1.151-8.858,1.048c-4.877-0.104-8.819-0.74-8.805-1.423
											C49.729,460.022,51.239,459.682,53.539,459.508z"/>
									</g>
								</g>
							</g>
						</g>
					</g>
					<g>
						<g>
							<defs>
								<rect id="SVGID_31_" x="245.613" y="442.573" width="110.47" height="82.417"/>
							</defs>
							<clipPath id="SVGID_10_">
								<use xlink:href="#SVGID_31_"  overflow="visible"/>
							</clipPath>
							<g clip-path="url(#SVGID_10_)">
								<g>
									<path fill="#406D3C" d="M397.092,480.803c0.169-6.637-14.892,3.264-14.687-2.489c0.205-5.754,12.413-9.792,10.781-17.238
										c-1.461-6.663,0.895-9.727,1.408-10.299c-0.537,0.549-3.44,3.109-10.201,2.201c-7.556-1.016-10.577,11.483-16.294,12.16
										c-5.718,0.678,2.912-15.146-3.688-14.433c-6.601,0.715-6.962,24.152-13.948,26.208c-6.986,2.055,2.937-25.312-8.957-19.773
										c-11.892,5.538-12.981,34.376-16.475,35.404c-3.494,1.028-1.004-13.659-8.332-13.616s-4.178,31.809-10.464,29.416
										c-3.893-8.679-17.807-13.852-6.769,7.35c9.273,17.812,5.257,29.974,3.735,33.407c-3.553,3.683-7.099,7.37-10.63,11.074
										c-0.535,0.562,0.334,1.35,0.881,0.811c3.892-3.84,7.753-7.711,11.596-11.599c4.299-2.034,15.621-5.657,32.61,1.479
										c22.036,9.26,15.737-4.183,6.769-7.35c-2.901-6.067,29.016-5.539,28.456-12.846c-0.559-7.306-14.991-3.619-14.254-7.185
										s29.389-7.021,33.931-19.328c4.543-12.308-21.916-0.17-20.442-7.301C373.594,489.725,396.923,487.438,397.092,480.803z"/>
								</g>
								<g>
									<path fill="#54AA52" d="M271.972,486.18c-0.049-0.049-0.077-0.082-0.077-0.082S271.927,486.13,271.972,486.18z"/>
									<path fill="#439140" d="M270.077,509.689c-0.128-5.032,11.295,2.476,11.14-1.888c-0.156-4.364-9.415-7.427-8.178-13.074
										c1.108-5.054-0.679-7.377-1.067-7.812c0.407,0.417,2.608,2.358,7.736,1.67c5.73-0.77,8.021,8.71,12.359,9.223
										c4.336,0.515-2.21-11.486,2.796-10.945c5.006,0.542,5.279,18.317,10.579,19.877c5.299,1.559-2.227-19.198,6.792-14.997
										c9.021,4.199,9.847,26.072,12.496,26.852s0.762-10.359,6.319-10.327c5.558,0.033,3.169,24.126,7.937,22.311
										c2.952-6.583,13.505-10.505,5.134,5.574c-7.034,13.511-3.987,22.734-2.834,25.338c2.695,2.792,5.385,5.59,8.062,8.399
										c0.406,0.426-0.253,1.023-0.667,0.614c-2.952-2.913-5.881-5.848-8.796-8.797c-3.261-1.543-11.848-4.29-24.732,1.123
										c-16.714,7.021-11.937-3.173-5.135-5.574c2.201-4.603-22.006-4.201-21.582-9.742c0.424-5.543,11.371-2.745,10.812-5.451
										c-0.56-2.704-22.29-5.324-25.735-14.659s16.623-0.128,15.506-5.537C287.899,516.457,270.205,514.723,270.077,509.689z"/>
								</g>
								<g>
									<path fill="#408338" d="M270.024,497.144c-0.014-0.044-0.021-0.072-0.021-0.072S270.013,497.1,270.024,497.144z"/>
									<path fill="#408338" d="M261.915,509.974c1.47-3.003,5.892,4.927,7.14,2.31c1.248-2.618-3.265-7.266-0.801-10.211
										c2.204-2.637,1.866-4.554,1.771-4.929c0.111,0.371,0.812,2.189,4.043,3.359c3.611,1.306,2.05,7.594,4.446,9.227
										c2.396,1.635,2.227-7.443,5.009-5.587c2.781,1.856-2.517,12.409,0.125,14.954c2.643,2.545,4.585-11.989,8.606-6.746
										c4.022,5.244-2.208,18.38-0.888,19.651c1.322,1.273,3.631-5.867,6.894-4.141c3.264,1.726-5.543,15.181-2.178,15.576
										c3.761-2.97,11.181-2.039,1.312,4.859c-8.291,5.797-9.33,12.165-9.449,14.053c0.729,2.472,1.454,4.945,2.168,7.422
										c0.108,0.376-0.464,0.525-0.582,0.157c-0.844-2.623-1.667-5.251-2.478-7.882c-1.446-1.91-5.66-6.166-14.911-6.935
										c-12-0.998-6.056-5.534-1.312-4.86c2.71-2.034-11.67-9.231-9.719-12.364c1.952-3.135,7.54,1.874,8.041,0.11
										s-11.492-9.981-10.654-16.537s9.829,5.029,10.831,1.501C270.333,519.432,260.444,512.978,261.915,509.974z"/>
								</g>
							</g>
						</g>
						<g>
							<defs>
								<rect id="SVGID_33_" x="-11.991" y="442.573" width="110.47" height="82.417"/>
							</defs>
							<clipPath id="SVGID_12_">
								<use xlink:href="#SVGID_33_"  overflow="visible"/>
							</clipPath>
							<g clip-path="url(#SVGID_12_)">
								<g>
									<path fill="#406D3C" d="M-53,480.803c-0.17-6.637,14.892,3.264,14.688-2.489c-0.206-5.754-12.414-9.792-10.782-17.238
										c1.461-6.663-0.896-9.727-1.408-10.299c0.537,0.549,3.44,3.109,10.201,2.201c7.556-1.016,10.577,11.483,16.294,12.16
										c5.718,0.678-2.912-15.146,3.688-14.433c6.601,0.715,6.962,24.152,13.948,26.208c6.986,2.055-2.937-25.312,8.956-19.773
										s12.982,34.376,16.476,35.404s1.004-13.659,8.332-13.616s4.178,31.809,10.464,29.416c3.893-8.679,17.806-13.852,6.77,7.35
										c-9.274,17.812-5.258,29.974-3.736,33.407c3.553,3.683,7.099,7.37,10.63,11.074c0.535,0.562-0.334,1.35-0.881,0.811
										c-3.892-3.84-7.753-7.711-11.596-11.599c-4.299-2.034-15.622-5.657-32.61,1.479c-22.036,9.26-15.737-4.183-6.769-7.35
										c2.902-6.067-29.016-5.539-28.456-12.846c0.559-7.306,14.991-3.619,14.254-7.185s-29.389-7.021-33.931-19.328
										c-4.543-12.308,21.917-0.17,20.442-7.301C-29.502,489.725-52.832,487.438-53,480.803z"/>
								</g>
								<g>
									<path fill="#54AA52" d="M72.12,486.18c0.048-0.049,0.077-0.082,0.077-0.082S72.165,486.13,72.12,486.18z"/>
									<path fill="#439140" d="M74.015,509.689c0.128-5.032-11.295,2.476-11.14-1.888c0.156-4.364,9.416-7.427,8.178-13.074
										c-1.108-5.054,0.679-7.377,1.067-7.812c-0.407,0.417-2.608,2.358-7.737,1.67c-5.729-0.77-8.021,8.71-12.357,9.223
										c-4.337,0.515,2.209-11.486-2.797-10.945c-5.006,0.542-5.279,18.317-10.579,19.877c-5.299,1.559,2.227-19.198-6.792-14.997
										c-9.02,4.199-9.847,26.072-12.496,26.852c-2.65,0.779-0.762-10.359-6.319-10.327c-5.558,0.033-3.169,24.126-7.937,22.311
										c-2.952-6.583-13.505-10.505-5.134,5.574c7.033,13.511,3.987,22.734,2.833,25.338c-2.694,2.792-5.384,5.59-8.062,8.399
										c-0.406,0.426,0.253,1.023,0.667,0.614c2.952-2.913,5.881-5.848,8.795-8.797c3.262-1.543,11.849-4.29,24.733,1.123
										c16.714,7.021,11.937-3.173,5.134-5.574c-2.201-4.603,22.007-4.201,21.583-9.742c-0.424-5.543-11.371-2.745-10.812-5.451
										c0.559-2.704,22.289-5.324,25.735-14.659c3.444-9.335-16.623-0.128-15.505-5.537S73.887,514.723,74.015,509.689z"/>
								</g>
								<g>
									<path fill="#408338" d="M74.067,497.144c0.014-0.044,0.021-0.072,0.021-0.072S74.079,497.1,74.067,497.144z"/>
									<path fill="#408338" d="M82.177,509.974c-1.47-3.003-5.891,4.927-7.14,2.31c-1.248-2.618,3.265-7.266,0.801-10.211
										c-2.204-2.637-1.866-4.554-1.771-4.929c-0.111,0.371-0.812,2.189-4.043,3.359c-3.611,1.306-2.05,7.594-4.445,9.227
										c-2.396,1.635-2.228-7.443-5.01-5.587c-2.781,1.856,2.517,12.409-0.125,14.954c-2.643,2.545-4.585-11.989-8.606-6.746
										c-4.022,5.244,2.208,18.38,0.888,19.651c-1.322,1.273-3.631-5.867-6.894-4.141c-3.264,1.726,5.543,15.181,2.177,15.576
										c-3.76-2.97-11.179-2.039-1.311,4.859c8.291,5.797,9.329,12.165,9.45,14.053c-0.73,2.472-1.455,4.945-2.17,7.422
										c-0.107,0.376,0.465,0.525,0.583,0.157c0.844-2.623,1.667-5.251,2.478-7.882c1.446-1.91,5.66-6.166,14.911-6.935
										c11.999-0.998,6.056-5.534,1.311-4.86c-2.708-2.034,11.671-9.231,9.72-12.364c-1.952-3.135-7.54,1.874-8.041,0.11
										s11.492-9.981,10.654-16.537s-9.829,5.029-10.832,1.501C73.759,519.432,83.647,512.978,82.177,509.974z"/>
								</g>
							</g>
						</g>
					</g>
					<g>
						<g>
							<g>
								<g>
									<path fill="#FFD623" d="M254.287,453.637c0,0-64.897-64.045-82.202-100.852c-17.307,36.807-82.204,100.852-82.204,100.852
										H254.287z"/>
									<path fill="#FFB023" d="M232.694,453.637c0,0-47.85-64.045-60.609-100.852c-12.761,36.807-60.61,100.852-60.61,100.852
										H232.694z"/>
									<path fill="#956323" d="M182.759,453.637c0,0-8.427-41.762-10.674-65.763c-2.247,24.001-10.675,65.763-10.675,65.763
										H182.759z"/>
									<path fill="#F09A23" d="M172.085,352.785c0,0-0.736,54.953,30.918,97.282l-20.244,3.569
										C182.759,453.637,166.932,382.118,172.085,352.785z"/>
									<path fill="#F09A23" d="M172.341,352.785c0,0,0.736,54.953-30.918,97.282l20.244,3.569
										C161.667,453.637,177.494,382.118,172.341,352.785z"/>
									<path fill="#FFFF77" d="M184.783,370.269c0,0-10.025-11.629-12.698-18.313c-2.674,6.685-12.699,18.313-12.699,18.313
										H184.783z"/>
								</g>
								<path fill="none" stroke="#FFEA77" stroke-linecap="round" stroke-linejoin="round" stroke-miterlimit="10" d="
									M172.085,351.955c0,0,72.445,88.702,159.337,106.229"/>
								<path fill="none" stroke="#FFEA77" stroke-linecap="round" stroke-linejoin="round" stroke-miterlimit="10" d="
									M172.788,351.955c0,0-70.282,88.518-157.174,106.046"/>
							</g>
							<path fill="#88A727" d="M175.294,452.266c-62.915,0-121.914,1.97-172.808,5.412c35.332,2.005,102.222,3.359,178.933,3.359
								c71.949,0,135.255-1.19,171.99-2.994C301.329,454.375,240.408,452.266,175.294,452.266z"/>
						</g>
						<g>
							<ellipse opacity="0.23" fill="#408338" cx="175.788" cy="475.424" rx="61.652" ry="2.085"/>
							<g>
								<g>
									<g>
										<path fill="#815C34" d="M184.848,468.921c-3.388,0-6.135,2.746-6.135,6.135h6.135h6.135h31.399v-6.135H184.848z"/>
										<path fill="#EDDBA9" d="M215.767,475.056c0-3.389,2.746-6.135,6.134-6.135c3.389,0,6.135,2.746,6.135,6.135H215.767z"/>
										<path fill="#B86A34" d="M214.677,471.129h-20.06c-0.263,0-0.476-0.213-0.476-0.476l0,0c0-0.262,0.213-0.475,0.476-0.475
											h20.06c0.263,0,0.476,0.213,0.476,0.475l0,0C215.152,470.916,214.939,471.129,214.677,471.129z"/>
										<path fill="#B86A34" d="M203.179,473.338h-20.06c-0.263,0-0.476-0.213-0.476-0.476l0,0c0-0.262,0.213-0.475,0.476-0.475
											h20.06c0.263,0,0.476,0.213,0.476,0.475l0,0C203.654,473.125,203.441,473.338,203.179,473.338z"/>
									</g>
									<g>
										<path fill="#815C34" d="M169.556,468.921c-3.388,0-6.135,2.746-6.135,6.135h6.135h6.135h31.4v-6.135H169.556z"/>
										<path fill="#EDDBA9" d="M200.474,475.056c0-3.389,2.747-6.135,6.136-6.135c3.388,0,6.134,2.746,6.134,6.135H200.474z"/>
										<path fill="#B86A34" d="M199.386,471.129h-20.061c-0.262,0-0.476-0.213-0.476-0.476l0,0c0-0.262,0.214-0.475,0.476-0.475
											h20.061c0.262,0,0.475,0.213,0.475,0.475l0,0C199.86,470.916,199.647,471.129,199.386,471.129z"/>
										<path fill="#B86A34" d="M187.888,473.338h-20.061c-0.263,0-0.476-0.213-0.476-0.476l0,0c0-0.262,0.213-0.475,0.476-0.475
											h20.061c0.262,0,0.475,0.213,0.475,0.475l0,0C188.362,473.125,188.149,473.338,187.888,473.338z"/>
									</g>
								</g>
								<g>
									<g>
										<path fill="#815C34" d="M166.87,468.921c3.389,0,6.135,2.746,6.135,6.135h-6.135h-6.134h-31.4v-6.135H166.87z"/>
										<path fill="#EDDBA9" d="M135.952,475.056c0-3.389-2.747-6.135-6.134-6.135c-3.39,0-6.136,2.746-6.136,6.135H135.952z"/>
										<path fill="#B86A34" d="M137.041,471.129h20.061c0.262,0,0.476-0.213,0.476-0.476l0,0c0-0.262-0.214-0.475-0.476-0.475
											h-20.061c-0.263,0-0.476,0.213-0.476,0.475l0,0C136.565,470.916,136.778,471.129,137.041,471.129z"/>
										<path fill="#B86A34" d="M148.539,473.338H168.6c0.262,0,0.475-0.213,0.475-0.476l0,0c0-0.262-0.213-0.475-0.475-0.475
											h-20.061c-0.263,0-0.476,0.213-0.476,0.475l0,0C148.063,473.125,148.276,473.338,148.539,473.338z"/>
									</g>
									<g>
										<path fill="#815C34" d="M182.162,468.921c3.389,0,6.135,2.746,6.135,6.135h-6.135h-6.135h-31.4v-6.135H182.162z"/>
										<path fill="#EDDBA9" d="M151.244,475.056c0-3.389-2.746-6.135-6.136-6.135c-3.387,0-6.134,2.746-6.134,6.135H151.244z"/>
										<path fill="#B86A34" d="M152.332,471.129h20.061c0.263,0,0.476-0.213,0.476-0.476l0,0c0-0.262-0.213-0.475-0.476-0.475
											h-20.061c-0.262,0-0.475,0.213-0.475,0.475l0,0C151.857,470.916,152.07,471.129,152.332,471.129z"/>
										<path fill="#B86A34" d="M163.83,473.338h20.061c0.263,0,0.476-0.213,0.476-0.476l0,0c0-0.262-0.213-0.475-0.476-0.475
											H163.83c-0.262,0-0.475,0.213-0.475,0.475l0,0C163.355,473.125,163.568,473.338,163.83,473.338z"/>
									</g>
								</g>
							</g>
							<path fill="#FFED23" d="M174.823,473.216c9.104,0,16.798-1.811,19.318-4.295h-13.617h-2.162H168.21h-2.162h-10.544
								C158.023,471.405,165.718,473.216,174.823,473.216z"/>
							<g>
								<g>
									<path fill="#FFED23" d="M174.422,469.08c0,0-14.473,2.721-16.493-10.912c-2.022-13.634,14.151-15.312,11.31-28.109
										c0,0,3.656,3.567,2.61,8.393c-1.047,4.825,3.678,5.245,5.407,1.888c1.729-3.357-1.159-10.7-4.121-14.896
										s-2.567-7.973-2.567-7.973s2.157,5.836,5.393,6.8c3.234,0.963,11.788,8.526,11.078,15.444
										c-0.711,6.917,1.038,10.064,3.625,9.435c2.587-0.628,2.322-9.021,2.322-9.021s4.27,8.393,2.896,14.476
										C194.509,460.689,189.999,472.018,174.422,469.08z"/>
									<path fill="#FF8D12" d="M173.947,468.307c0,0-6.992-0.184-8.097-7.545s4.785-8.466,5.153-13.435
										c0,0,1.839,2.576,1.104,5.705c-0.735,3.128,0.735,3.312,2.944,3.312c2.208,0,5.521-5.153,4.417-10.122
										c0,0,5.337,4.601,4.784,11.41C183.701,464.442,179.284,468.675,173.947,468.307z"/>
								</g>
								<circle fill="#FFED23" cx="188.486" cy="430.15" r="1.595"/>
								<circle fill="#FFED23" cx="154.992" cy="446.591" r="1.595"/>
								<circle fill="#FFED23" cx="197.934" cy="438.371" r="0.981"/>
								<circle fill="#FFED23" cx="176.586" cy="417.758" r="0.982"/>
								<circle fill="#FFED23" cx="184.929" cy="415.059" r="0.506"/>
								<circle fill="#FFED23" cx="160.636" cy="438.248" r="0.505"/>
							</g>
						</g>
					</g>
				</g>
			</g>
			<path clip-path="url(#SVGID_3_)" fill="#FFFFFF" d="M307.396,42.592H166.251c0,0,13.14-4.744,29.65-2.372
				c-2.384-11.234,43.515-19.405,45.588-3.063c13.309-3.575,17.72,2.553,17.72,2.553S277.778,34.751,307.396,42.592z"/>
			<path clip-path="url(#SVGID_3_)" fill="#FFFFFF" d="M74.396,157.592H-40.749c0,0,10.719-4.744,24.188-2.372
				c-1.944-11.234,35.499-19.405,37.19-3.063c10.856-3.575,14.455,2.553,14.455,2.553S50.234,149.751,74.396,157.592z"/>
			<path clip-path="url(#SVGID_3_)" fill="#FFFFFF" d="M154.273,62.524H79.485c0,0,8.09-3.063,18.49-2.553
				c1.209-9.192,20.861-11.86,16.908-0.058C127.271,55.886,154.273,62.524,154.273,62.524z"/>
		</g>
		<g>
			<g>
				<g>
					<path fill="#007E87" d="M163.244,124.261c0,0.424,0.351,0.778,0.784,0.778c0.432,0,0.781-0.354,0.781-0.778
						c0-0.432-0.35-0.779-0.781-0.779C163.595,123.481,163.244,123.829,163.244,124.261z"/>
					<path fill="#007E87" d="M173.022,112.188c0.429,0,0.778-0.351,0.778-0.779c0-0.429-0.35-0.784-0.778-0.784
						c-0.433,0-0.786,0.355-0.786,0.784C172.236,111.837,172.59,112.188,173.022,112.188z"/>
					<path fill="#007E87" d="M166.715,124.764c0.2,0,0.38-0.09,0.495-0.248c0.224-0.278,0.173-0.683-0.096-0.894l-2.814-2.202
						c-0.121-0.085-0.258-0.132-0.394-0.132c-0.198,0-0.385,0.088-0.51,0.245c-0.104,0.14-0.152,0.302-0.137,0.47
						c0.024,0.174,0.116,0.323,0.252,0.431l2.809,2.196C166.433,124.715,166.574,124.764,166.715,124.764z"/>
					<path fill="#007E87" d="M173.163,105.727c0.433,0,0.785-0.355,0.785-0.78c0-0.433-0.353-0.782-0.785-0.782
						c-0.422,0-0.776,0.35-0.776,0.782C172.387,105.372,172.741,105.727,173.163,105.727z"/>
					<path fill="#007E87" d="M161.37,128.028c0-0.433-0.355-0.785-0.783-0.785c-0.442,0-0.778,0.352-0.778,0.785
						c0,0.427,0.336,0.776,0.778,0.776C161.015,128.804,161.37,128.455,161.37,128.028z"/>
					<path fill="#007E87" d="M166.297,119.805c0-0.433-0.356-0.785-0.782-0.785c-0.433,0-0.788,0.352-0.788,0.785
						c0,0.432,0.355,0.775,0.788,0.775C165.94,120.581,166.297,120.237,166.297,119.805z"/>
					<path fill="#007E87" d="M171.798,106.674c-0.424,0-0.777,0.356-0.777,0.787c0,0.425,0.354,0.781,0.777,0.781
						c0.429,0,0.783-0.355,0.783-0.781C172.581,107.031,172.227,106.674,171.798,106.674z"/>
					<path fill="#007E87" d="M141.911,148.487l0.049-0.018c1.161-0.405,2.139-0.986,2.9-1.714c1.069-1.031,1.77-2.425,2.07-4.149
						l0.011-0.048c0-0.004-0.006-0.019-0.011-0.021c-0.005-0.008-0.019-0.005-0.024,0.002l-0.039,0.031
						c-0.836,0.716-1.759,1.354-2.75,1.881c0,0.003,0,0.005,0,0.008l-2.226,3.994c0,0.01,0,0.023,0,0.032
						c0.006,0,0.01,0.005,0.015,0.005C141.906,148.49,141.911,148.49,141.911,148.487z"/>
					<path fill="#007E87" d="M154.362,135.938c-0.011,0.005-0.011,0.01-0.011,0.015c0,0.003,0,0.011,0,0.021l0.011,0.016
						c0.572,0.935,1.282,1.722,2.127,2.34v0.005c0.006,0.001,0.006,0.001,0.02,0.001l0,0l0.016-0.005
						c3.664-1.647,9.5-3.702,16.538-4.157l0.014-0.003c0.011,0,0.024-0.007,0.024-0.019v-0.037c0-0.081,0-0.168,0-0.262
						c0-1.39,1.084-2.522,2.416-2.522c0.033,0,0.062,0,0.109,0.005c0.026-0.005,0.065-0.005,0.098-0.005
						c1.337,0,2.417,1.132,2.417,2.522c0,0.061,0,0.116,0,0.181v0.089c0,0.013,0.015,0.024,0.021,0.024l0.017,0.002
						c5.287,0.286,10.386,1.599,15.147,3.881l0.016,0.005c0.005,0.002,0.009,0.002,0.014-0.005h0.011
						c0.955-0.554,1.811-1.256,2.552-2.099l0.013-0.02c0.006-0.008,0.006-0.011,0.006-0.018c0-0.01-0.006-0.017-0.01-0.019
						l-0.024-0.008c-4.389-2.267-9.05-3.763-13.86-4.432c-0.092-2.736-0.938-5.287-2.371-7.188c-1.438-1.915-3.334-2.973-5.32-2.973
						c-2.07,0-4.01,1.115-5.464,3.136c-1.443,2.007-2.249,4.681-2.259,7.525c-5.316,1.036-9.589,2.744-12.243,3.998L154.362,135.938
						z"/>
					<path fill="#007E87" d="M158.41,132.163c0-0.43-0.351-0.782-0.783-0.782c-0.429,0-0.782,0.352-0.782,0.782
						c0,0.432,0.354,0.783,0.782,0.783C158.06,132.945,158.41,132.595,158.41,132.163z"/>
					<path fill="#007E87" d="M159.62,130.48c0.023,0.346,0.3,0.62,0.647,0.62h0.019c0.005,0,0.005,0,0.005,0l4.228-0.129
						c0.17-0.001,0.325-0.075,0.442-0.2c0.111-0.124,0.184-0.286,0.174-0.458c-0.014-0.342-0.295-0.619-0.654-0.619l-4.229,0.124
						C159.902,129.83,159.615,130.127,159.62,130.48z"/>
					<path fill="#007E87" d="M136.779,157.721l0.043-0.018c0.321-0.133,0.663-0.202,0.997-0.202c0.047,0,0.096,0.003,0.131,0.003
						c0.044,0.001,0.086,0.001,0.161,0.001c0.393,0,1.832-0.037,3.43-0.526l0.006-0.003c0.004,0,0.004-0.009,0.011-0.01l1.841-3.313
						c0.009-0.004,0.009-0.015,0-0.021c0-0.005-0.015-0.014-0.021-0.005l-0.048,0.011c-2.017,0.655-3.854,0.797-4.762,0.829h-0.01
						c-0.02,0-0.02,0.005-0.02,0.015l-1.795,3.214c0,0.004,0,0.014,0.012,0.021c0,0.003,0.01,0.003,0.01,0.003
						C136.774,157.721,136.774,157.721,136.779,157.721z"/>
					<path fill="#007E87" d="M186.451,120.099c0-0.43-0.343-0.777-0.773-0.777c-0.433,0-0.787,0.347-0.787,0.777
						c0,0.433,0.354,0.783,0.787,0.783C186.108,120.881,186.451,120.531,186.451,120.099z"/>
					<path fill="#007E87" d="M152.708,129.085c0,2.233,0.36,4.181,1.07,5.784l0.015,0.037c0.005,0.004,0.019,0.012,0.019,0.008
						c0.016,0,0.02-0.004,0.025-0.008l4.976-8.947l6.27,1.878c0.067,0.018,0.126,0.025,0.191,0.025c0.285,0,0.522-0.179,0.606-0.457
						c0.047-0.166,0.038-0.338-0.04-0.489c-0.083-0.152-0.224-0.258-0.384-0.311l-6.006-1.793l5.685-10.208l3.183,7.573
						c0.104,0.239,0.331,0.391,0.585,0.391c0.082,0,0.18-0.015,0.247-0.05c0.336-0.134,0.486-0.513,0.351-0.836l-3.242-7.706
						c-0.092-0.228-0.307-0.375-0.564-0.391l2.718-4.865l2.789,11.455c0.068,0.291,0.33,0.493,0.621,0.493
						c0.06,0,0.108-0.006,0.156-0.017c0.165-0.042,0.303-0.144,0.398-0.292c0.083-0.149,0.113-0.323,0.068-0.486l-3.094-12.695
						c-0.007-0.028-0.011-0.062-0.026-0.099l4.929-8.869l0.059,21.531c0,0.349,0.287,0.637,0.642,0.637
						c0.355-0.002,0.64-0.289,0.64-0.641l-0.058-21.906l5.563,9.99c0,0.002,0,0.002,0,0.004l-3.435,12.83
						c-0.093,0.343,0.111,0.695,0.461,0.79c0.048,0.011,0.107,0.016,0.161,0.016c0.291,0,0.54-0.194,0.616-0.472l3.087-11.553
						l2.688,4.821c-0.068-0.023-0.137-0.034-0.205-0.034c-0.242,0-0.467,0.136-0.573,0.357l-3.794,7.586
						c-0.08,0.153-0.089,0.328-0.045,0.487c0.059,0.164,0.171,0.293,0.322,0.373c0.096,0.045,0.198,0.065,0.291,0.065
						c0.237,0,0.461-0.13,0.572-0.352l3.802-7.591c0.023-0.046,0.038-0.095,0.042-0.141l5.116,9.183l-7.138,2.167
						c-0.346,0.103-0.529,0.463-0.429,0.8c0.083,0.267,0.329,0.455,0.608,0.455c0.064,0,0.127-0.008,0.185-0.026l7.416-2.25
						l5.527,9.938l0.009,0.02c0.01,0.005,0.014,0.014,0.018,0.014l0,0c0.006,0,0.01-0.002,0.017-0.012l0.019-0.02
						c0.895-1.209,1.556-2.651,1.954-4.277v-0.004c0-0.002,0-0.008,0-0.012l-21.188-38.07l3.762-6.751
						c0.248-0.453,0.312-0.974,0.17-1.467c-0.146-0.493-0.47-0.902-0.92-1.158c-0.281-0.157-0.607-0.24-0.928-0.24
						c-0.704,0-1.35,0.379-1.68,0.992l-24.898,44.713c0,0.005,0,0.016,0,0.017c0,0.013,0,0.022,0,0.032
						C152.708,129.062,152.708,129.073,152.708,129.085z"/>
					<path fill="#007E87" d="M167.731,113.939c0,0.43,0.35,0.782,0.771,0.782c0.437,0,0.782-0.353,0.782-0.782
						c0-0.429-0.346-0.78-0.782-0.78C168.081,113.159,167.731,113.51,167.731,113.939z"/>
					<path fill="#007E87" d="M182.49,115.035c0-0.428-0.349-0.775-0.778-0.775c-0.433,0-0.773,0.348-0.773,0.775
						c0,0.433,0.341,0.783,0.773,0.783C182.142,115.818,182.49,115.468,182.49,115.035z"/>
					<path fill="#007E87" d="M171.959,91.405c0.005,0.005,0.005,0.006,0.019,0.006l0,0c0.005,0,0.014-0.001,0.014-0.006l0.017-0.03
						c0.771-1.431,1.481-2.612,2.255-3.707l0.009-0.01c0.005-0.005,0.005-0.017,0-0.022l-1.876-3.345
						c-0.33-0.613-0.975-0.992-1.681-0.992c-0.321,0-0.646,0.083-0.929,0.24c-0.927,0.524-1.263,1.694-0.748,2.625L171.959,91.405z"
						/>
					<path fill="#007E87" d="M225.012,165.728h-5.796c-0.021,0-0.026,0.002-0.03,0.006c-0.01,0.008-0.01,0.02,0,0.025l2.112,3.796
						l0.006,0.01c0.005,0.004,0.01,0.01,0.015,0.01h3.693c1.061,0,1.923-0.865,1.923-1.925
						C226.935,166.586,226.072,165.728,225.012,165.728z"/>
					<path fill="#007E87" d="M136.633,165.82l1.623-2.916l0.016-0.026c0.004-0.009,0.004-0.016,0-0.024
						c-0.01-0.006-0.016-0.008-0.024-0.008l0,0h-0.024c-0.263,0.005-0.429-0.008-0.495-0.008l-0.01-0.002
						c-1.239-0.059-2.309-0.991-2.522-2.209l-0.005-0.054c-0.005-0.001-0.005-0.012-0.021-0.014
						c-0.014-0.006-0.014,0.003-0.023,0.012l-6.901,12.405c-0.515,0.926-0.19,2.099,0.738,2.621c0.296,0.16,0.618,0.242,0.938,0.242
						c0.7,0,1.342-0.38,1.687-0.987l2.877-5.177h81.031l2.881,5.177c0.341,0.607,0.981,0.987,1.682,0.987
						c0.321,0,0.652-0.082,0.939-0.242c0.926-0.521,1.256-1.694,0.737-2.621l-6.026-10.842l-0.01-0.013
						c-0.005-0.007-0.025-0.016-0.025-0.007l-0.018,0.007c-0.328,0.153-0.676,0.237-1.031,0.258
						c-0.053,0.001-0.194,0.006-0.422,0.006c-0.494,0-1.536-0.031-2.824-0.239l-0.043-0.007c0,0-0.011,0.001-0.015,0.009
						c-0.005,0.01-0.005,0.015,0,0.021l2.026,3.65H136.633z"/>
					<path fill="#007E87" d="M128.698,169.565l2.107-3.785l0.011-0.021c0.01-0.005,0.01-0.017,0-0.025
						c0-0.003-0.011-0.006-0.021-0.006h-5.806c-1.06,0-1.925,0.858-1.925,1.922c0,1.06,0.865,1.925,1.925,1.925h3.692
						C128.688,169.575,128.692,169.569,128.698,169.565z"/>
					<path fill="#007E87" d="M181.95,124.018c-0.146,0.105-0.238,0.253-0.27,0.423c-0.016,0.168,0.021,0.337,0.124,0.474
						c0.116,0.165,0.311,0.262,0.515,0.262c0.143,0,0.268-0.042,0.379-0.122l2.881-2.105c0.139-0.101,0.229-0.249,0.254-0.418
						c0.023-0.17-0.011-0.337-0.115-0.474c-0.119-0.166-0.317-0.263-0.511-0.263c-0.137,0-0.274,0.042-0.382,0.122L181.95,124.018z"
						/>
					<path fill="#007E87" d="M177.619,107.019c-0.421,0-0.769,0.352-0.769,0.786c0,0.427,0.348,0.779,0.769,0.779
						c0.443,0,0.789-0.353,0.789-0.779C178.408,107.371,178.062,107.019,177.619,107.019z"/>
					<path fill="#007E87" d="M210.748,153.219h-0.006c-2.049-0.41-3.9-1.122-5.485-2.123l-0.053-0.039
						c-0.004-0.004-0.029-0.004-0.033,0.002c-0.008,0.005-0.008,0.02,0,0.028l1.708,3.07c0,0.004,0.017,0.006,0.017,0.006
						c0.01,0.014,0.012,0.028,0.029,0.04l0.013,0.021c0.045,0.044,0.089,0.084,0.133,0.131c1.68,1.608,3.971,2.201,5.604,2.412
						l0.032,0.004l0,0c0.01,0,0.015-0.002,0.015-0.008c0.009-0.006,0.009-0.019,0.006-0.023l-1.944-3.507l-0.014-0.007
						C210.769,153.224,210.765,153.219,210.748,153.219z"/>
					<path fill="#007E87" d="M184.085,128.702c-0.347,0-0.63,0.272-0.643,0.621c-0.011,0.348,0.263,0.649,0.626,0.661l6.645,0.22
						c0.014,0,0.018,0,0.023,0c0.355,0,0.631-0.271,0.643-0.618c0.014-0.355-0.269-0.652-0.624-0.662l-6.646-0.222H184.085z"/>
					<path fill="#007E87" d="M176.964,111.917c0,0.429,0.355,0.783,0.773,0.783c0.436,0,0.787-0.354,0.787-0.783
						c0-0.427-0.352-0.778-0.787-0.778C177.319,111.138,176.964,111.49,176.964,111.917z"/>
					<path fill="#007E87" d="M190.839,131.54c0,0.435,0.345,0.787,0.777,0.787c0.429,0,0.782-0.352,0.782-0.787
						c0-0.43-0.354-0.779-0.782-0.779C191.184,130.761,190.839,131.11,190.839,131.54z"/>
					<path fill="#007E87" d="M188.55,127.689c0-0.427-0.354-0.774-0.783-0.774c-0.43,0-0.777,0.347-0.777,0.774
						c0,0.433,0.348,0.783,0.777,0.783C188.195,128.472,188.55,128.122,188.55,127.689z"/>
				</g>
				<path fill="#00A7A5" d="M148.234,165.82V157.8l-0.92,0.786c-3.421,2.912-7.92,3.137-9.217,3.137
					c-0.157,0-0.263-0.002-0.327-0.007c-0.418-0.018-0.808-0.198-1.089-0.503c-0.278-0.311-0.418-0.705-0.408-1.116
					c0.044-0.811,0.738-1.471,1.546-1.471c0.029,0,0.047,0,0.096,0c0.007,0.002,0.063,0.004,0.196,0.004
					c0.776,0,4.834-0.131,7.521-2.696c1.309-1.254,2.139-2.961,2.45-5.082l0.203-1.441l-1.116,0.928
					c-3.401,2.8-7.796,3.017-9.059,3.017c-0.171,0-0.276-0.003-0.364-0.005c-0.856-0.047-1.508-0.767-1.474-1.615
					c0.044-0.805,0.745-1.477,1.541-1.477c0.023,0,0.052,0,0.079,0h0.013c0.034,0.003,0.092,0.003,0.184,0.003
					c0.795,0,4.861-0.133,7.543-2.698c1.609-1.538,2.474-3.723,2.581-6.502l0.062-1.509l-1.029,1.103
					c-2.857,3.062-6.19,3.859-6.337,3.891c-0.097,0.023-0.219,0.039-0.331,0.039c-0.729,0-1.346-0.501-1.506-1.216
					c-0.186-0.829,0.34-1.651,1.171-1.847c0.321-0.074,7.99-1.951,7.99-12.437c0-0.856,0.699-1.548,1.55-1.548
					c0.011,0,0.034,0.002,0.062,0.005l0.063,0.007l0.068-0.007c0.028-0.002,0.049-0.005,0.067-0.005c0.85,0,1.547,0.692,1.547,1.548
					c0,10.373,7.23,11.573,7.541,11.619c0.841,0.119,1.435,0.9,1.312,1.74c-0.096,0.765-0.757,1.341-1.53,1.341
					c-0.073,0-0.14-0.005-0.215-0.016c-0.136-0.016-3.347-0.509-6.146-3.309l-0.992-0.994l0.034,1.403
					c0.083,2.869,0.952,5.118,2.595,6.693c2.683,2.565,6.761,2.698,7.548,2.698c0.108,0,0.165,0,0.175,0l0.062-0.003
					c0.841,0,1.535,0.644,1.575,1.465c0.019,0.415-0.122,0.812-0.403,1.118c-0.272,0.303-0.647,0.487-1.031,0.506l-0.068,0.002
					c-0.014,0-0.121,0.005-0.335,0.005c-1.269,0-5.66-0.217-9.052-3.017l-1.123-0.925l0.207,1.44
					c0.312,2.119,1.139,3.826,2.445,5.08c2.688,2.565,6.749,2.696,7.537,2.696c0.092,0,0.155-0.001,0.186-0.004h0.054
					c0.85,0,1.544,0.645,1.584,1.47c0.019,0.411-0.122,0.805-0.403,1.115c-0.272,0.306-0.651,0.483-1.06,0.505h-0.04
					c-0.081,0.007-0.188,0.01-0.335,0.01c-1.288,0-5.782-0.226-9.2-3.14l-0.921-0.786v8.021H148.234z M177.016,165.82v-5.847
					l0.93,0.83c2.844,2.521,6.491,2.718,7.537,2.718c0.074,0,0.214,0,0.298-0.007c0.708-0.043,1.263-0.7,1.234-1.467
					c-0.035-0.728-0.62-1.337-1.293-1.337l-0.049,0.004c-0.064,0.003-0.111,0.003-0.19,0.003c-0.646,0-4.047-0.12-6.293-2.458
					c-1.06-1.101-1.735-2.588-2.017-4.427l-0.231-1.489l1.148,0.978c2.814,2.41,6.382,2.595,7.393,2.595
					c0.152,0,0.248-0.006,0.294-0.012h0.017c0.705-0.04,1.25-0.693,1.222-1.464c-0.035-0.735-0.611-1.337-1.297-1.337l-0.045,0.004
					c-0.024,0-0.079,0.003-0.177,0.003c-0.649,0-4.061-0.12-6.307-2.458c-1.301-1.354-2.025-3.274-2.152-5.696l-0.078-1.583
					l1.055,1.179c2.343,2.608,5.03,3.326,5.142,3.358c0.082,0.016,0.179,0.03,0.269,0.03c0.605,0,1.128-0.453,1.253-1.1
					c0.155-0.748-0.283-1.5-0.981-1.673c-0.267-0.068-6.68-1.762-6.68-11.314c0-0.374-0.134-0.728-0.376-0.989
					c-0.235-0.265-0.566-0.411-0.916-0.411l0,0l-0.071,0.008l-0.103-0.005l-0.01-0.003c-0.012,0-0.014-0.005-0.023-0.005
					c-0.715,0-1.287,0.635-1.287,1.405c0,9.456-6.051,10.526-6.305,10.567c-0.715,0.11-1.195,0.818-1.104,1.582
					c0.094,0.756,0.74,1.306,1.449,1.201c0.111-0.019,2.721-0.508,4.976-2.848l1.025-1.054l-0.058,1.464
					c-0.094,2.514-0.827,4.493-2.157,5.887c-2.251,2.337-5.657,2.458-6.328,2.458c-0.103,0-0.146-0.003-0.165-0.003l-0.04-0.004
					c-0.689,0.004-1.262,0.586-1.296,1.332c-0.035,0.773,0.519,1.429,1.234,1.469h0.02c0.047,0.006,0.14,0.009,0.271,0.009
					c1.02,0,4.582-0.188,7.396-2.592l1.145-0.978l-0.226,1.489c-0.276,1.838-0.956,3.326-2.011,4.427
					c-2.255,2.339-5.647,2.458-6.304,2.458c-0.102,0-0.146-0.003-0.16-0.003h-0.049c-0.7,0-1.282,0.583-1.316,1.33
					c-0.035,0.766,0.515,1.426,1.217,1.469c0.07,0.002,0.163,0.007,0.309,0.007c1.049,0,4.704-0.197,7.532-2.718l0.944-0.83v5.847
					H177.016z M203.531,165.82v-8.693l0.953,0.813c3.602,3.083,8.359,3.32,9.739,3.32c0.137,0,0.271-0.002,0.363-0.003
					c0.441-0.022,0.832-0.214,1.128-0.536c0.291-0.326,0.443-0.74,0.417-1.175c-0.042-0.871-0.775-1.553-1.669-1.553h-0.045
					c-0.03,0.004-0.088,0.009-0.215,0.009c-0.821,0-5.103-0.14-7.925-2.845c-1.395-1.332-2.261-3.152-2.587-5.408l-0.208-1.453
					l1.142,0.95c3.587,2.972,8.243,3.204,9.578,3.204c0.145,0,0.264-0.003,0.38-0.008c0.445-0.022,0.836-0.213,1.132-0.534
					c0.291-0.325,0.443-0.74,0.417-1.171c-0.042-0.873-0.766-1.556-1.656-1.556l-0.062,0.005c0,0,0,0-0.006,0
					c-0.009,0-0.078,0.002-0.185,0.002c-0.832,0-5.123-0.138-7.945-2.841c-1.745-1.669-2.663-4.057-2.738-7.102l-0.033-1.427
					l1.016,1.018c2.986,2.996,6.479,3.514,6.508,3.524c0.072,0.007,0.134,0.008,0.214,0.008c0.817,0,1.511-0.606,1.628-1.413
					c0.116-0.89-0.51-1.708-1.391-1.829c-0.319-0.055-7.95-1.359-7.95-12.243c0-0.902-0.727-1.631-1.628-1.631
					c-0.023,0-0.039,0-0.071,0.003l-0.064,0.01l-0.063-0.01c-0.025,0-0.048-0.003-0.073-0.003c-0.908,0-1.637,0.729-1.637,1.631
					c0,11.017-8.077,13.022-8.407,13.101c-0.874,0.206-1.438,1.073-1.245,1.948c0.166,0.75,0.828,1.277,1.597,1.277
					c0.12,0,0.235-0.012,0.349-0.038c0.148-0.029,3.671-0.853,6.705-4.129l1.045-1.13l-0.053,1.523
					c-0.104,2.953-1.021,5.278-2.733,6.907c-2.816,2.708-7.102,2.845-7.928,2.845c-0.084,0-0.152-0.002-0.216-0.002
					c-0.03-0.005-0.048-0.007-0.076-0.007c-0.848,0-1.591,0.717-1.63,1.562c-0.038,0.894,0.657,1.66,1.566,1.702
					c0.037,0.004,0.16,0.008,0.363,0.008c1.333,0,5.997-0.231,9.58-3.204l1.136-0.95l-0.197,1.453
					c-0.319,2.256-1.19,4.076-2.599,5.408c-2.816,2.705-7.083,2.845-7.92,2.845c-0.092,0-0.165-0.004-0.203-0.004l-0.045-0.007
					h-0.057c-0.852,0-1.586,0.7-1.625,1.564c-0.038,0.896,0.647,1.658,1.546,1.703c0.055,0.001,0.177,0.003,0.384,0.003
					c1.372,0,6.119-0.235,9.721-3.32l0.942-0.813v8.693H203.531z"/>
			</g>
			<g>
				<g>
					<path fill="#00A7A5" d="M139.837,190.733c-0.761,0-1.381,0.621-1.381,1.381v11.813c0,0.328-0.266,0.597-0.595,0.597h-7.146
						c-0.314,0-0.562-0.262-0.562-0.597v-17.894c0-0.733-0.642-1.379-1.379-1.379c-0.753,0-1.382,0.631-1.382,1.379v17.894
						c0,0.328-0.269,0.597-0.596,0.597h-6.551c-0.324,0-0.59-0.27-0.59-0.597v-11.656c0-0.774-0.608-1.382-1.382-1.382
						c-0.771,0-1.378,0.608-1.378,1.382v12.691c0,1.279,1.039,2.319,2.319,2.319h19.679c1.281,0,2.32-1.04,2.32-2.319v-12.848
						C141.216,191.354,140.599,190.733,139.837,190.733z"/>
					<path fill="#00A7A5" d="M157.802,198.101h-3.517c-0.213,0-0.379-0.153-0.379-0.342v-0.251c0-0.711-0.574-1.288-1.278-1.288
						c-0.716,0-1.29,0.576-1.29,1.288v0.251c0,0.2-0.146,0.342-0.347,0.342h-3.13c-0.728,0-1.32,0.602-1.32,1.346
						c0,0.738,0.58,1.318,1.32,1.318h1.376c0.111,0,0.214,0.062,0.273,0.16c0.055,0.101,0.047,0.218-0.015,0.322l-2.978,4.827
						c-0.171,0.276-0.175,0.615-0.018,0.903c0.166,0.29,0.464,0.461,0.796,0.461c0.962,0,1.839-0.509,2.346-1.362l1.477-2.48
						c0.022-0.062,0.069-0.07,0.098-0.07c0.06,0,0.121,0.045,0.121,0.119v4.61c0,0.709,0.574,1.287,1.29,1.287
						c0.704,0,1.278-0.578,1.278-1.287v-4.829c0-0.08,0.079-0.126,0.146-0.126c0.028,0,0.078,0.007,0.114,0.05l1.183,2.141
						c0.448,0.801,1.299,1.3,2.22,1.3c0.317,0,0.6-0.163,0.766-0.442c0.166-0.278,0.166-0.61,0.016-0.89l-2.313-4.24
						c-0.039-0.071-0.015-0.146,0.013-0.194c0.08-0.137,0.287-0.258,0.441-0.258h1.312c0.74,0,1.317-0.58,1.317-1.318
						C159.119,198.702,158.528,198.101,157.802,198.101z"/>
					<path fill="#00A7A5" d="M170.17,201.218c-0.054-0.095-0.054-0.205,0.003-0.296c0.055-0.099,0.159-0.157,0.281-0.157h0.849
						c0.741,0,1.318-0.58,1.318-1.318c0-0.745-0.592-1.346-1.318-1.346h-2.881c-0.212,0-0.38-0.153-0.38-0.342v-0.251
						c0-0.723-0.553-1.288-1.252-1.288c-0.711,0-1.289,0.576-1.289,1.288v0.251c0,0.189-0.162,0.342-0.372,0.342h-3.77
						c-0.71,0-1.318,0.616-1.318,1.346c0,0.728,0.596,1.318,1.318,1.318h1.625c0.161,0,0.376,0.124,0.464,0.267
						c0.05,0.076,0.054,0.15,0.023,0.217l-2.479,4.325c-0.15,0.277-0.15,0.605,0.015,0.883c0.17,0.281,0.465,0.448,0.799,0.448
						c0.94,0,1.789-0.499,2.222-1.3l1.224-2.131c0.024-0.048,0.07-0.075,0.126-0.075c0.062,0,0.123,0.041,0.123,0.121v4.733
						c0,0.709,0.578,1.287,1.289,1.287c0.699,0,1.252-0.566,1.252-1.287v-4.954c0-0.1,0.072-0.136,0.133-0.136
						c0.05,0,0.096,0.023,0.123,0.058l1.281,2.352c0.482,0.833,1.341,1.332,2.286,1.332c0.332,0,0.629-0.167,0.786-0.445
						c0.166-0.285,0.163-0.628-0.004-0.919L170.17,201.218z"/>
					<path fill="#00A7A5" d="M160.802,194.339V189.2c0-0.131,0.116-0.205,0.22-0.205c0.062,0,0.124,0.025,0.166,0.068l3.199,3.262
						c0.821,0.821,1.974,1.292,3.154,1.292c0.321,0,0.593-0.185,0.72-0.487c0.123-0.3,0.062-0.625-0.166-0.851l-4.069-4.138
						c-0.063-0.077-0.084-0.173-0.045-0.255c0.04-0.079,0.12-0.128,0.205-0.128h2.781c0.74,0,1.349-0.606,1.349-1.349
						c0-0.743-0.608-1.349-1.349-1.349h-5.692c-0.263,0-0.473-0.207-0.473-0.472v-0.5c0-0.737-0.581-1.317-1.315-1.317
						c-0.743,0-1.346,0.59-1.346,1.317v0.5c0,0.274-0.188,0.472-0.441,0.472h-5.669c-0.746,0-1.353,0.605-1.353,1.349
						c0,0.743,0.606,1.349,1.353,1.349h2.787c0.086,0,0.156,0.042,0.189,0.118c0.031,0.08,0.009,0.167-0.055,0.234l-4.198,4.138
						c-0.241,0.239-0.317,0.579-0.189,0.881c0.126,0.302,0.407,0.487,0.743,0.487c1.204,0,2.333-0.471,3.188-1.323l3.292-3.197
						c0.041-0.045,0.098-0.071,0.157-0.071c0.092,0,0.195,0.072,0.195,0.203v5.109c0,0.743,0.603,1.349,1.346,1.349
						C160.215,195.688,160.802,195.082,160.802,194.339z"/>
					<path fill="#00A7A5" d="M202.047,185.532h-14.45c-0.134,0-0.258-0.067-0.346-0.186c-0.08-0.121-0.104-0.277-0.061-0.396
						l0.406-0.91c0.143-0.342,0.108-0.703-0.085-0.989c-0.187-0.275-0.483-0.436-0.823-0.436c-0.895,0-1.721,0.524-2.16,1.367
						l-0.402,0.942c-0.168,0.417-0.57,0.606-0.881,0.606h-4.863c-0.797,0-1.376,0.579-1.376,1.379c0,0.781,0.579,1.347,1.376,1.347
						h3.546c0.165,0,0.325,0.09,0.416,0.238c0.088,0.132,0.109,0.288,0.055,0.408l-4.516,10.029
						c-0.137,0.344-0.106,0.707,0.091,0.999c0.178,0.265,0.474,0.425,0.791,0.425c0.934,0,1.762-0.535,2.159-1.398l1.438-3.101
						c0.039-0.078,0.119-0.105,0.179-0.105c0.085,0,0.17,0.045,0.17,0.155v12.721c0,0.775,0.539,1.317,1.317,1.317
						c0.743,0,1.287-0.555,1.287-1.317v-3.446c0-0.339,0.345-0.628,0.626-0.628h10.843c0.334,0,0.655,0.304,0.655,0.628v3.446
						c0,0.775,0.555,1.317,1.348,1.317c0.778,0,1.317-0.542,1.317-1.317v-15.449c0-1.269-0.997-2.228-2.319-2.228h-12.629
						c-0.146,0-0.272-0.064-0.346-0.182c-0.081-0.119-0.092-0.268-0.036-0.396l0.66-1.446c0.147-0.375,0.531-0.67,0.881-0.67h15.732
						c0.767,0,1.353-0.579,1.353-1.347C203.399,186.111,202.829,185.532,202.047,185.532z M196.783,196.282H185.94
						c-0.309,0-0.626-0.339-0.626-0.658v-1.349c0-0.32,0.317-0.658,0.626-0.658h10.843c0.325,0,0.655,0.331,0.655,0.658v1.349
						C197.438,195.949,197.108,196.282,196.783,196.282z M185.94,199.009h10.843c0.325,0,0.655,0.332,0.655,0.657v1.442
						c0,0.321-0.321,0.625-0.655,0.625H185.94c-0.281,0-0.626-0.288-0.626-0.625v-1.442
						C185.314,199.349,185.632,199.009,185.94,199.009z"/>
					<path fill="#00A7A5" d="M230.941,197.001h-3.729c-0.119,0-0.233-0.064-0.309-0.172c-0.085-0.112-0.111-0.255-0.071-0.38
						l0.533-1.628c0.106-0.304,0.057-0.644-0.138-0.918c-0.194-0.276-0.507-0.443-0.829-0.443c-0.849,0-1.586,0.526-1.881,1.337
						l-0.564,1.629c-0.126,0.349-0.434,0.574-0.78,0.574h-4.895c-0.356,0-0.693-0.234-0.812-0.574l-0.63-1.629
						c-0.288-0.799-1.058-1.337-1.907-1.337c-0.332,0-0.632,0.154-0.828,0.425c-0.197,0.278-0.254,0.638-0.141,0.964l0.596,1.599
						c0.041,0.133,0.021,0.278-0.058,0.391c-0.079,0.103-0.191,0.161-0.32,0.161h-3.793c-0.725,0-1.314,0.607-1.314,1.351
						c0,0.741,0.59,1.346,1.314,1.346h8.333c0.333,0,0.599,0.247,0.599,0.563v1.846c0,0.333-0.273,0.597-0.599,0.597h-5.828
						c-0.764,0-1.379,0.606-1.379,1.348c0,0.775,0.604,1.38,1.379,1.38h5.828c0.333,0,0.599,0.249,0.599,0.562v2.6
						c0,0.763,0.604,1.383,1.345,1.383c0.771,0,1.379-0.607,1.379-1.383v-2.6c0-0.325,0.236-0.562,0.567-0.562h5.857
						c0.742,0,1.349-0.621,1.349-1.38c0-0.742-0.606-1.348-1.349-1.348h-5.857c-0.317,0-0.567-0.259-0.567-0.597v-1.846
						c0-0.326,0.236-0.563,0.567-0.563h8.334c0.74,0,1.349-0.605,1.349-1.346C232.29,197.609,231.682,197.001,230.941,197.001z"/>
					<path fill="#00A7A5" d="M231.724,189.889h-9.116c-0.31,0-0.567-0.253-0.567-0.565v-1.223c0-0.325,0.236-0.561,0.567-0.561
						h6.737c0.727,0,1.351-0.632,1.351-1.38c0-0.762-0.607-1.378-1.351-1.378h-6.93c-0.226,0-0.375-0.138-0.375-0.345v-0.221
						c0-0.772-0.608-1.378-1.379-1.378c-0.741,0-1.345,0.618-1.345,1.378v0.221c0,0.193-0.167,0.345-0.378,0.345h-6.957
						c-0.742,0-1.349,0.617-1.349,1.378c0,0.748,0.616,1.38,1.349,1.38h6.736c0.339,0,0.599,0.241,0.599,0.561v1.223
						c0,0.308-0.274,0.565-0.599,0.565H209.6c-0.763,0-1.378,0.605-1.378,1.347c0,0.775,0.604,1.38,1.378,1.38h22.124
						c0.774,0,1.379-0.605,1.379-1.38C233.103,190.494,232.485,189.889,231.724,189.889z"/>
				</g>
				<g>
					<path fill="#00A7A5" d="M123.416,218.869l1.564,0.495c-0.239,0.876-0.635,1.523-1.196,1.948
						c-0.56,0.423-1.268,0.634-2.123,0.634c-1.064,0-1.938-0.362-2.622-1.087c-0.684-0.728-1.028-1.719-1.028-2.978
						c0-1.33,0.348-2.366,1.038-3.103c0.687-0.736,1.587-1.103,2.709-1.103c0.976,0,1.771,0.289,2.384,0.868
						c0.361,0.338,0.639,0.828,0.818,1.473l-1.596,0.378c-0.095-0.412-0.297-0.739-0.597-0.981c-0.299-0.238-0.662-0.36-1.094-0.36
						c-0.593,0-1.071,0.213-1.441,0.638c-0.367,0.425-0.554,1.116-0.554,2.068c0,1.012,0.182,1.731,0.549,2.163
						c0.359,0.427,0.836,0.642,1.413,0.642c0.431,0,0.801-0.132,1.11-0.407C123.06,219.884,123.277,219.456,123.416,218.869z"/>
					<path fill="#00A7A5" d="M129.446,213.811v2.942c0.499-0.581,1.09-0.868,1.774-0.868c0.354,0,0.674,0.063,0.958,0.195
						c0.284,0.13,0.494,0.3,0.643,0.502c0.143,0.204,0.242,0.429,0.291,0.677c0.057,0.247,0.079,0.631,0.079,1.15v3.399h-1.536
						v-3.061c0-0.605-0.026-0.99-0.083-1.156c-0.061-0.163-0.159-0.293-0.308-0.389c-0.148-0.097-0.331-0.143-0.555-0.143
						c-0.256,0-0.483,0.061-0.684,0.181c-0.196,0.129-0.346,0.312-0.438,0.562c-0.095,0.247-0.143,0.618-0.143,1.103v2.902h-1.529
						v-7.998H129.446z"/>
					<path fill="#00A7A5" d="M137.462,217.784l-1.395-0.253c0.158-0.559,0.425-0.975,0.811-1.243
						c0.379-0.271,0.946-0.402,1.698-0.402c0.688,0,1.194,0.081,1.529,0.242c0.336,0.164,0.568,0.369,0.708,0.617
						c0.136,0.249,0.205,0.707,0.205,1.372l-0.02,1.79c0,0.51,0.023,0.886,0.072,1.128c0.05,0.241,0.143,0.5,0.278,0.775h-1.518
						c-0.039-0.099-0.089-0.252-0.149-0.45c-0.026-0.092-0.042-0.151-0.052-0.181c-0.264,0.254-0.542,0.445-0.84,0.572
						c-0.303,0.128-0.618,0.19-0.957,0.19c-0.591,0-1.063-0.161-1.409-0.485c-0.341-0.324-0.515-0.731-0.515-1.228
						c0-0.327,0.08-0.618,0.236-0.876c0.153-0.255,0.374-0.455,0.65-0.588c0.285-0.137,0.693-0.256,1.222-0.358
						c0.716-0.137,1.216-0.26,1.492-0.376v-0.154c0-0.293-0.072-0.501-0.218-0.63c-0.145-0.125-0.422-0.186-0.828-0.186
						c-0.269,0-0.48,0.051-0.631,0.16C137.679,217.327,137.556,217.515,137.462,217.784z M139.511,219.028
						c-0.193,0.063-0.507,0.144-0.935,0.232c-0.424,0.092-0.703,0.182-0.835,0.268c-0.194,0.144-0.297,0.323-0.297,0.541
						c0,0.216,0.081,0.399,0.238,0.556c0.161,0.156,0.362,0.235,0.611,0.235c0.274,0,0.54-0.089,0.792-0.272
						c0.184-0.137,0.31-0.307,0.363-0.508c0.038-0.13,0.062-0.38,0.062-0.747V219.028z"/>
					<path fill="#00A7A5" d="M149.361,221.809h-1.53v-2.958c0-0.622-0.034-1.028-0.1-1.212c-0.063-0.182-0.172-0.327-0.32-0.427
						c-0.147-0.104-0.32-0.152-0.529-0.152c-0.265,0-0.504,0.071-0.717,0.216c-0.21,0.145-0.357,0.338-0.435,0.58
						c-0.075,0.237-0.12,0.683-0.12,1.331v2.623h-1.532v-5.792h1.426v0.851c0.51-0.658,1.141-0.982,1.913-0.982
						c0.337,0,0.647,0.06,0.929,0.181c0.279,0.124,0.489,0.277,0.637,0.468c0.138,0.189,0.242,0.401,0.297,0.644
						c0.055,0.239,0.082,0.583,0.082,1.031V221.809z"/>
					<path fill="#00A7A5" d="M152.342,222.193l1.752,0.211c0.03,0.204,0.097,0.346,0.202,0.419c0.146,0.11,0.373,0.164,0.687,0.164
						c0.4,0,0.7-0.057,0.9-0.176c0.137-0.081,0.237-0.211,0.308-0.388c0.046-0.128,0.067-0.363,0.067-0.705v-0.844
						c-0.455,0.624-1.034,0.936-1.734,0.936c-0.779,0-1.396-0.328-1.849-0.987c-0.357-0.517-0.534-1.167-0.534-1.942
						c0-0.97,0.234-1.712,0.699-2.225c0.466-0.514,1.048-0.769,1.745-0.769c0.717,0,1.308,0.315,1.776,0.941v-0.809h1.435v5.198
						c0,0.684-0.058,1.196-0.173,1.535c-0.114,0.339-0.266,0.604-0.475,0.796c-0.202,0.191-0.476,0.344-0.812,0.452
						c-0.342,0.109-0.774,0.165-1.294,0.165c-0.979,0-1.679-0.17-2.088-0.505c-0.414-0.338-0.619-0.764-0.619-1.282
						C152.335,222.327,152.338,222.265,152.342,222.193z M153.71,218.793c0,0.617,0.119,1.065,0.355,1.35
						c0.242,0.29,0.535,0.428,0.881,0.428c0.381,0,0.691-0.142,0.95-0.438c0.26-0.292,0.389-0.725,0.389-1.301
						c0-0.597-0.125-1.044-0.368-1.336c-0.25-0.291-0.56-0.435-0.943-0.435c-0.362,0-0.666,0.142-0.908,0.426
						C153.829,217.771,153.71,218.207,153.71,218.793z"/>
					<path fill="#00A7A5" d="M164.228,219.968l1.527,0.255c-0.191,0.559-0.505,0.984-0.928,1.278
						c-0.424,0.293-0.954,0.439-1.588,0.439c-1.011,0-1.757-0.329-2.238-0.988c-0.383-0.524-0.575-1.191-0.575-1.994
						c0-0.962,0.251-1.713,0.755-2.259c0.499-0.544,1.136-0.814,1.902-0.814c0.866,0,1.541,0.286,2.039,0.854
						c0.501,0.569,0.737,1.441,0.715,2.617h-3.838c0.009,0.453,0.137,0.808,0.37,1.06c0.24,0.255,0.532,0.379,0.885,0.379
						c0.241,0,0.442-0.064,0.603-0.194C164.021,220.467,164.147,220.258,164.228,219.968z M164.315,218.417
						c-0.01-0.445-0.121-0.781-0.348-1.014c-0.217-0.229-0.479-0.343-0.792-0.343c-0.333,0-0.612,0.12-0.828,0.362
						c-0.217,0.246-0.326,0.575-0.324,0.996H164.315z"/>
					<path fill="#00A7A5" d="M175.235,221.809v-3.364l-2.936-4.634h1.896l1.881,3.165l1.845-3.165h1.863l-2.941,4.643v3.354H175.235
						z"/>
					<path fill="#00A7A5" d="M180.955,218.831c0-0.508,0.126-1.002,0.376-1.479c0.252-0.476,0.605-0.84,1.07-1.09
						c0.457-0.252,0.97-0.376,1.542-0.376c0.873,0,1.59,0.286,2.149,0.854c0.562,0.569,0.839,1.289,0.839,2.158
						c0,0.877-0.282,1.603-0.848,2.18c-0.563,0.577-1.273,0.864-2.132,0.864c-0.533,0-1.039-0.119-1.521-0.359
						c-0.483-0.241-0.849-0.591-1.101-1.059C181.081,220.062,180.955,219.496,180.955,218.831z M182.528,218.914
						c0,0.573,0.133,1.013,0.407,1.318c0.273,0.308,0.61,0.459,1.008,0.459c0.4,0,0.737-0.151,1.009-0.459
						c0.274-0.305,0.405-0.747,0.405-1.331c0-0.566-0.131-1.002-0.405-1.31c-0.271-0.303-0.608-0.457-1.009-0.457
						c-0.397,0-0.734,0.154-1.008,0.457C182.661,217.899,182.528,218.338,182.528,218.914z"/>
					<path fill="#00A7A5" d="M193.514,221.809v-0.866c-0.211,0.31-0.484,0.552-0.831,0.73c-0.343,0.177-0.705,0.267-1.091,0.267
						s-0.735-0.085-1.043-0.258c-0.312-0.169-0.534-0.41-0.672-0.719c-0.138-0.307-0.209-0.736-0.209-1.279v-3.667h1.532v2.664
						c0,0.812,0.031,1.311,0.086,1.495c0.057,0.184,0.155,0.331,0.306,0.437c0.153,0.108,0.339,0.161,0.569,0.161
						c0.262,0,0.498-0.072,0.703-0.212c0.211-0.148,0.349-0.326,0.428-0.537c0.077-0.213,0.112-0.735,0.112-1.564v-2.442h1.534
						v5.792H193.514z"/>
					<path fill="#00A7A5" d="M199.56,221.809h-1.533v-5.792h1.424v0.821c0.244-0.39,0.461-0.645,0.658-0.77
						c0.193-0.121,0.415-0.183,0.658-0.183c0.352,0,0.689,0.099,1.011,0.288l-0.471,1.339c-0.261-0.169-0.502-0.252-0.719-0.252
						s-0.398,0.061-0.546,0.177c-0.151,0.119-0.264,0.331-0.356,0.642c-0.086,0.309-0.126,0.956-0.126,1.941V221.809z"/>
					<path fill="#00A7A5" d="M208.727,221.809v-7.932h1.613v6.583h4.017v1.348H208.727z"/>
					<path fill="#00A7A5" d="M217.065,215.229v-1.418h1.534v1.418H217.065z M217.065,221.809v-5.792h1.534v5.792H217.065z"/>
					<path fill="#00A7A5" d="M221.063,216.017h0.847v-0.438c0-0.488,0.054-0.85,0.163-1.092c0.097-0.239,0.291-0.436,0.57-0.586
						c0.276-0.151,0.631-0.225,1.056-0.225c0.437,0,0.867,0.065,1.278,0.194l-0.206,1.069c-0.245-0.059-0.476-0.087-0.703-0.087
						c-0.224,0-0.38,0.052-0.475,0.159c-0.098,0.1-0.146,0.298-0.146,0.596v0.41h1.144v1.205h-1.144v4.587h-1.537v-4.587h-0.847
						V216.017z"/>
					<path fill="#00A7A5" d="M230.375,219.968l1.527,0.255c-0.195,0.559-0.505,0.984-0.929,1.278
						c-0.421,0.293-0.958,0.439-1.594,0.439c-1.008,0-1.752-0.329-2.234-0.988c-0.382-0.524-0.573-1.191-0.573-1.994
						c0-0.962,0.25-1.713,0.753-2.259c0.501-0.544,1.137-0.814,1.904-0.814c0.863,0,1.539,0.286,2.043,0.854
						c0.5,0.569,0.734,1.441,0.713,2.617h-3.842c0.008,0.453,0.134,0.808,0.37,1.06c0.238,0.255,0.531,0.379,0.886,0.379
						c0.238,0,0.441-0.064,0.607-0.194C230.17,220.467,230.293,220.258,230.375,219.968z M230.464,218.417
						c-0.01-0.445-0.125-0.781-0.349-1.014c-0.217-0.229-0.483-0.343-0.792-0.343c-0.336,0-0.613,0.12-0.831,0.362
						c-0.215,0.246-0.328,0.575-0.319,0.996H230.464z"/>
				</g>
			</g>
		</g>
	</g>
</g>
<g id="圖層_2">
</g>
</svg>
