<svg xmlns="http://www.w3.org/2000/svg" xmlns:xlink="http://www.w3.org/1999/xlink" viewBox="0 0 792.19 405.64"><defs><style>.cls-1,.cls-34{fill:none;}.cls-2{isolation:isolate;}.cls-3{clip-path:url(#clip-path);}.cls-4{fill:#fff;}.cls-5{opacity:0.5;}.cls-6{fill:#72c6e2;}.cls-7{fill:#955297;opacity:0.1;}.cls-36,.cls-7{mix-blend-mode:multiply;}.cls-8{fill:#f8f8f8;mix-blend-mode:soft-light;}.cls-9{fill:url(#linear-gradient);}.cls-10{fill:#b5ba47;}.cls-11{fill:#53a351;}.cls-12,.cls-36{fill:#3f7f38;}.cls-13{clip-path:url(#clip-path-2);}.cls-14{fill:#c9c126;}.cls-15{fill:#acbf3d;}.cls-16{fill:#d7db94;}.cls-17{fill:#6fba52;}.cls-18{fill:#99c962;}.cls-19{fill:#478437;}.cls-20{fill:#642b17;}.cls-21{fill:#ae4b24;}.cls-22{fill:#d76926;}.cls-23{fill:#419738;}.cls-24{clip-path:url(#clip-path-3);}.cls-25{clip-path:url(#clip-path-4);}.cls-26{fill:#3e6b3b;}.cls-27{fill:#418c3f;}.cls-28{clip-path:url(#clip-path-5);}.cls-29{fill:#f5cf2f;}.cls-30{fill:#f5ab2a;}.cls-31{fill:#916125;}.cls-32{fill:#e79629;}.cls-33{fill:#f3ef7d;}.cls-34{stroke:#f6e378;stroke-linecap:round;stroke-linejoin:round;}.cls-35{fill:#84a22c;}.cls-36{opacity:0.23;}.cls-37{fill:#7f5b34;}.cls-38{fill:#e9d7a7;}.cls-39{fill:#b26835;}.cls-40,.cls-41{fill:#f5e436;}.cls-40{mix-blend-mode:overlay;}.cls-42{fill:#f18a23;}</style><clipPath id="clip-path" transform="translate(0 -174)"><rect class="cls-1" x="258.7" width="362" height="533"/></clipPath><linearGradient id="linear-gradient" x1="438.71" y1="569.19" x2="438.71" y2="456.17" gradientUnits="userSpaceOnUse"><stop offset="0" stop-color="#608e34"/><stop offset="1" stop-color="#a7ba41"/></linearGradient><clipPath id="clip-path-2" transform="translate(0 -174)"><rect class="cls-1" x="455.15" y="371.3" width="167.6" height="96.44"/></clipPath><clipPath id="clip-path-3" transform="translate(0 -174)"><rect class="cls-1" x="254.67" y="372.04" width="167.6" height="96.43" transform="translate(676.94 840.51) rotate(180)"/></clipPath><clipPath id="clip-path-4" transform="translate(0 -174)"><rect class="cls-1" x="512.27" y="451.57" width="110.47" height="82.42"/></clipPath><clipPath id="clip-path-5" transform="translate(0 -174)"><rect class="cls-1" x="254.67" y="451.57" width="110.47" height="82.42" transform="translate(619.81 985.56) rotate(180)"/></clipPath></defs><title>game_text</title><g class="cls-2"><g id="圖層_2" data-name="圖層 2"><g id="圖層_1-2" data-name="圖層 1"><g class="cls-3"><path class="cls-4" d="M0,385.14,1.58,284.63s14.46-22,33.15-10.71a36.85,36.85,0,0,1,4.67-4.1c16.29-12,40.5-9,53.38,6.11a35.49,35.49,0,0,1,4.35,6.41,28.91,28.91,0,0,1,3.3-4.82c2.92-3.46,7.65-7.5,13.86-7.31a15,15,0,0,1,3.84.65c-6-23.76,26-34.48,38.42-18.25,8.89-24.75,54-48.18,78.84-18.73,28.57-19.94,70.71,9.13,51.58,46.61,25.84-10,24.65,5.44,24.65,5.44s17.23-29.89,41-24.32c.67-25.79,47.8-52.93,74.18-22.64a52,52,0,0,1,6.33,9.18c6.16-10.52,12.37-16.06,17.67-18.92,8.29-4.47,14.33-2.34,14.33-2.34s-.69-31.5,28.69-27.1c7.9-25.85,70.88-48.78,77.74,17.84,20.58-.09,21.66,18.61,21.66,18.61s16.86-14.18,29.63,3.92L620.2,382Z" transform="translate(0 -174)"/><g class="cls-5"><path class="cls-6" d="M792.19,296.14v129H216.28V260s35.48-18.54,59.43-2.73c10.86,7.17,19.23,20.12,26.81,32.22l3.37,5.39.57.89c.48.76,1,1.52,1.45,2.26,6.28,9.72,12.3,17.63,19.15,19.52a12.27,12.27,0,0,0,2.48.41,17.3,17.3,0,0,0,3.59-.18h0c4.76-.74,9.48-3.38,14.2-7.06,2-1.6,4.09-3.39,6.14-5.31,7.28-6.8,14.6-15.15,22.11-21.85s15.49-11.91,23.69-11.91c23.68,0,47.82,44.23,73.22,44.11a21.22,21.22,0,0,0,5.11-.64c10.77-2.72,23.85,2.4,38.07,9.06,5.9,2.76,12,5.79,18.21,8.64a174.41,174.41,0,0,0,18,7.25,89.65,89.65,0,0,0,11,2.93q2.75.55,5.5.84a51.53,51.53,0,0,0,14.31-.26c1.31-.21,2.61-.5,3.91-.84l1.18-.32a47,47,0,0,0,16.62-8.81q1.49-1.2,3-2.56c4.4-4.07,8.87-8.35,13.39-12.76,6.49-6.33,13.08-12.93,19.7-19.49l.43-.42,4.75-4.69q4.8-4.74,9.61-9.36,2.34-2.24,4.67-4.44l.79-.74c3.28-3.07,6.54-6.07,9.79-8.94,2.95-2.61,5.88-5.13,8.8-7.53a179.58,179.58,0,0,1,19.81-14.41c13.28-8.15,25.85-12.32,37.11-9.77,15.2,3.45,27.54,14.23,36.71,25.53A140.85,140.85,0,0,1,792.19,296.14Z" transform="translate(0 -174)"/><path class="cls-7" d="M605.7,355.17a63.39,63.39,0,0,1-2.54,18.72,35.22,35.22,0,0,1-9.43,15.71l-.06.06c-6,5.58-13.9,8.18-21.68,10l-.81.19-.68.15c-3.76.86-7.55,1.59-11.36,2.25s-7.38,1.18-11.09,1.69c-4.24.58-8.48,1.1-12.74,1.61l-7.85.94h0l-.18,0c-3.9.47-7.8,1-11.69,1.51l-1.11.16c-3.1.46-6.2.94-9.28,1.49-2.68.48-5.35,1-8,1.58-1.07.23-2.16.48-3.22.74l-.38.09c-1.32.31-2.63.64-3.93,1h0c-1.29.34-2.57.7-3.85,1.08q-3.25,1-6.46,2.08c-1.94.69-3.88,1.41-5.8,2.21l-1.89.79c-3.82,1.65-7.53,3.51-11.19,5.51l-.68.37H216.28V327.47a47,47,0,0,1,11.7,9.2c5.47,5.72,10.86,12.29,17.47,16a22.81,22.81,0,0,0,6.51,2.48,21.61,21.61,0,0,0,5.9.38c.48,0,1-.08,1.43-.14a37.21,37.21,0,0,0,9.15-2.57c1.24-.5,2.46-1,3.7-1.62,5.34-2.47,10.67-5.44,16.14-7.31.94-.32,1.89-.61,2.83-.85a27.38,27.38,0,0,1,7.55-1c8.66.15,17.33,5.14,25.67,2.59,3.67-1.12,6.81-3.6,9.94-6l1.46-1.12a67.69,67.69,0,0,1,6.58-4.38,56,56,0,0,1,18.15-6.89A37,37,0,0,1,382,328.42c17.21,7.57,28.51,29.46,47.07,30.52,15,.86,27.87-12.79,42.88-13.76,10.3-.66,20,4.7,29.64,8.61q4.47,1.81,9.05,3.19c1.45.45,2.9.86,4.37,1.23q4.25,1.1,8.57,1.85c.63.12,1.27.22,1.91.32a110.15,110.15,0,0,0,14.74,1.33l1.94,0a112,112,0,0,0,13.42-.7c2.34-.26,4.65-.59,7-1,1.05-.18,2.1-.38,3.15-.6,1.22-.24,2.44-.51,3.66-.8q4.55-1.08,9-2.55l1.35-.45q3.45-1.17,6.82-2.57l1-.43a110.63,110.63,0,0,0,17.31-9.25A95.62,95.62,0,0,1,605.7,355.17Z" transform="translate(0 -174)"/><path class="cls-8" d="M333.12,317.79q-2.62,1.7-5.34,3.22c-1.11.64-2.24,1.25-3.37,1.83-8,4.15-17,7.32-25.65,5.39a19.36,19.36,0,0,1-4.54-1.64c-6.7-3.39-11.87-10.57-11-18.37.37-3.41,1.83-6.71,1.48-10.12-.75-7.28-9.11-10.7-15.87-9.9-6,.71-11.8,3.41-17.78,3.73a18.77,18.77,0,0,1-2.27,0c-6.79-.41-14.05-7.33-11.51-14.13.94-2.5,3.06-4.54,3.2-7.23.3-5.67-7.31-7-12.48-5.89a106.94,106.94,0,0,0-11.7,3.28v-8s35.48-18.54,59.43-2.73c10.86,7.17,19.23,20.12,26.81,32.22l3.37,5.39.57.89c.48.76,1,1.52,1.45,2.26,6.28,9.72,12.3,17.63,19.15,19.52a12.27,12.27,0,0,0,2.48.41A17.3,17.3,0,0,0,333.12,317.79Z" transform="translate(0 -174)"/><path class="cls-8" d="M472.49,315.78c-9.55,6.13-21.92,4.69-33.1,3-4.8-.74-9.81-1.58-13.72-4.68s-6.28-8.37-9.37-12.65-8.11-8-12.89-6.29c-6.76,2.36-10.2,14.2-17,12-3.65-1.19-5-6.09-4.73-10.19s1.64-8.17,1-12.22a13.14,13.14,0,0,1-7.14-1.12c7.65-6.81,15.49-11.91,23.69-11.91C423,271.67,447.09,315.9,472.49,315.78Z" transform="translate(0 -174)"/><path class="cls-8" d="M772.94,264c-5.76,2.06-11.68,2.89-17.18.44-5.74-2.56-11.55-8.58-17.13-5.63-5.74,3-4.84,12.56-9.21,17.57-2.76,3.17-7.06,3.93-11,5-16.53,4.41-33.07,17.93-50.83,12.26a21.84,21.84,0,0,1-12.36-9.32c29-27.85,57.8-51.07,81-45.82C751.43,242,763.77,252.74,772.94,264Z" transform="translate(0 -174)"/></g><path class="cls-8" d="M743.4,386.47a67,67,0,0,1-3.1,21.2,39.44,39.44,0,0,1-11.49,17.79l-.07.07c-7.35,6.32-16.94,9.26-26.42,11.35l-1,.22-.82.17c-4.59,1-9.2,1.81-13.84,2.54-4.49.71-9,1.34-13.51,1.91-5.16.66-10.34,1.24-15.53,1.82l-9.56,1.07H648l-.23,0q-7.13.8-14.24,1.71l-1.36.18c-3.78.52-7.55,1.07-11.31,1.69-3.27.54-6.52,1.13-9.76,1.79-1.31.26-2.63.54-3.93.83l-.47.1c-1.61.35-3.2.72-4.79,1.11h0q-2.36.58-4.69,1.22-4,1.08-7.87,2.36c-2.37.78-4.73,1.6-7.07,2.5l-2.3.9c-4.65,1.87-9.18,4-13.63,6.24l-.83.42H268.8V355.1a56.92,56.92,0,0,1,14.26,10.42c6.67,6.48,13.23,13.92,21.29,18.09a29.14,29.14,0,0,0,7.94,2.81,28.31,28.31,0,0,0,7.2.43c.58,0,1.16-.09,1.74-.16a48.06,48.06,0,0,0,11.15-2.91c1.51-.56,3-1.18,4.51-1.83,6.51-2.8,13-6.16,19.67-8.28,1.14-.37,2.3-.69,3.46-1a35.84,35.84,0,0,1,9.21-1.12c10.56.17,21.12,5.82,31.29,2.94,4.47-1.27,8.3-4.08,12.11-6.81l1.78-1.27a83,83,0,0,1,8-5,71.46,71.46,0,0,1,22.12-7.81,48.34,48.34,0,0,1,26.29,2.52c21,8.57,34.74,33.35,57.37,34.55,18.31,1,34-14.48,52.27-15.57,12.56-.75,24.35,5.33,36.12,9.75q5.45,2,11,3.61c1.77.5,3.54,1,5.33,1.39q5.18,1.25,10.44,2.1c.77.14,1.54.25,2.32.36a144.33,144.33,0,0,0,18,1.51l2.37,0a147,147,0,0,0,16.36-.79q4.27-.44,8.49-1.13c1.28-.21,2.56-.43,3.84-.68,1.49-.27,3-.58,4.47-.91q5.54-1.22,11-2.88l1.65-.51q4.2-1.32,8.31-2.91l1.23-.49a138.48,138.48,0,0,0,21.1-10.47A100.89,100.89,0,0,1,743.4,386.47Z" transform="translate(0 -174)"/><path class="cls-4" d="M622.74,301.31A23.73,23.73,0,0,0,607,316.06a10.43,10.43,0,0,0-14.81,13.78,44.73,44.73,0,0,0-22.68,33.28,23.68,23.68,0,0,0-25.11,37.38,39.08,39.08,0,0,0-21.33,12,16.31,16.31,0,0,0-24.35,18.15,23.69,23.69,0,0,0-22.75,18.13A39.14,39.14,0,0,0,421.3,467H519a23.55,23.55,0,0,0,2.08-4.09,39.57,39.57,0,0,0,3.69,4.09h54.45c.74-.72,1.46-1.46,2.15-2.23a40.34,40.34,0,0,0,5.29,2.23H613a40.51,40.51,0,0,0,9.71-4.89Z" transform="translate(0 -174)"/><path class="cls-4" d="M254.67,301.31a23.73,23.73,0,0,1,15.79,14.75,10.43,10.43,0,0,1,14.81,13.78A44.74,44.74,0,0,1,308,363.13a23.68,23.68,0,0,1,25.11,37.38,39.09,39.09,0,0,1,21.33,12,16.31,16.31,0,0,1,24.35,18.15,23.69,23.69,0,0,1,22.75,18.13A39.14,39.14,0,0,1,456.12,467H358.46a23.55,23.55,0,0,1-2.08-4.09,39.44,39.44,0,0,1-3.69,4.09H298.24c-.74-.72-1.46-1.46-2.15-2.23A40.32,40.32,0,0,1,290.8,467H264.38a40.51,40.51,0,0,1-9.71-4.89Z" transform="translate(0 -174)"/><path class="cls-9" d="M622.74,467.83c-51.91-4.21-114-6.65-180.66-6.65-69.6,0-134.18,2.67-187.42,7.22V534H622.74Z" transform="translate(0 -174)"/><path class="cls-10" d="M304.8,481.27a6.78,6.78,0,0,0,4.94,0,6.83,6.83,0,0,0-8.56-3.42A6.78,6.78,0,0,0,304.8,481.27Z" transform="translate(0 -174)"/><path class="cls-10" d="M398.13,517.45a6.61,6.61,0,0,0,2.52-4.17,6.64,6.64,0,0,0-7.21,5.5A6.61,6.61,0,0,0,398.13,517.45Z" transform="translate(0 -174)"/><path class="cls-10" d="M350.44,524a6.78,6.78,0,0,0,4.94,0,6.83,6.83,0,0,0-8.56-3.42A6.78,6.78,0,0,0,350.44,524Z" transform="translate(0 -174)"/><path class="cls-10" d="M377.08,498.74a6.79,6.79,0,0,0-.3,4.93,6.83,6.83,0,0,0,3.84-8.38A6.78,6.78,0,0,0,377.08,498.74Z" transform="translate(0 -174)"/><path class="cls-10" d="M286.69,491.11a4.62,4.62,0,0,0,2.29-2.48,4.66,4.66,0,0,0-5.65,2.76A4.62,4.62,0,0,0,286.69,491.11Z" transform="translate(0 -174)"/><path class="cls-10" d="M268,474.54a4.64,4.64,0,0,0,3.19-1.11,4.67,4.67,0,0,0-6.29-.22A4.63,4.63,0,0,0,268,474.54Z" transform="translate(0 -174)"/><path class="cls-10" d="M316.9,503.19A4.63,4.63,0,0,0,320,501.8a4.67,4.67,0,0,0-6.28.34A4.63,4.63,0,0,0,316.9,503.19Z" transform="translate(0 -174)"/><path class="cls-10" d="M350,491a4.63,4.63,0,0,0,3.07-1.39,4.67,4.67,0,0,0-6.28.34A4.63,4.63,0,0,0,350,491Z" transform="translate(0 -174)"/><path class="cls-10" d="M388.1,475.73a4.63,4.63,0,0,0,2.37-2.4,4.67,4.67,0,0,0-5.74,2.58A4.63,4.63,0,0,0,388.1,475.73Z" transform="translate(0 -174)"/><path class="cls-10" d="M518.86,481.69a6.14,6.14,0,0,0,4.48,0,6.19,6.19,0,0,0-7.76-3.1A6.14,6.14,0,0,0,518.86,481.69Z" transform="translate(0 -174)"/><path class="cls-10" d="M603.44,514.47a6,6,0,0,0,2.28-3.78,6,6,0,0,0-6.53,5A6,6,0,0,0,603.44,514.47Z" transform="translate(0 -174)"/><path class="cls-10" d="M560.22,520.38a6.14,6.14,0,0,0,4.48,0,6.19,6.19,0,0,0-7.76-3.1A6.16,6.16,0,0,0,560.22,520.38Z" transform="translate(0 -174)"/><path class="cls-10" d="M584.37,497.52a6.15,6.15,0,0,0-.27,4.47,6.19,6.19,0,0,0,3.48-7.59A6.15,6.15,0,0,0,584.37,497.52Z" transform="translate(0 -174)"/><path class="cls-10" d="M502.45,490.6a4.2,4.2,0,0,0,2.07-2.25,4.23,4.23,0,0,0-5.12,2.51A4.2,4.2,0,0,0,502.45,490.6Z" transform="translate(0 -174)"/><path class="cls-10" d="M485.46,475.59a4.19,4.19,0,0,0,2.89-1,4.23,4.23,0,0,0-5.7-.2A4.2,4.2,0,0,0,485.46,475.59Z" transform="translate(0 -174)"/><path class="cls-10" d="M529.82,501.56a4.2,4.2,0,0,0,2.79-1.26,4.23,4.23,0,0,0-5.69.31A4.19,4.19,0,0,0,529.82,501.56Z" transform="translate(0 -174)"/><path class="cls-10" d="M559.84,490.55a4.2,4.2,0,0,0,2.79-1.26,4.23,4.23,0,0,0-5.69.31A4.19,4.19,0,0,0,559.84,490.55Z" transform="translate(0 -174)"/><path class="cls-10" d="M594.35,476.67a4.19,4.19,0,0,0,2.15-2.18,4.23,4.23,0,0,0-5.2,2.33A4.2,4.2,0,0,0,594.35,476.67Z" transform="translate(0 -174)"/><path class="cls-10" d="M500.62,528.54a5.84,5.84,0,0,0-4.26,0,5.89,5.89,0,0,0,7.38,2.95A5.84,5.84,0,0,0,500.62,528.54Z" transform="translate(0 -174)"/><path class="cls-10" d="M420.19,497.37A5.69,5.69,0,0,0,418,501a5.72,5.72,0,0,0,6.21-4.74A5.7,5.7,0,0,0,420.19,497.37Z" transform="translate(0 -174)"/><path class="cls-10" d="M461.28,491.75a5.85,5.85,0,0,0-4.26,0,5.89,5.89,0,0,0,7.38,2.95A5.84,5.84,0,0,0,461.28,491.75Z" transform="translate(0 -174)"/><path class="cls-10" d="M438.32,513.49a5.85,5.85,0,0,0,.26-4.25,5.89,5.89,0,0,0-3.31,7.22A5.84,5.84,0,0,0,438.32,513.49Z" transform="translate(0 -174)"/><path class="cls-10" d="M516.23,520.07a4,4,0,0,0-2,2.14,4,4,0,0,0,4.87-2.38A4,4,0,0,0,516.23,520.07Z" transform="translate(0 -174)"/><path class="cls-10" d="M490.19,509.65a4,4,0,0,0-2.65,1.2,4,4,0,0,0,5.41-.3A4,4,0,0,0,490.19,509.65Z" transform="translate(0 -174)"/><path class="cls-10" d="M461.65,520.12a4,4,0,0,0-2.65,1.2,4,4,0,0,0,5.41-.3A4,4,0,0,0,461.65,520.12Z" transform="translate(0 -174)"/><path class="cls-10" d="M415.45,476.88a4,4,0,0,0-2.65,1.2,4,4,0,0,0,5.41-.3A4,4,0,0,0,415.45,476.88Z" transform="translate(0 -174)"/><polyline class="cls-11" points="483.88 164.65 536.52 259.63 483.88 259.63 431.25 259.63 483.88 164.65"/><polygon class="cls-12" points="451.24 223.55 511.39 214.29 508.43 208.94 463.68 201.12 451.24 223.55"/><polyline class="cls-11" points="483.88 148.82 518.97 212.14 483.88 212.14 448.79 212.14 483.88 148.82"/><polygon class="cls-12" points="464.57 183.67 500.16 178.19 494.93 168.75 474.79 165.23 464.57 183.67"/><polyline class="cls-11" points="483.88 135.43 505.06 173.64 483.88 173.64 462.71 173.64 483.88 135.43"/><polygon class="cls-12" points="471.26 158.19 494.52 154.62 488.15 143.12 480.37 141.76 471.26 158.19"/><polyline class="cls-11" points="483.88 126.14 497.96 151.53 483.88 151.53 469.81 151.53 483.88 126.14"/><polyline class="cls-11" points="402.25 203.75 431.95 257.34 402.25 257.34 372.56 257.34 402.25 203.75"/><polygon class="cls-12" points="383.83 236.98 417.77 231.76 416.1 228.74 390.85 224.32 383.83 236.98"/><polyline class="cls-11" points="402.25 194.82 422.05 230.54 402.25 230.54 382.45 230.54 402.25 194.82"/><polygon class="cls-12" points="391.36 214.48 411.43 211.39 408.48 206.06 397.12 204.08 391.36 214.48"/><polyline class="cls-11" points="402.25 187.26 414.2 208.82 402.25 208.82 390.3 208.82 402.25 187.26"/><polygon class="cls-12" points="395.13 200.11 408.25 198.09 404.66 191.6 400.27 190.84 395.13 200.11"/><polyline class="cls-11" points="402.25 182.03 410.19 196.35 402.25 196.35 394.31 196.35 402.25 182.03"/><g class="cls-13"><path class="cls-12" d="M533.59,468.23v-.16c0-44.9-8.51-81.3-19-81.3s-19,36.4-19,81.3v.16Z" transform="translate(0 -174)"/><polygon class="cls-14" points="500.93 276.88 512.31 290.26 512.21 294.23 515.98 294.23 515.49 277.66 527.15 263.95 515.37 273.4 514.49 243.44 519.88 237.1 514.43 241.47 513.98 226.1 513.23 254.79 506.78 249.6 513.17 257.13 512.42 286.1 500.93 276.88"/><path class="cls-15" d="M573.74,468.23v-.16c0-44.9-8.51-81.3-19-81.3s-19,36.4-19,81.3c0,.05,0,.11,0,.16Z" transform="translate(0 -174)"/><polygon class="cls-14" points="541.08 276.88 552.46 290.26 552.35 294.23 556.13 294.23 555.64 277.66 567.29 263.95 555.51 273.4 554.64 243.44 560.03 237.1 554.58 241.47 554.13 226.1 553.38 254.79 546.92 249.6 553.32 257.13 552.56 286.1 541.08 276.88"/><path class="cls-15" d="M476.22,468.34c-.05-20.83-4-37.65-8.9-37.65s-8.85,16.82-8.9,37.65Z" transform="translate(0 -174)"/><polygon class="cls-16" points="460.93 286.72 466.25 292.99 466.22 294.34 467.96 294.34 467.75 287.08 473.2 280.66 467.69 285.09 467.27 271.06 469.8 268.08 467.25 270.13 467.04 262.93 466.69 276.37 463.66 273.94 466.66 277.46 466.31 291.04 460.93 286.72"/><path class="cls-17" d="M503.7,468.23c0-33.82-6.47-61.17-14.39-61.17S475,434.42,474.92,468.23Z" transform="translate(0 -174)"/><polygon class="cls-18" points="478.98 281.61 487.59 291.74 487.53 294.23 490.35 294.23 490 282.2 498.82 271.82 489.91 278.98 489.24 256.3 493.33 251.49 489.2 254.8 488.86 243.16 488.29 264.88 483.4 260.96 488.25 266.65 487.67 288.59 478.98 281.61"/><path class="cls-12" d="M636.73,468.23c-.1-46.05-8.86-83.25-19.66-83.25s-19.55,37.2-19.66,83.25Z" transform="translate(0 -174)"/><polygon class="cls-18" points="602.96 277.28 614.73 291.12 614.64 294.23 618.49 294.23 618.02 278.09 630.07 263.91 617.89 273.69 616.98 242.71 622.56 236.14 616.92 240.67 616.45 224.77 615.68 254.44 609 249.08 615.62 256.86 614.84 286.81 602.96 277.28"/><path class="cls-11" d="M603.84,468.23c0-33.82-6.47-61.17-14.39-61.17S575.1,434.42,575,468.23Z" transform="translate(0 -174)"/><polygon class="cls-18" points="579.11 281.61 587.72 291.74 587.66 294.23 590.49 294.23 590.13 282.2 598.96 271.82 590.04 278.98 589.37 256.3 593.46 251.49 589.33 254.8 588.99 243.16 588.42 264.88 583.53 260.96 588.38 266.65 587.8 288.59 579.11 281.61"/><path class="cls-19" d="M559.61,442.41a11,11,0,0,0-18.08.61,7.71,7.71,0,0,0-1.86-.19,7.63,7.63,0,1,0,3.68,14.4,11,11,0,0,0,14.61.22,7.63,7.63,0,1,0,1.65-15Z" transform="translate(0 -174)"/><path class="cls-20" d="M548.67,459.16a.91.91,0,0,1-.91-.72c0-.09-1-3.64-8.25-6.5a.91.91,0,0,1,.66-1.69c8.38,3.29,9.32,7.64,9.36,7.83a.9.9,0,0,1-.71,1.06Z" transform="translate(0 -174)"/><path class="cls-20" d="M550.92,460.41a.91.91,0,0,0,.87-.76c0-.09.8-3.67,8-6.84a.91.91,0,0,0-.73-1.66c-8.23,3.65-9,8-9,8.21a.91.91,0,0,0,.76,1Z" transform="translate(0 -174)"/><rect class="cls-21" x="547.32" y="445.12" width="7.27" height="23.84" transform="translate(-9.63 -162.13) rotate(-1.22)"/><polygon class="cls-20" points="554.58 282.76 547.4 286.73 547.03 269.3 554.29 269.14 554.58 282.76"/><path class="cls-17" d="M578,433.79a7.93,7.93,0,0,0-4.08-6.77,23.37,23.37,0,0,0-46.43.43,7.93,7.93,0,0,0-3.82,11.42,13.16,13.16,0,0,0,22.08,13.84,23.31,23.31,0,0,0,9.82,0,13.16,13.16,0,0,0,21.36-14.78A7.88,7.88,0,0,0,578,433.79Z" transform="translate(0 -174)"/><path class="cls-22" d="M554.67,461.15a2.16,2.16,0,0,0-2.65,2.16l.11,5.42c0,.07,0,.14,0,.21l2.68-.06Z" transform="translate(0 -174)"/><path class="cls-22" d="M549.84,466.27h0a1,1,0,0,1-1-1v-.72a1,1,0,0,1,1-1h0a1,1,0,0,1,1,1v.72A1,1,0,0,1,549.84,466.27Z" transform="translate(0 -174)"/><path class="cls-22" d="M553.31,460.22h0a.72.72,0,0,1-.74-.71V459a.72.72,0,0,1,.71-.74h0a.72.72,0,0,1,.74.71v.51A.72.72,0,0,1,553.31,460.22Z" transform="translate(0 -174)"/><path class="cls-22" d="M549.88,468.33h0a.59.59,0,0,1-.61-.58v-.42a.59.59,0,0,1,.58-.61h0a.59.59,0,0,1,.61.58v.42A.6.6,0,0,1,549.88,468.33Z" transform="translate(0 -174)"/><circle class="cls-18" cx="558.85" cy="422.03" r="1.53" transform="translate(-8.89 -161.97) rotate(-1.22)"/><circle class="cls-18" cx="562.89" cy="417.79" r="1.08" transform="translate(-8.72 -161.99) rotate(-1.21)"/><circle class="cls-18" cx="557.15" cy="414.19" r="2.66" transform="translate(-8.61 -162.16) rotate(-1.21)"/><path class="cls-23" d="M557.21,467.77a1.94,1.94,0,0,0-1.8-2.78,2,2,0,0,0-.67.14,3.24,3.24,0,0,0-6-.09,2.29,2.29,0,0,0-3,3.15c-1.47.25-2.36.57-2.35.89,0,.68,4,1.15,8.86,1s8.82-.74,8.81-1.42C561,468.29,559.51,467.95,557.21,467.77Z" transform="translate(0 -174)"/></g><g class="cls-24"><path class="cls-12" d="M343.82,469v-.16c0-44.9,8.51-81.3,19-81.3s19,36.4,19,81.3V469Z" transform="translate(0 -174)"/><polygon class="cls-14" points="376.48 277.61 365.11 291 365.21 294.97 361.44 294.97 361.92 278.39 350.27 264.68 362.05 274.14 362.93 244.18 357.53 237.83 362.98 242.21 363.43 226.84 364.18 255.52 370.64 250.34 364.24 257.86 365 286.83 376.48 277.61"/><path class="cls-15" d="M303.68,469v-.16c0-44.9,8.51-81.3,19-81.3s19,36.4,19,81.3c0,.05,0,.11,0,.16Z" transform="translate(0 -174)"/><polygon class="cls-14" points="336.33 277.61 324.96 291 325.06 294.97 321.29 294.97 321.77 278.39 310.12 264.68 321.9 274.14 322.78 244.18 317.38 237.83 322.84 242.21 323.29 226.84 324.03 255.52 330.49 250.34 324.1 257.86 324.85 286.83 336.33 277.61"/><path class="cls-15" d="M401.19,469.07c.05-20.83,4-37.65,8.9-37.65s8.85,16.82,8.9,37.65Z" transform="translate(0 -174)"/><polygon class="cls-16" points="416.49 287.45 411.16 293.72 411.19 295.07 409.46 295.07 409.67 287.82 404.21 281.4 409.73 285.82 410.14 271.79 407.61 268.82 410.17 270.87 410.38 263.67 410.73 277.1 413.75 274.68 410.76 278.2 411.11 291.77 416.49 287.45"/><path class="cls-17" d="M373.71,469c0-33.82,6.47-61.17,14.39-61.17S402.45,435.15,402.5,469Z" transform="translate(0 -174)"/><polygon class="cls-18" points="398.44 282.35 389.82 292.48 389.89 294.97 387.06 294.97 387.41 282.94 378.59 272.56 387.51 279.71 388.17 257.03 384.09 252.22 388.22 255.54 388.56 243.9 389.12 265.62 394.01 261.69 389.17 267.39 389.74 289.32 398.44 282.35"/><path class="cls-12" d="M240.68,469c.1-46.05,8.86-83.25,19.66-83.25S279.89,422.92,280,469Z" transform="translate(0 -174)"/><polygon class="cls-18" points="274.45 278.02 262.69 291.86 262.77 294.97 258.92 294.97 259.4 278.82 247.35 264.65 259.53 274.42 260.44 243.44 254.85 236.88 260.5 241.41 260.96 225.51 261.73 255.17 268.41 249.81 261.8 257.59 262.58 287.55 274.45 278.02"/><path class="cls-11" d="M273.58,469c0-33.82,6.47-61.17,14.39-61.17s14.34,27.35,14.39,61.17Z" transform="translate(0 -174)"/><polygon class="cls-18" points="298.31 282.35 289.69 292.48 289.76 294.97 286.93 294.97 287.28 282.94 278.46 272.56 287.38 279.71 288.04 257.03 283.95 252.22 288.08 255.54 288.43 243.9 288.99 265.62 293.88 261.69 289.04 267.39 289.61 289.32 298.31 282.35"/><path class="cls-19" d="M317.8,443.15a11,11,0,0,1,18.08.61,7.71,7.71,0,0,1,1.86-.19,7.63,7.63,0,1,1-3.68,14.4,11,11,0,0,1-14.61.22,7.63,7.63,0,1,1-1.65-15Z" transform="translate(0 -174)"/><path class="cls-20" d="M328.74,459.9a.91.91,0,0,0,.9-.72c0-.09,1-3.64,8.25-6.5a.91.91,0,1,0-.66-1.69c-8.38,3.29-9.32,7.64-9.36,7.83a.9.9,0,0,0,.71,1.06Z" transform="translate(0 -174)"/><path class="cls-20" d="M326.5,461.15a.91.91,0,0,1-.87-.76c0-.09-.8-3.67-8-6.84a.91.91,0,0,1,.73-1.66c8.23,3.65,9,8,9,8.21a.91.91,0,0,1-.76,1Z" transform="translate(0 -174)"/><rect class="cls-21" x="322.83" y="445.86" width="7.27" height="23.84" transform="translate(643.06 748.42) rotate(-178.78)"/><polygon class="cls-20" points="322.83 283.49 330.02 287.47 330.39 270.03 323.12 269.88 322.83 283.49"/><path class="cls-17" d="M299.4,434.53a7.93,7.93,0,0,1,4.08-6.77,23.37,23.37,0,0,1,46.43.43,7.93,7.93,0,0,1,3.82,11.42,13.16,13.16,0,0,1-22.08,13.83,23.31,23.31,0,0,1-9.82,0,13.16,13.16,0,0,1-21.36-14.79A7.88,7.88,0,0,1,299.4,434.53Z" transform="translate(0 -174)"/><path class="cls-22" d="M322.74,461.89a2.2,2.2,0,0,1,.53-.06,2.17,2.17,0,0,1,2.12,2.21l-.11,5.42c0,.07,0,.14,0,.21l-2.68-.06Z" transform="translate(0 -174)"/><path class="cls-22" d="M327.58,467h0a1,1,0,0,0,1-1v-.72a1,1,0,0,0-1-1h0a1,1,0,0,0-1,1V466A1,1,0,0,0,327.58,467Z" transform="translate(0 -174)"/><path class="cls-22" d="M324.11,461h0a.72.72,0,0,0,.74-.71v-.51a.73.73,0,0,0-.71-.74h0a.72.72,0,0,0-.74.71v.51A.72.72,0,0,0,324.11,461Z" transform="translate(0 -174)"/><path class="cls-22" d="M327.53,469.06h0a.59.59,0,0,0,.61-.58v-.42a.59.59,0,0,0-.58-.61h0a.59.59,0,0,0-.61.58v.42A.6.6,0,0,0,327.53,469.06Z" transform="translate(0 -174)"/><circle class="cls-18" cx="318.56" cy="422.76" r="1.53" transform="translate(-111 558.1) rotate(-88.76)"/><circle class="cls-18" cx="314.53" cy="418.53" r="1.08" transform="translate(-110.56 550.12) rotate(-88.79)"/><circle class="cls-18" cx="320.26" cy="414.93" r="2.66" transform="translate(-101.32 552.37) rotate(-88.79)"/><path class="cls-23" d="M320.2,468.51a1.94,1.94,0,0,1,1.8-2.78,2,2,0,0,1,.67.14,3.23,3.23,0,0,1,6-.09,2.29,2.29,0,0,1,3.31,2.11,2.28,2.28,0,0,1-.27,1c1.46.25,2.36.57,2.35.89,0,.68-4,1.15-8.86,1s-8.82-.74-8.8-1.42C316.39,469,317.9,468.68,320.2,468.51Z" transform="translate(0 -174)"/></g><g class="cls-25"><path class="cls-12" d="M661.26,459.78l.1-.11Z" transform="translate(0 -174)"/><path class="cls-26" d="M663.75,489.8c.17-6.64-14.89,3.26-14.69-2.49s12.41-9.79,10.78-17.24c-1.46-6.66.89-9.73,1.41-10.3-.54.55-3.44,3.11-10.2,2.2-7.56-1-10.58,11.48-16.29,12.16s2.91-15.15-3.69-14.43-7,24.15-13.95,26.21,2.94-25.31-9-19.77-13,34.38-16.47,35.4-1-13.66-8.33-13.62-4.18,31.81-10.46,29.42c-3.89-8.68-17.81-13.85-6.77,7.35,9.27,17.81,5.26,30,3.74,33.41q-5.33,5.52-10.63,11.07c-.54.56.33,1.35.88.81q5.84-5.76,11.6-11.6c4.3-2,15.62-5.66,32.61,1.48,22,9.26,15.74-4.18,6.77-7.35-2.9-6.07,29-5.54,28.46-12.85s-15-3.62-14.25-7.18,29.39-7,33.93-19.33-21.92-.17-20.44-7.3S663.58,496.44,663.75,489.8Z" transform="translate(0 -174)"/><path class="cls-11" d="M538.63,495.18l-.08-.08Z" transform="translate(0 -174)"/><path class="cls-27" d="M536.74,518.69c-.13-5,11.29,2.48,11.14-1.89s-9.42-7.43-8.18-13.07c1.11-5.05-.68-7.38-1.07-7.81.41.42,2.61,2.36,7.74,1.67,5.73-.77,8,8.71,12.36,9.22s-2.21-11.49,2.8-10.95,5.28,18.32,10.58,19.88-2.23-19.2,6.79-15,9.85,26.07,12.5,26.85.76-10.36,6.32-10.33,3.17,24.13,7.94,22.31c3-6.58,13.5-10.5,5.13,5.57-7,13.51-4,22.73-2.83,25.34q4,4.19,8.06,8.4c.41.43-.25,1-.67.61q-4.43-4.37-8.8-8.8c-3.26-1.54-11.85-4.29-24.73,1.12-16.71,7-11.94-3.17-5.13-5.57,2.2-4.6-22-4.2-21.58-9.74s11.37-2.75,10.81-5.45-22.29-5.32-25.74-14.66,16.62-.13,15.51-5.54S536.87,523.72,536.74,518.69Z" transform="translate(0 -174)"/><path class="cls-12" d="M536.69,506.14l0-.07Z" transform="translate(0 -174)"/><path class="cls-12" d="M528.58,519c1.47-3,5.89,4.93,7.14,2.31s-3.26-7.27-.8-10.21c2.2-2.64,1.87-4.55,1.77-4.93.11.37.81,2.19,4,3.36,3.61,1.31,2,7.59,4.45,9.23s2.23-7.44,5-5.59-2.52,12.41.13,15,4.58-12,8.61-6.75S556.71,539.73,558,541s3.63-5.87,6.89-4.14-5.54,15.18-2.18,15.58c3.76-3,11.18-2,1.31,4.86-8.29,5.8-9.33,12.16-9.45,14.05q1.09,3.71,2.17,7.42a.3.3,0,0,1-.58.16q-1.27-3.93-2.48-7.88c-1.45-1.91-5.66-6.17-14.91-6.93-12-1-6.06-5.53-1.31-4.86,2.71-2-11.67-9.23-9.72-12.36s7.54,1.87,8,.11-11.49-10-10.65-16.54,9.83,5,10.83,1.5S527.11,522,528.58,519Z" transform="translate(0 -174)"/></g><g class="cls-28"><path class="cls-12" d="M216.16,459.78l-.1-.11Z" transform="translate(0 -174)"/><path class="cls-26" d="M213.66,489.8c-.17-6.64,14.89,3.26,14.69-2.49s-12.41-9.79-10.78-17.24c1.46-6.66-.9-9.73-1.41-10.3.54.55,3.44,3.11,10.2,2.2,7.56-1,10.58,11.48,16.29,12.16s-2.91-15.15,3.69-14.43,7,24.15,13.95,26.21-2.94-25.31,9-19.77,13,34.38,16.48,35.4,1-13.66,8.33-13.62,4.18,31.81,10.46,29.42c3.89-8.68,17.81-13.85,6.77,7.35-9.27,17.81-5.26,30-3.74,33.41q5.33,5.52,10.63,11.07c.54.56-.33,1.35-.88.81q-5.84-5.76-11.6-11.6c-4.3-2-15.62-5.66-32.61,1.48-22,9.26-15.74-4.18-6.77-7.35,2.9-6.07-29-5.54-28.46-12.85s15-3.62,14.25-7.18-29.39-7-33.93-19.33,21.92-.17,20.44-7.3S213.83,496.44,213.66,489.8Z" transform="translate(0 -174)"/><path class="cls-11" d="M338.78,495.18l.08-.08Z" transform="translate(0 -174)"/><path class="cls-27" d="M340.68,518.69c.13-5-11.29,2.48-11.14-1.89s9.42-7.43,8.18-13.07c-1.11-5.05.68-7.38,1.07-7.81-.41.42-2.61,2.36-7.74,1.67-5.73-.77-8,8.71-12.36,9.22s2.21-11.49-2.8-10.95-5.28,18.32-10.58,19.88,2.23-19.2-6.79-15-9.85,26.07-12.5,26.85-.76-10.36-6.32-10.33-3.17,24.13-7.94,22.31c-3-6.58-13.5-10.5-5.13,5.57,7,13.51,4,22.73,2.83,25.34q-4,4.19-8.06,8.4c-.41.43.25,1,.67.61q4.43-4.37,8.79-8.8c3.26-1.54,11.85-4.29,24.73,1.12,16.71,7,11.94-3.17,5.13-5.57-2.2-4.6,22-4.2,21.58-9.74s-11.37-2.75-10.81-5.45,22.29-5.32,25.74-14.66-16.62-.13-15.5-5.54S340.55,523.72,340.68,518.69Z" transform="translate(0 -174)"/><path class="cls-12" d="M340.73,506.14l0-.07Z" transform="translate(0 -174)"/><path class="cls-12" d="M348.84,519c-1.47-3-5.89,4.93-7.14,2.31s3.26-7.27.8-10.21c-2.2-2.64-1.87-4.55-1.77-4.93-.11.37-.81,2.19-4,3.36-3.61,1.31-2,7.59-4.45,9.23s-2.23-7.44-5-5.59,2.52,12.41-.12,15-4.58-12-8.61-6.75,2.21,18.38.89,19.65-3.63-5.87-6.89-4.14S318,552,314.67,552.44c-3.76-3-11.18-2-1.31,4.86,8.29,5.8,9.33,12.16,9.45,14.05q-1.1,3.71-2.17,7.42a.3.3,0,0,0,.58.16q1.27-3.93,2.48-7.88c1.45-1.91,5.66-6.17,14.91-6.93,12-1,6.06-5.53,1.31-4.86-2.71-2,11.67-9.23,9.72-12.36s-7.54,1.87-8,.11,11.49-10,10.65-16.54-9.83,5-10.83,1.5S350.31,522,348.84,519Z" transform="translate(0 -174)"/></g><path class="cls-29" d="M520.95,462.64s-64.9-64-82.2-100.85c-17.31,36.81-82.2,100.85-82.2,100.85Z" transform="translate(0 -174)"/><path class="cls-30" d="M499.36,462.64s-47.85-64-60.61-100.85C426,398.59,378.14,462.64,378.14,462.64Z" transform="translate(0 -174)"/><path class="cls-31" d="M449.42,462.64s-8.43-41.76-10.67-65.76c-2.25,24-10.67,65.76-10.67,65.76Z" transform="translate(0 -174)"/><path class="cls-32" d="M438.75,361.79s-.74,55,30.92,97.28l-20.24,3.57S433.59,391.12,438.75,361.79Z" transform="translate(0 -174)"/><path class="cls-32" d="M439,361.79s.74,55-30.92,97.28l20.24,3.57S444.16,391.12,439,361.79Z" transform="translate(0 -174)"/><path class="cls-33" d="M451.44,379.27s-10-11.63-12.7-18.31c-2.67,6.68-12.7,18.31-12.7,18.31Z" transform="translate(0 -174)"/><path class="cls-34" d="M438.75,361s72.45,88.7,159.34,106.23" transform="translate(0 -174)"/><path class="cls-34" d="M439.45,361s-70.28,88.52-157.17,106" transform="translate(0 -174)"/><path class="cls-35" d="M442,461.27c-62.91,0-121.91,2-172.81,5.41,35.33,2,102.22,3.36,178.93,3.36,71.95,0,135.25-1.19,172-3C568,463.38,507.07,461.27,442,461.27Z" transform="translate(0 -174)"/><ellipse class="cls-36" cx="442.45" cy="310.42" rx="61.65" ry="2.09"/><path class="cls-37" d="M451.51,477.92a6.13,6.13,0,0,0-6.13,6.13H489v-6.13Z" transform="translate(0 -174)"/><path class="cls-38" d="M482.43,484.06a6.13,6.13,0,1,1,12.27,0Z" transform="translate(0 -174)"/><path class="cls-39" d="M481.34,480.13H461.28a.48.48,0,0,1-.48-.48h0a.48.48,0,0,1,.48-.47h20.06a.48.48,0,0,1,.48.47h0A.48.48,0,0,1,481.34,480.13Z" transform="translate(0 -174)"/><path class="cls-39" d="M469.84,482.34H449.78a.48.48,0,0,1-.48-.48h0a.48.48,0,0,1,.48-.47h20.06a.48.48,0,0,1,.48.47h0A.48.48,0,0,1,469.84,482.34Z" transform="translate(0 -174)"/><path class="cls-37" d="M436.22,477.92a6.13,6.13,0,0,0-6.13,6.13h43.67v-6.13Z" transform="translate(0 -174)"/><path class="cls-38" d="M467.13,484.06a6.13,6.13,0,1,1,12.27,0Z" transform="translate(0 -174)"/><path class="cls-39" d="M466,480.13H446a.48.48,0,0,1-.48-.48h0a.48.48,0,0,1,.48-.47H466a.48.48,0,0,1,.47.47h0A.48.48,0,0,1,466,480.13Z" transform="translate(0 -174)"/><path class="cls-39" d="M454.55,482.34H434.49a.48.48,0,0,1-.48-.48h0a.48.48,0,0,1,.48-.47h20.06a.48.48,0,0,1,.47.47h0A.48.48,0,0,1,454.55,482.34Z" transform="translate(0 -174)"/><path class="cls-37" d="M433.53,477.92a6.13,6.13,0,0,1,6.13,6.13H396v-6.13Z" transform="translate(0 -174)"/><path class="cls-38" d="M402.61,484.06a6.13,6.13,0,1,0-12.27,0Z" transform="translate(0 -174)"/><path class="cls-39" d="M403.7,480.13h20.06a.48.48,0,0,0,.48-.48h0a.48.48,0,0,0-.48-.47H403.7a.48.48,0,0,0-.48.47h0A.48.48,0,0,0,403.7,480.13Z" transform="translate(0 -174)"/><path class="cls-39" d="M415.2,482.34h20.06a.48.48,0,0,0,.47-.48h0a.48.48,0,0,0-.47-.47H415.2a.48.48,0,0,0-.48.47h0A.48.48,0,0,0,415.2,482.34Z" transform="translate(0 -174)"/><path class="cls-37" d="M448.82,477.92a6.13,6.13,0,0,1,6.13,6.13H411.29v-6.13Z" transform="translate(0 -174)"/><path class="cls-38" d="M417.91,484.06a6.13,6.13,0,1,0-12.27,0Z" transform="translate(0 -174)"/><path class="cls-39" d="M419,480.13h20.06a.48.48,0,0,0,.48-.48h0a.48.48,0,0,0-.48-.47H419a.48.48,0,0,0-.47.47h0A.48.48,0,0,0,419,480.13Z" transform="translate(0 -174)"/><path class="cls-39" d="M430.49,482.34h20.06a.48.48,0,0,0,.48-.48h0a.48.48,0,0,0-.48-.47H430.49a.48.48,0,0,0-.47.47h0A.48.48,0,0,0,430.49,482.34Z" transform="translate(0 -174)"/><path class="cls-40" d="M441.48,482.22c9.1,0,16.8-1.81,19.32-4.29H422.17C424.68,480.41,432.38,482.22,441.48,482.22Z" transform="translate(0 -174)"/><path class="cls-41" d="M441.08,478.08s-14.47,2.72-16.49-10.91,14.15-15.31,11.31-28.11c0,0,3.66,3.57,2.61,8.39s3.68,5.25,5.41,1.89-1.16-10.7-4.12-14.9a12.73,12.73,0,0,1-2.57-8s2.16,5.84,5.39,6.8,11.79,8.53,11.08,15.44,1,10.06,3.62,9.43,2.32-9,2.32-9,4.27,8.39,2.9,14.48S456.66,481,441.08,478.08Z" transform="translate(0 -174)"/><path class="cls-42" d="M440.61,477.31a8.59,8.59,0,0,1-8.1-7.54c-1.1-7.36,4.79-8.47,5.15-13.43a7.65,7.65,0,0,1,1.1,5.71c-.74,3.13.74,3.31,2.94,3.31s5.52-5.15,4.42-10.12c0,0,5.34,4.6,4.78,11.41S445.95,477.67,440.61,477.31Z" transform="translate(0 -174)"/><circle class="cls-41" cx="455.15" cy="265.15" r="1.59"/><circle class="cls-41" cx="421.65" cy="281.59" r="1.6"/><circle class="cls-41" cx="464.59" cy="273.37" r="0.98"/><circle class="cls-41" cx="443.25" cy="252.76" r="0.98"/><circle class="cls-41" cx="451.59" cy="424.06" r="0.51" transform="translate(-69.17 585.56) rotate(-75.99)"/><circle class="cls-41" cx="427.3" cy="447.25" r="0.51" transform="translate(-110.53 578.79) rotate(-75.91)"/></g></g></g></g></svg>