<?xml version="1.0" encoding="utf-8"?>
<!-- Generator: Adobe Illustrator 16.0.0, SVG Export Plug-In . SVG Version: 6.00 Build 0)  -->
<!DOCTYPE svg PUBLIC "-//W3C//DTD SVG 1.1//EN" "http://www.w3.org/Graphics/SVG/1.1/DTD/svg11.dtd">
<svg version="1.1" id="圖層_1" xmlns="http://www.w3.org/2000/svg" xmlns:xlink="http://www.w3.org/1999/xlink" x="0px" y="0px"
	 width="480px" height="350px" viewBox="0 0 480 350" enable-background="new 0 0 480 350" xml:space="preserve">
<rect x="-5.072" y="-8" fill="#FFFFFF" width="490.145" height="366"/>
<g opacity="0.4">
	<rect x="-7.949" y="-13.9" fill="#76C9CE" width="500.976" height="376.481"/>
	<g>
		<defs>
			<rect id="SVGID_11_" y="164.493" width="480" height="185.507"/>
		</defs>
		<clipPath id="SVGID_2_">
			<use xlink:href="#SVGID_11_"  overflow="visible"/>
		</clipPath>
		<g clip-path="url(#SVGID_2_)">
			<path fill="#FFFFFF" d="M482.552,217.709v80.805l-14.84,0.458l-8.342,0.263l-16.682,0.518l-3.162,0.099l-3.089,0.1l-2.957,0.092
				l-9.527,0.295l-1.744,0.058l-0.828,0.021l-4.235,0.137l-1.574,0.045l-8.577,0.27l-20.002,0.623l-11.581,0.36l-2.257,0.066
				l-0.484,0.019l-5.626,0.17l-6.006,0.191l-13.936,0.434l-2.86,0.092l-12.401,0.387l-7.724,0.235l-0.832,0.027l-15.511,0.484
				l-0.801,0.025l-5.914,0.185l-1.068,0.032l-10.399,0.321l-0.416,0.013l-15.92,0.5l-0.335,0.005l-4.467,0.14l-1.805,0.058
				l-11.914,0.374l-1.561,0.046l-7.293,0.231l-3.874,0.117l-117.85,3.671l-4.401,0.13l-20.585,0.645l-3.516,0.111l-1.841,0.059
				l-42.534,1.319l-1.239,0.038l-5.89,0.184l-0.897,0.034l-2.159,0.065l-1.166,0.032l-3.278,0.104l-3.877,0.118l-5.226,0.165
				l-1.312,0.04l-12.361,0.384l-23.154,0.723v-48.009c0,0,11.016-17.713,26.066-9.18c1.129-1.235,2.342-2.35,3.62-3.346
				c12.669-9.844,31.936-8.013,42.462,3.745c1.352,1.501,2.551,3.166,3.58,4.988c0,0,0.865-1.808,2.518-3.889
				c2.244-2.806,5.915-6.104,10.84-6.085c0.971,0.007,1.994,0.145,3.056,0.435c-5.231-18.723,19.942-27.886,30.093-15.268
				c2.071-21.228,33.512-37.966,62.148-16.485c22.245-16.407,56.268,5.776,41.873,35.904c20.283-8.48,19.659,3.803,19.659,3.803
				s13.05-24.062,32.022-20.14c0-20.468,36.815-42.966,58.364-19.489c1.861,2.031,3.612,4.4,5.213,7.147
				c4.671-8.472,9.482-12.998,13.627-15.371c6.485-3.718,11.318-2.151,11.318-2.151s-1.199-24.972,22.2-22.086
				c3.646-27.018,59.443-36.682,62.028,12.545c16.322-0.499,17.562,14.316,17.562,14.316S472.054,203.615,482.552,217.709z"/>
			<g>
				<path fill="#E6CFED" d="M482.552,256.637v102.352H-9.279v-131.03c0,0,30.295-14.708,50.75-2.164
					c9.273,5.693,16.42,15.962,22.893,25.562c0.971,1.449,1.936,2.879,2.879,4.274c0.164,0.236,0.321,0.475,0.485,0.709
					c0.414,0.604,0.826,1.207,1.239,1.796c5.365,7.714,10.506,13.989,16.355,15.491c0.695,0.177,1.404,0.288,2.118,0.329
					c1.023,0.05,2.046,0,3.062-0.146h0.007c4.066-0.584,8.099-2.684,12.125-5.601c1.752-1.268,3.496-2.691,5.246-4.212
					c6.217-5.395,12.467-12.019,18.88-17.332c6.531-5.402,13.228-9.448,20.231-9.448c20.224,0,40.842,35.09,62.527,34.999
					c1.449-0.006,2.898-0.171,4.361-0.513c9.2-2.155,20.368,1.902,32.514,7.188c5.036,2.19,10.242,4.592,15.549,6.855
					c5.056,2.15,10.202,4.167,15.377,5.749c3.129,0.957,6.269,1.758,9.412,2.321c1.565,0.29,3.134,0.513,4.693,0.669
					c4.099,0.435,8.177,0.413,12.225-0.21c1.114-0.169,2.23-0.392,3.338-0.662c0.334-0.078,0.674-0.164,1.01-0.257
					c4.826-1.283,9.574-3.534,14.191-6.989c0.846-0.637,1.684-1.311,2.523-2.033c3.759-3.225,7.576-6.623,11.438-10.126
					c5.541-5.022,11.169-10.255,16.827-15.463c0.125-0.111,0.243-0.223,0.366-0.334c1.352-1.246,2.702-2.485,4.053-3.72
					c2.736-2.504,5.476-4.982,8.211-7.422c1.332-1.187,2.663-2.359,3.987-3.521c0.229-0.197,0.452-0.394,0.675-0.584
					c2.802-2.439,5.588-4.812,8.362-7.095c2.517-2.072,5.022-4.073,7.515-5.973c5.744-4.395,11.404-8.283,16.919-11.431
					c11.345-6.468,22.081-9.771,31.694-7.752c12.984,2.734,23.516,11.286,31.352,20.258
					C476.867,243.499,482.552,256.637,482.552,256.637z"/>
				<path opacity="0.1" fill="#9D56A0" d="M323.285,303.472c0.005,5.102-0.619,10.203-2.172,14.853
					c-1.593,4.796-4.17,9.116-8.052,12.465c-0.021,0.015-0.033,0.033-0.053,0.046c-5.148,4.428-11.87,6.493-18.513,7.957
					c-0.23,0.051-0.46,0.099-0.69,0.148c-0.188,0.041-0.387,0.086-0.576,0.12c-3.213,0.681-6.445,1.264-9.699,1.782
					c-3.146,0.5-6.302,0.94-9.47,1.338c-3.62,0.461-7.247,0.873-10.878,1.279c-2.237,0.25-4.467,0.498-6.703,0.748
					c-0.013,0-0.026,0.007-0.039,0.007c-0.053,0.007-0.104,0.013-0.157,0.019c-3.331,0.375-6.663,0.768-9.982,1.199
					c-0.314,0.047-0.628,0.087-0.949,0.126c-2.65,0.36-5.292,0.747-7.922,1.18c-2.288,0.382-4.57,0.794-6.84,1.254
					c-0.918,0.183-1.842,0.379-2.754,0.583c-0.111,0.021-0.225,0.046-0.328,0.072c-1.128,0.242-2.244,0.505-3.357,0.78v0.007
					c-1.103,0.268-2.197,0.551-3.285,0.852c-1.85,0.505-3.686,1.057-5.516,1.653c-1.66,0.543-3.312,1.121-4.951,1.751
					c-0.537,0.203-1.076,0.412-1.613,0.628c-3.259,1.313-6.433,2.79-9.553,4.375c-0.198,0.099-0.389,0.196-0.586,0.295H-9.279
					v-77.499c3.666,1.777,7.096,4.484,9.992,7.298c4.678,4.538,9.273,9.752,14.92,12.677c1.744,0.905,3.588,1.587,5.561,1.968
					c1.699,0.327,3.377,0.406,5.043,0.301c0.407-0.026,0.814-0.064,1.22-0.11c2.63-0.315,5.228-1.068,7.812-2.04
					c1.055-0.395,2.105-0.826,3.16-1.286c4.557-1.961,9.109-4.314,13.783-5.803c0.801-0.256,1.615-0.486,2.421-0.676
					c2.118-0.524,4.263-0.819,6.453-0.786c7.397,0.117,14.8,4.078,21.923,2.06c3.135-0.892,5.816-2.86,8.485-4.775
					c0.414-0.301,0.833-0.596,1.247-0.892c1.789-1.253,3.671-2.419,5.619-3.476c4.859-2.636,10.145-4.577,15.502-5.469
					c6.23-1.024,12.552-0.631,18.421,1.764c14.696,6.005,24.343,23.372,40.199,24.211c12.833,0.683,23.798-10.146,36.625-10.913
					c8.8-0.524,17.063,3.734,25.313,6.833c2.545,0.959,5.121,1.805,7.731,2.533c1.241,0.354,2.479,0.682,3.73,0.979
					c2.422,0.581,4.859,1.072,7.318,1.468c0.538,0.099,1.082,0.177,1.628,0.256c4.163,0.616,8.373,0.964,12.583,1.056
					c0.551,0.013,1.108,0.019,1.659,0.019c3.825,0.028,7.654-0.156,11.463-0.556c1.995-0.205,3.975-0.474,5.948-0.795
					c0.899-0.144,1.796-0.301,2.689-0.479c1.043-0.189,2.086-0.404,3.127-0.636c2.591-0.57,5.154-1.245,7.693-2.02
					c0.386-0.117,0.773-0.236,1.153-0.36c1.961-0.616,3.903-1.298,5.823-2.039c0.287-0.112,0.57-0.224,0.859-0.341
					c5.122-2.021,10.073-4.475,14.786-7.339C323.027,297.162,323.276,300.315,323.285,303.472z"/>
				<path fill="#F8F8F8" d="M90.503,273.811c-1.495,0.898-3.017,1.751-4.558,2.557c-0.951,0.505-1.908,0.991-2.879,1.455
					c-6.826,3.294-14.485,5.807-21.909,4.278c-1.325-0.275-2.629-0.717-3.876-1.307c-5.718-2.688-10.139-8.387-9.403-14.571
					c0.321-2.701,1.567-5.325,1.265-8.033c-0.642-5.777-7.784-8.485-13.555-7.855c-5.127,0.563-10.078,2.707-15.181,2.957
					c-0.644,0.032-1.292,0.037-1.94,0c-5.805-0.327-12.002-5.816-9.831-11.207c0.8-1.98,2.609-3.601,2.735-5.739
					c0.254-4.497-6.243-5.58-10.658-4.676c-3.377,0.689-6.708,1.562-9.992,2.604v-6.314c0,0,30.295-14.708,50.75-2.164
					c9.273,5.693,16.42,15.962,22.893,25.562c0.971,1.449,1.936,2.879,2.879,4.274c0.164,0.236,0.321,0.475,0.485,0.709
					c0.414,0.604,0.826,1.207,1.239,1.796c5.365,7.714,10.506,13.989,16.355,15.491c0.695,0.177,1.404,0.288,2.118,0.329
					C88.464,274.006,89.486,273.956,90.503,273.811z"/>
				<path fill="#F8F8F8" d="M209.52,272.217c-8.157,4.86-18.716,3.717-28.264,2.354c-4.098-0.589-8.381-1.252-11.719-3.712
					c-3.463-2.545-5.363-6.635-8.006-10.033c-2.645-3.39-6.927-6.321-11.013-4.99c-5.771,1.869-8.708,11.267-14.511,9.51
					c-3.122-0.944-4.289-4.834-4.041-8.086c0.25-3.245,1.404-6.48,0.893-9.699c-2.065,0.241-4.191-0.072-6.099-0.894
					c6.531-5.402,13.228-9.448,20.231-9.448C167.216,237.218,187.834,272.308,209.52,272.217z"/>
				<path fill="#F8F8F8" d="M466.111,231.173c-4.918,1.632-9.973,2.287-14.669,0.346c-4.906-2.032-9.864-6.808-14.63-4.466
					c-4.899,2.408-4.134,9.968-7.869,13.942c-2.355,2.512-6.033,3.115-9.371,3.942c-14.114,3.501-28.245,14.224-43.406,9.723
					c-4.919-1.454-8.335-4.077-10.559-7.39c24.796-22.093,49.359-40.52,69.152-36.355
					C447.744,213.649,458.275,222.201,466.111,231.173z"/>
			</g>
		</g>
		<g clip-path="url(#SVGID_2_)">
			<path fill="#246887" d="M319.959,321.812l-7.112-0.929l6.801-1.131c-0.988-6.547-1.962-12.802-2.784-17.767l-4.99-1.709h4.7
				c-0.438-2.581-0.824-4.729-1.141-6.272c-0.854-4.175-2.345-9.091-3.957-13.799l-4.02-1.106l3.563-0.21
				c-3.155-9.009-6.583-16.924-6.583-16.924s-2.499,7.911-5.458,20.409v0.004l5.458,2.597l-6.417,1.547
				c-0.969,4.286-1.957,9-2.911,14.039l5.442-2.278l-5.985,5.232c-3.03,16.809-5.484,36.823-5.062,56.32c26.256,0,35.956,0,35.956,0
				S322.696,340.097,319.959,321.812z"/>
			<path fill="#246887" d="M427.954,321.812l-7.112-0.929l6.801-1.131c-0.988-6.547-1.962-12.802-2.784-17.767l-4.99-1.709h4.7
				c-0.438-2.581-0.824-4.729-1.141-6.272c-0.854-4.175-2.345-9.091-3.957-13.799l-4.02-1.106l3.563-0.21
				c-3.155-9.009-6.583-16.924-6.583-16.924s-2.499,7.911-5.458,20.409v0.004l5.458,2.597l-6.417,1.547
				c-0.969,4.286-1.957,9-2.911,14.039l5.442-2.278l-5.985,5.232c-3.03,16.809-5.484,36.823-5.062,56.32c26.256,0,35.956,0,35.956,0
				S430.691,340.097,427.954,321.812z"/>
			<path fill="#246887" d="M81.172,289.407l6.912-3.116c-2.835-13.646-6.002-26.981-9.375-37.938l-6.839-1.981l5.938-0.855
				c-2.035-6.287-4.256-18.481-6.398-22.501c-2.751,6.782-5.25,21.839-7.696,30.852l5.039,2.519l-5.646-0.248
				c-1.335,5.046-2.617,10.307-3.843,15.669l9.119,6.062l-10.168-1.373c-8.831,40.15-14.381,83.986-14.381,83.986l63.568,6.316
				c0,0-8.811-41.763-16.274-78.278L81.172,289.407z"/>
			<path fill="#247CA7" d="M445.501,291.094l8.205-5.693c-2.834-12.966-5.937-25.616-9.121-35.983l-5.721-1.61l4.876-1.069
				c-1.909-5.942-3.842-11.014-5.76-14.778c-2.027,6.617-3.889,14.633-5.581,23.379l4.254,2.201h-4.673
				c-0.921,4.894-1.789,9.991-2.605,15.186l3.461,1.176l-4.159,3.364c-5.838,38.867-8.833,81.132-8.833,81.132h47.332
				c0,0-5.511-36.145-13-70.839L445.501,291.094z"/>
			<path opacity="0.2" fill="#67A2A0" d="M253.902,287.09l2.588,57.421C256.49,344.511,251.285,314.904,253.902,287.09z"/>
			<path opacity="0.2" fill="#67A2A0" d="M421.383,257.82v53.973C421.383,311.793,424.347,282.244,421.383,257.82z"/>
			<path fill="#247CA7" d="M32.34,315.386l8.205-5.693c-2.836-12.965-5.938-25.617-9.121-35.982l-5.72-1.611l4.875-1.069
				c-1.909-5.942-3.843-11.015-5.76-14.778c-2.026,6.618-3.888,14.635-5.581,23.378l4.254,2.201h-4.673
				c-0.921,4.896-1.788,9.993-2.605,15.186l3.46,1.176l-4.157,3.365c-5.839,38.867-8.833,81.132-8.833,81.132h47.332
				c0,0-5.512-36.143-13.002-70.838L32.34,315.386z"/>
			<path opacity="0.2" fill="#67A2A0" d="M26.236,286.118v53.97C26.236,340.088,29.2,310.539,26.236,286.118z"/>
			<path fill="#2B87BE" d="M332.059,282.981l-10.151-2.222c2.824-13.791,5.911-27.246,9.081-38.27l5.696-1.713l-4.855-1.14
				c1.901-6.32,3.827-11.714,5.737-15.718c2.017,7.04,3.871,15.564,5.555,24.864l-4.235,2.344h4.653
				c0.916,5.204,1.781,10.627,2.596,16.151l-7.09,3.088l7.783,1.739c5.813,41.339,8.795,86.29,8.795,86.29h-47.127
				c0,0,5.488-38.442,12.943-75.342L332.059,282.981z"/>
			<path fill="#247CA7" d="M379.896,312.817l-7.733-1.179l7.396-1.434c-1.075-8.308-2.135-16.246-3.03-22.546l-5.423-2.168h5.11
				c-0.476-3.274-0.898-6.003-1.242-7.959c-0.928-5.297-2.549-11.534-4.302-17.511l-4.371-1.402l3.876-0.268
				c-3.431-11.432-7.161-21.475-7.161-21.475s-2.717,10.039-5.934,25.898v0.004l5.934,3.295l-6.977,1.963
				c-1.055,5.438-2.128,11.419-3.168,17.812l5.922-2.887l-6.51,6.638c-3.295,21.329-5.965,46.726-5.506,71.466
				c28.551,0,39.1,0,39.1,0S382.873,336.019,379.896,312.817z"/>
			<path opacity="0.2" fill="#67A2A0" d="M308.856,252.588l-1.597,75.598C307.26,328.186,305.949,271.487,308.856,252.588z"/>
			<path fill="#2B87BE" d="M40.611,300.16l-10.151-2.222c2.821-13.791,5.91-27.245,9.081-38.271l5.695-1.714l-4.854-1.137
				c1.901-6.321,3.827-11.715,5.735-15.719c2.018,7.039,3.871,15.565,5.557,24.864l-4.236,2.344h4.654
				c0.916,5.204,1.78,10.627,2.594,16.149l-7.088,3.091l7.781,1.738c5.814,41.341,8.797,86.29,8.797,86.29H17.048
				c0,0,5.487-38.44,12.944-75.341L40.611,300.16z"/>
			<path opacity="0.2" fill="#67A2A0" d="M44.422,299.269l-1.596,75.6C42.826,374.868,41.516,318.168,44.422,299.269z"/>
			<path fill="#2B87BE" d="M121.006,318.03l-7.112-0.927l6.8-1.132c-0.986-6.547-1.959-12.801-2.785-17.767l-4.988-1.708h4.699
				c-0.435-2.582-0.823-4.731-1.14-6.273c-0.854-4.175-2.345-9.091-3.958-13.799l-4.018-1.105l3.563-0.21
				c-3.155-9.009-6.585-16.923-6.585-16.923s-2.498,7.91-5.456,20.408v0.003l5.456,2.599l-6.414,1.546
				c-0.97,4.285-1.957,8.999-2.912,14.037l5.81,2.269l-6.352,0.688c-3.031,16.807-5.485,36.821-5.063,56.318
				c26.255,0,35.956,0,35.956,0S123.744,336.315,121.006,318.03z"/>
		</g>
		<path clip-path="url(#SVGID_2_)" fill="#4CADD7" d="M482.552,326.658v32.33H241.835c0,0,0.225-1.822,0.854-4.596
			c0.525-2.354,1.346-5.392,2.565-8.591c0.031-0.078,0.064-0.165,0.098-0.243c0.827-2.132,1.83-4.329,3.041-6.439
			c1.681-2.912,3.76-5.646,6.329-7.812c0.368-0.306,0.742-0.608,1.136-0.89c2.55-1.882,5.554-3.2,9.069-3.614
			c0.78-0.098,1.593-0.145,2.426-0.145c-0.406-3.672,0.314-6.885,1.837-9.606c2.313-4.138,6.479-7.141,11.344-8.924
			c1.462-0.539,2.99-0.967,4.546-1.28c0.124-0.026,0.247-0.047,0.372-0.072c1.26-0.235,2.538-0.4,3.823-0.484
			c0.067-0.014,0.132-0.014,0.197-0.014c0.944-0.064,1.888-0.086,2.826-0.06c2.729,0.06,5.411,0.467,7.896,1.239
			c2.544,0.788,4.877,1.955,6.819,3.518c0.21,0.161,0.407,0.331,0.604,0.51c2.465,2.17,4.223,5.037,4.872,8.63
			c4.282-2.519,6.958-2.622,8.624-1.79c2.669,1.318,2.775,5.003,2.775,5.003s0.49-1.81,1.774-4.387
			c1.109-2.216,2.801-5.01,5.28-7.713c3.087-3.377,7.396-6.608,13.299-8.405c0.938-0.289,1.908-0.538,2.926-0.749
			c2.741-0.556,5.783-0.82,9.153-0.681c0.63-2.965,1.87-5.619,3.548-7.916c1.324-1.823,2.932-3.423,4.716-4.768
			c2.184-1.646,4.629-2.911,7.187-3.75c0.414-0.139,0.833-0.263,1.26-0.374c1.487-0.405,3.01-0.671,4.518-0.762
			c3.077-0.217,6.127,0.217,8.866,1.371c3.954,1.658,7.273,4.82,9.162,9.711c5.29-4.438,9.435-4.74,12.557-3.344
			c4.296,1.928,6.663,7.058,7.438,9.036c0.197,0.499,0.288,0.795,0.288,0.795s0.46-0.362,1.286-0.84
			c0.964-0.571,2.433-1.312,4.235-1.844c0.302-0.09,0.61-0.176,0.926-0.248c0.393-0.098,0.798-0.177,1.213-0.242
			c2.911-0.473,6.388-0.236,9.961,1.823c0.662,0.38,1.34,0.832,2.006,1.351c0.296-0.512,0.617-0.998,0.951-1.442
			c0.768-1.009,1.64-1.856,2.598-2.559c1.291-0.943,2.734-1.618,4.263-2.032c5.264-1.456,11.535,0.104,16.072,3.875
			c6.256,5.199,9.201,14.611,1.627,26.119c8.505,0,10.473,7.18,10.473,7.18s0.367-1.959,2.321-3.617
			C475.404,327.538,478.101,326.364,482.552,326.658z"/>
		<path clip-path="url(#SVGID_2_)" fill="#4CADD7" d="M260.448,352.831c-1.34,0.551-2.604,1.068-3.799,1.562
			c-4.76,1.96-8.394,3.456-11.16,4.596c-0.025,0.008-0.06,0.021-0.085,0.033c-0.42,0.17-0.819,0.334-1.2,0.494
			c-0.893,0.365-1.678,0.692-2.374,0.975c-5.227,2.151-5.227,2.151-5.227,2.151l-1.489-0.02h-0.046l-0.328-0.007l-5.486-0.084
			l-5.045-0.073l-7.862-0.118l-6.388-0.091l-11.816-0.178l-5.227-0.079l-0.361-0.006l-24.48-0.361l-40.396-0.604l-16.793-0.248
			l-3.043-0.048l-0.381-0.005l-1.344-0.021l-15.023-0.222l-30.396-0.444l-10.445-0.159l-6.336-0.092l-0.768-0.013l-0.551-0.006
			l-18.898-0.284l-15.03-0.223l-17.948-0.269V330.98c0,0,8.859-9.85,21.581-5.64c1.036,0.342,2.091,0.778,3.174,1.317
			c1.128-5.9,5.751-9.147,10.761-9.816c0.42-0.059,0.84-0.092,1.26-0.11c1.442-0.071,2.893,0.07,4.275,0.413
			c4.689,1.167,8.676,4.688,9.221,10.492c0.596-0.479,1.174-0.899,1.744-1.272c0,0,0,0,0.006,0c0.381-0.249,0.754-0.473,1.123-0.677
			c0.006-0.005,0.012-0.005,0.02-0.005c1.953-1.069,3.73-1.516,5.33-1.536c3.548-0.057,6.217,1.956,7.916,3.804
			c1.436,1.575,2.176,3.03,2.176,3.03s8.645-19.758,33.715-14.774c0.741,0.144,1.496,0.315,2.27,0.505
			c0.32-0.885,0.693-1.725,1.12-2.505c0.768-1.416,1.698-2.668,2.761-3.758c5.24-5.402,13.535-6.789,20.055-4.04
			c1.816,0.762,3.494,1.842,4.932,3.266c3.188,3.124,5.174,7.857,4.793,14.217c-0.007,0.243-0.026,0.487-0.053,0.735
			c-0.014,0.222-0.033,0.445-0.064,0.669c-0.045,0.445-0.105,0.905-0.178,1.363c14.395-2.615,16.355,7.851,16.355,7.851
			s8.309-13.346,23.018-10.466c0.189-1.928,0.949-3.726,2.15-5.357c10.223-13.87,52.784-15.784,57.06,15.823
			c11.979,0.656,9.922,7.2,9.922,7.2s0.282-0.19,0.78-0.474c1.691-0.943,5.914-2.923,10.451-2.116
			c2.369,0.42,4.829,1.599,7.046,4.093c0.287,0.319,0.569,0.655,0.845,1.021c1.501,1.974,2.88,4.61,4.008,8.106
			C260.342,352.503,260.395,352.669,260.448,352.831z"/>
		<path clip-path="url(#SVGID_2_)" fill="#2B87BE" d="M482.552,336.843v22.146H-9.279v-19.463c0,0,8.124-4.274,20.709-6.813
			c4.439-0.9,9.424-1.575,14.807-1.776c0.23-0.009,0.466-0.013,0.695-0.021c0.676-0.02,1.352-0.031,2.033-0.039
			c4.355-0.025,8.938,0.275,13.673,1.035c0.36,0.06,0.728,0.118,1.089,0.178c0.492,0.092,0.984,0.175,1.476,0.274
			c0.866,0.165,1.737,0.349,2.609,0.553c3.384,0.773,6.82,1.79,10.296,3.101c2.643,0.996,5.299,2.157,7.961,3.509
			c6.656-13.168,18.415-13.751,25.34-8.467c4.032,3.075,6.42,8.146,5.193,13.878c2.04-0.958,3.987-1.548,5.822-1.851
			c5.733-0.957,10.434,0.833,13.674,2.833c0.098,0.053,0.189,0.111,0.281,0.17v0.009h0.008c0.518,0.326,0.996,0.654,1.43,0.977
			c0.873,0.655,1.58,1.271,2.104,1.77c0.722,0.688,1.103,1.148,1.103,1.148s0.897-0.479,2.537-1.214
			c0.524-0.243,1.135-0.506,1.81-0.786c8.893-3.726,30.159-10.756,51.938-4.166c-1.796-18.322,20.632-21.947,30.284-15.336
			c0.099,0.064,0.189,0.123,0.275,0.195c0.301,0.211,0.584,0.439,0.852,0.675c1.254,1.09,2.198,2.395,2.716,3.908
			c0.368,1.05,0.524,2.203,0.433,3.45c0.701-0.007,1.377,0.013,2.033,0.053c1.2,0.071,2.32,0.208,3.364,0.419
			c0.833,0.158,1.612,0.36,2.348,0.59c1.048,0.336,2,0.729,2.878,1.18c0.171,0.088,0.342,0.18,0.514,0.271
			c4.223,2.348,6.432,5.901,7.586,8.762c1.043,2.597,1.215,4.617,1.215,4.617s2.012-1.451,5.389-3.233
			c2.177-1.155,4.918-2.447,8.061-3.574c0.342-0.125,0.694-0.251,1.047-0.369c2.801-0.949,5.884-1.755,9.138-2.221
			c0.273-0.042,0.55-0.073,0.825-0.112c0.053-0.008,0.11-0.014,0.163-0.021c2.206-0.261,4.485-0.366,6.802-0.248
			c0.767,0.032,1.533,0.098,2.307,0.183c-0.543-5.638,2.688-9.634,6.61-11.122c4.441-1.691,9.767-0.17,11.425,5.824
			c0.157-0.032,0.309-0.061,0.458-0.079c4.06-0.708,7.029,0.047,9.201,1.424c0.538,0.348,1.029,0.733,1.476,1.141
			c3.566,3.285,4.211,8.248,4.211,8.248s6.845-14.098,23.423-18.483c1.358-0.362,2.773-0.656,4.262-0.866
			c0.927-0.146,1.884-0.251,2.867-0.316c1.928-0.144,3.954-0.15,6.093-0.006c0.863,0.059,1.745,0.139,2.642,0.25
			c0.211-0.191,0.419-0.367,0.63-0.537l0.006-0.009c2.099-1.698,4.329-2.623,6.5-3.062c4.898-0.982,9.501,0.531,11.666,1.444
			c0.82,0.346,1.291,0.604,1.291,0.604s0.105-0.282,0.335-0.755c0.61-1.24,2.08-3.791,4.768-5.942
			c1.628-1.291,3.686-2.445,6.276-3.074c1.252-0.31,2.63-0.494,4.144-0.513c0.322,0,0.655,0,0.999,0.014
			c0.609-4.453,5.664-9.187,12.662-11.91c5.58-2.176,12.399-3.081,19.181-1.554c5.109,1.142,10.196,3.667,14.722,8.054
			c1.188,1.155,2.336,2.433,3.438,3.85c0.67-0.367,1.337-0.696,1.999-0.99c5.161-2.27,10.087-2.297,14.095-0.743
			c0.49,0.185,0.969,0.396,1.428,0.632c7.063,3.58,10.644,12.36,6.362,21.857c11.384-0.894,14.949,7.816,14.949,7.816
			s4.421-5.043,11.693-6.84C477.508,336.837,479.922,336.589,482.552,336.843z"/>
		<path opacity="0.2" clip-path="url(#SVGID_2_)" fill="#67A2A0" d="M336.698,358.991c0,0,4.979-10.444,20.479-8.631
			c-2.814-14.541,7.126-17.693,13.405-14.021c1.302-3.672,6.042-1.403,6.042-1.403s0.948-10.444,11.255-8.549
			c6.639-7.582,25.711-6.16,25.83,8.529c6.517,0.238,6.28,5.518,6.28,5.518s4.857-5.161,9.596-2.674
			c2.845-7.345,16.47-2.962,12.56,6.991c5.807-0.237,7.7,5.687,6.516,8.885c7.346-1.422,11.61,5.452,11.61,5.452L336.698,358.991z"
			/>
		<path opacity="0.2" clip-path="url(#SVGID_2_)" fill="#67A2A0" d="M325.795,358.935c0,0,0.436-7.852-7.196-7.415
			c-1.745-7.85-12.213-5.233-11.777,2.181c-11.121-2.181-18.1,5.388-18.1,5.388L325.795,358.935z"/>
		<path opacity="0.2" clip-path="url(#SVGID_2_)" fill="#67A2A0" d="M102.3,359.088l-10.701-0.008L60.6,359.049l-10.492-0.007
			l-6.086-0.008h-1.43l-18.808-0.019l-15.089-0.014l-17.975-0.014v-9.062c0,0,11.377-0.879,18.734,1.207
			c1.574,0.444,2.965,1.028,4.02,1.783c4.303-5.424,8.768-5.115,12.027-3.62c2.905,1.337,4.847,3.62,4.847,3.62
			s5.345-6.31,12.185-7.805c0.302-0.072,0.609-0.131,0.924-0.17c0.834-0.132,1.686-0.177,2.552-0.132
			c0.524,0.025,1.056,0.086,1.587,0.19c2.118,0.407,4.287,1.432,6.42,3.351c1.68-0.825,3.476-1.343,5.305-1.593
			c8.57-1.168,17.857,3.605,18.959,10.303c3.521-2.341,8.066-2.487,12.256-1.818c0.945,0.151,1.869,0.348,2.762,0.565
			c0.328,0.079,0.648,0.164,0.963,0.249c3.936,1.061,7.051,2.538,7.844,2.931C102.235,359.055,102.3,359.088,102.3,359.088z"/>
		<g clip-path="url(#SVGID_2_)">
			<path fill="#4C8E67" d="M373.299,276.041c-6.496,0-52.765,81.924-52.765,81.924h105.529
				C426.063,357.965,379.796,276.041,373.299,276.041z"/>
			<path fill="#FFFFFF" d="M363.626,292.839c0,0-1.371,6.629,2.74,7.954c4.117,1.329,6.213-7.808,6.213-7.808
				s3.03,8.768,7.363,7.663c4.327-1.106,1.442-8.694,1.442-8.694s3.059,7.331,8.662,5.607
				c-7.896-12.275-14.566-21.521-16.748-21.521c-2.308,0-9.619,10.314-18.095,23.624
				C358.239,300.475,363.626,292.839,363.626,292.839z"/>
		</g>
		<g clip-path="url(#SVGID_2_)">
			<path fill="#4C8E67" d="M56.201,276.041c-6.496,0-52.764,81.924-52.764,81.924h105.527
				C108.965,357.965,62.697,276.041,56.201,276.041z"/>
			<path fill="#FFFFFF" d="M46.527,292.839c0,0-1.371,6.629,2.742,7.954c4.116,1.329,6.211-7.808,6.211-7.808
				s3.033,8.768,7.364,7.663c4.328-1.106,1.441-8.694,1.441-8.694s3.06,7.331,8.663,5.607
				c-7.896-12.275-14.566-21.521-16.748-21.521c-2.309,0-9.619,10.314-18.095,23.624C41.143,300.475,46.527,292.839,46.527,292.839z
				"/>
		</g>
		<g clip-path="url(#SVGID_2_)">
			<path fill="#61BB98" d="M318.316,287.718c-5.395,0-43.82,68.04-43.82,68.04h87.642
				C362.138,355.758,323.715,287.718,318.316,287.718z"/>
			<path fill="#FFFFFF" d="M310.285,300.45c0,0-1.139,5.507,2.275,6.606c3.419,1.101,5.159-6.483,5.159-6.483
				s2.516,7.277,6.111,6.362c3.598-0.919,1.201-7.219,1.201-7.219s2.541,6.085,7.193,4.656
				c-6.556-10.193-12.097-17.874-13.909-17.874c-1.915,0-7.985,8.565-15.026,19.621C305.811,306.794,310.285,300.45,310.285,300.45z
				"/>
		</g>
		<g clip-path="url(#SVGID_2_)">
			<path fill="#F5CA5F" d="M374.349,358.105c6.608-15.553,29.965-36.996,57.733-36.95c27.643,0.049,50.858,21.397,57.548,36.955
				L374.349,358.105z"/>
			<path fill="#EFA700" d="M374.356,358.105c6.563-15.442,29.63-36.694,57.143-36.943l-0.003,36.946L374.356,358.105z"/>
		</g>
		<g clip-path="url(#SVGID_2_)">
			<path fill="#96C011" d="M414.625,355.587c3.703-8.522,18.041-20.66,35.166-20.66c17.122,0.001,31.455,12.141,35.161,20.66
				H414.625z"/>
			<path opacity="0.53" fill="#82A600" d="M449.421,355.587h-34.796c3.675-8.46,17.835-20.477,34.797-20.651L449.421,355.587z"/>
		</g>
		<g clip-path="url(#SVGID_2_)">
			<path fill="#96C011" d="M30.043,354.771c3.703-8.521,18.04-20.657,35.164-20.657c17.123,0.001,31.457,12.142,35.16,20.66
				L30.043,354.771z"/>
			<path opacity="0.53" fill="#82A600" d="M64.838,354.772l-34.795-0.002c3.676-8.457,17.835-20.475,34.795-20.649V354.772z"/>
		</g>
	</g>
</g>
<path fill="#FFFFFF" stroke="#FA830D" stroke-width="3" stroke-linecap="round" stroke-linejoin="round" stroke-miterlimit="10" d="
	M380,45H100c-5.5,0-10,4.5-10,10v167.079c0,5.5,4.5,10,10,10h120.445C235.025,268.654,263.027,260,263.027,260
	c-17.468-12.524-13.705-21.537-14.46-27.921H380c5.5,0,10-4.5,10-10V55C390,49.5,385.5,45,380,45z"/>
<g>
	<path fill="#878787" d="M156.32,128.122c-0.545,0.944-1.152,1.745-1.809,2.321c-0.273-0.416-0.832-1.008-1.217-1.312
		c1.057-0.784,2.096-2.177,2.721-3.569h-2.32v-1.617h2.625v-2.257h1.809v2.257h2.256v1.617h-2.256v0.592
		c0.641,0.368,2.16,1.457,2.529,1.761l-0.992,1.521c-0.369-0.4-0.961-0.976-1.537-1.504v3.345h-1.809V128.122z M153.406,134.876
		c0.576-0.849,1.121-2.161,1.393-3.297l1.697,0.672c-0.32,1.136-0.785,2.561-1.346,3.489L153.406,134.876z M162.547,134.62
		c0.752,0,0.863-0.224,0.959-1.841c0.385,0.304,1.186,0.577,1.713,0.672c-0.24,2.289-0.768,2.849-2.529,2.849h-2.881
		c-2.176,0-2.721-0.528-2.721-2.193v-2.193h1.873v2.161c0,0.48,0.16,0.544,1.023,0.544H162.547z M160.689,130.651l0.32,0.288v-8.468
		h6.498v8.612h-6.338c0.625,0.576,1.312,1.249,1.697,1.696l-1.377,1.153c-0.449-0.576-1.393-1.553-2.113-2.225L160.689,130.651z
		 M162.738,124.904h2.945v-0.928h-2.945V124.904z M162.738,127.241h2.945v-0.928h-2.945V127.241z M162.738,129.594h2.945v-0.96
		h-2.945V129.594z M166.436,131.371c0.641,0.992,1.568,2.353,2.002,3.185l-1.777,0.913c-0.385-0.849-1.266-2.257-1.889-3.33
		L166.436,131.371z"/>
	<path fill="#878787" d="M175.152,133.788c1.008-0.112,2.049-0.224,3.074-0.336l0.031,1.649c-2.754,0.352-5.73,0.672-7.844,0.896
		l-0.24-1.729c0.896-0.08,2.018-0.176,3.219-0.304v-1.2h-2.402v-1.537h2.402v-1.073h-2.705v-1.537h1.729
		c-0.24-0.48-0.656-1.072-1.025-1.521l0.816-0.448h-2v-1.568h2.176v-0.752l-0.816,0.576c-0.223-0.544-0.801-1.345-1.312-1.921
		l1.152-0.752c0.32,0.336,0.689,0.768,0.977,1.168v-1.713h1.488v3.394h0.736v-3.394h1.521v1.857c0.336-0.432,0.672-0.88,0.863-1.249
		l1.49,0.816c-0.641,0.688-1.312,1.376-1.826,1.84l-0.527-0.336v0.464h2.08v1.568h-2.08l1.088,0.384
		c-0.271,0.544-0.576,1.088-0.863,1.584h1.408v1.537h-2.609v1.073h2.4v1.537h-2.4V133.788z M172.943,126.649
		c0.385,0.464,0.768,1.008,0.928,1.425l-0.943,0.544h1.713c0.303-0.56,0.672-1.344,0.879-1.969H172.943z M184.771,127.481h-1.215
		v6.979c0,0.976-0.193,1.457-0.785,1.76c-0.561,0.32-1.408,0.384-2.656,0.368c-0.098-0.496-0.385-1.312-0.641-1.809
		c0.816,0.032,1.615,0.032,1.873,0.032c0.271,0,0.367-0.08,0.367-0.352v-6.979h-3.441v-1.777h3.441v-4.001h1.842v4.001h1.215
		V127.481z M179.602,132.523c-0.096-0.944-0.592-2.449-1.152-3.618l1.568-0.528c0.594,1.12,1.137,2.577,1.266,3.553L179.602,132.523
		z"/>
	<path fill="#878787" d="M200.709,129.114c-0.48,0.88-1.168,1.632-1.969,2.289c0.912,0.368,1.984,0.625,3.105,0.785
		c-0.32,0.288-0.754,0.896-0.945,1.312c-0.256-0.048-0.496-0.096-0.736-0.16v3.249H198.5v-0.288h-2.178v0.32h-1.584v-3.185
		c-0.305,0.112-0.607,0.192-0.896,0.272c-0.111-0.256-0.336-0.608-0.561-0.896v0.848h-1.824v1.073
		c0.736-0.048,1.488-0.112,2.225-0.176l0.016,1.361c-2.336,0.224-4.801,0.448-6.562,0.592l-0.16-1.457l0.721-0.048v-2.929h1.393
		v2.833l0.785-0.064v-3.185h-2.002v-3.186h5.363v1.841c1.312-0.672,2.24-1.537,2.736-2.385l1.408,0.24
		c-0.096,0.16-0.176,0.32-0.287,0.464h2.369l0.256-0.064L200.709,129.114z M188.977,127.193h-1.826v-3.186h6.035v-0.656h-5.25
		v-1.152h12.518v1.152h-5.395v0.656h6.211v3.186h-1.938v-2.081h-0.945l0.625,0.864c-0.672,0.289-1.568,0.497-2.305,0.656
		c0.977,0.176,2.033,0.433,2.674,0.641l-0.305,1.041c-0.848-0.304-2.48-0.688-3.697-0.88l0.32-0.945l0.336,0.048l-0.354-0.561
		c0.77-0.176,1.938-0.592,2.643-0.864h-3.266v3.122h-1.873v-3.122h-4.193v2.001c0.801-0.112,1.824-0.256,2.945-0.416
		c-0.656-0.256-1.682-0.528-2.482-0.705l0.465-0.864c0.865,0.144,2.049,0.448,2.689,0.704l-0.4,0.816l0.561-0.08l0.064,0.993
		l-3.441,0.752L188.977,127.193z M189.393,130.491h2.256v-0.849h-2.256V130.491z M193.281,132.427
		c0.961-0.224,1.953-0.56,2.834-0.992c-0.336-0.272-0.625-0.544-0.896-0.864c-0.336,0.256-0.705,0.512-1.105,0.72
		c-0.191-0.256-0.576-0.64-0.879-0.849v1.217h-1.777v0.736h1.824V132.427z M199.203,133.083c-0.639-0.208-1.248-0.48-1.809-0.784
		c-0.512,0.304-1.057,0.56-1.615,0.784H199.203z M196.146,129.754c0.336,0.352,0.752,0.688,1.201,0.96
		c0.447-0.288,0.832-0.608,1.168-0.96H196.146z M198.5,135.148v-0.96h-2.178v0.96H198.5z"/>
	<path fill="#878787" d="M215.188,121.671c-0.049,1.008-0.145,1.841-0.385,2.561c1.041,0.496,2.338,1.185,3.059,1.649l-0.834,0.96
		h0.641v3.073h-1.904v-1.633h-9.988v1.633h-1.824v-3.073h0.287c-0.191-0.384-0.527-0.816-0.783-1.073
		c2.736-0.64,3.072-1.792,3.201-4.098h1.648c-0.049,1.024-0.16,1.873-0.4,2.609c0.801,0.432,1.729,1.008,2.273,1.376l-1.168,1.168
		c-0.4-0.336-1.137-0.816-1.826-1.249c-0.463,0.512-1.104,0.928-1.984,1.265h5.922c-0.191-0.417-0.543-0.929-0.848-1.201
		c2.785-0.608,3.09-1.681,3.201-3.97H215.188z M204.975,124.392c-0.256-0.416-0.799-1.104-1.232-1.584l1.137-0.849
		c0.432,0.464,1.025,1.088,1.297,1.489L204.975,124.392z M210.625,132.684h6.02v3.938h-1.889v-0.368h-7.637v0.384h-1.791v-3.954
		h3.682c0.08-0.208,0.176-0.432,0.256-0.656h-2.803v-3.169h8.645v3.169h-4.113L210.625,132.684z M214.756,133.996h-7.637v0.912
		h7.637V133.996z M208.225,130.875h5.01v-0.848h-5.01V130.875z M208.289,124.04c0.352-0.48,0.768-1.185,0.992-1.665l1.232,0.4
		l1.137-0.848c0.432,0.464,1.008,1.088,1.279,1.488l-1.184,0.96c-0.225-0.368-0.672-0.928-1.041-1.393
		c-0.48,0.576-0.959,1.137-1.312,1.489L208.289,124.04z M216.229,126.841c-0.609-0.4-1.441-0.865-2.209-1.265
		c-0.465,0.512-1.17,0.944-2.162,1.265H216.229z M217.973,122.872c-0.545,0.624-1.088,1.265-1.504,1.681l-1.154-0.464
		c0.369-0.496,0.801-1.232,1.025-1.761L217.973,122.872z"/>
	<path fill="#878787" d="M225.969,125.385c-0.176,0.432-0.4,0.848-0.641,1.264h7.443v7.907c0,0.944-0.176,1.457-0.832,1.745
		c-0.625,0.304-1.537,0.32-2.834,0.32c-0.08-0.528-0.336-1.329-0.576-1.841c0.816,0.048,1.744,0.048,2.018,0.048
		c0.271-0.016,0.367-0.096,0.367-0.32v-0.96h-6.018c-0.271,1.201-0.785,2.369-1.777,3.185c-0.256-0.4-0.977-1.2-1.377-1.457
		c1.377-1.2,1.49-2.913,1.49-4.402v-1.296c-0.609,0.64-1.25,1.232-1.986,1.745c-0.287-0.432-0.879-1.12-1.248-1.473
		c1.617-1.072,2.896-2.689,3.842-4.465h-3.473v-1.793h4.289c0.256-0.656,0.465-1.296,0.641-1.937l1.969,0.448
		c-0.16,0.497-0.336,0.993-0.512,1.489h7.811v1.793H225.969z M230.914,131.963v-1.041h-5.746c0,0.336-0.016,0.672-0.031,1.041
		H230.914z M230.914,128.33h-5.746v1.009h5.746V128.33z"/>
	<path fill="#878787" d="M244.963,131.611c-0.209,0.801-0.576,1.569-1.17,2.225c2.082,0.688,4.707,0.752,7.955,0.736
		c-0.352,0.432-0.703,1.232-0.814,1.889c-3.475-0.08-6.42-0.32-8.709-1.329c-1.072,0.608-2.48,1.137-4.338,1.505
		c-0.223-0.448-0.736-1.249-1.152-1.697c1.537-0.24,2.705-0.56,3.617-0.944c-0.623-0.48-1.168-1.088-1.648-1.793l1.457-0.592h-1.697
		v-6.579h4.738v-0.944h-6.131v-1.697h14.021v1.697h-5.889v0.944h4.896v6.579H244.963z M240.256,127.593h2.945v-1.024h-2.945V127.593
		z M240.256,130.059h2.93c0.016-0.176,0.016-0.353,0.016-0.528v-0.512h-2.945V130.059z M240.416,131.611
		c0.465,0.577,0.961,1.024,1.553,1.393c0.465-0.432,0.736-0.88,0.928-1.393H240.416z M248.211,129.018h-3.008v0.528
		c0,0.16,0,0.336-0.018,0.512h3.025V129.018z M245.203,126.569v1.024h3.008v-1.024H245.203z"/>
	<path fill="#878787" d="M267.973,129.53c-2.258,4.866-7.508,6.546-13.605,7.123c-0.145-0.528-0.465-1.361-0.77-1.841
		c2.529-0.176,4.914-0.544,6.932-1.265c-0.447-0.464-1.088-1.008-1.664-1.489c-0.641,0.32-1.328,0.625-2.064,0.88
		c-0.225-0.432-0.77-1.136-1.17-1.473c3.299-1.024,5.506-2.593,6.723-4.146l2.066,0.48c-0.32,0.368-0.625,0.721-0.977,1.073h2.865
		l0.352-0.096L267.973,129.53z M265.859,123.64c-2.064,3.682-6.611,5.667-11.221,6.531c-0.176-0.48-0.543-1.265-0.881-1.681
		c1.617-0.24,3.25-0.64,4.723-1.216c-0.432-0.448-1.008-0.977-1.568-1.441c-0.465,0.256-0.945,0.497-1.457,0.721
		c-0.287-0.433-0.881-1.089-1.297-1.361c2.578-0.96,4.482-2.321,5.555-3.569l2.049,0.48c-0.271,0.288-0.561,0.576-0.863,0.865h3.377
		l0.336-0.08L265.859,123.64z M258.85,124.648c-0.145,0.112-0.305,0.208-0.465,0.32c0.672,0.48,1.344,1.057,1.809,1.553
		c1.023-0.528,1.938-1.168,2.641-1.873H258.85z M261.426,130.555c-0.305,0.208-0.625,0.416-0.928,0.624
		c0.656,0.48,1.375,1.073,1.873,1.585c1.088-0.592,2-1.329,2.688-2.209H261.426z"/>
	<path fill="#878787" d="M283.941,123.8c-1.473,1.569-3.506,3.266-5.508,4.45v6.179c0,1.088-0.256,1.601-1.039,1.889
		c-0.801,0.288-1.938,0.336-3.475,0.32c-0.096-0.561-0.463-1.409-0.768-1.921c1.137,0.048,2.449,0.032,2.801,0.032
		c0.354,0,0.48-0.096,0.48-0.368v-7.091c1.248-0.657,2.625-1.681,3.682-2.625h-9.236v-1.873h11.109l0.416-0.112L283.941,123.8z"/>
	<path fill="#878787" d="M301.51,133.916h-2.723v2.641h-1.809v-2.641h-2.961v-1.633h2.961v-1.44h-1.328
		c-0.191,0.464-0.4,0.88-0.641,1.232c-0.271-0.192-0.848-0.496-1.248-0.672v3.377c0,0.752-0.129,1.232-0.607,1.505
		c-0.496,0.272-1.154,0.32-2.129,0.32c-0.049-0.464-0.305-1.185-0.545-1.617c0.641,0.032,1.264,0.032,1.457,0.032
		c0.191,0,0.271-0.064,0.271-0.272v-2.305h-3.186c-0.16,1.504-0.527,3.057-1.264,4.21c-0.273-0.256-0.961-0.688-1.312-0.849
		c1.072-1.648,1.152-4.034,1.152-5.826v-2.369c-0.32-0.32-0.912-0.8-1.248-1.024c1.088-1.168,1.936-3.041,2.367-4.914l1.682,0.352
		c-0.096,0.384-0.209,0.769-0.336,1.137h1.457l0.24-0.08l1.088,0.672c-0.225,0.624-0.545,1.36-0.881,2.017h1.793v0.977
		c1.328-0.608,1.809-1.537,2.033-2.705h-1.793v-1.553h7.107c0,0-0.018,0.4-0.033,0.608c-0.08,2.545-0.207,3.649-0.561,4.065
		c-0.271,0.336-0.576,0.464-0.977,0.528c-0.352,0.048-0.975,0.064-1.615,0.048c-0.033-0.496-0.193-1.136-0.434-1.537
		c0.498,0.048,0.93,0.064,1.154,0.064c0.191,0,0.318-0.032,0.432-0.176c0.145-0.176,0.225-0.72,0.287-2.049h-1.855
		c-0.273,1.665-0.881,2.993-2.514,3.89l1.424,0.288c-0.062,0.336-0.127,0.688-0.223,1.024h0.783v-1.441h1.809v1.441h2.402v1.601
		h-2.402v1.44h2.723V133.916z M289.535,124.6c-0.176,0.4-0.352,0.8-0.543,1.168h1.377c0.16-0.352,0.303-0.768,0.447-1.168H289.535z
		 M289.137,129.979c0,0.336,0,0.688-0.018,1.056h0.93v-1.329h-0.912V129.979z M289.137,128.362h0.912v-1.201h-0.912V128.362z
		 M291.297,128.362h0.912v-1.201h-0.912V128.362z M292.209,131.035v-1.329h-0.912v1.329H292.209z M293.762,131.131
		c0.527-0.816,0.912-1.985,1.104-3.121c-0.111,0.048-0.223,0.112-0.336,0.16c-0.143-0.32-0.463-0.768-0.768-1.088V131.131z"/>
	<path fill="#878787" d="M305.359,132.219v1.312h-1.682V123.08h4.596v9.14H305.359z M305.359,124.84v5.618h1.217v-5.618H305.359z
		 M307.52,135.453c0.609-0.896,0.977-2.321,1.137-3.602l1.408,0.4c-0.191,1.36-0.512,2.913-1.184,3.857L307.52,135.453z
		 M317.893,129.706c0,0-0.016,0.464-0.033,0.688c-0.143,3.602-0.336,5.058-0.734,5.57c-0.305,0.384-0.625,0.512-1.041,0.576
		c-0.369,0.064-0.992,0.08-1.664,0.064c-0.018-0.512-0.193-1.185-0.449-1.633c0.527,0.064,0.961,0.064,1.201,0.064
		c0.207,0,0.352-0.032,0.48-0.192c0.207-0.256,0.352-1.185,0.463-3.553h-6.947v-8.996h8.293v1.648h-3.025v0.913h2.576v1.488h-2.576
		v0.929h2.576v1.473h-2.576v0.96H317.893z M311.65,131.963c0.271,1.04,0.4,2.385,0.367,3.265l-1.312,0.208
		c0.064-0.88-0.064-2.225-0.287-3.265L311.65,131.963z M310.961,123.944v0.913h1.729v-0.913H310.961z M312.689,126.345h-1.729v0.929
		h1.729V126.345z M310.961,129.706h1.729v-0.96h-1.729V129.706z M313.314,131.723c0.385,0.88,0.705,2.033,0.801,2.769l-1.217,0.384
		c-0.064-0.769-0.369-1.953-0.721-2.833L313.314,131.723z M314.771,134.06c-0.129-0.624-0.48-1.553-0.85-2.241l1.01-0.353
		c0.416,0.672,0.783,1.585,0.943,2.177L314.771,134.06z"/>
	<path fill="#878787" d="M324.449,126.057c0-0.8-0.529-1.312-1.361-1.312c-0.703,0-1.264,0.368-1.775,0.896l-1.297-1.185
		c0.832-0.944,1.969-1.601,3.361-1.601c1.92,0,3.328,0.993,3.328,3.042c0,2.272-2.785,3.041-2.545,5.298h-2.049
		C321.729,128.618,324.449,127.593,324.449,126.057z M321.68,133.916c0-0.864,0.625-1.537,1.457-1.537
		c0.848,0,1.473,0.672,1.473,1.537s-0.625,1.537-1.473,1.537C322.305,135.453,321.68,134.78,321.68,133.916z"/>
	<path fill="#878787" d="M186.053,154.642v2.065h-14.727v-2.065H186.053z"/>
	<path fill="#878787" d="M192.865,160.724c0.848,0.288,1.92,0.352,3.201,0.352c1.215,0.016,5.457,0.016,6.898-0.064
		c-0.289,0.448-0.609,1.312-0.721,1.889h-6.178c-2.963,0-4.867-0.4-6.131-2.193c-0.16,1.089-0.4,2.033-0.736,2.817
		c-0.352-0.224-1.201-0.64-1.602-0.816c0.785-1.617,0.945-4.29,0.977-7.027l1.744,0.128c-0.016,0.705-0.047,1.409-0.08,2.065
		c0.225,0.705,0.529,1.265,0.881,1.697v-4.818h-3.105v-1.665h2.705v-1.489h-2.256v-1.649h2.256v-1.552h1.793v1.552h2.129v1.649
		h-2.129v1.489h2.514v1.665h-2.16v1.729h2.031v1.649h-2.031V160.724z M198.066,160.34c-1.793,0-2.369-0.544-2.369-2.577v-8.788
		h6.178v6.083h-4.336v2.705c0,0.736,0.096,0.864,0.768,0.864h2.064c0.609,0,0.721-0.368,0.816-2.065
		c0.4,0.304,1.152,0.608,1.664,0.736c-0.207,2.273-0.719,3.041-2.32,3.041H198.066z M197.539,150.64v2.769h2.512v-2.769H197.539z"/>
	<path fill="#878787" d="M217.764,157.779c-0.447-0.496-1.264-1.2-2.064-1.856c-0.32,0.528-0.672,0.992-1.072,1.376
		c-0.271-0.224-0.801-0.576-1.248-0.816c1.424,1.889,3.713,3.585,6.113,4.466c-0.463,0.4-1.088,1.216-1.408,1.745
		c-1.936-0.896-3.744-2.337-5.186-4.049v4.658h-2v-4.562c-1.441,1.681-3.234,3.073-5.139,3.954c-0.305-0.464-0.93-1.232-1.346-1.632
		c2.594-1.009,5.092-2.994,6.484-5.154v-3.697h-5.828v-1.873h5.828v-1.969h2v1.969h6.035v1.873h-6.035v3.585
		c0.08,0.128,0.16,0.24,0.24,0.368c1.023-0.913,1.697-2.337,2.016-3.858l1.857,0.336c-0.145,0.592-0.32,1.168-0.527,1.712
		c0.912,0.705,2.016,1.553,2.609,2.097L217.764,157.779z M209.521,152.657c-0.16,0.592-0.354,1.168-0.576,1.729
		c0.576,0.496,1.184,1.024,1.553,1.409l-1.281,1.328c-0.24-0.304-0.641-0.704-1.072-1.12c-0.529,0.864-1.137,1.617-1.842,2.193
		c-0.303-0.336-1.055-0.96-1.473-1.249c1.41-1.008,2.387-2.689,2.834-4.642L209.521,152.657z"/>
	<path fill="#878787" d="M225.809,156.803c-0.465,0.144-0.912,0.288-1.377,0.432v4.146c0,0.833-0.16,1.297-0.623,1.569
		c-0.449,0.288-1.105,0.352-2.082,0.352c-0.064-0.448-0.271-1.185-0.48-1.665c0.561,0.016,1.105,0.016,1.281,0.016
		c0.191,0,0.256-0.064,0.256-0.272v-3.649l-1.377,0.4l-0.416-1.809c0.512-0.112,1.121-0.272,1.793-0.448v-2.737h-1.553v-1.761h1.553
		v-3.009h1.648v3.009h1.088v1.761h-1.088v2.273l1.105-0.304L225.809,156.803z M229.955,158.947c-0.16-0.464-0.498-1.168-0.834-1.809
		v6.146h-1.633v-5.666c-0.416,1.312-0.896,2.529-1.473,3.361c-0.176-0.512-0.576-1.232-0.848-1.665
		c0.768-1.136,1.488-2.993,1.873-4.689h-1.248v-1.777h1.695v-2.081c-0.463,0.08-0.912,0.144-1.344,0.192
		c-0.064-0.384-0.305-0.993-0.496-1.377c1.441-0.224,3.072-0.624,4.098-1.072l1.184,1.425c-0.559,0.208-1.168,0.368-1.809,0.528
		v2.385h1.201v1.777h-1.201v0.448c0.369,0.464,1.426,1.937,1.648,2.273L229.955,158.947z M233.844,152.801
		c0,0.625-0.016,1.265-0.049,1.937c0.289,3.009,0.881,5.714,2.434,6.979c-0.367,0.32-0.928,0.992-1.168,1.472
		c-0.945-0.928-1.568-2.321-1.969-4.001c-0.416,1.457-1.088,2.865-2.145,4.13c-0.24-0.417-0.77-1.088-1.105-1.376
		c1.488-1.841,2.049-4.098,2.273-6.243l-1.105,0.336c-0.127-1.088-0.527-3.009-0.879-4.45l1.168-0.304
		c0.32,1.217,0.672,2.737,0.863,3.842c0.064-0.816,0.08-1.601,0.08-2.337v-4.21h1.602V152.801z M236.164,151.504
		c-0.271,1.489-0.592,3.313-0.896,4.434l-1.152-0.256c0.256-1.168,0.529-3.105,0.625-4.434L236.164,151.504z"/>
	<path fill="#878787" d="M251.973,148.879v14.406h-1.809v-0.752h-9.908v0.785h-1.713v-14.438H251.973z M250.164,161.092V150.32
		h-9.908v10.772H250.164z M249.811,158.803h-2.064v1.024c0,0.608-0.127,0.816-0.576,0.945c-0.432,0.128-1.072,0.128-1.953,0.128
		c-0.08-0.336-0.24-0.672-0.383-0.944c0.447,0.016,0.975,0.016,1.119,0c0.16,0,0.225-0.048,0.225-0.192v-0.96h-2.834
		c0.416,0.4,0.865,0.929,1.072,1.297l-1.264,0.624c-0.209-0.384-0.672-1.008-1.104-1.44l1.008-0.48h-2.48v-1.024h5.602v-0.464h1.568
		v0.464h0.848c-0.111-0.16-0.287-0.352-0.463-0.544c-2.641,0.096-5.283,0.176-7.236,0.208l-0.062-1.008c0.992,0,2.225,0,3.568,0
		v-0.528h-3.168v-3.265h3.168v-0.48h-3.617v-1.024h3.617v-0.592h1.553v0.592h3.65v1.024h-3.65v0.48h3.217v3.265h-0.799
		c0.512,0.4,1.023,0.88,1.328,1.249l-0.848,0.624h0.959V158.803z M242.672,153.89h1.729v-0.464h-1.729V153.89z M244.4,155.106
		v-0.464h-1.729v0.464H244.4z M245.953,153.425v0.464h1.697v-0.464H245.953z M247.65,154.642h-1.697v0.464h1.697V154.642z
		 M245.953,156.418h1.281l-0.176-0.144l0.543-0.368h-1.648V156.418z"/>
	<path fill="#878787" d="M268.42,155.794c-0.48,0.88-1.168,1.632-1.969,2.289c0.912,0.368,1.984,0.625,3.105,0.785
		c-0.32,0.288-0.752,0.896-0.943,1.312c-0.256-0.048-0.496-0.096-0.736-0.16v3.249h-1.666v-0.288h-2.176v0.32h-1.586v-3.186
		c-0.303,0.112-0.607,0.192-0.895,0.272c-0.113-0.256-0.338-0.608-0.561-0.896v0.848h-1.826v1.073
		c0.736-0.048,1.49-0.112,2.227-0.176l0.016,1.361c-2.338,0.224-4.803,0.448-6.562,0.592l-0.16-1.457l0.721-0.048v-2.929h1.391
		v2.833l0.785-0.064v-3.185h-2v-3.186h5.361v1.841c1.312-0.672,2.24-1.537,2.736-2.385l1.41,0.24
		c-0.098,0.16-0.176,0.32-0.289,0.464h2.369l0.256-0.064L268.42,155.794z M256.688,153.874h-1.824v-3.186h6.033v-0.656h-5.25v-1.152
		h12.518v1.152h-5.395v0.656h6.211v3.186h-1.938v-2.081H266.1l0.625,0.864c-0.674,0.288-1.57,0.497-2.307,0.656
		c0.977,0.176,2.033,0.433,2.674,0.641l-0.305,1.04c-0.848-0.304-2.48-0.688-3.697-0.88l0.32-0.945l0.336,0.048l-0.352-0.561
		c0.768-0.176,1.938-0.592,2.641-0.864h-3.266v3.122h-1.873v-3.122h-4.193v2.001c0.801-0.112,1.826-0.256,2.945-0.416
		c-0.656-0.256-1.68-0.528-2.48-0.705l0.465-0.864c0.863,0.144,2.049,0.448,2.688,0.704l-0.398,0.816l0.559-0.08l0.064,0.993
		l-3.441,0.752L256.688,153.874z M257.104,157.171h2.258v-0.849h-2.258V157.171z M260.994,159.107
		c0.959-0.224,1.951-0.56,2.832-0.992c-0.336-0.272-0.623-0.544-0.896-0.864c-0.336,0.256-0.703,0.512-1.104,0.72
		c-0.193-0.256-0.576-0.64-0.881-0.849v1.217h-1.777v0.736h1.826V159.107z M266.916,159.764c-0.641-0.208-1.248-0.48-1.809-0.784
		c-0.512,0.304-1.057,0.56-1.617,0.784H266.916z M263.859,156.435c0.336,0.352,0.752,0.688,1.199,0.96
		c0.449-0.288,0.832-0.608,1.17-0.96H263.859z M266.211,161.829v-0.96h-2.176v0.96H266.211z"/>
	<path fill="#878787" d="M282.898,148.351c-0.047,1.009-0.143,1.841-0.383,2.561c1.039,0.497,2.336,1.185,3.057,1.649l-0.832,0.96
		h0.641v3.073h-1.906v-1.633h-9.986v1.633h-1.826v-3.073h0.289c-0.193-0.384-0.529-0.816-0.785-1.073
		c2.738-0.64,3.074-1.792,3.201-4.098h1.648c-0.047,1.024-0.16,1.873-0.398,2.609c0.799,0.432,1.729,1.008,2.271,1.376l-1.168,1.168
		c-0.4-0.336-1.137-0.816-1.824-1.249c-0.465,0.512-1.105,0.928-1.984,1.265h5.922c-0.193-0.417-0.545-0.929-0.85-1.201
		c2.785-0.608,3.09-1.681,3.203-3.97H282.898z M272.688,151.072c-0.256-0.416-0.801-1.104-1.232-1.584l1.137-0.849
		c0.432,0.464,1.023,1.088,1.295,1.489L272.688,151.072z M278.338,159.364h6.018v3.938h-1.889v-0.368h-7.635v0.384h-1.793v-3.954
		h3.682c0.08-0.208,0.176-0.432,0.256-0.656h-2.801v-3.169h8.643v3.169h-4.113L278.338,159.364z M282.467,160.676h-7.635v0.912
		h7.635V160.676z M275.936,157.555h5.012v-0.849h-5.012V157.555z M276,150.72c0.354-0.48,0.77-1.185,0.992-1.665l1.232,0.4
		l1.137-0.848c0.434,0.464,1.01,1.088,1.281,1.488l-1.186,0.96c-0.223-0.368-0.672-0.928-1.039-1.393
		c-0.48,0.576-0.961,1.137-1.312,1.489L276,150.72z M283.939,153.521c-0.607-0.4-1.439-0.865-2.209-1.265
		c-0.463,0.512-1.168,0.944-2.16,1.265H283.939z M285.684,149.552c-0.543,0.624-1.088,1.265-1.504,1.681l-1.152-0.464
		c0.367-0.496,0.801-1.232,1.023-1.761L285.684,149.552z"/>
	<path fill="#878787" d="M292.994,159.124h-3.025v1.425h-1.729v-10.805h4.754V159.124z M289.969,151.488v5.891h1.279v-5.891H289.969
		z M299.924,161.285c0.848,0,1.008-0.368,1.137-2.017c0.416,0.32,1.184,0.64,1.713,0.736c-0.24,2.241-0.816,3.041-2.674,3.041
		h-3.346c-2.08,0-2.736-0.576-2.736-2.881v-10.853h8.084v8.788h-1.842v-0.928h-4.369v3.009c0,0.96,0.127,1.104,1.072,1.104H299.924z
		 M295.891,151.056v4.386h1.264v-4.386H295.891z M300.26,151.056h-1.377v4.386h1.377V151.056z"/>
	<path fill="#878787" d="M305.295,160.596c0-0.864,0.625-1.537,1.457-1.537s1.473,0.672,1.473,1.537s-0.641,1.537-1.473,1.537
		S305.295,161.46,305.295,160.596z M305.646,151.969l-0.08-2.225h2.369l-0.08,2.225l-0.336,5.906h-1.535L305.646,151.969z"/>
</g>
<g>
	<g>
		<path fill="#007E85" d="M171.441,86.224c1.568,1.764,3.949,3.276,6.469,4.06c-0.672,0.616-1.652,1.82-2.1,2.632
			c-1.176-0.476-2.324-1.064-3.361-1.82c1.316,1.876,2.521,3.976,3.137,5.544l-2.885,1.288c-0.615-1.904-2.295-4.844-3.836-6.972
			l2.27-0.924c-1.26-1.092-2.354-2.408-3.221-3.808h-6.271c-1.064,1.736-2.492,3.304-4.117,4.564l2.492,1.036
			c-0.895,2.072-2.127,4.452-3.695,5.992l-2.771-1.624c1.398-1.26,2.631-3.164,3.416-4.956c-1.037,0.756-2.156,1.4-3.248,1.96
			c-0.504-0.672-1.68-1.96-2.354-2.548c2.521-0.98,4.816-2.492,6.357-4.424h-5.461v-3.052h6.328v-2.688h-4.619v-3.052h4.619v-2.968
			h3.305v2.968h5.488v-2.968h3.359v2.968h4.703v3.052h-4.703v2.688h6.523v3.052H171.441z M161.361,88.296h3.164V97.2
			c0,1.54-0.252,2.38-1.314,2.884c-0.98,0.504-2.408,0.532-4.256,0.532c-0.141-0.924-0.533-2.212-0.953-3.108
			c1.205,0.056,2.465,0.056,2.885,0.056c0.363,0,0.475-0.084,0.475-0.42V88.296z M161.895,83.172h5.488v-2.688h-5.488V83.172z
			 M167.914,91.18c0.756,1.876,1.371,4.312,1.596,5.964l-2.855,0.644c-0.141-1.624-0.756-4.144-1.428-6.048L167.914,91.18z"/>
		<path fill="#007E85" d="M205.49,90.144v2.52h-25.564v-2.52h6.412c-0.168-0.504-0.42-1.036-0.645-1.456l1.178-0.28h-2.857v-5.544
			h17.697v5.544h-1.568c-0.365,0.644-0.756,1.232-1.121,1.736H205.49z M190.93,78.496h-10.051v-2.38h10.051v-1.68h3.389v1.68h10.303
			v2.38h-10.303v1.148h8.623v2.296h-20.131v-2.296h8.119V78.496z M183.455,93.7h18.844v6.888h-3.445V99.86H186.73v0.756h-3.275V93.7
			z M186.73,95.912v1.708h12.123v-1.708H186.73z M187.178,86.364h11.172v-1.4h-11.172V86.364z M189.025,88.408
			c0.336,0.56,0.617,1.204,0.785,1.736h5.768c0.279-0.56,0.531-1.176,0.729-1.736H189.025z"/>
		<path fill="#007E85" d="M223.158,82.22c-0.195,0.28-0.42,0.532-0.615,0.812c2.771,1.792,7.615,3.892,11.646,4.956
			c-0.727,0.672-1.764,2.044-2.295,2.912c-1.793-0.616-3.725-1.484-5.516-2.436v1.54H215.15v-1.148
			c-1.709,0.952-3.584,1.764-5.516,2.436c-0.42-0.756-1.4-2.128-2.072-2.716c5.291-1.596,10.191-4.396,12.656-7.644l1.875,0.812
			c-0.615-0.7-1.68-1.68-2.324-2.156l0.252-0.224h-4.535c0.924,0.812,1.959,1.792,2.492,2.52l-2.436,2.072
			c-0.533-0.84-1.766-2.156-2.773-3.08l1.904-1.512h-1.764c-0.98,1.456-2.045,2.8-3.137,3.836c-0.42-0.7-1.539-2.212-2.184-2.856
			c1.709-1.484,3.359-3.808,4.256-6.104l3.248,0.98c-0.168,0.42-0.363,0.84-0.561,1.26h6.021v2.324
			c1.146-1.232,2.043-2.912,2.604-4.536l3.389,0.868c-0.168,0.448-0.336,0.896-0.533,1.344h7.42v2.884h-5.543
			c0.895,0.756,1.82,1.624,2.295,2.296l-2.379,2.044c-0.533-0.812-1.736-2.128-2.744-3.024l1.596-1.316h-2.184
			c-0.588,0.98-1.289,1.848-1.988,2.548L223.158,82.22z M212.406,91.516h16.688v9.044h-3.332v-0.756h-10.164v0.84h-3.191V91.516z
			 M215.598,94.372v2.548h10.164v-2.548H215.598z M224.223,87.26c-1.316-0.784-2.521-1.568-3.529-2.296
			c-0.895,0.84-1.848,1.568-2.883,2.296H224.223z"/>
		<path fill="#007E85" d="M243.99,96.808c1.68,0.504,3.725,0.616,6.217,0.616c1.902,0,9.547,0,11.844-0.112
			c-0.449,0.644-0.896,1.932-1.064,2.744h-10.779c-5.266,0-8.736-0.532-10.977-3.584c-0.393,1.68-1.008,3.164-1.961,4.312
			c-0.42-0.7-1.26-1.764-1.932-2.268c1.568-1.932,1.848-5.236,1.932-8.596h2.66c-0.027,1.036-0.084,2.044-0.168,3.052
			c0.393,0.896,0.869,1.624,1.428,2.212V88.8h-5.18v-2.408h12.545V88.8h-4.564v2.296h4.031v2.408h-4.031V96.808z M247.322,84.796
			H237.27v-9.24h10.053V84.796z M244.242,77.768h-4.004v1.316h4.004V77.768z M244.242,81.184h-4.004v1.372h4.004V81.184z
			 M254.295,93.252c-1.205,1.568-3.164,3.164-4.9,4.088c-0.477-0.532-1.541-1.484-2.129-1.932c1.652-0.756,3.332-1.848,4.312-3.024
			L254.295,93.252z M252.895,79.476c0.168-0.476,0.307-1.008,0.475-1.512h-4.928V75.64h12.824v2.324h-4.9l-0.672,1.512h4.76v12.712
			h-11.143V79.476H252.895z M257.375,81.716h-5.098v1.288h5.098V81.716z M257.375,85.16h-5.098v1.288h5.098V85.16z M257.375,88.576
			h-5.098v1.344h5.098V88.576z M257.795,92.216c1.482,0.98,3.219,2.464,4.088,3.528l-2.381,1.4
			c-0.867-1.092-2.604-2.744-4.004-3.724L257.795,92.216z"/>
		<path fill="#007E85" d="M272.971,85.188c0.727,1.876,1.512,4.34,1.764,5.824l-2.52,0.896c-0.057-0.392-0.141-0.84-0.252-1.288
			c-5.656,0.784-6.664,1.036-7.309,1.344c-0.168-0.616-0.645-2.072-1.008-2.912c0.729-0.168,1.316-0.784,2.211-1.792
			c0.365-0.392,1.064-1.232,1.85-2.352c-2.213,0.252-2.857,0.42-3.248,0.616c-0.168-0.616-0.645-2.016-0.98-2.828
			c0.561-0.14,1.008-0.672,1.596-1.512c0.615-0.812,2.436-3.92,3.5-6.888l2.939,1.232c-1.064,2.324-2.492,4.732-3.947,6.748
			l1.988-0.14c0.672-1.12,1.371-2.352,1.932-3.528l2.715,1.708c-1.623,2.8-3.668,5.684-5.795,8.064l2.885-0.308
			c-0.197-0.756-0.449-1.484-0.674-2.156L272.971,85.188z M267.342,93.28c-0.225,2.52-0.672,5.208-1.26,6.916
			c-0.561-0.308-1.848-0.7-2.52-0.896c0.645-1.624,0.98-4.172,1.148-6.44L267.342,93.28z M270.311,92.776
			c0.391,1.988,0.729,4.592,0.84,6.328l-2.52,0.504c-0.057-1.708-0.365-4.368-0.701-6.384L270.311,92.776z M273.139,91.936
			c0.643,1.764,1.316,3.976,1.568,5.488l-2.324,0.784c-0.225-1.484-0.896-3.808-1.457-5.544L273.139,91.936z M283.498,80.96v3.192
			h5.293v3.052h-13.58v-3.052h4.871V80.96h-5.656v-3.08h5.656v-3.444h3.416v3.444h5.965v3.08H283.498z M275.715,89.36h12.402v11.144
			h-3.248v-1.092h-6.047v1.204h-3.107V89.36z M278.822,92.356v4.06h6.047v-4.06H278.822z"/>
		<path fill="#007E85" d="M308.334,91.32c2.436,2.408,6.049,4.564,9.549,5.768c-0.785,0.672-1.85,2.044-2.381,2.94
			c-3.248-1.4-6.496-3.696-9.072-6.412v7.028h-3.471V93.84c-2.549,2.604-5.797,4.76-9.018,6.132c-0.531-0.84-1.539-2.128-2.295-2.8
			c3.5-1.232,7.084-3.416,9.547-5.852h-6.58v-8.96h8.346v-2.212h-10.164v-3.08h10.164v-2.576h3.471v2.576h10.275v3.08H306.43v2.212
			h8.652v8.96H308.334z M297.861,88.408h5.098v-3.136h-5.098V88.408z M306.43,85.272v3.136h5.209v-3.136H306.43z"/>
		<path fill="#007E85" d="M322.811,95.688c0-1.596,1.26-2.772,2.912-2.772s2.912,1.176,2.912,2.772c0,1.624-1.26,2.744-2.912,2.744
			S322.811,97.312,322.811,95.688z M323.285,81.408l-0.111-4.172h5.125l-0.141,4.172l-0.98,9.576h-2.883L323.285,81.408z"/>
	</g>
</g>
<g>
	<path fill="#FCCAA0" stroke="#E6A165" stroke-linecap="round" stroke-linejoin="round" stroke-miterlimit="10" d="M348.962,293.415
		l-5.262,31.644c0,0-48.278-17.585-50.724-31.179c-0.944-5.266,11.651-44.956,20.944-72.955
		c8.106-24.425,17.231-17.175,19.849-13.482c0,0,12.063-34.03,2.849,8.855c0,0,17.167-15.034-0.067,5.675
		c0,0-10.858,56.899-11.654,58.602C324.099,282.275,348.962,293.415,348.962,293.415z"/>
	<g>
		<path fill="#E6A165" d="M348.962,293.415c0,0-1.637-0.732-4.049-1.848l-13.688,29.273c5,2.18,12.476,4.218,12.476,4.218
			L348.962,293.415z"/>
	</g>
</g>
<path fill="#141F2E" d="M350.194,288.361l-13.833,40.306c0,0,41.376,17.891,63.268-13.832
	C421.041,275.962,350.194,288.361,350.194,288.361z"/>
<path fill="#141F2E" d="M497.372,288.361l13.833,40.306c0,0-41.376,17.891-63.268-13.832
	C426.525,275.962,497.372,288.361,497.372,288.361z"/>
<g>
	<path fill="#5F3908" d="M385.886,205.815c3.271-56.524,36.966-48.996,41.108-47.493c4.145-1.502,37.839-9.343,41.576,44.846
		c3.736,51.853,33.634,58.393-0.376,100.436c-24.449,26.556-31.492,15.829-42.51,14.948c-11.018,0.881-20.863,10.206-45.312-16.35
		C352.181,271.58,376.811,258.735,385.886,205.815z"/>
	<path fill="#3E230B" d="M429.659,189.621c2.803-1.869,7.475,3.737,10.277,8.408c21.779,21.428,34.794,61.302,38.59,105.247
		c-21.562,8.312-44.594,7.383-52.227,6.773c-9.234,0.738-20.954,1.343-45.396-13.921
		C384.018,258.136,393.481,216.755,429.659,189.621z"/>
	<path fill="#FCCAA0" d="M399.255,214.894c3.836,6.067,4.377,15.849-0.595,18.991c-4.972,3.144-13.575-1.542-17.411-7.609
		c-3.835-6.067-2.914-13.535,2.059-16.679C388.28,206.454,395.421,208.825,399.255,214.894z"/>
	<path fill="#FCCAA0" d="M447.733,216.376c-4.257,5.78-5.49,15.498-0.754,18.986c4.737,3.487,13.65-0.576,17.906-6.357
		c4.257-5.781,3.867-13.294-0.869-16.781C459.279,208.735,451.989,210.595,447.733,216.376z"/>
	<g>
		<defs>
			<path id="SVGID_15_" d="M384.569,284.774c29.736-9.269,21.626-39.971,21.626-39.971l13.71-1.673v-0.258l1.062,0.13l1.062-0.13
				v0.258l13.71,1.673c0,0-8.109,30.702,21.627,39.971c29.737,9.269,36.495,18.537,38.812,55.226h-74.149h-2.124h-74.147
				C348.074,303.312,354.832,294.043,384.569,284.774z"/>
		</defs>
		<clipPath id="SVGID_4_">
			<use xlink:href="#SVGID_15_"  overflow="visible"/>
		</clipPath>
		<path clip-path="url(#SVGID_4_)" fill="#FCCAA0" d="M384.569,284.774c29.736-9.269,21.626-39.971,21.626-39.971l13.71-1.673
			v-0.258l1.062,0.13l1.062-0.13v0.258l13.71,1.673c0,0-8.109,30.702,21.627,39.971c29.737,9.269,24.6,18.537,26.917,55.226h-62.254
			h-2.124H362.36C364.677,303.312,354.832,294.043,384.569,284.774z"/>
		<g clip-path="url(#SVGID_4_)">
			<path fill="#E6A165" d="M407.163,252.083c-0.191-4.337-0.968-7.279-0.968-7.279l13.71-1.673v-0.258l1.062,0.13l1.062-0.13v0.258
				l13.71,1.673c0,0-1.323,5.016-0.938,11.603C431.792,262.548,420.967,271.063,407.163,252.083z"/>
			<g>
				<g>
					<g>
						<g>
							<path fill="#E9AD79" d="M407.752,251.655c-0.103,0.02-0.261,0.166-0.155,0.237l0.344-0.145L407.752,251.655z"/>
							<path fill="#E9AD79" d="M407.695,252.706c0.226,0.009,0.569-0.046,0.779-0.319c-0.361,0.097-0.265-0.018-0.688,0.11
								c-0.105-0.072-0.032-0.239,0.087-0.303c-0.1,0.021-0.047-0.197-0.269-0.115c-0.133,0.293-0.022,0.462,0.288,0.489
								C407.856,252.652,407.754,252.674,407.695,252.706z"/>
							<path fill="#E9AD79" d="M415.738,261.512l-0.041-0.079C415.701,261.464,415.717,261.49,415.738,261.512z"/>
							<path fill="#E9AD79" d="M422.761,264.383c-0.06,0.004-0.088,0.037-0.095,0.069
								C422.724,264.434,422.771,264.416,422.761,264.383z"/>
							<path fill="#E9AD79" d="M424.104,264.831c-0.03-0.009-0.055-0.016-0.082-0.023
								C424.053,264.841,424.085,264.858,424.104,264.831z"/>
							<path fill="#E9AD79" d="M415.738,261.512l0.106,0.205C415.921,261.625,415.806,261.587,415.738,261.512z"/>
							<path fill="#E9AD79" d="M409.378,253.456c-0.039-0.021-0.087-0.025-0.141-0.022c0.033,0.016,0.063,0.033,0.092,0.054
								L409.378,253.456z"/>
							<path fill="#E9AD79" d="M412.917,259.725l-0.046-0.04c-0.041,0.019-0.086,0.045-0.136,0.076L412.917,259.725z"/>
							<path fill="#E9AD79" d="M411.02,258.016c0.032,0.05,0.265-0.152,0.375-0.231c-0.112,0.066-0.186,0.079-0.237,0.06
								C411.114,257.885,411.07,257.938,411.02,258.016z"/>
							<path fill="#E9AD79" d="M408.756,254.67l-0.077-0.027C408.7,254.649,408.73,254.661,408.756,254.67z"/>
							<path fill="#E9AD79" d="M414.302,260.934c-0.024,0.04-0.041,0.077-0.048,0.103
								C414.277,261.006,414.292,260.971,414.302,260.934z"/>
							<path fill="#E9AD79" d="M408.375,249.048c-0.021,0.003-0.035,0.004-0.054,0.006
								C408.354,249.065,408.375,249.067,408.375,249.048z"/>
							<polygon fill="#E9AD79" points="407.084,252.087 407.065,252.047 406.894,252.047 							"/>
							<path fill="#E9AD79" d="M426.705,264.893c-0.006-0.001-0.008-0.001-0.013-0.002
								C426.633,264.939,426.67,264.926,426.705,264.893z"/>
							<path fill="#E9AD79" d="M436.606,246.884c-0.154,0.087-0.227-0.01-0.301-0.119c-0.067-0.146-0.15-0.225-0.342-0.022
								C436.087,246.732,436.381,247.138,436.606,246.884z"/>
							<path fill="#E9AD79" d="M409.385,253.531c0.023,0.023,0.047,0.048,0.065,0.076
								C409.43,253.565,409.409,253.542,409.385,253.531z"/>
							<path fill="#E9AD79" d="M435.964,246.742h-0.003l-0.035,0.031C435.941,246.761,435.95,246.753,435.964,246.742z"/>
							<path fill="#E9AD79" d="M431.878,262.096c-0.044-0.034-0.087-0.052-0.131-0.067
								C431.769,262.052,431.803,262.073,431.878,262.096z"/>
							<path fill="#E9AD79" d="M427.955,263.862l0.113,0.001C428.02,263.852,427.984,263.854,427.955,263.862z"/>
							<path fill="#E9AD79" d="M433.19,260.269c0.056-0.025,0.101-0.011,0.121-0.096c-0.017-0.006-0.029-0.008-0.044-0.008
								C433.28,260.214,433.271,260.255,433.19,260.269z"/>
							<path fill="#E9AD79" d="M434.595,258.497c-0.026-0.004-0.049,0-0.075-0.001l-0.026,0.068L434.595,258.497z"/>
							<path fill="#E9AD79" d="M408.361,245.825c-0.058-0.079-0.099-0.171-0.134-0.261c0.019,0.107-0.006,0.186-0.001,0.229
								c0,0.022,0.002,0.037,0.01,0.044C408.235,245.846,408.252,245.845,408.361,245.825z"/>
							<path fill="#E9AD79" d="M409.243,253.565c0.068-0.039,0.109-0.049,0.142-0.034c-0.017-0.017-0.036-0.031-0.056-0.044
								C409.29,253.511,409.255,253.536,409.243,253.565z"/>
							<path fill="#E9AD79" d="M431.459,258.568l0.236-0.196C431.616,258.417,431.531,258.488,431.459,258.568z"/>
							<path fill="#E9AD79" d="M423.221,244.421l-0.082,0.026C423.167,244.458,423.195,244.452,423.221,244.421z"/>
							<path fill="#E9AD79" d="M432.226,257.644c0.119,0.022,0.205,0.014,0.272-0.011c-0.011-0.024-0.019-0.048-0.043-0.076
								L432.226,257.644z"/>
							<path fill="#E9AD79" d="M408.227,245.562l0.001,0.003L408.227,245.562z"/>
							<path fill="#E9AD79" d="M408.288,246.294c-0.342-0.231-0.509-0.345-0.744-0.504c-0.01-0.015-0.019-0.027-0.024-0.035
								c0.026-0.074,0.413,0.269,0.637,0.428c-0.11-0.093-0.378-0.433-0.292-0.428c0.055,0.06,0.081,0.081,0.131,0.158
								c-0.085-0.15-0.014-0.164,0.044-0.186c0.063-0.022,0.111-0.054,0.151-0.263c0.014,0.038,0.025,0.068,0.036,0.097
								c-0.058-0.197-0.092-0.4-0.108-0.545c0.124-0.023,0.229-0.287,0.312-0.032c-0.089,0.004-0.082,0.11-0.113,0.198l0.136-0.135
								c0.185,0.359-0.188,0.157-0.151,0.436c0.277-0.16,0.578-0.517,0.816-0.439c0.096,0.361-0.509,0.192-0.166,0.48l-0.366-0.096
								c0.342,0.547-0.217-0.012,0.109,0.577c0.472,0.047,0.486-0.255,0.957-0.207c0.076-0.218-0.073-0.298,0.003-0.517
								c0.6-0.453,0.632,0.858,1.045,0.306c0.091-0.262,0.077-0.733,0.449-0.532l-0.061,0.432c0.448-0.018,0.174-0.632,0.675-0.413
								c-0.061,0.174-0.33,0.185-0.257,0.225c0.344,0.289,0.182-0.264,0.413-0.294l0.096,0.362c0.465-0.12,0.949-0.455,1.463-0.591
								c-0.015,0.114-0.089,0.241,0.048,0.338c0.635-0.271,1.412-0.14,2.077-0.005l0.2-0.35c0.058-0.005,0.124,0.13,0.071,0.199
								c0.264,0.088-0.014-0.204,0.089-0.345c0.138-0.04,0.21,0.159,0.133,0.267c0.401-0.328,1.169-0.745,1.674-0.465l-0.077,0.106
								c0.376,0.082,0.319-0.706,0.69-0.452l-0.056,0.064c0.29,0.013,0.584-0.033,0.871-0.076c0.145-0.02,0.287-0.038,0.427-0.057
								c0.123-0.011,0.32-0.024,0.345,0.001c0.021,0.021,0.121,0.049,0.216,0.09c0.091,0.04,0.177,0.091,0.258,0.157
								c0.114-0.463,0.777,0.206,0.828-0.438c0.193,0.138,0.279,0.237,0.369,0.323c0.045,0.043,0.09,0.083,0.15,0.122
								c0.065,0.039,0.151,0.078,0.148,0.119c0.018,0.029-0.019,0.053,0.091,0.097c0.164,0.052,0.302-0.366,0.518-0.406
								l-0.039,0.335l0.326-0.313l0.098,0.42l0.205-0.061c-0.075-0.03-0.145-0.172-0.12-0.267c0.322-0.111,0.707,0.33,0.692,0.502
								l0.753-0.188c-0.033,0.133-0.159,0.163-0.266,0.236c0.428-0.291,0.023,0.361,0.415,0.095
								c-0.037-0.082,0.051-0.196,0.068-0.263c0.147,0.226,0.545,0.279,0.851,0.232l-0.087,0.223
								c0.523,0.129,1.135,0.037,1.73,0.119c-0.199-0.135-0.098-0.527,0.082-0.543l0.023,0.361c0.142-0.202-0.165-0.156,0.102-0.393
								c0.218,0.069,0.097,0.421-0.046,0.519l0.287-0.087c0.002,0.107-0.069,0.155-0.104,0.287c0.14-0.204,0.421,0.416,0.632,0.057
								l0.001,0.106c0.596,0.082,0.882-0.005,1.37,0.042c0.05-0.304,0.23-0.211,0.407-0.438c0.345,0.144,0.709,0.436,1.143,0.466
								c0.321-0.112,0.122-0.246,0.281-0.409c-0.014,0.28,0.419,0.311,0.17,0.48c0.521,0.023,0.666,0.031,1.349-0.109
								c-0.057-0.122-0.129-0.182-0.075-0.271c0.124-0.031,0.254,0.151,0.22,0.283l-0.035,0.024c0.196-0.08,0.394-0.056,0.59,0.018
								c0.048,0.019,0.101,0.041,0.144,0.063c0.019,0.021,0.035,0.042,0.05,0.064c0.029,0.046,0.05,0.097,0.062,0.145
								c0.066,0.193-0.09,0.338,0.27,0.091l-0.038,0.024c0.096-0.052,0.25-0.128,0.262-0.094c0.06-0.025,0.118-0.045,0.176-0.059
								c-0.08,0.135-0.233,0.098-0.45,0.286c0.253-0.087,0.206,0.052,0.155,0.125c-0.055,0.091-0.119,0.127,0.021,0.239
								c-0.896,0.288-0.189,1.524-0.778,2.031l0.197-0.01c0.171,0.174-0.133,0.168-0.19,0.274c0.152,0.002,0.193-0.143,0.287-0.036
								c0.082,1.289-0.538,2.594-0.754,3.918c-0.067,0.483,0.999,0.297,0.523,0.891l-0.359-0.177
								c0.21,0.489,0.207,0.981,0.204,1.476c-0.001,0.246-0.004,0.492,0.022,0.735c0.013,0.114,0.031,0.258,0.059,0.345
								c0.026,0.049,0.062,0.101,0.111,0.16c-0.085-0.035-0.194-0.045-0.194-0.079c-0.132,0.026-0.127,0.091-0.075,0.139
								c0.048,0.032,0.143,0.104,0.24,0.147c-0.042,0.027-0.184-0.069-0.289-0.103c-0.173-0.004,0.092,0.522-0.173,0.453
								c-0.045-0.008-0.048-0.085-0.05-0.122c0.054,0.163-0.302,0.429,0.011,0.499c-0.286,0.184-0.221,0.576-0.516,0.675
								c0.176,0.337-0.452,0.326-0.111,0.664c-0.371-0.323-0.653,0.167-0.619,0.471c-0.066-0.149-0.23,0.023-0.331-0.174
								c-0.144,0.168-0.222,0.378-0.013,0.527c-0.7-0.126-0.282,0.938-0.969,0.528c-0.323,0.634-0.728,1.155-1.189,1.579
								c-0.241-0.424,0.539-0.411,0.221-0.825c-0.338,0.48-0.413,1.024-0.98,1.192c-0.162,0.009-0.024-0.229-0.023-0.326
								c-0.409,0.451-0.99,0.434-1.369,0.853c-0.015-0.044,0.021-0.109,0.056-0.162c-0.088,0.049-0.239,0.009-0.157,0.217
								l0.072-0.09c0.268,0.254-0.167,0.775-0.144,0.943c-0.019-0.662-0.551-0.009-0.503-0.866c-0.051,0.057-0.103,0.181-0.05,0.322
								c-0.106-0.017-0.157-0.096-0.105-0.284c-0.312,0.203-0.137,0.407-0.46,0.471c-0.02-0.106,0.036-0.161,0.042-0.292
								c-0.113,0.239-0.245,0.481-0.538,0.434c0.008-0.067-0.037-0.146,0.045-0.157c-0.453,0.102-0.761,0.664-1.315,0.474
								c0.146-0.473-0.186-0.152-0.212-0.561l-0.278,0.116l0.108,0.201c-0.245-0.012-0.486,0.271-0.694,0.122l0.198-0.154
								l-0.473,0.035l0.251,0.181c-0.277,0.185-0.019,0.521-0.355,0.369c0.076-0.03-0.264-0.036-0.361-0.295l0.001-0.001
								c-0.145,0.109-0.303,0.223-0.475,0.087c-0.025-0.137,0.123-0.437,0.107-0.527c-0.188,0.315-0.597-0.027-0.839,0.282
								c0.073-0.069,0.128-0.276,0.122-0.322l-0.171,0.242c-0.094-0.117-0.099-0.163-0.035-0.323
								c-0.329-0.145-0.029,0.532-0.38,0.199c0.039-0.013,0.035-0.057,0.113-0.077c-0.373-0.229-0.847-0.084-1.171-0.357
								c0.042-0.424,0.355,0.027,0.354-0.344c-0.537-0.12-1.268,0.013-1.723-0.329l0.071,0.087
								c-0.333,0.481-0.237-0.441-0.607-0.335c0.081-0.005,0.233-0.239,0.186-0.191c-0.282-0.262-0.736-0.251-1.325-0.413
								l0.141-0.086c-0.116-0.233-0.451-0.387-0.609-0.582c-0.145,0.081-0.244-0.02-0.301,0.207
								c-0.104-1.114-1.436-0.503-1.509-1.488c0.062,0.051,0.229,0.022,0.181-0.018l-0.52-0.264
								c-0.132,0.22-0.044,0.164-0.081,0.392c-0.152,0.066-0.354,0.048-0.461-0.049c0.306,0.047,0.266-0.307,0.277-0.484
								c-0.038,0.07-0.123,0.108-0.168,0.174c0.076-0.534-0.378,0.345-0.481-0.157l0.105-0.082
								c-0.158-0.054-0.382-0.024-0.479-0.165c0.15-0.26,0.214,0.012,0.386-0.156c-0.181-0.144-0.716,0.085-0.667-0.271
								c0.128,0.011,0.232,0.107,0.359,0.117c0.072-0.406-0.008-0.359-0.09-0.518l0.007,0.017l-0.169-0.384l0.005,0.137
								c-0.744,0.333-0.515-0.319-1.145-0.257c0.606-0.051,0.24-0.144,0.5-0.352c-0.001-0.136-0.03-0.315,0.067-0.349
								c-0.322,0.051-0.055-0.364-0.518-0.289c0.07-0.08-0.125-0.151,0.101-0.302c-0.222-0.119-0.099,0.167-0.211,0.242
								c-0.521-0.03-0.248-0.935-0.97-1.009c-0.453-0.216-0.784-0.052-1.197-0.272c0.039-0.221,0.375-0.154,0.375-0.154
								c-0.026-0.28-0.158-0.397-0.393-0.492c0.101-0.023,0.134-0.108,0.186-0.235c-0.131-0.12-0.377,0.149-0.398-0.131
								c0.117-0.042,0.299-0.12,0.444-0.128c-0.205-0.1-0.487-0.139-0.695-0.25c0.111-0.158,0.302-0.07,0.444-0.086
								c-0.215-0.137-0.515-0.39-0.794-0.271l0.012,0.187c-0.065-0.061,0.172-0.188,0.255-0.17c0.308,0.024,0.101,0.299,0.023,0.374
								l-0.147-0.08c-0.399,0.509,0.458,0.428,0.621,0.689l-0.437,0.183l0.493,0.014c-0.05,0.126-0.218,0.322-0.368,0.245
								c-0.033,0.315,0.251,0.052,0.178,0.359c-0.017,0.041-0.04,0.047-0.066,0.043l0.244,0.084
								c-0.102,0.027-0.226,0.232-0.261,0.087c0.051,0.473,0.668,0.271,0.501,0.604l-0.043-0.007
								c0.472,0.316,0.289-0.175,0.852-0.122l-0.441,0.749l0.287-0.181c0.028,0.051,0.083,0.15-0.03,0.224
								c0.31,0.006,0.085-0.123,0.327-0.175c-0.048,0.406,0.603,0.457,0.253,0.861c0.253-0.102-0.031-0.323,0.295-0.231
								c-0.364,0.45,0.298,0.179,0.277,0.536c-0.267,0.149-0.315-0.131-0.335,0.232c0.463-0.235,0.258,0.426,0.476,0.512
								c0.289-0.271,0.439,0.209,0.785,0.36c-0.109,0.081,0.327,0.617,0.479,0.945l-0.052,0.043c0.317-0.253,0.518,0.03,0.758,0.13
								c-0.165,0.175-0.261,0.217-0.434,0.208l0.178,0.154c0.126-0.062,0.227-0.065,0.371-0.001l-0.24,0.189
								c0.25,0.194,0.707,0.135,0.895,0.542c0.189-0.207,0.243-0.803,0.682-0.693c-0.082,0.128-0.229,0.341-0.354,0.322
								c0.041,0.007,0.179-0.021,0.195,0.075l-0.289,0.097c0.073,0.2,0.206-0.108,0.305-0.001c-0.136,0.169-0.01,0.188-0.131,0.311
								c-0.043-0.007-0.046-0.148-0.143-0.116c0.104,0.133,0.187,0.354,0.141,0.524c0.063-0.106,0.175-0.23,0.289-0.182
								c0.26,0.174-0.069,0.272,0.013,0.472c0.15-0.076,0.223,0.167,0.415-0.093c0.073,0.055,0,0.188-0.021,0.279
								c0.214-0.021,0.652,0.397,0.691,0.009l-0.021-0.042c0.01,0.001,0.018,0.002,0.029,0.003l-0.001-0.001l0.001,0.001
								c0.609,0.022,0.824,0.746,1.359,0.886l-0.054,0.095c0.334,0.046,0.654,0.269,0.957,0.158c0.082,0.04,0.11,0.273,0.019,0.371
								c0.256,0.03,0.326-0.067,0.574,0.236c-0.3,0.073,0.01,0.188-0.285,0.024c0.25,0.214,0.254,0.405,0.683,0.26
								c-0.213,0.213,0.097,0.415,0.271,0.391l-0.141-0.265c0.175,0.022,0.305,0.099,0.44,0.171l-0.2,0.314
								c0.511,0.653,1.354-0.354,1.659,0.479c0.229-0.208-0.312-0.259-0.088-0.512c0.274,0.12,0.484,0.693,0.585,0.714
								c0.393,0.275,0.481-0.453,0.892-0.259c-0.041-0.135-0.042-0.484,0.28-0.569c0.282,0.075,0.318,0.576,0.115,0.662
								c-0.074,0.004-0.106-0.04-0.099-0.084c-0.103,0.039-0.239,0.077-0.133,0.231l0.054-0.125
								c0.138,0.149,0.569,0.167,0.455,0.372c0.247-0.11,0.112-0.205-0.055-0.285c0.388,0.214,0.622,0.039,1.034,0.162
								c-0.067-0.071-0.128-0.223-0.063-0.223c0.604,0.147,0.258-0.25,0.649-0.326c0.239,0.18-0.049,0.479,0.345,0.279
								c0.263,0.109,0.089,0.338-0.006,0.453c0.355-0.283,0.735,0.08,0.971,0.086l-0.188,0.137c0.113-0.082,0.214-0.095,0.316-0.113
								l-0.16-0.235c0.125,0.024,0.226,0.006,0.243,0.112c0.088-0.189-0.169-0.406,0.018-0.681c0.18,0.101,0.421-0.236,0.554,0.083
								c-0.504,0.001,0.137,0.326-0.265,0.475c0.072-0.058,0.17-0.077,0.298-0.062c0.026,0.032,0,0.073-0.027,0.1
								c0.549,0.179,0.123-0.429,0.593-0.555c-0.005,0.205,0.217,0.318,0.283,0.254c-0.194,0.057-0.185-0.279-0.062-0.477
								c0.343,0.046,0.281-0.215,0.437-0.253l-0.195-0.004c-0.008-0.204,0.143-0.23,0.313-0.364c0.073,0.135-0.14,0.166-0.045,0.201
								c0.087-0.399,0.629,0.128,0.84-0.225c0.195,0.054,0.169,0.324,0.332,0.345c0.228-0.393,0.494,0.053,0.751-0.327
								c-0.229-0.171-0.21-0.106-0.098-0.464c0,0-0.117,0.119-0.235,0.237c-0.121,0.116-0.243,0.232-0.243,0.232l0.184-0.528
								c-0.166,0.089-0.278,0.335-0.402,0.348c0.078-0.278,0.087-0.21-0.092-0.362c0.413,0.229,0.34-0.436,0.721-0.355l0.321,0.561
								c0.558,0.002,0.525-0.712,1.092-0.928l-0.221,0.022c-0.086-0.253,0.272-0.244,0.359-0.444
								c0.118,0.181,0.261,0.169,0.41,0.222c-0.108-0.117,0.353-0.269,0.109-0.633l0.386,0.041c0.438-0.24-0.019-0.816,0.344-1.076
								c0.072,0.262,0.328,0.223,0.229,0.559c0.111-0.106,0.236-0.179,0.131-0.285c0.162,0.029,0.08-0.505,0.322-0.469
								c-0.027-0.112-0.181-0.277-0.058-0.391c0.045,0.015,0.08,0.07,0.08,0.07c-0.078-0.07,0.061-0.293-0.215-0.339
								c0.822,0.088,0.755-1.012,1.444-1.01c0.128-0.314,0.28-0.686,0.417-0.951c0.046,0.049,0.092,0.055,0.044,0.093
								c0.39-0.277-0.428-0.488,0.02-0.854c0.464-0.14,0.034,0.345,0.24,0.231c0.345,0.111,0.424-0.1,0.475-0.339
								c-0.001-0.247-0.163-0.506,0.051-0.709l0.047,0.105c0.222-0.404-0.296-0.615-0.256-1.01c0,0,0.062,0.016,0.105-0.001
								c-0.369-0.241-0.496-0.721-0.597-1.078c0.278,0.11,0.148,0.161,0.431,0.093c-0.042-0.159-0.455,0.049-0.533-0.272
								c0.153-0.104,0.287-0.333,0.589-0.359l0.015,0.299c0.391-0.149-0.011-0.386,0.062-0.542l0.17,0.022
								c-0.047-0.455-0.475-0.475-0.427-0.969l-0.131,0.046c-0.413-0.289,0.248-0.216-0.055-0.501l0.436-0.059
								c-0.096-0.182-0.381-0.647-0.438-0.975c0.307,0.205,0.442,0.588,0.621,0.828c0.012-0.175,0.006-0.596-0.2-0.703
								c0.036,0.074,0.136,0.17,0.065,0.235c-0.325-0.237-0.47-0.538-0.432-0.891c0.826,0.136,0.294-0.897,0.973-1.076
								c-0.237-0.649,0.283-1.193,0.347-1.9c-0.683,0.146,0.016-0.208-0.649-0.275c-0.015-0.174,0.008-0.235,0.053-0.242
								c-0.011,0.046,0.533-0.692,0.544-0.723c0.243-0.221,0.099,0.247,0.259,0.221c0.188-0.655,0.348-0.294,0.646-0.813
								c-0.278,0.148-0.315-0.146-0.111-0.579l-0.475,0.647c-0.092-0.378,0.107-0.599,0.323-0.886
								c0.213-0.271,0.446-0.615,0.352-0.955c0.001-0.006,0.182,0.137,0.18,0.144c-0.003-0.078,0.012-0.189,0.034-0.325
								c-0.651-0.044-1.694-0.181-2.315,0.18c-0.025-0.081-0.036-0.268,0.206-0.284c-0.276-0.057-0.601-0.073-0.919-0.07
								c-0.291,0.007-0.705,0.017-0.822,0.058c-0.354,0.066-0.688,0.104-0.916-0.093l0.07-0.156
								c-0.126,0.031-0.249,0.277-0.378,0.095c0.017-0.066,0.07-0.156,0.016-0.174c-0.071,0.049-0.356,0.243-0.503,0.128l0.16-0.164
								c-0.6-0.295-1.021,0.317-1.562,0.359c0.064-0.477-0.409-0.697-0.646-0.807l0.018-0.066c-0.723-0.155-1.292,0.232-1.993,0.331
								c-0.352-0.573-1.394-0.404-2.03-0.783c0.092,0.101-0.065,0.37-0.191,0.401c-0.146-0.117-0.481,0.274-0.399-0.16l0.056,0.016
								c-0.062-0.445-0.403-0.373-0.656-0.419l-0.117,0.567c-0.555-0.92-1.781,0.077-2.046-0.717
								c-0.206,0.118-0.317,0.103-0.615,0.209l0.038-0.308c-0.018-0.004-0.035-0.009-0.046-0.011
								c-0.226-0.019-0.294-0.035-0.386-0.048c-0.09-0.013-0.176-0.022-0.265-0.026c-0.178-0.01-0.37,0-0.64,0.036l0.112-0.223
								c-0.312-0.02-0.394,0.894-0.683,0.911l-0.086-0.462c-0.079,0.001-0.173-0.009-0.349-0.024
								c-0.229,0.01-0.307-0.009-0.431-0.02c-0.117-0.013-0.234-0.022-0.349-0.019c-0.229,0.008-0.451,0.067-0.651,0.271
								c0-0.068-0.002-0.202,0.083-0.232c-0.256,0.021-1.024-0.181-0.85,0.436c-0.061-0.408-0.562,0.034-0.831,0.253l0.006-0.309
								c-0.195,0.419-0.189,0.525-0.52,0.678c-0.087-0.029-0.104-0.232,0.015-0.17c-0.292-0.122-0.174,0.314-0.524,0.196
								l0.098-0.209c-0.283,0.014-0.247,0.114-0.371,0.359c-0.16,0.145-0.541-0.007-0.618-0.274
								c-0.016,0.172-0.14,0.415-0.314,0.357c-0.036-0.101,0.016-0.172,0.042-0.207c-0.494-0.145-0.648,0.442-1.01,0.188
								c-0.02-0.099-0.047-0.146-0.077-0.173c0.372-0.042,0.673-0.064,0.647-0.039c-0.036-0.278-0.343-0.288-0.154-0.704
								c-0.213,0.242-0.565,0.752-0.875,0.66c-0.018-0.025-0.035-0.05-0.051-0.092l0.026-0.035
								c-0.071-0.019-0.129,0.015-0.179,0.069c-0.1-0.033-0.164-0.06-0.254-0.052c-0.064-0.226-0.36-0.079-0.511-0.07
								c0.052,0.303-0.15,0.279,0.066,0.507c-0.026-0.019,0.023-0.04,0.121-0.066c0.021-0.012,0.047-0.02,0.06-0.039l-0.007,0.028
								c0.098-0.019,0.226-0.042,0.369-0.069c-0.098,0.171-0.204,0.316-0.392,0.169c-0.051,0.206-0.109,0.419-0.145,0.52
								c-0.26-0.398-0.685-0.576-0.774-0.831c-0.434,0.231-1.061,0.254-1.272,0.864c-0.12,0.091-0.171-0.144-0.231-0.228
								c0.067-0.067,0.157-0.07,0.188-0.158c-0.24,0.182-0.762,0.158-0.771,0.566c-0.351-0.138,0.136-0.393-0.306-0.268l0.045-0.131
								c-0.487-0.261-0.804,0.04-1.157,0.323c-0.53,0.307-0.748,0.549-1.743,0.262c0.138,0.033,0.202,0.049,0.272,0.107
								c-0.393-0.023-0.828-0.024-1.136,0.059c0.318,1.246,0.898,2.555,0.551,3.315c-0.068,0.323,0.19,0.318,0.411,0.479
								l-0.318,0.113l0.422,0.271c0.336,0.43-0.707,0.886-0.125,1.407l0.214-0.097c-0.02,0.213,0.191,0.652-0.066,0.64
								c0.042,0.018,0.236,0.049,0.128,0.141l-0.172,0.021l0.333,0.492c-0.1,0.409-0.686-0.015-0.686,0.564
								c0.08,0.208,0.533,0.587,0.646,0.501c0.005-0.087,0.097-0.229,0.27-0.244l0.1,0.195c0.511,0.012,1.039,0.152,1.37-0.373
								l-0.331-0.334l0.24-0.129l0.032,0.296c0.222-0.182,0.012-0.277-0.138-0.388c0.129-0.036,0.217-0.092,0.262-0.166l-0.51-0.311
								c0.195-0.057,0.406,0.126,0.498-0.115c-0.238-0.145-0.434,0.188-0.603-0.066c0.217-0.186,0.409-0.153,0.196-0.333
								c0.128-0.039,0.215-0.005,0.278,0.069c-0.17-0.163-0.108-0.461-0.386-0.525c0.268-0.203-0.135-0.583,0.346-0.618
								c-0.12-0.043-0.411-0.267-0.45-0.424c0.609,0.225-0.042-0.605,0.58-0.609c-0.543-0.149-0.339-0.759-0.687-1.1
								c0.044,0.015,0.133,0.044,0.112,0.082c0.008-0.224,0.15-0.312,0.225-0.469c-0.213,0.031-0.363-0.069-0.484-0.116
								c-0.117-0.025-0.22-0.081-0.364-0.137c0.402-0.094,0.526,0.082,0.921,0.03c-0.349,0.024-0.374-0.114-0.675-0.146
								c0.256-0.021,0.117-0.045,0.495,0.044c-0.584-0.201-0.105-0.067-0.483-0.281c0.274,0.045,0.567,0.282,0.361,0.1
								C408.061,246.134,408.291,246.305,408.288,246.294z M413.466,244.675l0.001,0.006c-0.063,0.016-0.118,0.029-0.152,0.038
								C413.346,244.709,413.39,244.696,413.466,244.675z M414.094,244.587c-0.078-0.002-0.174,0.009-0.274,0.024
								c-0.036-0.103-0.026-0.214,0.038-0.217C413.832,244.47,413.988,244.511,414.094,244.587z M412.486,242.65
								c0.094-0.057,0.136-0.001,0.157,0.06c-0.046,0.011-0.1,0.028-0.169,0.06l-0.007,0.038
								C412.47,242.748,412.473,242.692,412.486,242.65z"/>
							<path fill="#E9AD79" d="M412.36,243.072c-0.014,0.009-0.02,0.023-0.038,0.028c0.023,0.024,0.046,0.044,0.068,0.061l0.022-0.1
								L412.36,243.072z"/>
							<path fill="#E9AD79" d="M415.689,261.419l0.008,0.014c-0.003-0.017-0.005-0.033,0-0.053
								C415.696,261.397,415.691,261.406,415.689,261.419z"/>
							<polygon fill="#E9AD79" points="422.501,244.479 422.51,244.401 422.446,244.462 							"/>
							<path fill="#E9AD79" d="M413.587,258.45c0.013-0.025,0.021-0.054,0.019-0.089
								C413.594,258.378,413.589,258.412,413.587,258.45z"/>
							<path fill="#E9AD79" d="M412.553,257.392l-0.072-0.225C412.501,257.274,412.527,257.342,412.553,257.392z"/>
							<path fill="#E9AD79" d="M411.861,256.479c-0.049,0.026-0.08,0.052-0.11,0.074v0.004L411.861,256.479z"/>
							<path fill="#E9AD79" d="M427.169,261.96c0.013-0.006,0.023-0.015,0.032-0.026
								C427.268,261.844,427.217,261.889,427.169,261.96z"/>
							<path fill="#E9AD79" d="M422.24,263.145c0.063-0.047,0.125-0.094,0.188-0.12C422.339,262.987,422.269,262.973,422.24,263.145
								z"/>
							<polygon fill="#E9AD79" points="431.433,258.59 431.437,258.594 431.459,258.568 							"/>
							<path fill="#E9AD79" d="M422.667,263.06c-0.085-0.072-0.163-0.067-0.239-0.035C422.5,263.056,422.585,263.097,422.667,263.06
								z"/>
							<path fill="#E9AD79" d="M408.774,252.639l-0.022-0.051c-0.016,0.013-0.031,0.021-0.044,0.024L408.774,252.639z"/>
							<path fill="#E9AD79" d="M408.708,252.612l-0.066-0.026C408.659,252.608,408.676,252.626,408.708,252.612z"/>
							<path fill="#E9AD79" d="M408.503,252.53l0.139,0.056C408.616,252.55,408.591,252.501,408.503,252.53z"/>
							<path fill="#E9AD79" d="M409.598,253.911l0.098-0.058C409.671,253.861,409.64,253.879,409.598,253.911z"/>
							<path fill="#E9AD79" d="M409.914,254.244c-0.051-0.101,0.008-0.361-0.141-0.436l-0.078,0.045
								C409.867,253.805,409.702,254.284,409.914,254.244z"/>
							<path fill="#E9AD79" d="M410.145,256.613l-0.198-0.354c-0.043,0.131-0.102,0.306-0.242,0.189
								C409.774,257.059,409.832,256.196,410.145,256.613z"/>
							<path fill="#E9AD79" d="M410.86,257.63c-0.189-0.116-0.123,0.121-0.179,0.16C410.854,257.812,410.896,257.816,410.86,257.63z
								"/>
							<path fill="#E9AD79" d="M418.015,263.027l-0.14,0.244C418.047,263.307,417.922,263.174,418.015,263.027z"/>
							<polygon fill="#E9AD79" points="420.106,262.325 420.024,262.112 419.871,262.329 							"/>
							<polygon fill="#E9AD79" points="420.487,264.524 420.402,264.543 420.714,264.52 							"/>
							<path fill="#E9AD79" d="M434.585,258.986l-0.311-0.16C434.256,258.956,434.553,259.206,434.585,258.986z"/>
							<path fill="#E9AD79" d="M435.562,252.319c0.175-0.061,0.293-0.229,0.129-0.345
								C435.662,252.112,435.522,252.247,435.562,252.319z"/>
							<polygon fill="#E9AD79" points="424.53,241.959 424.672,241.86 424.421,241.925 							"/>
						</g>
					</g>
				</g>
			</g>
		</g>
	</g>
	<path fill="#FCCAA0" d="M454.711,188.082c0.21,0.612,6.808,42.432-8.544,57.928s-41.902,6.325-48.371-9.558
		c-5.582-13.708-6.662-39.536,4.2-55.322C412.858,165.344,443.994,156.655,454.711,188.082z"/>
	<g>
		<g>
			<path fill="#E6A165" d="M434.739,199.464c-0.458,5.062-0.917,10.124-1.375,15.187c-0.234,2.588-0.468,5.176-0.702,7.764
				c-0.09,0.989,0.256,0.371-0.477,0.514c-1.272,0.249-2.545,0.498-3.817,0.746c-0.519,0.102-0.298,0.892,0.219,0.791
				c1.508-0.295,3.016-0.589,4.524-0.884c0.188-0.037,0.285-0.223,0.301-0.396c0.716-7.907,1.432-15.814,2.147-23.722
				C435.607,198.937,434.787,198.941,434.739,199.464L434.739,199.464z"/>
		</g>
	</g>
	
		<ellipse transform="matrix(0.999 -0.0437 0.0437 0.999 -8.8953 18.3707)" fill="#4F3315" cx="415.913" cy="212.729" rx="1.822" ry="2.607"/>
	<g>
		<g>
			<path fill="#E6A165" d="M387.237,217.857c3.073,0.204,5.213,2.793,4.45,5.876c-0.498,2.012-2.793,1.777-3.803,0.354
				c-0.677-0.955-0.405-1.965,0.72-2.301c0.998-0.298,2.074,0.157,2.724,0.912c0.346,0.401,0.923-0.182,0.58-0.58
				c-1.187-1.38-5.066-1.997-5.222,0.639c-0.124,2.097,2.229,3.86,4.198,3.122c2.499-0.938,2.058-4.907,0.795-6.622
				c-0.991-1.349-2.801-2.11-4.442-2.22C386.709,217.002,386.713,217.822,387.237,217.857L387.237,217.857z"/>
		</g>
	</g>
	<g>
		<g>
			<path fill="#E6A165" d="M461.716,219.047c-1.645,0.109-3.323,0.858-4.379,2.136c-1.429,1.73-1.69,5.534,0.634,6.664
				c1.943,0.944,4.161-0.924,4.31-2.859c0.086-1.122-0.979-1.828-1.938-2.03c-1.215-0.255-2.502,0.246-3.297,1.17
				c-0.343,0.398,0.234,0.981,0.58,0.58c1.201-1.396,4.828-1.265,3.554,1.208c-0.815,1.581-3.104,1.851-3.831,0.078
				c-1.27-3.091,1.387-5.929,4.368-6.126C462.24,219.832,462.244,219.012,461.716,219.047L461.716,219.047z"/>
		</g>
	</g>
	<g>
		<ellipse fill="#EF8267" cx="445.024" cy="227.9" rx="5.648" ry="4.562"/>
	</g>
	<g>
		<ellipse fill="#EF8267" cx="407.177" cy="225.191" rx="5.648" ry="4.562"/>
	</g>
	<path fill="#4F3315" d="M410.983,201.883c0.568,1.19,2.776-0.055,5.593-1.395s5.174-2.271,4.606-3.463
		c-0.567-1.191-3.311-1.069-6.127,0.271C412.239,198.637,410.416,200.689,410.983,201.883z"/>
	<path fill="#4F3315" d="M439.3,198.552c-0.516,1.214,1.881,2.041,4.752,3.261c2.871,1.219,5.131,2.366,5.646,1.152
		c0.516-1.215-1.395-3.188-4.266-4.406C442.562,197.34,439.815,197.336,439.3,198.552z"/>
	<g>
		<g>
			<path fill="#E6A165" d="M417.011,229.239c4.069,7.483,17.04,8.537,20.445-0.098c0.194-0.493-0.6-0.704-0.791-0.219
				c-3.146,7.979-15.239,6.72-18.945-0.098C417.467,228.36,416.759,228.774,417.011,229.239L417.011,229.239z"/>
		</g>
	</g>
	<path fill="#5F3908" d="M408.972,169.255c0,0,11.73,19.261,16.799,19.261s1.443-10.281,1.443-10.281s7.825,18.005,30.997,19.936
		c0,0-0.509-36.992-31.839-34.709L408.972,169.255z"/>
	<path fill="#5F3908" d="M414.088,169.206c0,0-8.582,33.962-21.662,36.765c-3.008,0.646-0.374-14.501-0.263-17.84
		c0.371-11.052,9.944-19.721,20.979-19.002C413.453,169.148,413.769,169.175,414.088,169.206z"/>
</g>
<polygon fill="#4F3315" points="415.002,211.105 411.597,211.179 415.024,213.515 "/>
<g>
	<defs>
		<path id="SVGID_17_" d="M380.672,285.361c0.162,0.106,0.316,0.218,0.48,0.323c19.414,13.283,63.746,14.889,82.178-0.271
			c36.058,6.252,31.518,11.722,33.697,46.254l-12.997,3.001l0.665,19.998L359.027,355.5l2-20l-14-4.5
			C349.211,296.398,355.037,294.187,380.672,285.361z"/>
	</defs>
	<clipPath id="SVGID_6_">
		<use xlink:href="#SVGID_17_"  overflow="visible"/>
	</clipPath>
	<rect x="333.055" y="282.998" clip-path="url(#SVGID_6_)" fill="#263247" width="183.666" height="83.334"/>
	<path clip-path="url(#SVGID_6_)" fill="#141F2E" d="M505.388,311.999c0,0-46.335,34-166.667,7.333l-2.332,42.667h169.666
		L505.388,311.999z"/>
</g>
<path fill="#F5A700" d="M386.854,356.333v-71.995c0,0-8.111-1.014-14.289,5.165v66.83H386.854z"/>
<path fill="#F5A700" d="M457.148,356.333v-71.995c0,0,8.109-1.014,14.289,5.165v66.83H457.148z"/>
<path fill="none" stroke="#4F3315" stroke-linecap="round" stroke-linejoin="round" stroke-miterlimit="10" d="M445.306,211.605
	c0,0-2.791,2.091-5.445,2.409c0,0,1.143,1.655,4.756,1.82"/>
<g>
	<polygon fill="#FA830D" points="239.138,356.892 76.923,356.892 95.479,320.212 114.521,282.576 210.188,282.576 	"/>
	<polygon opacity="0.1" fill="#8F75B2" points="203.027,304.708 186.142,356.893 121.606,356.892 	"/>
	<polygon opacity="0.3" fill="#F8F8F8" points="200.492,282.576 95.479,320.212 114.521,282.576 	"/>
	<path fill="#483D7F" d="M210.188,282.772c-0.109,0-0.195-0.088-0.195-0.196v-1.011c0-0.107,0.086-0.196,0.195-0.196
		c0.108,0,0.196,0.089,0.196,0.196v1.011C210.385,282.685,210.297,282.772,210.188,282.772z"/>
	<polygon fill="#FA830D" points="210.188,282.576 186.142,356.893 239.138,356.893 	"/>
	<polygon fill="#FDD465" points="206.411,356.893 210.188,282.576 186.142,356.893 	"/>
	<polygon fill="#483D7F" points="210.188,282.576 206.411,356.893 217.284,356.893 	"/>
	<polygon fill="#FCB42B" points="210.188,282.576 217.284,356.893 230.629,356.893 	"/>
	<g>
		<path fill="#483D7F" d="M178.581,353.178c-0.027,0-0.053-0.004-0.08-0.016c-0.099-0.044-0.144-0.161-0.099-0.26l31.772-70.776
			l0.188,0.36l36.463,70.406c0.051,0.096,0.014,0.214-0.084,0.265c-0.096,0.05-0.215,0.012-0.264-0.084L210.2,283.026
			l-31.439,70.037C178.728,353.137,178.656,353.178,178.581,353.178z"/>
		<path fill="#483D7F" d="M73.438,353.178c-0.033,0-0.067-0.007-0.1-0.025c-0.093-0.055-0.125-0.175-0.069-0.27l41.056-70.36v-1.491
			c0-0.106,0.087-0.196,0.196-0.196c0.108,0,0.196,0.09,0.196,0.196v1.598l-41.11,70.453
			C73.571,353.146,73.506,353.178,73.438,353.178z"/>
	</g>
</g>
</svg>
