<?xml version="1.0" encoding="utf-8"?>
<!-- Generator: Adobe Illustrator 16.0.0, SVG Export Plug-In . SVG Version: 6.00 Build 0)  -->
<!DOCTYPE svg PUBLIC "-//W3C//DTD SVG 1.1//EN" "http://www.w3.org/Graphics/SVG/1.1/DTD/svg11.dtd">
<svg version="1.1" id="圖層_1" xmlns="http://www.w3.org/2000/svg" xmlns:xlink="http://www.w3.org/1999/xlink" x="0px" y="0px"
	 width="480px" height="350px" viewBox="0 0 480 350" enable-background="new 0 0 480 350" xml:space="preserve">
<rect x="-5.072" y="-8" fill="#FFFFFF" width="490.145" height="366"/>
<g opacity="0.4">
	<rect x="-7.949" y="-13.9" fill="#76C9CE" width="500.976" height="376.481"/>
	<g>
		<defs>
			<rect id="SVGID_1_" y="164.493" width="480" height="185.507"/>
		</defs>
		<clipPath id="SVGID_2_">
			<use xlink:href="#SVGID_1_"  overflow="visible"/>
		</clipPath>
		<g clip-path="url(#SVGID_2_)">
			<path fill="#FFFFFF" d="M482.552,217.709v80.805l-14.84,0.458l-8.342,0.263l-16.682,0.518l-3.162,0.099l-3.089,0.1l-2.957,0.092
				l-9.527,0.295l-1.744,0.058l-0.828,0.021l-4.235,0.137l-1.574,0.045l-8.577,0.27l-20.002,0.623l-11.581,0.36l-2.257,0.066
				l-0.484,0.019l-5.626,0.17l-6.006,0.191l-13.936,0.434l-2.86,0.092l-12.401,0.387l-7.724,0.235l-0.832,0.027l-15.511,0.484
				l-0.801,0.025l-5.914,0.185l-1.068,0.032l-10.399,0.321l-0.416,0.013l-15.92,0.5l-0.335,0.005l-4.467,0.14l-1.805,0.058
				l-11.914,0.374l-1.561,0.046l-7.293,0.231l-3.874,0.117l-117.85,3.671l-4.401,0.13l-20.585,0.645l-3.516,0.111l-1.841,0.059
				l-42.534,1.319l-1.239,0.038l-5.89,0.184l-0.897,0.034l-2.159,0.065l-1.166,0.032l-3.278,0.104l-3.877,0.118l-5.226,0.165
				l-1.312,0.04l-12.361,0.384l-23.154,0.723v-48.009c0,0,11.016-17.713,26.066-9.18c1.129-1.235,2.342-2.35,3.62-3.346
				c12.669-9.844,31.936-8.013,42.462,3.745c1.352,1.501,2.551,3.166,3.58,4.988c0,0,0.865-1.808,2.518-3.889
				c2.244-2.806,5.915-6.104,10.84-6.085c0.971,0.007,1.994,0.145,3.056,0.435c-5.231-18.723,19.942-27.886,30.093-15.268
				c2.071-21.228,33.512-37.966,62.148-16.485c22.245-16.407,56.268,5.776,41.873,35.904c20.283-8.48,19.659,3.803,19.659,3.803
				s13.05-24.062,32.022-20.14c0-20.468,36.815-42.966,58.364-19.489c1.861,2.031,3.612,4.4,5.213,7.147
				c4.671-8.472,9.482-12.998,13.627-15.371c6.485-3.718,11.318-2.151,11.318-2.151s-1.199-24.972,22.2-22.086
				c3.646-27.018,59.443-36.682,62.028,12.545c16.322-0.499,17.562,14.316,17.562,14.316S472.054,203.615,482.552,217.709z"/>
			<g>
				<path fill="#E6CFED" d="M482.552,256.637v102.352H-9.279v-131.03c0,0,30.295-14.708,50.75-2.164
					c9.273,5.693,16.42,15.962,22.893,25.562c0.971,1.449,1.936,2.879,2.879,4.274c0.164,0.236,0.321,0.475,0.485,0.709
					c0.414,0.604,0.826,1.207,1.239,1.796c5.365,7.714,10.506,13.989,16.355,15.491c0.695,0.177,1.404,0.288,2.118,0.329
					c1.023,0.05,2.046,0,3.062-0.146h0.007c4.066-0.584,8.099-2.684,12.125-5.601c1.752-1.268,3.496-2.691,5.246-4.212
					c6.217-5.395,12.467-12.019,18.88-17.332c6.531-5.402,13.228-9.448,20.231-9.448c20.224,0,40.842,35.09,62.527,34.999
					c1.449-0.006,2.898-0.171,4.361-0.513c9.2-2.155,20.368,1.902,32.514,7.188c5.036,2.19,10.242,4.592,15.549,6.855
					c5.056,2.15,10.202,4.167,15.377,5.749c3.129,0.957,6.269,1.758,9.412,2.321c1.565,0.29,3.134,0.513,4.693,0.669
					c4.099,0.435,8.177,0.413,12.225-0.21c1.114-0.169,2.23-0.392,3.338-0.662c0.334-0.078,0.674-0.164,1.01-0.257
					c4.826-1.283,9.574-3.534,14.191-6.989c0.846-0.637,1.684-1.311,2.523-2.033c3.759-3.225,7.576-6.623,11.438-10.126
					c5.541-5.022,11.169-10.255,16.827-15.463c0.125-0.111,0.243-0.223,0.366-0.334c1.352-1.246,2.702-2.485,4.053-3.72
					c2.736-2.504,5.476-4.982,8.211-7.422c1.332-1.187,2.663-2.359,3.987-3.521c0.229-0.197,0.452-0.394,0.675-0.584
					c2.802-2.439,5.588-4.812,8.362-7.095c2.517-2.072,5.022-4.073,7.515-5.973c5.744-4.395,11.404-8.283,16.919-11.431
					c11.345-6.468,22.081-9.771,31.694-7.752c12.984,2.734,23.516,11.286,31.352,20.258
					C476.867,243.499,482.552,256.637,482.552,256.637z"/>
				<path opacity="0.1" fill="#9D56A0" d="M323.285,303.472c0.005,5.102-0.619,10.203-2.172,14.853
					c-1.593,4.796-4.17,9.116-8.052,12.465c-0.021,0.015-0.033,0.033-0.053,0.046c-5.148,4.428-11.87,6.493-18.513,7.957
					c-0.23,0.051-0.46,0.099-0.69,0.148c-0.188,0.041-0.387,0.086-0.576,0.12c-3.213,0.681-6.445,1.264-9.699,1.782
					c-3.146,0.5-6.302,0.94-9.47,1.338c-3.62,0.461-7.247,0.873-10.878,1.279c-2.237,0.25-4.467,0.498-6.703,0.748
					c-0.013,0-0.026,0.007-0.039,0.007c-0.053,0.007-0.104,0.013-0.157,0.019c-3.331,0.375-6.663,0.768-9.982,1.199
					c-0.314,0.047-0.628,0.087-0.949,0.126c-2.65,0.36-5.292,0.747-7.922,1.18c-2.288,0.382-4.57,0.794-6.84,1.254
					c-0.918,0.183-1.842,0.379-2.754,0.583c-0.111,0.021-0.225,0.046-0.328,0.072c-1.128,0.242-2.244,0.505-3.357,0.78v0.007
					c-1.103,0.268-2.197,0.551-3.285,0.852c-1.85,0.505-3.686,1.057-5.516,1.653c-1.66,0.543-3.312,1.121-4.951,1.751
					c-0.537,0.203-1.076,0.412-1.613,0.628c-3.259,1.313-6.433,2.79-9.553,4.375c-0.198,0.099-0.389,0.196-0.586,0.295H-9.279
					v-77.499c3.666,1.777,7.096,4.484,9.992,7.298c4.678,4.538,9.273,9.752,14.92,12.677c1.744,0.905,3.588,1.587,5.561,1.968
					c1.699,0.327,3.377,0.406,5.043,0.301c0.407-0.026,0.814-0.064,1.22-0.11c2.63-0.315,5.228-1.068,7.812-2.04
					c1.055-0.395,2.105-0.826,3.16-1.286c4.557-1.961,9.109-4.314,13.783-5.803c0.801-0.256,1.615-0.486,2.421-0.676
					c2.118-0.524,4.263-0.819,6.453-0.786c7.397,0.117,14.8,4.078,21.923,2.06c3.135-0.892,5.816-2.86,8.485-4.775
					c0.414-0.301,0.833-0.596,1.247-0.892c1.789-1.253,3.671-2.419,5.619-3.476c4.859-2.636,10.145-4.577,15.502-5.469
					c6.23-1.024,12.552-0.631,18.421,1.764c14.696,6.005,24.343,23.372,40.199,24.211c12.833,0.683,23.798-10.146,36.625-10.913
					c8.8-0.524,17.063,3.734,25.313,6.833c2.545,0.959,5.121,1.805,7.731,2.533c1.241,0.354,2.479,0.682,3.73,0.979
					c2.422,0.581,4.859,1.072,7.318,1.468c0.538,0.099,1.082,0.177,1.628,0.256c4.163,0.616,8.373,0.964,12.583,1.056
					c0.551,0.013,1.108,0.019,1.659,0.019c3.825,0.028,7.654-0.156,11.463-0.556c1.995-0.205,3.975-0.474,5.948-0.795
					c0.899-0.144,1.796-0.301,2.689-0.479c1.043-0.189,2.086-0.404,3.127-0.636c2.591-0.57,5.154-1.245,7.693-2.02
					c0.386-0.117,0.773-0.236,1.153-0.36c1.961-0.616,3.903-1.298,5.823-2.039c0.287-0.112,0.57-0.224,0.859-0.341
					c5.122-2.021,10.073-4.475,14.786-7.339C323.027,297.162,323.276,300.315,323.285,303.472z"/>
				<path fill="#F8F8F8" d="M90.503,273.811c-1.495,0.898-3.017,1.751-4.558,2.557c-0.951,0.505-1.908,0.991-2.879,1.455
					c-6.826,3.294-14.485,5.807-21.909,4.278c-1.325-0.275-2.629-0.717-3.876-1.307c-5.718-2.688-10.139-8.387-9.403-14.571
					c0.321-2.701,1.567-5.325,1.265-8.033c-0.642-5.777-7.784-8.485-13.555-7.855c-5.127,0.563-10.078,2.707-15.181,2.957
					c-0.644,0.032-1.292,0.037-1.94,0c-5.805-0.327-12.002-5.816-9.831-11.207c0.8-1.98,2.609-3.601,2.735-5.739
					c0.254-4.497-6.243-5.58-10.658-4.676c-3.377,0.689-6.708,1.562-9.992,2.604v-6.314c0,0,30.295-14.708,50.75-2.164
					c9.273,5.693,16.42,15.962,22.893,25.562c0.971,1.449,1.936,2.879,2.879,4.274c0.164,0.236,0.321,0.475,0.485,0.709
					c0.414,0.604,0.826,1.207,1.239,1.796c5.365,7.714,10.506,13.989,16.355,15.491c0.695,0.177,1.404,0.288,2.118,0.329
					C88.464,274.006,89.486,273.956,90.503,273.811z"/>
				<path fill="#F8F8F8" d="M209.52,272.217c-8.157,4.86-18.716,3.717-28.264,2.354c-4.098-0.589-8.381-1.252-11.719-3.712
					c-3.463-2.545-5.363-6.635-8.006-10.033c-2.645-3.39-6.927-6.321-11.013-4.99c-5.771,1.869-8.708,11.267-14.511,9.51
					c-3.122-0.944-4.289-4.834-4.041-8.086c0.25-3.245,1.404-6.48,0.893-9.699c-2.065,0.241-4.191-0.072-6.099-0.894
					c6.531-5.402,13.228-9.448,20.231-9.448C167.216,237.218,187.834,272.308,209.52,272.217z"/>
				<path fill="#F8F8F8" d="M466.111,231.173c-4.918,1.632-9.973,2.287-14.669,0.346c-4.906-2.032-9.864-6.808-14.63-4.466
					c-4.899,2.408-4.134,9.968-7.869,13.942c-2.355,2.512-6.033,3.115-9.371,3.942c-14.114,3.501-28.245,14.224-43.406,9.723
					c-4.919-1.454-8.335-4.077-10.559-7.39c24.796-22.093,49.359-40.52,69.152-36.355
					C447.744,213.649,458.275,222.201,466.111,231.173z"/>
			</g>
		</g>
		<g clip-path="url(#SVGID_2_)">
			<path fill="#246887" d="M319.959,321.812l-7.112-0.929l6.801-1.131c-0.988-6.547-1.962-12.802-2.784-17.767l-4.99-1.709h4.7
				c-0.438-2.581-0.824-4.729-1.141-6.272c-0.854-4.175-2.345-9.091-3.957-13.799l-4.02-1.106l3.563-0.21
				c-3.155-9.009-6.583-16.924-6.583-16.924s-2.499,7.911-5.458,20.409v0.004l5.458,2.597l-6.417,1.547
				c-0.969,4.286-1.957,9-2.911,14.039l5.442-2.278l-5.985,5.232c-3.03,16.809-5.484,36.823-5.062,56.32c26.256,0,35.956,0,35.956,0
				S322.696,340.097,319.959,321.812z"/>
			<path fill="#246887" d="M427.954,321.812l-7.112-0.929l6.801-1.131c-0.988-6.547-1.962-12.802-2.784-17.767l-4.99-1.709h4.7
				c-0.438-2.581-0.824-4.729-1.141-6.272c-0.854-4.175-2.345-9.091-3.957-13.799l-4.02-1.106l3.563-0.21
				c-3.155-9.009-6.583-16.924-6.583-16.924s-2.499,7.911-5.458,20.409v0.004l5.458,2.597l-6.417,1.547
				c-0.969,4.286-1.957,9-2.911,14.039l5.442-2.278l-5.985,5.232c-3.03,16.809-5.484,36.823-5.062,56.32c26.256,0,35.956,0,35.956,0
				S430.691,340.097,427.954,321.812z"/>
			<path fill="#246887" d="M81.172,289.407l6.912-3.116c-2.835-13.646-6.002-26.981-9.375-37.938l-6.839-1.981l5.938-0.855
				c-2.035-6.287-4.256-18.481-6.398-22.501c-2.751,6.782-5.25,21.839-7.696,30.852l5.039,2.519l-5.646-0.248
				c-1.335,5.046-2.617,10.307-3.843,15.669l9.119,6.062l-10.168-1.373c-8.831,40.15-14.381,83.986-14.381,83.986l63.568,6.316
				c0,0-8.811-41.763-16.274-78.278L81.172,289.407z"/>
			<path fill="#247CA7" d="M445.501,291.094l8.205-5.693c-2.834-12.966-5.937-25.616-9.121-35.983l-5.721-1.61l4.876-1.069
				c-1.909-5.942-3.842-11.014-5.76-14.778c-2.027,6.617-3.889,14.633-5.581,23.379l4.254,2.201h-4.673
				c-0.921,4.894-1.789,9.991-2.605,15.186l3.461,1.176l-4.159,3.364c-5.838,38.867-8.833,81.132-8.833,81.132h47.332
				c0,0-5.511-36.145-13-70.839L445.501,291.094z"/>
			<path opacity="0.2" fill="#67A2A0" d="M253.902,287.09l2.588,57.421C256.49,344.511,251.285,314.904,253.902,287.09z"/>
			<path opacity="0.2" fill="#67A2A0" d="M421.383,257.82v53.973C421.383,311.793,424.347,282.244,421.383,257.82z"/>
			<path fill="#247CA7" d="M32.34,315.386l8.205-5.693c-2.836-12.965-5.938-25.617-9.121-35.982l-5.72-1.611l4.875-1.069
				c-1.909-5.942-3.843-11.015-5.76-14.778c-2.026,6.618-3.888,14.635-5.581,23.378l4.254,2.201h-4.673
				c-0.921,4.896-1.788,9.993-2.605,15.186l3.46,1.176l-4.157,3.365c-5.839,38.867-8.833,81.132-8.833,81.132h47.332
				c0,0-5.512-36.143-13.002-70.838L32.34,315.386z"/>
			<path opacity="0.2" fill="#67A2A0" d="M26.236,286.118v53.97C26.236,340.088,29.2,310.539,26.236,286.118z"/>
			<path fill="#2B87BE" d="M332.059,282.981l-10.151-2.222c2.824-13.791,5.911-27.246,9.081-38.27l5.696-1.713l-4.855-1.14
				c1.901-6.32,3.827-11.714,5.737-15.718c2.017,7.04,3.871,15.564,5.555,24.864l-4.235,2.344h4.653
				c0.916,5.204,1.781,10.627,2.596,16.151l-7.09,3.088l7.783,1.739c5.813,41.339,8.795,86.29,8.795,86.29h-47.127
				c0,0,5.488-38.442,12.943-75.342L332.059,282.981z"/>
			<path fill="#247CA7" d="M379.896,312.817l-7.733-1.179l7.396-1.434c-1.075-8.308-2.135-16.246-3.03-22.546l-5.423-2.168h5.11
				c-0.476-3.274-0.898-6.003-1.242-7.959c-0.928-5.297-2.549-11.534-4.302-17.511l-4.371-1.402l3.876-0.268
				c-3.431-11.432-7.161-21.475-7.161-21.475s-2.717,10.039-5.934,25.898v0.004l5.934,3.295l-6.977,1.963
				c-1.055,5.438-2.128,11.419-3.168,17.812l5.922-2.887l-6.51,6.638c-3.295,21.329-5.965,46.726-5.506,71.466
				c28.551,0,39.1,0,39.1,0S382.873,336.019,379.896,312.817z"/>
			<path opacity="0.2" fill="#67A2A0" d="M308.856,252.588l-1.597,75.598C307.26,328.186,305.949,271.487,308.856,252.588z"/>
			<path fill="#2B87BE" d="M40.611,300.16l-10.151-2.222c2.821-13.791,5.91-27.245,9.081-38.271l5.695-1.714l-4.854-1.137
				c1.901-6.321,3.827-11.715,5.735-15.719c2.018,7.039,3.871,15.565,5.557,24.864l-4.236,2.344h4.654
				c0.916,5.204,1.78,10.627,2.594,16.149l-7.088,3.091l7.781,1.738c5.814,41.341,8.797,86.29,8.797,86.29H17.048
				c0,0,5.487-38.44,12.944-75.341L40.611,300.16z"/>
			<path opacity="0.2" fill="#67A2A0" d="M44.422,299.269l-1.596,75.6C42.826,374.868,41.516,318.168,44.422,299.269z"/>
			<path fill="#2B87BE" d="M121.006,318.03l-7.112-0.927l6.8-1.132c-0.986-6.547-1.959-12.801-2.785-17.767l-4.988-1.708h4.699
				c-0.435-2.582-0.823-4.731-1.14-6.273c-0.854-4.175-2.345-9.091-3.958-13.799l-4.018-1.105l3.563-0.21
				c-3.155-9.009-6.585-16.923-6.585-16.923s-2.498,7.91-5.456,20.408v0.003l5.456,2.599l-6.414,1.546
				c-0.97,4.285-1.957,8.999-2.912,14.037l5.81,2.269l-6.352,0.688c-3.031,16.807-5.485,36.821-5.063,56.318
				c26.255,0,35.956,0,35.956,0S123.744,336.315,121.006,318.03z"/>
		</g>
		<path clip-path="url(#SVGID_2_)" fill="#4CADD7" d="M482.552,326.658v32.33H241.835c0,0,0.225-1.822,0.854-4.596
			c0.525-2.354,1.346-5.392,2.565-8.591c0.031-0.078,0.064-0.165,0.098-0.243c0.827-2.132,1.83-4.329,3.041-6.439
			c1.681-2.912,3.76-5.646,6.329-7.812c0.368-0.306,0.742-0.608,1.136-0.89c2.55-1.882,5.554-3.2,9.069-3.614
			c0.78-0.098,1.593-0.145,2.426-0.145c-0.406-3.672,0.314-6.885,1.837-9.606c2.313-4.138,6.479-7.141,11.344-8.924
			c1.462-0.539,2.99-0.967,4.546-1.28c0.124-0.026,0.247-0.047,0.372-0.072c1.26-0.235,2.538-0.4,3.823-0.484
			c0.067-0.014,0.132-0.014,0.197-0.014c0.944-0.064,1.888-0.086,2.826-0.06c2.729,0.06,5.411,0.467,7.896,1.239
			c2.544,0.788,4.877,1.955,6.819,3.518c0.21,0.161,0.407,0.331,0.604,0.51c2.465,2.17,4.223,5.037,4.872,8.63
			c4.282-2.519,6.958-2.622,8.624-1.79c2.669,1.318,2.775,5.003,2.775,5.003s0.49-1.81,1.774-4.387
			c1.109-2.216,2.801-5.01,5.28-7.713c3.087-3.377,7.396-6.608,13.299-8.405c0.938-0.289,1.908-0.538,2.926-0.749
			c2.741-0.556,5.783-0.82,9.153-0.681c0.63-2.965,1.87-5.619,3.548-7.916c1.324-1.823,2.932-3.423,4.716-4.768
			c2.184-1.646,4.629-2.911,7.187-3.75c0.414-0.139,0.833-0.263,1.26-0.374c1.487-0.405,3.01-0.671,4.518-0.762
			c3.077-0.217,6.127,0.217,8.866,1.371c3.954,1.658,7.273,4.82,9.162,9.711c5.29-4.438,9.435-4.74,12.557-3.344
			c4.296,1.928,6.663,7.058,7.438,9.036c0.197,0.499,0.288,0.795,0.288,0.795s0.46-0.362,1.286-0.84
			c0.964-0.571,2.433-1.312,4.235-1.844c0.302-0.09,0.61-0.176,0.926-0.248c0.393-0.098,0.798-0.177,1.213-0.242
			c2.911-0.473,6.388-0.236,9.961,1.823c0.662,0.38,1.34,0.832,2.006,1.351c0.296-0.512,0.617-0.998,0.951-1.442
			c0.768-1.009,1.64-1.856,2.598-2.559c1.291-0.943,2.734-1.618,4.263-2.032c5.264-1.456,11.535,0.104,16.072,3.875
			c6.256,5.199,9.201,14.611,1.627,26.119c8.505,0,10.473,7.18,10.473,7.18s0.367-1.959,2.321-3.617
			C475.404,327.538,478.101,326.364,482.552,326.658z"/>
		<path clip-path="url(#SVGID_2_)" fill="#4CADD7" d="M260.448,352.831c-1.34,0.551-2.604,1.068-3.799,1.562
			c-4.76,1.96-8.394,3.456-11.16,4.596c-0.025,0.008-0.06,0.021-0.085,0.033c-0.42,0.17-0.819,0.334-1.2,0.494
			c-0.893,0.365-1.678,0.692-2.374,0.975c-5.227,2.151-5.227,2.151-5.227,2.151l-1.489-0.02h-0.046l-0.328-0.007l-5.486-0.084
			l-5.045-0.073l-7.862-0.118l-6.388-0.091l-11.816-0.178l-5.227-0.079l-0.361-0.006l-24.48-0.361l-40.396-0.604l-16.793-0.248
			l-3.043-0.048l-0.381-0.005l-1.344-0.021l-15.023-0.222l-30.396-0.444l-10.445-0.159l-6.336-0.092l-0.768-0.013l-0.551-0.006
			l-18.898-0.284l-15.03-0.223l-17.948-0.269V330.98c0,0,8.859-9.85,21.581-5.64c1.036,0.342,2.091,0.778,3.174,1.317
			c1.128-5.9,5.751-9.147,10.761-9.816c0.42-0.059,0.84-0.092,1.26-0.11c1.442-0.071,2.893,0.07,4.275,0.413
			c4.689,1.167,8.676,4.688,9.221,10.492c0.596-0.479,1.174-0.899,1.744-1.272c0,0,0,0,0.006,0c0.381-0.249,0.754-0.473,1.123-0.677
			c0.006-0.005,0.012-0.005,0.02-0.005c1.953-1.069,3.73-1.516,5.33-1.536c3.548-0.057,6.217,1.956,7.916,3.804
			c1.436,1.575,2.176,3.03,2.176,3.03s8.645-19.758,33.715-14.774c0.741,0.144,1.496,0.315,2.27,0.505
			c0.32-0.885,0.693-1.725,1.12-2.505c0.768-1.416,1.698-2.668,2.761-3.758c5.24-5.402,13.535-6.789,20.055-4.04
			c1.816,0.762,3.494,1.842,4.932,3.266c3.188,3.124,5.174,7.857,4.793,14.217c-0.007,0.243-0.026,0.487-0.053,0.735
			c-0.014,0.222-0.033,0.445-0.064,0.669c-0.045,0.445-0.105,0.905-0.178,1.363c14.395-2.615,16.355,7.851,16.355,7.851
			s8.309-13.346,23.018-10.466c0.189-1.928,0.949-3.726,2.15-5.357c10.223-13.87,52.784-15.784,57.06,15.823
			c11.979,0.656,9.922,7.2,9.922,7.2s0.282-0.19,0.78-0.474c1.691-0.943,5.914-2.923,10.451-2.116
			c2.369,0.42,4.829,1.599,7.046,4.093c0.287,0.319,0.569,0.655,0.845,1.021c1.501,1.974,2.88,4.61,4.008,8.106
			C260.342,352.503,260.395,352.669,260.448,352.831z"/>
		<path clip-path="url(#SVGID_2_)" fill="#2B87BE" d="M482.552,336.843v22.146H-9.279v-19.463c0,0,8.124-4.274,20.709-6.813
			c4.439-0.9,9.424-1.575,14.807-1.776c0.23-0.009,0.466-0.013,0.695-0.021c0.676-0.02,1.352-0.031,2.033-0.039
			c4.355-0.025,8.938,0.275,13.673,1.035c0.36,0.06,0.728,0.118,1.089,0.178c0.492,0.092,0.984,0.175,1.476,0.274
			c0.866,0.165,1.737,0.349,2.609,0.553c3.384,0.773,6.82,1.79,10.296,3.101c2.643,0.996,5.299,2.157,7.961,3.509
			c6.656-13.168,18.415-13.751,25.34-8.467c4.032,3.075,6.42,8.146,5.193,13.878c2.04-0.958,3.987-1.548,5.822-1.851
			c5.733-0.957,10.434,0.833,13.674,2.833c0.098,0.053,0.189,0.111,0.281,0.17v0.009h0.008c0.518,0.326,0.996,0.654,1.43,0.977
			c0.873,0.655,1.58,1.271,2.104,1.77c0.722,0.688,1.103,1.148,1.103,1.148s0.897-0.479,2.537-1.214
			c0.524-0.243,1.135-0.506,1.81-0.786c8.893-3.726,30.159-10.756,51.938-4.166c-1.796-18.322,20.632-21.947,30.284-15.336
			c0.099,0.064,0.189,0.123,0.275,0.195c0.301,0.211,0.584,0.439,0.852,0.675c1.254,1.09,2.198,2.395,2.716,3.908
			c0.368,1.05,0.524,2.203,0.433,3.45c0.701-0.007,1.377,0.013,2.033,0.053c1.2,0.071,2.32,0.208,3.364,0.419
			c0.833,0.158,1.612,0.36,2.348,0.59c1.048,0.336,2,0.729,2.878,1.18c0.171,0.088,0.342,0.18,0.514,0.271
			c4.223,2.348,6.432,5.901,7.586,8.762c1.043,2.597,1.215,4.617,1.215,4.617s2.012-1.451,5.389-3.233
			c2.177-1.155,4.918-2.447,8.061-3.574c0.342-0.125,0.694-0.251,1.047-0.369c2.801-0.949,5.884-1.755,9.138-2.221
			c0.273-0.042,0.55-0.073,0.825-0.112c0.053-0.008,0.11-0.014,0.163-0.021c2.206-0.261,4.485-0.366,6.802-0.248
			c0.767,0.032,1.533,0.098,2.307,0.183c-0.543-5.638,2.688-9.634,6.61-11.122c4.441-1.691,9.767-0.17,11.425,5.824
			c0.157-0.032,0.309-0.061,0.458-0.079c4.06-0.708,7.029,0.047,9.201,1.424c0.538,0.348,1.029,0.733,1.476,1.141
			c3.566,3.285,4.211,8.248,4.211,8.248s6.845-14.098,23.423-18.483c1.358-0.362,2.773-0.656,4.262-0.866
			c0.927-0.146,1.884-0.251,2.867-0.316c1.928-0.144,3.954-0.15,6.093-0.006c0.863,0.059,1.745,0.139,2.642,0.25
			c0.211-0.191,0.419-0.367,0.63-0.537c0.006,0,0.006-0.009,0.006-0.009c2.099-1.698,4.329-2.623,6.5-3.062
			c4.898-0.982,9.501,0.531,11.666,1.444c0.82,0.346,1.291,0.604,1.291,0.604s0.105-0.282,0.335-0.755
			c0.61-1.24,2.08-3.791,4.768-5.942c1.628-1.291,3.686-2.445,6.276-3.074c1.252-0.31,2.63-0.494,4.144-0.513
			c0.322,0,0.655,0,0.999,0.014c0.609-4.453,5.664-9.187,12.662-11.91c5.58-2.176,12.399-3.081,19.181-1.554
			c5.109,1.142,10.196,3.667,14.722,8.054c1.188,1.155,2.336,2.433,3.438,3.85c0.67-0.367,1.337-0.696,1.999-0.99
			c5.161-2.27,10.087-2.297,14.095-0.743c0.49,0.185,0.969,0.396,1.428,0.632c7.063,3.58,10.644,12.36,6.362,21.857
			c11.384-0.894,14.949,7.816,14.949,7.816s4.421-5.043,11.693-6.84C477.508,336.837,479.922,336.589,482.552,336.843z"/>
		<path opacity="0.2" clip-path="url(#SVGID_2_)" fill="#67A2A0" d="M336.698,358.991c0,0,4.979-10.444,20.479-8.631
			c-2.814-14.541,7.126-17.693,13.405-14.021c1.302-3.672,6.042-1.403,6.042-1.403s0.948-10.444,11.255-8.549
			c6.639-7.582,25.711-6.16,25.83,8.529c6.517,0.238,6.28,5.518,6.28,5.518s4.857-5.161,9.596-2.674
			c2.845-7.345,16.47-2.962,12.56,6.991c5.807-0.237,7.7,5.687,6.516,8.885c7.346-1.422,11.61,5.452,11.61,5.452L336.698,358.991z"
			/>
		<path opacity="0.2" clip-path="url(#SVGID_2_)" fill="#67A2A0" d="M325.795,358.935c0,0,0.436-7.852-7.196-7.415
			c-1.745-7.85-12.213-5.233-11.777,2.181c-11.121-2.181-18.1,5.388-18.1,5.388L325.795,358.935z"/>
		<path opacity="0.2" clip-path="url(#SVGID_2_)" fill="#67A2A0" d="M102.3,359.088l-10.701-0.008L60.6,359.049l-10.492-0.007
			l-6.086-0.008h-1.43l-18.808-0.019l-15.089-0.014l-17.975-0.014v-9.062c0,0,11.377-0.879,18.734,1.207
			c1.574,0.444,2.965,1.028,4.02,1.783c4.303-5.424,8.768-5.115,12.027-3.62c2.905,1.337,4.847,3.62,4.847,3.62
			s5.345-6.31,12.185-7.805c0.302-0.072,0.609-0.131,0.924-0.17c0.834-0.132,1.686-0.177,2.552-0.132
			c0.524,0.025,1.056,0.086,1.587,0.19c2.118,0.407,4.287,1.432,6.42,3.351c1.68-0.825,3.476-1.343,5.305-1.593
			c8.57-1.168,17.857,3.605,18.959,10.303c3.521-2.341,8.066-2.487,12.256-1.818c0.945,0.151,1.869,0.348,2.762,0.565
			c0.328,0.079,0.648,0.164,0.963,0.249c3.936,1.061,7.051,2.538,7.844,2.931C102.235,359.055,102.3,359.088,102.3,359.088z"/>
		<g clip-path="url(#SVGID_2_)">
			<path fill="#4C8E67" d="M373.299,276.041c-6.496,0-52.765,81.924-52.765,81.924h105.529
				C426.063,357.965,379.796,276.041,373.299,276.041z"/>
			<path fill="#FFFFFF" d="M363.626,292.839c0,0-1.371,6.629,2.74,7.954c4.117,1.329,6.213-7.808,6.213-7.808
				s3.03,8.768,7.363,7.663c4.327-1.106,1.442-8.694,1.442-8.694s3.059,7.331,8.662,5.607
				c-7.896-12.275-14.566-21.521-16.748-21.521c-2.308,0-9.619,10.314-18.095,23.624
				C358.239,300.475,363.626,292.839,363.626,292.839z"/>
		</g>
		<g clip-path="url(#SVGID_2_)">
			<path fill="#4C8E67" d="M56.201,276.041c-6.496,0-52.764,81.924-52.764,81.924h105.527
				C108.965,357.965,62.697,276.041,56.201,276.041z"/>
			<path fill="#FFFFFF" d="M46.527,292.839c0,0-1.371,6.629,2.742,7.954c4.116,1.329,6.211-7.808,6.211-7.808
				s3.033,8.768,7.364,7.663c4.328-1.106,1.441-8.694,1.441-8.694s3.06,7.331,8.663,5.607
				c-7.896-12.275-14.566-21.521-16.748-21.521c-2.309,0-9.619,10.314-18.095,23.624C41.143,300.475,46.527,292.839,46.527,292.839z
				"/>
		</g>
		<g clip-path="url(#SVGID_2_)">
			<path fill="#61BB98" d="M318.316,287.718c-5.395,0-43.82,68.04-43.82,68.04h87.642
				C362.138,355.758,323.715,287.718,318.316,287.718z"/>
			<path fill="#FFFFFF" d="M310.285,300.45c0,0-1.139,5.507,2.275,6.606c3.419,1.101,5.159-6.483,5.159-6.483
				s2.516,7.277,6.111,6.362c3.598-0.919,1.201-7.219,1.201-7.219s2.541,6.085,7.193,4.656
				c-6.556-10.193-12.097-17.874-13.909-17.874c-1.915,0-7.985,8.565-15.026,19.621C305.811,306.794,310.285,300.45,310.285,300.45z
				"/>
		</g>
		<g clip-path="url(#SVGID_2_)">
			<path fill="#F5CA5F" d="M374.349,358.105c6.608-15.553,29.965-36.996,57.733-36.95c27.643,0.049,50.858,21.397,57.548,36.955
				L374.349,358.105z"/>
			<path fill="#EFA700" d="M374.356,358.105c6.563-15.442,29.63-36.694,57.143-36.943l-0.003,36.946L374.356,358.105z"/>
		</g>
		<g clip-path="url(#SVGID_2_)">
			<path fill="#96C011" d="M414.625,355.587c3.703-8.522,18.041-20.66,35.166-20.66c17.122,0.001,31.455,12.141,35.161,20.66
				H414.625z"/>
			<path opacity="0.53" fill="#82A600" d="M449.421,355.587h-34.796c3.675-8.46,17.835-20.477,34.797-20.651L449.421,355.587z"/>
		</g>
		<g clip-path="url(#SVGID_2_)">
			<path fill="#96C011" d="M30.043,354.771c3.703-8.521,18.04-20.657,35.164-20.657c17.123,0.001,31.457,12.142,35.16,20.66
				L30.043,354.771z"/>
			<path opacity="0.53" fill="#82A600" d="M64.838,354.772l-34.795-0.002c3.676-8.457,17.835-20.475,34.795-20.649V354.772z"/>
		</g>
	</g>
</g>
<path fill="#FFFFFF" stroke="#FA830D" stroke-width="3" stroke-linecap="round" stroke-linejoin="round" stroke-miterlimit="10" d="
	M380,45H100c-5.5,0-10,4.5-10,10v66.005c0,5.5,4.5,10,10,10h54.404C164,162,195,157,195,157c-14.5-10-11.719-19.611-12.474-25.995
	H380c5.5,0,10-4.5,10-10V55C390,49.5,385.5,45,380,45z"/>
<g>
	<g>
		<g>
			<path fill="#5F3908" d="M204.814,205.815c3.271-56.524,36.967-48.996,41.109-47.493c4.145-1.502,37.838-9.343,41.576,44.846
				c3.736,51.853,33.633,58.393-0.377,100.436c-24.449,26.556-31.492,15.829-42.51,14.948c-11.018,0.881-20.863,10.206-45.312-16.35
				C171.109,271.58,195.74,258.735,204.814,205.815z"/>
			<path fill="#3E230B" d="M248.588,189.621c2.803-1.869,7.475,3.737,10.277,8.408c24.949,30.976,30.545,64.635,33.422,105.809
				c-21.562,8.312-39.426,6.821-47.059,6.212c-9.234,0.738-20.953,1.343-45.396-13.921
				C202.947,258.136,212.41,216.755,248.588,189.621z"/>
			<path fill="#FCCAA0" d="M218.184,214.894c3.836,6.067,4.377,15.849-0.594,18.991c-4.973,3.144-13.576-1.542-17.412-7.609
				c-3.834-6.067-2.914-13.535,2.059-16.679C207.209,206.454,214.35,208.825,218.184,214.894z"/>
			<path fill="#FCCAA0" d="M266.662,216.376c-4.256,5.78-5.49,15.498-0.754,18.986c4.738,3.487,13.65-0.576,17.906-6.357
				c4.258-5.781,3.867-13.294-0.869-16.781C278.209,208.735,270.918,210.595,266.662,216.376z"/>
			<g>
				<defs>
					<path id="SVGID_7_" d="M203.498,284.774c29.736-9.269,21.627-39.971,21.627-39.971l13.709-1.673v-0.258l1.062,0.13l1.062-0.13
						v0.258l13.709,1.673c0,0-8.109,30.702,21.627,39.971c29.738,9.269,36.496,18.537,38.812,55.226h-74.148h-2.125h-74.146
						C167.004,303.312,173.762,294.043,203.498,284.774z"/>
				</defs>
				<clipPath id="SVGID_4_">
					<use xlink:href="#SVGID_7_"  overflow="visible"/>
				</clipPath>
				<path clip-path="url(#SVGID_4_)" fill="#FCCAA0" d="M203.498,284.774c29.736-9.269,21.627-39.971,21.627-39.971l13.709-1.673
					v-0.258l1.062,0.13l1.062-0.13v0.258l13.709,1.673c0,0-8.109,30.702,21.627,39.971c29.738,9.269,24.6,18.537,26.918,55.226
					h-62.254h-2.125H175.6C177.916,303.312,173.762,294.043,203.498,284.774z"/>
				<g clip-path="url(#SVGID_4_)">
					<path fill="#E6A165" d="M226.092,252.083c-0.191-4.337-0.967-7.279-0.967-7.279l13.709-1.673v-0.258l1.062,0.13l1.062-0.13
						v0.258l13.709,1.673c0,0-1.322,5.016-0.938,11.603C250.721,262.548,239.896,271.063,226.092,252.083z"/>
					<g>
						<g>
							<g>
								<g>
									<path fill="#E9AD79" d="M226.68,251.655c-0.102,0.02-0.26,0.166-0.154,0.237l0.344-0.145L226.68,251.655z"/>
									<path fill="#E9AD79" d="M226.623,252.706c0.227,0.009,0.57-0.047,0.78-0.319c-0.361,0.097-0.265-0.018-0.688,0.11
										c-0.105-0.072-0.032-0.239,0.088-0.303c-0.101,0.021-0.048-0.197-0.27-0.115c-0.133,0.293-0.021,0.462,0.288,0.489
										C226.785,252.652,226.684,252.674,226.623,252.706z"/>
									<path fill="#E9AD79" d="M234.667,261.512l-0.041-0.08C234.63,261.464,234.646,261.489,234.667,261.512z"/>
									<path fill="#E9AD79" d="M241.689,264.383c-0.06,0.003-0.088,0.037-0.095,0.069
										C241.652,264.434,241.7,264.416,241.689,264.383z"/>
									<path fill="#E9AD79" d="M243.032,264.831c-0.03-0.009-0.056-0.016-0.082-0.023
										C242.981,264.841,243.014,264.858,243.032,264.831z"/>
									<path fill="#E9AD79" d="M234.667,261.512l0.106,0.205C234.85,261.625,234.734,261.587,234.667,261.512z"/>
									<path fill="#E9AD79" d="M228.307,253.456c-0.039-0.021-0.087-0.026-0.141-0.022c0.033,0.016,0.063,0.033,0.092,0.053
										L228.307,253.456z"/>
									<path fill="#E9AD79" d="M231.846,259.725l-0.046-0.04c-0.041,0.019-0.086,0.045-0.136,0.076L231.846,259.725z"/>
									<path fill="#E9AD79" d="M229.949,258.016c0.031,0.05,0.264-0.152,0.374-0.231c-0.112,0.066-0.186,0.079-0.237,0.06
										C230.043,257.885,229.999,257.938,229.949,258.016z"/>
									<path fill="#E9AD79" d="M227.685,254.67l-0.077-0.028C227.629,254.649,227.66,254.661,227.685,254.67z"/>
									<path fill="#E9AD79" d="M233.23,260.934c-0.023,0.039-0.041,0.077-0.047,0.103
										C233.206,261.005,233.221,260.97,233.23,260.934z"/>
									<path fill="#E9AD79" d="M227.305,249.048c-0.022,0.003-0.036,0.004-0.055,0.007
										C227.282,249.065,227.305,249.068,227.305,249.048z"/>
									<polygon fill="#E9AD79" points="226.013,252.087 225.994,252.047 225.822,252.047 									"/>
									<path fill="#E9AD79" d="M245.634,264.893c-0.006-0.001-0.008-0.001-0.013-0.002
										C245.562,264.939,245.599,264.926,245.634,264.893z"/>
									<path fill="#E9AD79" d="M255.535,246.885c-0.154,0.087-0.227-0.011-0.301-0.118c-0.067-0.146-0.15-0.225-0.342-0.023
										C255.016,246.733,255.311,247.139,255.535,246.885z"/>
									<path fill="#E9AD79" d="M228.314,253.531c0.023,0.023,0.046,0.048,0.064,0.076
										C228.358,253.565,228.338,253.542,228.314,253.531z"/>
									<path fill="#E9AD79" d="M254.893,246.743h-0.003l-0.034,0.03C254.87,246.762,254.879,246.754,254.893,246.743z"/>
									<path fill="#E9AD79" d="M250.807,262.097c-0.044-0.035-0.088-0.053-0.131-0.068
										C250.697,262.052,250.731,262.074,250.807,262.097z"/>
									<path fill="#E9AD79" d="M246.884,263.862l0.113,0.001C246.948,263.853,246.913,263.855,246.884,263.862z"/>
									<path fill="#E9AD79" d="M252.119,260.27c0.056-0.025,0.101-0.012,0.121-0.097c-0.017-0.005-0.029-0.007-0.043-0.008
										C252.209,260.214,252.199,260.256,252.119,260.27z"/>
									<path fill="#E9AD79" d="M253.523,258.498c-0.026-0.004-0.049,0-0.075-0.001l-0.026,0.068L253.523,258.498z"/>
									<path fill="#E9AD79" d="M227.291,245.825c-0.058-0.079-0.099-0.171-0.134-0.261c0.019,0.107-0.007,0.186-0.001,0.229
										c0,0.022,0.002,0.037,0.01,0.044C227.164,245.846,227.182,245.845,227.291,245.825z"/>
									<path fill="#E9AD79" d="M228.172,253.564c0.068-0.038,0.109-0.048,0.143-0.033c-0.018-0.017-0.037-0.031-0.057-0.045
										C228.219,253.511,228.184,253.536,228.172,253.564z"/>
									<path fill="#E9AD79" d="M250.388,258.568l0.236-0.195C250.545,258.417,250.461,258.489,250.388,258.568z"/>
									<path fill="#E9AD79" d="M242.15,244.421l-0.082,0.026C242.097,244.458,242.125,244.452,242.15,244.421z"/>
									<path fill="#E9AD79" d="M251.154,257.644c0.119,0.022,0.205,0.014,0.273-0.011c-0.012-0.024-0.02-0.048-0.043-0.075
										L251.154,257.644z"/>
									<path fill="#E9AD79" d="M227.156,245.562l0.001,0.003L227.156,245.562z"/>
									<path fill="#E9AD79" d="M227.217,246.294c-0.342-0.231-0.508-0.345-0.743-0.504c-0.011-0.015-0.02-0.027-0.024-0.035
										c0.025-0.074,0.412,0.269,0.637,0.428c-0.11-0.093-0.379-0.433-0.292-0.428c0.055,0.06,0.08,0.081,0.131,0.158
										c-0.086-0.15-0.014-0.164,0.044-0.186c0.062-0.022,0.111-0.054,0.15-0.263c0.015,0.038,0.026,0.068,0.037,0.097
										c-0.058-0.197-0.092-0.4-0.108-0.545c0.124-0.023,0.229-0.287,0.312-0.032c-0.089,0.004-0.082,0.11-0.112,0.197
										l0.135-0.134c0.186,0.359-0.188,0.157-0.151,0.436c0.277-0.16,0.578-0.517,0.816-0.439c0.096,0.361-0.509,0.192-0.166,0.48
										l-0.366-0.096c0.342,0.547-0.217-0.012,0.109,0.577c0.472,0.047,0.487-0.255,0.957-0.207
										c0.076-0.219-0.073-0.298,0.003-0.517c0.601-0.453,0.632,0.858,1.045,0.306c0.091-0.262,0.077-0.734,0.449-0.532
										l-0.061,0.432c0.448-0.018,0.174-0.632,0.675-0.413c-0.061,0.174-0.33,0.185-0.257,0.225
										c0.344,0.289,0.182-0.264,0.413-0.294l0.097,0.362c0.464-0.12,0.948-0.455,1.462-0.591
										c-0.015,0.114-0.089,0.24,0.048,0.337c0.635-0.271,1.412-0.139,2.077-0.004l0.2-0.35c0.058-0.005,0.124,0.129,0.071,0.199
										c0.264,0.088-0.014-0.204,0.089-0.345c0.138-0.04,0.21,0.159,0.133,0.267c0.402-0.328,1.169-0.745,1.674-0.465
										l-0.077,0.105c0.376,0.082,0.319-0.705,0.69-0.452l-0.056,0.064c0.29,0.014,0.583-0.032,0.871-0.075
										c0.145-0.02,0.287-0.038,0.426-0.057c0.123-0.011,0.32-0.024,0.345,0c0.021,0.021,0.122,0.05,0.217,0.09
										c0.09,0.041,0.177,0.092,0.258,0.158c0.114-0.463,0.777,0.206,0.828-0.438c0.193,0.138,0.279,0.237,0.369,0.323
										c0.045,0.043,0.09,0.083,0.15,0.122c0.065,0.039,0.151,0.078,0.148,0.119c0.018,0.029-0.019,0.053,0.091,0.097
										c0.164,0.052,0.302-0.366,0.518-0.406l-0.039,0.335l0.326-0.313l0.098,0.42l0.205-0.061
										c-0.075-0.03-0.145-0.172-0.12-0.267c0.322-0.111,0.707,0.33,0.692,0.502l0.753-0.188
										c-0.033,0.133-0.159,0.163-0.266,0.236c0.428-0.291,0.023,0.361,0.415,0.095c-0.037-0.082,0.051-0.196,0.068-0.263
										c0.147,0.226,0.545,0.279,0.851,0.232l-0.087,0.223c0.523,0.129,1.135,0.037,1.73,0.119
										c-0.2-0.135-0.099-0.527,0.082-0.543l0.023,0.361c0.142-0.202-0.165-0.156,0.102-0.393
										c0.218,0.069,0.097,0.421-0.046,0.519l0.287-0.087c0.002,0.107-0.069,0.155-0.104,0.287
										c0.14-0.204,0.421,0.417,0.632,0.057l0.001,0.106c0.596,0.082,0.882-0.005,1.37,0.042c0.049-0.304,0.23-0.211,0.407-0.438
										c0.344,0.144,0.709,0.436,1.142,0.466c0.322-0.112,0.123-0.246,0.282-0.409c-0.015,0.28,0.419,0.311,0.17,0.48
										c0.521,0.023,0.666,0.031,1.349-0.109c-0.057-0.122-0.129-0.182-0.076-0.271c0.125-0.03,0.255,0.151,0.22,0.283
										l-0.034,0.024c0.196-0.08,0.394-0.056,0.59,0.018c0.047,0.019,0.101,0.041,0.143,0.063
										c0.019,0.021,0.035,0.042,0.051,0.064c0.029,0.046,0.049,0.097,0.062,0.145c0.065,0.193-0.091,0.338,0.269,0.091
										l-0.037,0.024c0.096-0.052,0.249-0.128,0.261-0.094c0.06-0.025,0.118-0.045,0.176-0.059
										c-0.079,0.135-0.233,0.098-0.45,0.286c0.253-0.087,0.206,0.052,0.155,0.126c-0.055,0.091-0.118,0.126,0.021,0.238
										c-0.896,0.29-0.188,1.525-0.777,2.032l0.196-0.01c0.171,0.174-0.133,0.168-0.19,0.274c0.152,0.002,0.193-0.143,0.288-0.036
										c0.081,1.289-0.538,2.594-0.754,3.918c-0.067,0.483,0.999,0.297,0.523,0.891l-0.359-0.177
										c0.21,0.489,0.207,0.981,0.204,1.476c-0.001,0.246-0.004,0.492,0.022,0.735c0.013,0.113,0.031,0.259,0.059,0.344
										c0.026,0.049,0.062,0.101,0.111,0.16c-0.085-0.035-0.194-0.045-0.194-0.079c-0.248,0.077-0.014,0.188,0.165,0.286
										c-0.042,0.027-0.184-0.069-0.289-0.103c-0.173-0.003,0.091,0.522-0.174,0.454c-0.044-0.009-0.048-0.085-0.05-0.123
										c0.055,0.163-0.302,0.43,0.012,0.5c-0.286,0.183-0.222,0.575-0.516,0.674c0.175,0.337-0.453,0.326-0.111,0.664
										c-0.372-0.323-0.654,0.168-0.62,0.471c-0.066-0.149-0.23,0.023-0.331-0.174c-0.144,0.169-0.222,0.378-0.012,0.527
										c-0.701-0.126-0.283,0.938-0.969,0.529c-0.324,0.634-0.729,1.155-1.19,1.578c-0.241-0.423,0.539-0.411,0.221-0.825
										c-0.338,0.48-0.413,1.024-0.98,1.192c-0.162,0.009-0.024-0.229-0.022-0.326c-0.41,0.451-0.991,0.435-1.37,0.853
										c-0.015-0.044,0.021-0.109,0.056-0.161c-0.088,0.048-0.239,0.008-0.157,0.216l0.072-0.09
										c0.268,0.254-0.167,0.775-0.144,0.943c-0.019-0.662-0.551-0.009-0.503-0.866c-0.051,0.057-0.103,0.181-0.05,0.322
										c-0.106-0.017-0.156-0.096-0.105-0.284c-0.312,0.203-0.137,0.407-0.46,0.471c-0.021-0.106,0.036-0.161,0.042-0.292
										c-0.113,0.239-0.245,0.482-0.537,0.434c0.006-0.067-0.038-0.146,0.044-0.157c-0.453,0.102-0.761,0.664-1.315,0.474
										c0.146-0.473-0.186-0.152-0.212-0.561l-0.278,0.116l0.108,0.201c-0.245-0.012-0.485,0.271-0.694,0.122l0.198-0.154
										l-0.474,0.035l0.252,0.181c-0.277,0.185-0.019,0.521-0.355,0.369c0.076-0.03-0.264-0.036-0.361-0.295l0.001-0.001
										c-0.145,0.109-0.303,0.223-0.476,0.087c-0.023-0.137,0.124-0.437,0.108-0.527c-0.188,0.314-0.597-0.027-0.839,0.282
										c0.073-0.069,0.128-0.276,0.122-0.323l-0.171,0.243c-0.094-0.118-0.099-0.163-0.035-0.323
										c-0.328-0.145-0.029,0.532-0.38,0.198c0.038-0.012,0.035-0.056,0.114-0.076c-0.374-0.23-0.848-0.084-1.172-0.357
										c0.042-0.424,0.355,0.027,0.354-0.344c-0.537-0.12-1.268,0.013-1.723-0.33l0.071,0.088
										c-0.333,0.481-0.237-0.441-0.607-0.336c0.081-0.004,0.233-0.238,0.186-0.19c-0.282-0.262-0.736-0.252-1.324-0.413
										l0.141-0.087c-0.117-0.232-0.452-0.386-0.61-0.581c-0.145,0.081-0.244-0.02-0.3,0.207c-0.104-1.114-1.436-0.503-1.51-1.488
										c0.062,0.05,0.229,0.022,0.181-0.019l-0.52-0.263c-0.132,0.22-0.044,0.163-0.081,0.392
										c-0.152,0.065-0.354,0.048-0.461-0.049c0.306,0.047,0.266-0.308,0.277-0.484c-0.038,0.07-0.123,0.108-0.168,0.174
										c0.076-0.534-0.377,0.345-0.48-0.157l0.105-0.082c-0.159-0.054-0.383-0.024-0.479-0.166
										c0.15-0.259,0.214,0.013,0.386-0.155c-0.181-0.144-0.716,0.085-0.667-0.271c0.128,0.011,0.232,0.107,0.359,0.117
										c0.071-0.406-0.008-0.359-0.09-0.518l0.007,0.017l-0.168-0.384l0.004,0.137c-0.744,0.333-0.514-0.319-1.145-0.257
										c0.606-0.051,0.24-0.144,0.5-0.352c-0.001-0.136-0.03-0.315,0.067-0.349c-0.321,0.051-0.056-0.365-0.517-0.289
										c0.069-0.08-0.126-0.151,0.1-0.302c-0.221-0.119-0.099,0.166-0.211,0.242c-0.521-0.03-0.248-0.936-0.97-1.01
										c-0.453-0.216-0.784-0.051-1.197-0.271c0.04-0.221,0.376-0.154,0.376-0.154c-0.027-0.28-0.159-0.397-0.394-0.492
										c0.101-0.023,0.134-0.108,0.186-0.235c-0.131-0.12-0.377,0.149-0.398-0.131c0.118-0.042,0.299-0.12,0.444-0.128
										c-0.205-0.1-0.487-0.139-0.695-0.25c0.111-0.158,0.303-0.07,0.444-0.086c-0.215-0.137-0.515-0.39-0.794-0.271l0.012,0.187
										c-0.065-0.061,0.172-0.188,0.255-0.17c0.308,0.024,0.101,0.299,0.023,0.374l-0.147-0.08
										c-0.398,0.509,0.458,0.428,0.621,0.689l-0.437,0.183l0.493,0.014c-0.05,0.126-0.217,0.321-0.367,0.245
										c-0.034,0.314,0.25,0.052,0.177,0.358c-0.017,0.042-0.04,0.048-0.066,0.044l0.244,0.084
										c-0.102,0.027-0.226,0.232-0.261,0.087c0.051,0.473,0.668,0.27,0.501,0.604l-0.043-0.007
										c0.472,0.316,0.289-0.175,0.852-0.122l-0.441,0.748l0.287-0.18c0.028,0.051,0.083,0.15-0.03,0.224
										c0.311,0.006,0.085-0.123,0.327-0.175c-0.048,0.406,0.603,0.457,0.253,0.86c0.253-0.101-0.031-0.322,0.295-0.23
										c-0.364,0.45,0.298,0.179,0.277,0.536c-0.267,0.149-0.315-0.131-0.335,0.231c0.463-0.234,0.258,0.427,0.476,0.513
										c0.289-0.271,0.439,0.209,0.785,0.36c-0.109,0.08,0.328,0.617,0.479,0.945l-0.052,0.043c0.317-0.253,0.518,0.03,0.759,0.13
										c-0.166,0.175-0.262,0.217-0.435,0.207l0.178,0.155c0.126-0.062,0.227-0.065,0.371-0.001l-0.24,0.189
										c0.25,0.193,0.707,0.135,0.895,0.542c0.189-0.207,0.243-0.803,0.682-0.693c-0.081,0.128-0.229,0.341-0.354,0.321
										c0.041,0.008,0.179-0.02,0.195,0.076l-0.289,0.096c0.073,0.201,0.206-0.108,0.305,0c-0.136,0.169-0.01,0.187-0.131,0.31
										c-0.043-0.006-0.046-0.147-0.143-0.115c0.105,0.132,0.188,0.354,0.141,0.524c0.063-0.106,0.176-0.23,0.289-0.182
										c0.26,0.174-0.069,0.272,0.013,0.472c0.15-0.076,0.224,0.167,0.415-0.093c0.073,0.055,0,0.188-0.021,0.279
										c0.214-0.021,0.652,0.397,0.691,0.009l-0.021-0.042c0.01,0.001,0.018,0.002,0.029,0.003l-0.001-0.001l0.001,0.001
										c0.609,0.022,0.825,0.746,1.359,0.886l-0.054,0.094c0.334,0.047,0.654,0.269,0.957,0.158
										c0.082,0.041,0.11,0.274,0.02,0.372c0.255,0.03,0.325-0.067,0.573,0.236c-0.3,0.073,0.01,0.188-0.285,0.024
										c0.25,0.214,0.254,0.405,0.683,0.26c-0.213,0.213,0.097,0.415,0.271,0.39l-0.141-0.264c0.175,0.022,0.305,0.099,0.44,0.17
										l-0.2,0.315c0.512,0.653,1.354-0.354,1.659,0.478c0.229-0.207-0.312-0.259-0.088-0.511c0.274,0.12,0.484,0.693,0.585,0.714
										c0.393,0.275,0.481-0.453,0.892-0.259c-0.041-0.135-0.042-0.484,0.28-0.569c0.283,0.075,0.318,0.576,0.115,0.662
										c-0.074,0.004-0.105-0.04-0.099-0.084c-0.103,0.039-0.239,0.077-0.133,0.231l0.054-0.125
										c0.138,0.149,0.57,0.167,0.455,0.371c0.247-0.109,0.112-0.204-0.055-0.284c0.388,0.214,0.621,0.039,1.034,0.162
										c-0.067-0.071-0.128-0.223-0.063-0.223c0.604,0.147,0.258-0.25,0.648-0.326c0.24,0.18-0.048,0.479,0.346,0.279
										c0.262,0.109,0.089,0.338-0.006,0.453c0.355-0.283,0.735,0.08,0.971,0.086l-0.188,0.137
										c0.113-0.082,0.214-0.095,0.316-0.113l-0.161-0.235c0.126,0.024,0.227,0.006,0.244,0.112
										c0.088-0.189-0.169-0.406,0.018-0.681c0.18,0.102,0.421-0.236,0.555,0.084c-0.504,0,0.136,0.325-0.266,0.474
										c0.072-0.058,0.17-0.077,0.298-0.062c0.026,0.033,0,0.073-0.027,0.1c0.549,0.18,0.123-0.429,0.593-0.555
										c-0.005,0.205,0.217,0.319,0.283,0.254c-0.195,0.057-0.185-0.279-0.062-0.476c0.343,0.045,0.281-0.216,0.437-0.254
										l-0.196-0.004c-0.007-0.203,0.143-0.23,0.314-0.364c0.073,0.135-0.139,0.167-0.045,0.201
										c0.087-0.399,0.629,0.128,0.84-0.225c0.195,0.054,0.169,0.325,0.332,0.346c0.228-0.394,0.494,0.052,0.751-0.327
										c-0.229-0.172-0.21-0.107-0.098-0.464c0,0-0.118,0.118-0.235,0.237c-0.121,0.115-0.243,0.231-0.243,0.231l0.184-0.528
										c-0.166,0.09-0.278,0.335-0.402,0.348c0.077-0.277,0.087-0.21-0.092-0.362c0.413,0.229,0.34-0.436,0.721-0.354l0.321,0.561
										c0.557,0.002,0.525-0.713,1.092-0.928l-0.221,0.021c-0.086-0.253,0.272-0.244,0.359-0.444
										c0.118,0.182,0.262,0.169,0.41,0.222c-0.108-0.117,0.352-0.269,0.109-0.632l0.386,0.04
										c0.438-0.239-0.019-0.816,0.344-1.076c0.072,0.262,0.328,0.223,0.229,0.559c0.111-0.106,0.236-0.179,0.131-0.284
										c0.162,0.029,0.08-0.505,0.323-0.47c-0.028-0.111-0.182-0.276-0.059-0.391c0.045,0.016,0.08,0.071,0.08,0.071
										c-0.078-0.071,0.061-0.293-0.215-0.339c0.822,0.087,0.755-1.012,1.444-1.01c0.128-0.314,0.281-0.686,0.417-0.951
										c0.046,0.049,0.092,0.055,0.044,0.093c0.39-0.277-0.428-0.488,0.02-0.854c0.464-0.14,0.034,0.346,0.241,0.232
										c0.344,0.11,0.424-0.101,0.475-0.34c0-0.247-0.163-0.506,0.051-0.709l0.047,0.105c0.222-0.403-0.296-0.616-0.256-1.01
										c0,0,0.062,0.016,0.105-0.001c-0.369-0.241-0.496-0.721-0.597-1.079c0.278,0.111,0.148,0.162,0.43,0.094
										c-0.041-0.159-0.454,0.049-0.532-0.272c0.153-0.104,0.287-0.333,0.589-0.359l0.015,0.299
										c0.391-0.149-0.011-0.386,0.062-0.542l0.17,0.022c-0.047-0.455-0.475-0.475-0.427-0.969l-0.131,0.046
										c-0.413-0.289,0.248-0.216-0.055-0.501l0.436-0.059c-0.096-0.182-0.381-0.647-0.438-0.976
										c0.307,0.206,0.443,0.589,0.622,0.828c0.011-0.174,0.006-0.595-0.2-0.702c0.036,0.074,0.136,0.17,0.065,0.235
										c-0.325-0.238-0.47-0.538-0.433-0.891c0.826,0.136,0.294-0.897,0.974-1.077c-0.238-0.649,0.282-1.193,0.346-1.899
										c-0.683,0.146,0.016-0.208-0.649-0.275c-0.015-0.174,0.008-0.235,0.053-0.243c-0.011,0.048,0.533-0.691,0.544-0.722
										c0.243-0.22,0.099,0.247,0.259,0.222c0.187-0.655,0.347-0.294,0.646-0.813c-0.278,0.148-0.316-0.146-0.112-0.579
										l-0.474,0.646c-0.093-0.378,0.106-0.598,0.323-0.885c0.212-0.271,0.445-0.615,0.351-0.955
										c0.002-0.007,0.182,0.137,0.181,0.143c-0.003-0.078,0.011-0.19,0.034-0.326c-0.651-0.044-1.693-0.181-2.313,0.18
										c-0.026-0.081-0.036-0.267,0.205-0.284c-0.276-0.057-0.601-0.073-0.919-0.069c-0.291,0.006-0.705,0.016-0.822,0.057
										c-0.355,0.066-0.688,0.104-0.916-0.093l0.07-0.156c-0.126,0.031-0.249,0.277-0.378,0.095
										c0.017-0.066,0.07-0.156,0.016-0.173c-0.071,0.048-0.356,0.242-0.503,0.127l0.16-0.164c-0.6-0.295-1.021,0.317-1.562,0.359
										c0.063-0.477-0.409-0.697-0.646-0.807l0.018-0.066c-0.723-0.155-1.293,0.232-1.993,0.331
										c-0.353-0.573-1.394-0.404-2.03-0.783c0.092,0.101-0.065,0.37-0.191,0.401c-0.146-0.117-0.481,0.274-0.399-0.16
										l0.056,0.016c-0.062-0.445-0.403-0.373-0.656-0.419l-0.117,0.567c-0.555-0.92-1.781,0.077-2.046-0.717
										c-0.206,0.118-0.317,0.103-0.615,0.209l0.038-0.308c-0.018-0.004-0.035-0.009-0.046-0.011
										c-0.226-0.019-0.295-0.035-0.386-0.048c-0.09-0.013-0.176-0.022-0.265-0.026c-0.178-0.01-0.37,0-0.64,0.036l0.112-0.223
										c-0.312-0.02-0.394,0.894-0.683,0.911l-0.086-0.462c-0.08,0.001-0.173-0.009-0.35-0.024
										c-0.229,0.01-0.307-0.01-0.431-0.021c-0.117-0.012-0.233-0.021-0.349-0.018c-0.229,0.007-0.45,0.067-0.65,0.271
										c0-0.068-0.002-0.202,0.083-0.232c-0.256,0.021-1.024-0.181-0.85,0.436c-0.061-0.408-0.562,0.034-0.831,0.253l0.006-0.309
										c-0.195,0.419-0.189,0.525-0.52,0.678c-0.087-0.029-0.104-0.232,0.015-0.17c-0.292-0.122-0.174,0.314-0.524,0.196
										l0.098-0.209c-0.283,0.014-0.247,0.114-0.371,0.359c-0.16,0.145-0.541-0.007-0.617-0.274
										c-0.017,0.172-0.14,0.415-0.315,0.357c-0.035-0.101,0.016-0.172,0.042-0.207c-0.494-0.145-0.648,0.442-1.01,0.188
										c-0.02-0.099-0.047-0.146-0.077-0.173c0.372-0.042,0.673-0.064,0.648-0.039c-0.037-0.278-0.344-0.288-0.155-0.704
										c-0.213,0.241-0.564,0.752-0.875,0.66c-0.018-0.025-0.035-0.05-0.051-0.092l0.026-0.035
										c-0.071-0.019-0.129,0.015-0.179,0.069c-0.1-0.034-0.164-0.06-0.254-0.053c-0.064-0.225-0.36-0.078-0.511-0.069
										c0.052,0.303-0.15,0.279,0.066,0.507c-0.026-0.019,0.023-0.04,0.121-0.066c0.021-0.012,0.048-0.02,0.06-0.039l-0.007,0.028
										c0.098-0.019,0.226-0.042,0.369-0.069c-0.098,0.17-0.204,0.316-0.392,0.169c-0.051,0.206-0.109,0.419-0.145,0.52
										c-0.26-0.398-0.685-0.576-0.774-0.831c-0.434,0.231-1.061,0.254-1.272,0.864c-0.12,0.091-0.171-0.144-0.231-0.228
										c0.067-0.067,0.157-0.07,0.188-0.158c-0.24,0.182-0.762,0.158-0.771,0.566c-0.351-0.138,0.136-0.393-0.305-0.268
										l0.044-0.131c-0.487-0.261-0.804,0.04-1.157,0.323c-0.53,0.307-0.747,0.549-1.742,0.262
										c0.138,0.033,0.201,0.049,0.272,0.107c-0.394-0.023-0.83-0.024-1.137,0.059c0.318,1.247,0.897,2.555,0.551,3.314
										c-0.069,0.324,0.189,0.319,0.41,0.48l-0.318,0.112l0.422,0.271c0.336,0.431-0.707,0.887-0.125,1.408l0.215-0.097
										c-0.021,0.213,0.191,0.652-0.066,0.64c0.041,0.018,0.235,0.049,0.127,0.141l-0.172,0.021l0.333,0.492
										c-0.099,0.409-0.686-0.015-0.685,0.564c0.079,0.208,0.532,0.587,0.645,0.501c0.005-0.087,0.097-0.229,0.27-0.244l0.1,0.195
										c0.511,0.012,1.039,0.152,1.37-0.373l-0.331-0.334l0.24-0.129l0.032,0.296c0.222-0.182,0.011-0.277-0.138-0.388
										c0.129-0.036,0.217-0.092,0.262-0.166l-0.51-0.311c0.195-0.057,0.406,0.126,0.498-0.115
										c-0.238-0.145-0.434,0.189-0.602-0.066c0.216-0.186,0.408-0.153,0.195-0.333c0.128-0.039,0.215-0.005,0.279,0.069
										c-0.171-0.163-0.109-0.461-0.387-0.525c0.268-0.203-0.135-0.582,0.346-0.617c-0.12-0.044-0.411-0.268-0.45-0.425
										c0.61,0.225-0.042-0.605,0.581-0.609c-0.543-0.149-0.339-0.759-0.688-1.1c0.044,0.015,0.134,0.044,0.113,0.082
										c0.008-0.224,0.15-0.312,0.224-0.469c-0.212,0.032-0.363-0.069-0.484-0.116c-0.117-0.025-0.219-0.081-0.364-0.137
										c0.403-0.094,0.527,0.082,0.921,0.03c-0.349,0.024-0.374-0.113-0.674-0.146c0.255-0.021,0.116-0.045,0.495,0.044
										c-0.585-0.201-0.106-0.067-0.484-0.281c0.275,0.045,0.568,0.282,0.362,0.1C226.99,246.134,227.22,246.305,227.217,246.294z
										 M232.396,244.675l0.001,0.006c-0.063,0.016-0.117,0.029-0.152,0.037C232.275,244.709,232.319,244.696,232.396,244.675z
										 M233.023,244.587c-0.078-0.002-0.174,0.009-0.274,0.024c-0.036-0.103-0.026-0.214,0.038-0.217
										C232.762,244.469,232.918,244.511,233.023,244.587z M231.416,242.65c0.094-0.057,0.136-0.002,0.157,0.06
										c-0.046,0.011-0.1,0.028-0.169,0.059l-0.007,0.039C231.399,242.748,231.402,242.692,231.416,242.65z"/>
									<path fill="#E9AD79" d="M231.29,243.072c-0.014,0.009-0.02,0.022-0.038,0.028c0.023,0.024,0.046,0.044,0.068,0.061
										l0.022-0.1L231.29,243.072z"/>
									<path fill="#E9AD79" d="M234.618,261.419l0.008,0.013c-0.003-0.016-0.005-0.032,0-0.052
										C234.625,261.397,234.62,261.405,234.618,261.419z"/>
									<polygon fill="#E9AD79" points="241.431,244.479 241.439,244.401 241.376,244.462 									"/>
									<path fill="#E9AD79" d="M232.516,258.45c0.013-0.025,0.021-0.055,0.019-0.089
										C232.522,258.378,232.518,258.411,232.516,258.45z"/>
									<path fill="#E9AD79" d="M231.481,257.392l-0.072-0.225C231.43,257.274,231.456,257.342,231.481,257.392z"/>
									<path fill="#E9AD79" d="M230.791,256.478c-0.049,0.027-0.081,0.053-0.111,0.075v0.003L230.791,256.478z"/>
									<path fill="#E9AD79" d="M246.098,261.961c0.013-0.007,0.023-0.016,0.032-0.027
										C246.197,261.845,246.146,261.889,246.098,261.961z"/>
									<path fill="#E9AD79" d="M241.169,263.145c0.063-0.047,0.126-0.094,0.188-0.12
										C241.268,262.987,241.197,262.973,241.169,263.145z"/>
									<polygon fill="#E9AD79" points="250.361,258.59 250.365,258.594 250.388,258.568 									"/>
									<path fill="#E9AD79" d="M241.596,263.06c-0.085-0.072-0.162-0.067-0.239-0.035
										C241.429,263.056,241.514,263.097,241.596,263.06z"/>
									<path fill="#E9AD79" d="M227.703,252.639l-0.022-0.051c-0.016,0.013-0.031,0.02-0.044,0.024L227.703,252.639z"/>
									<path fill="#E9AD79" d="M227.637,252.612l-0.066-0.026C227.588,252.608,227.604,252.626,227.637,252.612z"/>
									<path fill="#E9AD79" d="M227.432,252.53l0.139,0.056C227.545,252.55,227.52,252.501,227.432,252.53z"/>
									<path fill="#E9AD79" d="M228.526,253.911l0.098-0.058C228.6,253.861,228.568,253.879,228.526,253.911z"/>
									<path fill="#E9AD79" d="M228.843,254.244c-0.051-0.101,0.008-0.361-0.142-0.436l-0.077,0.045
										C228.797,253.805,228.631,254.284,228.843,254.244z"/>
									<path fill="#E9AD79" d="M229.073,256.613l-0.198-0.354c-0.043,0.131-0.102,0.306-0.242,0.189
										C228.703,257.059,228.761,256.196,229.073,256.613z"/>
									<path fill="#E9AD79" d="M229.789,257.629c-0.189-0.115-0.123,0.122-0.179,0.161
										C229.783,257.812,229.825,257.816,229.789,257.629z"/>
									<path fill="#E9AD79" d="M236.943,263.027l-0.141,0.243C236.976,263.307,236.851,263.174,236.943,263.027z"/>
									<polygon fill="#E9AD79" points="239.035,262.325 238.953,262.112 238.8,262.329 									"/>
									<polygon fill="#E9AD79" points="239.416,264.524 239.331,264.543 239.643,264.52 									"/>
									<path fill="#E9AD79" d="M253.514,258.986l-0.311-0.159C253.186,258.956,253.482,259.207,253.514,258.986z"/>
									<path fill="#E9AD79" d="M254.492,252.32c0.175-0.062,0.293-0.229,0.129-0.346
										C254.591,252.113,254.451,252.247,254.492,252.32z"/>
									<polygon fill="#E9AD79" points="243.46,241.959 243.602,241.86 243.351,241.925 									"/>
								</g>
							</g>
						</g>
					</g>
				</g>
			</g>
			<path fill="#FCCAA0" d="M273.641,188.082c0.209,0.612,6.807,42.432-8.545,57.928s-41.902,6.325-48.371-9.558
				c-5.582-13.708-6.662-39.536,4.201-55.322C231.787,165.344,262.924,156.655,273.641,188.082z"/>
			<g>
				<g>
					<path fill="#E6A165" d="M253.668,199.464c-0.458,5.062-0.916,10.124-1.374,15.187c-0.234,2.588-0.469,5.176-0.702,7.764
						c-0.09,0.989,0.256,0.371-0.477,0.514c-1.272,0.249-2.545,0.498-3.818,0.746c-0.519,0.102-0.298,0.892,0.219,0.791
						c1.508-0.295,3.017-0.589,4.525-0.884c0.188-0.037,0.285-0.223,0.301-0.396c0.716-7.907,1.431-15.814,2.146-23.722
						C254.536,198.937,253.715,198.941,253.668,199.464L253.668,199.464z"/>
				</g>
			</g>
			
				<ellipse transform="matrix(0.999 -0.0437 0.0437 0.999 -9.0682 10.4613)" fill="#4F3315" cx="234.842" cy="212.729" rx="1.822" ry="2.608"/>
			
				<ellipse transform="matrix(0.999 -0.0437 0.0437 0.999 -9.0763 11.5682)" fill="#4F3315" cx="260.308" cy="213.581" rx="1.823" ry="2.607"/>
			<g>
				<g>
					<path fill="#E6A165" d="M206.166,217.857c3.073,0.204,5.214,2.793,4.45,5.876c-0.498,2.012-2.793,1.777-3.803,0.354
						c-0.677-0.955-0.404-1.965,0.721-2.301c0.997-0.298,2.073,0.157,2.723,0.912c0.346,0.401,0.923-0.182,0.58-0.58
						c-1.187-1.38-5.066-1.997-5.222,0.639c-0.124,2.097,2.23,3.86,4.198,3.122c2.5-0.938,2.058-4.907,0.796-6.622
						c-0.992-1.349-2.801-2.11-4.443-2.22C205.638,217.002,205.641,217.822,206.166,217.857L206.166,217.857z"/>
				</g>
			</g>
			<g>
				<g>
					<path fill="#E6A165" d="M280.645,219.047c-1.645,0.109-3.323,0.858-4.378,2.136c-1.429,1.73-1.691,5.534,0.633,6.664
						c1.944,0.945,4.161-0.925,4.31-2.859c0.086-1.122-0.979-1.828-1.938-2.03c-1.216-0.255-2.503,0.246-3.298,1.17
						c-0.343,0.398,0.234,0.981,0.58,0.58c1.201-1.396,4.828-1.265,3.554,1.208c-0.815,1.581-3.103,1.851-3.831,0.078
						c-1.269-3.09,1.387-5.929,4.368-6.126C281.17,219.832,281.173,219.012,280.645,219.047L280.645,219.047z"/>
				</g>
			</g>
			<g>
				<ellipse fill="#EF8267" cx="263.953" cy="227.9" rx="5.648" ry="4.562"/>
			</g>
			<g>
				<ellipse fill="#EF8267" cx="226.106" cy="225.191" rx="5.647" ry="4.562"/>
			</g>
			<path fill="#4F3315" d="M229.912,201.883c0.568,1.19,2.777-0.055,5.594-1.395s5.174-2.271,4.605-3.463
				c-0.566-1.191-3.311-1.069-6.127,0.271C231.168,198.637,229.346,200.689,229.912,201.883z"/>
			<path fill="#4F3315" d="M258.229,198.552c-0.516,1.214,1.881,2.041,4.752,3.261c2.871,1.219,5.131,2.366,5.646,1.152
				c0.516-1.215-1.395-3.188-4.266-4.406C261.49,197.34,258.744,197.336,258.229,198.552z"/>
			<g>
				<g>
					<path fill="#E6A165" d="M236.136,235.812c3.873-6.727,15.99-7.67,18.939,0.381c0.181,0.492,0.974,0.279,0.791-0.219
						c-3.195-8.722-16.193-7.95-20.439-0.576C235.163,235.856,235.871,236.27,236.136,235.812L236.136,235.812z"/>
				</g>
			</g>
			<path fill="#5F3908" d="M227.9,169.255c0,0,11.73,19.261,16.799,19.261s1.443-10.281,1.443-10.281s7.826,18.005,30.998,19.936
				c0,0-0.51-36.992-31.84-34.709L227.9,169.255z"/>
			<path fill="#5F3908" d="M233.018,169.206c0,0-8.582,33.962-21.662,36.765c-3.008,0.646-0.375-14.501-0.264-17.84
				c0.371-11.052,9.945-19.721,20.98-19.002C232.383,169.148,232.697,169.175,233.018,169.206z"/>
			<polygon fill="#FCCAA0" points="257.215,210.812 264.465,214 263.87,210.54 			"/>
			<polygon fill="#FCCAA0" points="238.965,210.188 230.09,213.125 231.465,209.25 			"/>
		</g>
		<polygon fill="#4F3315" points="261.838,212.839 265.18,213.487 261.408,215.209 		"/>
	</g>
	<g>
		<defs>
			<path id="SVGID_9_" d="M198.645,286.362c0.162,0.106,0.316,0.218,0.48,0.323c19.414,13.283,63.746,14.889,82.178-0.271
				c36.058,6.252,34.878,36.72,37.058,71.252h-157C163.544,323.065,173.01,295.188,198.645,286.362z"/>
		</defs>
		<clipPath id="SVGID_6_">
			<use xlink:href="#SVGID_9_"  overflow="visible"/>
		</clipPath>
		<rect x="151.027" y="283.999" clip-path="url(#SVGID_6_)" fill="#263247" width="183.666" height="83.334"/>
		<path clip-path="url(#SVGID_6_)" fill="#141F2E" d="M323.36,299.329c0,0-53.667,50.671-166.667,12.338l-2.332,42.667h169.666
			L323.36,299.329z"/>
	</g>
	<path fill="#141F2E" d="M315.797,347.137"/>
	<path fill="#F5A700" d="M204.826,340v-55.662c0,0-8.111-1.014-14.289,5.165V340H204.826z"/>
	<path fill="#F5A700" d="M275.121,340v-55.662c0,0,8.109-1.014,14.289,5.165V340H275.121z"/>
</g>
<g>
	<path fill="#007E85" d="M170.183,97.172c1.484,0,1.736-0.504,1.959-3.08c0.672,0.504,1.961,1.008,2.857,1.176
		c-0.42,3.696-1.373,4.816-4.564,4.816h-5.965c-3.807,0-4.871-0.952-4.871-4.396V84.88c-0.281,0.308-0.588,0.588-0.869,0.868
		c-0.223-0.644-0.84-2.016-1.344-2.912h-2.1v4.172c0.896-0.252,1.764-0.504,2.633-0.756l0.447,3.024l-3.08,0.896v6.58
		c0,1.54-0.252,2.352-1.092,2.856c-0.84,0.56-2.072,0.672-3.863,0.644c-0.057-0.812-0.449-2.184-0.84-3.052
		c1.008,0.028,1.959,0.028,2.295,0c0.336,0,0.477-0.112,0.477-0.476V91.04l-2.688,0.784l-0.729-3.192
		c0.98-0.224,2.127-0.504,3.416-0.84v-4.956h-2.969v-3.08h2.969v-5.264h3.023v5.264h2.576v1.932c1.791-1.876,3.359-4.508,4.312-7.28
		l3.023,0.924c-0.279,0.728-0.561,1.428-0.896,2.156h9.604v1.4c-0.027,9.24-0.111,12.488-0.84,13.552
		c-0.672,0.896-1.371,1.176-2.379,1.316c-0.924,0.112-2.436,0.112-3.92,0.084c-0.057-0.7-0.309-1.568-0.672-2.324h-3.389v4.144
		c0,1.316,0.252,1.512,2.016,1.512H170.183z M162.79,80.484c-0.42,0.728-0.867,1.428-1.344,2.1h7.363v8.4h0.42
		c0.504,0,0.729-0.056,1.008-0.392c0.449-0.588,0.533-3.332,0.533-10.108H162.79z M162.706,88.856h3.191v-3.612h-3.191V88.856z"/>
	<path fill="#007E85" d="M189.335,97.732c-0.42-0.84-1.26-2.156-2.072-3.36v6.3h-2.688v-8.176h-1.457v8.204h-2.688v-5.32
		c-0.729,1.4-1.541,2.772-2.381,3.696c-0.252-0.896-0.811-2.296-1.232-3.136c0.98-0.812,2.045-2.1,2.828-3.444h-1.791v-2.38h2.828
		v-1.512h-3.5v-2.436h3.5V84.88h-2.828V82.5h2.828v-1.344h-3.107v-2.548h2.658c-0.504-0.868-1.203-1.904-1.875-2.744l2.436-1.26
		c0.896,1.008,1.932,2.408,2.436,3.332l-1.23,0.672h3.416c0.84-1.26,1.848-2.996,2.379-4.228l3.053,1.176
		c-0.785,1.036-1.596,2.1-2.352,3.052h3.023v2.548h-4.508V82.5h3.668v1.848c1.736-2.352,2.771-6.104,3.303-9.968l2.996,0.42
		c-0.195,1.26-0.42,2.464-0.699,3.668h4.424l0.477-0.14l2.043,0.588c-0.504,2.688-1.232,5.712-1.932,7.672l-2.436-0.756
		c0.336-1.12,0.699-2.716,1.008-4.34h-4.48c-0.588,1.82-1.344,3.416-2.211,4.676c-0.533-0.448-1.736-1.204-2.492-1.624v1.624h1.428
		v2.436h-1.428v3.892h-2.213c1.008,1.148,2.24,2.632,2.633,3.136L189.335,97.732z M183.118,82.5h1.457v-1.344h-1.457V82.5z
		 M183.118,86.168h1.457V84.88h-1.457V86.168z M183.118,90.116h1.457v-1.512h-1.457V90.116z M187.011,84.88v1.288h1.316V84.88
		H187.011z M188.327,88.604h-1.316v1.512h1.316V88.604z M198.351,84.936c0,0.644-0.029,1.344-0.057,2.072
		c0.84,5.264,2.213,8.428,5.293,11.172c-0.756,0.588-1.598,1.54-1.988,2.408c-2.156-2.1-3.584-4.34-4.564-7.168
		c-0.896,2.548-2.465,5.096-5.012,7.252c-0.393-0.728-1.4-1.848-2.045-2.38c4.957-4.088,5.461-9.8,5.461-13.412v-2.1h2.912V84.936z"
		/>
	<path fill="#007E85" d="M214.282,91.432c2.184-0.7,3.443-1.904,3.611-3.388c-0.084,0.028-0.195,0.028-0.309,0.028
		c-1.398,0-2.66-0.896-2.66-2.492c0-1.568,1.262-2.52,2.744-2.52c1.988,0,3.025,1.484,3.025,3.836c0,3.164-2.045,5.768-5.516,6.776
		L214.282,91.432z"/>
	<path fill="#007E85" d="M247.321,82.22c-0.195,0.28-0.42,0.532-0.615,0.812c2.771,1.792,7.615,3.892,11.646,4.956
		c-0.727,0.672-1.764,2.044-2.295,2.912c-1.793-0.616-3.725-1.484-5.516-2.436v1.54h-11.229v-1.148
		c-1.709,0.952-3.584,1.764-5.516,2.436c-0.42-0.756-1.4-2.128-2.072-2.716c5.291-1.596,10.191-4.396,12.656-7.644l1.875,0.812
		c-0.615-0.7-1.68-1.68-2.324-2.156l0.252-0.224h-4.535c0.924,0.812,1.959,1.792,2.492,2.52l-2.436,2.072
		c-0.533-0.84-1.766-2.156-2.773-3.08l1.904-1.512h-1.764c-0.98,1.456-2.045,2.8-3.137,3.836c-0.42-0.7-1.539-2.212-2.184-2.856
		c1.709-1.484,3.359-3.808,4.256-6.104l3.248,0.98c-0.168,0.42-0.363,0.84-0.561,1.26h6.021v2.324
		c1.146-1.232,2.043-2.912,2.604-4.536l3.389,0.868c-0.168,0.448-0.336,0.896-0.533,1.344h7.42v2.884h-5.543
		c0.895,0.756,1.82,1.624,2.295,2.296l-2.379,2.044c-0.533-0.812-1.736-2.128-2.744-3.024l1.596-1.316h-2.184
		c-0.588,0.98-1.289,1.848-1.988,2.548L247.321,82.22z M236.569,91.516h16.688v9.044h-3.332v-0.756h-10.164v0.84h-3.191V91.516z
		 M239.761,94.372v2.548h10.164v-2.548H239.761z M248.386,87.26c-1.316-0.784-2.521-1.568-3.529-2.296
		c-0.895,0.84-1.848,1.568-2.883,2.296H248.386z"/>
	<path fill="#007E85" d="M270.31,95.044l0.168,2.632c-3.389,0.784-7,1.512-9.744,2.128l-0.615-2.996
		c1.146-0.168,2.547-0.42,4.088-0.672v-7h-3.725v-2.828h3.725v-2.044h-2.102v-1.26c-0.447,0.42-0.924,0.84-1.371,1.204
		c-0.141-0.728-0.756-2.604-1.148-3.416c2.072-1.512,4.256-3.948,5.545-6.496l2.436,1.12c-0.168,0.336-0.336,0.672-0.531,1.008
		c1.734,0.98,3.387,2.184,4.395,3.136l-1.371,2.744c-0.225-0.224-0.449-0.42-0.701-0.672v2.632h-2.436v2.044h3.359v2.828h-3.359
		v6.524L270.31,95.044z M262.722,90.172c0.475,1.484,0.896,3.5,1.035,4.76l-2.156,0.644c-0.084-1.344-0.504-3.332-0.895-4.844
		L262.722,90.172z M269.218,81.492c-1.037-0.896-2.354-1.848-3.641-2.66c-0.615,0.924-1.316,1.82-2.043,2.66H269.218z
		 M267.173,94.596c0.393-1.26,0.785-3.276,0.98-4.704l2.352,0.644c-0.531,1.624-1.035,3.472-1.455,4.676L267.173,94.596z
		 M285.821,83.256v2.996h-14.924v-2.996h2.996v-2.632h-2.436v-2.912h2.436v-3.22h2.912v3.22h2.939v-3.22h2.969v3.22h2.408v2.912
		h-2.408v2.632H285.821z M272.604,87.82l11.816-0.028v12.796h-3.08V99.58h-5.795v1.036h-2.941V87.82z M275.546,90.536v1.848h5.795
		v-1.848H275.546z M281.341,96.92v-1.904h-5.795v1.904H281.341z M276.806,83.256h2.939v-2.632h-2.939V83.256z"/>
	<path fill="#007E85" d="M291.085,94.008v2.352h-2.547V76.34h7v17.668H291.085z M291.085,78.972v12.376h1.877V78.972H291.085z
		 M298.253,95.464c-0.393,1.708-0.98,3.668-1.428,4.872c-0.42-0.168-1.344-0.364-1.848-0.504c0.531-1.26,1.092-3.136,1.428-4.76
		L298.253,95.464z M302.481,89.976c0.504,1.372,1.035,3.164,1.203,4.228l-1.904,0.476c-0.027-0.308-0.111-0.644-0.195-1.036
		c-3.92,0.532-4.648,0.728-5.152,0.924c-0.084-0.392-0.42-1.428-0.672-1.932c0.504-0.112,0.98-0.588,1.625-1.344
		c0.279-0.28,0.783-0.952,1.371-1.82c-1.344,0.112-1.82,0.196-2.156,0.336c-0.084-0.448-0.42-1.456-0.699-2.016
		c0.42-0.112,0.756-0.448,1.119-1.008c0.365-0.504,1.514-2.548,2.102-4.452h-2.381v-6.636h16.297v6.636h-13.664l2.07,0.812
		c-0.643,1.484-1.566,3.024-2.49,4.34l1.119-0.028c0.477-0.812,0.924-1.624,1.287-2.464l2.072,1.064
		c-1.146,2.072-2.66,4.172-4.199,5.964l1.904-0.224c-0.141-0.504-0.309-0.98-0.449-1.428L302.481,89.976z M300.466,95.212
		c0.252,1.428,0.42,3.22,0.447,4.424l-1.932,0.28c0.027-1.204-0.141-3.052-0.336-4.452L300.466,95.212z M299.542,79.98h2.07v-1.96
		h-2.07V79.98z M302.565,94.764c0.42,1.26,0.924,2.94,1.119,4.004l-1.736,0.476c-0.168-1.092-0.643-2.8-1.092-4.06L302.565,94.764z
		 M313.821,99.44h-7v1.176h-2.492V89.892c-0.531-0.392-1.287-0.924-1.736-1.204c1.316-1.568,2.408-3.948,3.023-6.244l2.465,0.616
		c-0.225,0.756-0.447,1.484-0.756,2.212h1.904c-0.225-0.756-0.504-1.54-0.785-2.24l2.072-0.616c0.393,0.896,0.84,1.988,1.092,2.856
		h2.072v2.436h-2.463v1.652h2.072v2.212h-2.072v1.596h2.072v2.212h-2.072v1.568h2.604V99.44z M303.714,79.98h2.1v-1.96h-2.1V79.98z
		 M308.864,87.708h-2.043v1.652h2.043V87.708z M308.864,91.572h-2.043v1.596h2.043V91.572z M306.821,96.948h2.043V95.38h-2.043
		V96.948z M307.94,79.98h2.156v-1.96h-2.156V79.98z"/>
	<path fill="#007E85" d="M325.329,95.688c0-1.596,1.26-2.772,2.912-2.772s2.912,1.176,2.912,2.772c0,1.624-1.26,2.744-2.912,2.744
		S325.329,97.312,325.329,95.688z M325.804,81.408l-0.111-4.172h5.125l-0.141,4.172l-0.98,9.576h-2.883L325.804,81.408z"/>
</g>
<g>
	<path fill="#FCCAA0" stroke="#E6A165" stroke-linecap="round" stroke-linejoin="round" stroke-miterlimit="10" d="M263.672,334.627
		c-1.036-1.566-43.926-40.503-43.926-40.503c-8.685-25.504-4.809-3.015-4.809-3.015c-31.788-30.226-9.042-2.188-9.042-2.188
		c-30.495-28.267-4.379,3.171-4.379,3.171c-27.046-26.883-1.197,5.86-1.197,5.86c-19.369-18.922-9.821-5.26,6.732,14.936
		c18.698,22.815,46.345,53.975,51.33,55.912c12.874,5.006,53.054-27.021,53.054-27.021l-24.258-20.99
		C287.178,320.789,264.707,336.194,263.672,334.627z"/>
	<g>
		<g>
			<path fill="#141F2E" d="M290.181,317.186c0,0-4.48,4.618-6.691,6.094l17.843,26.945c4.467-3.128,13.364-7.229,13.364-7.229
				l-18.65-21.455L290.181,317.186z"/>
		</g>
	</g>
</g>
<g>
	<path fill="#FCCAA0" stroke="#E6A165" stroke-linecap="round" stroke-linejoin="round" stroke-miterlimit="10" d="M216.854,337.77
		c0.958-1.616,41.872-42.623,41.872-42.623c7.414-25.901,4.653-3.249,4.653-3.249c30.257-31.758,8.924-2.631,8.924-2.631
		c29.062-29.738,4.529,2.95,4.529,2.95c25.686-28.186,1.485,5.795,1.485,5.795c18.411-19.855,9.55-5.739-5.986,15.249
		c-17.549,23.712-43.622,56.198-48.506,58.379c-12.611,5.636-54.323-24.368-54.323-24.368l23.191-22.162
		C192.694,325.109,215.898,339.386,216.854,337.77z"/>
	<g>
		<g>
			<path fill="#141F2E" d="M189.517,321.658c0,0,4.703,4.392,6.984,5.756l-16.49,27.794c-4.616-2.903-14.316-7.88-14.316-7.88
				l18.18-21.031L189.517,321.658z"/>
		</g>
	</g>
</g>
<polygon fill="#4F3315" points="233.758,211.927 230.401,212.514 234.143,214.305 "/>
</svg>
