<svg id="e8yh6f7nvl3y1" xmlns="http://www.w3.org/2000/svg" xmlns:xlink="http://www.w3.org/1999/xlink" viewBox="0 0 345 360" shape-rendering="geometricPrecision" text-rendering="geometricPrecision"><style><![CDATA[#e8yh6f7nvl3y17_tr {animation: e8yh6f7nvl3y17_tr__tr 3000ms linear infinite normal forwards}@keyframes e8yh6f7nvl3y17_tr__tr { 0% {transform: translate(171.583000px,140.370000px) rotate(0deg)} 40% {transform: translate(171.583000px,140.370000px) rotate(0deg)} 53.333333% {transform: translate(171.583000px,140.370000px) rotate(-2.600000deg)} 66.666667% {transform: translate(171.583000px,140.370000px) rotate(2deg)} 80% {transform: translate(171.583000px,140.370000px) rotate(0deg)} 100% {transform: translate(171.583000px,140.370000px) rotate(0deg)} }#e8yh6f7nvl3y92_tr {animation: e8yh6f7nvl3y92_tr__tr 3000ms linear infinite normal forwards}@keyframes e8yh6f7nvl3y92_tr__tr { 0% {transform: translate(170.664000px,133.380791px) rotate(0deg)} 40% {transform: translate(170.664000px,133.380791px) rotate(0deg)} 53.333333% {transform: translate(170.664000px,133.380791px) rotate(-2.720000deg)} 66.666667% {transform: translate(170.664000px,133.380791px) rotate(2.280000deg)} 80% {transform: translate(170.664000px,133.380791px) rotate(0deg)} 100% {transform: translate(170.664000px,133.380791px) rotate(0deg)} }#e8yh6f7nvl3y117_ts {animation: e8yh6f7nvl3y117_ts__ts 3000ms linear infinite normal forwards}@keyframes e8yh6f7nvl3y117_ts__ts { 0% {transform: translate(176.420865px,93.183669px) scale(1,1)} 20% {transform: translate(176.420865px,93.183669px) scale(1,1)} 33.333333% {transform: translate(176.420865px,93.183669px) scale(1,0.145934)} 46.666667% {transform: translate(176.420865px,93.183669px) scale(1,1)} 100% {transform: translate(176.420865px,93.183669px) scale(1,1)} }#e8yh6f7nvl3y127_tr {animation: e8yh6f7nvl3y127_tr__tr 3000ms linear infinite normal forwards}@keyframes e8yh6f7nvl3y127_tr__tr { 0% {transform: translate(172.499168px,279.746719px) rotate(0deg)} 16.666667% {transform: translate(172.499168px,279.746719px) rotate(0deg)} 30% {transform: translate(172.499168px,279.746719px) rotate(2.600000deg)} 43.333333% {transform: translate(172.499168px,279.746719px) rotate(-2.400000deg)} 56.666667% {transform: translate(172.499168px,279.746719px) rotate(0deg)} 100% {transform: translate(172.499168px,279.746719px) rotate(0deg)} }]]></style><defs><path id="e8yh6f7nvl3y2" d="M210.908000,156.902000C179.528000,147.122000,188.088000,114.722000,188.088000,114.722000L173.619000,112.958000L173.619000,112.685000L172.498000,112.822000L171.377000,112.685000L171.377000,112.958000L156.910000,114.722000C156.910000,114.722000,165.469000,147.121000,134.088000,156.902000C102.709000,166.681000,95.579000,176.463000,93.133000,215.176000L171.376000,215.176000L173.617000,215.176000L251.861000,215.176000C249.419000,176.463000,242.289000,166.682000,210.908000,156.902000Z"/><path id="e8yh6f7nvl3y3" d="M210.908000,156.902000C179.528000,147.122000,188.088000,114.722000,188.088000,114.722000L173.619000,112.958000L173.619000,112.685000L172.498000,112.822000L171.377000,112.685000L171.377000,112.958000L156.910000,114.722000C156.910000,114.722000,165.469000,147.121000,134.088000,156.902000C102.709000,166.681000,95.579000,176.463000,93.133000,215.176000L171.376000,215.176000L173.617000,215.176000L251.861000,215.176000C249.419000,176.463000,242.289000,166.682000,210.908000,156.902000Z"/><path id="e8yh6f7nvl3y4" d="M161.718000,97.557000C163.495000,97.698000,165.259000,97.241000,166.740000,96.248000C168.902000,94.798000,172.326000,93.182000,175.552000,94.537000C180.809000,96.744000,180.982000,108.893000,167.105000,109.836000C153.982000,110.729000,155.026000,100.852000,156.730000,98.557000C157.880000,97.008000,160.154000,97.433000,161.718000,97.557000Z"/><path id="e8yh6f7nvl3y5" d="M161.718000,97.557000C163.495000,97.698000,165.259000,97.241000,166.740000,96.248000C168.902000,94.798000,172.326000,93.182000,175.552000,94.537000C180.809000,96.744000,180.982000,108.893000,167.105000,109.836000C153.982000,110.729000,155.026000,100.852000,156.730000,98.557000C157.880000,97.008000,160.154000,97.433000,161.718000,97.557000Z"/><path id="e8yh6f7nvl3y6" d="M161.718000,97.557000C163.495000,97.698000,165.259000,97.241000,166.740000,96.248000C168.902000,94.798000,172.326000,93.182000,175.552000,94.537000C180.809000,96.744000,180.982000,108.893000,167.105000,109.836000C153.982000,110.729000,155.026000,100.852000,156.730000,98.557000C157.880000,97.008000,160.154000,97.433000,161.718000,97.557000Z"/><path id="e8yh6f7nvl3y7" d="M129.954000,165.566000C161.333000,155.785000,152.774000,123.387000,152.774000,123.387000L167.242000,121.622000L167.242000,121.350000L168.362000,121.487000L169.483000,121.350000L169.483000,121.622000L183.951000,123.387000C183.951000,123.387000,175.393000,155.784000,206.772000,165.566000C238.151000,175.346000,245.284000,185.127000,247.729000,223.841000L169.484000,223.841000L167.244000,223.841000L89,223.841000C91.443000,185.127000,98.575000,175.347000,129.954000,165.566000Z"/><path id="e8yh6f7nvl3y8" d="M129.954000,165.566000C161.333000,155.785000,152.774000,123.387000,152.774000,123.387000L167.242000,121.622000L167.242000,121.350000L168.362000,121.487000L169.483000,121.350000L169.483000,121.622000L183.951000,123.387000C183.951000,123.387000,175.393000,155.784000,206.772000,165.566000C238.151000,175.346000,245.284000,185.127000,247.729000,223.841000L169.484000,223.841000L167.244000,223.841000L89,223.841000C91.443000,185.127000,98.575000,175.347000,129.954000,165.566000Z"/><path id="e8yh6f7nvl3y9" d="M130.859000,166.869000C162.238000,157.089000,153.681000,124.690000,153.681000,124.690000L168.148000,122.925000L168.148000,122.653000L169.269000,122.790000L170.390000,122.653000L170.390000,122.925000L184.857000,124.690000C184.857000,124.690000,176.298000,157.088000,207.678000,166.869000C239.057000,176.649000,246.187000,186.431000,248.633000,225.144000L170.390000,225.144000L168.149000,225.144000L89.902000,225.144000C92.348000,186.432000,99.480000,176.649000,130.859000,166.869000Z"/><path id="e8yh6f7nvl3y10" d="M130.859000,166.869000C162.238000,157.089000,153.681000,124.690000,153.681000,124.690000L168.148000,122.925000L168.148000,122.653000L169.269000,122.790000L170.390000,122.653000L170.390000,122.925000L184.857000,124.690000C184.857000,124.690000,176.298000,157.088000,207.678000,166.869000C239.057000,176.649000,246.187000,186.431000,248.633000,225.144000L170.390000,225.144000L168.149000,225.144000L89.902000,225.144000C92.348000,186.432000,99.480000,176.649000,130.859000,166.869000Z"/><path id="e8yh6f7nvl3y11" d="M180.049000,109.525000C178.272000,109.667000,176.507000,109.209000,175.027000,108.217000C172.864000,106.767000,169.441000,105.151000,166.215000,106.505000C160.958000,108.713000,160.785000,120.862000,174.663000,121.807000C187.788000,122.699000,186.742000,112.821000,185.038000,110.526000C183.887000,108.976000,181.613000,109.401000,180.049000,109.525000Z"/><path id="e8yh6f7nvl3y12" d="M180.049000,109.525000C178.272000,109.667000,176.507000,109.209000,175.027000,108.217000C172.864000,106.767000,169.441000,105.151000,166.215000,106.505000C160.958000,108.713000,160.785000,120.862000,174.663000,121.807000C187.788000,122.699000,186.742000,112.821000,185.038000,110.526000C183.887000,108.976000,181.613000,109.401000,180.049000,109.525000Z"/><path id="e8yh6f7nvl3y13" d="M180.049000,109.525000C178.272000,109.667000,176.507000,109.209000,175.027000,108.217000C172.864000,106.767000,169.441000,105.151000,166.215000,106.505000C160.958000,108.713000,160.785000,120.862000,174.663000,121.807000C187.788000,122.699000,186.742000,112.821000,185.038000,110.526000C183.887000,108.976000,181.613000,109.401000,180.049000,109.525000Z"/></defs><g id="e8yh6f7nvl3y14"><circle id="e8yh6f7nvl3y15" r="168.603000" transform="matrix(1 0 0 1 172.50000000000000 174.56000000000000)" fill="rgb(118,201,206)" stroke="none" stroke-width="1"/><g id="e8yh6f7nvl3y16"><g id="e8yh6f7nvl3y17_tr" transform="translate(171.583000,140.370000) rotate(0)"><g id="e8yh6f7nvl3y17" transform="translate(-171.583000,-140.370000)"><path id="e8yh6f7nvl3y18" d="M131.344000,82.247000C134.795000,22.601000,170.350000,30.545000,174.723000,32.130000C179.096000,30.545000,214.651000,22.271000,218.595000,79.452000C222.539000,134.169000,254.087000,141.070000,218.199000,185.433000C192.397000,213.455000,184.968000,202.138000,173.341000,201.207000C161.715000,202.138000,151.326000,211.978000,125.526000,183.954000C95.777000,151.644000,121.767000,138.090000,131.344000,82.247000Z" fill="rgb(95,57,8)" stroke="none" stroke-width="1"/><path id="e8yh6f7nvl3y19" d="M177.534000,65.157000C180.492000,63.185000,185.421000,69.100000,188.379000,74.030000C205.635000,100.922000,220.635000,121.922000,226.635000,184.922000C203.883000,193.693000,182.044000,192.881000,173.989000,192.238000C164.247000,193.015000,151.879000,193.654000,126.086000,177.548000C129.373000,137.456000,139.358000,93.790000,177.534000,65.157000Z" fill="rgb(62,35,11)" stroke="none" stroke-width="1"/></g></g><g id="e8yh6f7nvl3y20"><g id="e8yh6f7nvl3y21"><g id="e8yh6f7nvl3y22"><g id="e8yh6f7nvl3y23" clip-path="url(#e8yh6f7nvl3y25)"><path id="e8yh6f7nvl3y24" d="M129.954000,165.566000C161.333000,155.785000,152.774000,123.387000,152.774000,123.387000L167.242000,121.622000L167.242000,121.350000L168.362000,121.487000L169.483000,121.350000L169.483000,121.622000L183.951000,123.387000C183.951000,123.387000,175.393000,155.784000,206.772000,165.566000C238.151000,175.346000,245.284000,185.127000,247.729000,223.841000L169.484000,223.841000L167.244000,223.841000L89,223.841000C91.443000,185.127000,98.575000,175.347000,129.954000,165.566000Z" fill="rgb(252,202,160)" stroke="none" stroke-width="1"/><clipPath id="e8yh6f7nvl3y25"><use id="e8yh6f7nvl3y26" width="158.728989" height="102.491013" xlink:href="#e8yh6f7nvl3y7" fill="rgb(0,0,0)" stroke="none" stroke-width="1"/></clipPath></g></g><g id="e8yh6f7nvl3y27"><g id="e8yh6f7nvl3y28" clip-path="url(#e8yh6f7nvl3y86)"><g id="e8yh6f7nvl3y29"><path id="e8yh6f7nvl3y30" d="M153.796000,131.068000C153.594000,126.493000,152.775000,123.387000,152.775000,123.387000L167.243000,121.622000L167.243000,121.350000L168.363000,121.487000L169.484000,121.350000L169.484000,121.622000L183.952000,123.387000C183.952000,123.387000,182.556000,128.679000,182.962000,135.631000C179.785000,142.112000,168.363000,151.099000,153.796000,131.068000Z" fill="rgb(230,161,101)" stroke="none" stroke-width="1"/><g id="e8yh6f7nvl3y31"><g id="e8yh6f7nvl3y32"><g id="e8yh6f7nvl3y33"><g id="e8yh6f7nvl3y34"><path id="e8yh6f7nvl3y35" d="M154.384000,130.641000C154.280000,130.658000,154.123000,130.805000,154.233000,130.883000L154.580000,130.741000L154.384000,130.641000Z" fill="rgb(233,173,121)" stroke="none" stroke-width="1"/><path id="e8yh6f7nvl3y36" d="M154.354000,131.728000C154.585000,131.744000,154.934000,131.695000,155.141000,131.417000C154.775000,131.508000,154.870000,131.393000,154.442000,131.513000C154.333000,131.436000,154.402000,131.265000,154.523000,131.203000C154.422000,131.222000,154.470000,130.997000,154.247000,131.075000C154.119000,131.376000,154.235000,131.554000,154.554000,131.591000C154.518000,131.676000,154.414000,131.696000,154.354000,131.728000Z" fill="rgb(233,173,121)" stroke="none" stroke-width="1"/><path id="e8yh6f7nvl3y37" d="M162.859000,140.994000L162.814000,140.913000C162.820000,140.945000,162.836000,140.972000,162.859000,140.994000Z" fill="rgb(233,173,121)" stroke="none" stroke-width="1"/><path id="e8yh6f7nvl3y38" d="M170.258000,144.010000C170.195000,144.013000,170.165000,144.047000,170.159000,144.078000C170.219000,144.061000,170.269000,144.043000,170.258000,144.010000Z" fill="rgb(233,173,121)" stroke="none" stroke-width="1"/><path id="e8yh6f7nvl3y39" d="M171.669000,144.460000C171.637000,144.451000,171.611000,144.444000,171.583000,144.437000C171.617000,144.470000,171.650000,144.488000,171.669000,144.460000Z" fill="rgb(233,173,121)" stroke="none" stroke-width="1"/><path id="e8yh6f7nvl3y40" d="M162.859000,140.994000L162.975000,141.205000C163.052000,141.114000,162.932000,141.073000,162.859000,140.994000Z" fill="rgb(233,173,121)" stroke="none" stroke-width="1"/><path id="e8yh6f7nvl3y41" d="M156.092000,132.549000C156.052000,132.527000,156.004000,132.521000,155.949000,132.522000C155.982000,132.541000,156.013000,132.558000,156.044000,132.580000L156.092000,132.549000Z" fill="rgb(233,173,121)" stroke="none" stroke-width="1"/><path id="e8yh6f7nvl3y42" d="M159.897000,139.099000L159.848000,139.056000C159.806000,139.076000,159.760000,139.100000,159.711000,139.131000L159.897000,139.099000Z" fill="rgb(233,173,121)" stroke="none" stroke-width="1"/><path id="e8yh6f7nvl3y43" d="M157.899000,137.295000C157.933000,137.347000,158.167000,137.147000,158.277000,137.068000C158.165000,137.132000,158.089000,137.143000,158.036000,137.123000C157.993000,137.163000,157.949000,137.218000,157.899000,137.295000Z" fill="rgb(233,173,121)" stroke="none" stroke-width="1"/><path id="e8yh6f7nvl3y44" d="M155.491000,133.787000L155.411000,133.756000C155.433000,133.763000,155.463000,133.780000,155.491000,133.787000Z" fill="rgb(233,173,121)" stroke="none" stroke-width="1"/><path id="e8yh6f7nvl3y45" d="M161.358000,140.370000C161.335000,140.409000,161.317000,140.447000,161.311000,140.473000C161.334000,140.442000,161.348000,140.407000,161.358000,140.370000Z" fill="rgb(233,173,121)" stroke="none" stroke-width="1"/><path id="e8yh6f7nvl3y46" d="M154.996000,127.874000C154.974000,127.877000,154.960000,127.878000,154.941000,127.881000C154.974000,127.893000,154.996000,127.896000,154.996000,127.874000Z" fill="rgb(233,173,121)" stroke="none" stroke-width="1"/><polygon id="e8yh6f7nvl3y47" points="153.717000,131.072000 153.698000,131.030000 153.526000,131.029000" fill="rgb(233,173,121)" stroke="none" stroke-width="1"/><path id="e8yh6f7nvl3y48" d="M174.396000,144.507000C174.390000,144.506000,174.389000,144.506000,174.383000,144.505000C174.321000,144.554000,174.359000,144.540000,174.396000,144.507000Z" fill="rgb(233,173,121)" stroke="none" stroke-width="1"/><path id="e8yh6f7nvl3y49" d="M184.796000,125.572000C184.483000,125.767000,184.518000,125.116000,184.152000,125.429000C184.277000,125.417000,184.568000,125.843000,184.796000,125.572000Z" fill="rgb(233,173,121)" stroke="none" stroke-width="1"/><path id="e8yh6f7nvl3y50" d="M156.102000,132.627000C156.127000,132.652000,156.151000,132.678000,156.171000,132.708000C156.148000,132.664000,156.127000,132.639000,156.102000,132.627000Z" fill="rgb(233,173,121)" stroke="none" stroke-width="1"/><path id="e8yh6f7nvl3y51" d="M184.153000,125.430000L184.150000,125.429000L184.115000,125.462000C184.131000,125.449000,184.140000,125.441000,184.153000,125.430000Z" fill="rgb(233,173,121)" stroke="none" stroke-width="1"/><path id="e8yh6f7nvl3y52" d="M179.829000,141.579000C179.785000,141.546000,179.741000,141.528000,179.695000,141.514000C179.718000,141.538000,179.753000,141.559000,179.829000,141.579000Z" fill="rgb(233,173,121)" stroke="none" stroke-width="1"/><path id="e8yh6f7nvl3y53" d="M175.719000,143.455000L175.837000,143.453000C175.786000,143.443000,175.749000,143.446000,175.719000,143.455000Z" fill="rgb(233,173,121)" stroke="none" stroke-width="1"/><path id="e8yh6f7nvl3y54" d="M181.225000,139.676000C181.284000,139.648000,181.329000,139.662000,181.351000,139.573000C181.334000,139.568000,181.321000,139.566000,181.307000,139.566000C181.318000,139.616000,181.307000,139.659000,181.225000,139.676000Z" fill="rgb(233,173,121)" stroke="none" stroke-width="1"/><polygon id="e8yh6f7nvl3y55" points="182.702000,137.812000 182.626000,137.812000 182.597000,137.884000" fill="rgb(233,173,121)" stroke="none" stroke-width="1"/><path id="e8yh6f7nvl3y56" d="M155.052000,124.395000C154.992000,124.316000,154.949000,124.225000,154.913000,124.135000C154.977000,124.347000,154.659000,124.467000,155.052000,124.395000Z" fill="rgb(233,173,121)" stroke="none" stroke-width="1"/><path id="e8yh6f7nvl3y57" d="M155.958000,132.658000C156.026000,132.620000,156.067000,132.610000,156.102000,132.627000L156.044000,132.579000C156.004000,132.603000,155.969000,132.629000,155.958000,132.658000Z" fill="rgb(233,173,121)" stroke="none" stroke-width="1"/><path id="e8yh6f7nvl3y58" d="M179.497000,137.972000L179.746000,137.761000C179.663000,137.810000,179.574000,137.887000,179.497000,137.972000Z" fill="rgb(233,173,121)" stroke="none" stroke-width="1"/><path id="e8yh6f7nvl3y59" d="M170.750000,122.916000L170.664000,122.941000C170.695000,122.952000,170.725000,122.947000,170.750000,122.916000Z" fill="rgb(233,173,121)" stroke="none" stroke-width="1"/><path id="e8yh6f7nvl3y60" d="M180.310000,136.989000C180.432000,137.009000,180.519000,136.998000,180.590000,136.968000C180.578000,136.943000,180.570000,136.919000,180.548000,136.891000L180.310000,136.989000Z" fill="rgb(233,173,121)" stroke="none" stroke-width="1"/><path id="e8yh6f7nvl3y61" d="M154.912000,124.132000L154.913000,124.135000L154.912000,124.132000Z" fill="rgb(233,173,121)" stroke="none" stroke-width="1"/><path id="e8yh6f7nvl3y62" d="M154.871000,124.878000C154.515000,124.638000,154.360000,124.534000,154.126000,124.376000C154.117000,124.362000,154.107000,124.350000,154.103000,124.342000C154.125000,124.257000,154.517000,124.608000,154.742000,124.766000C154.632000,124.673000,154.374000,124.333000,154.464000,124.337000C154.517000,124.398000,154.543000,124.418000,154.590000,124.496000C154.510000,124.345000,154.587000,124.330000,154.648000,124.308000C154.732000,124.283000,154.731000,124.258000,154.860000,124.037000C154.887000,124.070000,154.904000,124.101000,154.914000,124.132000C154.837000,123.938000,154.803000,123.735000,154.794000,123.588000C154.943000,123.561000,155.042000,123.298000,155.133000,123.553000C155.039000,123.558000,155.046000,123.663000,155.012000,123.751000L155.157000,123.616000C155.349000,123.974000,154.958000,123.774000,154.995000,124.054000C155.288000,123.891000,155.607000,123.532000,155.858000,123.607000C155.957000,123.969000,155.319000,123.804000,155.679000,124.089000L155.294000,123.997000C155.650000,124.541000,155.065000,123.985000,155.404000,124.573000C155.902000,124.617000,155.921000,124.315000,156.417000,124.358000C156.498000,124.139000,156.341000,124.060000,156.423000,123.841000C157.059000,123.384000,157.084000,124.696000,157.522000,124.140000C157.621000,123.877000,157.610000,123.405000,158.001000,123.604000L157.933000,124.037000C158.406000,124.016000,158.121000,123.403000,158.647000,123.620000C158.583000,123.794000,158.298000,123.806000,158.376000,123.846000C158.735000,124.133000,158.568000,123.580000,158.813000,123.549000L158.913000,123.910000C159.402000,123.786000,159.916000,123.449000,160.459000,123.308000C160.441000,123.422000,160.362000,123.550000,160.507000,123.645000C161.178000,123.370000,161.997000,123.496000,162.695000,123.625000L162.910000,123.274000C162.970000,123.269000,163.039000,123.403000,162.983000,123.473000C163.260000,123.559000,162.969000,123.269000,163.080000,123.127000C163.226000,123.085000,163.300000,123.284000,163.219000,123.392000C163.645000,123.062000,164.456000,122.638000,164.987000,122.915000L164.905000,123.021000C165.301000,123.101000,165.247000,122.313000,165.636000,122.564000L165.576000,122.629000C165.882000,122.640000,166.191000,122.592000,166.495000,122.547000C166.646000,122.526000,166.797000,122.507000,166.943000,122.487000C167.070000,122.475000,167.287000,122.460000,167.310000,122.484000C167.332000,122.505000,167.447000,122.534000,167.543000,122.574000C167.638000,122.614000,167.730000,122.666000,167.814000,122.731000C167.935000,122.268000,168.634000,122.937000,168.688000,122.293000C168.892000,122.431000,168.982000,122.530000,169.078000,122.616000C169.125000,122.659000,169.173000,122.699000,169.236000,122.738000C169.300000,122.777000,169.401000,122.816000,169.397000,122.857000C169.411000,122.886000,169.386000,122.911000,169.501000,122.956000C169.673000,123.009000,169.815000,122.592000,170.043000,122.554000L170.004000,122.889000L170.346000,122.577000L170.451000,122.997000L170.667000,122.938000C170.588000,122.908000,170.514000,122.765000,170.539000,122.670000C170.879000,122.561000,171.287000,123.005000,171.272000,123.178000L172.065000,122.994000C172.032000,123.126000,171.898000,123.156000,171.787000,123.228000C172.235000,122.940000,171.813000,123.589000,172.225000,123.326000C172.185000,123.243000,172.278000,123.131000,172.295000,123.064000C172.453000,123.291000,172.872000,123.347000,173.192000,123.302000L173.102000,123.525000C173.656000,123.658000,174.299000,123.570000,174.927000,123.657000C174.716000,123.520000,174.820000,123.128000,175.010000,123.113000L175.038000,123.475000C175.184000,123.273000,174.863000,123.317000,175.142000,123.082000C175.371000,123.153000,175.247000,123.504000,175.097000,123.602000L175.399000,123.517000C175.402000,123.624000,175.329000,123.671000,175.294000,123.803000C175.440000,123.599000,175.741000,124.223000,175.960000,123.864000L175.963000,123.971000C176.591000,124.057000,176.893000,123.972000,177.407000,124.022000C177.457000,123.718000,177.647000,123.813000,177.833000,123.586000C178.197000,123.733000,178.583000,124.027000,179.041000,124.061000C179.380000,123.952000,179.168000,123.816000,179.335000,123.654000C179.322000,123.934000,179.778000,123.966000,179.518000,124.136000C180.069000,124.162000,180.221000,124.172000,180.939000,124.037000C180.879000,123.913000,180.801000,123.852000,180.857000,123.764000C180.987000,123.735000,181.127000,123.917000,181.090000,124.049000L181.053000,124.073000C181.260000,123.994000,181.468000,124.020000,181.675000,124.095000C181.759000,124.130000,181.923000,124.188000,181.942000,124.233000C181.976000,124.279000,182.001000,124.330000,182.016000,124.379000C182.097000,124.574000,181.943000,124.719000,182.303000,124.472000L182.266000,124.496000C182.362000,124.445000,182.516000,124.370000,182.532000,124.404000C182.592000,124.380000,182.649000,124.362000,182.708000,124.350000C182.627000,124.491000,182.476000,124.443000,182.258000,124.634000C182.510000,124.553000,182.462000,124.698000,182.410000,124.775000C182.383000,124.818000,182.351000,124.855000,182.347000,124.891000C182.344000,124.909000,182.347000,124.927000,182.360000,124.949000C182.367000,124.960000,182.376000,124.970000,182.386000,124.982000C182.396000,125.018000,182.406000,125.055000,182.416000,125.094000C181.517000,125.409000,182.214000,126.700000,181.621000,127.240000L181.818000,127.229000C181.988000,127.410000,181.684000,127.407000,181.627000,127.519000C181.778000,127.520000,181.820000,127.368000,181.915000,127.478000C181.988000,128.835000,181.363000,130.213000,181.145000,131.608000C181.079000,132.117000,182.144000,131.919000,181.667000,132.545000L181.309000,132.359000C181.518000,132.875000,181.515000,133.393000,181.513000,133.913000C181.512000,134.173000,181.509000,134.433000,181.536000,134.688000C181.557000,134.915000,181.618000,135.287000,181.710000,135.279000C181.626000,135.256000,181.517000,135.252000,181.518000,135.233000C181.268000,135.256000,181.499000,135.336000,181.676000,135.457000C181.633000,135.488000,181.494000,135.388000,181.387000,135.354000C181.191000,135.393000,181.460000,135.910000,181.189000,135.853000C181.144000,135.845000,181.143000,135.765000,181.142000,135.726000C181.193000,135.895000,180.824000,136.183000,181.140000,136.247000C180.843000,136.446000,180.899000,136.853000,180.596000,136.964000C180.765000,137.310000,180.123000,137.317000,180.463000,137.656000C180.092000,137.332000,179.788000,137.849000,179.814000,138.161000C179.751000,138.010000,179.578000,138.193000,179.479000,137.992000C179.327000,138.171000,179.241000,138.388000,179.452000,138.537000C178.733000,138.429000,179.133000,139.511000,178.435000,139.110000C178.081000,139.771000,177.645000,140.315000,177.152000,140.757000C176.913000,140.333000,177.725000,140.322000,177.405000,139.910000C177.040000,140.410000,176.946000,140.965000,176.348000,141.149000C176.178000,141.161000,176.328000,140.917000,176.332000,140.819000C175.892000,141.286000,175.280000,141.282000,174.873000,141.711000C174.858000,141.667000,174.896000,141.601000,174.935000,141.547000C174.841000,141.598000,174.682000,141.561000,174.765000,141.768000L174.843000,141.677000C175.120000,141.927000,174.654000,142.459000,174.675000,142.628000C174.667000,141.963000,174.096000,142.626000,174.159000,141.765000C174.103000,141.824000,174.048000,141.949000,174.100000,142.089000C173.988000,142.074000,173.936000,141.996000,173.995000,141.806000C173.662000,142.014000,173.844000,142.216000,173.502000,142.285000C173.481000,142.179000,173.542000,142.123000,173.549000,141.991000C173.426000,142.233000,173.284000,142.477000,172.976000,142.431000C172.983000,142.364000,172.938000,142.285000,173.024000,142.273000C172.544000,142.378000,172.215000,142.944000,171.628000,142.753000C171.784000,142.280000,171.433000,142.602000,171.403000,142.192000L171.108000,142.309000L171.223000,142.509000C170.963000,142.498000,170.709000,142.780000,170.488000,142.629000L170.699000,142.476000L170.197000,142.509000L170.465000,142.692000C170.173000,142.875000,170.447000,143.212000,170.092000,143.058000C170.172000,143.028000,169.813000,143.021000,169.708000,142.760000L169.709000,142.759000C169.556000,142.867000,169.392000,142.980000,169.208000,142.842000C169.181000,142.704000,169.333000,142.406000,169.315000,142.315000C169.122000,142.627000,168.685000,142.280000,168.434000,142.588000C168.511000,142.519000,168.565000,142.312000,168.558000,142.265000L168.381000,142.505000C168.280000,142.387000,168.275000,142.341000,168.339000,142.181000C167.991000,142.032000,168.317000,142.715000,167.942000,142.375000C167.983000,142.363000,167.978000,142.318000,168.061000,142.299000C167.665000,142.063000,167.168000,142.201000,166.823000,141.919000C166.859000,141.493000,167.198000,141.954000,167.190000,141.580000C166.623000,141.449000,165.859000,141.566000,165.378000,141.210000L165.455000,141.301000C165.118000,141.780000,165.196000,140.848000,164.811000,140.946000C164.896000,140.945000,165.049000,140.711000,165.001000,140.758000C164.700000,140.487000,164.226000,140.486000,163.609000,140.306000L163.754000,140.222000C163.627000,139.982000,163.275000,139.817000,163.106000,139.614000C162.959000,139.693000,162.852000,139.588000,162.799000,139.817000C162.660000,138.678000,161.299000,139.265000,161.195000,138.256000C161.261000,138.309000,161.432000,138.284000,161.382000,138.241000L160.838000,137.957000C160.709000,138.179000,160.797000,138.124000,160.766000,138.355000C160.610000,138.419000,160.403000,138.395000,160.289000,138.293000C160.604000,138.350000,160.554000,137.985000,160.560000,137.804000C160.523000,137.875000,160.436000,137.912000,160.392000,137.978000C160.455000,137.432000,160.013000,138.321000,159.892000,137.803000L159.998000,137.721000C159.833000,137.662000,159.603000,137.687000,159.500000,137.539000C159.646000,137.276000,159.720000,137.558000,159.892000,137.390000C159.704000,137.238000,159.159000,137.457000,159.200000,137.092000C159.332000,137.108000,159.441000,137.209000,159.572000,137.223000C159.634000,136.808000,159.554000,136.854000,159.466000,136.689000L159.473000,136.707000L159.289000,136.308000L159.297000,136.449000C158.542000,136.770000,158.759000,136.106000,158.113000,136.153000C158.734000,136.118000,158.356000,136.011000,158.618000,135.805000C158.611000,135.665000,158.577000,135.480000,158.676000,135.448000C158.347000,135.492000,158.610000,135.070000,158.137000,135.136000C158.207000,135.056000,158.004000,134.977000,158.232000,134.828000C158.003000,134.698000,158.134000,134.996000,158.022000,135.071000C157.487000,135.025000,157.743000,134.099000,157.001000,134.003000C156.530000,133.768000,156.196000,133.929000,155.768000,133.690000C155.803000,133.463000,156.148000,133.542000,156.148000,133.542000C156.112000,133.251000,155.975000,133.126000,155.733000,133.022000C155.835000,133.001000,155.867000,132.913000,155.916000,132.783000C155.778000,132.655000,155.535000,132.928000,155.506000,132.637000C155.625000,132.597000,155.808000,132.521000,155.957000,132.516000C155.744000,132.408000,155.455000,132.360000,155.238000,132.239000C155.348000,132.078000,155.546000,132.175000,155.689000,132.163000C155.467000,132.015000,155.155000,131.745000,154.873000,131.860000L154.890000,132.053000C154.822000,131.988000,155.061000,131.863000,155.145000,131.884000C155.460000,131.917000,155.256000,132.196000,155.180000,132.272000L155.027000,132.185000C154.633000,132.701000,155.507000,132.640000,155.681000,132.914000L155.240000,133.091000L155.745000,133.118000C155.697000,133.248000,155.530000,133.445000,155.376000,133.361000C155.350000,133.686000,155.633000,133.422000,155.565000,133.738000C155.549000,133.780000,155.526000,133.786000,155.500000,133.781000L155.751000,133.874000C155.647000,133.900000,155.526000,134.108000,155.486000,133.957000C155.550000,134.446000,156.177000,134.254000,156.015000,134.595000L155.972000,134.586000C156.462000,134.926000,156.263000,134.414000,156.839000,134.483000L156.407000,135.244000L156.695000,135.066000C156.725000,135.119000,156.785000,135.222000,156.671000,135.295000C156.988000,135.310000,156.755000,135.171000,157.001000,135.124000C156.963000,135.541000,157.632000,135.611000,157.285000,136.018000C157.541000,135.921000,157.243000,135.685000,157.580000,135.789000C157.220000,136.243000,157.891000,135.981000,157.879000,136.349000C157.609000,136.495000,157.551000,136.205000,157.542000,136.578000C158.011000,136.349000,157.817000,137.023000,158.044000,137.118000C158.335000,136.847000,158.501000,137.345000,158.860000,137.509000C158.750000,137.589000,159.214000,138.152000,159.379000,138.492000L159.326000,138.534000C159.646000,138.283000,159.860000,138.579000,160.111000,138.687000C159.945000,138.862000,159.847000,138.902000,159.670000,138.888000L159.857000,139.050000C159.985000,138.991000,160.089000,138.990000,160.240000,139.060000L159.999000,139.248000C160.261000,139.452000,160.730000,139.404000,160.936000,139.825000C161.126000,139.619000,161.165000,139.012000,161.624000,139.136000C161.543000,139.264000,161.395000,139.478000,161.266000,139.454000C161.308000,139.463000,161.450000,139.439000,161.469000,139.537000L161.174000,139.628000C161.255000,139.834000,161.384000,139.523000,161.487000,139.635000C161.351000,139.804000,161.482000,139.825000,161.360000,139.948000C161.316000,139.940000,161.309000,139.795000,161.212000,139.826000C161.323000,139.964000,161.414000,140.191000,161.371000,140.365000C161.433000,140.258000,161.546000,140.135000,161.664000,140.187000C161.936000,140.371000,161.600000,140.462000,161.688000,140.667000C161.841000,140.593000,161.923000,140.843000,162.115000,140.583000C162.193000,140.641000,162.120000,140.774000,162.100000,140.867000C162.321000,140.851000,162.788000,141.287000,162.817000,140.892000L162.795000,140.849000C162.805000,140.848000,162.813000,140.853000,162.825000,140.853000L162.824000,140.852000L162.825000,140.853000C163.459000,140.891000,163.700000,141.631000,164.260000,141.785000L164.206000,141.879000C164.555000,141.935000,164.893000,142.166000,165.207000,142.062000C165.294000,142.104000,165.327000,142.340000,165.233000,142.438000C165.501000,142.473000,165.571000,142.376000,165.837000,142.687000C165.525000,142.756000,165.851000,142.877000,165.539000,142.707000C165.805000,142.928000,165.812000,143.121000,166.258000,142.981000C166.039000,143.192000,166.366000,143.401000,166.549000,143.379000L166.398000,143.110000C166.582000,143.135000,166.718000,143.214000,166.861000,143.289000L166.656000,143.603000C167.199000,144.266000,168.068000,143.268000,168.400000,144.105000C168.637000,143.901000,168.069000,143.842000,168.302000,143.591000C168.592000,143.715000,168.818000,144.292000,168.923000,144.314000C169.338000,144.592000,169.424000,143.864000,169.858000,144.062000C169.814000,143.926000,169.810000,143.577000,170.150000,143.494000C170.448000,143.571000,170.487000,144.072000,170.275000,144.157000C170.197000,144.160000,170.164000,144.116000,170.171000,144.072000C170.063000,144.110000,169.919000,144.148000,170.031000,144.303000L170.087000,144.178000C170.233000,144.328000,170.686000,144.348000,170.566000,144.551000C170.825000,144.443000,170.684000,144.348000,170.507000,144.267000C170.916000,144.482000,171.160000,144.307000,171.594000,144.430000C171.524000,144.360000,171.460000,144.208000,171.528000,144.208000C172.162000,144.354000,171.799000,143.958000,172.212000,143.880000C172.463000,144.059000,172.158000,144.359000,172.572000,144.158000C172.847000,144.266000,172.665000,144.496000,172.564000,144.611000C172.938000,144.326000,173.335000,144.687000,173.582000,144.692000L173.383000,144.830000C173.503000,144.747000,173.608000,144.733000,173.716000,144.714000L173.549000,144.480000C173.681000,144.503000,173.785000,144.484000,173.803000,144.591000C173.898000,144.400000,173.630000,144.186000,173.829000,143.908000C174.016000,144.008000,174.271000,143.667000,174.408000,143.986000C173.881000,143.991000,174.548000,144.310000,174.126000,144.465000C174.201000,144.405000,174.304000,144.385000,174.438000,144.400000C174.465000,144.432000,174.438000,144.473000,174.408000,144.501000C174.980000,144.674000,174.543000,144.069000,175.035000,143.938000C175.027000,144.143000,175.258000,144.254000,175.327000,144.189000C175.124000,144.248000,175.139000,143.910000,175.269000,143.710000C175.627000,143.751000,175.566000,143.489000,175.729000,143.449000L175.524000,143.447000C175.520000,143.243000,175.677000,143.214000,175.859000,143.076000C175.933000,143.210000,175.711000,143.245000,175.808000,143.279000C175.907000,142.875000,176.462000,143.397000,176.688000,143.037000C176.891000,143.087000,176.858000,143.361000,177.027000,143.379000C177.272000,142.978000,177.541000,143.422000,177.814000,143.033000C177.580000,142.864000,177.598000,142.929000,177.723000,142.566000C177.723000,142.566000,177.598000,142.688000,177.474000,142.811000C177.345000,142.931000,177.216000,143.050000,177.216000,143.050000L177.419000,142.512000C177.243000,142.606000,177.122000,142.857000,176.993000,142.872000C177.079000,142.589000,177.087000,142.658000,176.904000,142.508000C177.330000,142.731000,177.267000,142.060000,177.663000,142.132000L177.983000,142.694000C178.561000,142.683000,178.545000,141.959000,179.135000,141.726000L178.906000,141.753000C178.823000,141.497000,179.193000,141.498000,179.289000,141.291000C179.406000,141.474000,179.554000,141.457000,179.706000,141.507000C179.598000,141.391000,180.075000,141.225000,179.835000,140.859000L180.231000,140.891000C180.688000,140.635000,180.234000,140.055000,180.613000,139.779000C180.680000,140.046000,180.943000,139.999000,180.834000,140.346000C180.950000,140.234000,181.081000,140.157000,180.975000,140.050000C181.141000,140.076000,181.071000,139.529000,181.318000,139.560000C181.294000,139.446000,181.140000,139.280000,181.269000,139.160000C181.315000,139.174000,181.349000,139.230000,181.349000,139.230000C181.270000,139.160000,181.419000,138.927000,181.139000,138.887000C181.976000,138.955000,181.935000,137.822000,182.638000,137.806000C182.776000,137.478000,182.940000,137.088000,183.083000,136.810000C183.128000,136.859000,183.175000,136.865000,183.126000,136.905000C183.525000,136.610000,182.706000,136.403000,183.162000,136.022000C183.633000,135.871000,183.187000,136.382000,183.398000,136.261000C183.741000,136.374000,183.828000,136.152000,183.883000,135.900000C183.886000,135.631000,183.718000,135.331000,183.932000,135.094000C183.932000,135.083000,183.979000,135.207000,183.979000,135.207000C184.205000,134.881000,183.684000,134.620000,183.723000,134.210000C183.723000,134.210000,183.786000,134.228000,183.830000,134.210000C183.460000,133.954000,183.333000,133.448000,183.231000,133.069000C183.509000,133.187000,183.379000,133.240000,183.662000,133.169000C183.620000,133.001000,183.207000,133.220000,183.130000,132.881000C183.282000,132.772000,183.417000,132.529000,183.719000,132.501000L183.734000,132.817000C184.125000,132.658000,183.723000,132.409000,183.796000,132.243000L183.966000,132.267000C183.919000,131.786000,183.491000,131.766000,183.542000,131.245000L183.409000,131.294000C182.998000,130.989000,183.658000,131.065000,183.356000,130.766000L183.793000,130.703000C183.697000,130.511000,183.414000,130.021000,183.357000,129.675000C183.664000,129.892000,183.798000,130.294000,183.976000,130.547000C183.987000,130.362000,183.984000,129.918000,183.778000,129.806000C183.815000,129.884000,183.915000,129.985000,183.842000,130.054000C183.518000,129.804000,183.375000,129.489000,183.414000,129.116000C184.238000,129.256000,183.713000,128.168000,184.393000,127.974000C184.160000,127.289000,184.684000,126.712000,184.754000,125.965000C184.067000,126.125000,184.772000,125.745000,184.105000,125.680000C184.092000,125.497000,184.115000,125.432000,184.162000,125.424000C184.162000,125.424000,184.278000,125.332000,184.420000,125.122000C184.561000,124.920000,184.702000,124.717000,184.702000,124.717000C184.945000,124.493000,184.798000,124.985000,184.957000,124.964000C185.147000,124.276000,185.303000,124.667000,185.603000,124.130000C185.328000,124.274000,185.291000,123.960000,185.499000,123.509000L185.021000,124.174000C184.933000,123.769000,185.136000,123.543000,185.354000,123.247000C185.568000,122.969000,185.805000,122.613000,185.717000,122.245000C185.718000,122.238000,185.894000,122.400000,185.893000,122.406000C185.891000,122.321000,185.908000,122.199000,185.934000,122.052000C185.248000,122.003000,184.156000,121.862000,183.532000,122.220000C183.500000,122.137000,183.478000,121.949000,183.729000,121.935000C183.437000,121.875000,183.096000,121.857000,182.763000,121.858000C182.600000,121.863000,182.435000,121.868000,182.269000,121.872000C182.146000,121.885000,182.071000,121.905000,181.972000,121.920000C181.599000,121.983000,181.249000,122.019000,181.007000,121.820000L181.079000,121.665000C180.945000,121.695000,180.817000,121.940000,180.682000,121.757000C180.699000,121.692000,180.754000,121.602000,180.697000,121.584000C180.624000,121.632000,180.323000,121.824000,180.169000,121.707000L180.336000,121.544000C179.702000,121.245000,179.262000,121.855000,178.692000,121.894000C178.755000,121.416000,178.256000,121.193000,178.006000,121.082000L178.024000,121.016000C177.261000,120.856000,176.664000,121.240000,175.925000,121.333000C175.550000,120.757000,174.453000,120.919000,173.779000,120.535000C173.878000,120.636000,173.714000,120.904000,173.581000,120.935000C173.426000,120.816000,173.074000,121.206000,173.158000,120.772000L173.218000,120.788000C173.149000,120.342000,172.790000,120.411000,172.524000,120.364000L172.404000,120.930000C171.812000,120.005000,170.526000,120.994000,170.242000,120.199000C170.028000,120.316000,169.903000,120.299000,169.599000,120.404000L169.638000,120.097000C169.617000,120.092000,169.599000,120.087000,169.588000,120.084000C169.349000,120.065000,169.288000,120.049000,169.187000,120.036000C169.092000,120.023000,169.001000,120.015000,168.908000,120.010000C168.720000,120,168.518000,120.010000,168.233000,120.046000L168.352000,119.824000C168.023000,119.803000,167.936000,120.717000,167.632000,120.734000L167.540000,120.272000C167.450000,120.274000,167.362000,120.263000,167.175000,120.248000C166.933000,120.260000,166.861000,120.240000,166.726000,120.230000C166.603000,120.219000,166.480000,120.210000,166.359000,120.215000C166.117000,120.224000,165.883000,120.286000,165.671000,120.490000C165.671000,120.422000,165.671000,120.287000,165.761000,120.257000C165.490000,120.280000,164.681000,120.083000,164.862000,120.699000C164.802000,120.290000,164.269000,120.736000,163.984000,120.957000L163.992000,120.648000C163.783000,121.069000,163.789000,121.175000,163.440000,121.330000C163.349000,121.302000,163.334000,121.099000,163.459000,121.161000C163.150000,121.040000,163.272000,121.475000,162.903000,121.360000L163.007000,121.151000C162.709000,121.166000,162.746000,121.267000,162.612000,121.512000C162.443000,121.658000,162.043000,121.510000,161.964000,121.242000C161.945000,121.414000,161.814000,121.658000,161.630000,121.601000C161.593000,121.501000,161.648000,121.429000,161.675000,121.393000C161.154000,121.252000,160.987000,121.841000,160.610000,121.589000C160.589000,121.489000,160.561000,121.443000,160.528000,121.415000C160.922000,121.371000,161.238000,121.347000,161.213000,121.372000C161.176000,121.094000,160.854000,121.086000,161.055000,120.669000C160.827000,120.912000,160.454000,121.426000,160.128000,121.335000C160.109000,121.310000,160.091000,121.285000,160.074000,121.244000L160.101000,121.209000C160.027000,121.190000,159.966000,121.225000,159.913000,121.279000C159.808000,121.246000,159.740000,121.220000,159.645000,121.229000C159.580000,121.003000,159.266000,121.152000,159.107000,121.161000C159.160000,121.465000,158.947000,121.443000,159.173000,121.670000C159.145000,121.651000,159.197000,121.629000,159.301000,121.603000C159.322000,121.591000,159.351000,121.582000,159.363000,121.563000L159.356000,121.591000C159.460000,121.571000,159.594000,121.547000,159.747000,121.519000C159.643000,121.691000,159.528000,121.837000,159.332000,121.692000C159.276000,121.898000,159.214000,122.111000,159.177000,122.213000C158.905000,121.817000,158.458000,121.641000,158.365000,121.387000C157.906000,121.621000,157.245000,121.649000,157.017000,122.261000C156.889000,122.353000,156.838000,122.117000,156.774000,122.034000C156.846000,121.966000,156.941000,121.963000,156.973000,121.875000C156.719000,122.058000,156.169000,122.038000,156.156000,122.447000C155.788000,122.311000,156.302000,122.053000,155.837000,122.181000L155.885000,122.049000C155.376000,121.791000,155.031000,122.096000,154.669000,122.380000C154.471000,122.525000,154.191000,122.674000,153.948000,122.736000C153.684000,122.801000,153.394000,122.789000,152.864000,122.650000C153.007000,122.682000,153.072000,122.697000,153.142000,122.755000C152.731000,122.735000,152.264000,122.734000,151.945000,122.827000C152.107000,123.474000,152.359000,124.164000,152.502000,124.765000C152.656000,125.443000,152.677000,125.775000,152.530000,126.282000C152.465000,126.623000,152.723000,126.620000,152.946000,126.792000L152.630000,126.908000L153.053000,127.198000C153.393000,127.653000,152.352000,128.129000,152.937000,128.682000L153.150000,128.581000C153.131000,128.805000,153.345000,129.270000,153.088000,129.255000C153.130000,129.275000,153.323000,129.309000,153.216000,129.404000L153.044000,129.425000L153.379000,129.946000C153.280000,130.377000,152.691000,129.927000,152.694000,130.539000C152.774000,130.760000,153.229000,131.160000,153.341000,131.070000C153.345000,130.977000,153.437000,130.829000,153.610000,130.812000L153.711000,131.019000C154.222000,131.033000,154.751000,131.181000,155.080000,130.629000L154.748000,130.275000L154.987000,130.140000L155.020000,130.452000C155.242000,130.262000,155.031000,130.160000,154.881000,130.044000C155.010000,130.006000,155.098000,129.947000,155.142000,129.870000L154.631000,129.541000C154.826000,129.481000,155.038000,129.675000,155.129000,129.421000C154.890000,129.268000,154.695000,129.618000,154.526000,129.349000C154.741000,129.155000,154.934000,129.189000,154.719000,128.998000C154.847000,128.958000,154.934000,128.995000,154.999000,129.072000C154.827000,128.900000,154.888000,128.587000,154.609000,128.517000C154.877000,128.304000,154.471000,127.903000,154.953000,127.869000C154.832000,127.823000,154.539000,127.585000,154.500000,127.420000C155.111000,127.659000,154.454000,126.781000,155.077000,126.782000C154.532000,126.621000,154.731000,125.980000,154.381000,125.619000C154.425000,125.636000,154.515000,125.667000,154.495000,125.707000C154.501000,125.472000,154.642000,125.380000,154.715000,125.215000C154.501000,125.236000,154.355000,125.162000,154.225000,125.067000C154.096000,124.974000,154.002000,124.968000,153.855000,124.901000C154.254000,124.783000,154.378000,124.963000,154.769000,124.891000C154.423000,124.933000,154.397000,124.787000,154.098000,124.765000C154.351000,124.732000,154.214000,124.712000,154.590000,124.789000C154.007000,124.601000,154.484000,124.723000,154.107000,124.513000C154.380000,124.547000,154.673000,124.787000,154.467000,124.601000C154.644000,124.719000,154.874000,124.890000,154.871000,124.878000ZM160.442000,123.207000L160.443000,123.213000C160.377000,123.230000,160.318000,123.243000,160.283000,123.251000C160.315000,123.242000,160.362000,123.229000,160.442000,123.207000ZM161.104000,123.115000C161.022000,123.113000,160.921000,123.124000,160.815000,123.140000C160.778000,123.038000,160.790000,122.926000,160.857000,122.923000C160.830000,122.999000,160.994000,123.039000,161.104000,123.115000ZM159.424000,121.188000C159.524000,121.130000,159.567000,121.186000,159.589000,121.247000C159.540000,121.259000,159.484000,121.276000,159.410000,121.308000L159.402000,121.346000C159.406000,121.285000,159.410000,121.230000,159.424000,121.188000Z" fill="rgb(233,173,121)" stroke="none" stroke-width="1"/><path id="e8yh6f7nvl3y63" d="M159.289000,121.611000C159.273000,121.620000,159.268000,121.634000,159.248000,121.638000C159.272000,121.663000,159.296000,121.683000,159.318000,121.700000L159.343000,121.599000L159.289000,121.611000Z" fill="rgb(233,173,121)" stroke="none" stroke-width="1"/><path id="e8yh6f7nvl3y64" d="M162.807000,140.898000L162.815000,140.913000C162.813000,140.895000,162.810000,140.880000,162.815000,140.859000C162.813000,140.878000,162.809000,140.886000,162.807000,140.898000Z" fill="rgb(233,173,121)" stroke="none" stroke-width="1"/><polygon id="e8yh6f7nvl3y65" points="169.992000,122.969000 170.001000,122.892000 169.935000,122.951000" fill="rgb(233,173,121)" stroke="none" stroke-width="1"/><path id="e8yh6f7nvl3y66" d="M160.552000,137.812000C160.565000,137.788000,160.573000,137.757000,160.569000,137.722000C160.557000,137.738000,160.554000,137.771000,160.552000,137.812000Z" fill="rgb(233,173,121)" stroke="none" stroke-width="1"/><path id="e8yh6f7nvl3y67" d="M159.457000,136.696000L159.377000,136.464000C159.401000,136.574000,159.430000,136.645000,159.457000,136.696000Z" fill="rgb(233,173,121)" stroke="none" stroke-width="1"/><path id="e8yh6f7nvl3y68" d="M158.721000,135.737000C158.672000,135.763000,158.639000,135.789000,158.610000,135.811000L158.610000,135.814000L158.721000,135.737000Z" fill="rgb(233,173,121)" stroke="none" stroke-width="1"/><path id="e8yh6f7nvl3y69" d="M174.928000,141.554000C174.942000,141.547000,174.953000,141.538000,174.963000,141.527000C175.035000,141.435000,174.980000,141.481000,174.928000,141.554000Z" fill="rgb(233,173,121)" stroke="none" stroke-width="1"/><path id="e8yh6f7nvl3y70" d="M169.702000,142.767000C169.767000,142.721000,169.834000,142.674000,169.897000,142.648000C169.804000,142.610000,169.730000,142.595000,169.702000,142.767000Z" fill="rgb(233,173,121)" stroke="none" stroke-width="1"/><polygon id="e8yh6f7nvl3y71" points="179.469000,137.994000 179.472000,137.998000 179.497000,137.972000" fill="rgb(233,173,121)" stroke="none" stroke-width="1"/><path id="e8yh6f7nvl3y72" d="M170.152000,142.685000C170.061000,142.613000,169.979000,142.617000,169.898000,142.648000C169.975000,142.680000,170.065000,142.722000,170.152000,142.685000Z" fill="rgb(233,173,121)" stroke="none" stroke-width="1"/><path id="e8yh6f7nvl3y73" d="M155.455000,131.687000L155.430000,131.633000C155.414000,131.647000,155.399000,131.654000,155.386000,131.657000L155.455000,131.687000Z" fill="rgb(233,173,121)" stroke="none" stroke-width="1"/><path id="e8yh6f7nvl3y74" d="M155.386000,131.657000L155.318000,131.629000C155.336000,131.652000,155.353000,131.671000,155.386000,131.657000Z" fill="rgb(233,173,121)" stroke="none" stroke-width="1"/><path id="e8yh6f7nvl3y75" d="M155.174000,131.567000L155.318000,131.629000C155.290000,131.591000,155.263000,131.539000,155.174000,131.567000Z" fill="rgb(233,173,121)" stroke="none" stroke-width="1"/><path id="e8yh6f7nvl3y76" d="M156.330000,133.025000L156.428000,132.969000C156.404000,132.977000,156.372000,132.994000,156.330000,133.025000Z" fill="rgb(233,173,121)" stroke="none" stroke-width="1"/><path id="e8yh6f7nvl3y77" d="M156.663000,133.379000C156.608000,133.274000,156.661000,133.006000,156.507000,132.925000L156.429000,132.970000C156.603000,132.924000,156.447000,133.414000,156.663000,133.379000Z" fill="rgb(233,173,121)" stroke="none" stroke-width="1"/><path id="e8yh6f7nvl3y78" d="M156.963000,135.828000L156.751000,135.459000C156.710000,135.593000,156.654000,135.771000,156.508000,135.647000C156.597000,136.278000,156.632000,135.391000,156.963000,135.828000Z" fill="rgb(233,173,121)" stroke="none" stroke-width="1"/><path id="e8yh6f7nvl3y79" d="M157.725000,136.895000C157.528000,136.771000,157.603000,137.016000,157.547000,137.054000C157.724000,137.082000,157.768000,137.087000,157.725000,136.895000Z" fill="rgb(233,173,121)" stroke="none" stroke-width="1"/><path id="e8yh6f7nvl3y80" d="M165.263000,142.583000L165.122000,142.826000C165.302000,142.865000,165.170000,142.728000,165.263000,142.583000Z" fill="rgb(233,173,121)" stroke="none" stroke-width="1"/><polygon id="e8yh6f7nvl3y81" points="167.440000,141.916000 167.350000,141.699000 167.192000,141.915000" fill="rgb(233,173,121)" stroke="none" stroke-width="1"/><polygon id="e8yh6f7nvl3y82" points="167.873000,144.131000 167.784000,144.148000 168.110000,144.129000" fill="rgb(233,173,121)" stroke="none" stroke-width="1"/><path id="e8yh6f7nvl3y83" d="M182.680000,138.317000L182.368000,138.160000C182.347000,138.295000,182.643000,138.546000,182.680000,138.317000Z" fill="rgb(233,173,121)" stroke="none" stroke-width="1"/><path id="e8yh6f7nvl3y84" d="M183.720000,131.319000C183.895000,131.254000,184.014000,131.075000,183.850000,130.954000C183.820000,131.100000,183.679000,131.241000,183.720000,131.319000Z" fill="rgb(233,173,121)" stroke="none" stroke-width="1"/><polygon id="e8yh6f7nvl3y85" points="172.114000,120.460000 172.263000,120.363000 171.998000,120.426000" fill="rgb(233,173,121)" stroke="none" stroke-width="1"/></g></g></g></g></g><clipPath id="e8yh6f7nvl3y86"><use id="e8yh6f7nvl3y87" width="158.728989" height="102.491013" xlink:href="#e8yh6f7nvl3y8" fill="rgb(0,0,0)" stroke="none" stroke-width="1"/></clipPath></g></g></g><path id="e8yh6f7nvl3y88" d="M124.832000,167.241000C125.003000,167.353000,125.167000,167.471000,125.338000,167.583000C145.826000,181.600000,192.607000,183.294000,212.055000,167.297000C238.971000,176.597000,245.427000,187.402000,247.728000,223.842000L169.483000,223.842000L167.243000,223.842000L89,223.842000C91.304000,187.330000,97.782000,176.555000,124.832000,167.241000Z" fill="rgb(38,50,71)" stroke="none" stroke-width="1"/><path id="e8yh6f7nvl3y89" d="M120.353000,206.139000C158.105000,226.467000,206.304000,216.379000,245.369000,202.944000C246.485000,208.807000,247.214000,215.676000,247.729000,223.842000L169.484000,223.842000L167.244000,223.842000L89,223.842000C90.009000,207.856000,91.818000,196.805000,95.805000,188.647000C103.200000,195.489000,111.469000,201.379000,120.353000,206.139000Z" fill="rgb(20,31,46)" stroke="none" stroke-width="1"/><path id="e8yh6f7nvl3y90" d="M131.354000,223.842000L131.354000,165.106000C131.354000,165.106000,122.797000,164.037000,116.277000,170.556000L116.277000,223.842000L131.354000,223.842000Z" fill="rgb(245,167,0)" stroke="none" stroke-width="1"/><path id="e8yh6f7nvl3y91" d="M205.534000,223.842000L205.534000,165.106000C205.534000,165.106000,214.091000,164.037000,220.610000,170.556000L220.610000,223.842000L205.534000,223.842000Z" fill="rgb(245,167,0)" stroke="none" stroke-width="1"/></g><g id="e8yh6f7nvl3y92_tr" transform="translate(170.664000,133.380791) rotate(0)"><g id="e8yh6f7nvl3y92" transform="translate(-170.664000,-133.380791)"><g id="e8yh6f7nvl3y93"><path id="e8yh6f7nvl3y94" d="M145.451000,91.826000C149.498000,98.228000,150.070000,108.549000,144.824000,111.866000C139.578000,115.182000,130.500000,110.238000,126.452000,103.835000C122.404000,97.433000,123.377000,89.553000,128.624000,86.236000C133.871000,82.920000,141.405000,85.421000,145.451000,91.826000Z" fill="rgb(252,202,160)" stroke="none" stroke-width="1"/><path id="e8yh6f7nvl3y95" d="M196.607000,93.390000C192.115000,99.490000,190.813000,109.744000,195.812000,113.425000C200.811000,117.105000,210.217000,112.817000,214.708000,106.717000C219.201000,100.617000,218.789000,92.689000,213.790000,89.009000C208.790000,85.327000,201.097000,87.290000,196.607000,93.390000Z" fill="rgb(252,202,160)" stroke="none" stroke-width="1"/><path id="e8yh6f7nvl3y96" d="M203.970000,63.533000C204.192000,64.179000,211.153000,108.309000,194.955000,124.660000C178.755000,141.013000,150.737000,131.335000,143.912000,114.574000C138.019000,100.110000,136.882000,72.855000,148.343000,56.197000C159.806000,39.540000,192.662000,30.370000,203.970000,63.533000Z" fill="rgb(252,202,160)" stroke="none" stroke-width="1"/><g id="e8yh6f7nvl3y97"><g id="e8yh6f7nvl3y98"><path id="e8yh6f7nvl3y99" d="M132.769000,94.931000C136.027000,95.147000,138.297000,97.890000,137.488000,101.160000C136.959000,103.304000,134.509000,103.056000,133.433000,101.538000C132.709000,100.517000,133.006000,99.435000,134.206000,99.077000C135.266000,98.761000,136.412000,99.243000,137.102000,100.045000C137.448000,100.447000,138.025000,99.864000,137.682000,99.465000C136.444000,98.026000,132.372000,97.362000,132.209000,100.123000C132.080000,102.322000,134.548000,104.169000,136.611000,103.395000C139.234000,102.412000,138.759000,98.237000,137.437000,96.440000C136.395000,95.024000,134.492000,94.224000,132.767000,94.110000C132.241000,94.076000,132.244000,94.896000,132.769000,94.931000L132.769000,94.931000Z" fill="rgb(230,161,101)" stroke="none" stroke-width="1"/></g></g><g id="e8yh6f7nvl3y100"><g id="e8yh6f7nvl3y101"><path id="e8yh6f7nvl3y102" d="M211.362000,96.230000C209.633000,96.345000,207.867000,97.134000,206.758000,98.478000C205.258000,100.293000,204.983000,104.290000,207.422000,105.475000C209.458000,106.464000,211.781000,104.501000,211.937000,102.476000C212.026000,101.302000,210.913000,100.567000,209.910000,100.356000C208.635000,100.089000,207.285000,100.616000,206.452000,101.585000C206.108000,101.984000,206.685000,102.567000,207.031000,102.165000C208.316000,100.670000,212.176000,100.832000,210.817000,103.466000C209.946000,105.154000,207.507000,105.431000,206.732000,103.543000C205.386000,100.267000,208.207000,97.259000,211.365000,97.050000C211.887000,97.016000,211.891000,96.195000,211.362000,96.230000L211.362000,96.230000Z" fill="rgb(230,161,101)" stroke="none" stroke-width="1"/></g></g></g><g id="e8yh6f7nvl3y103"><g id="e8yh6f7nvl3y104"><path id="e8yh6f7nvl3y105" d="M182.918000,76.544000C182.452000,81.696000,181.984000,86.848000,181.519000,92C181.266000,94.796000,181.013000,97.593000,180.759000,100.390000C180.600000,102.150000,178.434000,101.673000,176.179000,102.114000C175.660000,102.216000,175.880000,103.006000,176.397000,102.905000C177.988000,102.593000,179.581000,102.283000,181.170000,101.972000C181.358000,101.935000,181.456000,101.749000,181.471000,101.576000C182.226000,93.232000,182.982000,84.888000,183.737000,76.544000C183.786000,76.017000,182.965000,76.021000,182.918000,76.544000L182.918000,76.544000Z" fill="rgb(230,161,101)" stroke="none" stroke-width="1"/></g></g><g id="e8yh6f7nvl3y106"><g id="e8yh6f7nvl3y107"><ellipse id="e8yh6f7nvl3y108" rx="4.814000" ry="5.959000" transform="matrix(0.10210000000000 -0.99480000000000 0.99480000000000 0.10210000000000 193.74679319999979 105.54567589999985)" fill="rgb(239,130,103)" stroke="none" stroke-width="1"/></g><g id="e8yh6f7nvl3y109"><ellipse id="e8yh6f7nvl3y110" rx="5.960000" ry="4.814000" transform="matrix(1 0 0 1 153.81100000000001 102.69199999999999)" fill="rgb(239,130,103)" stroke="none" stroke-width="1"/></g></g><g id="e8yh6f7nvl3y111"><path id="e8yh6f7nvl3y112" d="M157.828000,78.096000C158.427000,79.352000,160.757000,78.039000,163.727000,76.625000C166.701000,75.211000,169.188000,74.229000,168.589000,72.972000C167.990000,71.714000,165.096000,71.843000,162.123000,73.258000C159.153000,74.671000,157.229000,76.837000,157.828000,78.096000Z" fill="rgb(79,51,21)" stroke="none" stroke-width="1"/><path id="e8yh6f7nvl3y113" d="M187.707000,74.581000C187.164000,75.863000,189.691000,76.736000,192.721000,78.022000C195.752000,79.309000,198.136000,80.520000,198.680000,79.238000C199.223000,77.956000,197.209000,75.874000,194.178000,74.589000C191.150000,73.302000,188.252000,73.298000,187.707000,74.581000Z" fill="rgb(79,51,21)" stroke="none" stroke-width="1"/></g><g id="e8yh6f7nvl3y114"><g id="e8yh6f7nvl3y115"><path id="e8yh6f7nvl3y116" d="M164.208000,106.952000C168.491000,114.829000,182.153000,115.949000,185.739000,106.854000C185.933000,106.361000,185.140000,106.150000,184.949000,106.636000C181.622000,115.074000,168.838000,113.750000,164.916000,106.538000C164.664000,106.073000,163.955000,106.487000,164.208000,106.952000L164.208000,106.952000Z" fill="rgb(230,161,101)" stroke="none" stroke-width="1"/></g></g><g id="e8yh6f7nvl3y117_ts" transform="translate(176.420865,93.183669) scale(1,1)"><g id="e8yh6f7nvl3y117" transform="translate(-176.420865,-93.183669)"><g id="e8yh6f7nvl3y118"><ellipse id="e8yh6f7nvl3y119" rx="2.751000" ry="1.923000" transform="matrix(-0.04350000000000 -0.99910000000000 0.99910000000000 -0.04350000000000 163.03502509999996 89.54226209999996)" fill="rgb(79,51,21)" stroke="none" stroke-width="1"/><polygon id="e8yh6f7nvl3y120" points="162.068000,87.829000 158.475000,87.906000 162.091000,90.370000" fill="rgb(79,51,21)" stroke="none" stroke-width="1"/></g><g id="e8yh6f7nvl3y121"><ellipse id="e8yh6f7nvl3y122" rx="2.751000" ry="1.924000" transform="matrix(0.04510000000000 -0.99900000000000 0.99900000000000 0.04510000000000 189.91310179999948 90.34864789999980)" fill="rgb(79,51,21)" stroke="none" stroke-width="1"/><polygon id="e8yh6f7nvl3y123" points="190.626000,88.563000 194.079000,89.558000 189.951000,91.014000" fill="rgb(79,51,21)" stroke="none" stroke-width="1"/></g></g></g><g id="e8yh6f7nvl3y124"><path id="e8yh6f7nvl3y125" d="M155.704000,43.666000C155.704000,43.666000,168.082000,63.991000,173.431000,63.991000C178.780000,63.991000,174.954000,53.141000,174.954000,53.141000C174.954000,53.141000,183.211000,72.141000,207.663000,74.178000C207.663000,74.178000,207.126000,35.143000,174.065000,37.552000L155.704000,43.666000Z" fill="rgb(95,57,8)" stroke="none" stroke-width="1"/><path id="e8yh6f7nvl3y126" d="M161.104000,43.615000C161.104000,43.615000,152.048000,79.452000,138.247000,82.410000C135.071000,83.091000,137.851000,67.107000,137.970000,63.585000C138.361000,51.923000,148.462000,42.774000,160.108000,43.533000C160.434000,43.554000,160.767000,43.581000,161.104000,43.615000Z" fill="rgb(95,57,8)" stroke="none" stroke-width="1"/></g></g></g></g><g id="e8yh6f7nvl3y127_tr" transform="translate(172.499168,279.746719) rotate(0)"><g id="e8yh6f7nvl3y127" transform="translate(-172.499168,-279.746719)"><rect id="e8yh6f7nvl3y128" width="201.071000" height="138.802000" rx="0" ry="0" transform="matrix(-0.99970000000000 0.02440000000000 -0.02440000000000 -0.99970000000000 279.54445460000017 349.14000729999998)" fill="rgb(25,126,133)" stroke="none" stroke-width="1"/><rect id="e8yh6f7nvl3y129" width="201.070000" height="138.800000" rx="0" ry="0" transform="matrix(-0.99970000000000 0.02440000000000 -0.02440000000000 -0.99970000000000 274.61431640000018 344.20523570000000)" fill="rgb(255,255,255)" stroke="none" stroke-width="1"/><g id="e8yh6f7nvl3y130"><path id="e8yh6f7nvl3y131" d="M70.258000,267.240000C70.258000,267.240000,106.451000,271.853000,68.402000,273.441000C68.402000,273.441000,59.354000,272.289000,63.480000,266.630000C63.480000,266.630000,59.835000,263.601000,63.588000,261.300000C63.588000,261.300000,60.733000,257.291000,65.465000,255.780000C65.465000,255.780000,60.692000,251.557000,69.410000,250.879000C78.127000,250.199000,93.262000,253.827000,72.969000,255.548000C72.969000,255.548000,103.579000,256.238000,73.010000,261.281000C73.010000,261.283000,110.078000,263.275000,70.258000,267.240000Z" fill="rgb(252,202,160)" stroke="none" stroke-width="1"/><path id="e8yh6f7nvl3y132" d="M271.640000,258.805000C271.640000,258.805000,236.849000,269.791000,270.725000,252.395000C270.725000,252.395000,279.423000,249.649000,278.050000,256.516000C278.050000,256.516000,282.627000,257.735000,280.185000,261.399000C280.185000,261.399000,284.458000,263.840000,280.795000,267.198000C280.795000,267.198000,286.899000,269.028000,279.270000,273.300000C271.639000,277.571000,256.381000,280.623000,274.082000,270.556000C274.082000,270.556000,246.004000,282.759000,271.641000,265.368000C271.640000,265.364000,237.153000,279.096000,271.640000,258.805000Z" fill="rgb(252,202,160)" stroke="none" stroke-width="1"/></g><g id="e8yh6f7nvl3y133"><g id="e8yh6f7nvl3y134"><g id="e8yh6f7nvl3y135"><path id="e8yh6f7nvl3y136" d="M151.739000,276.005000C151.739000,276.490000,151.484000,276.734000,150.976000,276.734000C150.700000,276.734000,150.492000,276.618000,150.352000,276.386000C149.428000,275.023000,148.018000,274.341000,146.123000,274.341000C144.828000,274.341000,143.754000,274.583000,142.899000,275.070000C141.952000,275.579000,141.478000,276.331000,141.478000,277.323000C141.478000,278.341000,142.968000,279.461000,145.950000,280.685000C149.208000,282.025000,150.837000,283.701000,150.837000,285.709000C150.837000,287.049000,150.283000,288.078000,149.173000,288.794000C148.294000,289.349000,147.209000,289.626000,145.915000,289.626000C144.135000,289.626000,142.599000,288.886000,141.305000,287.407000C141.166000,287.247000,141.097000,287.095000,141.097000,286.957000C141.097000,286.426000,141.351000,286.159000,141.859000,286.159000C142.067000,286.159000,142.263000,286.252000,142.448000,286.436000C143.488000,287.615000,144.643000,288.204000,145.915000,288.204000C146.885000,288.204000,147.693000,287.997000,148.341000,287.581000C148.965000,287.165000,149.277000,286.541000,149.277000,285.709000C149.277000,284.322000,147.788000,283.028000,144.806000,281.827000C143.327000,281.250000,142.241000,280.682000,141.548000,280.129000C140.529000,279.345000,140.023000,278.408000,140.023000,277.321000C140.023000,275.750000,140.728000,274.571000,142.137000,273.786000C143.246000,273.184000,144.575000,272.885000,146.123000,272.885000C147.209000,272.885000,148.249000,273.140000,149.243000,273.648000C150.235000,274.133000,151.021000,274.793000,151.599000,275.625000C151.691000,275.764000,151.739000,275.891000,151.739000,276.005000Z" fill="rgb(0,0,0)" stroke="none" stroke-width="1"/><path id="e8yh6f7nvl3y137" d="M164.702000,289.072000C164.702000,289.441000,164.459000,289.627000,163.973000,289.627000C163.535000,289.627000,163.302000,289.315000,163.280000,288.689000C162.080000,289.314000,160.888000,289.627000,159.711000,289.627000C158.347000,289.627000,157.215000,289.397000,156.315000,288.934000C155.160000,288.288000,154.583000,287.329000,154.583000,286.057000C154.583000,283.516000,156.224000,282.245000,159.505000,282.245000C160.522000,282.245000,161.689000,282.453000,163.005000,282.869000C162.659000,281.136000,161.492000,280.269000,159.505000,280.269000C158.349000,280.269000,157.171000,280.603000,155.970000,281.273000C155.831000,281.342000,155.715000,281.377000,155.623000,281.377000C155.138000,281.377000,154.894000,281.122000,154.894000,280.614000C154.894000,280.083000,155.564000,279.621000,156.904000,279.227000C157.922000,278.950000,158.788000,278.811000,159.505000,278.811000C161.052000,278.811000,162.277000,279.249000,163.179000,280.127000C164.080000,281.027000,164.531000,282.288000,164.531000,283.905000C164.531000,283.558000,164.589000,285.105000,164.705000,288.549000L164.702000,289.072000L164.702000,289.072000ZM163.176000,287.098000C163.129000,286.452000,163.084000,285.561000,163.038000,284.428000C161.628000,283.944000,160.450000,283.700000,159.502000,283.700000C157.168000,283.700000,156.002000,284.484000,156.002000,286.056000C156.002000,287.464000,157.250000,288.169000,159.745000,288.169000C160.924000,288.171000,162.067000,287.812000,163.176000,287.098000Z" fill="rgb(0,0,0)" stroke="none" stroke-width="1"/><path id="e8yh6f7nvl3y138" d="M178.080000,283.457000C178.080000,285.745000,177.918000,287.616000,177.595000,289.072000C177.502000,289.441000,177.260000,289.627000,176.867000,289.627000C176.403000,289.627000,176.174000,289.407000,176.174000,288.968000C176.174000,288.899000,176.186000,288.795000,176.209000,288.656000C176.508000,286.738000,176.660000,285.005000,176.660000,283.457000C176.660000,282.465000,176.348000,281.689000,175.723000,281.135000C175.121000,280.559000,174.313000,280.270000,173.297000,280.270000C171.841000,280.270000,170.546000,280.893000,169.415000,282.141000C169.436000,282.973000,169.450000,283.897000,169.450000,284.913000C169.450000,286.277000,169.402000,287.594000,169.311000,288.863000C169.264000,289.372000,169.035000,289.627000,168.619000,289.627000C168.156000,289.627000,167.926000,289.397000,167.926000,288.934000L167.926000,288.760000C167.995000,287.813000,168.030000,286.531000,168.030000,284.913000C168.030000,282.648000,167.995000,280.984000,167.926000,279.922000C167.926000,279.901000,167.926000,279.830000,167.926000,279.714000C167.926000,279.252000,168.180000,279.022000,168.689000,279.022000C169.083000,279.022000,169.291000,279.252000,169.313000,279.714000C169.335000,279.807000,169.359000,279.981000,169.382000,280.235000C170.630000,279.288000,171.934000,278.813000,173.299000,278.813000C174.638000,278.813000,175.747000,279.208000,176.626000,279.993000C177.595000,280.846000,178.080000,282.001000,178.080000,283.457000Z" fill="rgb(0,0,0)" stroke="none" stroke-width="1"/><path id="e8yh6f7nvl3y139" d="M191.702000,283.492000C191.702000,285.086000,191.736000,286.806000,191.806000,288.656000L191.806000,288.968000C191.806000,289.407000,191.576000,289.627000,191.113000,289.627000C190.650000,289.627000,190.408000,289.384000,190.385000,288.898000C190.292000,286.679000,190.246000,284.913000,190.246000,283.595000L190.246000,282C189.252000,280.893000,188.084000,280.337000,186.745000,280.337000C185.497000,280.337000,184.526000,280.718000,183.834000,281.481000C183.093000,282.221000,182.725000,283.192000,182.725000,284.393000C182.725000,285.526000,183.083000,286.438000,183.800000,287.130000C184.493000,287.801000,185.290000,288.137000,186.192000,288.137000C187.163000,288.137000,188.051000,287.881000,188.860000,287.373000C189,287.281000,189.137000,287.234000,189.276000,287.234000C189.761000,287.234000,190.005000,287.463000,190.005000,287.927000C190.005000,288.250000,189.901000,288.480000,189.693000,288.618000C188.722000,289.290000,187.556000,289.624000,186.193000,289.624000C184.992000,289.624000,183.905000,289.196000,182.935000,288.341000C181.827000,287.349000,181.271000,286.031000,181.271000,284.390000C181.271000,282.775000,181.768000,281.446000,182.761000,280.406000C183.778000,279.366000,185.105000,278.845000,186.747000,278.845000C188.041000,278.845000,189.208000,279.226000,190.248000,279.990000C190.269000,277.819000,190.339000,275.705000,190.456000,273.646000C190.477000,273.138000,190.732000,272.884000,191.218000,272.884000C191.680000,272.884000,191.911000,273.138000,191.911000,273.646000L191.911000,273.923000C191.771000,276.746000,191.702000,279.936000,191.702000,283.492000Z" fill="rgb(0,0,0)" stroke="none" stroke-width="1"/><path id="e8yh6f7nvl3y140" d="M204.977000,289.037000C204.977000,290.378000,204.665000,291.406000,204.041000,292.122000C203.417000,292.839000,202.606000,293.195000,201.615000,293.195000C200.735000,293.195000,199.951000,292.873000,199.258000,292.226000C199.096000,292.086000,199.015000,291.902000,199.015000,291.670000C199.015000,291.185000,199.223000,290.941000,199.639000,290.941000C199.800000,290.941000,199.986000,291.023000,200.194000,291.185000C200.610000,291.532000,201.084000,291.705000,201.616000,291.705000C202.932000,291.705000,203.592000,290.814000,203.592000,289.036000C203.592000,288.876000,203.580000,288.447000,203.557000,287.754000C203.535000,286.922000,203.522000,286.287000,203.522000,285.848000C202.529000,287.628000,201.281000,288.518000,199.779000,288.518000C197.792000,288.518000,196.439000,287.397000,195.724000,285.155000C195.308000,283.885000,195.100000,282.024000,195.100000,279.576000C195.100000,279.067000,195.343000,278.813000,195.829000,278.813000C196.267000,278.813000,196.487000,279.067000,196.487000,279.576000C196.487000,281.563000,196.627000,283.124000,196.903000,284.255000C197.388000,286.127000,198.346000,287.064000,199.780000,287.064000C201.675000,287.064000,202.865000,285.320000,203.350000,281.831000C203.419000,281.393000,203.650000,281.173000,204.043000,281.173000C204.436000,281.173000,204.653000,281.402000,204.702000,281.865000C204.884000,283.873000,204.977000,286.266000,204.977000,289.037000Z" fill="rgb(0,0,0)" stroke="none" stroke-width="1"/></g></g><g id="e8yh6f7nvl3y141"><path id="e8yh6f7nvl3y142" d="M130.665000,243.373000C132.027000,243.441000,134.061000,243.500000,136.765000,243.546000L136.522000,237.100000C134.396000,237.032000,132.305000,236.940000,130.250000,236.824000C129.973000,236.802000,129.729000,236.766000,129.521000,236.720000C129.199000,236.605000,129.047000,236.353000,129.071000,235.958000C129.118000,235.542000,129.372000,235.356000,129.834000,235.403000C131.590000,235.563000,134.396000,235.692000,138.256000,235.784000C140.474000,235.852000,142.322000,235.866000,143.802000,235.819000C144.264000,235.819000,144.495000,236.048000,144.495000,236.510000C144.495000,236.906000,144.264000,237.122000,143.802000,237.169000C143.270000,237.169000,142.739000,237.182000,142.207000,237.203000C140.751000,237.203000,139.331000,237.182000,137.943000,237.134000L138.186000,243.581000L138.290000,243.581000C140.300000,243.603000,141.976000,243.603000,143.315000,243.581000C143.777000,243.581000,144.008000,243.810000,144.008000,244.273000C144.008000,244.689000,143.777000,244.910000,143.315000,244.931000L141.826000,244.931000C140.600000,244.931000,139.399000,244.919000,138.221000,244.896000L138.464000,250.894000C140.659000,250.872000,142.311000,250.801000,143.421000,250.685000C143.975000,250.593000,144.275000,250.789000,144.321000,251.275000C144.321000,251.669000,144.113000,251.912000,143.698000,252.003000C142.288000,252.165000,140.219000,252.246000,137.494000,252.246000C133.797000,252.246000,131.370000,252.120000,130.215000,251.864000C129.915000,251.679000,129.788000,251.437000,129.834000,251.135000C129.926000,250.767000,130.169000,250.593000,130.562000,250.615000C130.793000,250.615000,131.001000,250.637000,131.186000,250.684000C131.556000,250.705000,131.948000,250.731000,132.364000,250.752000C133.751000,250.844000,135.310000,250.891000,137.044000,250.891000L136.801000,244.895000C134.837000,244.848000,132.906000,244.791000,131.013000,244.721000C130.759000,244.721000,130.528000,244.709000,130.320000,244.688000C130.020000,244.572000,129.882000,244.319000,129.904000,243.924000C129.948000,243.512000,130.202000,243.326000,130.665000,243.373000Z" fill="rgb(0,0,0)" stroke="none" stroke-width="1"/><path id="e8yh6f7nvl3y143" d="M163.453000,246.805000C164.886000,246.897000,166.908000,246.979000,169.517000,247.047000L169.136000,244.760000C169.067000,244.297000,169.298000,244.031000,169.829000,243.962000C170.199000,243.962000,170.430000,244.136000,170.521000,244.483000L170.937000,247.083000C171.723000,247.106000,172.554000,247.131000,173.433000,247.151000L174.022000,244.830000C174.068000,244.415000,174.289000,244.207000,174.681000,244.207000C175.189000,244.229000,175.432000,244.483000,175.410000,244.969000C175.248000,245.824000,175.075000,246.564000,174.889000,247.189000C177.015000,247.236000,178.806000,247.236000,180.261000,247.189000C180.723000,247.189000,180.954000,247.419000,180.954000,247.881000C180.954000,248.275000,180.723000,248.493000,180.261000,248.539000C179.637000,248.539000,178.979000,248.552000,178.285000,248.574000C173.364000,248.552000,168.615000,248.424000,164.040000,248.192000C163.692000,248.192000,163.393000,248.171000,163.139000,248.123000C162.816000,248.008000,162.665000,247.755000,162.689000,247.360000C162.736000,246.941000,162.991000,246.758000,163.453000,246.805000ZM170.003000,256.405000C170.095000,256.382000,170.233000,256.405000,170.419000,256.474000C170.627000,256.542000,170.812000,256.578000,170.974000,256.578000C171.182000,256.557000,171.274000,256.417000,171.251000,256.162000C171.251000,255.330000,171.205000,254.580000,171.111000,253.909000C171.065000,253.818000,170.950000,253.749000,170.764000,253.701000C170.534000,253.680000,169.910000,253.644000,168.892000,253.597000C168.106000,256.023000,166.789000,257.732000,164.941000,258.726000C164.802000,258.795000,164.640000,258.875000,164.457000,258.968000C164.317000,259.037000,164.133000,259.072000,163.901000,259.072000C163.554000,259.024000,163.346000,258.829000,163.277000,258.481000C163.255000,258.135000,163.393000,257.893000,163.693000,257.753000C165.496000,256.899000,166.744000,255.477000,167.436000,253.489000C166.650000,253.443000,165.761000,253.398000,164.768000,253.349000C164.375000,253.281000,164.179000,253.062000,164.179000,252.691000C164.179000,252.230000,164.422000,252.011000,164.908000,252.034000C165.970000,252.081000,166.940000,252.126000,167.818000,252.173000C167.934000,251.688000,168.015000,251.156000,168.061000,250.578000C168.107000,250.140000,168.361000,249.920000,168.825000,249.920000C169.309000,249.920000,169.529000,250.186000,169.482000,250.717000C169.414000,251.272000,169.333000,251.780000,169.241000,252.242000C170.025000,252.310000,170.730000,252.369000,171.354000,252.415000C172.024000,252.484000,172.405000,252.819000,172.499000,253.420000C172.614000,254.275000,172.661000,255.190000,172.638000,256.158000C172.638000,257.312000,172.095000,257.890000,171.009000,257.890000C170.038000,257.845000,169.553000,257.543000,169.553000,256.990000C169.553000,256.671000,169.703000,256.475000,170.003000,256.405000ZM178.114000,232.628000C176.336000,232.676000,174.428000,232.650000,172.395000,232.559000C172.418000,233.206000,172.441000,233.761000,172.464000,234.223000L172.464000,234.292000C173.365000,234.270000,174.347000,234.223000,175.410000,234.152000C175.918000,234.200000,176.161000,234.419000,176.138000,234.810000C176.138000,235.226000,175.908000,235.457000,175.445000,235.503000C173.204000,235.689000,171.343000,235.733000,169.864000,235.642000C169.055000,235.642000,168.362000,235.585000,167.785000,235.469000C167.462000,235.353000,167.300000,235.135000,167.300000,234.810000C167.300000,234.255000,167.658000,234.060000,168.375000,234.222000C168.813000,234.269000,169.321000,234.290000,169.899000,234.290000C170.293000,234.313000,170.685000,234.324000,171.079000,234.324000C171.033000,233.817000,170.998000,233.204000,170.975000,232.487000C168.156000,232.348000,166.342000,232.210000,165.534000,232.072000C165.140000,231.956000,164.968000,231.678000,165.013000,231.240000C165.082000,230.916000,165.290000,230.743000,165.637000,230.719000C165.753000,230.719000,165.903000,230.732000,166.088000,230.754000C166.966000,230.847000,168.571000,230.950000,170.905000,231.066000C170.883000,230.790000,170.871000,230.511000,170.871000,230.234000C170.871000,229.728000,171.101000,229.462000,171.563000,229.437000C172.002000,229.460000,172.246000,229.668000,172.292000,230.062000C172.292000,230.456000,172.304000,230.812000,172.327000,231.135000C174.707000,231.228000,176.637000,231.263000,178.114000,231.239000C178.599000,231.239000,178.843000,231.468000,178.843000,231.932000C178.819000,232.420000,178.576000,232.650000,178.114000,232.628000ZM175.133000,238.312000C175.341000,238.958000,175.445000,240.034000,175.445000,241.536000C175.399000,242.113000,175.088000,242.426000,174.509000,242.473000C172.314000,242.520000,170.500000,242.485000,169.068000,242.369000C168.490000,242.276000,168.236000,241.918000,168.305000,241.294000C168.283000,239.839000,168.247000,238.753000,168.201000,238.036000C168.201000,237.574000,168.409000,237.343000,168.825000,237.343000C169.125000,237.343000,169.309000,237.425000,169.380000,237.586000C171.667000,237.564000,173.134000,237.574000,173.780000,237.620000C174.521000,237.666000,174.972000,237.896000,175.133000,238.312000ZM169.622000,238.938000C169.644000,239.493000,169.657000,240.117000,169.657000,240.809000C169.657000,240.970000,169.725000,241.051000,169.864000,241.051000C170.696000,241.120000,172.059000,241.155000,173.955000,241.155000C174.048000,241.134000,174.082000,241.064000,174.059000,240.947000C174.059000,240.439000,174.001000,239.839000,173.886000,239.144000C173.840000,239.005000,173.736000,238.937000,173.574000,238.937000L169.622000,238.937000ZM183.001000,256.994000C182.955000,257.341000,182.734000,257.549000,182.342000,257.618000C180.771000,257.664000,179.269000,257.652000,177.837000,257.583000C177.352000,257.514000,177.144000,257.214000,177.213000,256.684000C177.398000,255.205000,177.421000,254.002000,177.282000,253.080000C177.213000,252.524000,177.490000,252.270000,178.113000,252.317000C180.009000,252.270000,181.348000,252.295000,182.134000,252.385000C182.596000,252.477000,182.862000,252.709000,182.931000,253.078000C183.001000,254.580000,183.024000,255.885000,183.001000,256.994000ZM181.545000,253.632000C180.829000,253.611000,179.893000,253.598000,178.736000,253.598000C178.736000,254.315000,178.724000,255.215000,178.702000,256.301000C179.602000,256.348000,180.561000,256.360000,181.579000,256.336000C181.580000,255.389000,181.568000,254.486000,181.545000,253.632000Z" fill="rgb(0,0,0)" stroke="none" stroke-width="1"/><path id="e8yh6f7nvl3y144" d="M198.598000,234.361000C197.905000,236.601000,196.888000,237.931000,195.548000,238.347000C194.970000,238.414000,194.658000,238.219000,194.611000,237.756000C194.611000,237.502000,194.715000,237.306000,194.923000,237.167000C196.726000,236.174000,197.627000,234.129000,197.627000,231.032000C197.649000,230.569000,197.881000,230.327000,198.319000,230.303000C198.782000,230.326000,199.024000,230.570000,199.048000,231.032000C199.025000,231.772000,198.967000,232.418000,198.875000,232.971000C199.845000,233.133000,201.324000,233.262000,203.311000,233.354000C204.491000,233.422000,205.472000,233.434000,206.257000,233.387000C206.719000,233.387000,206.950000,233.618000,206.950000,234.080000C206.950000,234.496000,206.719000,234.726000,206.257000,234.773000C205.980000,234.773000,205.679000,234.786000,205.356000,234.806000C203.138000,234.785000,200.989000,234.658000,198.911000,234.425000C198.794000,234.408000,198.690000,234.385000,198.598000,234.361000ZM205.356000,252.801000C204.363000,252.733000,203.219000,252.641000,201.925000,252.524000C198.967000,252.248000,197.119000,251.969000,196.380000,251.692000C196.103000,251.578000,195.941000,251.403000,195.895000,251.171000C195.873000,250.942000,195.895000,250.698000,195.964000,250.443000C196.241000,249.288000,196.472000,248.177000,196.657000,247.116000C196.380000,247.094000,196.101000,247.058000,195.825000,247.012000C195.570000,246.991000,195.340000,246.944000,195.132000,246.873000C194.809000,246.758000,194.658000,246.505000,194.682000,246.111000C194.728000,245.695000,194.982000,245.508000,195.444000,245.556000C195.883000,245.624000,196.381000,245.695000,196.935000,245.763000C197.189000,244.355000,197.385000,243.013000,197.524000,241.742000C197.570000,241.304000,197.791000,241.083000,198.183000,241.083000C202.226000,241.291000,204.780000,241.478000,205.843000,241.638000C206.421000,241.687000,206.744000,241.950000,206.814000,242.437000C206.860000,243.568000,206.895000,244.851000,206.918000,246.284000C207.610000,246.306000,208.223000,246.306000,208.755000,246.284000C209.193000,246.284000,209.414000,246.515000,209.414000,246.976000C209.414000,247.371000,209.193000,247.588000,208.755000,247.634000C208.223000,247.634000,207.692000,247.648000,207.161000,247.669000L206.918000,247.669000C206.895000,248.177000,206.883000,248.687000,206.883000,249.192000C206.860000,250.047000,206.848000,250.823000,206.848000,251.514000L207.818000,251.514000C208.280000,251.514000,208.511000,251.745000,208.511000,252.207000C208.488000,252.623000,208.245000,252.844000,207.783000,252.866000L206.777000,252.866000C206.755000,253.628000,206.719000,254.206000,206.673000,254.597000C206.604000,255.544000,206.534000,256.087000,206.465000,256.226000C206.303000,257.036000,205.830000,257.452000,205.044000,257.474000C204.674000,257.474000,204.374000,257.416000,204.143000,257.301000C203.820000,257.115000,203.669000,256.886000,203.692000,256.609000C203.692000,256.146000,203.923000,255.916000,204.385000,255.916000C204.477000,255.916000,204.628000,255.939000,204.836000,255.984000C205.021000,256.054000,205.136000,255.927000,205.183000,255.603000C205.253000,254.729000,205.311000,253.794000,205.356000,252.801000ZM205.460000,247.636000C202.965000,247.590000,200.515000,247.463000,198.111000,247.255000C197.903000,248.411000,197.673000,249.508000,197.419000,250.548000C198.135000,250.756000,199.730000,250.977000,202.202000,251.206000C203.427000,251.322000,204.490000,251.402000,205.390000,251.448000C205.438000,250.271000,205.460000,249,205.460000,247.636000ZM205.460000,242.957000C203.335000,242.727000,201.116000,242.555000,198.806000,242.437000C198.667000,243.663000,198.505000,244.816000,198.321000,245.902000C199.755000,246.019000,201.465000,246.123000,203.451000,246.214000C204.190000,246.237000,204.860000,246.261000,205.461000,246.283000C205.484000,245.198000,205.484000,244.089000,205.460000,242.957000ZM201.509000,250.479000C201.186000,250.132000,200.908000,249.750000,200.677000,249.334000C200.608000,248.941000,200.735000,248.676000,201.058000,248.537000C201.381000,248.422000,201.670000,248.491000,201.924000,248.745000C202.271000,249.092000,202.548000,249.451000,202.756000,249.818000C202.895000,250.234000,202.791000,250.536000,202.444000,250.719000C202.076000,250.859000,201.764000,250.777000,201.509000,250.479000ZM201.648000,245.452000C201.326000,245.105000,201.047000,244.724000,200.816000,244.308000C200.748000,243.914000,200.875000,243.650000,201.197000,243.510000C201.521000,243.394000,201.809000,243.463000,202.064000,243.718000C202.412000,244.066000,202.688000,244.423000,202.896000,244.792000C203.036000,245.208000,202.931000,245.508000,202.584000,245.692000C202.214000,245.834000,201.902000,245.753000,201.648000,245.452000ZM215.755000,241.709000C215.316000,243.234000,214.715000,244.158000,213.952000,244.482000C213.374000,244.550000,213.062000,244.355000,213.015000,243.892000C213.015000,243.638000,213.119000,243.441000,213.327000,243.302000C214.344000,242.448000,214.851000,240.667000,214.851000,237.964000C214.874000,237.502000,215.105000,237.259000,215.544000,237.235000C216.006000,237.257000,216.249000,237.502000,216.272000,237.964000C216.250000,238.890000,216.180000,239.675000,216.064000,240.321000L221.229000,240.563000C221.691000,240.585000,221.912000,240.817000,221.888000,241.255000C221.866000,241.718000,221.622000,241.948000,221.160000,241.948000L215.755000,241.709000ZM218.319000,247.566000C218.388000,247.128000,218.654000,246.920000,219.117000,246.941000C219.555000,246.990000,219.763000,247.232000,219.740000,247.670000C219.533000,249.265000,219.058000,250.674000,218.319000,251.899000C219.036000,252.430000,219.660000,252.764000,220.191000,252.904000C220.330000,252.926000,220.433000,252.951000,220.503000,252.973000C220.965000,253.065000,221.162000,253.331000,221.092000,253.770000C221.023000,254.186000,220.780000,254.393000,220.363000,254.393000C220.224000,254.393000,220.041000,254.360000,219.809000,254.289000C219.069000,254.081000,218.295000,253.687000,217.487000,253.109000C216.863000,253.873000,216.286000,254.380000,215.755000,254.634000C215.131000,254.795000,214.796000,254.599000,214.750000,254.044000C214.750000,253.858000,214.842000,253.677000,215.026000,253.489000C215.511000,253.074000,215.951000,252.635000,216.343000,252.173000C215.281000,251.181000,214.530000,250.255000,214.090000,249.400000C214.044000,249.286000,214.021000,249.171000,214.021000,249.054000C214.067000,248.616000,214.310000,248.396000,214.750000,248.396000C215.004000,248.396000,215.212000,248.523000,215.374000,248.778000C215.767000,249.470000,216.368000,250.212000,217.176000,250.996000C217.846000,249.938000,218.227000,248.792000,218.319000,247.566000Z" fill="rgb(0,0,0)" stroke="none" stroke-width="1"/></g><g id="e8yh6f7nvl3y145"><g id="e8yh6f7nvl3y146"><path id="e8yh6f7nvl3y147" d="M94.172000,320.223000L94.793000,319.395000C95.442000,319.918000,96.120000,320.278000,97.017000,320.278000C98.011000,320.278000,98.495000,319.755000,98.495000,319.104000C98.495000,318.345000,97.610000,318,96.783000,317.682000C95.733000,317.295000,94.546000,316.785000,94.546000,315.514000C94.546000,314.326000,95.499000,313.386000,97.128000,313.386000C98.054000,313.386000,98.869000,313.774000,99.463000,314.231000L98.856000,315.044000C98.331000,314.657000,97.806000,314.382000,97.128000,314.382000C96.190000,314.382000,95.761000,314.878000,95.761000,315.458000C95.761000,316.176000,96.576000,316.437000,97.419000,316.756000C98.510000,317.170000,99.711000,317.611000,99.711000,319.035000C99.711000,320.251000,98.745000,321.258000,96.977000,321.258000C95.912000,321.258000,94.891000,320.816000,94.172000,320.223000Z" fill="rgb(0,0,0)" stroke="none" stroke-width="1"/><path id="e8yh6f7nvl3y148" d="M101.377000,318.331000L101.377000,313.580000L102.634000,313.580000L102.634000,318.180000C102.634000,319.575000,103.048000,320.168000,104.042000,320.168000C104.814000,320.168000,105.354000,319.794000,106.072000,318.897000L106.072000,313.582000L107.329000,313.582000L107.329000,321.080000L106.278000,321.080000L106.182000,319.907000L106.141000,319.907000C105.436000,320.720000,104.690000,321.260000,103.655000,321.260000C102.082000,321.258000,101.377000,320.236000,101.377000,318.331000Z" fill="rgb(0,0,0)" stroke="none" stroke-width="1"/><path id="e8yh6f7nvl3y149" d="M109.852000,313.580000L110.888000,313.580000L110.999000,314.657000L111.039000,314.657000C111.757000,313.952000,112.530000,313.386000,113.554000,313.386000C115.127000,313.386000,115.845000,314.408000,115.845000,316.328000L115.845000,321.078000L114.589000,321.078000L114.589000,316.494000C114.589000,315.085000,114.161000,314.491000,113.167000,314.491000C112.393000,314.491000,111.869000,314.878000,111.107000,315.637000L111.107000,321.078000L109.851000,321.078000L109.851000,313.580000L109.852000,313.580000Z" fill="rgb(0,0,0)" stroke="none" stroke-width="1"/><path id="e8yh6f7nvl3y150" d="M124.237000,318.288000L122.898000,318.288000L122.898000,321.078000L121.696000,321.078000L121.696000,318.288000L117.292000,318.288000L117.292000,317.461000L121.503000,310.956000L122.899000,310.956000L122.899000,317.281000L124.238000,317.281000L124.238000,318.288000ZM121.696000,317.281000L121.696000,314.174000C121.696000,313.677000,121.752000,312.862000,121.779000,312.337000L121.724000,312.337000C121.475000,312.834000,121.198000,313.331000,120.911000,313.829000L118.603000,317.281000L121.696000,317.281000Z" fill="rgb(0,0,0)" stroke="none" stroke-width="1"/><path id="e8yh6f7nvl3y151" d="M125.352000,315.982000C125.352000,312.461000,126.581000,310.761000,128.514000,310.761000C130.434000,310.761000,131.663000,312.474000,131.663000,315.982000C131.663000,319.503000,130.434000,321.256000,128.514000,321.256000C126.581000,321.258000,125.352000,319.505000,125.352000,315.982000ZM130.434000,315.982000C130.434000,313.027000,129.662000,311.784000,128.514000,311.784000C127.355000,311.784000,126.581000,313.027000,126.581000,315.982000C126.581000,318.965000,127.354000,320.251000,128.514000,320.251000C129.660000,320.251000,130.434000,318.967000,130.434000,315.982000Z" fill="rgb(0,0,0)" stroke="none" stroke-width="1"/><path id="e8yh6f7nvl3y152" d="M132.942000,320.333000C136.120000,317.557000,137.584000,315.541000,137.584000,313.801000C137.584000,312.641000,136.977000,311.799000,135.720000,311.799000C134.891000,311.799000,134.173000,312.311000,133.621000,312.973000L132.890000,312.254000C133.718000,311.358000,134.588000,310.764000,135.872000,310.764000C137.680000,310.764000,138.811000,311.952000,138.811000,313.760000C138.811000,315.776000,137.223000,317.833000,134.848000,320.084000C135.373000,320.043000,135.994000,319.988000,136.506000,319.988000L139.308000,319.988000L139.308000,321.078000L132.941000,321.078000L132.942000,320.333000L132.942000,320.333000Z" fill="rgb(0,0,0)" stroke="none" stroke-width="1"/><path id="e8yh6f7nvl3y153" d="M140.396000,319.877000L141.033000,319.049000C141.626000,319.670000,142.399000,320.208000,143.546000,320.208000C144.748000,320.208000,145.604000,319.490000,145.604000,318.331000C145.604000,317.116000,144.791000,316.301000,142.456000,316.301000L142.456000,315.334000C144.541000,315.334000,145.260000,314.491000,145.260000,313.400000C145.260000,312.419000,144.597000,311.797000,143.548000,311.769000C142.734000,311.797000,142.015000,312.211000,141.448000,312.779000L140.770000,311.978000C141.531000,311.273000,142.428000,310.761000,143.602000,310.761000C145.301000,310.761000,146.543000,311.672000,146.543000,313.301000C146.543000,314.531000,145.812000,315.347000,144.734000,315.747000L144.734000,315.801000C145.936000,316.078000,146.888000,316.989000,146.888000,318.369000C146.888000,320.181000,145.438000,321.256000,143.642000,321.256000C142.052000,321.258000,141.059000,320.596000,140.396000,319.877000Z" fill="rgb(0,0,0)" stroke="none" stroke-width="1"/><path id="e8yh6f7nvl3y154" d="M154.878000,318.288000L153.538000,318.288000L153.538000,321.078000L152.336000,321.078000L152.336000,318.288000L147.931000,318.288000L147.931000,317.461000L152.143000,310.956000L153.538000,310.956000L153.538000,317.281000L154.878000,317.281000L154.878000,318.288000L154.878000,318.288000ZM152.336000,317.281000L152.336000,314.174000C152.336000,313.677000,152.392000,312.862000,152.419000,312.337000L152.363000,312.337000C152.116000,312.834000,151.840000,313.331000,151.550000,313.829000L149.244000,317.281000L152.336000,317.281000Z" fill="rgb(0,0,0)" stroke="none" stroke-width="1"/><path id="e8yh6f7nvl3y155" d="M155.993000,315.982000C155.993000,312.461000,157.222000,310.761000,159.154000,310.761000C161.075000,310.761000,162.302000,312.474000,162.302000,315.982000C162.302000,319.503000,161.073000,321.256000,159.154000,321.256000C157.222000,321.258000,155.993000,319.505000,155.993000,315.982000ZM161.075000,315.982000C161.075000,313.027000,160.301000,311.784000,159.154000,311.784000C157.995000,311.784000,157.221000,313.027000,157.221000,315.982000C157.221000,318.965000,157.994000,320.251000,159.154000,320.251000C160.301000,320.251000,161.075000,318.967000,161.075000,315.982000Z" fill="rgb(0,0,0)" stroke="none" stroke-width="1"/><path id="e8yh6f7nvl3y156" d="M164.192000,320.029000L166.443000,320.029000L166.443000,312.474000L164.646000,312.474000L164.646000,311.672000C165.544000,311.507000,166.193000,311.273000,166.747000,310.954000L167.713000,310.954000L167.713000,320.026000L169.744000,320.026000L169.744000,321.076000L164.192000,321.076000L164.192000,320.029000L164.192000,320.029000Z" fill="rgb(0,0,0)" stroke="none" stroke-width="1"/><path id="e8yh6f7nvl3y157" d="M171.409000,317.943000C171.409000,313.814000,174.407000,311.107000,177.845000,311.107000C180.952000,311.107000,182.913000,313.179000,182.913000,316.216000C182.913000,318.908000,181.227000,320.318000,179.833000,320.318000C178.992000,320.318000,178.343000,319.931000,178.246000,319.144000L178.204000,319.144000C177.707000,319.738000,177.002000,320.206000,176.326000,320.206000C175.276000,320.206000,174.474000,319.420000,174.474000,318.011000C174.474000,316.381000,175.634000,314.435000,177.443000,314.435000C177.968000,314.435000,178.395000,314.683000,178.672000,315.195000L178.699000,315.195000L178.878000,314.560000L179.708000,314.560000L179.099000,317.638000C178.809000,318.882000,179.099000,319.449000,179.942000,319.449000C180.923000,319.449000,182.027000,318.275000,182.027000,316.271000C182.027000,313.773000,180.549000,311.950000,177.746000,311.950000C174.998000,311.950000,172.347000,314.298000,172.347000,317.902000C172.347000,320.913000,174.308000,322.625000,176.932000,322.625000C177.871000,322.625000,178.755000,322.336000,179.446000,321.936000L179.778000,322.682000C178.881000,323.221000,177.914000,323.468000,176.850000,323.468000C173.827000,323.468000,171.409000,321.535000,171.409000,317.943000ZM177.997000,318.427000L178.439000,315.969000C178.148000,315.499000,177.859000,315.321000,177.444000,315.321000C176.228000,315.321000,175.483000,316.785000,175.483000,317.944000C175.483000,318.938000,175.954000,319.340000,176.576000,319.340000C177.003000,319.338000,177.473000,319.062000,177.997000,318.427000Z" fill="rgb(0,0,0)" stroke="none" stroke-width="1"/><path id="e8yh6f7nvl3y158" d="M184.384000,322.516000C184.384000,321.880000,184.798000,321.274000,185.503000,320.817000L185.503000,320.762000C185.102000,320.528000,184.813000,320.125000,184.813000,319.533000C184.813000,318.911000,185.269000,318.415000,185.655000,318.137000L185.655000,318.081000C185.159000,317.682000,184.676000,316.963000,184.676000,316.064000C184.676000,314.419000,185.974000,313.383000,187.493000,313.383000C187.906000,313.383000,188.279000,313.482000,188.543000,313.577000L191.151000,313.577000L191.151000,314.544000L189.619000,314.544000C189.978000,314.890000,190.226000,315.440000,190.226000,316.091000C190.226000,317.693000,189.011000,318.700000,187.493000,318.700000C187.119000,318.700000,186.706000,318.602000,186.374000,318.436000C186.098000,318.671000,185.891000,318.919000,185.891000,319.333000C185.891000,319.816000,186.194000,320.148000,187.203000,320.148000L188.666000,320.148000C190.406000,320.148000,191.276000,320.700000,191.276000,321.929000C191.276000,323.325000,189.813000,324.526000,187.493000,324.526000C185.654000,324.531000,184.384000,323.812000,184.384000,322.516000ZM190.060000,322.128000C190.060000,321.438000,189.521000,321.203000,188.527000,321.203000L187.228000,321.203000C186.953000,321.203000,186.593000,321.161000,186.261000,321.078000C185.723000,321.466000,185.488000,321.906000,185.488000,322.349000C185.488000,323.150000,186.302000,323.672000,187.671000,323.672000C189.107000,323.674000,190.060000,322.916000,190.060000,322.128000ZM189.079000,316.064000C189.079000,314.974000,188.375000,314.312000,187.491000,314.312000C186.606000,314.312000,185.888000,314.959000,185.888000,316.064000C185.888000,317.156000,186.620000,317.847000,187.491000,317.847000C188.347000,317.848000,189.079000,317.156000,189.079000,316.064000Z" fill="rgb(0,0,0)" stroke="none" stroke-width="1"/><path id="e8yh6f7nvl3y159" d="M192.735000,313.580000L193.771000,313.580000L193.881000,314.670000L193.923000,314.670000C194.572000,313.952000,195.360000,313.386000,196.257000,313.386000C197.403000,313.386000,198.025000,313.940000,198.328000,314.824000C199.100000,313.983000,199.889000,313.386000,200.799000,313.386000C202.346000,313.386000,203.078000,314.408000,203.078000,316.328000L203.078000,321.078000L201.821000,321.078000L201.821000,316.494000C201.821000,315.085000,201.380000,314.491000,200.426000,314.491000C199.845000,314.491000,199.239000,314.865000,198.534000,315.637000L198.534000,321.078000L197.275000,321.078000L197.275000,316.494000C197.275000,315.085000,196.835000,314.491000,195.881000,314.491000C195.315000,314.491000,194.680000,314.865000,193.989000,315.637000L193.989000,321.078000L192.732000,321.078000L192.732000,313.580000L192.735000,313.580000Z" fill="rgb(0,0,0)" stroke="none" stroke-width="1"/><path id="e8yh6f7nvl3y160" d="M205.046000,319.132000C205.046000,317.502000,206.468000,316.688000,209.658000,316.328000C209.658000,315.361000,209.341000,314.435000,208.111000,314.435000C207.241000,314.435000,206.454000,314.834000,205.859000,315.236000L205.362000,314.367000C206.052000,313.925000,207.116000,313.387000,208.317000,313.387000C210.140000,313.387000,210.915000,314.616000,210.915000,316.466000L210.915000,321.078000L209.880000,321.078000L209.768000,320.182000L209.727000,320.182000C209.009000,320.776000,208.165000,321.258000,207.242000,321.258000C205.984000,321.258000,205.046000,320.484000,205.046000,319.132000ZM209.658000,319.255000L209.658000,317.156000C207.131000,317.461000,206.274000,318.082000,206.274000,319.049000C206.274000,319.904000,206.854000,320.251000,207.599000,320.251000C208.332000,320.251000,208.927000,319.904000,209.658000,319.255000Z" fill="rgb(0,0,0)" stroke="none" stroke-width="1"/><path id="e8yh6f7nvl3y161" d="M213.064000,311.218000C213.064000,310.708000,213.438000,310.405000,213.935000,310.405000C214.432000,310.405000,214.805000,310.710000,214.805000,311.218000C214.805000,311.688000,214.431000,312.033000,213.935000,312.033000C213.439000,312.033000,213.064000,311.688000,213.064000,311.218000ZM213.300000,313.580000L214.557000,313.580000L214.557000,321.078000L213.300000,321.078000L213.300000,313.580000Z" fill="rgb(0,0,0)" stroke="none" stroke-width="1"/><path id="e8yh6f7nvl3y162" d="M217.095000,319.587000L217.095000,310.086000L218.352000,310.086000L218.352000,319.670000C218.352000,320.057000,218.518000,320.208000,218.711000,320.208000C218.778000,320.208000,218.835000,320.208000,218.974000,320.182000L219.153000,321.149000C218.974000,321.217000,218.754000,321.258000,218.422000,321.258000C217.482000,321.258000,217.095000,320.650000,217.095000,319.587000Z" fill="rgb(0,0,0)" stroke="none" stroke-width="1"/><path id="e8yh6f7nvl3y163" d="M220.767000,320.307000C220.767000,319.740000,221.181000,319.326000,221.678000,319.326000C222.175000,319.326000,222.590000,319.740000,222.590000,320.307000C222.590000,320.872000,222.175000,321.258000,221.678000,321.258000C221.181000,321.258000,220.767000,320.872000,220.767000,320.307000Z" fill="rgb(0,0,0)" stroke="none" stroke-width="1"/><path id="e8yh6f7nvl3y164" d="M224.120000,317.336000C224.120000,314.836000,225.818000,313.386000,227.737000,313.386000C228.718000,313.386000,229.394000,313.801000,229.933000,314.270000L229.285000,315.114000C228.842000,314.715000,228.388000,314.436000,227.778000,314.436000C226.424000,314.436000,225.431000,315.612000,225.431000,317.336000C225.431000,319.063000,226.369000,320.208000,227.751000,320.208000C228.439000,320.208000,229.049000,319.891000,229.519000,319.463000L230.057000,320.307000C229.394000,320.913000,228.538000,321.258000,227.640000,321.258000C225.653000,321.258000,224.120000,319.820000,224.120000,317.336000Z" fill="rgb(0,0,0)" stroke="none" stroke-width="1"/><path id="e8yh6f7nvl3y165" d="M230.814000,317.336000C230.814000,314.836000,232.459000,313.386000,234.293000,313.386000C236.130000,313.386000,237.773000,314.836000,237.773000,317.336000C237.773000,319.820000,236.128000,321.258000,234.293000,321.258000C232.458000,321.258000,230.814000,319.820000,230.814000,317.336000ZM236.477000,317.336000C236.477000,315.609000,235.593000,314.436000,234.294000,314.436000C232.996000,314.436000,232.126000,315.612000,232.126000,317.336000C232.126000,319.063000,232.996000,320.208000,234.294000,320.208000C235.593000,320.208000,236.477000,319.062000,236.477000,317.336000Z" fill="rgb(0,0,0)" stroke="none" stroke-width="1"/><path id="e8yh6f7nvl3y166" d="M239.745000,313.580000L240.780000,313.580000L240.889000,314.670000L240.931000,314.670000C241.581000,313.952000,242.369000,313.386000,243.266000,313.386000C244.412000,313.386000,245.035000,313.940000,245.337000,314.824000C246.109000,313.983000,246.898000,313.386000,247.809000,313.386000C249.356000,313.386000,250.088000,314.408000,250.088000,316.328000L250.088000,321.078000L248.832000,321.078000L248.832000,316.494000C248.832000,315.085000,248.390000,314.491000,247.436000,314.491000C246.855000,314.491000,246.248000,314.865000,245.544000,315.637000L245.544000,321.078000L244.287000,321.078000L244.287000,316.494000C244.287000,315.085000,243.846000,314.491000,242.892000,314.491000C242.327000,314.491000,241.690000,314.865000,241,315.637000L241,321.078000L239.744000,321.078000L239.744000,313.580000L239.745000,313.580000Z" fill="rgb(0,0,0)" stroke="none" stroke-width="1"/></g></g></g></g></g></g></svg>