<svg id="eutly7atnunj1" xmlns="http://www.w3.org/2000/svg" xmlns:xlink="http://www.w3.org/1999/xlink" viewBox="0 0 345 360" shape-rendering="geometricPrecision" text-rendering="geometricPrecision"><style><![CDATA[#eutly7atnunj88_tr {animation: eutly7atnunj88_tr__tr 3000ms linear infinite normal forwards}@keyframes eutly7atnunj88_tr__tr { 0% {transform: translate(176.513153px,277.203354px) rotate(-3.800000deg)} 46.666667% {transform: translate(176.513153px,277.203354px) rotate(-3.800000deg)} 60% {transform: translate(176.513153px,277.203354px) rotate(2.100000deg)} 73.333333% {transform: translate(176.513153px,277.203354px) rotate(-3.800000deg)} 86.666667% {transform: translate(176.513153px,277.203354px) rotate(-3.800000deg)} 100% {transform: translate(176.513153px,277.203354px) rotate(-3.849590deg)} }#eutly7atnunj126_tr {animation: eutly7atnunj126_tr__tr 3000ms linear infinite normal forwards}@keyframes eutly7atnunj126_tr__tr { 0% {transform: translate(179.079000px,128.139703px) rotate(-1.800000deg)} 23.333333% {transform: translate(179.079000px,128.139703px) rotate(-1.800000deg)} 36.666667% {transform: translate(179.079000px,128.139703px) rotate(2.400000deg)} 50% {transform: translate(179.079000px,128.139703px) rotate(-1.800000deg)} 100% {transform: translate(179.079000px,128.139703px) rotate(-1.800000deg)} }#eutly7atnunj143_ts {animation: eutly7atnunj143_ts__ts 3000ms linear infinite normal forwards}@keyframes eutly7atnunj143_ts__ts { 0% {transform: translate(184.669246px,89.678649px) scale(1,1)} 33.333333% {transform: translate(184.669246px,89.678649px) scale(1,1)} 46.666667% {transform: translate(184.669246px,89.678649px) scale(1,0.284106)} 60% {transform: translate(184.669246px,89.678649px) scale(1,1)} 100% {transform: translate(184.669246px,89.678649px) scale(1,1)} }]]></style><defs><path id="eutly7atnunj2" d="M205.087000,227.413000C199.612000,223.250000,194.392000,219.281000,193.487000,218.594000C192.582000,217.906000,196.639000,217.343000,202.502000,217.343000C208.366000,217.343000,208.927000,213.637000,203.751000,209.106000L201.341000,206.999000C196.164000,202.469000,191.286000,198.199000,190.499000,197.512000C189.712000,196.824000,192.953000,196.261000,197.698000,196.261000C202.444000,196.261000,202.432000,192.198000,197.673000,187.233000L197.168000,186.708000C192.407000,181.742000,186.952000,176.052000,185.044000,174.063000C183.136000,172.073000,184.261000,170.446000,187.545000,170.446000C190.828000,170.446000,190.948000,167.330000,187.811000,163.522000C184.673000,159.712000,179.540000,153.482000,176.402000,149.674000C173.265000,145.866000,168.131000,145.866000,164.993000,149.674000C161.855000,153.482000,156.721000,159.712000,153.584000,163.522000C150.447000,167.330000,150.566000,170.446000,153.850000,170.446000C157.132000,170.446000,158.258000,172.073000,156.350000,174.063000C154.442000,176.051000,148.987000,181.742000,144.226000,186.708000L143.723000,187.233000C138.963000,192.198000,138.951000,196.261000,143.696000,196.261000C148.441000,196.261000,151.681000,196.823000,150.895000,197.512000C150.108000,198.200000,145.230000,202.469000,140.055000,206.999000L137.645000,209.106000C132.469000,213.637000,133.031000,217.343000,138.893000,217.343000C144.756000,217.343000,148.813000,217.905000,147.908000,218.594000C147.003000,219.282000,141.783000,223.250000,136.307000,227.413000L131.782000,230.854000C126.307000,235.017000,127.455000,238.424000,134.333000,238.424000L158.192000,238.424000C165.070000,238.424000,176.327000,238.424000,183.205000,238.424000L207.064000,238.424000C213.942000,238.424000,215.090000,235.017000,209.615000,230.854000L205.087000,227.413000Z"/><rect id="eutly7atnunj3" width="8.838000" height="112.832000" rx="0" ry="0"/><rect id="eutly7atnunj4" width="7.440000" height="94.976000" rx="0" ry="0"/><path id="eutly7atnunj5" d="M195.437000,225.795000C200.912000,221.632000,206.132000,217.662000,207.037000,216.975000C207.942000,216.287000,203.885000,215.723000,198.022000,215.723000C192.158000,215.723000,191.597000,212.018000,196.773000,207.489000L199.183000,205.379000C204.360000,200.850000,209.238000,196.580000,210.024000,195.893000C210.811000,195.205000,207.571000,194.642000,202.825000,194.642000C198.079000,194.642000,198.091000,190.580000,202.852000,185.615000L203.356000,185.089000C208.117000,180.125000,213.572000,174.435000,215.480000,172.444000C217.388000,170.455000,216.263000,168.828000,212.980000,168.828000C209.697000,168.828000,209.577000,165.712000,212.714000,161.903000C215.851000,158.094000,220.985000,151.864000,224.122000,148.055000C227.260000,144.247000,232.395000,144.247000,235.532000,148.055000C238.670000,151.864000,243.804000,158.094000,246.941000,161.903000C250.078000,165.712000,249.959000,168.828000,246.676000,168.828000C243.393000,168.828000,242.268000,170.455000,244.175000,172.444000C246.083000,174.434000,251.538000,180.125000,256.299000,185.089000L256.803000,185.615000C261.563000,190.580000,261.575000,194.642000,256.829000,194.642000C252.084000,194.642000,248.844000,195.204000,249.630000,195.893000C250.417000,196.581000,255.295000,200.850000,260.471000,205.379000L262.881000,207.489000C268.057000,212.018000,267.495000,215.723000,261.632000,215.723000C255.769000,215.723000,251.713000,216.286000,252.618000,216.975000C253.523000,217.663000,258.743000,221.632000,264.219000,225.795000L268.744000,229.235000C274.220000,233.398000,273.071000,236.805000,266.193000,236.805000L242.334000,236.805000C235.456000,236.805000,224.201000,236.805000,217.321000,236.805000L193.463000,236.805000C186.584000,236.805000,185.437000,233.398000,190.912000,229.235000L195.437000,225.795000Z"/><path id="eutly7atnunj6" d="M114.401000,209.235000C118.922000,205.797000,123.234000,202.518000,123.979000,201.951000C124.727000,201.383000,121.376000,200.917000,116.535000,200.917000C111.693000,200.917000,111.230000,197.857000,115.505000,194.117000L117.495000,192.376000C121.770000,188.635000,125.798000,185.111000,126.446000,184.541000C127.096000,183.973000,124.422000,183.509000,120.503000,183.509000C116.584000,183.509000,116.592000,180.155000,120.524000,176.055000L120.940000,175.621000C124.872000,171.519000,129.377000,166.820000,130.952000,165.179000C132.528000,163.535000,131.599000,162.192000,128.887000,162.192000C126.175000,162.192000,126.076000,159.619000,128.668000,156.474000C131.259000,153.329000,135.498000,148.184000,138.088000,145.038000C140.680000,141.893000,144.919000,141.893000,147.510000,145.038000C150.101000,148.184000,154.341000,153.329000,156.931000,156.474000C159.522000,159.619000,159.423000,162.192000,156.712000,162.192000C154.002000,162.192000,153.072000,163.536000,154.647000,165.179000C156.222000,166.821000,160.727000,171.520000,164.659000,175.621000L165.074000,176.055000C169.006000,180.155000,169.015000,183.509000,165.096000,183.509000C161.178000,183.509000,158.503000,183.973000,159.152000,184.541000C159.802000,185.111000,163.830000,188.635000,168.104000,192.376000L170.094000,194.117000C174.368000,197.857000,173.905000,200.917000,169.063000,200.917000C164.222000,200.917000,160.872000,201.383000,161.619000,201.951000C162.367000,202.518000,166.677000,205.797000,171.199000,209.235000L174.936000,212.077000C179.457000,215.514000,178.509000,218.328000,172.829000,218.328000L153.127000,218.328000C147.446000,218.328000,138.151000,218.328000,132.471000,218.328000L112.770000,218.328000C107.091000,218.328000,106.142000,215.514000,110.664000,212.077000L114.401000,209.235000Z"/><path id="eutly7atnunj7" d="M138.100000,161.974000C169.479000,152.195000,160.922000,119.797000,160.922000,119.797000L175.388000,118.031000L175.388000,117.758000L176.509000,117.895000L177.630000,117.758000L177.630000,118.031000L192.096000,119.797000C192.096000,119.797000,183.538000,152.194000,214.918000,161.974000C246.297000,171.756000,253.428000,181.536000,255.874000,220.251000L177.630000,220.251000L175.388000,220.251000L97.144000,220.251000C99.588000,181.535000,106.721000,171.756000,138.100000,161.974000Z"/><path id="eutly7atnunj8" d="M134.091000,163.908000C165.470000,154.127000,156.912000,121.729000,156.912000,121.729000L171.380000,119.964000L171.380000,119.691000L172.501000,119.828000L173.621000,119.691000L173.621000,119.964000L188.089000,121.729000C188.089000,121.729000,179.531000,154.126000,210.910000,163.908000C242.289000,173.689000,249.421000,183.469000,251.867000,222.183000L173.620000,222.183000L171.380000,222.183000L93.135000,222.183000C95.581000,183.469000,102.712000,173.689000,134.091000,163.908000Z"/><path id="eutly7atnunj9" d="M210.909000,169.258000C179.530000,159.477000,188.087000,127.079000,188.087000,127.079000L173.620000,125.315000L173.620000,125.042000L172.499000,125.179000L171.378000,125.042000L171.378000,125.315000L156.911000,127.079000C156.911000,127.079000,165.468000,159.476000,134.089000,169.258000C102.710000,179.038000,95.578000,188.819000,93.132000,227.533000L171.377000,227.533000L173.618000,227.533000L251.863000,227.533000C249.420000,188.818000,242.288000,179.038000,210.909000,169.258000Z"/><path id="eutly7atnunj10" d="M210.909000,169.258000C210.345000,169.081000,209.798000,168.897000,209.259000,168.708000C187.710000,184.703000,157.021000,181.925000,134.176000,169.229000C134.147000,169.239000,134.120000,169.249000,134.091000,169.257000C102.712000,179.037000,95.580000,188.818000,93.134000,227.532000L171.379000,227.532000L173.620000,227.532000L251.865000,227.532000C249.420000,188.818000,242.288000,179.038000,210.909000,169.258000Z"/><path id="eutly7atnunj11" d="M134.092000,169.121000C165.471000,159.341000,156.912000,126.941000,156.912000,126.941000L171.381000,125.177000L171.381000,124.904000L172.502000,125.041000L173.621000,124.904000L173.621000,125.177000L188.090000,126.941000C188.090000,126.941000,179.531000,159.340000,210.910000,169.121000C242.291000,178.900000,249.421000,188.682000,251.867000,227.395000L173.620000,227.395000L171.381000,227.395000L93.135000,227.395000C95.581000,188.682000,102.711000,178.900000,134.092000,169.121000Z"/><path id="eutly7atnunj12" d="M210.908000,169.121000C206.685000,167.804000,203.190000,166.075000,200.296000,164.074000C191.923000,174.978000,162.389000,183.995000,143.673000,164.758000C140.989000,166.469000,137.825000,167.957000,134.091000,169.121000C102.710000,178.900000,95.580000,188.682000,93.134000,227.395000L171.379000,227.395000L173.620000,227.395000L251.863000,227.395000C249.419000,188.682000,242.289000,178.900000,210.908000,169.121000Z"/><path id="eutly7atnunj13" d="M210.908000,156.902000C179.529000,147.122000,188.088000,114.722000,188.088000,114.722000L173.619000,112.958000L173.619000,112.685000L172.498000,112.822000L171.377000,112.685000L171.377000,112.958000L156.910000,114.722000C156.910000,114.722000,165.469000,147.121000,134.088000,156.902000C102.709000,166.681000,95.579000,176.463000,93.133000,215.176000L171.376000,215.176000L173.617000,215.176000L251.862000,215.176000C249.419000,176.463000,242.289000,166.682000,210.908000,156.902000Z"/><path id="eutly7atnunj14" d="M161.718000,97.557000C163.495000,97.698000,165.259000,97.241000,166.740000,96.248000C168.903000,94.798000,172.326000,93.182000,175.553000,94.537000C180.810000,96.744000,180.983000,108.893000,167.106000,109.836000C153.983000,110.729000,155.027000,100.852000,156.731000,98.557000C157.880000,97.008000,160.154000,97.433000,161.718000,97.557000Z"/><path id="eutly7atnunj15" d="M129.954000,165.566000C161.333000,155.785000,152.775000,123.387000,152.775000,123.387000L167.242000,121.622000L167.242000,121.350000L168.363000,121.487000L169.484000,121.350000L169.484000,121.622000L183.951000,123.387000C183.951000,123.387000,175.394000,155.784000,206.773000,165.566000C238.152000,175.346000,245.284000,185.127000,247.730000,223.841000L169.485000,223.841000L167.244000,223.841000L89,223.841000C91.443000,185.127000,98.575000,175.347000,129.954000,165.566000Z"/><path id="eutly7atnunj16" d="M130.859000,166.869000C162.238000,157.089000,153.681000,124.690000,153.681000,124.690000L168.148000,122.925000L168.148000,122.653000L169.269000,122.790000L170.390000,122.653000L170.390000,122.925000L184.857000,124.690000C184.857000,124.690000,176.298000,157.088000,207.678000,166.869000C239.057000,176.649000,246.187000,186.431000,248.633000,225.144000L170.390000,225.144000L168.149000,225.144000L89.902000,225.144000C92.348000,186.431000,99.480000,176.649000,130.859000,166.869000Z"/><path id="eutly7atnunj17" d="M180.049000,109.525000C178.272000,109.667000,176.507000,109.209000,175.027000,108.217000C172.864000,106.767000,169.441000,105.151000,166.214000,106.505000C160.957000,108.713000,160.784000,120.862000,174.662000,121.807000C187.787000,122.699000,186.741000,112.821000,185.037000,110.526000C183.887000,108.976000,181.613000,109.401000,180.049000,109.525000Z"/></defs><g id="eutly7atnunj18"><circle id="eutly7atnunj19" r="168.603000" transform="matrix(1 0 0 1 172.50000000000000 172.02500000000001)" fill="rgb(36,164,163)" stroke="none" stroke-width="1"/><g id="eutly7atnunj20"><g id="eutly7atnunj21"><g id="eutly7atnunj22" clip-path="url(#eutly7atnunj81)"><path id="eutly7atnunj23" d="M138.100000,161.974000C169.479000,152.195000,160.922000,119.797000,160.922000,119.797000L175.388000,118.031000L175.388000,117.758000L176.509000,117.895000L177.630000,117.758000L177.630000,118.031000L192.096000,119.797000C192.096000,119.797000,183.538000,152.194000,214.918000,161.974000C246.297000,171.756000,253.428000,181.536000,255.874000,220.251000L177.630000,220.251000L175.388000,220.251000L97.144000,220.251000C99.588000,181.535000,106.721000,171.756000,138.100000,161.974000Z" fill="rgb(252,202,160)" stroke="none" stroke-width="1"/><g id="eutly7atnunj24"><path id="eutly7atnunj25" d="M161.942000,127.478000C161.740000,122.901000,160.921000,119.797000,160.921000,119.797000L175.387000,118.031000L175.387000,117.758000L176.508000,117.895000L177.629000,117.758000L177.629000,118.031000L192.095000,119.797000C192.095000,119.797000,190.698000,125.088000,191.104000,132.039000C187.930000,138.521000,176.508000,147.507000,161.942000,127.478000Z" fill="rgb(230,161,101)" stroke="none" stroke-width="1"/><g id="eutly7atnunj26"><g id="eutly7atnunj27"><g id="eutly7atnunj28"><g id="eutly7atnunj29"><path id="eutly7atnunj30" d="M162.530000,127.050000C162.426000,127.067000,162.269000,127.214000,162.379000,127.292000L162.725000,127.150000L162.530000,127.050000Z" fill="rgb(233,173,121)" stroke="none" stroke-width="1"/><path id="eutly7atnunj31" d="M162.500000,128.137000C162.731000,128.153000,163.080000,128.104000,163.287000,127.826000C162.921000,127.917000,163.016000,127.802000,162.588000,127.922000C162.478000,127.845000,162.548000,127.674000,162.668000,127.612000C162.567000,127.631000,162.615000,127.406000,162.391000,127.484000C162.263000,127.785000,162.380000,127.963000,162.698000,128C162.663000,128.085000,162.560000,128.105000,162.500000,128.137000Z" fill="rgb(233,173,121)" stroke="none" stroke-width="1"/><path id="eutly7atnunj32" d="M171.005000,137.403000L170.960000,137.321000C170.966000,137.354000,170.982000,137.380000,171.005000,137.403000Z" fill="rgb(233,173,121)" stroke="none" stroke-width="1"/><path id="eutly7atnunj33" d="M178.403000,140.419000C178.340000,140.421000,178.311000,140.455000,178.304000,140.487000C178.365000,140.469000,178.414000,140.451000,178.403000,140.419000Z" fill="rgb(233,173,121)" stroke="none" stroke-width="1"/><path id="eutly7atnunj34" d="M179.815000,140.868000C179.783000,140.859000,179.757000,140.852000,179.729000,140.845000C179.762000,140.878000,179.796000,140.896000,179.815000,140.868000Z" fill="rgb(233,173,121)" stroke="none" stroke-width="1"/><path id="eutly7atnunj35" d="M171.005000,137.403000L171.121000,137.614000C171.198000,137.523000,171.077000,137.481000,171.005000,137.403000Z" fill="rgb(233,173,121)" stroke="none" stroke-width="1"/><path id="eutly7atnunj36" d="M164.238000,128.958000C164.198000,128.936000,164.149000,128.930000,164.094000,128.931000C164.128000,128.950000,164.159000,128.967000,164.189000,128.989000L164.238000,128.958000Z" fill="rgb(233,173,121)" stroke="none" stroke-width="1"/><path id="eutly7atnunj37" d="M168.043000,135.507000L167.994000,135.465000C167.952000,135.484000,167.906000,135.509000,167.857000,135.540000L168.043000,135.507000Z" fill="rgb(233,173,121)" stroke="none" stroke-width="1"/><path id="eutly7atnunj38" d="M166.045000,133.704000C166.079000,133.756000,166.312000,133.555000,166.423000,133.476000C166.310000,133.541000,166.235000,133.552000,166.181000,133.532000C166.139000,133.572000,166.095000,133.626000,166.045000,133.704000Z" fill="rgb(233,173,121)" stroke="none" stroke-width="1"/><path id="eutly7atnunj39" d="M163.637000,130.196000L163.557000,130.165000C163.579000,130.172000,163.609000,130.189000,163.637000,130.196000Z" fill="rgb(233,173,121)" stroke="none" stroke-width="1"/><path id="eutly7atnunj40" d="M169.503000,136.779000C169.479000,136.818000,169.463000,136.855000,169.456000,136.882000C169.479000,136.851000,169.494000,136.815000,169.503000,136.779000Z" fill="rgb(233,173,121)" stroke="none" stroke-width="1"/><path id="eutly7atnunj41" d="M163.142000,124.283000C163.120000,124.286000,163.106000,124.288000,163.088000,124.290000C163.121000,124.303000,163.142000,124.305000,163.142000,124.283000Z" fill="rgb(233,173,121)" stroke="none" stroke-width="1"/><polygon id="eutly7atnunj42" points="161.863000,127.481000 161.844000,127.439000 161.672000,127.438000" fill="rgb(233,173,121)" stroke="none" stroke-width="1"/><path id="eutly7atnunj43" d="M182.542000,140.915000C182.536000,140.914000,182.535000,140.913000,182.530000,140.912000C182.467000,140.962000,182.505000,140.948000,182.542000,140.915000Z" fill="rgb(233,173,121)" stroke="none" stroke-width="1"/><path id="eutly7atnunj44" d="M192.941000,121.980000C192.628000,122.175000,192.663000,121.524000,192.298000,121.836000C192.422000,121.825000,192.713000,122.251000,192.941000,121.980000Z" fill="rgb(233,173,121)" stroke="none" stroke-width="1"/><path id="eutly7atnunj45" d="M164.248000,129.036000C164.273000,129.061000,164.297000,129.087000,164.317000,129.117000C164.294000,129.073000,164.273000,129.048000,164.248000,129.036000Z" fill="rgb(233,173,121)" stroke="none" stroke-width="1"/><path id="eutly7atnunj46" d="M192.298000,121.837000L192.296000,121.837000L192.261000,121.870000C192.276000,121.856000,192.285000,121.849000,192.298000,121.837000Z" fill="rgb(233,173,121)" stroke="none" stroke-width="1"/><path id="eutly7atnunj47" d="M187.975000,137.987000C187.931000,137.953000,187.887000,137.936000,187.842000,137.922000C187.863000,137.945000,187.898000,137.966000,187.975000,137.987000Z" fill="rgb(233,173,121)" stroke="none" stroke-width="1"/><path id="eutly7atnunj48" d="M183.864000,139.862000L183.982000,139.861000C183.931000,139.851000,183.895000,139.854000,183.864000,139.862000Z" fill="rgb(233,173,121)" stroke="none" stroke-width="1"/><path id="eutly7atnunj49" d="M189.369000,136.083000C189.427000,136.056000,189.472000,136.069000,189.496000,135.980000C189.479000,135.976000,189.466000,135.973000,189.452000,135.973000C189.463000,136.023000,189.452000,136.066000,189.369000,136.083000Z" fill="rgb(233,173,121)" stroke="none" stroke-width="1"/><polygon id="eutly7atnunj50" points="190.847000,134.219000 190.771000,134.220000 190.742000,134.291000" fill="rgb(233,173,121)" stroke="none" stroke-width="1"/><path id="eutly7atnunj51" d="M163.198000,120.804000C163.138000,120.725000,163.094000,120.634000,163.059000,120.544000C163.122000,120.756000,162.804000,120.876000,163.198000,120.804000Z" fill="rgb(233,173,121)" stroke="none" stroke-width="1"/><path id="eutly7atnunj52" d="M164.104000,129.067000C164.173000,129.029000,164.214000,129.019000,164.248000,129.036000L164.189000,128.988000C164.150000,129.012000,164.115000,129.038000,164.104000,129.067000Z" fill="rgb(233,173,121)" stroke="none" stroke-width="1"/><path id="eutly7atnunj53" d="M187.641000,134.379000L187.890000,134.169000C187.808000,134.218000,187.719000,134.294000,187.641000,134.379000Z" fill="rgb(233,173,121)" stroke="none" stroke-width="1"/><path id="eutly7atnunj54" d="M178.896000,119.323000L178.809000,119.348000C178.839000,119.360000,178.870000,119.354000,178.896000,119.323000Z" fill="rgb(233,173,121)" stroke="none" stroke-width="1"/><path id="eutly7atnunj55" d="M188.455000,133.397000C188.576000,133.417000,188.664000,133.405000,188.734000,133.376000C188.722000,133.352000,188.715000,133.327000,188.692000,133.299000L188.455000,133.397000Z" fill="rgb(233,173,121)" stroke="none" stroke-width="1"/><path id="eutly7atnunj56" d="M163.058000,120.541000L163.059000,120.544000L163.058000,120.541000Z" fill="rgb(233,173,121)" stroke="none" stroke-width="1"/><path id="eutly7atnunj57" d="M163.017000,121.287000C162.661000,121.047000,162.507000,120.942000,162.273000,120.785000C162.263000,120.770000,162.254000,120.759000,162.249000,120.751000C162.272000,120.666000,162.663000,121.017000,162.887000,121.175000C162.777000,121.082000,162.519000,120.742000,162.609000,120.746000C162.662000,120.806000,162.688000,120.827000,162.735000,120.904000C162.655000,120.753000,162.731000,120.739000,162.793000,120.716000C162.877000,120.691000,162.876000,120.666000,163.005000,120.445000C163.032000,120.477000,163.049000,120.509000,163.059000,120.540000C162.982000,120.345000,162.948000,120.143000,162.939000,119.996000C163.089000,119.969000,163.187000,119.706000,163.278000,119.960000C163.184000,119.965000,163.190000,120.071000,163.157000,120.159000L163.301000,120.024000C163.493000,120.381000,163.101000,120.182000,163.138000,120.462000C163.431000,120.299000,163.751000,119.940000,164.002000,120.015000C164.100000,120.377000,163.464000,120.212000,163.823000,120.497000L163.438000,120.404000C163.794000,120.949000,163.209000,120.393000,163.549000,120.981000C164.046000,121.024000,164.064000,120.722000,164.560000,120.766000C164.641000,120.547000,164.484000,120.468000,164.566000,120.249000C165.202000,119.791000,165.227000,121.103000,165.665000,120.547000C165.763000,120.285000,165.753000,119.813000,166.144000,120.011000L166.076000,120.445000C166.549000,120.424000,166.264000,119.811000,166.790000,120.027000C166.725000,120.202000,166.441000,120.213000,166.519000,120.254000C166.879000,120.540000,166.712000,119.988000,166.956000,119.956000L167.055000,120.317000C167.545000,120.194000,168.058000,119.856000,168.601000,119.715000C168.584000,119.829000,168.505000,119.957000,168.649000,120.053000C169.320000,119.777000,170.139000,119.903000,170.838000,120.032000L171.052000,119.681000C171.112000,119.676000,171.181000,119.810000,171.125000,119.880000C171.402000,119.966000,171.112000,119.676000,171.221000,119.534000C171.367000,119.492000,171.442000,119.691000,171.360000,119.799000C171.786000,119.469000,172.597000,119.045000,173.128000,119.322000L173.046000,119.428000C173.441000,119.508000,173.387000,118.720000,173.777000,118.971000L173.717000,119.036000C174.023000,119.047000,174.333000,118.999000,174.636000,118.953000C174.788000,118.933000,174.938000,118.913000,175.085000,118.893000C175.212000,118.882000,175.428000,118.867000,175.452000,118.891000C175.474000,118.912000,175.589000,118.940000,175.685000,118.980000C175.780000,119.020000,175.871000,119.072000,175.957000,119.137000C176.077000,118.675000,176.776000,119.343000,176.830000,118.699000C177.034000,118.837000,177.124000,118.936000,177.219000,119.022000C177.266000,119.066000,177.314000,119.105000,177.378000,119.144000C177.441000,119.184000,177.544000,119.222000,177.539000,119.264000C177.552000,119.292000,177.528000,119.318000,177.642000,119.363000C177.814000,119.416000,177.957000,118.998000,178.184000,118.960000L178.145000,119.296000L178.487000,118.984000L178.592000,119.405000L178.807000,119.345000C178.729000,119.315000,178.654000,119.172000,178.679000,119.078000C179.018000,118.969000,179.427000,119.413000,179.413000,119.585000L180.206000,119.402000C180.171000,119.534000,180.039000,119.563000,179.927000,119.635000C180.376000,119.348000,179.954000,119.997000,180.365000,119.734000C180.326000,119.651000,180.418000,119.539000,180.435000,119.471000C180.593000,119.698000,181.013000,119.754000,181.333000,119.710000L181.243000,119.933000C181.796000,120.065000,182.440000,119.977000,183.068000,120.065000C182.857000,119.928000,182.961000,119.536000,183.151000,119.521000L183.179000,119.883000C183.326000,119.681000,183.004000,119.725000,183.283000,119.490000C183.513000,119.561000,183.388000,119.912000,183.238000,120.010000L183.540000,119.925000C183.543000,120.032000,183.469000,120.079000,183.434000,120.211000C183.580000,120.007000,183.881000,120.631000,184.100000,120.272000L184.103000,120.379000C184.731000,120.465000,185.033000,120.380000,185.547000,120.430000C185.597000,120.127000,185.789000,120.221000,185.974000,119.994000C186.338000,120.141000,186.724000,120.435000,187.182000,120.470000C187.521000,120.360000,187.309000,120.224000,187.476000,120.062000C187.463000,120.342000,187.919000,120.375000,187.659000,120.545000C188.209000,120.570000,188.362000,120.580000,189.080000,120.445000C189.020000,120.321000,188.942000,120.260000,188.998000,120.172000C189.129000,120.144000,189.267000,120.326000,189.231000,120.457000L189.195000,120.481000C189.402000,120.403000,189.610000,120.428000,189.817000,120.503000C189.902000,120.538000,190.065000,120.597000,190.085000,120.641000C190.118000,120.688000,190.143000,120.739000,190.159000,120.787000C190.240000,120.982000,190.086000,121.127000,190.446000,120.880000L190.409000,120.904000C190.505000,120.853000,190.659000,120.778000,190.674000,120.811000C190.734000,120.788000,190.793000,120.770000,190.850000,120.757000C190.769000,120.898000,190.618000,120.850000,190.400000,121.041000C190.652000,120.960000,190.604000,121.105000,190.552000,121.182000C190.525000,121.226000,190.494000,121.262000,190.489000,121.298000C190.486000,121.317000,190.489000,121.335000,190.502000,121.357000C190.508000,121.368000,190.516000,121.378000,190.528000,121.390000C190.538000,121.425000,190.548000,121.462000,190.558000,121.501000C189.659000,121.815000,190.356000,123.107000,189.763000,123.647000L189.961000,123.635000C190.131000,123.816000,189.827000,123.813000,189.769000,123.925000C189.921000,123.926000,189.963000,123.774000,190.057000,123.885000C190.131000,125.241000,189.506000,126.619000,189.288000,128.014000C189.220000,128.523000,190.286000,128.325000,189.809000,128.952000L189.451000,128.765000C189.660000,129.281000,189.657000,129.799000,189.655000,130.320000C189.654000,130.579000,189.651000,130.839000,189.678000,131.094000C189.700000,131.321000,189.760000,131.693000,189.852000,131.685000C189.768000,131.662000,189.659000,131.658000,189.660000,131.639000C189.410000,131.662000,189.641000,131.742000,189.818000,131.864000C189.774000,131.894000,189.636000,131.794000,189.529000,131.761000C189.333000,131.800000,189.602000,132.316000,189.330000,132.260000C189.285000,132.252000,189.284000,132.172000,189.283000,132.133000C189.334000,132.302000,188.964000,132.589000,189.281000,132.654000C188.985000,132.853000,189.040000,133.260000,188.737000,133.371000C188.906000,133.717000,188.264000,133.724000,188.604000,134.063000C188.233000,133.740000,187.929000,134.257000,187.955000,134.569000C187.891000,134.417000,187.717000,134.600000,187.620000,134.399000C187.468000,134.578000,187.381000,134.796000,187.592000,134.945000C186.874000,134.837000,187.273000,135.919000,186.576000,135.518000C186.222000,136.178000,185.786000,136.722000,185.294000,137.164000C185.054000,136.741000,185.867000,136.730000,185.547000,136.317000C185.181000,136.818000,185.088000,137.372000,184.490000,137.556000C184.320000,137.569000,184.470000,137.325000,184.474000,137.227000C184.034000,137.694000,183.423000,137.690000,183.015000,138.119000C183.001000,138.075000,183.039000,138.009000,183.077000,137.955000C182.984000,138.006000,182.825000,137.969000,182.908000,138.176000L182.986000,138.084000C183.263000,138.335000,182.797000,138.867000,182.818000,139.036000C182.810000,138.371000,182.239000,139.034000,182.302000,138.173000C182.247000,138.232000,182.191000,138.357000,182.244000,138.497000C182.132000,138.482000,182.080000,138.404000,182.137000,138.214000C181.805000,138.422000,181.987000,138.624000,181.644000,138.693000C181.623000,138.587000,181.684000,138.531000,181.691000,138.399000C181.568000,138.641000,181.426000,138.885000,181.118000,138.839000C181.125000,138.772000,181.080000,138.693000,181.166000,138.681000C180.685000,138.786000,180.357000,139.352000,179.770000,139.161000C179.926000,138.688000,179.575000,139.010000,179.546000,138.600000L179.251000,138.717000L179.366000,138.918000C179.107000,138.906000,178.852000,139.189000,178.631000,139.037000L178.841000,138.884000L178.340000,138.917000L178.607000,139.100000C178.315000,139.283000,178.590000,139.620000,178.234000,139.466000C178.314000,139.436000,177.955000,139.429000,177.850000,139.168000L177.851000,139.167000C177.698000,139.275000,177.534000,139.388000,177.350000,139.250000C177.323000,139.113000,177.475000,138.814000,177.458000,138.723000C177.263000,139.035000,176.827000,138.689000,176.577000,138.996000C176.653000,138.927000,176.707000,138.720000,176.701000,138.673000L176.525000,138.914000C176.424000,138.795000,176.419000,138.749000,176.483000,138.590000C176.134000,138.440000,176.460000,139.123000,176.086000,138.783000C176.126000,138.771000,176.122000,138.727000,176.204000,138.708000C175.808000,138.471000,175.311000,138.609000,174.966000,138.328000C175.002000,137.901000,175.340000,138.362000,175.333000,137.988000C174.765000,137.857000,174.002000,137.974000,173.519000,137.619000L173.596000,137.709000C173.259000,138.188000,173.337000,137.257000,172.953000,137.355000C173.037000,137.353000,173.191000,137.119000,173.142000,137.167000C172.841000,136.895000,172.367000,136.894000,171.751000,136.714000L171.895000,136.630000C171.768000,136.391000,171.416000,136.226000,171.246000,136.022000C171.099000,136.101000,170.992000,135.997000,170.940000,136.225000C170.801000,135.087000,169.439000,135.674000,169.337000,134.664000C169.403000,134.717000,169.574000,134.693000,169.523000,134.650000L168.978000,134.366000C168.849000,134.588000,168.938000,134.533000,168.906000,134.764000C168.750000,134.827000,168.543000,134.803000,168.429000,134.702000C168.745000,134.758000,168.694000,134.394000,168.700000,134.212000C168.663000,134.283000,168.576000,134.321000,168.532000,134.387000C168.595000,133.841000,168.152000,134.730000,168.032000,134.212000L168.139000,134.130000C167.973000,134.070000,167.745000,134.096000,167.641000,133.948000C167.789000,133.685000,167.862000,133.967000,168.034000,133.798000C167.844000,133.647000,167.300000,133.866000,167.341000,133.501000C167.472000,133.517000,167.583000,133.618000,167.714000,133.632000C167.777000,133.217000,167.697000,133.263000,167.607000,133.098000L167.614000,133.116000L167.430000,132.717000L167.438000,132.857000C166.682000,133.179000,166.900000,132.515000,166.255000,132.561000C166.876000,132.527000,166.498000,132.420000,166.759000,132.214000C166.753000,132.073000,166.718000,131.888000,166.817000,131.857000C166.488000,131.900000,166.751000,131.479000,166.278000,131.545000C166.348000,131.464000,166.145000,131.385000,166.372000,131.237000C166.143000,131.107000,166.275000,131.405000,166.162000,131.480000C165.627000,131.434000,165.882000,130.508000,165.141000,130.412000C164.671000,130.177000,164.337000,130.338000,163.908000,130.099000C163.943000,129.872000,164.288000,129.950000,164.288000,129.950000C164.253000,129.660000,164.115000,129.535000,163.874000,129.431000C163.975000,129.410000,164.007000,129.322000,164.056000,129.192000C163.919000,129.064000,163.675000,129.337000,163.646000,129.046000C163.765000,129.005000,163.948000,128.930000,164.097000,128.925000C163.884000,128.817000,163.595000,128.769000,163.379000,128.648000C163.489000,128.487000,163.686000,128.584000,163.830000,128.572000C163.608000,128.424000,163.296000,128.154000,163.013000,128.269000L163.030000,128.462000C162.962000,128.397000,163.201000,128.272000,163.285000,128.293000C163.600000,128.326000,163.396000,128.605000,163.320000,128.681000L163.167000,128.594000C162.773000,129.109000,163.647000,129.049000,163.821000,129.323000L163.380000,129.500000L163.884000,129.527000C163.837000,129.657000,163.670000,129.854000,163.515000,129.770000C163.489000,130.095000,163.772000,129.831000,163.705000,130.147000C163.689000,130.189000,163.666000,130.195000,163.639000,130.190000L163.890000,130.283000C163.787000,130.309000,163.666000,130.517000,163.626000,130.366000C163.690000,130.855000,164.317000,130.663000,164.155000,131.004000L164.111000,130.995000C164.602000,131.335000,164.402000,130.822000,164.979000,130.892000L164.547000,131.653000L164.836000,131.475000C164.866000,131.527000,164.925000,131.631000,164.811000,131.704000C165.129000,131.719000,164.895000,131.580000,165.141000,131.532000C165.103000,131.950000,165.772000,132.020000,165.425000,132.427000C165.681000,132.330000,165.383000,132.094000,165.720000,132.198000C165.359000,132.652000,166.031000,132.390000,166.019000,132.758000C165.749000,132.904000,165.691000,132.614000,165.681000,132.987000C166.150000,132.758000,165.957000,133.432000,166.183000,133.527000C166.473000,133.255000,166.640000,133.754000,167,133.918000C166.889000,133.998000,167.354000,134.561000,167.518000,134.900000L167.465000,134.942000C167.786000,134.692000,168,134.988000,168.251000,135.096000C168.085000,135.271000,167.987000,135.311000,167.809000,135.296000L167.997000,135.459000C168.125000,135.400000,168.228000,135.398000,168.379000,135.468000L168.137000,135.656000C168.399000,135.861000,168.870000,135.813000,169.074000,136.233000C169.265000,136.027000,169.304000,135.421000,169.761000,135.544000C169.679000,135.673000,169.532000,135.886000,169.403000,135.863000C169.445000,135.871000,169.587000,135.847000,169.606000,135.946000L169.310000,136.036000C169.391000,136.243000,169.520000,135.932000,169.625000,136.044000C169.489000,136.213000,169.620000,136.234000,169.498000,136.356000C169.454000,136.349000,169.447000,136.204000,169.349000,136.235000C169.460000,136.373000,169.551000,136.600000,169.508000,136.774000C169.570000,136.667000,169.683000,136.543000,169.801000,136.595000C170.075000,136.779000,169.737000,136.871000,169.827000,137.075000C169.980000,137.002000,170.062000,137.252000,170.254000,136.992000C170.331000,137.050000,170.258000,137.182000,170.239000,137.276000C170.460000,137.259000,170.926000,137.696000,170.956000,137.301000L170.933000,137.258000C170.943000,137.257000,170.951000,137.262000,170.964000,137.262000L170.963000,137.261000L170.964000,137.262000C171.597000,137.300000,171.839000,138.040000,172.397000,138.193000L172.343000,138.288000C172.692000,138.343000,173.031000,138.574000,173.345000,138.470000C173.431000,138.513000,173.465000,138.748000,173.372000,138.846000C173.639000,138.882000,173.710000,138.784000,173.975000,139.096000C173.664000,139.164000,173.990000,139.285000,173.678000,139.115000C173.944000,139.336000,173.951000,139.529000,174.397000,139.390000C174.178000,139.600000,174.505000,139.810000,174.687000,139.787000L174.536000,139.518000C174.719000,139.544000,174.855000,139.622000,174.999000,139.698000L174.794000,140.011000C175.337000,140.675000,176.206000,139.676000,176.538000,140.513000C176.775000,140.309000,176.208000,140.250000,176.440000,140C176.730000,140.124000,176.956000,140.700000,177.061000,140.722000C177.476000,141.001000,177.562000,140.272000,177.996000,140.470000C177.952000,140.334000,177.948000,139.985000,178.288000,139.902000C178.586000,139.979000,178.625000,140.480000,178.412000,140.565000C178.334000,140.568000,178.301000,140.524000,178.308000,140.481000C178.200000,140.518000,178.056000,140.556000,178.169000,140.711000L178.225000,140.587000C178.371000,140.736000,178.824000,140.756000,178.704000,140.959000C178.963000,140.851000,178.822000,140.756000,178.646000,140.675000C179.054000,140.890000,179.299000,140.716000,179.732000,140.838000C179.662000,140.768000,179.598000,140.616000,179.667000,140.616000C180.300000,140.762000,179.937000,140.366000,180.350000,140.288000C180.601000,140.467000,180.297000,140.767000,180.711000,140.566000C180.986000,140.674000,180.803000,140.904000,180.703000,141.019000C181.077000,140.734000,181.474000,141.095000,181.720000,141.100000L181.521000,141.238000C181.641000,141.155000,181.746000,141.141000,181.854000,141.122000L181.687000,140.888000C181.818000,140.911000,181.923000,140.892000,181.941000,140.998000C182.036000,140.808000,181.768000,140.593000,181.967000,140.316000C182.154000,140.416000,182.410000,140.074000,182.547000,140.393000C182.019000,140.399000,182.686000,140.718000,182.265000,140.872000C182.341000,140.813000,182.443000,140.793000,182.577000,140.807000C182.605000,140.840000,182.577000,140.881000,182.547000,140.909000C183.120000,141.082000,182.681000,140.477000,183.174000,140.345000C183.166000,140.551000,183.397000,140.662000,183.466000,140.596000C183.262000,140.656000,183.277000,140.318000,183.408000,140.118000C183.766000,140.158000,183.705000,139.896000,183.868000,139.856000L183.663000,139.855000C183.659000,139.651000,183.816000,139.621000,183.998000,139.484000C184.072000,139.618000,183.849000,139.653000,183.947000,139.687000C184.046000,139.283000,184.601000,139.804000,184.827000,139.445000C185.030000,139.495000,184.997000,139.769000,185.166000,139.786000C185.410000,139.386000,185.679000,139.830000,185.953000,139.441000C185.718000,139.271000,185.737000,139.337000,185.862000,138.973000C185.862000,138.973000,185.737000,139.096000,185.612000,139.218000C185.483000,139.338000,185.354000,139.458000,185.354000,139.458000L185.557000,138.920000C185.381000,139.014000,185.259000,139.265000,185.131000,139.279000C185.217000,138.997000,185.225000,139.065000,185.043000,138.915000C185.468000,139.139000,185.406000,138.467000,185.801000,138.540000L186.122000,139.101000C186.699000,139.091000,186.683000,138.367000,187.274000,138.133000L187.046000,138.160000C186.963000,137.905000,187.333000,137.905000,187.428000,137.699000C187.546000,137.881000,187.693000,137.864000,187.846000,137.915000C187.737000,137.798000,188.215000,137.632000,187.974000,137.267000L188.370000,137.298000C188.827000,137.042000,188.372000,136.463000,188.751000,136.187000C188.818000,136.454000,189.081000,136.406000,188.971000,136.753000C189.088000,136.641000,189.218000,136.564000,189.112000,136.457000C189.278000,136.483000,189.208000,135.936000,189.455000,135.967000C189.430000,135.853000,189.277000,135.688000,189.406000,135.567000C189.452000,135.582000,189.486000,135.638000,189.486000,135.638000C189.407000,135.567000,189.556000,135.334000,189.276000,135.294000C190.114000,135.362000,190.072000,134.229000,190.775000,134.213000C190.913000,133.885000,191.077000,133.496000,191.220000,133.217000C191.265000,133.266000,191.312000,133.272000,191.263000,133.312000C191.663000,133.017000,190.843000,132.810000,191.299000,132.429000C191.770000,132.278000,191.325000,132.789000,191.536000,132.668000C191.879000,132.781000,191.965000,132.559000,192.021000,132.307000C192.024000,132.039000,191.856000,131.738000,192.070000,131.501000C192.070000,131.491000,192.117000,131.614000,192.117000,131.614000C192.342000,131.288000,191.822000,131.027000,191.861000,130.617000C191.861000,130.617000,191.924000,130.635000,191.968000,130.617000C191.598000,130.361000,191.471000,129.855000,191.370000,129.477000C191.648000,129.594000,191.518000,129.648000,191.800000,129.576000C191.758000,129.408000,191.345000,129.627000,191.268000,129.288000C191.421000,129.179000,191.555000,128.936000,191.857000,128.909000L191.872000,129.224000C192.262000,129.066000,191.861000,128.817000,191.933000,128.651000L192.103000,128.675000C192.056000,128.194000,191.629000,128.174000,191.679000,127.653000L191.548000,127.701000C191.135000,127.396000,191.797000,127.472000,191.494000,127.173000L191.930000,127.110000C191.835000,126.919000,191.551000,126.428000,191.495000,126.082000C191.801000,126.299000,191.936000,126.702000,192.114000,126.955000C192.126000,126.770000,192.122000,126.326000,191.916000,126.213000C191.952000,126.292000,192.051000,126.393000,191.980000,126.462000C191.656000,126.212000,191.512000,125.896000,191.552000,125.524000C192.377000,125.664000,191.850000,124.576000,192.532000,124.382000C192.298000,123.697000,192.823000,123.119000,192.893000,122.373000C192.207000,122.532000,192.911000,122.153000,192.244000,122.088000C192.231000,121.905000,192.255000,121.840000,192.300000,121.832000C192.300000,121.832000,192.417000,121.739000,192.558000,121.529000C192.699000,121.327000,192.840000,121.124000,192.840000,121.124000C193.084000,120.900000,192.936000,121.392000,193.094000,121.370000C193.286000,120.682000,193.441000,121.074000,193.741000,120.536000C193.465000,120.681000,193.428000,120.367000,193.637000,119.915000L193.160000,120.581000C193.072000,120.176000,193.275000,119.950000,193.493000,119.654000C193.708000,119.376000,193.944000,119.019000,193.856000,118.652000C193.858000,118.645000,194.034000,118.806000,194.032000,118.813000C194.030000,118.728000,194.046000,118.607000,194.072000,118.461000C193.387000,118.412000,192.292000,118.271000,191.668000,118.628000C191.636000,118.546000,191.614000,118.358000,191.865000,118.343000C191.573000,118.284000,191.232000,118.266000,190.899000,118.267000C190.736000,118.271000,190.571000,118.276000,190.405000,118.281000C190.283000,118.294000,190.208000,118.313000,190.109000,118.329000C189.736000,118.392000,189.386000,118.428000,189.144000,118.229000L189.216000,118.074000C189.083000,118.104000,188.955000,118.349000,188.819000,118.165000C188.836000,118.100000,188.892000,118.010000,188.834000,117.993000C188.760000,118.040000,188.460000,118.232000,188.305000,118.116000L188.472000,117.953000C187.838000,117.653000,187.398000,118.264000,186.828000,118.302000C186.892000,117.824000,186.392000,117.601000,186.142000,117.490000L186.160000,117.424000C185.397000,117.264000,184.800000,117.648000,184.061000,117.741000C183.686000,117.165000,182.589000,117.326000,181.915000,116.942000C182.012000,117.044000,181.849000,117.312000,181.715000,117.342000C181.560000,117.224000,181.210000,117.613000,181.294000,117.179000L181.353000,117.195000C181.284000,116.750000,180.925000,116.819000,180.659000,116.772000L180.539000,117.338000C179.948000,116.413000,178.662000,117.402000,178.377000,116.606000C178.163000,116.723000,178.038000,116.706000,177.734000,116.811000L177.773000,116.504000C177.754000,116.499000,177.735000,116.494000,177.724000,116.492000C177.485000,116.472000,177.424000,116.457000,177.323000,116.444000C177.227000,116.430000,177.137000,116.422000,177.043000,116.417000C176.855000,116.408000,176.652000,116.417000,176.367000,116.453000L176.486000,116.231000C176.156000,116.210000,176.070000,117.124000,175.766000,117.142000L175.674000,116.680000C175.585000,116.681000,175.497000,116.671000,175.310000,116.656000C175.067000,116.668000,174.996000,116.648000,174.861000,116.638000C174.738000,116.627000,174.615000,116.618000,174.494000,116.622000C174.252000,116.631000,174.018000,116.693000,173.806000,116.898000C173.806000,116.829000,173.806000,116.695000,173.896000,116.665000C173.625000,116.687000,172.816000,116.491000,172.997000,117.107000C172.936000,116.698000,172.404000,117.144000,172.119000,117.365000L172.127000,117.056000C171.918000,117.477000,171.924000,117.583000,171.575000,117.738000C171.484000,117.710000,171.468000,117.507000,171.593000,117.569000C171.285000,117.448000,171.407000,117.883000,171.038000,117.768000L171.142000,117.559000C170.844000,117.575000,170.881000,117.675000,170.748000,117.920000C170.579000,118.066000,170.179000,117.918000,170.099000,117.650000C170.081000,117.822000,169.949000,118.066000,169.765000,118.010000C169.728000,117.909000,169.783000,117.837000,169.810000,117.802000C169.290000,117.661000,169.123000,118.249000,168.745000,117.997000C168.724000,117.897000,168.696000,117.851000,168.663000,117.824000C169.056000,117.780000,169.374000,117.755000,169.348000,117.781000C169.311000,117.502000,168.988000,117.495000,169.189000,117.077000C168.962000,117.320000,168.588000,117.834000,168.263000,117.743000C168.244000,117.719000,168.226000,117.694000,168.209000,117.652000L168.236000,117.617000C168.162000,117.598000,168.101000,117.633000,168.048000,117.687000C167.944000,117.654000,167.877000,117.628000,167.781000,117.637000C167.714000,117.411000,167.402000,117.561000,167.242000,117.570000C167.295000,117.873000,167.082000,117.851000,167.309000,118.078000C167.281000,118.059000,167.334000,118.037000,167.437000,118.011000C167.459000,117.999000,167.487000,117.991000,167.500000,117.971000L167.492000,117.999000C167.596000,117.980000,167.730000,117.955000,167.882000,117.927000C167.778000,118.099000,167.665000,118.246000,167.467000,118.100000C167.412000,118.306000,167.349000,118.519000,167.311000,118.621000C167.040000,118.225000,166.593000,118.050000,166.500000,117.795000C166.041000,118.029000,165.379000,118.057000,165.152000,118.670000C165.024000,118.761000,164.972000,118.526000,164.909000,118.443000C164.981000,118.375000,165.076000,118.372000,165.108000,118.283000C164.854000,118.467000,164.304000,118.447000,164.291000,118.856000C163.922000,118.720000,164.437000,118.461000,163.971000,118.589000L164.019000,118.458000C163.510000,118.200000,163.165000,118.505000,162.803000,118.789000C162.604000,118.934000,162.325000,119.083000,162.083000,119.145000C161.819000,119.210000,161.529000,119.198000,160.999000,119.059000C161.141000,119.091000,161.207000,119.106000,161.277000,119.164000C160.866000,119.144000,160.400000,119.143000,160.081000,119.236000C160.243000,119.883000,160.495000,120.573000,160.637000,121.174000C160.792000,121.853000,160.812000,122.184000,160.666000,122.691000C160.600000,123.032000,160.859000,123.029000,161.082000,123.201000L160.765000,123.317000L161.188000,123.607000C161.528000,124.063000,160.487000,124.538000,161.072000,125.091000L161.285000,124.990000C161.266000,125.215000,161.480000,125.679000,161.222000,125.664000C161.264000,125.684000,161.459000,125.718000,161.350000,125.813000L161.178000,125.834000L161.513000,126.355000C161.415000,126.786000,160.827000,126.336000,160.829000,126.948000C160.909000,127.169000,161.364000,127.569000,161.476000,127.479000C161.480000,127.386000,161.572000,127.238000,161.745000,127.221000L161.845000,127.428000C162.356000,127.442000,162.885000,127.590000,163.214000,127.038000L162.882000,126.684000L163.122000,126.549000L163.155000,126.861000C163.377000,126.670000,163.166000,126.568000,163.016000,126.452000C163.145000,126.414000,163.233000,126.355000,163.277000,126.278000L162.766000,125.949000C162.961000,125.889000,163.173000,126.083000,163.264000,125.829000C163.025000,125.676000,162.831000,126.026000,162.662000,125.757000C162.877000,125.563000,163.070000,125.597000,162.856000,125.406000C162.984000,125.366000,163.071000,125.403000,163.135000,125.481000C162.964000,125.308000,163.024000,124.995000,162.746000,124.925000C163.013000,124.712000,162.608000,124.311000,163.089000,124.277000C162.968000,124.231000,162.676000,123.993000,162.636000,123.828000C163.248000,124.067000,162.590000,123.189000,163.213000,123.190000C162.669000,123.029000,162.869000,122.388000,162.517000,122.028000C162.561000,122.044000,162.650000,122.075000,162.630000,122.115000C162.636000,121.880000,162.778000,121.788000,162.850000,121.624000C162.637000,121.645000,162.490000,121.571000,162.360000,121.475000C162.231000,121.382000,162.137000,121.376000,161.990000,121.309000C162.389000,121.191000,162.514000,121.371000,162.904000,121.299000C162.559000,121.341000,162.532000,121.195000,162.234000,121.173000C162.487000,121.140000,162.349000,121.120000,162.726000,121.197000C162.144000,121.009000,162.621000,121.131000,162.243000,120.920000C162.516000,120.955000,162.809000,121.194000,162.603000,121.009000C162.790000,121.127000,163.020000,121.299000,163.017000,121.287000ZM168.588000,119.615000L168.589000,119.621000C168.522000,119.638000,168.464000,119.651000,168.428000,119.660000C168.461000,119.650000,168.507000,119.638000,168.588000,119.615000ZM169.250000,119.523000C169.168000,119.521000,169.067000,119.533000,168.961000,119.548000C168.924000,119.446000,168.935000,119.334000,169.003000,119.331000C168.975000,119.407000,169.140000,119.447000,169.250000,119.523000ZM167.570000,117.596000C167.669000,117.538000,167.713000,117.594000,167.735000,117.655000C167.687000,117.667000,167.630000,117.684000,167.557000,117.716000L167.550000,117.755000C167.551000,117.694000,167.556000,117.639000,167.570000,117.596000Z" fill="rgb(233,173,121)" stroke="none" stroke-width="1"/><path id="eutly7atnunj58" d="M167.434000,118.020000C167.420000,118.030000,167.413000,118.043000,167.394000,118.048000C167.419000,118.072000,167.442000,118.092000,167.465000,118.109000L167.489000,118.008000L167.434000,118.020000Z" fill="rgb(233,173,121)" stroke="none" stroke-width="1"/><path id="eutly7atnunj59" d="M170.953000,137.308000L170.960000,137.322000C170.958000,137.305000,170.955000,137.289000,170.960000,137.269000C170.959000,137.286000,170.954000,137.294000,170.953000,137.308000Z" fill="rgb(233,173,121)" stroke="none" stroke-width="1"/><polygon id="eutly7atnunj60" points="178.137000,119.376000 178.146000,119.300000 178.080000,119.358000" fill="rgb(233,173,121)" stroke="none" stroke-width="1"/><path id="eutly7atnunj61" d="M168.698000,134.220000C168.711000,134.196000,168.719000,134.166000,168.715000,134.130000C168.703000,134.146000,168.700000,134.181000,168.698000,134.220000Z" fill="rgb(233,173,121)" stroke="none" stroke-width="1"/><path id="eutly7atnunj62" d="M167.603000,133.105000L167.522000,132.872000C167.547000,132.983000,167.576000,133.054000,167.603000,133.105000Z" fill="rgb(233,173,121)" stroke="none" stroke-width="1"/><path id="eutly7atnunj63" d="M166.867000,132.146000C166.818000,132.172000,166.785000,132.197000,166.756000,132.220000L166.756000,132.223000L166.867000,132.146000Z" fill="rgb(233,173,121)" stroke="none" stroke-width="1"/><path id="eutly7atnunj64" d="M183.073000,137.962000C183.087000,137.955000,183.099000,137.946000,183.109000,137.935000C183.181000,137.843000,183.126000,137.890000,183.073000,137.962000Z" fill="rgb(233,173,121)" stroke="none" stroke-width="1"/><path id="eutly7atnunj65" d="M177.847000,139.175000C177.913000,139.129000,177.979000,139.082000,178.044000,139.056000C177.950000,139.020000,177.876000,139.004000,177.847000,139.175000Z" fill="rgb(233,173,121)" stroke="none" stroke-width="1"/><polygon id="eutly7atnunj66" points="187.613000,134.401000 187.617000,134.405000 187.641000,134.379000" fill="rgb(233,173,121)" stroke="none" stroke-width="1"/><path id="eutly7atnunj67" d="M178.297000,139.093000C178.206000,139.021000,178.124000,139.025000,178.044000,139.056000C178.120000,139.088000,178.211000,139.130000,178.297000,139.093000Z" fill="rgb(233,173,121)" stroke="none" stroke-width="1"/><path id="eutly7atnunj68" d="M163.601000,128.096000L163.576000,128.042000C163.560000,128.056000,163.545000,128.063000,163.532000,128.066000L163.601000,128.096000Z" fill="rgb(233,173,121)" stroke="none" stroke-width="1"/><path id="eutly7atnunj69" d="M163.532000,128.066000L163.464000,128.038000C163.481000,128.062000,163.499000,128.080000,163.532000,128.066000Z" fill="rgb(233,173,121)" stroke="none" stroke-width="1"/><path id="eutly7atnunj70" d="M163.320000,127.977000L163.464000,128.039000C163.436000,128,163.409000,127.948000,163.320000,127.977000Z" fill="rgb(233,173,121)" stroke="none" stroke-width="1"/><path id="eutly7atnunj71" d="M164.476000,129.435000L164.574000,129.378000C164.550000,129.386000,164.518000,129.403000,164.476000,129.435000Z" fill="rgb(233,173,121)" stroke="none" stroke-width="1"/><path id="eutly7atnunj72" d="M164.809000,129.788000C164.754000,129.683000,164.807000,129.414000,164.653000,129.334000L164.575000,129.378000C164.749000,129.332000,164.593000,129.823000,164.809000,129.788000Z" fill="rgb(233,173,121)" stroke="none" stroke-width="1"/><path id="eutly7atnunj73" d="M165.109000,132.237000L164.897000,131.868000C164.856000,132.002000,164.801000,132.180000,164.654000,132.056000C164.743000,132.688000,164.778000,131.800000,165.109000,132.237000Z" fill="rgb(233,173,121)" stroke="none" stroke-width="1"/><path id="eutly7atnunj74" d="M165.871000,133.303000C165.674000,133.180000,165.749000,133.424000,165.693000,133.463000C165.870000,133.491000,165.914000,133.496000,165.871000,133.303000Z" fill="rgb(233,173,121)" stroke="none" stroke-width="1"/><path id="eutly7atnunj75" d="M173.409000,138.991000L173.267000,139.234000C173.448000,139.274000,173.315000,139.137000,173.409000,138.991000Z" fill="rgb(233,173,121)" stroke="none" stroke-width="1"/><polygon id="eutly7atnunj76" points="175.586000,138.324000 175.496000,138.107000 175.338000,138.323000" fill="rgb(233,173,121)" stroke="none" stroke-width="1"/><polygon id="eutly7atnunj77" points="176.019000,140.540000 175.930000,140.557000 176.256000,140.537000" fill="rgb(233,173,121)" stroke="none" stroke-width="1"/><path id="eutly7atnunj78" d="M190.825000,134.725000L190.513000,134.568000C190.491000,134.702000,190.788000,134.953000,190.825000,134.725000Z" fill="rgb(233,173,121)" stroke="none" stroke-width="1"/><path id="eutly7atnunj79" d="M191.864000,127.727000C192.040000,127.662000,192.158000,127.483000,191.994000,127.362000C191.964000,127.507000,191.824000,127.649000,191.864000,127.727000Z" fill="rgb(233,173,121)" stroke="none" stroke-width="1"/><polygon id="eutly7atnunj80" points="180.259000,116.868000 180.408000,116.771000 180.143000,116.834000" fill="rgb(233,173,121)" stroke="none" stroke-width="1"/></g></g></g></g></g><clipPath id="eutly7atnunj81"><use id="eutly7atnunj82" width="158.730026" height="102.493011" xlink:href="#eutly7atnunj7" fill="rgb(0,0,0)" stroke="none" stroke-width="1"/></clipPath></g></g><path id="eutly7atnunj83" d="M214.917000,161.974000C207.770000,159.746000,202.699000,156.344000,199.123000,152.419000C180.683000,165.182000,164.105000,162.839000,156.451000,149.175000C152.882000,154.444000,147.156000,159.152000,138.099000,161.974000C106.720000,171.754000,99.588000,181.536000,97.143000,220.251000L175.387000,220.251000L177.629000,220.251000L255.873000,220.251000C253.428000,181.535000,246.296000,171.754000,214.917000,161.974000Z" fill="rgb(106,115,213)" stroke="none" stroke-width="1"/><path id="eutly7atnunj84" d="M198.757000,211.390000C164.625000,215.079000,134.808000,198.053000,106.077000,181.311000C100.579000,189.760000,98.317000,201.667000,97.143000,220.251000L175.387000,220.251000L177.629000,220.251000L255.873000,220.251000C254.794000,203.157000,252.796000,191.712000,248.207000,183.409000C245.702000,185.354000,214.531000,208.432000,198.757000,211.390000Z" fill="rgb(74,87,192)" stroke="none" stroke-width="1"/><path id="eutly7atnunj85" d="M186.395000,216.946000L184.667000,163.475000L189.512000,162.079000L204.417000,175.399000C204.417000,175.399000,206.373000,172.511000,202.181000,166.921000C197.989000,161.333000,192.493000,159.655000,192.214000,159.469000C191.934000,159.282000,179.079000,162.170000,179.079000,162.170000L180.684000,218.202000L186.395000,216.946000Z" fill="rgb(74,87,192)" stroke="none" stroke-width="1"/><path id="eutly7atnunj86" d="M199.123000,152.419000C199.123000,152.419000,173.858000,172.033000,156.451000,149.175000C156.451000,149.175000,146.234000,160.854000,145.461000,172.620000L163.596000,160.190000C163.596000,160.190000,175.185000,166.874000,189.667000,160.190000L204.755000,172.620000C204.755000,172.620000,205.997000,158.021000,199.123000,152.419000Z" fill="rgb(169,178,246)" stroke="none" stroke-width="1"/><rect id="eutly7atnunj87" width="7.332000" height="59.561000" rx="0" ry="0" transform="matrix(1 0 0 1 174.80300000000000 160.58600000000001)" fill="rgb(169,178,246)" stroke="none" stroke-width="1"/></g><g id="eutly7atnunj88_tr" transform="translate(176.513153,277.203354) rotate(-3.800000)"><g id="eutly7atnunj88" transform="translate(-176.513153,-277.203354)"><rect id="eutly7atnunj89" width="201.073000" height="138.802000" rx="0" ry="0" transform="matrix(0.99970000000000 0.02440000000000 -0.02440000000000 0.99970000000000 76.18221960000001 212.90492620000001)" fill="rgb(25,126,133)" stroke="none" stroke-width="1"/><g id="eutly7atnunj90"><rect id="eutly7atnunj91" width="201.074000" height="138.800000" rx="0" ry="0" transform="matrix(0.99970000000000 0.02440000000000 -0.02440000000000 0.99970000000000 71.25046470000001 207.97124090000003)" fill="rgb(255,255,255)" stroke="none" stroke-width="1"/></g><g id="eutly7atnunj92"><g id="eutly7atnunj93"><path id="eutly7atnunj94" d="M130.630000,230.268000C130.630000,231.885000,130.618000,233.365000,130.595000,234.705000C131.981000,234.774000,133.148000,234.798000,134.095000,234.774000C134.580000,234.774000,134.823000,235.005000,134.823000,235.467000C134.823000,235.952000,134.580000,236.183000,134.095000,236.160000C132.963000,236.206000,131.784000,236.194000,130.560000,236.125000C130.444000,239.499000,130.213000,241.960000,129.867000,243.508000C129.752000,243.946000,129.474000,244.154000,129.035000,244.132000C128.596000,244.039000,128.411000,243.738000,128.480000,243.231000C128.757000,242.145000,128.965000,239.938000,129.104000,236.611000C129.127000,236.403000,129.138000,236.218000,129.138000,236.056000C126.550000,235.894000,124.898000,235.721000,124.182000,235.536000C123.789000,235.420000,123.616000,235.142000,123.662000,234.704000C123.731000,234.381000,123.939000,234.207000,124.286000,234.184000C124.401000,234.184000,124.517000,234.195000,124.633000,234.218000C125.419000,234.357000,126.944000,234.507000,129.208000,234.668000C129.277000,232.635000,129.277000,231.099000,129.208000,230.059000C129.208000,229.550000,129.451000,229.296000,129.936000,229.296000C130.422000,229.320000,130.653000,229.644000,130.630000,230.268000ZM133.230000,247.251000C133.322000,247.875000,133.392000,248.695000,133.438000,249.712000C133.484000,250.752000,133.484000,251.387000,133.438000,251.618000C133.415000,251.965000,133.126000,252.195000,132.572000,252.311000C131.301000,252.472000,129.522000,252.496000,127.234000,252.380000C126.333000,252.311000,125.975000,251.929000,126.160000,251.236000C126.437000,249.271000,126.483000,247.769000,126.299000,246.730000C126.253000,246.198000,126.495000,245.932000,127.027000,245.932000C127.304000,245.932000,127.501000,246.036000,127.616000,246.244000C129.141000,246.266000,130.632000,246.313000,132.087000,246.383000C132.687000,246.431000,133.068000,246.720000,133.230000,247.251000ZM127.823000,247.632000C127.823000,248.442000,127.754000,249.528000,127.615000,250.891000C127.592000,251.006000,127.627000,251.064000,127.719000,251.064000C130.007000,251.179000,131.427000,251.168000,131.982000,251.030000C132.028000,251.007000,132.051000,250.961000,132.051000,250.891000C132.051000,249.874000,131.993000,248.915000,131.878000,248.014000C131.832000,247.875000,131.751000,247.794000,131.635000,247.771000C130.434000,247.725000,129.163000,247.679000,127.823000,247.632000ZM147.995000,246.072000L143.212000,245.968000C143.096000,248.163000,142.935000,249.596000,142.727000,250.266000C142.611000,250.543000,142.392000,250.693000,142.068000,250.716000C141.606000,250.670000,141.363000,250.439000,141.340000,250.023000C141.340000,249.884000,141.363000,249.757000,141.409000,249.642000C141.779000,248.279000,141.998000,244.015000,142.067000,236.852000C142.067000,236.390000,142.333000,236.160000,142.864000,236.160000C145.452000,236.160000,147.301000,236.206000,148.409000,236.299000C148.894000,236.368000,149.149000,236.645000,149.172000,237.130000C149.311000,240.781000,149.380000,244.905000,149.380000,249.504000C149.380000,250.729000,148.802000,251.353000,147.647000,251.375000C146.792000,251.353000,146.353000,251.075000,146.330000,250.544000C146.330000,250.105000,146.550000,249.885000,146.989000,249.885000C147.151000,249.885000,147.347000,249.932000,147.578000,250.024000C147.878000,250.047000,148.017000,249.863000,147.994000,249.469000C147.995000,248.383000,147.995000,247.251000,147.995000,246.072000ZM143.385000,242.121000C143.362000,242.884000,143.339000,243.600000,143.316000,244.270000C143.316000,244.409000,143.304000,244.524000,143.281000,244.617000L147.960000,244.721000C147.960000,243.912000,147.948000,243.092000,147.925000,242.260000L143.385000,242.121000ZM147.891000,240.908000C147.845000,239.799000,147.810000,238.689000,147.787000,237.581000C146.770000,237.534000,145.326000,237.500000,143.454000,237.477000C143.454000,238.656000,143.442000,239.753000,143.419000,240.770000L147.891000,240.908000Z" fill="rgb(0,0,0)" stroke="none" stroke-width="1"/><path id="eutly7atnunj95" d="M173.574000,235.501000L179.709000,235.675000C180.194000,235.697000,180.425000,235.941000,180.402000,236.403000C180.356000,236.842000,180.125000,237.073000,179.709000,237.096000L165.048000,236.680000C164.609000,236.634000,164.366000,236.403000,164.320000,235.987000C164.320000,235.502000,164.563000,235.259000,165.048000,235.259000L172.118000,235.467000C171.956000,234.704000,171.818000,233.595000,171.702000,232.140000C171.702000,231.655000,171.933000,231.400000,172.395000,231.377000C172.811000,231.399000,173.042000,231.596000,173.088000,231.966000C173.203000,233.353000,173.354000,234.439000,173.538000,235.224000C173.539000,235.340000,173.551000,235.432000,173.574000,235.501000ZM166.677000,249.712000L171.183000,249.781000L169.138000,245.483000L168.999000,245.240000C168.930000,244.663000,169.184000,244.362000,169.761000,244.340000C170.061000,244.340000,170.281000,244.479000,170.420000,244.756000L172.604000,249.262000L172.708000,249.504000C172.731000,249.619000,172.743000,249.724000,172.743000,249.816000L174.892000,249.851000C174.915000,249.736000,174.938000,249.655000,174.961000,249.608000C175.284000,249.054000,175.539000,248.522000,175.723000,248.014000C176,247.321000,176.208000,246.581000,176.347000,245.795000C176.416000,245.379000,176.682000,245.183000,177.144000,245.206000C177.583000,245.252000,177.791000,245.518000,177.768000,246.003000C177.630000,246.881000,177.456000,247.644000,177.248000,248.291000C177.040000,248.937000,176.809000,249.458000,176.555000,249.851000L179.709000,249.885000C180.194000,249.908000,180.425000,250.151000,180.402000,250.614000C180.356000,251.052000,180.125000,251.284000,179.709000,251.307000L166.677000,251.133000C166.215000,251.087000,165.972000,250.856000,165.949000,250.440000C165.949000,249.954000,166.191000,249.712000,166.677000,249.712000Z" fill="rgb(0,0,0)" stroke="none" stroke-width="1"/><path id="eutly7atnunj96" d="M194.335000,251.375000C194.797000,247.933000,195.028000,241.070000,195.028000,230.787000C194.751000,230.787000,194.520000,230.765000,194.335000,230.718000C194.011000,230.603000,193.861000,230.349000,193.884000,229.956000C193.907000,229.540000,194.161000,229.354000,194.647000,229.401000C196.218000,229.540000,198.725000,229.655000,202.168000,229.748000C204.155000,229.817000,205.807000,229.828000,207.125000,229.782000C207.587000,229.782000,207.818000,230.013000,207.818000,230.475000C207.818000,230.868000,207.587000,231.087000,207.125000,231.133000C206.640000,231.133000,206.143000,231.145000,205.634000,231.168000C202.468000,231.145000,199.407000,231.052000,196.449000,230.891000C196.449000,240.249000,196.252000,246.950000,195.860000,250.994000C197.339000,251.525000,200.493000,251.791000,205.322000,251.791000C205.784000,251.791000,206.015000,252.011000,206.015000,252.450000C206.015000,252.912000,205.761000,253.143000,205.253000,253.143000C199.799000,253.143000,196.415000,252.854000,195.097000,252.276000C194.543000,252.185000,194.289000,251.884000,194.335000,251.375000ZM202.307000,244.790000C202.353000,245.691000,202.342000,246.615000,202.272000,247.562000C202.203000,248.001000,201.937000,248.255000,201.475000,248.325000C201.221000,248.394000,200.643000,248.406000,199.742000,248.360000C198.864000,248.337000,198.205000,248.291000,197.766000,248.221000C197.304000,248.128000,197.107000,247.851000,197.177000,247.389000C197.200000,245.864000,197.189000,244.639000,197.142000,243.715000C197.165000,243.299000,197.396000,243.079000,197.835000,243.056000C198.135000,243.079000,198.343000,243.184000,198.459000,243.368000C199.314000,243.368000,200.169000,243.402000,201.024000,243.472000C201.856000,243.565000,202.284000,244.005000,202.307000,244.790000ZM198.564000,244.790000C198.564000,245.437000,198.552000,246.107000,198.529000,246.801000C198.529000,246.893000,198.575000,246.940000,198.668000,246.940000C199.338000,247.009000,200.043000,247.044000,200.782000,247.044000C200.874000,247.021000,200.909000,246.963000,200.886000,246.871000C200.932000,246.547000,200.944000,245.970000,200.921000,245.138000C200.944000,244.976000,200.875000,244.896000,200.713000,244.896000C200.042000,244.848000,199.326000,244.813000,198.564000,244.790000ZM205.634000,234.461000C205.819000,235.178000,205.911000,236.345000,205.911000,237.962000C205.865000,238.540000,205.564000,238.852000,205.010000,238.898000C203.184000,238.945000,201.682000,238.910000,200.504000,238.794000C199.926000,238.701000,199.672000,238.344000,199.741000,237.720000C199.718000,236.171000,199.683000,235.016000,199.637000,234.254000C199.637000,233.791000,199.845000,233.561000,200.261000,233.561000C200.492000,233.561000,200.665000,233.619000,200.781000,233.734000C202.629000,233.712000,203.808000,233.722000,204.316000,233.769000C205.034000,233.814000,205.473000,234.046000,205.634000,234.461000ZM201.060000,235.051000C201.083000,235.652000,201.094000,236.379000,201.094000,237.235000C201.094000,237.396000,201.163000,237.477000,201.302000,237.477000C201.949000,237.546000,203.001000,237.581000,204.456000,237.581000C204.548000,237.558000,204.583000,237.488000,204.560000,237.373000C204.560000,236.795000,204.502000,236.091000,204.387000,235.259000C204.341000,235.143000,204.237000,235.085000,204.075000,235.085000C203.405000,235.062000,202.399000,235.051000,201.060000,235.051000ZM208.442000,244.895000C208.650000,245.518000,208.754000,246.546000,208.754000,247.979000C208.708000,248.580000,208.396000,248.904000,207.818000,248.950000C206.409000,249.019000,205.242000,248.973000,204.318000,248.811000C203.740000,248.718000,203.486000,248.349000,203.555000,247.702000C203.532000,246.362000,203.497000,245.357000,203.451000,244.687000C203.451000,244.224000,203.659000,243.994000,204.075000,243.994000C204.329000,243.994000,204.491000,244.040000,204.560000,244.133000L204.629000,244.133000C205.900000,244.110000,206.720000,244.121000,207.090000,244.167000C207.830000,244.213000,208.280000,244.455000,208.442000,244.895000ZM204.872000,245.518000C204.895000,246.003000,204.907000,246.581000,204.907000,247.251000C204.907000,247.413000,204.976000,247.493000,205.115000,247.493000C205.577000,247.562000,206.282000,247.597000,207.229000,247.597000C207.344000,247.574000,207.391000,247.504000,207.368000,247.389000C207.368000,246.927000,207.310000,246.372000,207.195000,245.725000C207.149000,245.610000,207.045000,245.552000,206.883000,245.552000C206.420000,245.529000,205.750000,245.518000,204.872000,245.518000ZM213.953000,236.506000L213.953000,236.575000C213.768000,237.731000,213.318000,238.643000,212.601000,239.313000C212.462000,239.429000,212.301000,239.499000,212.116000,239.521000C211.631000,239.521000,211.388000,239.291000,211.388000,238.828000C211.388000,238.643000,211.457000,238.482000,211.596000,238.344000C212.127000,237.789000,212.462000,237.027000,212.601000,236.056000C212.647000,235.687000,212.670000,234.831000,212.670000,233.492000C212.716000,233.053000,212.959000,232.822000,213.398000,232.799000C213.860000,232.799000,214.091000,233.030000,214.091000,233.492000C214.091000,234.162000,214.080000,234.728000,214.056000,235.190000C217.545000,235.490000,219.786000,235.814000,220.780000,236.161000C221.219000,236.391000,221.404000,236.807000,221.335000,237.408000C221.196000,238.679000,220.931000,239.615000,220.538000,240.216000C220.238000,240.517000,219.903000,240.586000,219.533000,240.424000C219.209000,240.239000,219.129000,239.974000,219.290000,239.627000C219.382000,239.372000,219.498000,239.072000,219.637000,238.726000C219.776000,238.403000,219.880000,237.998000,219.949000,237.513000C219.972000,237.351000,219.926000,237.247000,219.810000,237.201000C218.771000,236.922000,216.818000,236.691000,213.953000,236.506000ZM217.662000,243.542000C217.662000,245.230000,217.454000,246.858000,217.038000,248.430000C216.899000,248.961000,216.749000,249.458000,216.587000,249.920000C216.703000,249.943000,216.807000,249.989000,216.899000,250.059000C217.500000,250.614000,218.205000,251.121000,219.013000,251.583000C219.868000,252.092000,220.607000,252.381000,221.231000,252.450000C221.739000,252.496000,221.970000,252.750000,221.924000,253.213000C221.855000,253.651000,221.600000,253.871000,221.161000,253.871000C221.045000,253.871000,220.930000,253.859000,220.814000,253.836000C220.098000,253.721000,219.324000,253.421000,218.492000,252.936000C217.291000,252.289000,216.471000,251.700000,216.031000,251.168000C215.592000,252.068000,215.118000,252.762000,214.610000,253.247000C214.425000,253.409000,214.229000,253.478000,214.021000,253.455000C213.605000,253.386000,213.397000,253.154000,213.397000,252.762000C213.397000,252.577000,213.466000,252.415000,213.605000,252.277000C214.506000,251.376000,215.188000,250.002000,215.650000,248.153000C216.043000,246.628000,216.239000,245.091000,216.239000,243.543000C216.239000,243.081000,216.482000,242.851000,216.967000,242.851000C217.430000,242.850000,217.662000,243.080000,217.662000,243.542000Z" fill="rgb(0,0,0)" stroke="none" stroke-width="1"/></g><g id="eutly7atnunj97"><path id="eutly7atnunj98" d="M97.382000,317.053000L97.382000,307.552000L98.638000,307.552000L98.638000,317.135000C98.638000,317.523000,98.804000,317.674000,98.997000,317.674000C99.066000,317.674000,99.122000,317.674000,99.260000,317.648000L99.439000,318.615000C99.260000,318.684000,99.039000,318.724000,98.708000,318.724000C97.768000,318.724000,97.382000,318.117000,97.382000,317.053000Z" fill="rgb(0,0,0)" stroke="none" stroke-width="1"/><path id="eutly7atnunj99" d="M100.749000,314.802000C100.749000,312.371000,102.393000,310.852000,104.132000,310.852000C106.038000,310.852000,107.115000,312.233000,107.115000,314.374000C107.115000,314.649000,107.087000,314.913000,107.059000,315.092000L102.005000,315.092000C102.088000,316.695000,103.068000,317.717000,104.490000,317.717000C105.223000,317.717000,105.816000,317.495000,106.368000,317.121000L106.825000,317.949000C106.161000,318.379000,105.361000,318.723000,104.339000,318.723000C102.351000,318.724000,100.749000,317.273000,100.749000,314.802000ZM106.010000,314.194000C106.010000,312.675000,105.320000,311.861000,104.146000,311.861000C103.083000,311.861000,102.144000,312.715000,101.992000,314.194000L106.010000,314.194000Z" fill="rgb(0,0,0)" stroke="none" stroke-width="1"/><path id="eutly7atnunj100" d="M108.395000,314.802000C108.395000,312.302000,110.039000,310.852000,111.875000,310.852000C113.711000,310.852000,115.355000,312.302000,115.355000,314.802000C115.355000,317.287000,113.711000,318.724000,111.875000,318.724000C110.039000,318.724000,108.395000,317.287000,108.395000,314.802000ZM114.057000,314.802000C114.057000,313.076000,113.173000,311.902000,111.875000,311.902000C110.577000,311.902000,109.707000,313.077000,109.707000,314.802000C109.707000,316.529000,110.578000,317.674000,111.875000,317.674000C113.172000,317.674000,114.057000,316.528000,114.057000,314.802000Z" fill="rgb(0,0,0)" stroke="none" stroke-width="1"/><path id="eutly7atnunj101" d="M117.270000,317.495000L119.522000,317.495000L119.522000,309.941000L117.726000,309.941000L117.726000,309.140000C118.623000,308.974000,119.272000,308.739000,119.825000,308.421000L120.791000,308.421000L120.791000,317.494000L122.822000,317.494000L122.822000,318.544000L117.270000,318.544000L117.270000,317.495000Z" fill="rgb(0,0,0)" stroke="none" stroke-width="1"/><path id="eutly7atnunj102" d="M124.393000,313.447000C124.393000,309.927000,125.622000,308.227000,127.555000,308.227000C129.475000,308.227000,130.704000,309.941000,130.704000,313.447000C130.704000,316.969000,129.475000,318.723000,127.555000,318.723000C125.621000,318.724000,124.393000,316.970000,124.393000,313.447000ZM129.474000,313.447000C129.474000,310.494000,128.701000,309.250000,127.554000,309.250000C126.394000,309.250000,125.621000,310.494000,125.621000,313.447000C125.621000,316.432000,126.394000,317.717000,127.554000,317.717000C128.701000,317.717000,129.474000,316.433000,129.474000,313.447000Z" fill="rgb(0,0,0)" stroke="none" stroke-width="1"/><path id="eutly7atnunj103" d="M132.590000,317.495000L134.841000,317.495000L134.841000,309.941000L133.046000,309.941000L133.046000,309.140000C133.944000,308.974000,134.593000,308.739000,135.146000,308.421000L136.113000,308.421000L136.113000,317.494000L138.142000,317.494000L138.142000,318.544000L132.591000,318.544000L132.591000,317.495000Z" fill="rgb(0,0,0)" stroke="none" stroke-width="1"/><path id="eutly7atnunj104" d="M144.615000,309.498000L139.712000,309.498000L139.712000,308.422000L146.051000,308.422000L146.051000,309.181000C143.676000,312.233000,143.234000,314.582000,143.082000,318.545000L141.770000,318.545000C141.935000,314.705000,142.640000,312.262000,144.615000,309.498000Z" fill="rgb(0,0,0)" stroke="none" stroke-width="1"/><path id="eutly7atnunj105" d="M147.082000,317.384000L147.704000,316.556000C148.284000,317.135000,149.016000,317.674000,150.190000,317.674000C151.377000,317.674000,152.344000,316.764000,152.344000,315.284000C152.344000,313.835000,151.516000,312.979000,150.245000,312.979000C149.568000,312.979000,149.141000,313.185000,148.560000,313.573000L147.883000,313.159000L148.201000,308.422000L153.131000,308.422000L153.131000,309.498000L149.306000,309.498000L149.057000,312.427000C149.499000,312.179000,149.954000,312.027000,150.562000,312.027000C152.247000,312.027000,153.614000,313.021000,153.614000,315.245000C153.614000,317.467000,152.012000,318.724000,150.299000,318.724000C148.726000,318.724000,147.759000,318.062000,147.082000,317.384000Z" fill="rgb(0,0,0)" stroke="none" stroke-width="1"/><path id="eutly7atnunj106" d="M155.129000,315.410000C155.129000,311.279000,158.126000,308.574000,161.566000,308.574000C164.673000,308.574000,166.634000,310.645000,166.634000,313.682000C166.634000,316.375000,164.949000,317.784000,163.554000,317.784000C162.712000,317.784000,162.063000,317.398000,161.967000,316.611000L161.925000,316.611000C161.427000,317.204000,160.723000,317.673000,160.047000,317.673000C158.998000,317.673000,158.196000,316.886000,158.196000,315.479000C158.196000,313.847000,159.356000,311.901000,161.165000,311.901000C161.690000,311.901000,162.118000,312.149000,162.394000,312.662000L162.422000,312.662000L162.601000,312.026000L163.430000,312.026000L162.823000,315.105000C162.533000,316.349000,162.823000,316.916000,163.665000,316.916000C164.645000,316.916000,165.750000,315.741000,165.750000,313.738000C165.750000,311.239000,164.272000,309.416000,161.468000,309.416000C158.720000,309.416000,156.069000,311.763000,156.069000,315.367000C156.069000,318.379000,158.030000,320.091000,160.653000,320.091000C161.592000,320.091000,162.476000,319.802000,163.167000,319.402000L163.498000,320.147000C162.600000,320.686000,161.633000,320.935000,160.570000,320.935000C157.547000,320.935000,155.129000,319.001000,155.129000,315.410000ZM161.716000,315.894000L162.158000,313.435000C161.868000,312.965000,161.578000,312.786000,161.164000,312.786000C159.948000,312.786000,159.203000,314.250000,159.203000,315.411000C159.203000,316.404000,159.673000,316.805000,160.294000,316.805000C160.723000,316.804000,161.192000,316.528000,161.716000,315.894000Z" fill="rgb(0,0,0)" stroke="none" stroke-width="1"/><path id="eutly7atnunj107" d="M168.683000,307.552000L169.940000,307.552000L169.940000,310.564000L169.898000,312.110000C170.588000,311.419000,171.361000,310.852000,172.383000,310.852000C173.958000,310.852000,174.676000,311.874000,174.676000,313.794000L174.676000,318.545000L173.419000,318.545000L173.419000,313.960000C173.419000,312.551000,172.992000,311.957000,171.997000,311.957000C171.224000,311.957000,170.699000,312.345000,169.939000,313.103000L169.939000,318.545000L168.682000,318.545000L168.682000,307.552000Z" fill="rgb(0,0,0)" stroke="none" stroke-width="1"/><path id="eutly7atnunj108" d="M176.495000,314.802000C176.495000,312.302000,178.139000,310.852000,179.975000,310.852000C181.811000,310.852000,183.455000,312.302000,183.455000,314.802000C183.455000,317.287000,181.811000,318.724000,179.975000,318.724000C178.139000,318.724000,176.495000,317.287000,176.495000,314.802000ZM182.157000,314.802000C182.157000,313.076000,181.273000,311.902000,179.975000,311.902000C178.677000,311.902000,177.807000,313.077000,177.807000,314.802000C177.807000,316.529000,178.678000,317.674000,179.975000,317.674000C181.272000,317.674000,182.157000,316.528000,182.157000,314.802000Z" fill="rgb(0,0,0)" stroke="none" stroke-width="1"/><path id="eutly7atnunj109" d="M185.384000,316.225000L185.384000,312.068000L184.265000,312.068000L184.265000,311.115000L185.439000,311.048000L185.591000,308.946000L186.640000,308.946000L186.640000,311.048000L188.671000,311.048000L188.671000,312.069000L186.640000,312.069000L186.640000,316.253000C186.640000,317.180000,186.930000,317.703000,187.800000,317.703000C188.063000,317.703000,188.407000,317.606000,188.656000,317.511000L188.906000,318.450000C188.477000,318.587000,187.980000,318.725000,187.524000,318.725000C185.922000,318.724000,185.384000,317.730000,185.384000,316.225000Z" fill="rgb(0,0,0)" stroke="none" stroke-width="1"/><path id="eutly7atnunj110" d="M190.367000,311.047000L191.403000,311.047000L191.513000,312.137000L191.555000,312.137000C192.204000,311.418000,192.992000,310.852000,193.889000,310.852000C195.035000,310.852000,195.657000,311.405000,195.961000,312.289000C196.734000,311.448000,197.521000,310.852000,198.433000,310.852000C199.980000,310.852000,200.712000,311.874000,200.712000,313.794000L200.712000,318.545000L199.456000,318.545000L199.456000,313.960000C199.456000,312.551000,199.014000,311.957000,198.061000,311.957000C197.480000,311.957000,196.873000,312.331000,196.169000,313.103000L196.169000,318.545000L194.912000,318.545000L194.912000,313.960000C194.912000,312.551000,194.470000,311.957000,193.518000,311.957000C192.952000,311.957000,192.316000,312.331000,191.626000,313.103000L191.626000,318.545000L190.369000,318.545000L190.369000,311.047000Z" fill="rgb(0,0,0)" stroke="none" stroke-width="1"/><path id="eutly7atnunj111" d="M202.679000,316.598000C202.679000,314.967000,204.101000,314.153000,207.291000,313.794000C207.291000,312.828000,206.974000,311.901000,205.745000,311.901000C204.875000,311.901000,204.088000,312.301000,203.494000,312.702000L202.997000,311.832000C203.687000,311.392000,204.750000,310.852000,205.952000,310.852000C207.776000,310.852000,208.549000,312.081000,208.549000,313.931000L208.549000,318.545000L207.513000,318.545000L207.403000,317.648000L207.361000,317.648000C206.643000,318.241000,205.800000,318.724000,204.875000,318.724000C203.617000,318.724000,202.679000,317.949000,202.679000,316.598000ZM207.291000,316.721000L207.291000,314.622000C204.765000,314.927000,203.908000,315.549000,203.908000,316.515000C203.908000,317.370000,204.489000,317.717000,205.234000,317.717000C205.965000,317.717000,206.559000,317.370000,207.291000,316.721000Z" fill="rgb(0,0,0)" stroke="none" stroke-width="1"/><path id="eutly7atnunj112" d="M210.698000,308.684000C210.698000,308.174000,211.071000,307.870000,211.568000,307.870000C212.065000,307.870000,212.438000,308.175000,212.438000,308.684000C212.438000,309.154000,212.065000,309.498000,211.568000,309.498000C211.070000,309.498000,210.698000,309.153000,210.698000,308.684000ZM210.933000,311.047000L212.189000,311.047000L212.189000,318.545000L210.933000,318.545000L210.933000,311.047000Z" fill="rgb(0,0,0)" stroke="none" stroke-width="1"/><path id="eutly7atnunj113" d="M214.728000,317.053000L214.728000,307.552000L215.984000,307.552000L215.984000,317.135000C215.984000,317.523000,216.150000,317.674000,216.343000,317.674000C216.412000,317.674000,216.468000,317.674000,216.606000,317.648000L216.785000,318.615000C216.606000,318.684000,216.385000,318.724000,216.054000,318.724000C215.114000,318.724000,214.728000,318.117000,214.728000,317.053000Z" fill="rgb(0,0,0)" stroke="none" stroke-width="1"/><path id="eutly7atnunj114" d="M218.399000,317.771000C218.399000,317.205000,218.813000,316.791000,219.311000,316.791000C219.808000,316.791000,220.222000,317.205000,220.222000,317.771000C220.222000,318.337000,219.808000,318.724000,219.311000,318.724000C218.813000,318.724000,218.399000,318.337000,218.399000,317.771000Z" fill="rgb(0,0,0)" stroke="none" stroke-width="1"/><path id="eutly7atnunj115" d="M221.753000,314.802000C221.753000,312.302000,223.451000,310.852000,225.371000,310.852000C226.351000,310.852000,227.028000,311.266000,227.566000,311.737000L226.917000,312.580000C226.475000,312.180000,226.020000,311.902000,225.412000,311.902000C224.058000,311.902000,223.064000,313.077000,223.064000,314.802000C223.064000,316.529000,224.004000,317.674000,225.384000,317.674000C226.074000,317.674000,226.682000,317.357000,227.152000,316.929000L227.692000,317.771000C227.028000,318.379000,226.172000,318.724000,225.274000,318.724000C223.286000,318.724000,221.753000,317.287000,221.753000,314.802000Z" fill="rgb(0,0,0)" stroke="none" stroke-width="1"/><path id="eutly7atnunj116" d="M228.447000,314.802000C228.447000,312.302000,230.091000,310.852000,231.926000,310.852000C233.763000,310.852000,235.406000,312.302000,235.406000,314.802000C235.406000,317.287000,233.762000,318.724000,231.926000,318.724000C230.091000,318.724000,228.447000,317.287000,228.447000,314.802000ZM234.109000,314.802000C234.109000,313.076000,233.225000,311.902000,231.926000,311.902000C230.628000,311.902000,229.758000,313.077000,229.758000,314.802000C229.758000,316.529000,230.628000,317.674000,231.926000,317.674000C233.226000,317.674000,234.109000,316.528000,234.109000,314.802000Z" fill="rgb(0,0,0)" stroke="none" stroke-width="1"/><path id="eutly7atnunj117" d="M237.377000,311.047000L238.413000,311.047000L238.524000,312.137000L238.566000,312.137000C239.215000,311.418000,240.003000,310.852000,240.899000,310.852000C242.046000,310.852000,242.667000,311.405000,242.971000,312.289000C243.744000,311.448000,244.531000,310.852000,245.443000,310.852000C246.990000,310.852000,247.722000,311.874000,247.722000,313.794000L247.722000,318.545000L246.466000,318.545000L246.466000,313.960000C246.466000,312.551000,246.024000,311.957000,245.071000,311.957000C244.490000,311.957000,243.883000,312.331000,243.179000,313.103000L243.179000,318.545000L241.922000,318.545000L241.922000,313.960000C241.922000,312.551000,241.480000,311.957000,240.528000,311.957000C239.962000,311.957000,239.326000,312.331000,238.636000,313.103000L238.636000,318.545000L237.379000,318.545000L237.379000,311.047000Z" fill="rgb(0,0,0)" stroke="none" stroke-width="1"/></g><g id="eutly7atnunj118"><g id="eutly7atnunj119"><path id="eutly7atnunj120" d="M164.771000,286.019000C164.771000,286.457000,164.563000,286.711000,164.147000,286.781000C163.061000,286.989000,161.259000,287.093000,158.740000,287.093000C155.274000,287.093000,153.541000,286.295000,153.541000,284.701000C153.541000,284.424000,153.610000,283.372000,153.749000,281.547000C153.865000,279.722000,153.922000,278.485000,153.922000,277.838000C153.922000,277.146000,153.899000,275.862000,153.853000,273.991000L153.784000,271.183000C153.784000,270.628000,154.038000,270.351000,154.547000,270.351000C154.986000,270.351000,155.217000,270.606000,155.240000,271.114000C155.309000,273.517000,155.344000,275.759000,155.344000,277.838000C155.344000,278.485000,155.286000,279.722000,155.171000,281.547000C155.056000,283.372000,154.998000,284.424000,154.998000,284.701000C154.998000,285.325000,156.246000,285.637000,158.741000,285.637000C160.544000,285.637000,162.126000,285.556000,163.490000,285.395000C163.883000,285.348000,164.056000,285.326000,164.010000,285.326000C164.516000,285.325000,164.771000,285.556000,164.771000,286.019000Z" fill="rgb(0,0,0)" stroke="none" stroke-width="1"/><path id="eutly7atnunj121" d="M178.184000,281.582000C178.184000,282.044000,177.953000,282.274000,177.491000,282.274000C174.649000,282.274000,172.396000,282.182000,170.732000,281.998000C170.316000,281.951000,170.108000,281.721000,170.108000,281.305000C170.108000,280.820000,170.316000,280.576000,170.732000,280.576000L171.113000,280.611000C172.384000,280.750000,174.256000,280.831000,176.728000,280.853000C176.543000,279.929000,176.104000,279.166000,175.411000,278.566000C174.718000,277.942000,173.920000,277.630000,173.019000,277.630000C171.771000,277.630000,170.731000,278.023000,169.899000,278.808000C169.044000,279.617000,168.617000,280.680000,168.617000,281.997000C168.617000,283.129000,169.068000,284.064000,169.969000,284.804000C170.801000,285.474000,171.795000,285.810000,172.950000,285.810000C173.458000,285.810000,174.048000,285.671000,174.718000,285.394000C175.365000,285.117000,175.769000,284.978000,175.931000,284.978000C176.347000,284.978000,176.555000,285.198000,176.555000,285.636000C176.555000,285.937000,176.440000,286.156000,176.208000,286.294000C175.284000,286.826000,174.198000,287.092000,172.950000,287.092000C171.448000,287.092000,170.154000,286.676000,169.068000,285.844000C167.866000,284.873000,167.265000,283.591000,167.265000,281.997000C167.265000,280.264000,167.820000,278.877000,168.929000,277.837000C170.038000,276.798000,171.401000,276.277000,173.019000,276.277000C174.452000,276.277000,175.688000,276.820000,176.727000,277.907000C177.699000,278.971000,178.184000,280.195000,178.184000,281.582000Z" fill="rgb(0,0,0)" stroke="none" stroke-width="1"/><path id="eutly7atnunj122" d="M191.805000,281.928000C191.805000,283.453000,191.285000,284.701000,190.245000,285.672000C189.205000,286.619000,187.946000,287.093000,186.467000,287.093000C184.850000,287.093000,183.533000,286.572000,182.516000,285.533000C181.522000,284.493000,181.026000,283.233000,181.026000,281.755000C181.026000,280.299000,181.523000,279.028000,182.516000,277.943000C183.487000,276.834000,184.781000,276.279000,186.398000,276.279000C187.161000,276.279000,187.912000,276.487000,188.651000,276.903000C188.905000,277.042000,189.032000,277.250000,189.032000,277.527000C189.032000,278.012000,188.813000,278.255000,188.374000,278.255000C188.305000,278.255000,188.154000,278.197000,187.923000,278.082000C187.391000,277.828000,186.883000,277.700000,186.398000,277.700000C185.243000,277.700000,184.307000,278.105000,183.591000,278.914000C182.875000,279.723000,182.516000,280.670000,182.516000,281.756000C182.516000,282.865000,182.886000,283.801000,183.625000,284.564000C184.341000,285.303000,185.289000,285.673000,186.467000,285.673000C187.553000,285.673000,188.454000,285.338000,189.171000,284.667000C189.934000,283.975000,190.315000,283.062000,190.315000,281.929000C190.315000,280.613000,190.014000,279.804000,189.414000,279.503000C189.090000,279.364000,188.929000,279.134000,188.929000,278.810000C188.929000,278.372000,189.160000,278.152000,189.622000,278.152000C189.738000,278.152000,189.853000,278.175000,189.969000,278.221000C191.193000,278.705000,191.805000,279.941000,191.805000,281.928000Z" fill="rgb(0,0,0)" stroke="none" stroke-width="1"/></g></g></g><g id="eutly7atnunj123"><path id="eutly7atnunj124" d="M275.400000,241.388000C275.400000,241.388000,246.528000,259.788000,279.748000,246.782000C279.748000,246.782000,289.143000,241.765000,283.182000,237.558000C283.182000,237.558000,286.130000,232.287000,280.614000,231.269000C280.614000,231.269000,282.174000,225.194000,275.851000,225.562000C275.851000,225.562000,279.596000,218.355000,268.914000,221.540000C258.232000,224.725000,243.386000,236.417000,268.312000,229.167000C268.312000,229.167000,235.403000,244.603000,271.282000,235.474000C271.282000,235.474000,264.099000,239.144000,259.309000,241.617000C254.254000,244.225000,254.296000,248.763000,260.923000,246.571000C264.350000,245.438000,270.293000,243.494000,275.400000,241.388000Z" fill="rgb(252,202,160)" stroke="none" stroke-width="1"/><path id="eutly7atnunj125" d="M106.222000,207.829000C106.222000,207.829000,117.490000,240.155000,112.469000,204.837000C112.469000,204.837000,109.749000,194.541000,104.283000,199.372000C104.283000,199.372000,99.832000,195.292000,97.573000,200.428000C97.573000,200.428000,92.018000,197.512000,90.924000,203.751000C90.924000,203.751000,84.769000,198.448000,85.412000,209.575000C86.056000,220.705000,94.022000,237.843000,92.698000,211.915000C92.698000,211.915000,100.152000,247.493000,99.518000,210.475000C99.518000,210.475000,101.437000,218.310000,102.743000,223.542000C104.121000,229.061000,108.542000,230.062000,107.935000,223.108000C107.620000,219.514000,107.099000,213.282000,106.222000,207.829000Z" fill="rgb(252,202,160)" stroke="none" stroke-width="1"/></g></g></g><g id="eutly7atnunj126_tr" transform="translate(179.079000,128.139703) rotate(-1.800000)"><g id="eutly7atnunj126" transform="translate(-179.079000,-128.139703)"><g id="eutly7atnunj127"><path id="eutly7atnunj128" d="M170.218000,125.550000C170.218000,125.550000,156.135000,122.739000,147.578000,93.740000C131.804000,54.961000,151.519000,30.938000,179.454000,28.672000C203.772000,26.700000,200.815000,32.286000,207.852000,38.444000C207.852000,38.444000,224.536000,44.923000,221.519000,72.051000C219.419000,90.923000,212.371000,107.213000,202.787000,117.402000C195.662000,124.975000,190.917000,128.336000,170.218000,125.550000Z" fill="rgb(95,57,8)" stroke="none" stroke-width="1"/><path id="eutly7atnunj129" d="M212.116000,59.941000C212.337000,60.588000,219.299000,104.718000,203.100000,121.069000C186.901000,137.420000,158.883000,127.743000,152.057000,110.983000C146.166000,96.518000,145.028000,69.262000,156.489000,52.606000C167.950000,35.948000,200.807000,26.779000,212.116000,59.941000Z" fill="rgb(252,202,160)" stroke="none" stroke-width="1"/><g id="eutly7atnunj130"><path id="eutly7atnunj131" d="M153.596000,88.233000C157.644000,94.637000,158.216000,104.959000,152.969000,108.274000C147.722000,111.592000,138.644000,106.647000,134.596000,100.245000C130.550000,93.841000,131.521000,85.961000,136.768000,82.645000C142.015000,79.329000,149.549000,81.831000,153.596000,88.233000Z" fill="rgb(252,202,160)" stroke="none" stroke-width="1"/><path id="eutly7atnunj132" d="M204.751000,89.798000C200.260000,95.898000,198.958000,106.152000,203.957000,109.832000C208.955000,113.514000,218.361000,109.225000,222.852000,103.125000C227.344000,97.025000,226.933000,89.098000,221.934000,85.416000C216.936000,81.736000,209.243000,83.698000,204.751000,89.798000Z" fill="rgb(252,202,160)" stroke="none" stroke-width="1"/><g id="eutly7atnunj133"><g id="eutly7atnunj134"><path id="eutly7atnunj135" d="M140.915000,91.339000C144.172000,91.556000,146.442000,94.299000,145.633000,97.568000C145.103000,99.711000,142.655000,99.464000,141.579000,97.946000C140.855000,96.926000,141.151000,95.844000,142.352000,95.486000C143.412000,95.170000,144.558000,95.651000,145.248000,96.452000C145.594000,96.853000,146.171000,96.270000,145.828000,95.872000C144.589000,94.434000,140.518000,93.771000,140.355000,96.532000C140.226000,98.731000,142.694000,100.578000,144.757000,99.804000C147.380000,98.820000,146.904000,94.646000,145.583000,92.850000C144.541000,91.434000,142.638000,90.634000,140.914000,90.519000C140.386000,90.483000,140.390000,91.304000,140.915000,91.339000L140.915000,91.339000Z" fill="rgb(170,105,48)" stroke="none" stroke-width="1"/></g></g><g id="eutly7atnunj136"><g id="eutly7atnunj137"><path id="eutly7atnunj138" d="M219.507000,92.639000C217.777000,92.754000,216.012000,93.543000,214.902000,94.887000C213.402000,96.702000,213.127000,100.697000,215.566000,101.883000C217.601000,102.872000,219.925000,100.910000,220.080000,98.885000C220.169000,97.711000,219.055000,96.976000,218.052000,96.765000C216.777000,96.498000,215.428000,97.024000,214.594000,97.992000C214.251000,98.390000,214.828000,98.973000,215.174000,98.572000C216.460000,97.080000,220.319000,97.241000,218.960000,99.875000C218.089000,101.563000,215.651000,101.839000,214.875000,99.952000C213.529000,96.677000,216.349000,93.669000,219.507000,93.459000C220.032000,93.424000,220.036000,92.604000,219.507000,92.639000L219.507000,92.639000Z" fill="rgb(170,105,48)" stroke="none" stroke-width="1"/></g></g></g><path id="eutly7atnunj139" d="M168.445000,63.341000C183.983000,61.716000,205.430000,59.047000,211.003000,50.690000C211.003000,50.690000,193.936000,23.977000,161.955000,42.926000C161.955000,42.926000,149.300000,48.795000,145.030000,73.858000C145.030000,73.858000,144.817000,83.705000,148.892000,82.567000C151.646000,81.797000,152.425000,70.653000,159.080000,63.999000C160.600000,63.685000,162.109000,62.102000,163.846000,61.861000C163.846000,61.861000,167.625000,60.384000,170.418000,58.740000C173.211000,57.099000,168.445000,63.341000,168.445000,63.341000Z" fill="rgb(95,57,8)" stroke="none" stroke-width="1"/></g><g id="eutly7atnunj140"><g id="eutly7atnunj141"><path id="eutly7atnunj142" d="M190.062000,72.951000C189.596000,78.103000,189.129000,83.256000,188.663000,88.408000C188.410000,91.205000,188.157000,94.002000,187.904000,96.799000C187.745000,98.559000,185.579000,98.081000,183.324000,98.522000C182.805000,98.624000,183.025000,99.414000,183.542000,99.313000C185.133000,99.002000,186.725000,98.691000,188.315000,98.381000C188.504000,98.344000,188.601000,98.158000,188.616000,97.985000C189.371000,89.640000,190.126000,81.296000,190.882000,72.951000C190.931000,72.424000,190.110000,72.428000,190.062000,72.951000L190.062000,72.951000Z" fill="rgb(170,105,48)" stroke="none" stroke-width="1"/></g></g><g id="eutly7atnunj143_ts" transform="translate(184.669246,89.678649) scale(1,1)"><g id="eutly7atnunj143" transform="translate(-184.669246,-89.678649)"><ellipse id="eutly7atnunj144" rx="1.924000" ry="2.750000" transform="matrix(0.99900000000000 -0.04400000000000 0.04400000000000 0.99900000000000 171.16668100000004 85.95285100000001)" fill="rgb(62,35,11)" stroke="none" stroke-width="1"/><ellipse id="eutly7atnunj145" rx="1.924000" ry="2.750000" transform="matrix(0.99900000000000 -0.04400000000000 0.04400000000000 0.99900000000000 198.03776500000004 86.85278400000001)" fill="rgb(62,35,11)" stroke="none" stroke-width="1"/></g></g><g id="eutly7atnunj146"><g id="eutly7atnunj147"><ellipse id="eutly7atnunj148" rx="5.960000" ry="4.814000" transform="matrix(1 0 0 1 201.89300000000000 101.95999999999999)" fill="rgb(239,130,103)" stroke="none" stroke-width="1"/></g><g id="eutly7atnunj149"><ellipse id="eutly7atnunj150" rx="5.960000" ry="4.814000" transform="matrix(1 0 0 1 162.72800000000001 101.16300000000000)" fill="rgb(239,130,103)" stroke="none" stroke-width="1"/></g></g><g id="eutly7atnunj151"><path id="eutly7atnunj152" d="M165.443000,73.058000C165.704000,74.427000,168.290000,73.746000,171.524000,73.127000C174.757000,72.509000,177.412000,72.189000,177.150000,70.822000C176.889000,69.453000,174.056000,68.844000,170.822000,69.462000C167.590000,70.081000,165.182000,71.690000,165.443000,73.058000Z" fill="rgb(62,35,11)" stroke="none" stroke-width="1"/><path id="eutly7atnunj153" d="M195.535000,72.170000C195.267000,73.535000,197.922000,73.868000,201.152000,74.500000C204.382000,75.133000,206.965000,75.827000,207.233000,74.459000C207.501000,73.092000,205.100000,71.472000,201.869000,70.839000C198.638000,70.208000,195.803000,70.803000,195.535000,72.170000Z" fill="rgb(62,35,11)" stroke="none" stroke-width="1"/></g><g id="eutly7atnunj154"><g id="eutly7atnunj155"><path id="eutly7atnunj156" d="M174.348000,105.862000C178.633000,113.738000,192.294000,114.860000,195.881000,105.764000C196.075000,105.271000,195.282000,105.060000,195.090000,105.546000C191.762000,113.984000,178.979000,112.659000,175.056000,105.448000C174.804000,104.983000,174.095000,105.397000,174.348000,105.862000L174.348000,105.862000Z" fill="rgb(170,105,48)" stroke="none" stroke-width="1"/></g></g><g id="eutly7atnunj157"><g id="eutly7atnunj158"><g id="eutly7atnunj159"><path id="eutly7atnunj160" d="M150.717000,91.191000C151.384000,99.999000,158.010000,106.297000,166.861000,106.423000C175.682000,106.548000,181.976000,98.536000,182.094000,90.280000C182.219000,81.458000,174.208000,75.165000,165.950000,75.047000C157.128000,74.922000,150.835000,82.934000,150.717000,91.191000C150.702000,92.250000,152.342000,92.248000,152.358000,91.191000C152.616000,73.066000,179.086000,72.189000,180.454000,90.280000C181.050000,98.164000,174.243000,104.224000,166.862000,104.782000C158.978000,105.378000,152.917000,98.571000,152.359000,91.190000C152.279000,90.144000,150.638000,90.136000,150.717000,91.191000Z" fill="rgb(82,71,64)" stroke="none" stroke-width="1"/></g></g><g id="eutly7atnunj161"><g id="eutly7atnunj162"><path id="eutly7atnunj163" d="M190.691000,89.967000C191.357000,98.775000,197.983000,105.073000,206.835000,105.199000C215.656000,105.324000,221.950000,97.312000,222.067000,89.056000C222.193000,80.234000,214.181000,73.941000,205.924000,73.823000C197.102000,73.698000,190.809000,81.710000,190.691000,89.967000C190.676000,91.026000,192.316000,91.024000,192.332000,89.967000C192.590000,71.842000,219.058000,70.965000,220.427000,89.056000C221.024000,96.939000,214.216000,103,206.835000,103.558000C198.951000,104.154000,192.890000,97.347000,192.332000,89.966000C192.253000,88.919000,190.612000,88.912000,190.691000,89.967000Z" fill="rgb(82,71,64)" stroke="none" stroke-width="1"/></g></g><g id="eutly7atnunj164"><g id="eutly7atnunj165"><path id="eutly7atnunj166" d="M181.854000,90.861000C184.407000,88.169000,188.125000,88.335000,190.936000,90.548000C191.757000,91.194000,192.927000,90.042000,192.096000,89.388000C188.609000,86.643000,183.922000,86.299000,180.694000,89.701000C179.966000,90.468000,181.125000,91.630000,181.854000,90.861000L181.854000,90.861000Z" fill="rgb(82,71,64)" stroke="none" stroke-width="1"/></g></g></g></g></g></g></svg>