<?xml version="1.0" encoding="utf-8"?>
<!-- Generator: Adobe Illustrator 16.0.0, SVG Export Plug-In . SVG Version: 6.00 Build 0)  -->
<!DOCTYPE svg PUBLIC "-//W3C//DTD SVG 1.1//EN" "http://www.w3.org/Graphics/SVG/1.1/DTD/svg11.dtd">
<svg version="1.1" id="圖層_1" xmlns="http://www.w3.org/2000/svg" xmlns:xlink="http://www.w3.org/1999/xlink" x="0px" y="0px"
	 width="480px" height="580px" viewBox="0 0 480 580" enable-background="new 0 0 480 580" xml:space="preserve">
<g opacity="0.4">
	<defs>
		<rect id="SVGID_7_" y="394.493" opacity="0.4" width="480" height="185.507"/>
	</defs>
	<clipPath id="SVGID_2_">
		<use xlink:href="#SVGID_7_"  overflow="visible"/>
	</clipPath>
	<g clip-path="url(#SVGID_2_)">
		<path fill="#FFFFFF" d="M482.552,447.709v80.805l-14.84,0.458l-8.342,0.263l-16.682,0.518l-3.162,0.099l-3.089,0.1l-2.957,0.092
			l-9.527,0.295l-1.744,0.058l-0.828,0.021l-4.235,0.137l-1.574,0.045l-8.577,0.27l-20.002,0.623l-11.581,0.36l-2.257,0.066
			l-0.484,0.019l-5.626,0.17l-6.006,0.191l-13.936,0.434l-2.86,0.092l-12.401,0.387l-7.724,0.235l-0.832,0.027l-15.511,0.484
			l-0.801,0.025l-5.914,0.185l-1.068,0.032l-10.399,0.321l-0.416,0.013l-15.92,0.5l-0.335,0.005l-4.467,0.14l-1.805,0.058
			l-11.914,0.374l-1.561,0.046l-7.293,0.231l-3.874,0.117l-117.85,3.671l-4.401,0.13l-20.585,0.645l-3.516,0.111l-1.841,0.059
			l-42.534,1.319l-1.239,0.038l-5.89,0.184l-0.897,0.034l-2.159,0.065l-1.166,0.032l-3.278,0.104l-3.877,0.118l-5.226,0.165
			l-1.312,0.04l-12.361,0.384l-23.154,0.723v-48.009c0,0,11.016-17.713,26.066-9.18c1.129-1.235,2.342-2.35,3.62-3.346
			c12.669-9.844,31.936-8.013,42.462,3.745c1.352,1.501,2.551,3.166,3.58,4.988c0,0,0.865-1.808,2.518-3.889
			c2.244-2.806,5.915-6.104,10.84-6.085c0.971,0.007,1.994,0.145,3.056,0.435c-5.231-18.723,19.942-27.886,30.093-15.268
			c6.54-19.812,41.873-39.332,62.148-16.485c22.245-16.407,56.268,5.776,41.873,35.904c20.283-8.48,19.659,3.803,19.659,3.803
			s13.05-24.062,32.022-20.14c0-20.468,36.815-42.966,58.364-19.489c1.861,2.031,3.612,4.4,5.213,7.147
			c4.671-8.472,9.482-12.998,13.627-15.371c6.485-3.718,11.318-2.151,11.318-2.151s-1.199-24.972,22.2-22.086
			c5.729-20.667,59.443-36.682,62.028,12.545c16.322-0.499,17.562,14.316,17.562,14.316S472.054,433.615,482.552,447.709z"/>
		<g>
			<path fill="#E6CFED" d="M482.552,486.637v102.352H-9.279v-131.03c0,0,30.295-14.708,50.75-2.164
				c9.273,5.693,16.42,15.962,22.893,25.562c0.971,1.449,1.936,2.879,2.879,4.274c0.164,0.236,0.321,0.475,0.485,0.709
				c0.414,0.604,0.826,1.207,1.239,1.796c5.365,7.714,10.506,13.989,16.355,15.491c0.695,0.177,1.404,0.288,2.118,0.329
				c1.023,0.05,2.046,0,3.062-0.146h0.007c4.066-0.584,8.099-2.684,12.125-5.601c1.752-1.268,3.496-2.691,5.246-4.212
				c6.217-5.395,12.467-12.019,18.88-17.332c6.531-5.402,13.228-9.448,20.231-9.448c20.224,0,40.842,35.09,62.527,34.999
				c1.449-0.006,2.898-0.171,4.361-0.513c9.2-2.155,20.368,1.902,32.514,7.188c5.036,2.19,10.242,4.592,15.549,6.855
				c5.056,2.15,10.202,4.167,15.377,5.749c3.129,0.957,6.269,1.758,9.412,2.321c1.565,0.29,3.134,0.513,4.693,0.669
				c4.099,0.435,8.177,0.413,12.225-0.21c1.114-0.169,2.23-0.392,3.338-0.662c0.334-0.078,0.674-0.164,1.01-0.257
				c4.826-1.283,9.574-3.534,14.191-6.989c0.846-0.637,1.684-1.311,2.523-2.033c3.759-3.225,7.576-6.623,11.438-10.126
				c5.541-5.022,11.169-10.255,16.827-15.463c0.125-0.111,0.243-0.223,0.366-0.334c1.352-1.246,2.702-2.485,4.053-3.72
				c2.736-2.504,5.476-4.982,8.211-7.422c1.332-1.187,2.663-2.359,3.987-3.521c0.229-0.197,0.452-0.394,0.675-0.584
				c2.802-2.439,5.588-4.812,8.362-7.095c2.517-2.072,5.022-4.073,7.515-5.973c5.744-4.395,11.404-8.283,16.919-11.431
				c11.345-6.468,22.081-9.771,31.694-7.752c12.984,2.734,23.516,11.286,31.352,20.258
				C476.867,473.499,482.552,486.637,482.552,486.637z"/>
			<path opacity="0.1" fill="#9D56A0" d="M323.285,533.472c0.005,5.102-0.619,10.203-2.172,14.853
				c-1.593,4.796-4.17,9.116-8.052,12.465c-0.021,0.015-0.033,0.033-0.053,0.046c-5.148,4.428-11.87,6.493-18.513,7.957
				c-0.23,0.051-0.46,0.099-0.69,0.148c-0.188,0.041-0.387,0.086-0.576,0.12c-3.213,0.681-6.445,1.264-9.699,1.782
				c-3.146,0.5-6.302,0.94-9.47,1.338c-3.62,0.461-7.247,0.873-10.878,1.279c-2.237,0.25-4.467,0.498-6.703,0.748
				c-0.013,0-0.026,0.007-0.039,0.007c-0.053,0.007-0.104,0.013-0.157,0.019c-3.331,0.375-6.663,0.768-9.982,1.199
				c-0.314,0.047-0.628,0.087-0.949,0.126c-2.65,0.36-5.292,0.747-7.922,1.18c-2.288,0.382-4.57,0.794-6.84,1.254
				c-0.918,0.183-1.842,0.379-2.754,0.583c-0.111,0.021-0.225,0.046-0.328,0.072c-1.128,0.242-2.244,0.505-3.357,0.78v0.007
				c-1.103,0.268-2.197,0.551-3.285,0.852c-1.85,0.505-3.686,1.057-5.516,1.653c-1.66,0.543-3.312,1.121-4.951,1.751
				c-0.537,0.203-1.076,0.412-1.613,0.628c-3.259,1.313-6.433,2.79-9.553,4.375c-0.198,0.099-0.389,0.196-0.586,0.295H-9.279
				v-77.499c3.666,1.777,7.096,4.484,9.992,7.298c4.678,4.538,9.273,9.752,14.92,12.677c1.744,0.905,3.588,1.587,5.561,1.968
				c1.699,0.327,3.377,0.406,5.043,0.301c0.407-0.026,0.814-0.064,1.22-0.11c2.63-0.315,5.228-1.068,7.812-2.04
				c1.055-0.395,2.105-0.826,3.16-1.286c4.557-1.961,9.109-4.314,13.783-5.803c0.801-0.256,1.615-0.486,2.421-0.676
				c2.118-0.524,4.263-0.819,6.453-0.786c7.397,0.117,14.8,4.078,21.923,2.06c3.135-0.892,5.816-2.86,8.485-4.775
				c0.414-0.301,0.833-0.596,1.247-0.892c1.789-1.253,3.671-2.419,5.619-3.476c4.859-2.636,10.145-4.577,15.502-5.469
				c6.23-1.024,12.552-0.631,18.421,1.764c14.696,6.005,24.343,23.372,40.199,24.211c12.833,0.683,23.798-10.146,36.625-10.913
				c8.8-0.524,17.063,3.734,25.313,6.833c2.545,0.959,5.121,1.805,7.731,2.533c1.241,0.354,2.479,0.682,3.73,0.979
				c2.422,0.581,4.859,1.072,7.318,1.468c0.538,0.099,1.082,0.177,1.628,0.256c4.163,0.616,8.373,0.964,12.583,1.056
				c0.551,0.013,1.108,0.019,1.659,0.019c3.825,0.028,7.654-0.156,11.463-0.556c1.995-0.205,3.975-0.474,5.948-0.795
				c0.899-0.144,1.796-0.301,2.689-0.479c1.043-0.189,2.086-0.404,3.127-0.636c2.591-0.57,5.154-1.245,7.693-2.02
				c0.386-0.117,0.773-0.236,1.153-0.36c1.961-0.616,3.903-1.298,5.823-2.039c0.287-0.112,0.57-0.224,0.859-0.341
				c5.122-2.021,10.073-4.475,14.786-7.339C323.027,527.162,323.276,530.315,323.285,533.472z"/>
			<path fill="#F8F8F8" d="M90.503,503.811c-1.495,0.898-3.017,1.751-4.558,2.557c-0.951,0.505-1.908,0.991-2.879,1.455
				c-6.826,3.294-14.485,5.807-21.909,4.278c-1.325-0.275-2.629-0.717-3.876-1.307c-5.718-2.688-10.139-8.387-9.403-14.571
				c0.321-2.701,1.567-5.325,1.265-8.033c-0.642-5.777-7.784-8.485-13.555-7.855c-5.127,0.563-10.078,2.707-15.181,2.957
				c-0.644,0.032-1.292,0.037-1.94,0c-5.805-0.327-12.002-5.816-9.831-11.207c0.8-1.98,2.609-3.601,2.735-5.739
				c0.254-4.497-6.243-5.58-10.658-4.676c-3.377,0.689-6.708,1.562-9.992,2.604v-6.314c0,0,30.295-14.708,50.75-2.164
				c9.273,5.693,16.42,15.962,22.893,25.562c0.971,1.449,1.936,2.879,2.879,4.274c0.164,0.236,0.321,0.475,0.485,0.709
				c0.414,0.604,0.826,1.207,1.239,1.796c5.365,7.714,10.506,13.989,16.355,15.491c0.695,0.177,1.404,0.288,2.118,0.329
				C88.464,504.006,89.486,503.956,90.503,503.811z"/>
			<path fill="#F8F8F8" d="M209.52,502.217c-8.157,4.86-18.716,3.717-28.264,2.354c-4.098-0.589-8.381-1.252-11.719-3.712
				c-3.463-2.545-5.363-6.635-8.006-10.033c-2.645-3.39-6.927-6.321-11.013-4.99c-5.771,1.869-8.708,11.267-14.511,9.51
				c-3.122-0.944-4.289-4.834-4.041-8.086c0.25-3.245,1.404-6.48,0.893-9.699c-2.065,0.241-4.191-0.072-6.099-0.894
				c6.531-5.402,13.228-9.448,20.231-9.448C167.216,467.218,187.834,502.308,209.52,502.217z"/>
			<path fill="#F8F8F8" d="M466.111,461.173c-4.918,1.632-9.973,2.287-14.669,0.346c-4.906-2.032-9.864-6.808-14.63-4.466
				c-4.899,2.408-4.134,9.968-7.869,13.942c-2.355,2.512-6.033,3.115-9.371,3.942c-14.114,3.501-28.245,14.224-43.406,9.723
				c-4.919-1.454-8.335-4.077-10.559-7.39c24.796-22.093,49.359-40.52,69.152-36.355
				C447.744,443.649,458.275,452.201,466.111,461.173z"/>
		</g>
	</g>
	<g clip-path="url(#SVGID_2_)">
		<path fill="#246887" d="M319.959,551.812l-7.112-0.929l6.801-1.131c-0.988-6.547-1.962-12.802-2.784-17.767l-4.99-1.709h4.7
			c-0.438-2.581-0.824-4.729-1.141-6.272c-0.854-4.175-2.345-9.091-3.957-13.799l-4.02-1.106l3.563-0.21
			c-3.155-9.009-6.583-16.924-6.583-16.924s-2.499,7.911-5.458,20.409v0.004l5.458,2.597l-6.417,1.547
			c-0.969,4.286-1.957,9-2.911,14.039l5.442-2.278l-5.985,5.232c-3.03,16.809-5.484,36.823-5.062,56.32c26.256,0,35.956,0,35.956,0
			S322.696,570.097,319.959,551.812z"/>
		<path fill="#246887" d="M427.954,551.812l-7.112-0.929l6.801-1.131c-0.988-6.547-1.962-12.802-2.784-17.767l-4.99-1.709h4.7
			c-0.438-2.581-0.824-4.729-1.141-6.272c-0.854-4.175-2.345-9.091-3.957-13.799l-4.02-1.106l3.563-0.21
			c-3.155-9.009-6.583-16.924-6.583-16.924s-2.499,7.911-5.458,20.409v0.004l5.458,2.597l-6.417,1.547
			c-0.969,4.286-1.957,9-2.911,14.039l5.442-2.278l-5.985,5.232c-3.03,16.809-5.484,36.823-5.062,56.32c26.256,0,35.956,0,35.956,0
			S430.691,570.097,427.954,551.812z"/>
		<path fill="#246887" d="M81.172,519.407l6.912-3.116c-2.835-13.646-6.002-26.981-9.375-37.938l-6.839-1.981l5.938-0.855
			c-2.035-6.287-4.256-18.481-6.398-22.501c-2.751,6.782-5.25,21.839-7.696,30.852l5.039,2.519l-5.646-0.248
			c-1.335,5.046-2.617,10.307-3.843,15.669l9.119,6.062l-10.168-1.373c-8.831,40.15-14.381,83.986-14.381,83.986l63.568,6.316
			c0,0-8.811-41.763-16.274-78.278L81.172,519.407z"/>
		<path fill="#247CA7" d="M445.501,521.094l8.205-5.693c-2.834-12.966-5.937-25.616-9.121-35.983l-5.721-1.61l4.876-1.069
			c-1.909-5.942-3.842-11.014-5.76-14.778c-2.027,6.617-3.889,14.633-5.581,23.379l4.254,2.201h-4.673
			c-0.921,4.894-1.789,9.991-2.605,15.186l3.461,1.176l-4.159,3.364c-5.838,38.867-8.833,81.132-8.833,81.132h47.332
			c0,0-5.511-36.145-13-70.839L445.501,521.094z"/>
		<path opacity="0.2" fill="#67A2A0" d="M253.902,517.09l2.588,57.421C256.49,574.511,251.285,544.904,253.902,517.09z"/>
		<path opacity="0.2" fill="#67A2A0" d="M421.383,487.82v53.973C421.383,541.793,424.347,512.244,421.383,487.82z"/>
		<path fill="#247CA7" d="M32.34,545.386l8.205-5.693c-2.836-12.965-5.938-25.617-9.121-35.982l-5.72-1.611l4.875-1.069
			c-1.909-5.942-3.843-11.015-5.76-14.778c-2.026,6.618-3.888,14.635-5.581,23.378l4.254,2.201h-4.673
			c-0.921,4.896-1.788,9.993-2.605,15.186l3.46,1.176l-4.157,3.365c-5.839,38.867-8.833,81.132-8.833,81.132h47.332
			c0,0-5.512-36.143-13.002-70.838L32.34,545.386z"/>
		<path opacity="0.2" fill="#67A2A0" d="M26.236,516.118v53.97C26.236,570.088,29.2,540.539,26.236,516.118z"/>
		<path fill="#2B87BE" d="M332.059,512.981l-10.151-2.222c2.824-13.791,5.911-27.246,9.081-38.27l5.696-1.713l-4.855-1.14
			c1.901-6.32,3.827-11.714,5.737-15.718c2.017,7.04,3.871,15.564,5.555,24.864l-4.235,2.344h4.653
			c0.916,5.204,1.781,10.627,2.596,16.151l-7.09,3.088l7.783,1.739c5.813,41.339,8.795,86.29,8.795,86.29h-47.127
			c0,0,5.488-38.442,12.943-75.342L332.059,512.981z"/>
		<path fill="#247CA7" d="M379.896,542.817l-7.733-1.179l7.396-1.434c-1.075-8.308-2.135-16.246-3.03-22.546l-5.423-2.168h5.11
			c-0.476-3.274-0.898-6.003-1.242-7.959c-0.928-5.297-2.549-11.534-4.302-17.511l-4.371-1.402l3.876-0.268
			c-3.431-11.432-7.161-21.475-7.161-21.475s-2.717,10.039-5.934,25.898v0.004l5.934,3.295l-6.977,1.963
			c-1.055,5.438-2.128,11.419-3.168,17.812l5.922-2.887l-6.51,6.638c-3.295,21.329-5.965,46.726-5.506,71.466
			c28.551,0,39.1,0,39.1,0S382.873,566.019,379.896,542.817z"/>
		<path opacity="0.2" fill="#67A2A0" d="M308.856,482.588l-1.597,75.598C307.26,558.186,305.949,501.487,308.856,482.588z"/>
		<path fill="#2B87BE" d="M40.611,530.16l-10.151-2.222c2.821-13.791,5.91-27.245,9.081-38.271l5.695-1.714l-4.854-1.137
			c1.901-6.321,3.827-11.715,5.735-15.719c2.018,7.039,3.871,15.565,5.557,24.864l-4.236,2.344h4.654
			c0.916,5.204,1.78,10.627,2.594,16.149l-7.088,3.091l7.781,1.738c5.814,41.341,8.797,86.29,8.797,86.29H17.048
			c0,0,5.487-38.44,12.944-75.341L40.611,530.16z"/>
		<path opacity="0.2" fill="#67A2A0" d="M44.422,529.269l-1.596,75.6C42.826,604.868,41.516,548.168,44.422,529.269z"/>
		<path fill="#2B87BE" d="M121.006,548.03l-7.112-0.927l6.8-1.132c-0.986-6.547-1.959-12.801-2.785-17.767l-4.988-1.708h4.699
			c-0.435-2.582-0.823-4.731-1.14-6.273c-0.854-4.175-2.345-9.091-3.958-13.799l-4.018-1.105l3.563-0.21
			c-3.155-9.009-6.585-16.923-6.585-16.923s-2.498,7.91-5.456,20.408v0.003l5.456,2.599l-6.414,1.546
			c-0.97,4.285-1.957,8.999-2.912,14.037l5.81,2.269l-6.352,0.688c-3.031,16.807-5.485,36.821-5.063,56.318
			c26.255,0,35.956,0,35.956,0S123.744,566.315,121.006,548.03z"/>
	</g>
	<path clip-path="url(#SVGID_2_)" fill="#4CADD7" d="M482.552,556.658v32.33H241.835c0,0,0.225-1.822,0.854-4.596
		c0.525-2.354,1.346-5.392,2.565-8.591c0.031-0.078,0.064-0.165,0.098-0.243c0.827-2.132,1.83-4.329,3.041-6.439
		c1.681-2.912,3.76-5.646,6.329-7.812c0.368-0.306,0.742-0.608,1.136-0.89c2.55-1.882,5.554-3.2,9.069-3.614
		c0.78-0.098,1.593-0.145,2.426-0.145c-0.406-3.672,0.314-6.885,1.837-9.606c2.313-4.138,6.479-7.141,11.344-8.924
		c1.462-0.539,2.99-0.967,4.546-1.28c0.124-0.026,0.247-0.047,0.372-0.072c1.26-0.235,2.538-0.4,3.823-0.484
		c0.067-0.014,0.132-0.014,0.197-0.014c0.944-0.064,1.888-0.086,2.826-0.06c2.729,0.06,5.411,0.467,7.896,1.239
		c2.544,0.788,4.877,1.955,6.819,3.518c0.21,0.161,0.407,0.331,0.604,0.51c2.465,2.17,4.223,5.037,4.872,8.63
		c4.282-2.519,6.958-2.622,8.624-1.79c2.669,1.318,2.775,5.003,2.775,5.003s0.49-1.81,1.774-4.387
		c1.109-2.216,2.801-5.01,5.28-7.713c3.087-3.377,7.396-6.608,13.299-8.405c0.938-0.289,1.908-0.538,2.926-0.749
		c2.741-0.556,5.783-0.82,9.153-0.681c0.63-2.965,1.87-5.619,3.548-7.916c1.324-1.823,2.932-3.423,4.716-4.768
		c2.184-1.646,4.629-2.911,7.187-3.75c0.414-0.139,0.833-0.263,1.26-0.374c1.487-0.405,3.01-0.671,4.518-0.762
		c3.077-0.217,6.127,0.217,8.866,1.371c3.954,1.658,7.273,4.82,9.162,9.711c5.29-4.438,9.435-4.74,12.557-3.344
		c4.296,1.928,6.663,7.058,7.438,9.036c0.197,0.499,0.288,0.795,0.288,0.795s0.46-0.362,1.286-0.84
		c0.964-0.571,2.433-1.312,4.235-1.844c0.302-0.09,0.61-0.176,0.926-0.248c0.393-0.098,0.798-0.177,1.213-0.242
		c2.911-0.473,6.388-0.236,9.961,1.823c0.662,0.38,1.34,0.832,2.006,1.351c0.296-0.512,0.617-0.998,0.951-1.442
		c0.768-1.009,1.64-1.856,2.598-2.559c1.291-0.943,2.734-1.618,4.263-2.032c5.264-1.456,11.535,0.104,16.072,3.875
		c6.256,5.199,9.201,14.611,1.627,26.119c8.505,0,10.473,7.18,10.473,7.18s0.367-1.959,2.321-3.617
		C475.404,557.538,478.101,556.364,482.552,556.658z"/>
	<path clip-path="url(#SVGID_2_)" fill="#4CADD7" d="M260.448,582.831c-1.34,0.551-2.604,1.068-3.799,1.562
		c-4.76,1.96-8.394,3.456-11.16,4.596c-0.025,0.008-0.06,0.021-0.085,0.033c-0.42,0.17-0.819,0.334-1.2,0.494
		c-0.893,0.365-1.678,0.692-2.374,0.975c-5.227,2.151-5.227,2.151-5.227,2.151l-1.489-0.02h-0.046l-0.328-0.007l-5.486-0.084
		l-5.045-0.073l-7.862-0.118l-6.388-0.091l-11.816-0.178l-5.227-0.079l-0.361-0.006l-24.48-0.361l-40.396-0.604l-16.793-0.248
		l-3.043-0.048l-0.381-0.005l-1.344-0.021l-15.023-0.222l-30.396-0.444l-10.445-0.159l-6.336-0.092l-0.768-0.013l-0.551-0.006
		l-18.898-0.284l-15.03-0.223l-17.948-0.269V560.98c0,0,8.859-9.85,21.581-5.64c1.036,0.342,2.091,0.778,3.174,1.317
		c1.128-5.9,5.751-9.147,10.761-9.816c0.42-0.059,0.84-0.092,1.26-0.11c1.442-0.071,2.893,0.07,4.275,0.413
		c4.689,1.167,8.676,4.688,9.221,10.492c0.596-0.479,1.174-0.899,1.744-1.272c0,0,0,0,0.006,0c0.381-0.249,0.754-0.473,1.123-0.677
		c0.006-0.005,0.012-0.005,0.02-0.005c1.953-1.069,3.73-1.516,5.33-1.536c3.548-0.057,6.217,1.956,7.916,3.804
		c1.436,1.575,2.176,3.03,2.176,3.03s8.645-19.758,33.715-14.774c0.741,0.144,1.496,0.315,2.27,0.505
		c0.32-0.885,0.693-1.725,1.12-2.505c0.768-1.416,1.698-2.668,2.761-3.758c5.24-5.402,13.535-6.789,20.055-4.04
		c1.816,0.762,3.494,1.842,4.932,3.266c3.188,3.124,5.174,7.857,4.793,14.217c-0.007,0.243-0.026,0.487-0.053,0.735
		c-0.014,0.222-0.033,0.445-0.064,0.669c-0.045,0.445-0.105,0.905-0.178,1.363c14.395-2.615,16.355,7.851,16.355,7.851
		s8.309-13.346,23.018-10.466c0.189-1.928,0.949-3.726,2.15-5.357c10.223-13.87,52.784-15.784,57.06,15.823
		c11.979,0.656,9.922,7.2,9.922,7.2s0.282-0.19,0.78-0.474c1.691-0.943,5.914-2.923,10.451-2.116
		c2.369,0.42,4.829,1.599,7.046,4.093c0.287,0.319,0.569,0.655,0.845,1.021c1.501,1.974,2.88,4.61,4.008,8.106
		C260.342,582.503,260.395,582.669,260.448,582.831z"/>
	<path clip-path="url(#SVGID_2_)" fill="#2B87BE" d="M482.552,566.843v22.146H-9.279v-19.463c0,0,8.124-4.274,20.709-6.813
		c4.439-0.9,9.424-1.575,14.807-1.776c0.23-0.009,0.466-0.013,0.695-0.021c0.676-0.02,1.352-0.031,2.033-0.039
		c4.355-0.025,8.938,0.275,13.673,1.035c0.36,0.06,0.728,0.118,1.089,0.178c0.492,0.092,0.984,0.175,1.476,0.274
		c0.866,0.165,1.737,0.349,2.609,0.553c3.384,0.773,6.82,1.79,10.296,3.101c2.643,0.996,5.299,2.157,7.961,3.509
		c6.656-13.168,18.415-13.751,25.34-8.467c4.032,3.075,6.42,8.146,5.193,13.878c2.04-0.958,3.987-1.548,5.822-1.851
		c5.733-0.957,10.434,0.833,13.674,2.833c0.098,0.053,0.189,0.111,0.281,0.17v0.009h0.008c0.518,0.326,0.996,0.654,1.43,0.977
		c0.873,0.655,1.58,1.271,2.104,1.77c0.722,0.688,1.103,1.148,1.103,1.148s0.897-0.479,2.537-1.214
		c0.524-0.243,1.135-0.506,1.81-0.786c8.893-3.726,30.159-10.756,51.938-4.166c-1.796-18.322,20.632-21.947,30.284-15.336
		c0.099,0.064,0.189,0.123,0.275,0.195c0.301,0.211,0.584,0.439,0.852,0.675c1.254,1.09,2.198,2.395,2.716,3.908
		c0.368,1.05,0.524,2.203,0.433,3.45c0.701-0.007,1.377,0.013,2.033,0.053c1.2,0.071,2.32,0.208,3.364,0.419
		c0.833,0.158,1.612,0.36,2.348,0.59c1.048,0.336,2,0.729,2.878,1.18c0.171,0.088,0.342,0.18,0.514,0.271
		c4.223,2.348,6.432,5.901,7.586,8.762c1.043,2.597,1.215,4.617,1.215,4.617s2.012-1.451,5.389-3.233
		c2.177-1.155,4.918-2.447,8.061-3.574c0.342-0.125,0.694-0.251,1.047-0.369c2.801-0.949,5.884-1.755,9.138-2.221
		c0.273-0.042,0.55-0.073,0.825-0.112c0.053-0.008,0.11-0.014,0.163-0.021c2.206-0.261,4.485-0.366,6.802-0.248
		c0.767,0.032,1.533,0.098,2.307,0.183c-0.543-5.638,2.688-9.634,6.61-11.122c4.441-1.691,9.767-0.17,11.425,5.824
		c0.157-0.032,0.309-0.061,0.458-0.079c4.06-0.708,7.029,0.047,9.201,1.424c0.538,0.348,1.029,0.733,1.476,1.141
		c3.566,3.285,4.211,8.248,4.211,8.248s6.845-14.098,23.423-18.483c1.358-0.362,2.773-0.656,4.262-0.866
		c0.927-0.146,1.884-0.251,2.867-0.316c1.928-0.144,3.954-0.15,6.093-0.006c0.863,0.059,1.745,0.139,2.642,0.25
		c0.211-0.191,0.419-0.367,0.63-0.537c0.006,0,0.006-0.009,0.006-0.009c2.099-1.698,4.329-2.623,6.5-3.062
		c4.898-0.982,9.501,0.531,11.666,1.444c0.82,0.346,1.291,0.604,1.291,0.604s0.105-0.282,0.335-0.755
		c0.61-1.24,2.08-3.791,4.768-5.942c1.628-1.291,3.686-2.445,6.276-3.074c1.252-0.31,2.63-0.494,4.144-0.513
		c0.322,0,0.655,0,0.999,0.014c0.609-4.453,5.664-9.187,12.662-11.91c5.58-2.176,12.399-3.081,19.181-1.554
		c5.109,1.142,10.196,3.667,14.722,8.054c1.188,1.155,2.336,2.433,3.438,3.85c0.67-0.367,1.337-0.696,1.999-0.99
		c5.161-2.27,10.087-2.297,14.095-0.743c0.49,0.185,0.969,0.396,1.428,0.632c7.063,3.58,10.644,12.36,6.362,21.857
		c11.384-0.894,14.949,7.816,14.949,7.816s4.421-5.043,11.693-6.84C477.508,566.837,479.922,566.589,482.552,566.843z"/>
	<path opacity="0.2" clip-path="url(#SVGID_2_)" fill="#67A2A0" d="M336.698,588.991c0,0,4.979-10.444,20.479-8.631
		c-2.814-14.541,7.126-17.693,13.405-14.021c1.302-3.672,6.042-1.403,6.042-1.403s0.948-10.444,11.255-8.549
		c6.639-7.582,25.711-6.16,25.83,8.529c6.517,0.238,6.28,5.518,6.28,5.518s4.857-5.161,9.596-2.674
		c2.845-7.345,16.47-2.962,12.56,6.991c5.807-0.237,7.7,5.687,6.516,8.885c7.346-1.422,11.61,5.452,11.61,5.452L336.698,588.991z"/>
	<path opacity="0.2" clip-path="url(#SVGID_2_)" fill="#67A2A0" d="M325.795,588.935c0,0,0.436-7.852-7.196-7.415
		c-1.745-7.85-12.213-5.233-11.777,2.181c-11.121-2.181-18.1,5.388-18.1,5.388L325.795,588.935z"/>
	<path opacity="0.2" clip-path="url(#SVGID_2_)" fill="#67A2A0" d="M102.3,589.088l-10.701-0.008L60.6,589.049l-10.492-0.007
		l-6.086-0.008h-1.43l-18.808-0.019l-15.089-0.014l-17.975-0.014v-9.062c0,0,11.377-0.879,18.734,1.207
		c1.574,0.444,2.965,1.028,4.02,1.783c4.303-5.424,8.768-5.115,12.027-3.62c2.905,1.337,4.847,3.62,4.847,3.62
		s5.345-6.31,12.185-7.805c0.302-0.072,0.609-0.131,0.924-0.17c0.834-0.132,1.686-0.177,2.552-0.132
		c0.524,0.025,1.056,0.086,1.587,0.19c2.118,0.407,4.287,1.432,6.42,3.351c1.68-0.825,3.476-1.343,5.305-1.593
		c8.57-1.168,17.857,3.605,18.959,10.303c3.521-2.341,8.066-2.487,12.256-1.818c0.945,0.151,1.869,0.348,2.762,0.565
		c0.328,0.079,0.648,0.164,0.963,0.249c3.936,1.061,7.051,2.538,7.844,2.931C102.235,589.055,102.3,589.088,102.3,589.088z"/>
	<g clip-path="url(#SVGID_2_)">
		<path fill="#4C8E67" d="M373.299,506.041c-6.496,0-52.765,81.924-52.765,81.924h105.529
			C426.063,587.965,379.796,506.041,373.299,506.041z"/>
		<path fill="#FFFFFF" d="M363.626,522.839c0,0-1.371,6.629,2.74,7.954c4.117,1.329,6.213-7.808,6.213-7.808s3.03,8.768,7.363,7.663
			c4.327-1.106,1.442-8.694,1.442-8.694s3.059,7.331,8.662,5.607c-7.896-12.275-14.566-21.521-16.748-21.521
			c-2.308,0-9.619,10.314-18.095,23.624C358.239,530.475,363.626,522.839,363.626,522.839z"/>
	</g>
	<g clip-path="url(#SVGID_2_)">
		<path fill="#4C8E67" d="M56.201,506.041c-6.496,0-52.764,81.924-52.764,81.924h105.527
			C108.965,587.965,62.697,506.041,56.201,506.041z"/>
		<path fill="#FFFFFF" d="M46.527,522.839c0,0-1.371,6.629,2.742,7.954c4.116,1.329,6.211-7.808,6.211-7.808
			s3.033,8.768,7.364,7.663c4.328-1.106,1.441-8.694,1.441-8.694s3.06,7.331,8.663,5.607c-7.896-12.275-14.566-21.521-16.748-21.521
			c-2.309,0-9.619,10.314-18.095,23.624C41.143,530.475,46.527,522.839,46.527,522.839z"/>
	</g>
	<g clip-path="url(#SVGID_2_)">
		<path fill="#61BB98" d="M318.316,517.718c-5.395,0-43.82,68.04-43.82,68.04h87.642
			C362.138,585.758,323.715,517.718,318.316,517.718z"/>
		<path fill="#FFFFFF" d="M310.285,530.45c0,0-1.139,5.507,2.275,6.606c3.419,1.101,5.159-6.483,5.159-6.483
			s2.516,7.277,6.111,6.362c3.598-0.919,1.201-7.219,1.201-7.219s2.541,6.085,7.193,4.656
			c-6.556-10.193-12.097-17.874-13.909-17.874c-1.915,0-7.985,8.565-15.026,19.621C305.811,536.794,310.285,530.45,310.285,530.45z"
			/>
	</g>
	<g clip-path="url(#SVGID_2_)">
		<path fill="#F5CA5F" d="M374.349,588.105c6.608-15.553,29.965-36.996,57.733-36.95c27.643,0.049,50.858,21.397,57.548,36.955
			L374.349,588.105z"/>
		<path fill="#EFA700" d="M374.356,588.105c6.563-15.442,29.63-36.694,57.143-36.943l-0.003,36.946L374.356,588.105z"/>
	</g>
	<g clip-path="url(#SVGID_2_)">
		<path fill="#96C011" d="M414.625,585.587c3.703-8.522,18.041-20.66,35.166-20.66c17.122,0.001,31.455,12.141,35.161,20.66H414.625
			z"/>
		<path opacity="0.53" fill="#82A600" d="M449.421,585.587h-34.796c3.675-8.46,17.835-20.477,34.797-20.651L449.421,585.587z"/>
	</g>
	<g clip-path="url(#SVGID_2_)">
		<path fill="#96C011" d="M30.043,584.771c3.703-8.521,18.04-20.657,35.164-20.657c17.123,0.001,31.457,12.142,35.16,20.66
			L30.043,584.771z"/>
		<path opacity="0.53" fill="#82A600" d="M64.838,584.772l-34.795-0.002c3.676-8.457,17.835-20.475,34.795-20.649V584.772z"/>
	</g>
</g>
</svg>
