<?xml version="1.0" encoding="utf-8"?>
<!-- Generator: Adobe Illustrator 16.0.0, SVG Export Plug-In . SVG Version: 6.00 Build 0)  -->
<!DOCTYPE svg PUBLIC "-//W3C//DTD SVG 1.1//EN" "http://www.w3.org/Graphics/SVG/1.1/DTD/svg11.dtd">
<svg version="1.1" id="圖層_1" xmlns="http://www.w3.org/2000/svg" xmlns:xlink="http://www.w3.org/1999/xlink" x="0px" y="0px"
	 width="425.2px" height="425.2px" viewBox="0 0 425.2 425.2" enable-background="new 0 0 425.2 425.2" xml:space="preserve">
<rect x="-18" y="-10" fill="#E0F0EB" width="459" height="444"/>
<g>
	<g id="XMLID_8663_">
		<path id="XMLID_8664_" fill="#2B9D9C" d="M268.013,243.221h120.762c2.346,0,4.488-1.334,5.516-3.445
			c1.033-2.109,0.773-4.621-0.67-6.471l-97.112-124.634c-1.163-1.49-2.95-2.368-4.846-2.368c-1.891,0-3.679,0.877-4.844,2.368
			l-18.445,23.674c-7.587-14.728-22.914-24.839-40.588-24.839c-14.778,0-27.899,7.086-36.25,18.006l-34.412-45.611
			c-1.16-1.538-2.978-2.445-4.905-2.445c-1.925,0-3.743,0.908-4.905,2.445L31.521,233.379c-1.401,1.861-1.63,4.357-0.593,6.438
			c1.041,2.084,3.167,3.404,5.498,3.404h158.127H268.013z M152.218,93.801l103.465,137.133h-48.556H48.754L152.218,93.801z
			 M259.711,143.462l-27.757,35.623l-32.634-43.254c5.869-9.597,16.417-16.041,28.465-16.041
			C242.813,119.791,255.543,129.78,259.711,143.462z M271.073,230.934l-31.455-41.692l52.044-66.798l84.538,108.49H271.073z"/>
	</g>
	<g>
		<path fill="#2B9D9C" d="M67.682,341.98c-4.439-8.021-15.187-28.113-21.262-40.186l-0.467,0.156
			c0.389,2.646,0.389,5.996,0.389,8.955v31.621c0,3.27-1.48,5.139-4.439,5.139c-3.193,0-4.907-1.869-4.907-5.139V295.33
			c0-4.361,2.336-7.086,6.542-7.086c3.972,0,6.308,2.023,8.645,6.697c5.296,10.125,14.953,28.115,21.027,39.33l0.545-0.156
			c-0.389-2.336-0.545-5.996-0.545-8.801v-31.932c0-3.27,1.558-5.139,4.673-5.139c3.038,0,4.673,1.869,4.673,5.139v47.041
			c0,4.672-1.947,7.164-6.464,7.164C71.965,347.588,69.629,345.408,67.682,341.98z"/>
		<path fill="#2B9D9C" d="M93.689,325.549c0-12.539,8.333-20.717,20.95-20.717c12.461,0,20.171,8.488,20.249,20.717
			c0,14.096-7.788,22.195-20.794,22.195C100.854,347.744,93.689,339.412,93.689,325.549z M123.829,325.859
			c-0.156-9.189-3.271-13.939-9.579-13.861c-6.387,0.076-9.58,4.75-9.424,13.861c0.156,9.658,2.959,14.799,9.424,14.643
			C120.635,340.346,123.907,335.596,123.829,325.859z"/>
		<path fill="#2B9D9C" d="M213.851,306.545c0,13.162-10.592,18.225-23.208,18.459c-2.181,0-4.284-0.078-6.153-0.156v17.367
			c0,3.582-1.947,5.451-5.451,5.451c-3.583,0-5.452-1.869-5.452-5.451v-46.729c0-3.504,1.792-5.607,5.218-6.074
			c2.881-0.312,7.243-0.467,11.215-0.467C204.583,288.945,213.851,294.785,213.851,306.545z M202.87,306.779
			c0-6.775-4.595-10.67-12.772-10.67c-1.713,0-3.738,0.078-4.906,0.234c-0.467,0.078-0.779,0.389-0.779,0.934v20.404
			c1.869,0.156,4.05,0.156,5.841,0.078C198.586,317.605,202.87,313.943,202.87,306.779z"/>
		<path fill="#2B9D9C" d="M260.809,320.252v22.352c0,3.35-1.791,5.062-5.219,5.062c-3.426,0-5.219-1.713-5.219-5.062v-21.729
			c0-5.451-2.414-8.41-6.854-8.41c-4.516,0-7.553,3.193-9.189,7.555v22.584c0,3.35-1.869,5.062-5.295,5.062
			c-3.428,0-5.375-1.713-5.375-5.062v-51.635c0-3.348,1.869-5.139,5.375-5.139c3.426,0,5.295,1.791,5.295,5.139v20.094
			c2.57-4.127,6.775-6.23,12.229-6.23C254.967,304.832,260.809,310.518,260.809,320.252z"/>
		<path fill="#2B9D9C" d="M269.684,325.549c0-12.539,8.332-20.717,20.949-20.717c12.461,0,20.172,8.488,20.248,20.717
			c0,14.096-7.787,22.195-20.793,22.195C276.848,347.744,269.684,339.412,269.684,325.549z M299.822,325.859
			c-0.156-9.189-3.271-13.939-9.578-13.861c-6.387,0.076-9.58,4.75-9.424,13.861c0.154,9.658,2.959,14.799,9.424,14.643
			C296.629,340.346,299.9,335.596,299.822,325.859z"/>
		<path fill="#2B9D9C" d="M345.066,342.449c0,3.66-5.529,4.594-9.58,4.594c-7.787,0-11.369-3.816-11.369-12.305V313.32h-4.752
			c-2.102,0-3.348-1.322-3.348-3.66c0-2.336,1.246-3.66,3.348-3.66h4.752v-6.152c0-3.35,1.869-5.219,5.295-5.219
			c3.428,0,5.297,1.869,5.297,5.219V306h6.697c2.102,0,3.271,1.324,3.271,3.66c0,2.338-1.17,3.66-3.271,3.66h-6.697v21.184
			c0,3.584,0.934,4.908,2.725,4.908c1.713,0,2.805-0.857,4.439-0.857C343.82,338.555,345.066,340.734,345.066,342.449z"/>
		<path fill="#2B9D9C" d="M351.137,325.549c0-12.539,8.334-20.717,20.949-20.717c12.461,0,20.172,8.488,20.25,20.717
			c0,14.096-7.789,22.195-20.795,22.195C358.303,347.744,351.137,339.412,351.137,325.549z M381.277,325.859
			c-0.156-9.189-3.271-13.939-9.58-13.861c-6.387,0.076-9.58,4.75-9.424,13.861c0.156,9.658,2.959,14.799,9.424,14.643
			C378.084,340.346,381.355,335.596,381.277,325.859z"/>
	</g>
</g>
</svg>
