<?xml version="1.0" encoding="utf-8"?>
<!-- Generator: Adobe Illustrator 21.1.0, SVG Export Plug-In . SVG Version: 6.00 Build 0)  -->
<svg version="1.1" id="圖層_1" xmlns="http://www.w3.org/2000/svg" xmlns:xlink="http://www.w3.org/1999/xlink" x="0px" y="0px"
	 viewBox="0 0 1920 750" style="enable-background:new 0 0 1920 750;" xml:space="preserve">
<style type="text/css">
	.st0{display:none;fill:#B0DBDE;}
	.st1{fill:#FFFFFF;}
	.st2{fill:#F8F8F8;}
	.st3{fill:#E6CFED;}
	.st4{opacity:0.1;fill:#9D56A0;enable-background:new    ;}
	.st5{fill:#246887;}
	.st6{fill:#247CA7;}
	.st7{opacity:0.2;fill:#67A2A0;enable-background:new    ;}
	.st8{fill:#2B87BE;}
	.st9{fill:#4CADD7;}
	.st10{fill:#4C8E67;}
	.st11{fill:#61BB98;}
	.st12{fill:#F5CA5F;}
	.st13{fill:#EFA700;}
	.st14{fill:#96C011;}
	.st15{opacity:0.53;fill:#82A600;enable-background:new    ;}
	.st16{fill:#FA830D;}
	.st17{opacity:0.1;fill:#8F75B2;enable-background:new    ;}
	.st18{opacity:0.3;fill:#F8F8F8;enable-background:new    ;}
	.st19{fill:#483D7F;}
	.st20{fill:#FDD465;}
	.st21{fill:#FCB42B;}
	.st22{fill:none;}
	.st23{display:none;fill:none;stroke:#E60012;stroke-width:3;stroke-miterlimit:10;}
</style>
<rect x="-26.9" y="-905.2" class="st0" width="2016.1" height="1696.6"/>
<g>
	<path class="st1" d="M-262.2,502.6l2.8,147l28.3,0.3l15.9,0.2l31.8,0.3l6,0.1l5.9,0.1l5.6,0.1l18.1,0.2l3.3,0l1.6,0l8.1,0.1l3,0
		l16.3,0.2l38.1,0.4l22.1,0.2l4.3,0l0.9,0l10.7,0.1l11.4,0.1l26.5,0.3l5.4,0.1l23.6,0.3l14.7,0.1l1.6,0l29.5,0.3l1.5,0l11.3,0.1l2,0
		l19.8,0.2l0.8,0l30.3,0.3l0.6,0l8.5,0.1l3.4,0l22.7,0.3l3,0l13.9,0.2l7.4,0.1l224.5,2.4l8.4,0.1l39.2,0.4l6.7,0.1l3.5,0l81,0.9
		l2.4,0l11.2,0.1l1.7,0l4.1,0l2.2,0l6.2,0.1l7.4,0.1l10,0.1l2.5,0l23.5,0.3l44.1,0.5l-1.7-87.4c0,0-21.6-31.8-49.9-15.8
		c-2.2-2.2-4.5-4.2-7-6c-24.5-17.5-61.1-13.4-80.7,8.3c-2.5,2.8-4.7,5.9-6.6,9.2c0,0-1.7-3.3-4.9-7c-4.4-5-11.5-10.9-20.8-10.7
		c-1.8,0-3.8,0.3-5.8,0.9c9.3-34.3-38.9-50-57.8-26.7c-13.1-35.8-43.6-83.2-118.9-27.8c-42.9-29.1-106.9,12.5-78.5,66.8
		c-38.9-14.7-37.3,7.6-37.3,7.6s-25.7-43.3-61.6-35.5c-0.7-37.2-47.5-86.4-111.8-33.4c-4,3.3-6.7,8.1-9.7,13.2
		c-9.2-15.2-18.5-23.3-26.5-27.5c-12.5-6.5-21.6-3.5-21.6-3.5s1.4-45.5-43-39.4c-11.6-37.4-114.4-64.6-117.7,25.1
		c-31.1-0.3-32.9,26.7-32.9,26.7S-242.7,476.6-262.2,502.6z"/>
	<path class="st1" d="M-262.2,502.6l2.8,147l28.3,0.3l15.9,0.2l31.8,0.3l6,0.1l5.9,0.1l5.6,0.1l18.1,0.2l3.3,0l1.6,0l8.1,0.1l3,0
		l16.3,0.2l38.1,0.4l22.1,0.2l4.3,0l0.9,0l10.7,0.1l11.4,0.1l26.5,0.3l5.4,0.1l23.6,0.3l14.7,0.1l1.6,0l29.5,0.3l1.5,0l11.3,0.1l2,0
		l19.8,0.2l0.8,0l30.3,0.3l0.6,0l8.5,0.1l3.4,0l22.7,0.3l3,0l13.9,0.2l7.4,0.1l224.5,2.4l8.4,0.1l39.2,0.4l6.7,0.1l3.5,0l81,0.9
		l2.4,0l11.2,0.1l1.7,0l4.1,0l2.2,0l6.2,0.1l7.4,0.1l10,0.1l2.5,0l23.5,0.3l44.1,0.5l-1.7-87.4c0,0-21.6-31.8-49.9-15.8
		c-2.2-2.2-4.5-4.2-7-6c-24.5-17.5-61.1-13.4-80.7,8.3c-2.5,2.8-4.7,5.9-6.6,9.2c0,0-1.7-3.3-4.9-7c-4.4-5-11.5-10.9-20.8-10.7
		c-1.8,0-3.8,0.3-5.8,0.9c9.3-34.3-38.9-50-57.8-26.7c-13.1-35.8-43.6-83.2-118.9-27.8c-42.9-29.1-106.9,12.5-78.5,66.8
		c-38.9-14.7-37.3,7.6-37.3,7.6s-25.7-43.3-61.6-35.5c-0.7-37.2-47.5-86.4-111.8-33.4c-4,3.3-6.7,8.1-9.7,13.2
		c-9.2-15.2-18.5-23.3-26.5-27.5c-12.5-6.5-21.6-3.5-21.6-3.5s1.4-45.5-43-39.4c-11.6-37.4-114.4-64.6-117.7,25.1
		c-31.1-0.3-32.9,26.7-32.9,26.7S-242.7,476.6-262.2,502.6z"/>
</g>
<path class="st1" d="M965.9,512.4c-3-5-6.4-9.3-9.9-13c-41-42.7-111.1-1.8-111.1,35.5c-57.1-9.1-61,36.7-61,36.7s-7.3-28.1-37.4-6.9
	c27.4-54.8-37.4-95.2-79.7-65.4c-38.6-41.6-105.9-6.1-118.3,30c-19.3-23-67.3-6.3-57.3,27.8c-2-0.5-4-0.8-5.8-0.8
	c-9.4,0-16.4,6-20.6,11.1c-3.1,3.8-4.8,7.1-4.8,7.1c-2-3.3-4.2-6.3-6.8-9.1c-20-21.4-56.7-24.7-80.8-6.8c-2.4,1.8-4.7,3.8-6.9,6.1
	c-28.7-15.5-49.6,16.7-49.6,16.7v87.4l44.1-1.3l23.5-0.7l2.5-0.1l10-0.3l7.4-0.2l6.2-0.2l2.2-0.1l4.1-0.1l1.7-0.1l11.2-0.3l2.4-0.1
	l81-2.4l3.5-0.1l6.7-0.2l39.2-1.2l8.4-0.2l224.4-6.7l7.4-0.2l13.9-0.4l3-0.1l22.7-0.7l3.4-0.1l8.5-0.3l0.6,0l30.3-0.9l0.8,0
	l19.8-0.6l2-0.1l11.3-0.3l1.5,0l29.5-0.9l1.6,0l14.7-0.4l23.6-0.7l5.4-0.2l26.5-0.8l11.4-0.3l10.7-0.3l0.9,0l4.3-0.1l22.1-0.7
	l38.1-1.1l16.3-0.5l3-0.1l8.1-0.3l1.6,0l3.3-0.1l18.1-0.5l5.6-0.2l5.9-0.2l6-0.2l31.8-0.9l15.9-0.5l28.3-0.8V493.7
	c-20-25.6-44.9-4.5-44.9-4.5s-2.4-27-33.4-26.1c-23.9-98.2-107.2-60.4-118.1-22.8c-44.5-5.3-42.3,40.2-42.3,40.2
	S968.6,466.4,965.9,512.4z"/>
<path class="st1" d="M1929.1,493.7v147.1l-28.3,0.8l-15.9,0.5l-31.8,0.9l-6,0.2l-5.9,0.2l-5.6,0.2l-18.1,0.5l-3.3,0.1l-1.6,0
	l-8.1,0.3l-3,0.1l-16.3,0.5l-38.1,1.1l-22,0.7l-4.3,0.1l-0.9,0l-10.7,0.3l-11.4,0.3l-26.5,0.8l-5.4,0.2l-23.6,0.7l-14.7,0.4l-1.6,0
	l-29.5,0.9l-1.5,0l-11.3,0.3l-2,0.1l-19.8,0.6l-0.8,0l-30.3,0.9l-0.6,0l-8.5,0.3l-3.4,0.1l-22.7,0.7l-3,0.1l-13.9,0.4l-7.4,0.2
	l-224.4,6.7l-8.4,0.2l-39.2,1.2l-6.7,0.2l-3.5,0.1l-81,2.4l-2.4,0.1l-11.2,0.3l-1.7,0.1l-4.1,0.1l-2.2,0.1l-6.2,0.2l-7.4,0.2
	l-10,0.3l-2.5,0.1l-23.5,0.7l-44.1,1.3v-87.4c0,0,21-32.2,49.6-16.7c2.1-2.2,4.5-4.3,6.9-6.1c24.1-17.9,60.8-14.6,80.8,6.8
	c2.6,2.7,4.9,5.8,6.8,9.1c0,0,1.6-3.3,4.8-7.1c4.3-5.1,11.3-11.1,20.6-11.1c1.8,0,3.8,0.3,5.8,0.8c-10-34.1,38-50.8,57.3-27.8
	c12.5-36.1,56.2-81,118.3-30c42.4-29.9,107.1,10.5,79.7,65.4c38.6-15.4,37.4,6.9,37.4,6.9s24.8-43.8,61-36.7
	c0-37.3,70.1-78.2,111.1-35.5c3.5,3.7,6.9,8,9.9,13c8.9-15.4,18.1-23.7,25.9-28c12.3-6.8,21.6-3.9,21.6-3.9s-2.3-45.5,42.3-40.2
	c10.9-37.6,113.2-66.8,118.1,22.8c31.1-0.9,33.4,26.1,33.4,26.1S1909.1,468.1,1929.1,493.7z"/>
<path class="st2" d="M1240.3,582.1c-0.7-1-1.5-2.1-2.2-3.1c-0.3-0.4-0.6-0.8-0.9-1.2c-1.7-2.4-3.4-4.9-5.2-7.4
	c-2.5-3.6-5.1-7.2-7.8-10.8c2.6,5.2,4.2,9.6,4.2,12.7c0,0-0.8,18.4-2,43.5c11.7,0.8,23.4-3.1,34.1-8c1-0.5,2.1-1,3.1-1.5
	C1255.6,601.9,1248.1,592.8,1240.3,582.1z"/>
<path class="st2" d="M1224.3,559.7c-9.6-13-20.4-25.5-33.5-33.2c-18.4-10.8-41.2-9.9-59.5-6.2c2.5,5.8,1.8,12.6,0.2,16.3
	c-1.5,3.4-3.5,6.5-4.9,9.9c-3.9,9.3,7.3,18.7,17.7,19.3c1.2,0.1,2.3,0.1,3.5,0c9.2-0.4,18.1-4.1,27.3-5.1
	c10.4-1.1,23.3,3.6,24.4,13.5c0.5,4.7-1.7,9.2-2.3,13.8c-1.3,10.6,6.6,20.5,16.9,25.1c2.2,1,4.6,1.8,7,2.2c1.8,0.3,3.6,0.6,5.3,0.7
	c1.2-25.1,2-43.5,2-43.5C1228.5,569.3,1226.9,564.8,1224.3,559.7z"/>
<g>
	<g>
		<path class="st3" d="M372.1,565.9v190h-905.9V512.6c0,0,55.8-27.3,93.5-4c17.1,10.6,30.2,29.6,42.2,47.4c1.8,2.7,3.6,5.3,5.3,7.9
			c0.3,0.4,0.6,0.9,0.9,1.3c0.8,1.1,1.5,2.2,2.3,3.3c9.9,14.3,19.3,26,30.1,28.8c1.3,0.3,2.6,0.5,3.9,0.6c1.9,0.1,3.8,0,5.6-0.3h0
			c7.5-1.1,14.9-5,22.3-10.4c3.2-2.4,6.4-5,9.7-7.8c11.4-10,23-22.3,34.8-32.2c12-10,24.4-17.5,37.3-17.5c37.2,0,75.2,65.1,115.2,65
			c2.7,0,5.3-0.3,8-1c16.9-4,37.5,3.5,59.9,13.3c9.3,4.1,18.9,8.5,28.6,12.7c9.3,4,18.8,7.7,28.3,10.7c5.8,1.8,11.5,3.3,17.3,4.3
			c2.9,0.5,5.8,1,8.6,1.2c7.5,0.8,15.1,0.8,22.5-0.4c2.1-0.3,4.1-0.7,6.1-1.2c0.6-0.1,1.2-0.3,1.9-0.5c8.9-2.4,17.6-6.6,26.1-13
			c1.6-1.2,3.1-2.4,4.6-3.8c6.9-6,14-12.3,21.1-18.8c10.2-9.3,20.6-19,31-28.7c0.2-0.2,0.4-0.4,0.7-0.6c2.5-2.3,5-4.6,7.5-6.9
			c5-4.7,10.1-9.3,15.1-13.8c2.5-2.2,4.9-4.4,7.3-6.5c0.4-0.4,0.8-0.7,1.2-1.1c5.2-4.5,10.3-8.9,15.4-13.2
			c4.6-3.8,9.2-7.6,13.8-11.1c10.6-8.2,21-15.4,31.2-21.2c20.9-12,40.7-18.1,58.4-14.4c23.9,5.1,43.3,20.9,57.7,37.6
			C361.6,541.5,372.1,565.9,372.1,565.9z"/>
	</g>
	<g>
		<path class="st3" d="M1228.5,572.4c0,0-8.4,183.3-8.4,183.3H216.9L126,614l90.9-113.8c0,0,61.8-28.7,103.5-4.2
			c18.9,11.1,33.5,31.1,46.7,49.8c2,2.8,3.9,5.6,5.9,8.3c0.3,0.5,0.7,0.9,1,1.4c0.8,1.2,1.7,2.4,2.5,3.5
			c10.9,15,21.4,27.3,33.4,30.2c1.4,0.3,2.9,0.6,4.3,0.6c2.1,0.1,4.2,0,6.3-0.3c8.3-1.1,16.5-5.2,24.7-10.9
			c3.6-2.5,7.1-5.2,10.7-8.2c12.7-10.5,25.4-23.4,38.5-33.8c13.3-10.5,27-18.4,41.3-18.4c41.2,0,83.3,68.4,127.5,68.2
			c14.5,0,19.6-15.3,32.2-18.3c19-4.5,35.7,17.1,49.7,26.2c53.9,35,118.5,52.4,168.4,1.9c34.7-35.1,60.6-77.3,102.5-105.1
			c27-17.9,59.1-25.8,91.5-24.3c26.3,1.2,62.7,21.4,80.1,40.6C1196.5,517.6,1228.5,558.7,1228.5,572.4z"/>
		<path class="st4" d="M895.2,647.5c0,9.9-1.3,19.9-4.4,29c-3.2,9.3-8.5,17.8-16.4,24.3c0,0-0.1,0.1-0.1,0.1
			c-10.5,8.6-24.2,12.7-37.8,15.5c-0.5,0.1-0.9,0.2-1.4,0.3c-0.4,0.1-0.8,0.2-1.2,0.2c-6.6,1.3-13.1,2.5-19.8,3.5
			c-6.4,1-12.9,1.8-19.3,2.6c-7.4,0.9-14.8,1.7-22.2,2.5c-4.6,0.5-9.1,1-13.7,1.5c0,0-0.1,0-0.1,0c-0.1,0-0.2,0-0.3,0
			c-6.8,0.7-13.6,1.5-20.4,2.3c-0.6,0.1-1.3,0.2-1.9,0.2c-5.4,0.7-10.8,1.5-16.2,2.3c-4.7,0.7-9.3,1.5-14,2.4
			c-1.9,0.4-3.8,0.7-5.6,1.1c-0.2,0-0.5,0.1-0.7,0.1c-2.3,0.5-4.6,1-6.8,1.5c-2.2,0.5-4.5,1.1-6.7,1.7c-3.8,1-7.5,2.1-11.2,3.2
			c-3.4,1.1-6.8,2.2-10.1,3.4c-1.1,0.4-2.2,0.8-3.3,1.2c-6.6,2.6-13.1,5.4-19.5,8.5c-0.4,0.2-0.8,0.4-1.2,0.6H216.9
			c0,0-232.4,0.1-232.9,0.1c9.4,0,45.4-65,53.3-73.5c42.2-45.1,111.5-79.4,175-69c22.8,3.8,40.5,20,62.3,26.2
			c77,21.9,155-63.1,231-33.5c30,11.7,49.7,45.6,82,47.2c26.2,1.3,48.5-19.8,74.7-21.3c18-1,34.8,7.3,51.6,13.3
			c5.2,1.9,10.4,3.5,15.8,4.9c2.5,0.7,5.1,1.3,7.6,1.9c4.9,1.1,9.9,2.1,14.9,2.9c1.1,0.2,2.2,0.3,3.3,0.5c8.5,1.2,17.1,1.9,25.7,2.1
			c1.1,0,2.3,0,3.4,0c7.8,0.1,15.6-0.3,23.4-1.1c4.1-0.4,8.1-0.9,12.1-1.5c1.8-0.3,3.7-0.6,5.5-0.9c2.1-0.4,4.3-0.8,6.4-1.2
			c5.3-1.1,10.5-2.4,15.7-3.9c0.8-0.2,1.6-0.5,2.4-0.7c4-1.2,8-2.5,11.9-4c0.6-0.2,1.2-0.4,1.8-0.7c10.4-3.9,20.5-8.7,30.2-14.3
			C894.7,635.2,895.2,641.3,895.2,647.5z"/>
		<path class="st2" d="M420.4,589.6c-3.1,1.8-6.2,3.4-9.3,5c-1.9,1-3.9,1.9-5.9,2.8c-13.9,6.4-29.5,11.3-44.7,8.3
			c-2.7-0.5-5.4-1.4-7.9-2.5c-11.7-5.2-20.7-16.4-19.2-28.4c0.7-5.3,3.2-10.4,2.6-15.7c-1.3-11.3-15.9-16.5-27.6-15.3
			c-10.5,1.1-20.6,5.3-31,5.8c-1.3,0.1-2.6,0.1-4,0c-11.8-0.6-24.5-11.3-20.1-21.9c1.6-3.9,5.3-7,5.6-11.2
			c0.5-8.8-12.7-10.9-21.7-9.1c-6.9,1.3-13.7,3-20.4,5.1v-12.3c0,0,48.4-38.6,90.1-14.1c18.9,11.1,46.9,41,60.1,59.7
			c2,2.8,3.9,5.6,5.9,8.3c0.3,0.5,0.7,0.9,1,1.4c0.8,1.2,1.7,2.4,2.5,3.5c10.9,15,21.4,27.3,33.4,30.2c1.4,0.3,2.9,0.6,4.3,0.6
			C416.3,590,418.3,589.9,420.4,589.6z"/>
		<path class="st2" d="M663.2,586.5c-16.6,9.5-38.2,7.2-57.6,4.6c-8.4-1.2-17.1-2.4-23.9-7.2c-7.1-5-10.9-12.9-16.3-19.6
			c-5.4-6.6-14.1-12.3-22.5-9.7c-11.8,3.6-17.8,22-29.6,18.5c-6.4-1.8-8.7-9.4-8.2-15.8c0.5-6.3,2.9-12.6,1.8-18.9
			c-4.2,0.5-8.5-0.1-12.4-1.7c13.3-10.5,27-18.4,41.3-18.4C576.9,518.3,618.9,586.7,663.2,586.5z"/>
	</g>
	<path class="st2" d="M1094.3,513.5c23.4-7.9,33.5-1.6,37,6.7c18.2-3.6,41.1-4.5,59.5,6.2c13.1,7.7,23.8,20.2,33.5,33.2
		c-1.2-2.3-2.6-4.8-4.1-7.4c-3.4-5.2-7.5-11.4-11.8-17.9c-8.3-11.6-16.8-22.2-20.8-26.7c-17.3-19.3-53.7-39.4-80.1-40.6
		c-32.4-1.5-64.5,6.4-91.5,24.3c-17.3,11.5-31.9,25.4-45.5,40.3c8.2,5.2,20.5,10.6,27.5,12.6
		C1028.9,552.9,1088.4,515.5,1094.3,513.5z"/>
	<g>
		<path class="st3" d="M1985.1,579.5v176.2h-885.7V530.2c0,0,54.6-25.3,91.4-3.7c16.7,9.8,29.6,27.5,41.2,44c1.7,2.5,3.5,5,5.2,7.4
			c0.3,0.4,0.6,0.8,0.9,1.2c0.7,1,1.5,2.1,2.2,3.1c9.7,13.3,18.9,24.1,29.5,26.7c1.3,0.3,2.5,0.5,3.8,0.6c1.8,0.1,3.7,0,5.5-0.3h0
			c7.3-1,14.6-4.6,21.8-9.6c3.2-2.2,6.3-4.6,9.4-7.3c11.2-9.3,22.4-20.7,34-29.8c11.8-9.3,23.8-16.3,36.4-16.3
			c36.4,0,73.5,60.4,112.6,60.3c2.6,0,5.2-0.3,7.9-0.9c16.6-3.7,36.7,3.3,58.5,12.4c9.1,3.8,18.4,7.9,28,11.8
			c9.1,3.7,18.4,7.2,27.7,9.9c5.6,1.6,11.3,3,16.9,4c2.8,0.5,5.6,0.9,8.5,1.2c7.4,0.7,14.7,0.7,22-0.4c2-0.3,4-0.7,6-1.1
			c0.6-0.1,1.2-0.3,1.8-0.4c8.7-2.2,17.2-6.1,25.6-12c1.5-1.1,3-2.3,4.5-3.5c6.8-5.6,13.6-11.4,20.6-17.4
			c10-8.6,20.1-17.7,30.3-26.6c0.2-0.2,0.4-0.4,0.7-0.6c2.4-2.1,4.9-4.3,7.3-6.4c4.9-4.3,9.9-8.6,14.8-12.8c2.4-2,4.8-4.1,7.2-6.1
			c0.4-0.3,0.8-0.7,1.2-1c5-4.2,10.1-8.3,15.1-12.2c4.5-3.6,9-7,13.5-10.3c10.3-7.6,20.5-14.3,30.5-19.7
			c20.4-11.1,39.8-16.8,57.1-13.3c23.4,4.7,42.3,19.4,56.5,34.9C1974.8,556.9,1985.1,579.5,1985.1,579.5z"/>
		<path class="st4" d="M1698.3,660.2c0,8.8-3.9,99.3-3.9,99.3l-727.2-3.8l17.3-120.5c6.6,3.1,68.9-57.3,132.9-0.4
			c8.6,7.6,16.7,16.8,26.9,21.8c3.1,1.6,6.5,2.7,10,3.4c3.1,0.6,6.1,0.7,9.1,0.5c0.7,0,1.5-0.1,2.2-0.2c4.7-0.5,9.4-1.8,14.1-3.5
			c1.9-0.7,3.8-1.4,5.7-2.2c8.2-3.4,16.4-7.4,24.8-10c1.4-0.4,2.9-0.8,4.4-1.2c3.8-0.9,7.7-1.4,11.6-1.4c13.3,0.2,26.7,7,39.5,3.5
			c5.6-1.5,10.5-4.9,15.3-8.2c0.7-0.5,1.5-1,2.2-1.5c3.2-2.2,6.6-4.2,10.1-6c8.8-4.5,18.3-7.9,27.9-9.4c11.2-1.8,22.6-1.1,33.2,3
			c26.5,10.3,43.8,40.2,72.4,41.7c23.1,1.2,42.9-17.5,66-18.8c15.8-0.9,30.7,6.4,45.6,11.8c4.6,1.6,9.2,3.1,13.9,4.4
			c2.2,0.6,4.5,1.2,6.7,1.7c4.4,1,8.8,1.8,13.2,2.5c1,0.2,1.9,0.3,2.9,0.4c7.5,1.1,15.1,1.7,22.7,1.8c1,0,2,0,3,0
			c6.9,0,13.8-0.3,20.6-1c3.6-0.4,7.2-0.8,10.7-1.4c1.6-0.2,3.2-0.5,4.8-0.8c1.9-0.3,3.8-0.7,5.6-1.1c4.7-1,9.3-2.1,13.9-3.5
			c0.7-0.2,1.4-0.4,2.1-0.6c3.5-1.1,7-2.2,10.5-3.5c0.5-0.2,1-0.4,1.5-0.6c9.2-3.5,18.1-7.7,26.6-12.6
			C1697.8,649.3,1698.3,654.7,1698.3,660.2z"/>
		<path class="st2" d="M1493.4,606.4c-14.7,8.4-33.7,6.4-50.9,4c-7.4-1-15.1-2.2-21.1-6.4c-6.2-4.4-9.7-11.4-14.4-17.3
			c-4.8-5.8-12.5-10.9-19.8-8.6c-10.4,3.2-15.7,19.4-26.1,16.4c-5.6-1.6-7.7-8.3-7.3-13.9c0.4-5.6,2.5-11.2,1.6-16.7
			c-3.7,0.4-7.5-0.1-11-1.5c11.8-9.3,23.8-16.3,36.4-16.3C1417.2,546.1,1454.4,606.5,1493.4,606.4z"/>
		<path class="st2" d="M1955.5,535.7c-8.9,2.8-18,3.9-26.4,0.6c-8.8-3.5-17.8-11.7-26.3-7.7c-8.8,4.1-7.4,17.2-14.2,24
			c-4.2,4.3-10.9,5.4-16.9,6.8c-25.4,6-50.9,24.5-78.2,16.7c-8.9-2.5-15-7-19-12.7c44.7-38,88.9-69.8,124.5-62.6
			C1922.4,505.5,1941.4,520.3,1955.5,535.7z"/>
	</g>
</g>
<g>
	<path class="st5" d="M1035.1,709.5l-10.7-1.4l10.2-1.7c-1.5-9.9-3-19.3-4.2-26.8l-7.5-2.6h7.1c-0.7-3.9-1.2-7.1-1.7-9.4
		c-1.3-6.3-3.5-13.7-6-20.8l-6.1-1.7l5.4-0.3c-4.8-13.6-9.9-25.5-9.9-25.5s-3.8,11.9-8.2,30.7v0l8.2,3.9l-9.7,2.3
		c-1.5,6.5-2.9,13.6-4.4,21.1l8.2-3.4l-9,7.9c-4.6,25.3-8.3,55.4-7.6,84.8c39.5,0,54.1,0,54.1,0S1039.2,737.1,1035.1,709.5z"/>
	<path class="st5" d="M1207.1,596.1l8.7-1.1c-5-19.5-10.5-38.6-16.2-54.2l-10.1-2.4l8.6-1.6c-3.4-8.9-6.8-16.6-10.2-22.3
		c-3.6,10-6.9,22-9.9,35.2l7.5,3.3h-8.3c-1.6,7.4-3.2,15-4.6,22.9l21.1,1.7l-22.3,5.1c-10.4,58.5-15.7,122.2-15.7,122.2h83.9
		c0,0-9.8-54.4-23.1-106.7L1207.1,596.1z"/>
	<path class="st5" d="M1085.2,598.9l-12.6-4.6c5.4-20.6,11.4-40.7,17.7-57.3l12.5-3.1l-10.9-1.2c3.8-9.5,8.1-27.9,12-34
		c4.9,10.2,9.3,32.8,13.6,46.4l-9.3,3.9l10.3-0.5c2.4,7.6,4.6,15.5,6.8,23.5l-16.8,9.3l18.6-2.2c15.6,60.4,25.1,126.3,25.1,126.3
		l-116.4,10.4c0,0,16.7-63,30.9-118.1L1085.2,598.9z"/>
	<path class="st5" d="M1906.8,664.5l-12.6-4.6c5.4-20.6,11.4-40.7,17.7-57.3l12.5-3.1l-10.9-1.2c3.8-9.5,8.1-27.9,12-34
		c4.9,10.2,9.3,32.8,13.6,46.4l-9.3,3.9l10.3-0.5c2.4,7.6,4.6,15.5,6.8,23.5l-16.8,9.3l18.6-2.2c15.6,60.4,25.1,126.3,25.1,126.3
		l-116.4,10.4c0,0,16.7-63,30.9-118.1L1906.8,664.5z"/>
	<path class="st6" d="M1237.7,647.5l12.4-8.6c-4.3-19.5-8.9-38.6-13.7-54.2l-8.6-2.4l7.3-1.6c-2.9-8.9-5.8-16.6-8.7-22.3
		c-3.1,10-5.9,22-8.4,35.2l6.4,3.3h-7c-1.4,7.4-2.7,15-3.9,22.9l5.2,1.8l-6.3,5.1c-8.8,58.5-13.3,122.2-13.3,122.2h71.3
		c0,0-8.3-54.4-19.6-106.7L1237.7,647.5z"/>
	<path class="st6" d="M982.7,670.5l10.3-6.6c-3.6-15.1-7.4-29.8-11.4-41.9l-7.2-1.9l6.1-1.2c-2.4-6.9-4.8-12.8-7.2-17.2
		c-2.5,7.7-4.9,17-7,27.2l5.3,2.6h-5.9c-1.2,5.7-2.2,11.6-3.3,17.7l9.1-2.2l-10,7.5c-7.3,45.2-11.1,94.5-11.1,94.5h59.4
		c0,0-6.9-42.1-16.3-82.5L982.7,670.5z"/>
	<path class="st7" d="M976.3,647.5l3.9,86.5C980.2,733.9,972.4,689.3,976.3,647.5z"/>
	<path class="st6" d="M1826.3,658.2l11.9-7.7c-4.1-17.5-8.6-34.5-13.2-48.4l-8.3-2.2l7.1-1.4c-2.8-8-5.6-14.8-8.4-19.9
		c-2.9,8.9-5.6,19.7-8.1,31.5l6.2,3h-6.8c-1.3,6.6-2.6,13.5-3.8,20.4l10.6-2.6l-11.6,8.7c-8.5,52.3-12.8,109.2-12.8,109.2h68.6
		c0,0-8-48.7-18.9-95.4L1826.3,658.2z"/>
	<path class="st7" d="M1818.9,631.6l4.5,100C1823.4,731.6,1814.3,680,1818.9,631.6z"/>
	<path class="st7" d="M1228.5,603.4v81.3C1228.5,684.7,1233,640.2,1228.5,603.4z"/>
	<path class="st6" d="M1285.3,652.8l11.2-7.2c-3.9-16.4-8.1-32.4-12.4-45.5l-7.8-2l6.6-1.4c-2.6-7.5-5.2-13.9-7.8-18.7
		c-2.8,8.4-5.3,18.5-7.6,29.6l5.8,2.8h-6.4c-1.3,6.2-2.4,12.6-3.5,19.2l9.9-2.4l-10.9,8.2c-7.9,49.1-12,102.6-12,102.6h64.4
		c0,0-7.5-45.7-17.7-89.5L1285.3,652.8z"/>
	<path class="st6" d="M1874.8,667.8l11.2-7.2c-3.9-16.4-8.1-32.4-12.4-45.5l-7.8-2l6.6-1.4c-2.6-7.5-5.2-13.9-7.8-18.7
		c-2.8,8.4-5.3,18.5-7.6,29.6l5.8,2.8h-6.4c-1.3,6.2-2.4,12.6-3.5,19.2l9.9-2.4l-10.9,8.2c-7.9,49.1-12,102.6-12,102.6h64.4
		c0,0-7.5-45.7-17.7-89.5L1874.8,667.8z"/>
	<path class="st8" d="M1053.3,635.3l-15.3-3.3c4.3-20.8,8.9-41,13.7-57.6l8.6-2.6l-7.3-1.7c2.9-9.5,5.8-17.6,8.6-23.7
		c3,10.6,5.8,23.4,8.4,37.4l-6.4,3.5h7c1.4,7.8,2.7,16,3.9,24.3l-10.7,4.7l11.7,2.6c8.8,62.2,13.2,129.9,13.2,129.9h-71
		c0,0,8.3-57.9,19.5-113.4L1053.3,635.3z"/>
	<path class="st8" d="M1175.7,661.5l-14.6-2.2l14-2.7c1.4-14.1,0.9-30.6-0.8-42.5l-5.9-4.3l4.5-2.4c-0.9-6.2-2.5-13.1-3.1-16.8
		c-1.8-10-5.2-17.7-8.5-29l-9.3-2.7l8.3-0.5c-6.5-21.6-16.5-40.7-16.5-40.7s-5.1,19-11.2,49v0l11.2,6.2l-13.2,3.7
		c-2,10.3-4,21.6-6,33.7l11.9,4.5l-13,2.6c-6.2,40.4-11.3,88.5-10.4,135.3c54.1,0,74,0,74,0S1181.4,705.4,1175.7,661.5z"/>
	<path class="st6" d="M1138.9,680.2l-11.6-1.8l11.1-2.2c-1.6-12.5-3.2-24.5-4.6-33.9l-8.2-3.3h7.7c-0.7-4.9-1.4-9-1.9-12
		c-1.4-8-3.8-17.4-6.5-26.4l-6.6-2.1l5.8-0.4c-5.2-17.2-10.8-32.3-10.8-32.3s-4.1,15.1-8.9,39v0l8.9,5l-10.5,3
		c-1.6,8.2-3.2,17.2-4.8,26.8l8.9-4.3l-9.8,10c-5,32.1-9,70.4-8.3,107.6c43,0,58.9,0,58.9,0S1143.4,715.1,1138.9,680.2z"/>
	<path class="st7" d="M1059.1,595.5l-2.4,113.8C1056.7,709.3,1054.7,624,1059.1,595.5z"/>
	<path class="st7" d="M1150,572.4l5.8,109C1155.8,681.3,1157.3,608.3,1150,572.4z"/>
	<path class="st5" d="M1392.6,701.3l-12.8-1.7l12.3-2c-1.8-11.8-3.5-23.1-5-32l-9-3.1h8.5c-0.8-4.7-1.5-8.5-2.1-11.3
		c-1.5-7.5-4.2-16.4-7.1-24.9l-7.2-2l6.4-0.4c-5.7-16.2-11.9-30.5-11.9-30.5s-4.5,14.3-9.8,36.8v0l9.8,4.7l-11.6,2.8
		c-1.7,7.7-3.5,16.2-5.2,25.3l9.8-4.1l-10.8,9.4c-5.5,30.3-9.9,66.4-9.1,101.6c47.3,0,64.8,0,64.8,0S1397.5,734.3,1392.6,701.3z"/>
	<path class="st5" d="M1560.8,621.5l8.7-1.1c-5-19.5-10.5-38.6-16.2-54.2l-10.1-2.4l8.6-1.6c-3.4-8.9-6.8-16.6-10.2-22.3
		c-3.6,10-6.9,22-9.9,35.2l7.5,3.3h-8.3c-1.6,7.4-3.2,15-4.6,22.9l21.1,1.7l-22.3,5.1c-10.4,58.5-15.7,122.2-15.7,122.2h83.9
		c0,0-9.8-54.4-23.1-106.7L1560.8,621.5z"/>
	<path class="st5" d="M1438.9,624.3l-12.6-4.6c5.4-20.6,11.4-40.7,17.7-57.3l12.5-3.1l-10.9-1.2c3.8-9.5,8.1-27.9,12-34
		c4.9,10.2,9.3,32.8,13.6,46.4l-9.3,3.9l10.3-0.5c2.4,7.6,4.6,15.5,6.8,23.5l-16.8,9.3l18.6-2.2c15.6,60.4,25.1,126.3,25.1,126.3
		l-116.4,10.4c0,0,16.7-63,30.9-118.1L1438.9,624.3z"/>
	<path class="st5" d="M1673.2,669.3l-12.6-4.6c5.4-20.6,11.4-40.7,17.7-57.3l12.5-3.1l-10.9-1.2c3.8-9.5,8.1-27.9,12-34
		c4.9,10.2,9.3,32.8,13.6,46.4l-9.3,3.9l10.3-0.5c2.4,7.6,4.6,15.5,6.8,23.5l-16.8,9.3l18.6-2.2c15.6,60.4,25.1,126.3,25.1,126.3
		l-116.4,10.4c0,0,16.7-63,30.9-118.1L1673.2,669.3z"/>
	<path class="st6" d="M1591.4,672.8l12.4-8.6c-4.3-19.5-8.9-38.6-13.7-54.2l-8.6-2.4l7.3-1.6c-2.9-8.9-5.8-16.6-8.7-22.3
		c-3.1,10-5.9,22-8.4,35.2l6.4,3.3h-7c-1.4,7.4-2.7,15-3.9,22.9l5.2,1.8l-6.3,5.1c-8.8,58.5-13.3,122.2-13.3,122.2h71.3
		c0,0-8.3-54.4-19.6-106.7L1591.4,672.8z"/>
	<path class="st6" d="M1336.5,695.8l10.3-6.6c-3.6-15.1-7.4-29.8-11.4-41.9l-7.2-1.9l6.1-1.2c-2.4-6.9-4.8-12.8-7.2-17.2
		c-2.5,7.7-4.9,17-7,27.2l5.3,2.6h-5.9c-1.2,5.7-2.2,11.6-3.3,17.7l9.1-2.2l-10,7.5c-7.3,45.2-11.1,94.5-11.1,94.5h59.4
		c0,0-6.9-42.1-16.3-82.5L1336.5,695.8z"/>
	<path class="st7" d="M1330.1,672.8l3.9,86.5C1334,759.3,1326.1,714.7,1330.1,672.8z"/>
	<path class="st7" d="M1582.2,628.8V710C1582.2,710,1586.7,665.5,1582.2,628.8z"/>
	<path class="st6" d="M1638.8,684.8l10.3-6.6c-3.6-15.1-7.4-29.8-11.4-41.9l-7.2-1.9l6.1-1.2c-2.4-6.9-4.8-12.8-7.2-17.2
		c-2.5,7.7-4.9,17-7,27.2l5.3,2.6h-5.9c-1.2,5.7-2.2,11.6-3.3,17.7l9.1-2.2l-10,7.5c-7.3,45.3-11.1,94.5-11.1,94.5h59.4
		c0,0-6.9-42.1-16.3-82.5L1638.8,684.8z"/>
	<path class="st8" d="M1407.1,660.6l-15.3-3.3c4.3-20.8,8.9-41,13.7-57.6l8.6-2.6l-7.3-1.7c2.9-9.5,5.8-17.6,8.6-23.7
		c3,10.6,5.8,23.4,8.4,37.4l-6.4,3.5h7c1.4,7.8,2.7,16,3.9,24.3l-10.7,4.7l11.7,2.6c8.8,62.2,13.2,129.9,13.2,129.9h-71
		c0,0,8.3-57.9,19.5-113.4L1407.1,660.6z"/>
	<path class="st8" d="M1529.5,686.8l-14.6-2.2l14-2.7c1.4-14.1,0.9-30.6-0.8-42.5l-5.9-4.3l4.5-2.4c-0.9-6.2-2.5-13.1-3.1-16.8
		c-1.8-10-5.2-17.7-8.5-29l-9.3-2.7l8.3-0.5c-6.5-21.6-16.5-40.7-16.5-40.7s-5.1,19-11.2,49v0l11.2,6.2l-13.2,3.7
		c-2,10.3-4,21.6-6,33.7l11.9,4.5l-13,2.6c-6.2,40.4-11.3,88.5-10.4,135.3c54.1,0,74,0,74,0S1535.1,730.8,1529.5,686.8z"/>
	<path class="st6" d="M1492.6,705.5l-11.6-1.8l11.1-2.2c-1.6-12.5-3.2-24.5-4.6-33.9l-8.2-3.3h7.7c-0.7-4.9-1.4-9-1.9-12
		c-1.4-8-3.8-17.4-6.5-26.4l-6.6-2.1l5.8-0.4c-5.2-17.2-10.8-32.3-10.8-32.3s-4.1,15.1-8.9,39v0l8.9,5l-10.5,3
		c-1.6,8.2-3.2,17.2-4.8,26.8l8.9-4.3l-9.8,10c-5,32.1-9,70.4-8.3,107.6c43,0,58.9,0,58.9,0S1497.1,740.5,1492.6,705.5z"/>
	<path class="st6" d="M297.1,705.5l-11.6-1.8l11.1-2.2c-1.6-12.5-3.2-24.5-4.6-33.9l-8.2-3.3h7.7c-0.7-4.9-1.4-9-1.9-12
		c-1.4-8-3.8-17.4-6.5-26.4l-6.6-2.1l5.8-0.4c-5.2-17.2-10.8-32.3-10.8-32.3s-4.1,15.1-8.9,39v0l8.9,5l-10.5,3
		c-1.6,8.2-3.2,17.2-4.8,26.8l8.9-4.3l-9.8,10c-5,32.1-9,70.4-8.3,107.6c43,0,58.9,0,58.9,0S301.6,740.5,297.1,705.5z"/>
	<path class="st7" d="M1412.8,620.9l-2.4,113.8C1410.4,734.7,1408.4,649.3,1412.8,620.9z"/>
	<path class="st7" d="M1503.7,597.7l5.8,109C1509.5,706.7,1511,633.7,1503.7,597.7z"/>
	<path class="st5" d="M4.6,641.2L-8,636.6c5.4-20.6,11.4-40.7,17.7-57.3l12.5-3.1L11.4,575c3.8-9.5,8.1-27.9,12-34
		c4.9,10.2,9.3,32.8,13.6,46.4l-9.3,3.9l10.3-0.5c2.4,7.6,4.6,15.5,6.8,23.5l-16.8,9.3l18.6-2.2c15.6,60.4,25.1,126.3,25.1,126.3
		l-116.4,10.4c0,0,16.7-63,30.9-118.1L4.6,641.2z"/>
	<path class="st8" d="M100.5,686.8l-14.6-2.2l14-2.7c1.4-14.1,0.9-30.6-0.8-42.5l-5.9-4.3l4.5-2.4c-0.9-6.2-2.5-13.1-3.1-16.8
		c-1.8-10-5.2-17.7-8.5-29l-9.3-2.7l8.3-0.5c-6.5-21.6-16.5-40.7-16.5-40.7s-5.1,19-11.2,49v0l11.2,6.2l-13.2,3.7
		c-2,10.3-4,21.6-6,33.7l11.9,4.5l-13,2.6c-6.2,40.4-11.3,88.5-10.4,135.3c54.1,0,74,0,74,0S106.1,730.8,100.5,686.8z"/>
	<path class="st6" d="M63.6,705.5L52,703.8l11.1-2.2c-1.6-12.5-3.2-24.5-4.6-33.9l-8.2-3.3h7.7c-0.7-4.9-1.4-9-1.9-12
		c-1.4-8-3.8-17.4-6.5-26.4l-6.6-2.1l5.8-0.4c-5.2-17.2-10.8-32.3-10.8-32.3s-4.1,15.1-8.9,39v0l8.9,5l-10.5,3
		c-1.6,8.2-3.2,17.2-4.8,26.8l8.9-4.3l-9.8,10c-5,32.1-9,70.4-8.3,107.6c43,0,58.9,0,58.9,0S68.1,740.5,63.6,705.5z"/>
	<path class="st7" d="M74.7,597.7l5.8,109C80.5,706.7,82,633.7,74.7,597.7z"/>
	<path class="st5" d="M150.2,657.4l-12.6-4.6c5.4-20.6,11.4-40.7,17.7-57.3l12.5-3.1l-10.9-1.2c3.8-9.5,8.1-27.9,12-34
		c4.9,10.2,9.3,32.8,13.6,46.4l-9.3,3.9l10.3-0.5c2.4,7.6,4.6,15.5,6.8,23.5l-16.8,9.3l18.6-2.2c15.6,60.4,25.1,126.3,25.1,126.3
		l-116.4,10.4c0,0,16.7-63,30.9-118.1L150.2,657.4z"/>
	<path class="st8" d="M265.7,686.8l-14.6-2.2l14-2.7c1.4-14.1,0.9-30.6-0.8-42.5l-5.9-4.3l4.5-2.4c-0.9-6.2-2.5-13.1-3.1-16.8
		c-1.8-10-5.2-17.7-8.5-29l-9.3-2.7l8.3-0.5c-6.5-21.6-16.5-40.7-16.5-40.7s-5.1,19-11.2,49v0l11.2,6.2l-13.2,3.7
		c-2,10.3-4,21.6-6,33.7l11.9,4.5l-13,2.6c-6.2,40.4-11.3,88.5-10.4,135.3c54.1,0,74,0,74,0S271.3,730.8,265.7,686.8z"/>
	<path class="st6" d="M228.8,705.5l-11.6-1.8l11.1-2.2c-1.6-12.5-3.2-24.5-4.6-33.9l-8.2-3.3h7.7c-0.7-4.9-1.4-9-1.9-12
		c-1.4-8-3.8-17.4-6.5-26.4l-6.6-2.1l5.8-0.4c-5.2-17.2-10.8-32.3-10.8-32.3s-4.1,15.1-8.9,39v0l8.9,5l-10.5,3
		c-1.6,8.2-3.2,17.2-4.8,26.8l8.9-4.3l-9.8,10c-5,32.1-9,70.4-8.3,107.6c43,0,58.9,0,58.9,0S233.3,740.5,228.8,705.5z"/>
	<path class="st7" d="M239.9,597.7l5.8,109C245.7,706.7,247.2,633.7,239.9,597.7z"/>
	<path class="st6" d="M321.9,659.6l13.5-8.7c-4.7-19.8-9.8-39.1-15-55l-9.4-2.5l8-1.6c-3.1-9.1-6.3-16.8-9.5-22.6
		c-3.3,10.1-6.4,22.4-9.2,35.7l7,3.4h-7.7c-1.5,7.5-2.9,15.3-4.3,23.2l12-2.9l-13.1,9.9c-9.6,59.4-14.5,123.9-14.5,123.9h77.9
		c0,0-9.1-55.2-21.4-108.2L321.9,659.6z"/>
	<path class="st5" d="M418.8,701.3l-12.8-1.7l12.3-2c-1.8-11.8-3.5-23.1-5-32l-9-3.1h8.5c-0.8-4.7-1.5-8.5-2.1-11.3
		c-1.5-7.5-4.2-16.4-7.1-24.9l-7.2-2l6.4-0.4c-5.7-16.2-11.9-30.5-11.9-30.5s-4.5,14.3-9.8,36.8v0l9.8,4.7l-11.6,2.8
		c-1.7,7.7-3.5,16.2-5.2,25.3l9.8-4.1l-10.8,9.4c-5.5,30.3-9.9,66.4-9.1,101.6c47.3,0,64.8,0,64.8,0S423.8,734.3,418.8,701.3z"/>
	<path class="st5" d="M587.1,644.3l8.7-1.1c-5-19.5-10.5-38.6-16.2-54.2l-10.1-2.4l8.6-1.6c-3.4-8.9-6.8-16.6-10.2-22.3
		c-3.6,10-6.9,22-9.9,35.2l7.5,3.3h-8.3c-1.6,7.4-3.2,15-4.6,22.9l21.1,1.7l-22.3,5.1c-10.4,58.5-15.7,122.2-15.7,122.2h83.9
		c0,0-9.8-54.4-23-106.7L587.1,644.3z"/>
	<path class="st5" d="M465.2,624.3l-12.6-4.6c5.4-20.6,11.4-40.7,17.7-57.3l12.5-3.1l-10.9-1.2c3.8-9.5,8.1-27.9,12-34
		c4.9,10.2,9.3,32.8,13.6,46.4l-9.3,3.9l10.3-0.5c2.4,7.6,4.6,15.5,6.8,23.5l-16.8,9.3l18.6-2.2c15.6,60.4,25.1,126.3,25.1,126.3
		l-116.4,10.4c0,0,16.7-63,30.9-118.1L465.2,624.3z"/>
	<path class="st6" d="M362.7,695.8l10.3-6.6c-3.6-15.1-7.4-29.8-11.4-41.9l-7.2-1.9l6.1-1.2c-2.4-6.9-4.8-12.8-7.2-17.2
		c-2.5,7.7-4.9,17-7,27.2l5.3,2.6h-5.9c-1.2,5.7-2.2,11.6-3.3,17.7l9.1-2.2l-10,7.5c-7.3,45.2-11.1,94.5-11.1,94.5h59.4
		c0,0-6.9-42.1-16.3-82.5L362.7,695.8z"/>
	<path class="st8" d="M433.3,660.6l-15.3-3.3c4.3-20.8,8.9-41,13.7-57.6l8.6-2.6l-7.3-1.7c2.9-9.5,5.8-17.6,8.6-23.7
		c3,10.6,5.8,23.4,8.4,37.4l-6.4,3.5h7c1.4,7.8,2.7,16,3.9,24.3l-10.7,4.7l11.7,2.6c8.8,62.2,13.2,129.9,13.2,129.9h-71
		c0,0,8.3-57.9,19.5-113.4L433.3,660.6z"/>
	<path class="st8" d="M555.8,686.8l-14.6-2.2l14-2.7c1.4-14.1,0.9-30.6-0.8-42.5l-5.9-4.3l4.5-2.4c-0.9-6.2-2.5-13.1-3.1-16.8
		c-1.8-10-5.2-17.7-8.5-29l-9.3-2.7l8.3-0.5c-6.5-21.6-16.5-40.7-16.5-40.7s-5.1,19-11.2,49v0l11.2,6.2l-13.2,3.7
		c-2,10.3-4,21.6-6,33.7l11.9,4.5l-13,2.6c-6.2,40.4-11.3,88.5-10.4,135.3c54.1,0,74,0,74,0S561.4,730.8,555.8,686.8z"/>
	<path class="st6" d="M518.9,705.5l-11.6-1.8l11.1-2.2c-1.6-12.5-3.2-24.5-4.6-33.9l-8.2-3.3h7.7c-0.7-4.9-1.4-9-1.9-12
		c-1.4-8-3.8-17.4-6.5-26.4l-6.6-2.1l5.8-0.4c-5.2-17.2-10.8-32.3-10.8-32.3s-4.1,15.1-8.9,39v0l8.9,5l-10.5,3
		c-1.6,8.2-3.2,17.2-4.8,26.8l8.9-4.3l-9.8,10c-5,32.1-9,70.4-8.3,107.6c43,0,58.9,0,58.9,0S523.4,740.5,518.9,705.5z"/>
	<path class="st7" d="M439.1,620.9l-2.4,113.8C436.7,734.7,434.7,649.3,439.1,620.9z"/>
	<path class="st7" d="M530,597.7l5.8,109C535.8,706.7,537.3,633.7,530,597.7z"/>
	<path class="st8" d="M1796.5,686.8l-14.6-2.2l14-2.7c1.4-14.1,0.9-30.6-0.8-42.5l-5.9-4.3l4.5-2.4c-0.9-6.2-2.5-13.1-3.1-16.8
		c-1.8-10-5.2-17.7-8.5-29l-9.3-2.7l8.3-0.5c-6.5-21.6-16.5-40.7-16.5-40.7s-5.1,19-11.2,49v0l11.2,6.2l-13.2,3.7
		c-2,10.3-4,21.6-6,33.7l11.9,4.5l-13,2.6c-6.2,40.4-11.3,88.5-10.4,135.3c54.1,0,74,0,74,0S1802.1,730.8,1796.5,686.8z"/>
	<path class="st6" d="M1759.6,705.5l-11.6-1.8l11.1-2.2c-1.6-12.5-3.2-24.5-4.6-33.9l-8.2-3.3h7.7c-0.7-4.9-1.4-9-1.9-12
		c-1.4-8-3.8-17.4-6.5-26.4l-6.6-2.1l5.8-0.4c-5.2-17.2-10.8-32.3-10.8-32.3s-4.1,15.1-8.9,39v0l8.9,5l-10.5,3
		c-1.6,8.2-3.2,17.2-4.8,26.8l8.9-4.3l-9.8,10c-5,32.1-9,70.4-8.3,107.6c43,0,58.9,0,58.9,0S1764.1,740.5,1759.6,705.5z"/>
	<path class="st7" d="M1770.7,597.7l5.8,109C1776.5,706.7,1778,633.7,1770.7,597.7z"/>
	<path class="st8" d="M144.8,694.1l-10.7-1.4l10.2-1.7c-1.5-9.9-3-19.3-4.2-26.8l-7.5-2.6h7.1c-0.7-3.9-1.2-7.1-1.7-9.4
		c-1.3-6.3-3.5-13.7-6-20.8l-6.1-1.7l5.4-0.3c-4.8-13.6-9.9-25.5-9.9-25.5s-3.8,11.9-8.2,30.7v0l8.2,3.9l-9.7,2.3
		c-1.5,6.5-2.9,13.6-4.4,21.1l8.7,3.4l-9.6,1c-4.6,25.3-8.3,55.4-7.6,84.8c39.5,0,54.1,0,54.1,0S148.9,721.6,144.8,694.1z"/>
	<path class="st5" d="M716.2,651l10.4-4.7c-4.3-20.5-9-40.6-14.1-57.1l-10.3-3l8.9-1.3c-3.1-9.5-6.4-27.8-9.6-33.9
		c-4.1,10.2-7.9,32.9-11.6,46.5l7.6,3.8l-8.5-0.4c-2,7.6-3.9,15.5-5.8,23.6l13.7,9.1l-15.3-2.1C668.4,692,660,758,660,758l95.7,9.5
		c0,0-13.3-62.9-24.5-117.9L716.2,651z"/>
	<path class="st6" d="M642.7,690.1l12.4-8.6c-4.3-19.5-8.9-38.6-13.7-54.2l-8.6-2.4l7.3-1.6c-2.9-8.9-5.8-16.6-8.7-22.3
		c-3.1,10-5.9,22-8.4,35.2l6.4,3.3h-7c-1.4,7.4-2.7,15-3.9,22.9l5.2,1.8l-6.3,5.1c-8.8,58.5-13.3,122.2-13.3,122.2h71.3
		c0,0-8.3-54.4-19.6-106.7L642.7,690.1z"/>
	<path class="st7" d="M633.5,646v81.3C633.5,727.3,638,682.8,633.5,646z"/>
	<path class="st8" d="M655.2,705.5l-15.3-3.3c4.3-20.8,8.9-41,13.7-57.6l8.6-2.6l-7.3-1.7c2.9-9.5,5.8-17.6,8.6-23.7
		c3,10.6,5.8,23.4,8.4,37.4l-6.4,3.5h7c1.4,7.8,2.7,16,3.9,24.3l-10.7,4.7l11.7,2.6c8.8,62.2,13.2,129.9,13.2,129.9h-71
		c0,0,8.3-57.9,19.5-113.4L655.2,705.5z"/>
	<path class="st7" d="M660.9,665.8l-2.4,113.8C658.5,779.6,656.5,694.3,660.9,665.8z"/>
	<path class="st8" d="M776.2,694.1l-10.7-1.4l10.2-1.7c-1.5-9.9-3-19.3-4.2-26.8l-7.5-2.6h7.1c-0.7-3.9-1.2-7.1-1.7-9.4
		c-1.3-6.3-3.5-13.7-6-20.8l-6-1.7l5.4-0.3c-4.8-13.6-9.9-25.5-9.9-25.5s-3.8,11.9-8.2,30.7v0l8.2,3.9l-9.7,2.3
		c-1.5,6.5-2.9,13.6-4.4,21.1l8.7,3.4l-9.6,1c-4.6,25.3-8.3,55.4-7.6,84.8c39.5,0,54.1,0,54.1,0S780.3,721.6,776.2,694.1z"/>
</g>
<path class="st9" d="M1320.6,708.4v60.9H867.1c0,0,0.4-3.4,1.6-8.7c1-4.4,2.5-10.2,4.8-16.2c0.1-0.1,0.1-0.3,0.2-0.5
	c1.6-4,3.4-8.2,5.7-12.1c3.2-5.5,7.1-10.6,11.9-14.7c0.7-0.6,1.4-1.1,2.1-1.7c4.8-3.5,10.5-6,17.1-6.8c1.5-0.2,3-0.3,4.6-0.3
	c-0.8-6.9,0.6-13,3.5-18.1c4.4-7.8,12.2-13.5,21.4-16.8c2.8-1,5.6-1.8,8.6-2.4c0.2,0,0.5-0.1,0.7-0.1c2.4-0.4,4.8-0.8,7.2-0.9
	c0.1,0,0.3,0,0.4,0c1.8-0.1,3.6-0.2,5.3-0.1c5.1,0.1,10.2,0.9,14.9,2.3c4.8,1.5,9.2,3.7,12.8,6.6c0.4,0.3,0.8,0.6,1.1,1
	c4.6,4.1,8,9.5,9.2,16.3c8.1-4.7,13.1-4.9,16.2-3.4c5,2.5,5.2,9.4,5.2,9.4s0.9-3.4,3.3-8.3c2.1-4.2,5.3-9.4,9.9-14.5
	c5.8-6.4,13.9-12.5,25.1-15.8c1.8-0.5,3.6-1,5.5-1.4c5.2-1,10.9-1.5,17.2-1.3c1.2-5.6,3.5-10.6,6.7-14.9c2.5-3.4,5.5-6.4,8.9-9
	c4.1-3.1,8.7-5.5,13.5-7.1c0.8-0.3,1.6-0.5,2.4-0.7c2.8-0.8,5.7-1.3,8.5-1.4c5.8-0.4,11.5,0.4,16.7,2.6c7.4,3.1,13.7,9.1,17.3,18.3
	c10-8.4,17.8-8.9,23.7-6.3c8.1,3.6,12.6,13.3,14,17c0.4,0.9,0.5,1.5,0.5,1.5s0.9-0.7,2.4-1.6c1.8-1.1,4.6-2.5,8-3.5
	c0.6-0.2,1.1-0.3,1.7-0.5c0.7-0.2,1.5-0.3,2.3-0.5c5.5-0.9,12-0.4,18.8,3.4c1.2,0.7,2.5,1.6,3.8,2.5c0.6-1,1.2-1.9,1.8-2.7
	c1.4-1.9,3.1-3.5,4.9-4.8c2.4-1.8,5.2-3,8-3.8c9.9-2.7,21.7,0.2,30.3,7.3c11.8,9.8,17.3,27.5,3.1,49.2c16,0,19.7,13.5,19.7,13.5
	s0.7-3.7,4.4-6.8C1307.1,710,1312.2,707.8,1320.6,708.4z"/>
<path class="st9" d="M902.2,757.7c-2.5,1-4.9,2-7.2,2.9c-9,3.7-15.8,6.5-21,8.7c0,0-0.1,0-0.2,0.1c-0.8,0.3-1.5,0.6-2.3,0.9
	c-1.7,0.7-3.2,1.3-4.5,1.8c-9.8,4.1-9.8,4.1-9.8,4.1l-2.8,0h-0.1l-0.6,0l-10.3-0.2l-9.5-0.1l-14.8-0.2l-12-0.2l-22.3-0.3l-9.8-0.1
	l-0.7,0l-46.1-0.7l-76.1-1.1l-31.6-0.5l-5.7-0.1l-0.7,0l-2.5,0l-28.3-0.4l-57.3-0.8l-19.7-0.3l-11.9-0.2l-1.4,0l-1,0l-35.6-0.5
	l-28.3-0.4l-33.8-0.5v-52.8c0,0,16.7-18.6,40.7-10.6c2,0.6,3.9,1.5,6,2.5c2.1-11.1,10.8-17.2,20.3-18.5c0.8-0.1,1.6-0.2,2.4-0.2
	c2.7-0.1,5.4,0.1,8.1,0.8c8.8,2.2,16.3,8.8,17.4,19.8c1.1-0.9,2.2-1.7,3.3-2.4c0,0,0,0,0,0c0.7-0.5,1.4-0.9,2.1-1.3c0,0,0,0,0,0
	c3.7-2,7-2.9,10-2.9c6.7-0.1,11.7,3.7,14.9,7.2c2.7,3,4.1,5.7,4.1,5.7s16.3-37.2,63.5-27.8c1.4,0.3,2.8,0.6,4.3,1
	c0.6-1.7,1.3-3.2,2.1-4.7c1.4-2.7,3.2-5,5.2-7.1c9.9-10.2,25.5-12.8,37.8-7.6c3.4,1.4,6.6,3.5,9.3,6.2c6,5.9,9.7,14.8,9,26.8
	c0,0.5-0.1,0.9-0.1,1.4c0,0.4-0.1,0.8-0.1,1.3c-0.1,0.8-0.2,1.7-0.3,2.6c27.1-4.9,30.8,14.8,30.8,14.8s15.7-25.1,43.4-19.7
	c0.4-3.6,1.8-7,4.1-10.1c19.3-26.1,99.4-29.7,107.5,29.8c22.6,1.2,18.7,13.6,18.7,13.6s0.5-0.4,1.5-0.9c3.2-1.8,11.1-5.5,19.7-4
	c4.5,0.8,9.1,3,13.3,7.7c0.5,0.6,1.1,1.2,1.6,1.9c2.8,3.7,5.4,8.7,7.5,15.3C902,757,902.1,757.4,902.2,757.7z"/>
<path class="st8" d="M1320.6,727.5v41.7H394v-36.7c0,0,15.3-8.1,39-12.8c8.4-1.7,17.8-3,27.9-3.3c0.4,0,0.9,0,1.3,0
	c1.3,0,2.5-0.1,3.8-0.1c8.2,0,16.8,0.5,25.8,2c0.7,0.1,1.4,0.2,2.1,0.3c0.9,0.2,1.9,0.3,2.8,0.5c1.6,0.3,3.3,0.7,4.9,1
	c6.4,1.5,12.9,3.4,19.4,5.8c5,1.9,10,4.1,15,6.6c12.5-24.8,34.7-25.9,47.7-16c7.6,5.8,12.1,15.3,9.8,26.1c3.8-1.8,7.5-2.9,11-3.5
	c10.8-1.8,19.7,1.6,25.8,5.3c0.2,0.1,0.4,0.2,0.5,0.3v0h0c1,0.6,1.9,1.2,2.7,1.8c1.6,1.2,3,2.4,4,3.3c1.4,1.3,2.1,2.2,2.1,2.2
	s1.7-0.9,4.8-2.3c1-0.5,2.1-1,3.4-1.5c16.8-7,56.8-20.3,97.8-7.8c-3.4-34.5,38.9-41.4,57.1-28.9c0.2,0.1,0.4,0.2,0.5,0.4
	c0.6,0.4,1.1,0.8,1.6,1.3c2.4,2.1,4.1,4.5,5.1,7.4c0.7,2,1,4.2,0.8,6.5c1.3,0,2.6,0,3.8,0.1c2.3,0.1,4.4,0.4,6.3,0.8
	c1.6,0.3,3,0.7,4.4,1.1c2,0.6,3.8,1.4,5.4,2.2c0.3,0.2,0.6,0.3,1,0.5c8,4.4,12.1,11.1,14.3,16.5c2,4.9,2.3,8.7,2.3,8.7
	s3.8-2.7,10.2-6.1c4.1-2.2,9.3-4.6,15.2-6.7c0.6-0.2,1.3-0.5,2-0.7c5.3-1.8,11.1-3.3,17.2-4.2c0.5-0.1,1-0.1,1.6-0.2
	c0.1,0,0.2,0,0.3,0c4.2-0.5,8.5-0.7,12.8-0.5c1.4,0.1,2.9,0.2,4.3,0.3c-1-10.6,5.1-18.2,12.5-21c8.4-3.2,18.4-0.3,21.5,11
	c0.3-0.1,0.6-0.1,0.9-0.1c7.6-1.3,13.2,0.1,17.3,2.7c1,0.7,1.9,1.4,2.8,2.2c6.7,6.2,7.9,15.5,7.9,15.5s12.9-26.6,44.1-34.8
	c2.6-0.7,5.2-1.2,8-1.6c1.7-0.3,3.5-0.5,5.4-0.6c3.6-0.3,7.4-0.3,11.5,0c1.6,0.1,3.3,0.3,5,0.5c0.4-0.4,0.8-0.7,1.2-1c0,0,0,0,0,0
	c4-3.2,8.2-4.9,12.2-5.8c9.2-1.9,17.9,1,22,2.7c1.5,0.7,2.4,1.1,2.4,1.1s0.2-0.5,0.6-1.4c1.2-2.3,3.9-7.1,9-11.2
	c3.1-2.4,6.9-4.6,11.8-5.8c2.4-0.6,5-0.9,7.8-1c0.6,0,1.2,0,1.9,0c1.1-8.4,10.7-17.3,23.9-22.4c10.5-4.1,23.4-5.8,36.1-2.9
	c9.6,2.2,19.2,6.9,27.7,15.2c2.2,2.2,4.4,4.6,6.5,7.3c1.3-0.7,2.5-1.3,3.8-1.9c9.7-4.3,19-4.3,26.6-1.4c0.9,0.3,1.8,0.7,2.7,1.2
	c13.3,6.7,20.1,23.3,12,41.2c21.4-1.7,28.2,14.7,28.2,14.7s8.3-9.5,22-12.9C1311.1,727.5,1315.6,727.1,1320.6,727.5z"/>
<path class="st9" d="M416.1,708.4v60.9H-8.1c0,0,0.4-3.4,1.5-8.7c0.9-4.4,2.4-10.2,4.5-16.2c0.1-0.1,0.1-0.3,0.2-0.5
	c1.5-4,3.2-8.2,5.4-12.1c3-5.5,6.6-10.6,11.2-14.7c0.6-0.6,1.3-1.1,2-1.7c4.5-3.5,9.8-6,16-6.8c1.4-0.2,2.8-0.3,4.3-0.3
	c-0.7-6.9,0.6-13,3.2-18.1c4.1-7.8,11.4-13.5,20-16.8c2.6-1,5.3-1.8,8-2.4c0.2,0,0.4-0.1,0.7-0.1c2.2-0.4,4.5-0.8,6.7-0.9
	c0.1,0,0.2,0,0.3,0c1.7-0.1,3.3-0.2,5-0.1c4.8,0.1,9.5,0.9,13.9,2.3c4.5,1.5,8.6,3.7,12,6.6c0.4,0.3,0.7,0.6,1.1,1
	c4.3,4.1,7.4,9.5,8.6,16.3c7.5-4.7,12.3-4.9,15.2-3.4c4.7,2.5,4.9,9.4,4.9,9.4s0.9-3.4,3.1-8.3c2-4.2,4.9-9.4,9.3-14.5
	c5.4-6.4,13-12.5,23.4-15.8c1.7-0.5,3.4-1,5.2-1.4c4.8-1,10.2-1.5,16.1-1.3c1.1-5.6,3.3-10.6,6.3-14.9c2.3-3.4,5.2-6.4,8.3-9
	c3.8-3.1,8.2-5.5,12.7-7.1c0.7-0.3,1.5-0.5,2.2-0.7c2.6-0.8,5.3-1.3,8-1.4c5.4-0.4,10.8,0.4,15.6,2.6c7,3.1,12.8,9.1,16.1,18.3
	c9.3-8.4,16.6-8.9,22.1-6.3c7.6,3.6,11.7,13.3,13.1,17c0.3,0.9,0.5,1.5,0.5,1.5s0.8-0.7,2.3-1.6c1.7-1.1,4.3-2.5,7.5-3.5
	c0.5-0.2,1.1-0.3,1.6-0.5c0.7-0.2,1.4-0.3,2.1-0.5c5.1-0.9,11.3-0.4,17.6,3.4c1.2,0.7,2.4,1.6,3.5,2.5c0.5-1,1.1-1.9,1.7-2.7
	c1.4-1.9,2.9-3.5,4.6-4.8c2.3-1.8,4.8-3,7.5-3.8c9.3-2.7,20.3,0.2,28.3,7.3c11,9.8,16.2,27.5,2.9,49.2c15,0,18.4,13.5,18.4,13.5
	s0.6-3.7,4.1-6.8C403.5,710,408.2,707.8,416.1,708.4z"/>
<path class="st9" d="M24.7,757.7c-2.4,1-4.6,2-6.7,2.9c-8.4,3.7-14.8,6.5-19.7,8.7c0,0-0.1,0-0.1,0.1c-0.7,0.3-1.4,0.6-2.1,0.9
	c-1.6,0.7-3,1.3-4.2,1.8c-9.2,4.1-9.2,4.1-9.2,4.1l-2.6,0H-20l-0.6,0l-9.7-0.2l-8.9-0.1l-13.9-0.2l-11.3-0.2l-20.8-0.3l-9.2-0.1
	l-0.6,0l-43.1-0.7l-71.2-1.1l-29.6-0.5l-5.4-0.1l-0.7,0l-2.4,0l-26.5-0.4l-53.6-0.8l-18.4-0.3l-11.2-0.2l-1.4,0l-1,0l-33.3-0.5
	l-26.5-0.4l-31.6-0.5v-52.8c0,0,15.6-18.6,38-10.6c1.8,0.6,3.7,1.5,5.6,2.5c2-11.1,10.1-17.2,19-18.5c0.7-0.1,1.5-0.2,2.2-0.2
	c2.5-0.1,5.1,0.1,7.5,0.8c8.3,2.2,15.3,8.8,16.2,19.8c1.1-0.9,2.1-1.7,3.1-2.4c0,0,0,0,0,0c0.7-0.5,1.3-0.9,2-1.3c0,0,0,0,0,0
	c3.4-2,6.6-2.9,9.4-2.9c6.3-0.1,11,3.7,13.9,7.2c2.5,3,3.8,5.7,3.8,5.7s15.2-37.2,59.4-27.8c1.3,0.3,2.6,0.6,4,1
	c0.6-1.7,1.2-3.2,2-4.7c1.4-2.7,3-5,4.9-7.1c9.2-10.2,23.8-12.8,35.3-7.6c3.2,1.4,6.2,3.5,8.7,6.2c5.6,5.9,9.1,14.8,8.4,26.8
	c0,0.5,0,0.9-0.1,1.4c0,0.4-0.1,0.8-0.1,1.3c-0.1,0.8-0.2,1.7-0.3,2.6c25.4-4.9,28.8,14.8,28.8,14.8s14.6-25.1,40.6-19.7
	c0.3-3.6,1.7-7,3.8-10.1c18-26.1,93-29.7,100.5,29.8c21.1,1.2,17.5,13.6,17.5,13.6s0.5-0.4,1.4-0.9c3-1.8,10.4-5.5,18.4-4
	c4.2,0.8,8.5,3,12.4,7.7c0.5,0.6,1,1.2,1.5,1.9c2.6,3.7,5.1,8.7,7.1,15.3C24.5,757,24.6,757.4,24.7,757.7z"/>
<path class="st8" d="M416.1,727.5v41.7h-866.6v-36.7c0,0,14.3-8.1,36.5-12.8c7.8-1.7,16.6-3,26.1-3.3c0.4,0,0.8,0,1.2,0
	c1.2,0,2.4-0.1,3.6-0.1c7.7,0,15.7,0.5,24.1,2c0.6,0.1,1.3,0.2,1.9,0.3c0.9,0.2,1.7,0.3,2.6,0.5c1.5,0.3,3.1,0.7,4.6,1
	c6,1.5,12,3.4,18.1,5.8c4.7,1.9,9.3,4.1,14,6.6c11.7-24.8,32.4-25.9,44.6-16c7.1,5.8,11.3,15.3,9.1,26.1c3.6-1.8,7-2.9,10.3-3.5
	c10.1-1.8,18.4,1.6,24.1,5.3c0.2,0.1,0.3,0.2,0.5,0.3v0h0c0.9,0.6,1.8,1.2,2.5,1.8c1.5,1.2,2.8,2.4,3.7,3.3c1.3,1.3,1.9,2.2,1.9,2.2
	s1.6-0.9,4.5-2.3c0.9-0.5,2-1,3.2-1.5c15.7-7,53.1-20.3,91.5-7.8c-3.2-34.5,36.3-41.4,53.4-28.9c0.2,0.1,0.3,0.2,0.5,0.4
	c0.5,0.4,1,0.8,1.5,1.3c2.2,2.1,3.9,4.5,4.8,7.4c0.6,2,0.9,4.2,0.8,6.5c1.2,0,2.4,0,3.6,0.1c2.1,0.1,4.1,0.4,5.9,0.8
	c1.5,0.3,2.8,0.7,4.1,1.1c1.8,0.6,3.5,1.4,5.1,2.2c0.3,0.2,0.6,0.3,0.9,0.5c7.4,4.4,11.3,11.1,13.4,16.5c1.8,4.9,2.1,8.7,2.1,8.7
	s3.5-2.7,9.5-6.1c3.8-2.2,8.7-4.6,14.2-6.7c0.6-0.2,1.2-0.5,1.8-0.7c4.9-1.8,10.4-3.3,16.1-4.2c0.5-0.1,1-0.1,1.5-0.2
	c0.1,0,0.2,0,0.3,0c3.9-0.5,7.9-0.7,12-0.5c1.4,0.1,2.7,0.2,4.1,0.3c-1-10.6,4.7-18.2,11.6-21c7.8-3.2,17.2-0.3,20.1,11
	c0.3-0.1,0.5-0.1,0.8-0.1c7.2-1.3,12.4,0.1,16.2,2.7c0.9,0.7,1.8,1.4,2.6,2.2c6.3,6.2,7.4,15.5,7.4,15.5s12.1-26.6,41.3-34.8
	c2.4-0.7,4.9-1.2,7.5-1.6c1.6-0.3,3.3-0.5,5.1-0.6c3.4-0.3,7-0.3,10.7,0c1.5,0.1,3.1,0.3,4.7,0.5c0.4-0.4,0.7-0.7,1.1-1c0,0,0,0,0,0
	c3.7-3.2,7.6-4.9,11.5-5.8c8.6-1.9,16.7,1,20.6,2.7c1.4,0.7,2.3,1.1,2.3,1.1s0.2-0.5,0.6-1.4c1.1-2.3,3.7-7.1,8.4-11.2
	c2.9-2.4,6.5-4.6,11.1-5.8c2.2-0.6,4.6-0.9,7.3-1c0.6,0,1.2,0,1.8,0c1.1-8.4,10-17.3,22.3-22.4c9.8-4.1,21.9-5.8,33.8-2.9
	c9,2.2,18,6.9,25.9,15.2c2.1,2.2,4.1,4.6,6.1,7.3c1.2-0.7,2.4-1.3,3.5-1.9c9.1-4.3,17.8-4.3,24.8-1.4c0.9,0.3,1.7,0.7,2.5,1.2
	c12.4,6.7,18.8,23.3,11.2,41.2c20.1-1.7,26.3,14.7,26.3,14.7s7.8-9.5,20.6-12.9C407.2,727.5,411.4,727.1,416.1,727.5z"/>
<path class="st9" d="M2005.9,708.4v60.9h-424.1c0,0,0.4-3.4,1.5-8.7c0.9-4.4,2.4-10.2,4.5-16.2c0.1-0.1,0.1-0.3,0.2-0.5
	c1.5-4,3.2-8.2,5.4-12.1c3-5.5,6.6-10.6,11.2-14.7c0.6-0.6,1.3-1.1,2-1.7c4.5-3.5,9.8-6,16-6.8c1.4-0.2,2.8-0.3,4.3-0.3
	c-0.7-6.9,0.6-13,3.2-18.1c4.1-7.8,11.4-13.5,20-16.8c2.6-1,5.3-1.8,8-2.4c0.2,0,0.4-0.1,0.7-0.1c2.2-0.4,4.5-0.8,6.7-0.9
	c0.1,0,0.2,0,0.3,0c1.7-0.1,3.3-0.2,5-0.1c4.8,0.1,9.5,0.9,13.9,2.3c4.5,1.5,8.6,3.7,12,6.6c0.4,0.3,0.7,0.6,1.1,1
	c4.3,4.1,7.4,9.5,8.6,16.3c7.5-4.7,12.3-4.9,15.2-3.4c4.7,2.5,4.9,9.4,4.9,9.4s0.9-3.4,3.1-8.3c2-4.2,4.9-9.4,9.3-14.5
	c5.4-6.4,13-12.5,23.4-15.8c1.7-0.5,3.4-1,5.2-1.4c4.8-1,10.2-1.5,16.1-1.3c1.1-5.6,3.3-10.6,6.3-14.9c2.3-3.4,5.2-6.4,8.3-9
	c3.8-3.1,8.2-5.5,12.7-7.1c0.7-0.3,1.5-0.5,2.2-0.7c2.6-0.8,5.3-1.3,8-1.4c5.4-0.4,10.8,0.4,15.6,2.6c7,3.1,12.8,9.1,16.1,18.3
	c9.3-8.4,16.6-8.9,22.1-6.3c7.6,3.6,11.7,13.3,13.1,17c0.3,0.9,0.5,1.5,0.5,1.5s0.8-0.7,2.3-1.6c1.7-1.1,4.3-2.5,7.5-3.5
	c0.5-0.2,1.1-0.3,1.6-0.5c0.7-0.2,1.4-0.3,2.1-0.5c5.1-0.9,11.3-0.4,17.6,3.4c1.2,0.7,2.4,1.6,3.5,2.5c0.5-1,1.1-1.9,1.7-2.7
	c1.4-1.9,2.9-3.5,4.6-4.8c2.3-1.8,4.8-3,7.5-3.8c9.3-2.7,20.3,0.2,28.3,7.3c11,9.8,16.2,27.5,2.9,49.2c15,0,18.4,13.5,18.4,13.5
	s0.6-3.7,4.1-6.8C1993.3,710,1998,707.8,2005.9,708.4z"/>
<path class="st9" d="M1614.5,757.7c-2.4,1-4.6,2-6.7,2.9c-8.4,3.7-14.8,6.5-19.7,8.7c0,0-0.1,0-0.1,0.1c-0.7,0.3-1.4,0.6-2.1,0.9
	c-1.6,0.7-3,1.3-4.2,1.8c-9.2,4.1-9.2,4.1-9.2,4.1l-2.6,0h-0.1l-0.6,0l-9.7-0.2l-8.9-0.1l-13.9-0.2l-11.3-0.2l-20.8-0.3l-9.2-0.1
	l-0.6,0l-43.1-0.7l-71.2-1.1l-29.6-0.5l-5.4-0.1l-0.7,0l-2.4,0l-26.5-0.4l-53.6-0.8l-18.4-0.3l-11.2-0.2l-1.4,0l-1,0l-33.3-0.5
	l-26.5-0.4l-31.6-0.5v-52.8c0,0,15.6-18.6,38-10.6c1.8,0.6,3.7,1.5,5.6,2.5c2-11.1,10.1-17.2,19-18.5c0.7-0.1,1.5-0.2,2.2-0.2
	c2.5-0.1,5.1,0.1,7.5,0.8c8.3,2.2,15.3,8.8,16.2,19.8c1.1-0.9,2.1-1.7,3.1-2.4c0,0,0,0,0,0c0.7-0.5,1.3-0.9,2-1.3c0,0,0,0,0,0
	c3.4-2,6.6-2.9,9.4-2.9c6.3-0.1,11,3.7,13.9,7.2c2.5,3,3.8,5.7,3.8,5.7s15.2-37.2,59.4-27.8c1.3,0.3,2.6,0.6,4,1
	c0.6-1.7,1.2-3.2,2-4.7c1.4-2.7,3-5,4.9-7.1c9.2-10.2,23.8-12.8,35.3-7.6c3.2,1.4,6.2,3.5,8.7,6.2c5.6,5.9,9.1,14.8,8.4,26.8
	c0,0.5,0,0.9-0.1,1.4c0,0.4-0.1,0.8-0.1,1.3c-0.1,0.8-0.2,1.7-0.3,2.6c25.4-4.9,28.8,14.8,28.8,14.8s14.6-25.1,40.6-19.7
	c0.3-3.6,1.7-7,3.8-10.1c18-26.1,93-29.7,100.5,29.8c21.1,1.2,17.5,13.6,17.5,13.6s0.5-0.4,1.4-0.9c3-1.8,10.4-5.5,18.4-4
	c4.2,0.8,8.5,3,12.4,7.7c0.5,0.6,1,1.2,1.5,1.9c2.6,3.7,5.1,8.7,7.1,15.3C1614.4,757,1614.4,757.4,1614.5,757.7z"/>
<path class="st8" d="M2005.9,727.5v41.7h-866.6v-36.7c0,0,14.3-8.1,36.5-12.8c7.8-1.7,16.6-3,26.1-3.3c0.4,0,0.8,0,1.2,0
	c1.2,0,2.4-0.1,3.6-0.1c7.7,0,15.7,0.5,24.1,2c0.6,0.1,1.3,0.2,1.9,0.3c0.9,0.2,1.7,0.3,2.6,0.5c1.5,0.3,3.1,0.7,4.6,1
	c6,1.5,12,3.4,18.1,5.8c4.7,1.9,9.3,4.1,14,6.6c11.7-24.8,32.4-25.9,44.6-16c7.1,5.8,11.3,15.3,9.2,26.1c3.6-1.8,7-2.9,10.3-3.5
	c10.1-1.8,18.4,1.6,24.1,5.3c0.2,0.1,0.3,0.2,0.5,0.3v0h0c0.9,0.6,1.8,1.2,2.5,1.8c1.5,1.2,2.8,2.4,3.7,3.3c1.3,1.3,1.9,2.2,1.9,2.2
	s1.6-0.9,4.5-2.3c0.9-0.5,2-1,3.2-1.5c15.7-7,53.1-20.3,91.5-7.8c-3.2-34.5,36.3-41.4,53.4-28.9c0.2,0.1,0.3,0.2,0.5,0.4
	c0.5,0.4,1,0.8,1.5,1.3c2.2,2.1,3.9,4.5,4.8,7.4c0.6,2,0.9,4.2,0.8,6.5c1.2,0,2.4,0,3.6,0.1c2.1,0.1,4.1,0.4,5.9,0.8
	c1.5,0.3,2.8,0.7,4.1,1.1c1.8,0.6,3.5,1.4,5.1,2.2c0.3,0.2,0.6,0.3,0.9,0.5c7.4,4.4,11.3,11.1,13.4,16.5c1.8,4.9,2.1,8.7,2.1,8.7
	s3.5-2.7,9.5-6.1c3.8-2.2,8.7-4.6,14.2-6.7c0.6-0.2,1.2-0.5,1.8-0.7c4.9-1.8,10.4-3.3,16.1-4.2c0.5-0.1,1-0.1,1.5-0.2
	c0.1,0,0.2,0,0.3,0c3.9-0.5,7.9-0.7,12-0.5c1.4,0.1,2.7,0.2,4.1,0.3c-1-10.6,4.7-18.2,11.6-21c7.8-3.2,17.2-0.3,20.1,11
	c0.3-0.1,0.5-0.1,0.8-0.1c7.2-1.3,12.4,0.1,16.2,2.7c0.9,0.7,1.8,1.4,2.6,2.2c6.3,6.2,7.4,15.5,7.4,15.5s12.1-26.6,41.3-34.8
	c2.4-0.7,4.9-1.2,7.5-1.6c1.6-0.3,3.3-0.5,5.1-0.6c3.4-0.3,7-0.3,10.7,0c1.5,0.1,3.1,0.3,4.7,0.5c0.4-0.4,0.7-0.7,1.1-1c0,0,0,0,0,0
	c3.7-3.2,7.6-4.9,11.5-5.8c8.6-1.9,16.7,1,20.6,2.7c1.4,0.7,2.3,1.1,2.3,1.1s0.2-0.5,0.6-1.4c1.1-2.3,3.7-7.1,8.4-11.2
	c2.9-2.4,6.5-4.6,11.1-5.8c2.2-0.6,4.6-0.9,7.3-1c0.6,0,1.2,0,1.8,0c1.1-8.4,10-17.3,22.3-22.4c9.8-4.1,21.9-5.8,33.8-2.9
	c9,2.2,18,6.9,25.9,15.2c2.1,2.2,4.1,4.6,6.1,7.3c1.2-0.7,2.4-1.3,3.5-1.9c9.1-4.3,17.8-4.3,24.8-1.4c0.9,0.3,1.7,0.7,2.5,1.2
	c12.4,6.7,18.8,23.3,11.2,41.2c20.1-1.7,26.3,14.7,26.3,14.7s7.8-9.5,20.6-12.9C1997,727.5,2001.2,727.1,2005.9,727.5z"/>
<path class="st7" d="M1101,755.7c0,0,7.5-15.7,30.8-13c-4.2-21.9,10.7-26.6,20.2-21.1c2-5.5,9.1-2.1,9.1-2.1s1.4-15.7,16.9-12.9
	c10-11.4,38.7-9.3,38.9,12.8c9.8,0.4,9.5,8.3,9.5,8.3s7.3-7.8,14.4-4c4.3-11.1,24.8-4.5,18.9,10.5c8.7-0.4,11.6,8.6,9.8,13.4
	c11.1-2.1,17.5,8.2,17.5,8.2L1101,755.7z"/>
<path class="st7" d="M1084.6,755.6c0,0,0.7-11.8-10.8-11.2c-2.6-11.8-18.4-7.9-17.7,3.3c-16.7-3.3-27.3,8.1-27.3,8.1L1084.6,755.6z"
	/>
<path class="st7" d="M748.1,755.9l-16.1,0l-46.7,0l-15.8,0l-9.2,0h-2.2l-28.3,0l-22.7,0l-27.1,0v-13.6c0,0,17.1-1.3,28.2,1.8
	c2.4,0.7,4.5,1.5,6.1,2.7c6.5-8.2,13.2-7.7,18.1-5.4c4.4,2,7.3,5.4,7.3,5.4s8-9.5,18.3-11.8c0.5-0.1,0.9-0.2,1.4-0.3
	c1.3-0.2,2.5-0.3,3.8-0.2c0.8,0,1.6,0.1,2.4,0.3c3.2,0.6,6.5,2.2,9.7,5c2.5-1.2,5.2-2,8-2.4c12.9-1.8,26.9,5.4,28.5,15.5
	c5.3-3.5,12.1-3.7,18.5-2.7c1.4,0.2,2.8,0.5,4.2,0.9c0.5,0.1,1,0.2,1.5,0.4c5.9,1.6,10.6,3.8,11.8,4.4
	C748,755.8,748.1,755.9,748.1,755.9z"/>
<g>
	<path class="st10" d="M1156.1,630.8c-9.8,0-79.4,123.4-79.4,123.4h158.9C1235.5,754.2,1165.9,630.8,1156.1,630.8z"/>
	<path class="st1" d="M1141.5,656.1c0,0-2.1,10,4.1,12c6.2,2,9.4-11.8,9.4-11.8s4.6,13.2,11.1,11.5c6.5-1.7,2.2-13.1,2.2-13.1
		s4.6,11,13,8.4c-11.9-18.5-21.9-32.4-25.2-32.4c-3.5,0-14.5,15.5-27.2,35.6C1133.4,667.6,1141.5,656.1,1141.5,656.1z"/>
</g>
<g>
	<path class="st10" d="M678.7,630.8c-9.8,0-79.4,123.4-79.4,123.4h158.9C758.1,754.2,688.4,630.8,678.7,630.8z"/>
	<path class="st1" d="M664.1,656.1c0,0-2.1,10,4.1,12c6.2,2,9.4-11.8,9.4-11.8s4.6,13.2,11.1,11.5c6.5-1.7,2.2-13.1,2.2-13.1
		s4.6,11,13,8.4c-11.9-18.5-21.9-32.4-25.2-32.4c-3.5,0-14.5,15.5-27.2,35.6C656,667.6,664.1,656.1,664.1,656.1z"/>
</g>
<g>
	<path class="st11" d="M1073.3,648.4c-8.1,0-66,102.4-66,102.4h132C1139.3,750.9,1081.4,648.4,1073.3,648.4z"/>
	<path class="st1" d="M1061.2,667.6c0,0-1.7,8.3,3.4,9.9c5.1,1.7,7.8-9.8,7.8-9.8s3.8,11,9.2,9.6c5.4-1.4,1.8-10.9,1.8-10.9
		s3.8,9.2,10.8,7c-9.9-15.3-18.2-26.9-20.9-26.9c-2.9,0-12,12.9-22.6,29.5C1054.5,677.1,1061.2,667.6,1061.2,667.6z"/>
</g>
<g>
	<path class="st11" d="M1352.5,665.7c-6.8,0-54.9,85.2-54.9,85.2h109.7C1407.4,750.9,1359.3,665.7,1352.5,665.7z"/>
	<path class="st1" d="M1342.5,681.6c0,0-1.4,6.9,2.8,8.3c4.3,1.4,6.5-8.1,6.5-8.1s3.2,9.1,7.7,8c4.5-1.2,1.5-9,1.5-9s3.2,7.6,9,5.8
		c-8.2-12.8-15.1-22.4-17.4-22.4c-2.4,0-10,10.7-18.8,24.6C1336.9,689.6,1342.5,681.6,1342.5,681.6z"/>
</g>
<g>
	<path class="st12" d="M1157.7,754.4c9.9-23.4,45.1-55.7,86.9-55.6c41.6,0.1,76.6,32.2,86.6,55.6L1157.7,754.4z"/>
	<path class="st13" d="M1157.7,754.4c9.9-23.3,44.6-55.3,86-55.6l0,55.6L1157.7,754.4z"/>
</g>
<g>
	<path class="st12" d="M1793.8,754.4c9.9-23.4,45.1-55.7,86.9-55.6c41.6,0.1,76.6,32.2,86.6,55.6L1793.8,754.4z"/>
	<path class="st13" d="M1793.8,754.4c9.9-23.3,44.6-55.3,86-55.6l0,55.6L1793.8,754.4z"/>
</g>
<g>
	<path class="st12" d="M172,754.4c7.7-18.2,35-43.2,67.5-43.2c32.3,0.1,59.4,25,67.3,43.2L172,754.4z"/>
	<path class="st13" d="M172,754.4c7.7-18,34.6-42.9,66.8-43.2l0,43.2L172,754.4z"/>
</g>
<g>
	<path class="st14" d="M1218.3,750.6c5.6-12.8,27.2-31.1,52.9-31.1c25.8,0,47.4,18.3,52.9,31.1L1218.3,750.6z"/>
	<path class="st15" d="M1270.7,750.6h-52.4c5.5-12.7,26.9-30.8,52.4-31.1L1270.7,750.6z"/>
</g>
<g>
	<path class="st14" d="M639.3,749.4c5.6-12.8,27.2-31.1,52.9-31.1c25.8,0,47.4,18.3,52.9,31.1L639.3,749.4z"/>
	<path class="st15" d="M691.7,749.4l-52.4,0c5.5-12.7,26.9-30.8,52.4-31.1L691.7,749.4z"/>
</g>
<g>
	<path class="st14" d="M37.7,749.4c5.6-12.8,27.2-31.1,52.9-31.1c25.8,0,47.4,18.3,52.9,31.1L37.7,749.4z"/>
	<path class="st15" d="M90,749.4l-52.4,0c5.5-12.7,26.9-30.8,52.4-31.1L90,749.4z"/>
</g>
<g>
	<ellipse class="st7" cx="851.3" cy="753.2" rx="157.9" ry="7.6"/>
	<polygon class="st16" points="981.7,752.5 720.3,752.5 750.2,693.4 780.9,632.8 935,632.8 	"/>
	<polygon class="st17" points="923.5,668.4 896.3,752.5 792.3,752.5 	"/>
	<polygon class="st18" points="919.4,632.8 750.2,693.4 780.9,632.8 	"/>
	<path class="st19" d="M935,633.1c-0.2,0-0.3-0.1-0.3-0.3v-1.6c0-0.2,0.1-0.3,0.3-0.3s0.3,0.1,0.3,0.3v1.6
		C935.3,632.9,935.2,633.1,935,633.1z"/>
	<polygon class="st16" points="935,632.8 896.3,752.5 981.7,752.5 	"/>
	<polygon class="st20" points="928.9,752.5 935,632.8 896.3,752.5 	"/>
	<polygon class="st19" points="935,632.8 928.9,752.5 946.5,752.5 	"/>
	<polygon class="st21" points="935,632.8 946.5,752.5 968,752.5 	"/>
	<rect x="712.3" y="744.8" class="st19" width="3.2" height="7.7"/>
	<rect x="993.1" y="744.8" class="st19" width="3.2" height="7.7"/>
	<rect x="881.6" y="744.8" class="st19" width="3.2" height="7.7"/>
	<g>
		<path class="st19" d="M884.1,746.5c0,0-0.1,0-0.1,0c-0.2-0.1-0.2-0.3-0.2-0.4L935,632l0.3,0.6l58.8,113.4c0.1,0.2,0,0.3-0.1,0.4
			c-0.2,0.1-0.3,0-0.4-0.1L935,633.5l-50.7,112.8C884.3,746.5,884.2,746.5,884.1,746.5z"/>
		<path class="st19" d="M714.7,746.5c-0.1,0-0.1,0-0.2,0c-0.2-0.1-0.2-0.3-0.1-0.4l66.2-113.4v-2.4c0-0.2,0.1-0.3,0.3-0.3
			s0.3,0.1,0.3,0.3v2.6L715,746.4C714.9,746.5,714.8,746.5,714.7,746.5z"/>
	</g>
</g>
<g>
	<ellipse class="st7" cx="1590.6" cy="755.4" rx="112.2" ry="5.4"/>
	<polygon class="st13" points="1683.2,754.9 1497.5,754.9 1518.8,712.9 1540.6,669.8 1650.1,669.8 	"/>
	<polygon class="st17" points="1641.9,695.2 1622.6,754.9 1548.7,754.9 	"/>
	<polygon class="st18" points="1639,669.8 1518.8,712.9 1540.6,669.8 	"/>
	<path class="st19" d="M1650.1,670.1c-0.1,0-0.2-0.1-0.2-0.2v-1.2c0-0.1,0.1-0.2,0.2-0.2c0.1,0,0.2,0.1,0.2,0.2v1.2
		C1650.3,670,1650.2,670.1,1650.1,670.1z"/>
	<polygon class="st16" points="1650.1,669.8 1622.6,754.9 1683.2,754.9 	"/>
	<polygon class="st20" points="1645.8,754.9 1650.1,669.8 1622.6,754.9 	"/>
	<polygon class="st19" points="1650.1,669.8 1645.8,754.9 1658.2,754.9 	"/>
	<polygon class="st21" points="1650.1,669.8 1658.2,754.9 1673.5,754.9 	"/>
	<rect x="1491.9" y="749.4" class="st19" width="2.3" height="5.5"/>
	<rect x="1691.3" y="749.4" class="st19" width="2.3" height="5.5"/>
	<rect x="1612.1" y="749.4" class="st19" width="2.3" height="5.5"/>
	<g>
		<path class="st19" d="M1613.9,750.7C1613.9,750.7,1613.8,750.7,1613.9,750.7c-0.2-0.1-0.3-0.2-0.2-0.3l36.4-81l0.2,0.4l41.7,80.6
			c0.1,0.1,0,0.2-0.1,0.3c-0.1,0.1-0.2,0-0.3-0.1l-41.5-80.2l-36,80.2C1614.1,750.6,1614,750.7,1613.9,750.7z"/>
		<path class="st19" d="M1493.6,750.7c0,0-0.1,0-0.1,0c-0.1-0.1-0.1-0.2-0.1-0.3l47-80.5v-1.7c0-0.1,0.1-0.2,0.2-0.2
			s0.2,0.1,0.2,0.2v1.8l-47.1,80.6C1493.7,750.6,1493.6,750.7,1493.6,750.7z"/>
	</g>
</g>
<g>
	<ellipse class="st7" cx="527.9" cy="755.4" rx="112.2" ry="5.4"/>
	<polygon class="st13" points="620.5,754.9 434.8,754.9 456.1,712.9 477.9,669.8 587.4,669.8 	"/>
	<polygon class="st17" points="579.2,695.2 559.9,754.9 486,754.9 	"/>
	<polygon class="st18" points="576.3,669.8 456.1,712.9 477.9,669.8 	"/>
	<path class="st19" d="M587.4,670.1c-0.1,0-0.2-0.1-0.2-0.2v-1.2c0-0.1,0.1-0.2,0.2-0.2c0.1,0,0.2,0.1,0.2,0.2v1.2
		C587.6,670,587.5,670.1,587.4,670.1z"/>
	<polygon class="st16" points="587.4,669.8 559.9,754.9 620.5,754.9 	"/>
	<polygon class="st20" points="583.1,754.9 587.4,669.8 559.9,754.9 	"/>
	<polygon class="st19" points="587.4,669.8 583.1,754.9 595.5,754.9 	"/>
	<polygon class="st21" points="587.4,669.8 595.5,754.9 610.8,754.9 	"/>
	<rect x="429.2" y="749.4" class="st19" width="2.3" height="5.5"/>
	<rect x="628.6" y="749.4" class="st19" width="2.3" height="5.5"/>
	<rect x="549.4" y="749.4" class="st19" width="2.3" height="5.5"/>
	<g>
		<path class="st19" d="M551.2,750.7C551.2,750.7,551.2,750.7,551.2,750.7c-0.2-0.1-0.3-0.2-0.2-0.3l36.4-81l0.2,0.4l41.7,80.6
			c0.1,0.1,0,0.2-0.1,0.3c-0.1,0.1-0.2,0-0.3-0.1l-41.5-80.2l-36,80.2C551.4,750.6,551.3,750.7,551.2,750.7z"/>
		<path class="st19" d="M430.9,750.7c0,0-0.1,0-0.1,0c-0.1-0.1-0.1-0.2-0.1-0.3l47-80.5v-1.7c0-0.1,0.1-0.2,0.2-0.2s0.2,0.1,0.2,0.2
			v1.8l-47.1,80.6C431,750.6,430.9,750.7,430.9,750.7z"/>
	</g>
</g>
<rect x="604.4" y="374.2" class="st22" width="711.3" height="375.8"/>
<g>
	<path class="st10" d="M318.8,630.8c-9.8,0-79.4,123.4-79.4,123.4h158.9C398.2,754.2,328.6,630.8,318.8,630.8z"/>
	<path class="st1" d="M304.2,656.1c0,0-2.1,10,4.1,12c6.2,2,9.4-11.8,9.4-11.8s4.6,13.2,11.1,11.5c6.5-1.7,2.2-13.1,2.2-13.1
		s4.6,11,13,8.4c-11.9-18.5-21.9-32.4-25.2-32.4c-3.5,0-14.5,15.5-27.2,35.6C296.1,667.6,304.2,656.1,304.2,656.1z"/>
</g>
<g>
	<path class="st11" d="M434.3,665.7c-6.8,0-54.9,85.2-54.9,85.2h109.7C489.1,750.9,441,665.7,434.3,665.7z"/>
	<path class="st1" d="M424.2,681.6c0,0-1.4,6.9,2.8,8.3c4.3,1.4,6.5-8.1,6.5-8.1s3.1,9.1,7.7,8c4.5-1.2,1.5-9,1.5-9s3.2,7.6,9,5.8
		c-8.2-12.8-15.1-22.4-17.4-22.4c-2.4,0-10,10.7-18.8,24.6C418.6,689.6,424.2,681.6,424.2,681.6z"/>
</g>
<g>
	<path class="st11" d="M10.3,665.7c-6.8,0-54.9,85.2-54.9,85.2H65.2C65.2,750.9,17.1,665.7,10.3,665.7z"/>
	<path class="st1" d="M0.3,681.6c0,0-1.4,6.9,2.8,8.3c4.3,1.4,6.5-8.1,6.5-8.1s3.2,9.1,7.7,8c4.5-1.2,1.5-9,1.5-9s3.2,7.6,9,5.8
		c-8.2-12.8-15.1-22.4-17.4-22.4c-2.4,0-10,10.7-18.8,24.6C-5.3,689.6,0.3,681.6,0.3,681.6z"/>
</g>
<g>
	<path class="st14" d="M1754.8,750.6c5.6-12.8,27.2-31.1,52.9-31.1c25.8,0,47.4,18.3,52.9,31.1L1754.8,750.6z"/>
	<path class="st15" d="M1807.2,750.6h-52.4c5.5-12.7,26.9-30.8,52.4-31.1L1807.2,750.6z"/>
</g>
<rect x="360" y="-943.4" class="st23" width="1200" height="1784.4"/>
</svg>
