<svg id="ekyrc44kj7g1" xmlns="http://www.w3.org/2000/svg" xmlns:xlink="http://www.w3.org/1999/xlink" viewBox="0 0 200 200" shape-rendering="geometricPrecision" text-rendering="geometricPrecision"><style><![CDATA[#ekyrc44kj7g2_ts {animation: ekyrc44kj7g2_ts__ts 2000ms linear infinite normal forwards}@keyframes ekyrc44kj7g2_ts__ts { 0% {transform: translate(100.775339px,100.335138px) scale(0.948731,0.948731)} 100% {transform: translate(100.775339px,100.335138px) scale(0.948731,0.948731)} }#ekyrc44kj7g4_to {animation: ekyrc44kj7g4_to__to 2000ms linear infinite normal forwards}@keyframes ekyrc44kj7g4_to__to { 0% {transform: translate(72.775000px,75.583504px)} 50% {transform: translate(72.775000px,94.583504px)} 100% {transform: translate(72.775000px,75.583504px)} }#ekyrc44kj7g21_to {animation: ekyrc44kj7g21_to__to 2000ms linear infinite normal forwards}@keyframes ekyrc44kj7g21_to__to { 0% {transform: translate(141.723493px,153.677996px)} 50% {transform: translate(143.357990px,129.734494px)} 100% {transform: translate(141.723493px,153.677996px)} }]]></style><g id="ekyrc44kj7g2_ts" transform="translate(100.775339,100.335138) scale(0.948731,0.948731)"><g id="ekyrc44kj7g2" transform="translate(-99.999990,-99.999496)"><g id="ekyrc44kj7g3"><g id="ekyrc44kj7g4_to" transform="translate(72.775000,75.583504)"><g id="ekyrc44kj7g4" transform="translate(-72.775000,-90.236504)"><path id="ekyrc44kj7g5" d="M94.188000,82.730000L120.766000,82.730000C127.796000,82.730000,133.498000,88.430000,133.498000,95.463000L133.498000,142.870000C133.498000,148.841000,128.662000,153.678000,122.696000,153.678000L94.188000,153.678000L94.188000,82.730000Z" fill="rgb(142,143,49)" stroke="none" stroke-width="1"/><path id="ekyrc44kj7g6" d="M101.925000,159.819000L44.285000,159.819000C33.497000,159.819000,24.754000,151.075000,24.754000,140.292000L24.754000,66.930000C24.754000,48.249000,39.904000,33.103000,58.584000,33.103000L87.626000,33.103000C106.307000,33.103000,121.455000,48.249000,121.455000,66.930000L121.455000,140.292000C121.455000,151.075000,112.713000,159.819000,101.925000,159.819000Z" fill="rgb(115,117,45)" stroke="none" stroke-width="1"/><path id="ekyrc44kj7g7" d="M51.361000,153.679000L24.784000,153.679000C17.753000,153.679000,12.052000,147.978000,12.052000,140.945000L12.052000,93.535000C12.052000,87.566000,16.887000,82.730000,22.855000,82.730000L51.362000,82.730000L51.362000,153.679000Z" fill="rgb(142,143,49)" stroke="none" stroke-width="1"/><path id="ekyrc44kj7g8" d="M87.366000,52.989000L57.693000,52.989000C54.802000,52.989000,52.452000,50.637000,52.452000,47.747000L52.452000,28.180000C52.452000,25.290000,54.803000,22.937000,57.693000,22.937000L87.366000,22.937000C90.257000,22.937000,92.606000,25.291000,92.606000,28.180000L92.606000,47.747000C92.606000,50.638000,90.257000,52.989000,87.366000,52.989000ZM57.693000,24.850000C55.857000,24.850000,54.362000,26.345000,54.362000,28.180000L54.362000,47.747000C54.362000,49.581000,55.857000,51.076000,57.693000,51.076000L87.366000,51.076000C89.201000,51.076000,90.697000,49.581000,90.697000,47.747000L90.697000,28.180000C90.697000,26.345000,89.201000,24.850000,87.366000,24.850000L57.693000,24.850000Z" fill="rgb(97,77,68)" stroke="none" stroke-width="1"/><path id="ekyrc44kj7g9" d="M73.102000,33.103000L73.102000,159.820000L44.285000,159.820000C34.646000,159.820000,26.640000,152.836000,25.045000,143.652000L25.045000,143.650000C24.856000,142.560000,24.754000,141.437000,24.754000,140.290000L24.754000,66.930000C24.754000,56.919000,29.101000,47.926000,36.012000,41.733000C41.998000,36.368000,49.910000,33.103000,58.584000,33.103000L73.102000,33.103000Z" fill="rgb(158,164,33)" stroke="none" stroke-width="1"/><path id="ekyrc44kj7g10" d="M73.102000,129.289000L73.102000,159.819000L44.285000,159.819000C34.646000,159.819000,26.640000,152.835000,25.045000,143.651000L25.045000,143.649000C25.045000,143.649000,37.033000,129.289000,73.102000,129.289000Z" fill="rgb(115,117,45)" stroke="none" stroke-width="1"/><path id="ekyrc44kj7g11" d="M73.102000,129.289000L73.102000,159.819000L101.925000,159.819000C111.563000,159.819000,119.570000,152.835000,121.165000,143.651000L121.165000,143.649000C121.165000,143.649000,109.172000,129.289000,73.102000,129.289000Z" fill="rgb(95,97,43)" stroke="none" stroke-width="1"/><path id="ekyrc44kj7g12" d="M73.102000,33.103000L73.102000,82.730000L55.442000,82.730000C44.709000,82.730000,36.011000,74.032000,36.011000,63.301000L36.011000,41.732000C41.997000,36.367000,49.909000,33.102000,58.583000,33.102000L73.102000,33.102000Z" fill="rgb(115,117,45)" stroke="none" stroke-width="1"/><path id="ekyrc44kj7g13" d="M73.102000,33.103000L73.102000,82.730000L90.768000,82.730000C101.500000,82.730000,110.198000,74.032000,110.198000,63.301000L110.198000,41.732000C104.211000,36.367000,96.301000,33.102000,87.627000,33.102000L73.102000,33.102000Z" fill="rgb(95,97,43)" stroke="none" stroke-width="1"/><path id="ekyrc44kj7g14" d="M48.036000,105.384000L48.036000,105.384000C46.054000,105.384000,44.455000,103.780000,44.455000,101.803000L44.455000,71.448000L51.616000,71.448000L51.616000,101.802000C51.616000,103.780000,50.011000,105.384000,48.036000,105.384000Z" fill="rgb(72,48,38)" stroke="none" stroke-width="1"/><path id="ekyrc44kj7g15" d="M97.390000,105.384000L97.390000,105.384000C95.413000,105.384000,93.809000,103.780000,93.809000,101.803000L93.809000,71.448000L100.969000,71.448000L100.969000,101.802000C100.969000,103.780000,99.370000,105.384000,97.390000,105.384000Z" fill="rgb(72,48,38)" stroke="none" stroke-width="1"/><rect id="ekyrc44kj7g16" width="7.161000" height="2.244000" rx="0" ry="0" transform="matrix(1 0 0 1 44.45500000000000 71.44799999999999)" fill="rgb(228,120,37)" stroke="none" stroke-width="1"/><rect id="ekyrc44kj7g17" width="7.160000" height="2.244000" rx="0" ry="0" transform="matrix(1 0 0 1 93.80900000000000 71.44799999999999)" fill="rgb(228,120,37)" stroke="none" stroke-width="1"/><path id="ekyrc44kj7g18" d="M53.407000,100.572000L42.664000,100.572000C42.134000,100.572000,41.703000,100.140000,41.703000,99.613000L41.703000,88.870000C41.703000,88.340000,42.134000,87.914000,42.664000,87.914000L53.407000,87.914000C53.938000,87.914000,54.362000,88.340000,54.362000,88.870000L54.362000,99.613000C54.362000,100.141000,53.938000,100.572000,53.407000,100.572000ZM43.619000,98.658000L52.452000,98.658000L52.452000,89.827000L43.619000,89.827000L43.619000,98.658000Z" fill="rgb(236,113,35)" stroke="none" stroke-width="1"/><path id="ekyrc44kj7g19" d="M102.760000,100.572000L92.018000,100.572000C91.492000,100.572000,91.063000,100.140000,91.063000,99.613000L91.063000,88.870000C91.063000,88.340000,91.492000,87.914000,92.018000,87.914000L102.760000,87.914000C103.290000,87.914000,103.721000,88.340000,103.721000,88.870000L103.721000,99.613000C103.721000,100.141000,103.290000,100.572000,102.760000,100.572000ZM92.972000,98.658000L101.806000,98.658000L101.806000,89.827000L92.972000,89.827000L92.972000,98.658000Z" fill="rgb(236,113,35)" stroke="none" stroke-width="1"/><path id="ekyrc44kj7g20" d="M85.270000,27.645000L60.259000,27.645000C58.639000,27.645000,57.328000,26.334000,57.328000,24.716000L57.328000,23.583000C57.328000,21.965000,58.639000,20.653000,60.259000,20.653000L85.270000,20.653000C86.886000,20.653000,88.198000,21.965000,88.198000,23.583000L88.198000,24.716000C88.197000,26.334000,86.886000,27.645000,85.270000,27.645000Z" fill="rgb(106,77,49)" stroke="none" stroke-width="1"/></g></g><g id="ekyrc44kj7g21_to" transform="translate(141.723493,153.677996)"><g id="ekyrc44kj7g21" transform="translate(-143.357990,-139.731491)"><path id="ekyrc44kj7g22" d="M184.212000,100.117000L184.212000,176.068000L162.485000,176.068000L162.485000,170.643000L149.601000,170.643000L149.601000,176.068000L98.769000,176.068000L98.769000,158.340000C98.769000,157.567000,98.826000,156.804000,98.930000,156.059000C100.034000,147.993000,106.962000,141.776000,115.334000,141.776000L127.576000,141.776000C136.135000,141.776000,143.072000,134.838000,143.072000,126.282000L143.072000,100.118000L184.212000,100.118000Z" fill="rgb(240,202,52)" stroke="none" stroke-width="1"/><path id="ekyrc44kj7g23" d="M105.212000,176.068000C105.212000,177.878000,103.765000,179.346000,101.991000,179.346000C100.214000,179.346000,98.768000,177.877000,98.768000,176.068000C98.768000,174.259000,100.213000,172.790000,101.991000,172.790000C103.765000,172.790000,105.212000,174.259000,105.212000,176.068000Z" fill="rgb(72,48,38)" stroke="none" stroke-width="1"/><path id="ekyrc44kj7g24" d="M109.646000,176.068000C109.646000,177.878000,108.206000,179.346000,106.430000,179.346000C104.650000,179.346000,103.209000,177.877000,103.209000,176.068000C103.209000,174.259000,104.649000,172.790000,106.430000,172.790000C108.206000,172.790000,109.646000,174.259000,109.646000,176.068000Z" fill="rgb(72,48,38)" stroke="none" stroke-width="1"/><path id="ekyrc44kj7g25" d="M114.088000,176.068000C114.088000,177.878000,112.649000,179.346000,110.867000,179.346000C109.091000,179.346000,107.652000,177.877000,107.652000,176.068000C107.652000,174.259000,109.090000,172.790000,110.867000,172.790000C112.648000,172.790000,114.088000,174.259000,114.088000,176.068000Z" fill="rgb(72,48,38)" stroke="none" stroke-width="1"/><path id="ekyrc44kj7g26" d="M118.529000,176.068000C118.529000,177.878000,117.085000,179.346000,115.309000,179.346000C113.533000,179.346000,112.086000,177.877000,112.086000,176.068000C112.086000,174.259000,113.532000,172.790000,115.309000,172.790000C117.085000,172.790000,118.529000,174.259000,118.529000,176.068000Z" fill="rgb(72,48,38)" stroke="none" stroke-width="1"/><path id="ekyrc44kj7g27" d="M122.966000,176.068000C122.966000,177.878000,121.526000,179.346000,119.750000,179.346000C117.969000,179.346000,116.529000,177.877000,116.529000,176.068000C116.529000,174.259000,117.968000,172.790000,119.750000,172.790000C121.525000,172.790000,122.966000,174.259000,122.966000,176.068000Z" fill="rgb(72,48,38)" stroke="none" stroke-width="1"/><path id="ekyrc44kj7g28" d="M127.406000,176.068000C127.406000,177.878000,125.967000,179.346000,124.186000,179.346000C122.411000,179.346000,120.969000,177.877000,120.969000,176.068000C120.969000,174.259000,122.410000,172.790000,124.186000,172.790000C125.967000,172.790000,127.406000,174.259000,127.406000,176.068000Z" fill="rgb(72,48,38)" stroke="none" stroke-width="1"/><path id="ekyrc44kj7g29" d="M131.849000,176.068000C131.849000,177.878000,130.408000,179.346000,128.626000,179.346000C126.851000,179.346000,125.411000,177.877000,125.411000,176.068000C125.411000,174.259000,126.850000,172.790000,128.626000,172.790000C130.407000,172.790000,131.849000,174.259000,131.849000,176.068000Z" fill="rgb(72,48,38)" stroke="none" stroke-width="1"/><path id="ekyrc44kj7g30" d="M136.283000,176.068000C136.283000,177.878000,134.844000,179.346000,133.068000,179.346000C131.287000,179.346000,129.847000,177.877000,129.847000,176.068000C129.847000,174.259000,131.286000,172.790000,133.068000,172.790000C134.844000,172.790000,136.283000,174.259000,136.283000,176.068000Z" fill="rgb(72,48,38)" stroke="none" stroke-width="1"/><path id="ekyrc44kj7g31" d="M140.727000,176.068000C140.727000,177.878000,139.285000,179.346000,137.504000,179.346000C135.730000,179.346000,134.289000,177.877000,134.289000,176.068000C134.289000,174.259000,135.729000,172.790000,137.504000,172.790000C139.284000,172.790000,140.727000,174.259000,140.727000,176.068000Z" fill="rgb(72,48,38)" stroke="none" stroke-width="1"/><ellipse id="ekyrc44kj7g32" rx="3.219000" ry="3.278000" transform="matrix(1 0 0 1 141.94700000000000 176.06800000000001)" fill="rgb(72,48,38)" stroke="none" stroke-width="1"/><path id="ekyrc44kj7g33" d="M149.602000,176.068000C149.602000,177.878000,148.162000,179.346000,146.387000,179.346000C144.607000,179.346000,143.166000,177.877000,143.166000,176.068000C143.166000,174.259000,144.606000,172.790000,146.387000,172.790000C148.161000,172.790000,149.602000,174.259000,149.602000,176.068000Z" fill="rgb(72,48,38)" stroke="none" stroke-width="1"/><path id="ekyrc44kj7g34" d="M166.452000,176.068000C166.452000,177.878000,165.012000,179.346000,163.230000,179.346000C161.456000,179.346000,160.015000,177.877000,160.015000,176.068000C160.015000,174.259000,161.455000,172.790000,163.230000,172.790000C165.012000,172.790000,166.452000,174.259000,166.452000,176.068000Z" fill="rgb(72,48,38)" stroke="none" stroke-width="1"/><path id="ekyrc44kj7g35" d="M170.893000,176.068000C170.893000,177.878000,169.449000,179.346000,167.673000,179.346000C165.897000,179.346000,164.452000,177.877000,164.452000,176.068000C164.452000,174.259000,165.897000,172.790000,167.673000,172.790000C169.449000,172.790000,170.893000,174.259000,170.893000,176.068000Z" fill="rgb(72,48,38)" stroke="none" stroke-width="1"/><path id="ekyrc44kj7g36" d="M175.330000,176.068000C175.330000,177.878000,173.888000,179.346000,172.113000,179.346000C170.334000,179.346000,168.892000,177.877000,168.892000,176.068000C168.892000,174.259000,170.333000,172.790000,172.113000,172.790000C173.888000,172.790000,175.330000,174.259000,175.330000,176.068000Z" fill="rgb(72,48,38)" stroke="none" stroke-width="1"/><path id="ekyrc44kj7g37" d="M179.770000,176.068000C179.770000,177.878000,178.331000,179.346000,176.550000,179.346000C174.775000,179.346000,173.334000,177.877000,173.334000,176.068000C173.334000,174.259000,174.774000,172.790000,176.550000,172.790000C178.330000,172.790000,179.770000,174.259000,179.770000,176.068000Z" fill="rgb(72,48,38)" stroke="none" stroke-width="1"/><path id="ekyrc44kj7g38" d="M184.212000,176.068000C184.212000,177.878000,182.767000,179.346000,180.991000,179.346000C179.215000,179.346000,177.769000,177.877000,177.769000,176.068000C177.769000,174.259000,179.214000,172.790000,180.991000,172.790000C182.767000,172.790000,184.212000,174.259000,184.212000,176.068000Z" fill="rgb(72,48,38)" stroke="none" stroke-width="1"/><path id="ekyrc44kj7g39" d="M154.045000,100.117000L154.045000,130.950000C154.045000,144.816000,142.806000,156.058000,128.937000,156.058000L98.930000,156.058000C100.034000,147.992000,106.962000,141.775000,115.334000,141.775000L127.576000,141.775000C136.135000,141.775000,143.072000,134.837000,143.072000,126.281000L143.072000,100.117000L154.045000,100.117000Z" fill="rgb(224,177,42)" stroke="none" stroke-width="1"/><path id="ekyrc44kj7g40" d="M185.657000,112.061000L141.421000,112.061000C140.154000,112.061000,139.130000,111.037000,139.130000,109.771000L139.130000,102.408000C139.130000,101.142000,140.154000,100.118000,141.421000,100.118000L185.657000,100.118000C186.924000,100.118000,187.948000,101.142000,187.948000,102.408000L187.948000,109.771000C187.948000,111.036000,186.924000,112.061000,185.657000,112.061000Z" fill="rgb(72,48,38)" stroke="none" stroke-width="1"/><rect id="ekyrc44kj7g41" width="50.833000" height="5.425000" rx="0" ry="0" transform="matrix(1 0 0 1 98.76900000000001 170.64400000000001)" fill="rgb(106,77,49)" stroke="none" stroke-width="1"/><rect id="ekyrc44kj7g42" width="24.196000" height="5.425000" rx="0" ry="0" transform="matrix(1 0 0 1 160.01599999999999 170.64400000000001)" fill="rgb(106,77,49)" stroke="none" stroke-width="1"/><path id="ekyrc44kj7g43" d="M149.602000,118.304000L142.846000,118.304000C142.321000,118.304000,141.891000,117.874000,141.891000,117.347000C141.891000,116.818000,142.321000,116.391000,142.846000,116.391000L149.602000,116.391000C150.132000,116.391000,150.562000,116.818000,150.562000,117.347000C150.562000,117.874000,150.132000,118.304000,149.602000,118.304000Z" fill="rgb(97,77,68)" stroke="none" stroke-width="1"/><path id="ekyrc44kj7g44" d="M148.702000,123.351000C148.681000,123.351000,148.662000,123.351000,148.641000,123.349000L142.635000,122.971000C142.111000,122.938000,141.710000,122.487000,141.740000,121.958000C141.774000,121.431000,142.219000,121.028000,142.754000,121.063000L148.762000,121.440000C149.287000,121.472000,149.688000,121.927000,149.658000,122.454000C149.624000,122.962000,149.203000,123.351000,148.702000,123.351000Z" fill="rgb(97,77,68)" stroke="none" stroke-width="1"/><path id="ekyrc44kj7g45" d="M147.442000,129.044000C147.348000,129.044000,147.252000,129.030000,147.156000,129.001000L142.185000,127.451000C141.681000,127.296000,141.400000,126.759000,141.555000,126.255000C141.715000,125.750000,142.250000,125.466000,142.754000,125.624000L147.727000,127.174000C148.232000,127.331000,148.512000,127.867000,148.357000,128.370000C148.228000,128.783000,147.853000,129.044000,147.442000,129.044000Z" fill="rgb(97,77,68)" stroke="none" stroke-width="1"/><path id="ekyrc44kj7g46" d="M145.405000,134.125000C145.262000,134.125000,145.111000,134.094000,144.975000,134.021000L140.829000,131.914000C140.359000,131.672000,140.169000,131.097000,140.410000,130.625000C140.649000,130.154000,141.229000,129.969000,141.699000,130.208000L145.841000,132.317000C146.311000,132.555000,146.501000,133.131000,146.261000,133.605000C146.091000,133.935000,145.757000,134.125000,145.405000,134.125000Z" fill="rgb(97,77,68)" stroke="none" stroke-width="1"/><path id="ekyrc44kj7g47" d="M142.471000,139.049000C142.241000,139.049000,142.010000,138.968000,141.826000,138.801000L138.484000,135.759000C138.094000,135.403000,138.065000,134.801000,138.420000,134.409000C138.774000,134.018000,139.379000,133.989000,139.775000,134.345000L143.116000,137.386000C143.506000,137.740000,143.530000,138.347000,143.177000,138.738000C142.991000,138.944000,142.731000,139.049000,142.471000,139.049000Z" fill="rgb(97,77,68)" stroke="none" stroke-width="1"/><path id="ekyrc44kj7g48" d="M138.100000,142.714000C137.805000,142.714000,137.510000,142.576000,137.325000,142.316000L134.840000,138.850000C134.529000,138.420000,134.630000,137.825000,135.056000,137.516000C135.486000,137.206000,136.086000,137.306000,136.390000,137.734000L138.875000,141.202000C139.186000,141.631000,139.086000,142.227000,138.661000,142.537000C138.490000,142.656000,138.295000,142.714000,138.100000,142.714000Z" fill="rgb(97,77,68)" stroke="none" stroke-width="1"/><path id="ekyrc44kj7g49" d="M132.828000,145.278000C132.428000,145.278000,132.057000,145.030000,131.924000,144.632000L130.563000,140.674000C130.393000,140.173000,130.658000,139.629000,131.158000,139.456000C131.659000,139.287000,132.204000,139.553000,132.375000,140.052000L133.735000,144.010000C133.904000,144.511000,133.641000,145.056000,133.139000,145.228000C133.034000,145.263000,132.929000,145.278000,132.828000,145.278000Z" fill="rgb(97,77,68)" stroke="none" stroke-width="1"/><path id="ekyrc44kj7g50" d="M126.486000,146.027000C125.956000,146.027000,125.531000,145.602000,125.531000,145.073000L125.531000,141.041000C125.531000,140.514000,125.956000,140.086000,126.486000,140.086000C127.016000,140.086000,127.441000,140.514000,127.441000,141.041000L127.441000,145.073000C127.441000,145.603000,127.017000,146.027000,126.486000,146.027000Z" fill="rgb(97,77,68)" stroke="none" stroke-width="1"/></g></g></g></g></g></svg>