<svg id="evlz1wbgswsb1" xmlns="http://www.w3.org/2000/svg" xmlns:xlink="http://www.w3.org/1999/xlink" viewBox="0 0 200 200" shape-rendering="geometricPrecision" text-rendering="geometricPrecision"><style><![CDATA[#evlz1wbgswsb2_to {animation: evlz1wbgswsb2_to__to 2000ms linear infinite normal forwards}@keyframes evlz1wbgswsb2_to__to { 0% {transform: translate(100.000008px,71.861210px)} 35% {transform: translate(100.000008px,130.250236px)} 45% {transform: translate(100.000008px,130.250236px);animation-timing-function: cubic-bezier(0.500000,0.100000,0.565000,1)} 95% {transform: translate(100.000008px,71.861210px)} 100% {transform: translate(100.000008px,71.861210px)} }#evlz1wbgswsb12_tr {animation: evlz1wbgswsb12_tr__tr 2000ms linear infinite normal forwards}@keyframes evlz1wbgswsb12_tr__tr { 0% {transform: translate(99.670998px,100.941494px) rotate(0deg)} 35% {transform: translate(99.670998px,100.941494px) rotate(90deg)} 50% {transform: translate(99.670998px,100.941494px) rotate(90deg)} 90% {transform: translate(99.670998px,100.941494px) rotate(180deg)} 100% {transform: translate(99.670998px,100.941494px) rotate(180deg)} }]]></style><g id="evlz1wbgswsb2_to" transform="translate(100.000008,71.861210)"><g id="evlz1wbgswsb2" transform="translate(-99.999504,-100.000500)"><g id="evlz1wbgswsb3"><g id="evlz1wbgswsb4"><path id="evlz1wbgswsb5" d="M119.941000,82.935000L78.748000,82.935000C74.921000,82.935000,71.810000,79.822000,71.810000,75.995000L71.810000,48.828000C71.810000,45.002000,74.921000,41.890000,78.748000,41.890000L119.941000,41.890000C123.767000,41.890000,126.882000,45.002000,126.882000,48.828000L126.882000,75.994000C126.883000,79.821000,123.768000,82.935000,119.941000,82.935000ZM78.748000,43.864000C76.011000,43.864000,73.783000,46.093000,73.783000,48.828000L73.783000,75.994000C73.783000,78.731000,76.011000,80.958000,78.748000,80.958000L119.941000,80.958000C122.679000,80.958000,124.906000,78.731000,124.906000,75.994000L124.906000,48.828000C124.906000,46.093000,122.679000,43.864000,119.941000,43.864000L78.748000,43.864000Z" fill="rgb(97,77,68)" stroke="none" stroke-width="1"/><path id="evlz1wbgswsb6" d="M117.033000,48.088000L82.310000,48.088000C80.065000,48.088000,78.243000,46.264000,78.243000,44.020000L78.243000,42.446000C78.243000,40.199000,80.065000,38.378000,82.310000,38.378000L117.034000,38.378000C119.280000,38.378000,121.100000,40.199000,121.100000,42.446000L121.100000,44.020000C121.100000,46.264000,119.279000,48.088000,117.033000,48.088000Z" fill="rgb(106,77,49)" stroke="none" stroke-width="1"/><path id="evlz1wbgswsb7" d="M174.773000,48.373000L174.773000,153.512000C174.773000,156.764000,172.136000,159.401000,168.884000,159.401000L139.788000,159.401000C138.161000,159.401000,136.688000,158.741000,135.624000,157.676000C134.560000,156.610000,133.899000,155.139000,133.899000,153.512000C133.899000,150.260000,131.262000,147.625000,128.012000,147.625000L70.679000,147.625000C69.050000,147.625000,67.580000,148.285000,66.517000,149.352000C65.452000,150.414000,64.791000,151.885000,64.791000,153.512000C64.791000,156.764000,62.153000,159.401000,58.903000,159.401000L29.805000,159.401000C26.551000,159.401000,23.916000,156.764000,23.916000,153.512000L23.916000,48.373000C23.916000,45.120000,26.551000,42.484000,29.805000,42.484000L58.904000,42.484000C60.531000,42.484000,62.001000,43.144000,63.066000,44.211000C64.132000,45.273000,64.792000,46.745000,64.792000,48.373000C64.792000,51.626000,67.429000,54.260000,70.680000,54.260000L128.015000,54.260000C131.265000,54.260000,133.902000,51.626000,133.902000,48.373000C133.902000,45.120000,136.539000,42.484000,139.791000,42.484000L168.887000,42.484000C172.137000,42.484000,174.773000,45.120000,174.773000,48.373000Z" fill="rgb(228,120,37)" stroke="none" stroke-width="1"/><path id="evlz1wbgswsb8" d="M120.846000,100.943000C120.846000,112.816000,111.221000,122.443000,99.346000,122.443000C87.470000,122.443000,77.843000,112.816000,77.843000,100.943000C77.843000,89.066000,87.470000,79.442000,99.346000,79.442000C111.221000,79.442000,120.846000,89.066000,120.846000,100.943000Z" fill="rgb(240,202,52)" stroke="none" stroke-width="1"/><path id="evlz1wbgswsb9" d="M174.773000,136.762000L174.773000,153.512000C174.773000,156.764000,172.136000,159.401000,168.884000,159.401000L139.788000,159.401000C138.161000,159.401000,136.688000,158.741000,135.624000,157.676000C134.560000,156.610000,133.899000,155.139000,133.899000,153.512000C133.899000,150.260000,131.262000,147.625000,128.012000,147.625000L70.679000,147.625000C69.050000,147.625000,67.580000,148.285000,66.517000,149.352000C65.452000,150.414000,64.791000,151.885000,64.791000,153.512000C64.791000,156.764000,62.153000,159.401000,58.903000,159.401000L29.805000,159.401000C26.551000,159.401000,23.916000,156.764000,23.916000,153.512000L23.916000,136.762000L174.773000,136.762000Z" fill="rgb(199,76,30)" stroke="none" stroke-width="1"/><rect id="evlz1wbgswsb10" width="18.761000" height="94.277000" rx="0" ry="0" transform="matrix(1 0 0 1 34.55500000000000 42.48400000000000)" fill="rgb(226,99,36)" stroke="none" stroke-width="1"/><rect id="evlz1wbgswsb11" width="18.762000" height="94.277000" rx="0" ry="0" transform="matrix(1 0 0 1 145.64500000000001 42.48400000000000)" fill="rgb(226,99,36)" stroke="none" stroke-width="1"/><g id="evlz1wbgswsb12_tr" transform="translate(99.670998,100.941494) rotate(0)"><g id="evlz1wbgswsb12" transform="translate(-99.670998,-100.941494)"><rect id="evlz1wbgswsb13" width="7.407000" height="25.675000" rx="0" ry="0" transform="matrix(1 0 0 1 95.96800000000000 88.10400000000000)" fill="rgb(72,48,38)" stroke="none" stroke-width="1"/><rect id="evlz1wbgswsb14" width="25.674000" height="7.405000" rx="0" ry="0" transform="matrix(1 0 0 1 86.83400000000000 97.23900000000000)" fill="rgb(72,48,38)" stroke="none" stroke-width="1"/></g></g></g><path id="evlz1wbgswsb15" d="M192.053000,161.623000L7.942000,161.623000C6.716000,161.623000,5.722000,160.627000,5.722000,159.400000C5.722000,158.173000,6.716000,157.179000,7.942000,157.179000L192.052000,157.179000C193.282000,157.179000,194.277000,158.173000,194.277000,159.400000C194.277000,160.627000,193.283000,161.623000,192.053000,161.623000Z" fill="rgb(97,77,68)" stroke="none" stroke-width="1"/></g></g></g></svg>