<svg id="eqxk8sl6q3dr1" xmlns="http://www.w3.org/2000/svg" xmlns:xlink="http://www.w3.org/1999/xlink" viewBox="0 0 200 200" shape-rendering="geometricPrecision" text-rendering="geometricPrecision"><style><![CDATA[#eqxk8sl6q3dr2_to {animation: eqxk8sl6q3dr2_to__to 2000ms linear infinite normal forwards}@keyframes eqxk8sl6q3dr2_to__to { 0% {transform: translate(99.999999px,111.272831px)} 30% {transform: translate(99.999998px,87.102864px)} 40% {transform: translate(99.999998px,87.102864px)} 100% {transform: translate(99.999999px,111.272831px)} }#eqxk8sl6q3dr4_tr {animation: eqxk8sl6q3dr4_tr__tr 2000ms linear infinite normal forwards}@keyframes eqxk8sl6q3dr4_tr__tr { 0% {transform: translate(99.998482px,152.685936px) rotate(3.574350deg)} 50% {transform: translate(99.998482px,152.685936px) rotate(-9.718798deg)} 100% {transform: translate(99.998482px,152.685936px) rotate(3.574350deg)} }#eqxk8sl6q3dr10_tr {animation: eqxk8sl6q3dr10_tr__tr 2000ms linear infinite normal forwards}@keyframes eqxk8sl6q3dr10_tr__tr { 0% {transform: translate(100.003486px,82.283600px) rotate(0deg)} 50% {transform: translate(100.003486px,82.283600px) rotate(10.600193deg)} 100% {transform: translate(100.003486px,82.283600px) rotate(0deg)} }]]></style><g id="eqxk8sl6q3dr2_to" transform="translate(99.999999,111.272831)"><g id="eqxk8sl6q3dr2" transform="translate(-100.003486,-100.000038)"><g id="eqxk8sl6q3dr3"><g id="eqxk8sl6q3dr4_tr" transform="translate(99.998482,152.685936) rotate(3.574350)"><g id="eqxk8sl6q3dr4" transform="translate(-99.998482,-152.685936)"><polygon id="eqxk8sl6q3dr5" points="50.181000,155.266000 77.333000,127.910000 78.739000,135.909000 71.004000,151.601000" fill="rgb(142,143,49)" stroke="none" stroke-width="1"/><polygon id="eqxk8sl6q3dr6" points="145.228000,138.539000 110.367000,122.099000 111.775000,130.096000 124.404000,142.205000" fill="rgb(142,143,49)" stroke="none" stroke-width="1"/><path id="eqxk8sl6q3dr7" d="M144.066000,138.744000L104.671000,145.676000L101.844000,146.174000L93.874000,147.575000L92.572000,147.804000L51.655000,155.006000C49.709000,155.347000,48.408000,157.202000,48.751000,159.149000L51.709000,175.957000C52.557000,180.769000,57.143000,183.983000,61.955000,183.138000L90.274000,178.155000C95.085000,177.307000,98.298000,172.719000,97.452000,167.909000L95.587000,157.296000L103.553000,155.893000L105.421000,166.507000C106.268000,171.319000,110.855000,174.534000,115.666000,173.687000L143.984000,168.703000C148.797000,167.856000,152.011000,163.271000,151.166000,158.458000L148.206000,141.647000C147.865000,139.699000,146.013000,138.401000,144.066000,138.744000Z" fill="rgb(158,164,33)" stroke="none" stroke-width="1"/><path id="eqxk8sl6q3dr8" d="M60.918000,177.234000C59.368000,177.508000,57.885000,176.468000,57.613000,174.920000L55.074000,160.491000L89.013000,154.516000L91.553000,168.945000C91.824000,170.496000,90.786000,171.980000,89.236000,172.251000L60.918000,177.234000Z" fill="rgb(139,207,219)" stroke="none" stroke-width="1"/><path id="eqxk8sl6q3dr9" d="M114.631000,167.784000C113.080000,168.055000,111.598000,167.014000,111.324000,165.467000L108.785000,151.038000L142.725000,145.065000L145.264000,159.494000C145.535000,161.043000,144.498000,162.525000,142.948000,162.799000L114.631000,167.784000Z" fill="rgb(119,201,219)" stroke="none" stroke-width="1"/></g></g><g id="eqxk8sl6q3dr10_tr" transform="translate(100.003486,82.283600) rotate(0)"><g id="eqxk8sl6q3dr10" transform="translate(-100.003486,-82.283600)"><path id="eqxk8sl6q3dr11" d="M91.503000,145.351000L85.673000,144.152000C57.760000,138.409000,39.722000,111.029000,45.465000,83.116000C45.581000,82.554000,46.127000,82.193000,46.688000,82.309000L151.738000,103.923000C152.005000,103.978000,152.241000,104.136000,152.392000,104.365000C152.543000,104.597000,152.597000,104.875000,152.541000,105.146000C146.799000,133.059000,119.417000,151.094000,91.503000,145.351000ZM47.296000,84.548000C42.421000,110.989000,59.635000,136.680000,86.090000,142.122000L91.920000,143.322000C118.378000,148.765000,144.335000,131.957000,150.295000,105.739000L47.296000,84.548000Z" fill="rgb(97,77,68)" stroke="none" stroke-width="1"/><ellipse id="eqxk8sl6q3dr12" rx="84.544000" ry="24.265000" transform="matrix(0.97950000000000 0.20150000000000 -0.20150000000000 0.97950000000000 100.00347900000000 93.61341300000002)" fill="rgb(72,48,38)" stroke="none" stroke-width="1"/><path id="eqxk8sl6q3dr13" d="M156.416000,81.169000L152.678000,99.340000C151.491000,105.106000,127.015000,104.939000,98.008000,98.971000C69,93.003000,46.446000,83.493000,47.632000,77.728000L51.371000,59.557000C51.484000,59.006000,51.607000,58.455000,51.738000,57.911000C58.418000,29.849000,86.241000,11.984000,114.701000,17.839000C143.157000,23.693000,161.670000,51.092000,156.732000,79.513000C156.633000,80.064000,156.529000,80.618000,156.416000,81.169000Z" fill="rgb(224,177,42)" stroke="none" stroke-width="1"/><circle id="eqxk8sl6q3dr14" r="4.007000" transform="matrix(1 0 0 1 89.35100000000000 143.83300000000000)" fill="rgb(226,99,36)" stroke="none" stroke-width="1"/><path id="eqxk8sl6q3dr15" d="M156.416000,81.169000L154.750000,89.264000C153.564000,95.026000,129.088000,94.861000,100.081000,88.892000C71.072000,82.924000,48.519000,73.413000,49.704000,67.651000L51.370000,59.556000C51.483000,59.005000,51.606000,58.454000,51.737000,57.910000C58.417000,29.848000,86.240000,11.983000,114.700000,17.838000C143.156000,23.692000,161.669000,51.091000,156.731000,79.512000C156.633000,80.064000,156.529000,80.618000,156.416000,81.169000Z" fill="rgb(240,202,52)" stroke="none" stroke-width="1"/><path id="eqxk8sl6q3dr16" d="M156.731000,79.513000C154.701000,84.944000,130.607000,84.672000,102.154000,78.818000C73.700000,72.963000,51.455000,63.701000,51.735000,57.911000C58.417000,29.849000,86.242000,11.984000,114.700000,17.839000C143.156000,23.693000,161.669000,51.091000,156.731000,79.513000Z" fill="rgb(106,77,49)" stroke="none" stroke-width="1"/><circle id="eqxk8sl6q3dr17" r="1.842000" transform="matrix(1 0 0 1 90.02400000000000 31.02200000000000)" fill="rgb(72,48,38)" stroke="none" stroke-width="1"/><circle id="eqxk8sl6q3dr18" r="1.841000" transform="matrix(1 0 0 1 109.84200000000000 35.10000000000000)" fill="rgb(72,48,38)" stroke="none" stroke-width="1"/><circle id="eqxk8sl6q3dr19" r="1.841000" transform="matrix(1 0 0 1 112.13400000000000 23.96300000000000)" fill="rgb(72,48,38)" stroke="none" stroke-width="1"/><circle id="eqxk8sl6q3dr20" r="1.841000" transform="matrix(1 0 0 1 129.65799999999999 39.17700000000000)" fill="rgb(72,48,38)" stroke="none" stroke-width="1"/><path id="eqxk8sl6q3dr21" d="M79.085000,42.290000C78.880000,43.288000,77.905000,43.930000,76.909000,43.725000C75.913000,43.520000,75.271000,42.546000,75.476000,41.548000C75.681000,40.554000,76.655000,39.912000,77.651000,40.117000C78.648000,40.321000,79.290000,41.296000,79.085000,42.290000Z" fill="rgb(72,48,38)" stroke="none" stroke-width="1"/><path id="eqxk8sl6q3dr22" d="M98.902000,46.367000C98.697000,47.365000,97.724000,48.007000,96.728000,47.802000C95.732000,47.597000,95.089000,46.622000,95.294000,45.625000C95.499000,44.630000,96.473000,43.989000,97.470000,44.194000C98.467000,44.399000,99.106000,45.373000,98.902000,46.367000Z" fill="rgb(72,48,38)" stroke="none" stroke-width="1"/><circle id="eqxk8sl6q3dr23" r="1.842000" transform="matrix(1 0 0 1 116.91600000000000 50.07300000000000)" fill="rgb(72,48,38)" stroke="none" stroke-width="1"/><circle id="eqxk8sl6q3dr24" r="1.842000" transform="matrix(1 0 0 1 136.73400000000001 54.15100000000000)" fill="rgb(72,48,38)" stroke="none" stroke-width="1"/><circle id="eqxk8sl6q3dr25" r="1.842000" transform="matrix(1 0 0 1 64.53700000000001 52.81700000000000)" fill="rgb(72,48,38)" stroke="none" stroke-width="1"/><circle id="eqxk8sl6q3dr26" r="1.842000" transform="matrix(1 0 0 1 84.35400000000000 56.89400000000000)" fill="rgb(72,48,38)" stroke="none" stroke-width="1"/><path id="eqxk8sl6q3dr27" d="M105.979000,61.343000C105.774000,62.338000,104.797000,62.980000,103.803000,62.775000C102.805000,62.569000,102.162000,61.594000,102.367000,60.600000C102.572000,59.602000,103.547000,58.960000,104.546000,59.166000C105.539000,59.371000,106.184000,60.345000,105.979000,61.343000Z" fill="rgb(72,48,38)" stroke="none" stroke-width="1"/><circle id="eqxk8sl6q3dr28" r="1.842000" transform="matrix(1 0 0 1 124.32100000000000 65.11700000000000)" fill="rgb(72,48,38)" stroke="none" stroke-width="1"/><circle id="eqxk8sl6q3dr29" r="1.842000" transform="matrix(1 0 0 1 144.13900000000001 69.19400000000000)" fill="rgb(72,48,38)" stroke="none" stroke-width="1"/></g></g></g></g></g></svg>