<svg id="e3c42idoxgdo1" xmlns="http://www.w3.org/2000/svg" xmlns:xlink="http://www.w3.org/1999/xlink" viewBox="0 0 200 200" shape-rendering="geometricPrecision" text-rendering="geometricPrecision"><style><![CDATA[#e3c42idoxgdo2_to {animation: e3c42idoxgdo2_to__to 2000ms linear infinite normal forwards}@keyframes e3c42idoxgdo2_to__to { 0% {transform: translate(110.229895px,83.053932px)} 50% {transform: translate(91.229895px,116.053932px)} 100% {transform: translate(110.229895px,83.053932px)} }#e3c42idoxgdo12_tr {animation: e3c42idoxgdo12_tr__tr 2000ms linear infinite normal forwards}@keyframes e3c42idoxgdo12_tr__tr { 0% {transform: translate(141.346386px,121.565990px) rotate(0deg)} 50% {transform: translate(141.346386px,121.565990px) rotate(16.284087deg)} 100% {transform: translate(141.346386px,121.565990px) rotate(0deg)} }#e3c42idoxgdo18_tr {animation: e3c42idoxgdo18_tr__tr 2000ms linear infinite normal forwards}@keyframes e3c42idoxgdo18_tr__tr { 0% {transform: translate(79.469765px,63.179251px) rotate(0deg)} 50% {transform: translate(79.469765px,63.179251px) rotate(-14.969161deg)} 100% {transform: translate(79.469765px,63.179251px) rotate(0deg)} }]]></style><g id="e3c42idoxgdo2_to" transform="translate(110.229895,83.053932)"><g id="e3c42idoxgdo2" transform="translate(-100.000142,-100.000433)"><g id="e3c42idoxgdo3"><path id="e3c42idoxgdo4" d="M41.032000,149.375000L32.835000,160.309000C32.498000,160.758000,33.065000,161.323000,33.511000,160.989000L44.447000,152.790000C45.816000,151.767000,47.110000,150.644000,48.320000,149.433000L130.726000,67.028000L126.794000,63.098000L44.389000,145.505000C43.181000,146.711000,42.057000,148.006000,41.032000,149.375000Z" fill="rgb(72,48,38)" stroke="none" stroke-width="1"/><path id="e3c42idoxgdo5" d="M58.434000,135.391000C58.434000,135.391000,49.830000,143.991000,30.062000,163.762000L16.416000,177.407000C4.585000,148.905000,36.267000,113.221000,36.267000,113.221000L58.434000,135.391000Z" fill="rgb(240,202,52)" stroke="none" stroke-width="1"/><path id="e3c42idoxgdo6" d="M60.234000,137.191000L80.600000,157.557000C80.600000,157.557000,44.916000,189.239000,16.414000,177.409000C45.922000,147.899000,58.434000,135.391000,58.434000,135.391000L60.234000,137.191000Z" fill="rgb(224,177,42)" stroke="none" stroke-width="1"/><path id="e3c42idoxgdo7" d="M58.434000,135.391000C58.434000,135.391000,49.830000,143.991000,30.062000,163.762000C29.433000,163.514000,29.043000,162.944000,28.994000,162.172000C28.889000,160.639000,29.386000,158.975000,30.193000,157.301000C30.526000,156.090000,31.062000,154.795000,31.686000,153.498000C33.379000,150.004000,35.311000,146.519000,37.442000,143.094000C41.024000,137.328000,45.292000,132.043000,49.964000,126.916000L58.434000,135.391000Z" fill="rgb(224,177,42)" stroke="none" stroke-width="1"/><path id="e3c42idoxgdo8" d="M58.434000,135.387000C58.434000,135.387000,49.830000,143.991000,30.060000,163.762000C30.308000,164.389000,30.879000,164.782000,31.650000,164.830000C33.186000,164.934000,34.849000,164.435000,36.523000,163.629000C37.732000,163.299000,39.028000,162.764000,40.327000,162.137000C43.817000,160.446000,47.302000,158.512000,50.731000,156.383000C56.496000,152.799000,61.783000,148.529000,66.905000,143.862000L58.434000,135.387000Z" fill="rgb(206,166,54)" stroke="none" stroke-width="1"/><g id="e3c42idoxgdo9"><path id="e3c42idoxgdo10" d="M56.469000,133.424000L44.389000,145.504000C43.181000,146.711000,42.057000,148.006000,41.032000,149.375000L32.835000,160.309000C32.498000,160.758000,33.065000,161.323000,33.511000,160.989000L44.447000,152.790000C45.816000,151.767000,47.110000,150.644000,48.320000,149.433000L60.399000,137.355000L56.469000,133.424000Z" fill="rgb(200,145,32)" stroke="none" stroke-width="1"/></g><g id="e3c42idoxgdo11"><g id="e3c42idoxgdo12_tr" transform="translate(141.346386,121.565990) rotate(0)"><g id="e3c42idoxgdo12" transform="translate(-141.346386,-121.565990)"><path id="e3c42idoxgdo13" d="M100.416000,156.127000L97.167000,152.879000C96.228000,151.940000,96.228000,150.414000,97.167000,149.475000L159.636000,87.008000C160.577000,86.065000,162.102000,86.065000,163.040000,87.008000L166.288000,90.253000C167.229000,91.195000,167.229000,92.720000,166.288000,93.661000L103.820000,156.127000C102.882000,157.066000,101.356000,157.066000,100.416000,156.127000Z" fill="rgb(72,48,38)" stroke="none" stroke-width="1"/><path id="e3c42idoxgdo14" d="M178.234000,128.932000L143.467000,94.163000C143.467000,94.163000,145.554000,91.838000,152.112000,87.661000C152.112000,87.661000,162.503000,101.024000,178.806000,107.643000C181.095000,108.575000,183.508000,109.377000,186.022000,109.985000C187.738000,119.859000,178.234000,128.932000,178.234000,128.932000Z" fill="rgb(158,164,33)" stroke="none" stroke-width="1"/><path id="e3c42idoxgdo15" d="M159.291000,136.715000C158.758000,134.518000,158.086000,132.404000,157.300000,130.375000C150.814000,113.568000,136.971000,102.803000,136.971000,102.803000C140.992000,96.399000,143.468000,94.163000,143.468000,94.163000L178.235000,128.932000C178.234000,128.932000,169.167000,138.430000,159.291000,136.715000Z" fill="rgb(115,117,45)" stroke="none" stroke-width="1"/><path id="e3c42idoxgdo16" d="M178.234000,128.932000L172.373000,123.069000C175.798000,119.548000,180.690000,113.616000,179.011000,108.731000C178.889000,108.368000,178.822000,108.004000,178.807000,107.643000C181.096000,108.575000,183.509000,109.377000,186.023000,109.985000C187.738000,119.859000,178.234000,128.932000,178.234000,128.932000Z" fill="rgb(177,177,43)" stroke="none" stroke-width="1"/><path id="e3c42idoxgdo17" d="M159.291000,136.715000C158.758000,134.518000,158.086000,132.404000,157.300000,130.375000C163.095000,130.158000,168.213000,127.336000,172.289000,123.158000C172.317000,123.129000,172.349000,123.101000,172.373000,123.068000L178.234000,128.931000C178.234000,128.932000,169.167000,138.430000,159.291000,136.715000Z" fill="rgb(142,143,49)" stroke="none" stroke-width="1"/></g></g><g id="e3c42idoxgdo18_tr" transform="translate(79.469765,63.179251) rotate(0)"><g id="e3c42idoxgdo18" transform="translate(-79.469765,-63.179251)"><path id="e3c42idoxgdo19" d="M72.702000,53.932000L82.207000,63.439000L39.234000,106.412000C40.199000,85.168000,72.702000,53.932000,72.702000,53.932000Z" fill="rgb(115,117,45)" stroke="none" stroke-width="1"/><path id="e3c42idoxgdo20" d="M72.702000,53.932000L76.190000,57.423000C68.085000,64.615000,61,72.852000,55.279000,82.070000C52.337000,86.808000,48.762000,92.506000,47.258000,98.388000L39.235000,106.412000C40.199000,85.168000,72.702000,53.932000,72.702000,53.932000Z" fill="rgb(158,164,33)" stroke="none" stroke-width="1"/><path id="e3c42idoxgdo21" d="M118.461000,21.187000L118.461000,21.187000C120.117000,22.842000,120.117000,25.530000,118.461000,27.185000L82.207000,63.439000L76.209000,57.441000L112.462000,21.187000C114.121000,19.533000,116.806000,19.533000,118.461000,21.187000Z" fill="rgb(238,165,43)" stroke="none" stroke-width="1"/><path id="e3c42idoxgdo22" d="M76.212000,57.443000L112.466000,21.187000C114.120000,19.535000,116.805000,19.535000,118.460000,21.187000C119.547000,22.274000,119.922000,23.800000,119.587000,25.193000L119.583000,25.198000C119.407000,25.926000,119.034000,26.615000,118.464000,27.185000L82.210000,63.440000L76.212000,57.443000Z" fill="rgb(228,120,37)" stroke="none" stroke-width="1"/><path id="e3c42idoxgdo23" d="M79.210000,60.442000L113.141000,26.510000C114.881000,24.766000,117.434000,24.327000,119.584000,25.198000C119.408000,25.926000,119.035000,26.615000,118.465000,27.185000L82.210000,63.440000L79.210000,60.442000Z" fill="rgb(226,99,36)" stroke="none" stroke-width="1"/></g></g></g><path id="e3c42idoxgdo24" d="M129.932000,70.020000C129.351000,70.020000,128.791000,69.792000,128.376000,69.375000L124.446000,65.446000C123.947000,64.947000,123.717000,64.242000,123.827000,63.548000L125.931000,50.142000C126.002000,49.683000,126.219000,49.256000,126.550000,48.927000L129.950000,45.524000C130.809000,44.665000,132.204000,44.665000,133.063000,45.524000L140.680000,53.141000L140.680000,53.141000L148.295000,60.758000C149.154000,61.617000,149.154000,63.009000,148.295000,63.868000L144.893000,67.272000C144.563000,67.600000,144.138000,67.817000,143.676000,67.888000L130.271000,69.992000C130.159000,70.012000,130.045000,70.020000,129.932000,70.020000ZM128.348000,63.125000L130.697000,65.473000L142.290000,63.654000L143.630000,62.313000L131.510000,50.193000L130.170000,51.536000L128.348000,63.125000Z" fill="rgb(122,100,75)" stroke="none" stroke-width="1"/></g></g></g></svg>