<svg id="emjogdx58k4a1" xmlns="http://www.w3.org/2000/svg" xmlns:xlink="http://www.w3.org/1999/xlink" viewBox="0 0 315.666000 200" shape-rendering="geometricPrecision" text-rendering="geometricPrecision"><style><![CDATA[#emjogdx58k4a6_to {animation: emjogdx58k4a6_to__to 2000ms linear infinite normal forwards}@keyframes emjogdx58k4a6_to__to { 0% {transform: translate(124.913006px,28.889000px)} 50% {transform: translate(124.913006px,37.889000px)} 100% {transform: translate(124.913006px,28.889000px)} }#emjogdx58k4a30_to {animation: emjogdx58k4a30_to__to 2000ms linear infinite normal forwards}@keyframes emjogdx58k4a30_to__to { 0% {transform: translate(212.805008px,79.091501px)} 50% {transform: translate(212.805008px,67.070501px)} 100% {transform: translate(212.805008px,79.091501px)} }]]></style><g id="emjogdx58k4a2"><g id="emjogdx58k4a3"><path id="emjogdx58k4a4" d="M31.422000,193.381000C31.422000,194.596000,26.486000,195.582000,20.395000,195.582000C14.307000,195.582000,9.370000,194.596000,9.370000,193.381000C9.370000,192.162000,14.308000,191.176000,20.395000,191.176000C26.486000,191.176000,31.422000,192.162000,31.422000,193.381000Z" fill="rgb(133,161,0)" stroke="none" stroke-width="1"/><ellipse id="emjogdx58k4a5" rx="26.953000" ry="5.381000" transform="matrix(1 0 0 1 67.80900000000000 182.46500000000000)" fill="rgb(133,161,0)" stroke="none" stroke-width="1"/></g><g id="emjogdx58k4a6_to" transform="translate(124.913006,28.889000)"><g id="emjogdx58k4a6" transform="translate(-124.913006,-32.741000)"><circle id="emjogdx58k4a7" r="11.048000" transform="matrix(1 0 0 1 125.31500000000000 29.76500000000000)" fill="rgb(242,247,243)" stroke="none" stroke-width="1"/><path id="emjogdx58k4a8" d="M124.914000,12.852000C116.912000,12.852000,110.422000,19.340000,110.422000,27.343000C110.422000,35.345000,124.914000,52.630000,124.914000,52.630000C124.914000,52.630000,139.404000,35.345000,139.404000,27.343000C139.404000,19.340000,132.916000,12.852000,124.914000,12.852000ZM124.914000,34.664000C120.869000,34.664000,117.592000,31.386000,117.592000,27.344000C117.592000,23.300000,120.869000,20.022000,124.914000,20.022000C128.959000,20.022000,132.234000,23.300000,132.234000,27.344000C132.234000,31.385000,128.959000,34.664000,124.914000,34.664000Z" fill="rgb(230,99,36)" stroke="none" stroke-width="1"/></g></g><g id="emjogdx58k4a9"><g id="emjogdx58k4a10"><path id="emjogdx58k4a11" d="M49.602000,154.596000C49.663000,110.403000,58.059000,74.661000,68.409000,74.661000C78.763000,74.661000,87.159000,110.402000,87.220000,154.596000L49.602000,154.596000Z" fill="rgb(122,186,6)" stroke="none" stroke-width="1"/><polygon id="emjogdx58k4a12" points="81.916000,138.092000 70.658000,151.336000 70.744000,154.596000 67.049000,154.596000 67.510000,138.869000 55.977000,125.299000 67.633000,134.658000 68.502000,105.014000 63.162000,98.733000 68.559000,103.065000 69.008000,87.852000 69.744000,116.235000 76.133000,111.109000 69.803000,118.553000 70.553000,147.217000" fill="rgb(158,201,47)" stroke="none" stroke-width="1"/></g><g id="emjogdx58k4a13"><g id="emjogdx58k4a14"><path id="emjogdx58k4a15" d="M64.850000,152.752000C64.850000,152.752000,112.270000,95.742000,124.911000,62.976000C137.559000,95.742000,184.977000,152.752000,184.977000,152.752000L64.850000,152.752000Z" fill="rgb(247,204,94)" stroke="none" stroke-width="1"/><path id="emjogdx58k4a16" d="M117.113000,152.752000C117.113000,152.752000,123.271000,115.576000,124.910000,94.212000C126.555000,115.576000,132.711000,152.752000,132.711000,152.752000L117.113000,152.752000Z" fill="rgb(113,112,113)" stroke="none" stroke-width="1"/><path id="emjogdx58k4a17" d="M124.910000,62.976000C124.910000,62.976000,125.449000,111.894000,102.318000,149.576000L117.113000,152.752000C117.113000,152.752000,128.680000,89.089000,124.910000,62.976000Z" fill="rgb(241,169,0)" stroke="none" stroke-width="1"/><path id="emjogdx58k4a18" d="M124.723000,62.976000C124.723000,62.976000,124.186000,111.894000,147.317000,149.576000L132.526000,152.752000C132.525000,152.752000,120.959000,89.089000,124.723000,62.976000Z" fill="rgb(241,169,0)" stroke="none" stroke-width="1"/><path id="emjogdx58k4a19" d="M115.633000,78.542000C115.633000,78.542000,122.959000,68.187000,124.910000,62.237000C126.865000,68.186000,134.189000,78.542000,134.189000,78.542000L115.633000,78.542000Z" fill="rgb(241,169,0)" stroke="none" stroke-width="1"/></g></g><path id="emjogdx58k4a20" d="M120.910000,149.951000C160.308000,149.951000,197.256000,152.336000,229.125000,156.512000C207.002000,158.944000,165.111000,160.588000,117.070000,160.588000C72.017000,160.588000,32.375000,159.141000,9.369000,156.953000C41.982000,152.508000,80.133000,149.951000,120.910000,149.951000Z" fill="rgb(131,159,0)" stroke="none" stroke-width="1"/></g><g id="emjogdx58k4a21"><path id="emjogdx58k4a22" d="M206.879000,176.322000C171.762000,176.322000,138.832000,179.713000,110.422000,185.640000C130.145000,189.099000,167.481000,191.433000,210.299000,191.433000C250.457000,191.433000,285.793000,189.380000,306.297000,186.273000C277.229000,179.955000,243.225000,176.322000,206.879000,176.322000Z" fill="rgb(133,161,0)" stroke="none" stroke-width="1"/><g id="emjogdx58k4a23"><g id="emjogdx58k4a24"><path id="emjogdx58k4a25" d="M258.975000,183.686000C258.975000,183.686000,222.975000,140.404000,213.377000,115.527000C203.775000,140.404000,167.775000,183.686000,167.775000,183.686000L258.975000,183.686000Z" fill="rgb(241,169,0)" stroke="none" stroke-width="1"/><path id="emjogdx58k4a26" d="M219.297000,183.686000C219.297000,183.686000,214.623000,155.461000,213.377000,139.243000C212.131000,155.462000,207.457000,183.686000,207.457000,183.686000L219.297000,183.686000Z" fill="rgb(113,112,113)" stroke="none" stroke-width="1"/><path id="emjogdx58k4a27" d="M213.377000,115.526000C213.377000,115.526000,212.969000,152.664000,230.527000,181.273000L219.297000,183.685000C219.297000,183.686000,210.518000,135.351000,213.377000,115.526000Z" fill="rgb(247,204,94)" stroke="none" stroke-width="1"/><path id="emjogdx58k4a28" d="M213.520000,115.526000C213.520000,115.526000,213.926000,152.664000,196.368000,181.273000L207.598000,183.685000C207.598000,183.686000,216.377000,135.351000,213.520000,115.526000Z" fill="rgb(247,204,94)" stroke="none" stroke-width="1"/><path id="emjogdx58k4a29" d="M220.422000,127.345000C220.422000,127.345000,214.860000,119.485000,213.377000,114.967000C211.893000,119.485000,206.332000,127.345000,206.332000,127.345000L220.422000,127.345000Z" fill="rgb(247,204,94)" stroke="none" stroke-width="1"/></g></g></g><g id="emjogdx58k4a30_to" transform="translate(212.805008,79.091501)"><g id="emjogdx58k4a30" transform="translate(-212.805008,-79.091501)"><circle id="emjogdx58k4a31" r="12.194000" transform="matrix(1 0 0 1 212.80400000000000 71.59800000000000)" fill="rgb(242,247,243)" stroke="none" stroke-width="1"/><path id="emjogdx58k4a32" d="M212.807000,54.021000C202.717000,54.021000,194.539000,62.201000,194.539000,72.289000C194.539000,82.377000,212.807000,104.162000,212.807000,104.162000C212.807000,104.162000,231.071000,82.377000,231.071000,72.289000C231.071000,62.201000,222.893000,54.021000,212.807000,54.021000ZM212.807000,81.518000C207.707000,81.518000,203.578000,77.385000,203.578000,72.289000C203.578000,67.191000,207.707000,63.060000,212.807000,63.060000C217.903000,63.060000,222.036000,67.191000,222.036000,72.289000C222.035000,77.385000,217.902000,81.518000,212.807000,81.518000Z" fill="rgb(230,99,36)" stroke="none" stroke-width="1"/></g></g></g></svg>