<svg id="exuonokacexh1" xmlns="http://www.w3.org/2000/svg" xmlns:xlink="http://www.w3.org/1999/xlink" viewBox="0 0 200 200" shape-rendering="geometricPrecision" text-rendering="geometricPrecision"><style><![CDATA[#exuonokacexh2_to {animation: exuonokacexh2_to__to 2000ms linear infinite normal forwards}@keyframes exuonokacexh2_to__to { 0% {transform: translate(100.000496px,88.539650px)} 50% {transform: translate(100.000496px,114.539650px)} 100% {transform: translate(100.000496px,88.539650px)} }#exuonokacexh15_to {animation: exuonokacexh15_to__to 2000ms linear infinite normal forwards}@keyframes exuonokacexh15_to__to { 0% {transform: translate(152.711502px,128.053495px)} 50% {transform: translate(152.711502px,90.053495px)} 100% {transform: translate(152.711502px,128.053495px)} }#exuonokacexh22_ts {animation: exuonokacexh22_ts__ts 2000ms linear infinite normal forwards}@keyframes exuonokacexh22_ts__ts { 0% {transform: translate(161.386200px,112.685551px) scale(1,1)} 25% {transform: translate(161.386200px,112.685551px) scale(0,1)} 50% {transform: translate(161.386200px,112.685551px) scale(-1,1)} 75% {transform: translate(161.386200px,112.685551px) scale(0,1)} 100% {transform: translate(161.386200px,112.685551px) scale(1,1)} }#exuonokacexh23_ts {animation: exuonokacexh23_ts__ts 2000ms linear infinite normal forwards}@keyframes exuonokacexh23_ts__ts { 0% {transform: translate(147.652946px,97.179489px) scale(1,1)} 25% {transform: translate(147.652946px,97.179489px) scale(0,1)} 50% {transform: translate(147.652946px,97.179489px) scale(-1,1)} 75% {transform: translate(147.652946px,97.179489px) scale(0,1)} 100% {transform: translate(147.652946px,97.179489px) scale(1,1)} }#exuonokacexh24_to {animation: exuonokacexh24_to__to 2000ms linear infinite normal forwards}@keyframes exuonokacexh24_to__to { 0% {transform: translate(39.232498px,118.969012px)} 50% {transform: translate(39.232498px,142.813335px)} 100% {transform: translate(39.232498px,118.969012px)} }#exuonokacexh24_tr {animation: exuonokacexh24_tr__tr 2000ms linear infinite normal forwards}@keyframes exuonokacexh24_tr__tr { 0% {transform: rotate(-24.764796deg)} 50% {transform: rotate(23.569766deg)} 100% {transform: rotate(-24.764796deg)} }]]></style><g id="exuonokacexh2_to" transform="translate(100.000496,88.539650)"><g id="exuonokacexh2" transform="translate(-100.000496,-100.000650)"><g id="exuonokacexh3"><g id="exuonokacexh4"><path id="exuonokacexh5" d="M82.134000,179.931000L61.565000,179.931000C57.412000,179.931000,54.048000,176.565000,54.048000,172.413000L54.048000,53.546000L82.133000,53.546000L82.133000,179.931000Z" fill="rgb(228,120,37)" stroke="none" stroke-width="1"/><path id="exuonokacexh6" d="M82.134000,179.931000L102.695000,179.931000C106.853000,179.931000,110.217000,176.565000,110.217000,172.413000L110.217000,53.546000L82.134000,53.546000L82.134000,179.931000Z" fill="rgb(226,99,36)" stroke="none" stroke-width="1"/><path id="exuonokacexh7" d="M61.655000,182.871000L82.134000,182.871000L82.134000,179.931000L60.833000,179.931000L60.833000,182.048000C60.833000,182.505000,61.199000,182.871000,61.655000,182.871000Z" fill="rgb(106,77,49)" stroke="none" stroke-width="1"/><path id="exuonokacexh8" d="M82.134000,182.871000L102.605000,182.871000C103.062000,182.871000,103.428000,182.505000,103.428000,182.048000L103.428000,179.931000L82.134000,179.931000L82.134000,182.871000Z" fill="rgb(72,48,38)" stroke="none" stroke-width="1"/><path id="exuonokacexh9" d="M82.134000,16.461000L61.859000,16.461000C57.546000,16.461000,54.049000,19.961000,54.049000,24.277000L54.049000,53.547000L82.134000,53.547000L82.134000,16.461000Z" fill="rgb(177,177,43)" stroke="none" stroke-width="1"/><path id="exuonokacexh10" d="M82.134000,16.461000L102.399000,16.461000C106.719000,16.461000,110.217000,19.961000,110.217000,24.277000L110.217000,53.547000L82.134000,53.547000L82.134000,16.461000Z" fill="rgb(142,143,49)" stroke="none" stroke-width="1"/><path id="exuonokacexh11" d="M82.134000,58.271000L52.678000,58.271000C51.596000,58.271000,50.720000,57.394000,50.720000,56.313000L50.720000,53.868000C50.720000,52.786000,51.596000,51.910000,52.678000,51.910000L82.134000,51.910000L82.134000,58.271000Z" fill="rgb(106,77,49)" stroke="none" stroke-width="1"/><path id="exuonokacexh12" d="M82.134000,51.910000L111.581000,51.910000C112.663000,51.910000,113.541000,52.786000,113.541000,53.868000L113.541000,56.313000C113.541000,57.394000,112.663000,58.271000,111.581000,58.271000L82.134000,58.271000L82.134000,51.910000Z" fill="rgb(72,48,38)" stroke="none" stroke-width="1"/><path id="exuonokacexh13" d="M105.675000,40.824000C104.877000,40.824000,104.234000,40.178000,104.234000,39.387000L104.234000,27.557000C104.234000,25.210000,102.330000,23.303000,99.980000,23.303000L96.399000,23.303000C95.604000,23.303000,94.962000,22.659000,94.962000,21.867000C94.962000,21.072000,95.604000,20.429000,96.399000,20.429000L99.980000,20.429000C103.917000,20.429000,107.111000,23.627000,107.111000,27.557000L107.111000,39.387000C107.110000,40.178000,106.468000,40.824000,105.675000,40.824000Z" fill="rgb(178,178,68)" stroke="none" stroke-width="1"/><path id="exuonokacexh14" d="M104.948000,114.503000C104.155000,114.503000,103.512000,113.860000,103.512000,113.068000L103.512000,65.542000C103.512000,64.750000,104.155000,64.107000,104.948000,64.107000C105.742000,64.107000,106.385000,64.750000,106.385000,65.542000L106.385000,113.068000C106.385000,113.860000,105.742000,114.503000,104.948000,114.503000Z" fill="rgb(242,150,55)" stroke="none" stroke-width="1"/></g><g id="exuonokacexh15_to" transform="translate(152.711502,128.053495)"><g id="exuonokacexh15" transform="translate(-152.711502,-128.278492)"><path id="exuonokacexh16" d="M137.389000,175.089000L131.255000,175.089000C127.566000,175.089000,124.567000,172.089000,124.567000,168.401000L124.567000,158.124000C124.567000,154.436000,127.565000,151.436000,131.255000,151.436000L137.389000,151.436000C141.074000,151.436000,144.077000,154.436000,144.077000,158.124000L144.077000,168.400000C144.077000,172.089000,141.073000,175.089000,137.389000,175.089000ZM131.255000,154.885000C129.470000,154.885000,128.016000,156.336000,128.016000,158.123000L128.016000,168.400000C128.016000,170.186000,129.470000,171.640000,131.255000,171.640000L137.389000,171.640000C139.175000,171.640000,140.627000,170.186000,140.627000,168.400000L140.627000,158.123000C140.627000,156.336000,139.175000,154.885000,137.389000,154.885000L131.255000,154.885000Z" fill="rgb(97,77,68)" stroke="none" stroke-width="1"/><path id="exuonokacexh17" d="M155.187000,182.871000L138.622000,182.871000C135.096000,182.871000,132.235000,180.014000,132.235000,176.484000L132.235000,146.620000L155.187000,146.620000L155.187000,182.871000Z" fill="rgb(106,77,49)" stroke="none" stroke-width="1"/><path id="exuonokacexh18" d="M155.187000,182.871000L171.753000,182.871000C175.279000,182.871000,178.142000,180.014000,178.142000,176.484000L178.142000,146.620000L155.187000,146.620000L155.187000,182.871000Z" fill="rgb(72,48,38)" stroke="none" stroke-width="1"/><path id="exuonokacexh19" d="M155.187000,142.760000L131.117000,142.760000C130.234000,142.760000,129.513000,143.476000,129.513000,144.361000L129.513000,146.360000C129.513000,147.243000,130.235000,147.959000,131.117000,147.959000L155.187000,147.959000L155.187000,142.760000Z" fill="rgb(228,120,37)" stroke="none" stroke-width="1"/><path id="exuonokacexh20" d="M155.187000,147.958000L179.258000,147.958000C180.143000,147.958000,180.856000,147.242000,180.856000,146.359000L180.856000,144.360000C180.856000,143.475000,180.143000,142.759000,179.258000,142.759000L155.187000,142.759000L155.187000,147.958000Z" fill="rgb(226,99,36)" stroke="none" stroke-width="1"/><path id="exuonokacexh21" d="M169.775000,179.893000L166.842000,179.893000C166.049000,179.893000,165.406000,179.248000,165.406000,178.455000C165.406000,177.662000,166.049000,177.019000,166.842000,177.019000L169.775000,177.019000C171.547000,177.019000,172.991000,175.578000,172.991000,173.805000L172.991000,164.135000C172.991000,163.344000,173.635000,162.697000,174.428000,162.697000C175.221000,162.697000,175.864000,163.344000,175.864000,164.135000L175.864000,173.805000C175.863000,177.162000,173.130000,179.893000,169.775000,179.893000Z" fill="rgb(122,100,75)" stroke="none" stroke-width="1"/><g id="exuonokacexh22_ts" transform="translate(161.386200,112.685551) scale(1,1)"><path id="exuonokacexh22" d="M162.384000,136.182000C161.932000,136.182000,161.483000,135.996000,161.147000,135.644000L158.700000,133.018000C157.126000,131.333000,156.357000,129.048000,156.586000,126.756000C156.817000,124.458000,158.026000,122.376000,159.909000,121.040000C160.996000,120.265000,161.694000,119.059000,161.825000,117.731000C161.960000,116.398000,161.509000,115.076000,160.592000,114.107000L158.762000,112.173000C157.170000,110.489000,156.392000,108.204000,156.614000,105.902000C156.843000,103.598000,158.054000,101.506000,159.934000,100.163000L160.898000,99.478000C162.076000,98.643000,162.782000,97.337000,162.836000,95.895000C162.896000,94.455000,162.297000,93.099000,161.191000,92.174000C160.474000,91.578000,160.378000,90.508000,160.980000,89.796000C161.580000,89.079000,162.640000,88.984000,163.355000,89.582000C165.274000,91.189000,166.316000,93.536000,166.220000,96.032000C166.120000,98.523000,164.894000,100.784000,162.861000,102.232000L161.899000,102.919000C160.812000,103.694000,160.114000,104.902000,159.982000,106.231000C159.849000,107.561000,160.297000,108.879000,161.219000,109.852000L163.046000,111.785000C164.636000,113.466000,165.414000,115.759000,165.192000,118.061000C164.964000,120.363000,163.752000,122.456000,161.872000,123.793000C160.784000,124.570000,160.084000,125.770000,159.954000,127.097000C159.812000,128.419000,160.263000,129.738000,161.172000,130.710000L163.619000,133.335000C164.257000,134.019000,164.222000,135.087000,163.541000,135.724000C163.211000,136.028000,162.798000,136.182000,162.384000,136.182000Z" transform="translate(-161.386200,-112.685551)" fill="rgb(123,201,215)" stroke="none" stroke-width="1"/></g><g id="exuonokacexh23_ts" transform="translate(147.652946,97.179489) scale(1,1)"><path id="exuonokacexh23" d="M148.650899,120.673000C148.200830,120.673000,147.750761,120.493000,147.412709,120.136000L144.965331,117.513000C143.393089,115.825000,142.622971,113.541000,142.854006,111.250000C143.084042,108.952000,144.303229,106.874000,146.176518,105.537000C147.262685,104.763000,147.970794,103.555000,148.095814,102.223000C148.227834,100.893000,147.778765,99.576000,146.858623,98.602000L145.027341,96.669000C143.437096,94.983000,142.658976,92.698000,142.890012,90.395000C143.110046,88.091000,144.321232,86.002000,146.204522,84.661000L147.174672,83.973000C148.340851,83.138000,149.047960,81.832000,149.112970,80.396000C149.167979,78.952000,148.563886,77.597000,147.458716,76.669000C146.744606,76.072000,146.647591,75.009000,147.246683,74.290000C147.850776,73.576000,148.915940,73.481000,149.635051,74.080000C151.542345,75.683000,152.584505,78.032000,152.487490,80.528000C152.391476,83.019000,151.162286,85.279000,149.130973,86.727000L148.167825,87.414000C147.079657,88.191000,146.382550,89.396000,146.249529,90.726000C146.116509,92.054000,146.575580,93.375000,147.486720,94.348000L149.318002,96.284000C150.908247,97.966000,151.693368,100.251000,151.464333,102.555000C151.244299,104.860000,150.025111,106.952000,148.140821,108.293000C147.054653,109.066000,146.356546,110.266000,146.224525,111.592000C146.092505,112.913000,146.532573,114.235000,147.443713,115.210000L149.891090,117.834000C150.526188,118.513000,150.492183,119.583000,149.811078,120.222000C149.481027,120.524000,149.066963,120.673000,148.650899,120.673000Z" transform="translate(-147.652946,-97.179489)" fill="rgb(137,207,220)" stroke="none" stroke-width="1"/></g></g></g><g id="exuonokacexh24_to" transform="translate(39.232498,118.969012)"><g id="exuonokacexh24_tr" transform="rotate(-24.764796)"><g id="exuonokacexh24" transform="translate(-39.232498,-157.006645)"><path id="exuonokacexh25" d="M39.230000,148.646000L39.225000,148.646000C38.270000,148.642000,37.506000,147.872000,37.506000,146.920000C37.513000,142.749000,39.718000,134.271000,47.986000,132.045000C48.906000,131.797000,49.849000,132.342000,50.095000,133.261000C50.347000,134.181000,49.801000,135.125000,48.882000,135.373000C45.666000,136.239000,43.366000,138.392000,42.038000,141.768000C40.987000,144.439000,40.956000,146.908000,40.956000,146.932000C40.951000,147.881000,40.182000,148.646000,39.230000,148.646000Z" fill="rgb(97,77,68)" stroke="none" stroke-width="1"/><path id="exuonokacexh26" d="M39.333000,143.172000C39.333000,143.172000,41.016000,131.357000,30.074000,130.473000C27.598000,137.963000,35.182000,143.340000,39.333000,143.172000Z" fill="rgb(106,77,49)" stroke="none" stroke-width="1"/><path id="exuonokacexh27" d="M47.289000,146.319000C45.758000,146.033000,44.165000,146.227000,42.765000,146.916000C41.923000,147.333000,40.655000,147.598000,39.231000,147.598000C37.808000,147.598000,36.541000,147.333000,35.692000,146.916000C34.298000,146.228000,32.706000,146.033000,31.173000,146.319000C24.090000,147.633000,19.145000,151.464000,19.145000,161.423000C19.145000,169.597000,22.473000,176.827000,27.581000,181.235000C30.184000,183.479000,33.776000,184.094000,37.045000,183.038000C37.729000,182.813000,38.469000,182.693000,39.231000,182.693000C39.995000,182.693000,40.735000,182.813000,41.419000,183.038000C44.689000,184.095000,48.282000,183.479000,50.877000,181.235000C55.990000,176.828000,59.320000,169.597000,59.320000,161.423000C59.319000,151.464000,54.374000,147.634000,47.289000,146.319000Z" fill="rgb(177,177,43)" stroke="none" stroke-width="1"/><path id="exuonokacexh28" d="M47.289000,146.319000C45.758000,146.033000,44.165000,146.227000,42.765000,146.916000C41.923000,147.333000,40.655000,147.598000,39.231000,147.598000L39.231000,182.693000C39.995000,182.693000,40.735000,182.813000,41.419000,183.038000C44.689000,184.095000,48.282000,183.479000,50.877000,181.235000C55.990000,176.828000,59.320000,169.597000,59.320000,161.423000C59.319000,151.464000,54.374000,147.634000,47.289000,146.319000Z" fill="rgb(142,143,49)" stroke="none" stroke-width="1"/></g></g></g></g></g></g></svg>