<svg id="efvhtg9vpid1" xmlns="http://www.w3.org/2000/svg" xmlns:xlink="http://www.w3.org/1999/xlink" viewBox="0 0 315.666000 200" shape-rendering="geometricPrecision" text-rendering="geometricPrecision"><style><![CDATA[#efvhtg9vpid13_to {animation: efvhtg9vpid13_to__to 2000ms linear infinite normal forwards}@keyframes efvhtg9vpid13_to__to { 0% {transform: translate(210.882988px,27.070999px)} 50% {transform: translate(210.882988px,36.035999px)} 100% {transform: translate(210.882988px,27.070999px)} }#efvhtg9vpid16_to {animation: efvhtg9vpid16_to__to 2000ms linear infinite normal forwards}@keyframes efvhtg9vpid16_to__to { 0% {transform: translate(120.323002px,77.502499px)} 50% {transform: translate(120.323002px,69.888500px)} 100% {transform: translate(120.323002px,77.502499px)} }]]></style><g id="efvhtg9vpid2"><g id="efvhtg9vpid3"><g id="efvhtg9vpid4"><path id="efvhtg9vpid5" d="M205.053000,126.036000C231.889000,126.036000,257.057000,127.745000,278.766000,130.735000C263.696000,132.475000,235.162000,133.653000,202.438000,133.653000C171.750000,133.653000,144.748000,132.618000,129.076000,131.051000C151.290000,127.868000,177.276000,126.036000,205.053000,126.036000Z" fill="rgb(131,159,0)" stroke="none" stroke-width="1"/><g id="efvhtg9vpid6"><g id="efvhtg9vpid7"><path id="efvhtg9vpid8" d="M249.855000,128.466000C249.855000,128.466000,219.085000,91.474000,210.882000,70.211000C202.677000,91.474000,171.908000,128.466000,171.908000,128.466000L249.855000,128.466000Z" fill="rgb(247,204,94)" stroke="none" stroke-width="1"/><path id="efvhtg9vpid9" d="M215.943000,128.466000C215.943000,128.466000,211.947000,104.345000,210.882000,90.482000C209.818000,104.345000,205.821000,128.466000,205.821000,128.466000L215.943000,128.466000Z" fill="rgb(113,112,113)" stroke="none" stroke-width="1"/><path id="efvhtg9vpid10" d="M210.883000,70.211000C210.883000,70.211000,210.533000,101.954000,225.541000,126.405000L215.943000,128.466000C215.943000,128.466000,208.439000,87.155000,210.883000,70.211000Z" fill="rgb(241,169,0)" stroke="none" stroke-width="1"/><path id="efvhtg9vpid11" d="M211.006000,70.211000C211.006000,70.211000,211.354000,101.954000,196.346000,126.405000L205.944000,128.466000C205.943000,128.466000,213.447000,87.155000,211.006000,70.211000Z" fill="rgb(241,169,0)" stroke="none" stroke-width="1"/><path id="efvhtg9vpid12" d="M216.904000,80.312000C216.904000,80.312000,212.150000,73.594000,210.883000,69.733000C209.613000,73.594000,204.862000,80.312000,204.862000,80.312000L216.904000,80.312000Z" fill="rgb(241,169,0)" stroke="none" stroke-width="1"/></g></g></g><g id="efvhtg9vpid13_to" transform="translate(210.882988,27.070999)"><g id="efvhtg9vpid13" transform="translate(-210.882988,-36.035999)"><circle id="efvhtg9vpid14" r="14.092000" transform="matrix(1 0 0 1 210.88300000000001 30.40600000000000)" fill="rgb(242,247,243)" stroke="none" stroke-width="1"/><path id="efvhtg9vpid15" d="M210.885000,10.965000C200.795000,10.965000,192.617000,19.146000,192.617000,29.234000C192.617000,39.321000,210.885000,61.107000,210.885000,61.107000C210.885000,61.107000,229.149000,39.321000,229.149000,29.234000C229.148000,19.146000,220.971000,10.965000,210.885000,10.965000ZM210.885000,38.461000C205.785000,38.461000,201.656000,34.329000,201.656000,29.233000C201.656000,24.135000,205.785000,20.004000,210.885000,20.004000C215.981000,20.004000,220.114000,24.135000,220.114000,29.233000C220.113000,34.329000,215.980000,38.461000,210.885000,38.461000Z" fill="rgb(230,99,36)" stroke="none" stroke-width="1"/></g></g><g id="efvhtg9vpid16_to" transform="translate(120.323002,77.502499)"><g id="efvhtg9vpid16" transform="translate(-120.323002,-77.502499)"><circle id="efvhtg9vpid17" r="11.344000" transform="matrix(1 0 0 1 120.21599999999999 71.65800000000000)" fill="rgb(242,247,243)" stroke="none" stroke-width="1"/><g id="efvhtg9vpid18"><path id="efvhtg9vpid19" d="M120.323000,57.614000C112.321000,57.614000,105.833000,64.102000,105.833000,72.104000C105.833000,80.106000,120.323000,97.391000,120.323000,97.391000C120.323000,97.391000,134.813000,80.106000,134.813000,72.104000C134.813000,64.102000,128.325000,57.614000,120.323000,57.614000ZM120.323000,79.425000C116.280000,79.425000,113.001000,76.148000,113.001000,72.105000C113.001000,68.062000,116.280000,64.783000,120.323000,64.783000C124.368000,64.783000,127.643000,68.062000,127.643000,72.105000C127.643000,76.148000,124.368000,79.425000,120.323000,79.425000Z" fill="rgb(230,99,36)" stroke="none" stroke-width="1"/></g></g></g><path id="efvhtg9vpid20" d="M285.414000,151.206000C285.414000,153.602000,275.678000,155.544000,263.662000,155.544000C251.652000,155.544000,241.918000,153.602000,241.918000,151.206000C241.918000,148.802000,251.652000,146.858000,263.662000,146.858000C275.678000,146.858000,285.414000,148.802000,285.414000,151.206000Z" fill="rgb(133,161,0)" stroke="none" stroke-width="1"/><g id="efvhtg9vpid21"><path id="efvhtg9vpid22" d="M118.964000,171.655000C86.663000,171.655000,56.378000,174.774000,30.249000,180.227000C48.388000,183.407000,82.728000,185.553000,122.106000,185.553000C159.042000,185.553000,191.542000,183.666000,210.398000,180.807000C183.665000,174.997000,152.392000,171.655000,118.964000,171.655000Z" fill="rgb(133,161,0)" stroke="none" stroke-width="1"/><g id="efvhtg9vpid23"><path id="efvhtg9vpid24" d="M57.814000,175.524000C57.869000,135.798000,65.418000,103.668000,74.721000,103.668000C84.029000,103.668000,91.575000,135.799000,91.630000,175.524000L57.814000,175.524000Z" fill="rgb(122,186,6)" stroke="none" stroke-width="1"/><polygon id="efvhtg9vpid25" points="86.864000,160.689000 76.743000,172.595000 76.821000,175.524000 73.499000,175.524000 73.913000,161.387000 63.546000,149.188000 74.024000,157.603000 74.805000,130.955000 70.005000,125.308000 74.856000,129.203000 75.260000,115.526000 75.922000,141.043000 81.665000,136.435000 75.975000,143.126000 76.648000,168.892000" fill="rgb(158,201,47)" stroke="none" stroke-width="1"/></g><g id="efvhtg9vpid26"><g id="efvhtg9vpid27"><path id="efvhtg9vpid28" d="M165.922000,176.913000C165.922000,176.913000,129.922000,133.634000,120.324000,108.757000C110.722000,133.634000,74.723000,176.913000,74.723000,176.913000L165.922000,176.913000Z" fill="rgb(241,169,0)" stroke="none" stroke-width="1"/><path id="efvhtg9vpid29" d="M126.244000,176.913000C126.244000,176.913000,121.570000,148.692000,120.324000,132.472000C119.079000,148.693000,114.404000,176.913000,114.404000,176.913000L126.244000,176.913000Z" fill="rgb(113,112,113)" stroke="none" stroke-width="1"/><path id="efvhtg9vpid30" d="M120.324000,108.757000C120.324000,108.757000,119.916000,145.896000,137.474000,174.501000L126.244000,176.913000C126.244000,176.913000,117.465000,128.581000,120.324000,108.757000Z" fill="rgb(247,204,94)" stroke="none" stroke-width="1"/><path id="efvhtg9vpid31" d="M120.467000,108.757000C120.467000,108.757000,120.874000,145.896000,103.315000,174.501000L114.545000,176.913000C114.545000,176.913000,123.325000,128.581000,120.467000,108.757000Z" fill="rgb(247,204,94)" stroke="none" stroke-width="1"/><path id="efvhtg9vpid32" d="M127.369000,120.575000C127.369000,120.575000,121.807000,112.714000,120.324000,108.196000C118.840000,112.714000,113.279000,120.575000,113.279000,120.575000L127.369000,120.575000Z" fill="rgb(247,204,94)" stroke="none" stroke-width="1"/></g></g></g></g></g></svg>