<?xml version="1.0" encoding="utf-8"?>
<!-- Generator: Adobe Illustrator 21.1.0, SVG Export Plug-In . SVG Version: 6.00 Build 0)  -->
<svg version="1.1" id="圖層_1" xmlns="http://www.w3.org/2000/svg" xmlns:xlink="http://www.w3.org/1999/xlink" x="0px" y="0px"
	 viewBox="0 0 480 242.7" style="enable-background:new 0 0 480 242.7;" xml:space="preserve">
<style type="text/css">
	.st0{opacity:0.5;fill:#FFFFFF;}
	.st1{fill:#FCCAA0;stroke:#E6A165;stroke-linecap:round;stroke-linejoin:round;stroke-miterlimit:10;}
	.st2{fill:#E6A165;}
	.st3{fill:#141F2E;}
	.st4{fill:#5F3908;}
	.st5{fill:#3E230B;}
	.st6{fill:#FCCAA0;}
	.st7{clip-path:url(#SVGID_2_);fill:#FCCAA0;}
	.st8{clip-path:url(#SVGID_4_);}
	.st9{fill:#E9AD79;}
	.st10{fill:#4F3315;}
	.st11{fill:#EF8267;}
	.st12{clip-path:url(#SVGID_6_);fill:#263247;}
	.st13{clip-path:url(#SVGID_8_);fill:#141F2E;}
	.st14{fill:#F5A700;}
	.st15{fill:none;stroke:#4F3315;stroke-linecap:round;stroke-linejoin:round;stroke-miterlimit:10;}
	.st16{fill:#F9DF9F;}
	.st17{fill:#F8A02D;}
	.st18{fill:#AFDCDE;}
	.st19{fill:#24A4A3;}
	.st20{fill:#24A4A3;stroke:#24A4A3;stroke-width:0.5;stroke-miterlimit:10;}
</style>
<rect x="-4.3" y="-115.3" class="st0" width="492.7" height="364"/>
<g>
	<g>
		<path class="st1" d="M165.5,185.7l-7.2,31.3c0,0-47.1-20.5-48.7-34.2c-0.6-5.3,14.4-44.2,25.4-71.5c9.6-23.9,18.2-16.1,20.6-12.2
			c0,0,14.1-33.2,2.3,9c0,0,18.1-14-0.4,5.7c0,0-14.3,56.1-15.2,57.8C141.4,173.1,165.5,185.7,165.5,185.7z"/>
		<g>
			<path class="st2" d="M165.5,185.7c0,0-1.6-0.8-3.9-2.1L146.1,212c4.9,2.5,12.2,5,12.2,5L165.5,185.7z"/>
		</g>
	</g>
	<g>
		<path class="st1" d="M337.7,171.4c-0.9-1.7-15.2-57.8-15.2-57.8c-18.5-19.6-0.4-5.7-0.4-5.7c-11.8-42.2,2.3-9,2.3-9
			c2.4-3.8,11.1-11.6,20.6,12.2c11,27.4,26,66.2,25.4,71.5c-1.6,13.7-48.7,34.2-48.7,34.2l-7.2-31.3
			C314.5,185.7,338.6,173.1,337.7,171.4z"/>
		<g>
			<path class="st2" d="M321.7,217c0,0,7.3-2.5,12.2-5l-15.4-28.4c-2.3,1.3-3.9,2.1-3.9,2.1L321.7,217z"/>
		</g>
	</g>
	<g>
		<path class="st3" d="M166.4,181l-13.8,40.3c0,0,41.4,17.9,63.3-13.8C237.3,168.6,166.4,181,166.4,181z"/>
		<path class="st3" d="M313.6,181l13.8,40.3c0,0-41.4,17.9-63.3-13.8C242.7,168.6,313.6,181,313.6,181z"/>
		<g>
			<path class="st4" d="M202.1,98.5c3.3-56.5,37-49,41.1-47.5c4.1-1.5,37.8-9.3,41.6,44.8c3.7,51.9,33.6,58.4-0.4,100.4
				c-24.4,26.6-31.5,15.8-42.5,14.9c-11,0.9-20.9,10.2-45.3-16.4C168.4,164.2,193,151.4,202.1,98.5z"/>
			<path class="st5" d="M245.9,82.3c2.8-1.9,7.5,3.7,10.3,8.4c21.8,21.4,34.8,61.3,38.6,105.2c-21.6,8.3-44.6,7.4-52.2,6.8
				c-9.2,0.7-21,1.3-45.4-13.9C200.2,150.8,209.7,109.4,245.9,82.3z"/>
			<path class="st6" d="M215.5,107.6c3.8,6.1,4.4,15.8-0.6,19c-5,3.1-13.6-1.5-17.4-7.6c-3.8-6.1-2.9-13.5,2.1-16.7
				C204.5,99.1,211.6,101.5,215.5,107.6z"/>
			<path class="st6" d="M264,109c-4.3,5.8-5.5,15.5-0.8,19c4.7,3.5,13.6-0.6,17.9-6.4c4.3-5.8,3.9-13.3-0.9-16.8
				C275.5,101.4,268.2,103.3,264,109z"/>
			<g>
				<g>
					<defs>
						<path id="SVGID_1_" d="M200.8,177.4c29.7-9.3,21.6-40,21.6-40l13.7-1.7v-0.3l1.1,0.1l1.1-0.1v0.3l13.7,1.7
							c0,0-8.1,30.7,21.6,40c29.7,9.3,36.5,18.5,38.8,55.2h-74.1h-2.1H162C164.3,196,171,186.7,200.8,177.4z"/>
					</defs>
					<clipPath id="SVGID_2_">
						<use xlink:href="#SVGID_1_"  style="overflow:visible;"/>
					</clipPath>
					<path class="st7" d="M200.8,177.4c29.7-9.3,21.6-40,21.6-40l13.7-1.7v-0.3l1.1,0.1l1.1-0.1v0.3l13.7,1.7c0,0-8.1,30.7,21.6,40
						c29.7,9.3,24.6,18.5,26.9,55.2h-62.3h-2.1h-57.5C180.9,196,171,186.7,200.8,177.4z"/>
				</g>
				<g>
					<defs>
						<path id="SVGID_3_" d="M200.8,177.4c29.7-9.3,21.6-40,21.6-40l13.7-1.7v-0.3l1.1,0.1l1.1-0.1v0.3l13.7,1.7
							c0,0-8.1,30.7,21.6,40c29.7,9.3,36.5,18.5,38.8,55.2h-74.1h-2.1H162C164.3,196,171,186.7,200.8,177.4z"/>
					</defs>
					<clipPath id="SVGID_4_">
						<use xlink:href="#SVGID_3_"  style="overflow:visible;"/>
					</clipPath>
					<g class="st8">
						<path class="st2" d="M223.4,144.7c-0.2-4.3-1-7.3-1-7.3l13.7-1.7v-0.3l1.1,0.1l1.1-0.1v0.3l13.7,1.7c0,0-1.3,5-0.9,11.6
							C248,155.2,237.2,163.7,223.4,144.7z"/>
						<g>
							<g>
								<g>
									<g>
										<path class="st9" d="M224,144.3c-0.1,0-0.3,0.2-0.2,0.2l0.3-0.1L224,144.3z"/>
										<path class="st9" d="M223.9,145.4c0.2,0,0.6,0,0.8-0.3c-0.4,0.1-0.3,0-0.7,0.1c-0.1-0.1,0-0.2,0.1-0.3
											c-0.1,0,0-0.2-0.3-0.1c-0.1,0.3,0,0.5,0.3,0.5C224.1,145.3,224,145.3,223.9,145.4z"/>
										<path class="st9" d="M232,154.2L232,154.2C231.9,154.1,231.9,154.2,232,154.2z"/>
										<path class="st9" d="M239,157C238.9,157.1,238.9,157.1,239,157C238.9,157.1,239,157.1,239,157z"/>
										<path class="st9" d="M240.3,157.5C240.3,157.5,240.3,157.5,240.3,157.5C240.3,157.5,240.3,157.5,240.3,157.5z"/>
										<path class="st9" d="M232,154.2l0.1,0.2C232.1,154.3,232,154.3,232,154.2z"/>
										<path class="st9" d="M225.6,146.1c0,0-0.1,0-0.1,0C225.5,146.1,225.5,146.1,225.6,146.1L225.6,146.1z"/>
										<path class="st9" d="M229.1,152.4L229.1,152.4c-0.1,0-0.1,0-0.2,0L229.1,152.4z"/>
										<path class="st9" d="M227.2,150.7c0,0,0.3-0.2,0.4-0.2c-0.1,0.1-0.2,0.1-0.2,0.1C227.3,150.6,227.3,150.6,227.2,150.7z"/>
										<path class="st9" d="M225,147.3L225,147.3C224.9,147.3,224.9,147.3,225,147.3z"/>
										<path class="st9" d="M230.5,153.6c0,0,0,0.1,0,0.1C230.5,153.7,230.5,153.6,230.5,153.6z"/>
										<path class="st9" d="M224.6,141.7C224.6,141.7,224.6,141.7,224.6,141.7C224.6,141.7,224.6,141.7,224.6,141.7z"/>
										<polygon class="st9" points="223.3,144.8 223.3,144.7 223.1,144.7 										"/>
										<path class="st9" d="M242.9,157.6C242.9,157.6,242.9,157.6,242.9,157.6C242.8,157.6,242.9,157.6,242.9,157.6z"/>
										<path class="st9" d="M252.8,139.6c-0.2,0.1-0.2,0-0.3-0.1c-0.1-0.1-0.1-0.2-0.3,0C252.3,139.4,252.6,139.8,252.8,139.6z"
											/>
										<path class="st9" d="M225.6,146.2C225.6,146.2,225.6,146.2,225.6,146.2C225.6,146.2,225.6,146.2,225.6,146.2z"/>
										<path class="st9" d="M252.2,139.4L252.2,139.4L252.2,139.4C252.2,139.4,252.2,139.4,252.2,139.4z"/>
										<path class="st9" d="M248.1,154.8c0,0-0.1-0.1-0.1-0.1C248,154.7,248,154.7,248.1,154.8z"/>
										<path class="st9" d="M244.2,156.5l0.1,0C244.2,156.5,244.2,156.5,244.2,156.5z"/>
										<path class="st9" d="M249.4,152.9c0.1,0,0.1,0,0.1-0.1c0,0,0,0,0,0C249.5,152.9,249.5,152.9,249.4,152.9z"/>
										<path class="st9" d="M250.8,151.2C250.8,151.2,250.8,151.2,250.8,151.2l-0.1,0.1L250.8,151.2z"/>
										<path class="st9" d="M224.6,138.5c-0.1-0.1-0.1-0.2-0.1-0.3c0,0.1,0,0.2,0,0.2c0,0,0,0,0,0
											C224.5,138.5,224.5,138.5,224.6,138.5z"/>
										<path class="st9" d="M225.5,146.2c0.1,0,0.1,0,0.1,0C225.6,146.2,225.6,146.2,225.5,146.2
											C225.5,146.2,225.5,146.2,225.5,146.2z"/>
										<path class="st9" d="M247.7,151.2l0.2-0.2C247.8,151.1,247.7,151.2,247.7,151.2z"/>
										<path class="st9" d="M239.4,137.1L239.4,137.1C239.4,137.1,239.4,137.1,239.4,137.1z"/>
										<path class="st9" d="M248.4,150.3c0.1,0,0.2,0,0.3,0c0,0,0,0,0-0.1L248.4,150.3z"/>
										<path class="st9" d="M224.4,138.2L224.4,138.2L224.4,138.2z"/>
										<path class="st9" d="M224.5,139c-0.3-0.2-0.5-0.3-0.7-0.5c0,0,0,0,0,0c0-0.1,0.4,0.3,0.6,0.4c-0.1-0.1-0.4-0.4-0.3-0.4
											c0.1,0.1,0.1,0.1,0.1,0.2c-0.1-0.1,0-0.2,0-0.2c0.1,0,0.1-0.1,0.2-0.3c0,0,0,0.1,0,0.1c-0.1-0.2-0.1-0.4-0.1-0.5
											c0.1,0,0.2-0.3,0.3,0c-0.1,0-0.1,0.1-0.1,0.2l0.1-0.1c0.2,0.4-0.2,0.2-0.2,0.4c0.3-0.2,0.6-0.5,0.8-0.4
											c0.1,0.4-0.5,0.2-0.2,0.5l-0.4-0.1c0.3,0.5-0.2,0,0.1,0.6c0.5,0,0.5-0.3,1-0.2c0.1-0.2-0.1-0.3,0-0.5
											c0.6-0.5,0.6,0.9,1,0.3c0.1-0.3,0.1-0.7,0.4-0.5l-0.1,0.4c0.4,0,0.2-0.6,0.7-0.4c-0.1,0.2-0.3,0.2-0.3,0.2
											c0.3,0.3,0.2-0.3,0.4-0.3l0.1,0.4c0.5-0.1,0.9-0.5,1.5-0.6c0,0.1-0.1,0.2,0,0.3c0.6-0.3,1.4-0.1,2.1,0l0.2-0.4
											c0.1,0,0.1,0.1,0.1,0.2c0.3,0.1,0-0.2,0.1-0.3c0.1,0,0.2,0.2,0.1,0.3c0.4-0.3,1.2-0.7,1.7-0.5l-0.1,0.1
											c0.4,0.1,0.3-0.7,0.7-0.5l-0.1,0.1c0.3,0,0.6,0,0.9-0.1c0.1,0,0.3,0,0.4-0.1c0.1,0,0.3,0,0.3,0c0,0,0.1,0,0.2,0.1
											c0.1,0,0.2,0.1,0.3,0.2c0.1-0.5,0.8,0.2,0.8-0.4c0.2,0.1,0.3,0.2,0.4,0.3c0,0,0.1,0.1,0.1,0.1c0.1,0,0.2,0.1,0.1,0.1
											c0,0,0,0.1,0.1,0.1c0.2,0.1,0.3-0.4,0.5-0.4l0,0.3l0.3-0.3l0.1,0.4l0.2-0.1c-0.1,0-0.1-0.2-0.1-0.3
											c0.3-0.1,0.7,0.3,0.7,0.5l0.8-0.2c0,0.1-0.2,0.2-0.3,0.2c0.4-0.3,0,0.4,0.4,0.1c0-0.1,0.1-0.2,0.1-0.3
											c0.1,0.2,0.5,0.3,0.9,0.2l-0.1,0.2c0.5,0.1,1.1,0,1.7,0.1c-0.2-0.1-0.1-0.5,0.1-0.5l0,0.4c0.1-0.2-0.2-0.2,0.1-0.4
											c0.2,0.1,0.1,0.4,0,0.5l0.3-0.1c0,0.1-0.1,0.2-0.1,0.3c0.1-0.2,0.4,0.4,0.6,0.1l0,0.1c0.6,0.1,0.9,0,1.4,0
											c0-0.3,0.2-0.2,0.4-0.4c0.3,0.1,0.7,0.4,1.1,0.5c0.3-0.1,0.1-0.2,0.3-0.4c0,0.3,0.4,0.3,0.2,0.5c0.5,0,0.7,0,1.3-0.1
											c-0.1-0.1-0.1-0.2-0.1-0.3c0.1,0,0.3,0.2,0.2,0.3l0,0c0.2-0.1,0.4-0.1,0.6,0c0,0,0.1,0,0.1,0.1c0,0,0,0,0,0.1
											c0,0,0,0.1,0.1,0.1c0.1,0.2-0.1,0.3,0.3,0.1l0,0c0.1-0.1,0.3-0.1,0.3-0.1c0.1,0,0.1,0,0.2-0.1c-0.1,0.1-0.2,0.1-0.5,0.3
											c0.3-0.1,0.2,0.1,0.2,0.1c-0.1,0.1-0.1,0.1,0,0.2c-0.9,0.3-0.2,1.5-0.8,2l0.2,0c0.2,0.2-0.1,0.2-0.2,0.3
											c0.2,0,0.2-0.1,0.3,0c0.1,1.3-0.5,2.6-0.8,3.9c-0.1,0.5,1,0.3,0.5,0.9l-0.4-0.2c0.2,0.5,0.2,1,0.2,1.5c0,0.2,0,0.5,0,0.7
											c0,0.1,0,0.3,0.1,0.3c0,0,0.1,0.1,0.1,0.2c-0.1,0-0.2,0-0.2-0.1c-0.1,0-0.1,0.1-0.1,0.1c0,0,0.1,0.1,0.2,0.1
											c0,0-0.2-0.1-0.3-0.1c-0.2,0,0.1,0.5-0.2,0.5c0,0,0-0.1,0-0.1c0.1,0.2-0.3,0.4,0,0.5c-0.3,0.2-0.2,0.6-0.5,0.7
											c0.2,0.3-0.5,0.3-0.1,0.7c-0.4-0.3-0.7,0.2-0.6,0.5c-0.1-0.1-0.2,0-0.3-0.2c-0.1,0.2-0.2,0.4,0,0.5
											c-0.7-0.1-0.3,0.9-1,0.5c-0.3,0.6-0.7,1.2-1.2,1.6c-0.2-0.4,0.5-0.4,0.2-0.8c-0.3,0.5-0.4,1-1,1.2c-0.2,0,0-0.2,0-0.3
											c-0.4,0.5-1,0.4-1.4,0.9c0,0,0-0.1,0.1-0.2c-0.1,0-0.2,0-0.2,0.2l0.1-0.1c0.3,0.3-0.2,0.8-0.1,0.9c0-0.7-0.6,0-0.5-0.9
											c-0.1,0.1-0.1,0.2,0,0.3c-0.1,0-0.2-0.1-0.1-0.3c-0.3,0.2-0.1,0.4-0.5,0.5c0-0.1,0-0.2,0-0.3c-0.1,0.2-0.2,0.5-0.5,0.4
											c0-0.1,0-0.1,0-0.2c-0.5,0.1-0.8,0.7-1.3,0.5c0.1-0.5-0.2-0.2-0.2-0.6l-0.3,0.1l0.1,0.2c-0.2,0-0.5,0.3-0.7,0.1l0.2-0.2
											l-0.5,0l0.3,0.2c-0.3,0.2,0,0.5-0.4,0.4c0.1,0-0.3,0-0.4-0.3l0,0c-0.1,0.1-0.3,0.2-0.5,0.1c0-0.1,0.1-0.4,0.1-0.5
											c-0.2,0.3-0.6,0-0.8,0.3c0.1-0.1,0.1-0.3,0.1-0.3l-0.2,0.2c-0.1-0.1-0.1-0.2,0-0.3c-0.3-0.1,0,0.5-0.4,0.2
											c0,0,0-0.1,0.1-0.1c-0.4-0.2-0.8-0.1-1.2-0.4c0-0.4,0.4,0,0.4-0.3c-0.5-0.1-1.3,0-1.7-0.3l0.1,0.1
											c-0.3,0.5-0.2-0.4-0.6-0.3c0.1,0,0.2-0.2,0.2-0.2c-0.3-0.3-0.7-0.3-1.3-0.4l0.1-0.1c-0.1-0.2-0.5-0.4-0.6-0.6
											c-0.1,0.1-0.2,0-0.3,0.2c-0.1-1.1-1.4-0.5-1.5-1.5c0.1,0.1,0.2,0,0.2,0l-0.5-0.3c-0.1,0.2,0,0.2-0.1,0.4
											c-0.2,0.1-0.4,0-0.5,0c0.3,0,0.3-0.3,0.3-0.5c0,0.1-0.1,0.1-0.2,0.2c0.1-0.5-0.4,0.3-0.5-0.2l0.1-0.1
											c-0.2-0.1-0.4,0-0.5-0.2c0.1-0.3,0.2,0,0.4-0.2c-0.2-0.1-0.7,0.1-0.7-0.3c0.1,0,0.2,0.1,0.4,0.1c0.1-0.4,0-0.4-0.1-0.5
											l0,0l-0.2-0.4l0,0.1c-0.7,0.3-0.5-0.3-1.1-0.3c0.6-0.1,0.2-0.1,0.5-0.4c0-0.1,0-0.3,0.1-0.3c-0.3,0.1-0.1-0.4-0.5-0.3
											c0.1-0.1-0.1-0.2,0.1-0.3c-0.2-0.1-0.1,0.2-0.2,0.2c-0.5,0-0.2-0.9-1-1c-0.5-0.2-0.8-0.1-1.2-0.3c0-0.2,0.4-0.2,0.4-0.2
											c0-0.3-0.2-0.4-0.4-0.5c0.1,0,0.1-0.1,0.2-0.2c-0.1-0.1-0.4,0.1-0.4-0.1c0.1,0,0.3-0.1,0.4-0.1c-0.2-0.1-0.5-0.1-0.7-0.3
											c0.1-0.2,0.3-0.1,0.4-0.1c-0.2-0.1-0.5-0.4-0.8-0.3l0,0.2c-0.1-0.1,0.2-0.2,0.3-0.2c0.3,0,0.1,0.3,0,0.4l-0.1-0.1
											c-0.4,0.5,0.5,0.4,0.6,0.7l-0.4,0.2l0.5,0c0,0.1-0.2,0.3-0.4,0.2c0,0.3,0.3,0.1,0.2,0.4c0,0,0,0-0.1,0l0.2,0.1
											c-0.1,0-0.2,0.2-0.3,0.1c0.1,0.5,0.7,0.3,0.5,0.6l0,0c0.5,0.3,0.3-0.2,0.9-0.1l-0.4,0.7l0.3-0.2c0,0.1,0.1,0.1,0,0.2
											c0.3,0,0.1-0.1,0.3-0.2c0,0.4,0.6,0.5,0.3,0.9c0.3-0.1,0-0.3,0.3-0.2c-0.4,0.5,0.3,0.2,0.3,0.5c-0.3,0.1-0.3-0.1-0.3,0.2
											c0.5-0.2,0.3,0.4,0.5,0.5c0.3-0.3,0.4,0.2,0.8,0.4c-0.1,0.1,0.3,0.6,0.5,0.9l-0.1,0c0.3-0.3,0.5,0,0.8,0.1
											c-0.2,0.2-0.3,0.2-0.4,0.2l0.2,0.2c0.1-0.1,0.2-0.1,0.4,0l-0.2,0.2c0.3,0.2,0.7,0.1,0.9,0.5c0.2-0.2,0.2-0.8,0.7-0.7
											c-0.1,0.1-0.2,0.3-0.4,0.3c0,0,0.2,0,0.2,0.1l-0.3,0.1c0.1,0.2,0.2-0.1,0.3,0c-0.1,0.2,0,0.2-0.1,0.3c0,0,0-0.1-0.1-0.1
											c0.1,0.1,0.2,0.4,0.1,0.5c0.1-0.1,0.2-0.2,0.3-0.2c0.3,0.2-0.1,0.3,0,0.5c0.1-0.1,0.2,0.2,0.4-0.1c0.1,0.1,0,0.2,0,0.3
											c0.2,0,0.7,0.4,0.7,0l0,0c0,0,0,0,0,0l0,0l0,0c0.6,0,0.8,0.7,1.4,0.9l-0.1,0.1c0.3,0,0.7,0.3,1,0.2c0.1,0,0.1,0.3,0,0.4
											c0.3,0,0.3-0.1,0.6,0.2c-0.3,0.1,0,0.2-0.3,0c0.3,0.2,0.3,0.4,0.7,0.3c-0.2,0.2,0.1,0.4,0.3,0.4l-0.1-0.3
											c0.2,0,0.3,0.1,0.4,0.2l-0.2,0.3c0.5,0.7,1.4-0.4,1.7,0.5c0.2-0.2-0.3-0.3-0.1-0.5c0.3,0.1,0.5,0.7,0.6,0.7
											c0.4,0.3,0.5-0.5,0.9-0.3c0-0.1,0-0.5,0.3-0.6c0.3,0.1,0.3,0.6,0.1,0.7c-0.1,0-0.1,0-0.1-0.1c-0.1,0-0.2,0.1-0.1,0.2
											l0.1-0.1c0.1,0.1,0.6,0.2,0.5,0.4c0.2-0.1,0.1-0.2-0.1-0.3c0.4,0.2,0.6,0,1,0.2c-0.1-0.1-0.1-0.2-0.1-0.2
											c0.6,0.1,0.3-0.3,0.6-0.3c0.2,0.2,0,0.5,0.3,0.3c0.3,0.1,0.1,0.3,0,0.5c0.4-0.3,0.7,0.1,1,0.1l-0.2,0.1
											c0.1-0.1,0.2-0.1,0.3-0.1l-0.2-0.2c0.1,0,0.2,0,0.2,0.1c0.1-0.2-0.2-0.4,0-0.7c0.2,0.1,0.4-0.2,0.6,0.1
											c-0.5,0,0.1,0.3-0.3,0.5c0.1-0.1,0.2-0.1,0.3-0.1c0,0,0,0.1,0,0.1c0.5,0.2,0.1-0.4,0.6-0.6c0,0.2,0.2,0.3,0.3,0.3
											c-0.2,0.1-0.2-0.3-0.1-0.5c0.3,0,0.3-0.2,0.4-0.3l-0.2,0c0-0.2,0.1-0.2,0.3-0.4c0.1,0.1-0.1,0.2,0,0.2
											c0.1-0.4,0.6,0.1,0.8-0.2c0.2,0.1,0.2,0.3,0.3,0.3c0.2-0.4,0.5,0.1,0.8-0.3c-0.2-0.2-0.2-0.1-0.1-0.5c0,0-0.1,0.1-0.2,0.2
											c-0.1,0.1-0.2,0.2-0.2,0.2l0.2-0.5c-0.2,0.1-0.3,0.3-0.4,0.3c0.1-0.3,0.1-0.2-0.1-0.4c0.4,0.2,0.3-0.4,0.7-0.4l0.3,0.6
											c0.6,0,0.5-0.7,1.1-0.9l-0.2,0c-0.1-0.3,0.3-0.2,0.4-0.4c0.1,0.2,0.3,0.2,0.4,0.2c-0.1-0.1,0.4-0.3,0.1-0.6l0.4,0
											c0.4-0.2,0-0.8,0.3-1.1c0.1,0.3,0.3,0.2,0.2,0.6c0.1-0.1,0.2-0.2,0.1-0.3c0.2,0,0.1-0.5,0.3-0.5c0-0.1-0.2-0.3-0.1-0.4
											c0,0,0.1,0.1,0.1,0.1c-0.1-0.1,0.1-0.3-0.2-0.3c0.8,0.1,0.8-1,1.4-1c0.1-0.3,0.3-0.7,0.4-1c0,0,0.1,0.1,0,0.1
											c0.4-0.3-0.4-0.5,0-0.9c0.5-0.1,0,0.3,0.2,0.2c0.3,0.1,0.4-0.1,0.5-0.3c0-0.2-0.2-0.5,0.1-0.7l0,0.1
											c0.2-0.4-0.3-0.6-0.3-1c0,0,0.1,0,0.1,0c-0.4-0.2-0.5-0.7-0.6-1.1c0.3,0.1,0.1,0.2,0.4,0.1c0-0.2-0.5,0-0.5-0.3
											c0.2-0.1,0.3-0.3,0.6-0.4l0,0.3c0.4-0.1,0-0.4,0.1-0.5l0.2,0c0-0.5-0.5-0.5-0.4-1l-0.1,0c-0.4-0.3,0.2-0.2-0.1-0.5
											l0.4-0.1c-0.1-0.2-0.4-0.6-0.4-1c0.3,0.2,0.4,0.6,0.6,0.8c0-0.2,0-0.6-0.2-0.7c0,0.1,0.1,0.2,0.1,0.2
											c-0.3-0.2-0.5-0.5-0.4-0.9c0.8,0.1,0.3-0.9,1-1.1c-0.2-0.6,0.3-1.2,0.3-1.9c-0.7,0.1,0-0.2-0.6-0.3c0-0.2,0-0.2,0.1-0.2
											c0,0,0.5-0.7,0.5-0.7c0.2-0.2,0.1,0.2,0.3,0.2c0.2-0.7,0.3-0.3,0.6-0.8c-0.3,0.1-0.3-0.1-0.1-0.6l-0.5,0.6
											c-0.1-0.4,0.1-0.6,0.3-0.9c0.2-0.3,0.4-0.6,0.4-1c0,0,0.2,0.1,0.2,0.1c0-0.1,0-0.2,0-0.3c-0.7,0-1.7-0.2-2.3,0.2
											c0-0.1,0-0.3,0.2-0.3c-0.3-0.1-0.6-0.1-0.9-0.1c-0.3,0-0.7,0-0.8,0.1c-0.4,0.1-0.7,0.1-0.9-0.1l0.1-0.2
											c-0.1,0-0.2,0.3-0.4,0.1c0-0.1,0.1-0.2,0-0.2c-0.1,0-0.4,0.2-0.5,0.1l0.2-0.2c-0.6-0.3-1,0.3-1.6,0.4
											c0.1-0.5-0.4-0.7-0.6-0.8l0-0.1c-0.7-0.2-1.3,0.2-2,0.3c-0.4-0.6-1.4-0.4-2-0.8c0.1,0.1-0.1,0.4-0.2,0.4
											c-0.1-0.1-0.5,0.3-0.4-0.2l0.1,0c-0.1-0.4-0.4-0.4-0.7-0.4l-0.1,0.6c-0.6-0.9-1.8,0.1-2-0.7c-0.2,0.1-0.3,0.1-0.6,0.2
											l0-0.3c0,0,0,0,0,0c-0.2,0-0.3,0-0.4,0c-0.1,0-0.2,0-0.3,0c-0.2,0-0.4,0-0.6,0l0.1-0.2c-0.3,0-0.4,0.9-0.7,0.9l-0.1-0.5
											c-0.1,0-0.2,0-0.3,0c-0.2,0-0.3,0-0.4,0c-0.1,0-0.2,0-0.3,0c-0.2,0-0.5,0.1-0.7,0.3c0-0.1,0-0.2,0.1-0.2
											c-0.3,0-1-0.2-0.9,0.4c-0.1-0.4-0.6,0-0.8,0.3l0-0.3c-0.2,0.4-0.2,0.5-0.5,0.7c-0.1,0-0.1-0.2,0-0.2
											c-0.3-0.1-0.2,0.3-0.5,0.2l0.1-0.2c-0.3,0-0.2,0.1-0.4,0.4c-0.2,0.1-0.5,0-0.6-0.3c0,0.2-0.1,0.4-0.3,0.4
											c0-0.1,0-0.2,0-0.2c-0.5-0.1-0.6,0.4-1,0.2c0-0.1,0-0.1-0.1-0.2c0.4,0,0.7-0.1,0.6,0c0-0.3-0.3-0.3-0.2-0.7
											c-0.2,0.2-0.6,0.8-0.9,0.7c0,0,0-0.1-0.1-0.1l0,0c-0.1,0-0.1,0-0.2,0.1c-0.1,0-0.2-0.1-0.3-0.1c-0.1-0.2-0.4-0.1-0.5-0.1
											c0.1,0.3-0.1,0.3,0.1,0.5c0,0,0,0,0.1-0.1c0,0,0,0,0.1,0l0,0c0.1,0,0.2,0,0.4-0.1c-0.1,0.2-0.2,0.3-0.4,0.2
											c-0.1,0.2-0.1,0.4-0.1,0.5c-0.3-0.4-0.7-0.6-0.8-0.8c-0.4,0.2-1.1,0.3-1.3,0.9c-0.1,0.1-0.2-0.1-0.2-0.2
											c0.1-0.1,0.2-0.1,0.2-0.2c-0.2,0.2-0.8,0.2-0.8,0.6c-0.4-0.1,0.1-0.4-0.3-0.3l0-0.1c-0.5-0.3-0.8,0-1.2,0.3
											c-0.5,0.3-0.7,0.5-1.7,0.3c0.1,0,0.2,0,0.3,0.1c-0.4,0-0.8,0-1.1,0.1c0.3,1.2,0.9,2.6,0.6,3.3c-0.1,0.3,0.2,0.3,0.4,0.5
											l-0.3,0.1l0.4,0.3c0.3,0.4-0.7,0.9-0.1,1.4l0.2-0.1c0,0.2,0.2,0.7-0.1,0.6c0,0,0.2,0,0.1,0.1l-0.2,0l0.3,0.5
											c-0.1,0.4-0.7,0-0.7,0.6c0.1,0.2,0.5,0.6,0.6,0.5c0-0.1,0.1-0.2,0.3-0.2l0.1,0.2c0.5,0,1,0.2,1.4-0.4l-0.3-0.3l0.2-0.1
											l0,0.3c0.2-0.2,0-0.3-0.1-0.4c0.1,0,0.2-0.1,0.3-0.2l-0.5-0.3c0.2-0.1,0.4,0.1,0.5-0.1c-0.2-0.1-0.4,0.2-0.6-0.1
											c0.2-0.2,0.4-0.2,0.2-0.3c0.1,0,0.2,0,0.3,0.1c-0.2-0.2-0.1-0.5-0.4-0.5c0.3-0.2-0.1-0.6,0.3-0.6c-0.1,0-0.4-0.3-0.5-0.4
											c0.6,0.2,0-0.6,0.6-0.6c-0.5-0.1-0.3-0.8-0.7-1.1c0,0,0.1,0,0.1,0.1c0-0.2,0.1-0.3,0.2-0.5c-0.2,0-0.4-0.1-0.5-0.1
											c-0.1,0-0.2-0.1-0.4-0.1c0.4-0.1,0.5,0.1,0.9,0c-0.3,0-0.4-0.1-0.7-0.1c0.3,0,0.1,0,0.5,0c-0.6-0.2-0.1-0.1-0.5-0.3
											c0.3,0,0.6,0.3,0.4,0.1C224.3,138.8,224.5,139,224.5,139z M229.7,137.3L229.7,137.3c-0.1,0-0.1,0-0.2,0
											C229.6,137.4,229.6,137.4,229.7,137.3z M230.3,137.3c-0.1,0-0.2,0-0.3,0c0-0.1,0-0.2,0-0.2
											C230,137.1,230.2,137.2,230.3,137.3z M228.7,135.3c0.1-0.1,0.1,0,0.2,0.1c0,0-0.1,0-0.2,0.1l0,0
											C228.7,135.4,228.7,135.4,228.7,135.3z"/>
										<path class="st9" d="M228.6,135.7C228.6,135.7,228.6,135.8,228.6,135.7C228.6,135.8,228.6,135.8,228.6,135.7L228.6,135.7
											L228.6,135.7z"/>
										<path class="st9" d="M231.9,154.1L231.9,154.1C231.9,154.1,231.9,154.1,231.9,154.1C231.9,154.1,231.9,154.1,231.9,154.1z
											"/>
										<polygon class="st9" points="238.7,137.1 238.7,137.1 238.7,137.1 										"/>
										<path class="st9" d="M229.8,151.1C229.8,151.1,229.8,151.1,229.8,151.1C229.8,151,229.8,151.1,229.8,151.1z"/>
										<path class="st9" d="M228.8,150.1l-0.1-0.2C228.7,149.9,228.7,150,228.8,150.1z"/>
										<path class="st9" d="M228.1,149.1c0,0-0.1,0.1-0.1,0.1v0L228.1,149.1z"/>
										<path class="st9" d="M243.4,154.6C243.4,154.6,243.4,154.6,243.4,154.6C243.5,154.5,243.4,154.6,243.4,154.6z"/>
										<path class="st9" d="M238.5,155.8c0.1,0,0.1-0.1,0.2-0.1C238.6,155.7,238.5,155.6,238.5,155.8z"/>
										<polygon class="st9" points="247.7,151.3 247.7,151.3 247.7,151.2 										"/>
										<path class="st9" d="M238.9,155.7c-0.1-0.1-0.2-0.1-0.2,0C238.7,155.7,238.8,155.8,238.9,155.7z"/>
										<path class="st9" d="M225,145.3L225,145.3C225,145.3,224.9,145.3,225,145.3L225,145.3z"/>
										<path class="st9" d="M224.9,145.3L224.9,145.3C224.9,145.3,224.9,145.3,224.9,145.3z"/>
										<path class="st9" d="M224.7,145.2l0.1,0.1C224.8,145.2,224.8,145.2,224.7,145.2z"/>
										<path class="st9" d="M225.8,146.6L225.8,146.6C225.9,146.5,225.9,146.5,225.8,146.6z"/>
										<path class="st9" d="M226.1,146.9c-0.1-0.1,0-0.4-0.1-0.4l-0.1,0C226.1,146.5,225.9,147,226.1,146.9z"/>
										<path class="st9" d="M226.4,149.3l-0.2-0.4c0,0.1-0.1,0.3-0.2,0.2C226,149.7,226,148.9,226.4,149.3z"/>
										<path class="st9" d="M227.1,150.3c-0.2-0.1-0.1,0.1-0.2,0.2C227.1,150.5,227.1,150.5,227.1,150.3z"/>
										<path class="st9" d="M234.2,155.7l-0.1,0.2C234.3,156,234.1,155.8,234.2,155.7z"/>
										<polygon class="st9" points="236.3,155 236.2,154.8 236.1,155 										"/>
										<polygon class="st9" points="236.7,157.2 236.6,157.2 236.9,157.2 										"/>
										<path class="st9" d="M250.8,151.7l-0.3-0.2C250.5,151.6,250.8,151.9,250.8,151.7z"/>
										<path class="st9" d="M251.8,145c0.2-0.1,0.3-0.2,0.1-0.3C251.9,144.8,251.7,144.9,251.8,145z"/>
										<polygon class="st9" points="240.7,134.6 240.9,134.5 240.6,134.6 										"/>
									</g>
								</g>
							</g>
						</g>
					</g>
				</g>
			</g>
			<path class="st6" d="M270.9,80.7c0.2,0.6,6.8,42.4-8.5,57.9s-41.9,6.3-48.4-9.6c-5.6-13.7-6.7-39.5,4.2-55.3
				S260.2,49.3,270.9,80.7z"/>
			<g>
				<g>
					<path class="st2" d="M251,92.1c-0.5,5.1-0.9,10.1-1.4,15.2c-0.2,2.6-0.5,5.2-0.7,7.8c-0.1,1,0.3,0.4-0.5,0.5
						c-1.3,0.2-2.5,0.5-3.8,0.7c-0.5,0.1-0.3,0.9,0.2,0.8c1.5-0.3,3-0.6,4.5-0.9c0.2,0,0.3-0.2,0.3-0.4c0.7-7.9,1.4-15.8,2.1-23.7
						C251.8,91.6,251,91.6,251,92.1L251,92.1z"/>
				</g>
			</g>
			
				<ellipse transform="matrix(0.999 -4.370195e-02 4.370195e-02 0.999 -4.3835 10.2446)" class="st10" cx="232.1" cy="105.4" rx="1.8" ry="2.6"/>
			<g>
				<g>
					<path class="st2" d="M203.5,110.5c3.1,0.2,5.2,2.8,4.5,5.9c-0.5,2-2.8,1.8-3.8,0.4c-0.7-1-0.4-2,0.7-2.3c1-0.3,2.1,0.2,2.7,0.9
						c0.3,0.4,0.9-0.2,0.6-0.6c-1.2-1.4-5.1-2-5.2,0.6c-0.1,2.1,2.2,3.9,4.2,3.1c2.5-0.9,2.1-4.9,0.8-6.6c-1-1.3-2.8-2.1-4.4-2.2
						C202.9,109.7,202.9,110.5,203.5,110.5L203.5,110.5z"/>
				</g>
			</g>
			<g>
				<g>
					<path class="st2" d="M277.9,111.7c-1.6,0.1-3.3,0.9-4.4,2.1c-1.4,1.7-1.7,5.5,0.6,6.7c1.9,0.9,4.2-0.9,4.3-2.9
						c0.1-1.1-1-1.8-1.9-2c-1.2-0.3-2.5,0.2-3.3,1.2c-0.3,0.4,0.2,1,0.6,0.6c1.2-1.4,4.8-1.3,3.6,1.2c-0.8,1.6-3.1,1.9-3.8,0.1
						c-1.3-3.1,1.4-5.9,4.4-6.1C278.5,112.5,278.5,111.7,277.9,111.7L277.9,111.7z"/>
				</g>
			</g>
			<g>
				<ellipse class="st11" cx="261.2" cy="120.6" rx="5.6" ry="4.6"/>
			</g>
			<g>
				<ellipse class="st11" cx="223.4" cy="117.9" rx="5.6" ry="4.6"/>
			</g>
			<path class="st10" d="M227.2,94.5c0.6,1.2,2.8-0.1,5.6-1.4s5.2-2.3,4.6-3.5c-0.6-1.2-3.3-1.1-6.1,0.3
				C228.5,91.3,226.6,93.4,227.2,94.5z"/>
			<path class="st10" d="M255.5,91.2c-0.5,1.2,1.9,2,4.8,3.3c2.9,1.2,5.1,2.4,5.6,1.2c0.5-1.2-1.4-3.2-4.3-4.4
				C258.8,90,256,90,255.5,91.2z"/>
			<g>
				<g>
					<path class="st2" d="M233.2,121.9c4.1,7.5,17,8.5,20.4-0.1c0.2-0.5-0.6-0.7-0.8-0.2c-3.1,8-15.2,6.7-18.9-0.1
						C233.7,121,233,121.4,233.2,121.9L233.2,121.9z"/>
				</g>
			</g>
			<path class="st4" d="M225.2,61.9c0,0,11.7,19.3,16.8,19.3s1.4-10.3,1.4-10.3s7.8,18,31,19.9c0,0-0.5-37-31.8-34.7L225.2,61.9z"/>
			<path class="st4" d="M230.3,61.9c0,0-8.6,34-21.7,36.8c-3,0.6-0.4-14.5-0.3-17.8c0.4-11.1,9.9-19.7,21-19
				C229.7,61.8,230,61.8,230.3,61.9z"/>
		</g>
		<polygon class="st10" points="231.2,103.8 227.8,103.8 231.2,106.2 		"/>
		<g>
			<g>
				<defs>
					<path id="SVGID_5_" d="M196.9,178c0.2,0.1,0.3,0.2,0.5,0.3c19.4,13.3,63.7,14.9,82.2-0.3c36.1,6.3,31.5,11.7,33.7,46.3l-13,3
						l0.7,20l-125.7,0.8l2-20l-14-4.5C165.4,189.1,171.3,186.9,196.9,178z"/>
				</defs>
				<clipPath id="SVGID_6_">
					<use xlink:href="#SVGID_5_"  style="overflow:visible;"/>
				</clipPath>
				<rect x="149.3" y="175.7" class="st12" width="183.7" height="83.3"/>
			</g>
			<g>
				<defs>
					<path id="SVGID_7_" d="M196.9,178c0.2,0.1,0.3,0.2,0.5,0.3c19.4,13.3,63.7,14.9,82.2-0.3c36.1,6.3,31.5,11.7,33.7,46.3l-13,3
						l0.7,20l-125.7,0.8l2-20l-14-4.5C165.4,189.1,171.3,186.9,196.9,178z"/>
				</defs>
				<clipPath id="SVGID_8_">
					<use xlink:href="#SVGID_7_"  style="overflow:visible;"/>
				</clipPath>
				<path class="st13" d="M321.6,204.7c0,0-46.3,34-166.7,7.3l-2.3,42.7h169.7L321.6,204.7z"/>
			</g>
		</g>
		<path class="st14" d="M203.1,249v-72c0,0-8.1-1-14.3,5.2V249H203.1z"/>
		<path class="st14" d="M273.4,249v-72c0,0,8.1-1,14.3,5.2V249H273.4z"/>
		<path class="st15" d="M261.5,104.3c0,0-2.8,2.1-5.4,2.4c0,0,1.1,1.7,4.8,1.8"/>
	</g>
</g>
<g>
	<path class="st16" d="M414.6,60.5c-7.6,11.8-24.4,15-39,11.3c-5.5,11.8-22.4,8.5-22.4,8.5c7.5-4.2,8.4-10.8,8.1-15
		c-4.8-3.4-8.5-7.9-10.4-13.3c-6.7-20.5,10-50.6,34.3-46.8C438.2,13.7,414.6,60.5,414.6,60.5z"/>
	<g id="XMLID_8663_">
		<path id="XMLID_8664_" class="st17" d="M376.8,49.1h10.4h22.5c0.3,0,0.6-0.2,0.8-0.5c0.1-0.3,0.1-0.7-0.1-0.9l-16.5-21.8
			c-0.2-0.2-0.4-0.3-0.7-0.3c-0.3,0-0.5,0.1-0.7,0.3l-4.9,6.5c-1.2-1.6-3.1-2.6-5.2-2.6c-2.5,0-4.7,1.4-5.8,3.5l-2.6-3.4
			c-0.2-0.2-0.4-0.3-0.7-0.3c-0.3,0-0.5,0.1-0.7,0.3l-13.8,17.7c-0.2,0.3-0.2,0.6-0.1,0.9c0.1,0.3,0.5,0.5,0.8,0.5L376.8,49.1
			L376.8,49.1z M408,47.3h-22.5h-6.9l14.7-19.5L408,47.3z M382.5,31.5c1.7,0,3.2,0.9,4,2.3l-4.6,6.2l-3.9-5.1
			C378.5,32.9,380.4,31.5,382.5,31.5z M361.4,47.3l12-15.4l7.4,9.5l-4.5,5.9H361.4z"/>
	</g>
</g>
<g>
	<path class="st16" d="M33.5,109.9v30.5c0,5.9,4.8,10.7,10.7,10.7h32.4c3,8.1,19.3,12.2,19.3,12.2c-6.2-3.4-5.5-8.5-3.7-12.2h5.4
		c5.9,0,10.7-4.8,10.7-10.7v-30.5c0-5.9-4.8-10.7-10.7-10.7H44.2C38.3,99.2,33.5,104,33.5,109.9z"/>
	<g id="XMLID_21_">
		<path id="XMLID_22_" class="st17" d="M84.9,108.7c-4.6,0-8.4,3.2-9.3,7.5c-1.9-1.2-4.1-1.8-6.5-1.8c-3.7,0-7.3,1.7-9.7,4.6
			c-0.6-0.1-1.2-0.2-1.8-0.2c-5.7,0-10.4,4.6-10.4,10.4c0,1.8,0.5,3.6,1.4,5.2c0.2,0.3,0.5,0.5,0.9,0.5h39c0.3,0,0.7-0.2,0.9-0.5
			c0.8-1.3,1.3-2.8,1.3-4.3c0-1.3-0.3-2.6-0.9-3.7c2.8-1.7,4.7-4.7,4.7-8.2C94.4,113,90.1,108.7,84.9,108.7z M92.3,118.2
			c0,2.8-1.5,5.2-3.8,6.5c-1.5-1.6-3.6-2.6-5.9-2.6c-0.7,0-1.3,0.1-1.9,0.2c-0.7-1.8-1.9-3.4-3.3-4.7c0.3-3.8,3.5-6.8,7.4-6.8
			C89,110.8,92.3,114.1,92.3,118.2z M79.1,123.9c0.1,0.3,0.3,0.5,0.5,0.6c0.3,0.1,0.6,0.1,0.8,0c0.7-0.3,1.4-0.4,2.2-0.4
			c3.3,0,5.9,2.7,5.9,5.9c0,1-0.2,1.9-0.7,2.7H50.1c-0.6-1.1-0.9-2.4-0.9-3.7c0-4.6,3.7-8.3,8.3-8.3c0.7,0,1.4,0.1,2,0.2
			c0.4,0.1,0.8-0.1,1.1-0.4c2-2.7,5.1-4.2,8.4-4.2C73.7,116.5,77.7,119.5,79.1,123.9z"/>
	</g>
</g>
<g>
	<path class="st18" d="M448,111.8V150c0,7.4-6,13.4-13.4,13.4h-12.1c-3.7,10.1-24.2,15.3-24.2,15.3c7.8-4.3,6.9-10.6,4.6-15.3h-6.8
		c-7.4,0-13.4-6-13.4-13.4v-38.2c0-7.4,6-13.4,13.4-13.4h38.5C442,98.4,448,104.4,448,111.8z"/>
	<g>
		<path id="XMLID_8594_" class="st19" d="M432.9,142.1c5.3-9,3-20.3-4.9-26.7c0.4-0.3,0.8-0.6,1.1-1.1c0.9-1.6,0.4-3.6-1.2-4.5
			c-1.6-0.9-3.6-0.4-4.5,1.2c-0.3,0.5-0.4,1-0.5,1.5c-9.3-3.8-20.3-0.3-25.6,8.6c-5.8,9.8-2.6,22.5,7.2,28.3
			C414.4,155.2,427.1,152,432.9,142.1z M427.2,113.2c-0.3,0.5-1,0.7-1.5,0.4c-0.5-0.3-0.7-1-0.4-1.5c0.3-0.5,1-0.7,1.5-0.4
			C427.3,112,427.5,112.7,427.2,113.2z M431,141c-5.2,8.8-16.5,11.7-25.3,6.5c-8.8-5.2-11.7-16.5-6.5-25.3
			c5.2-8.8,16.5-11.7,25.3-6.5C433.2,120.9,436.2,132.3,431,141z"/>
		<path id="XMLID_8591_" class="st19" d="M428.3,139.4c4.3-7.3,1.9-16.7-5.4-21c-7.3-4.3-16.7-1.9-21,5.4c-4.3,7.3-1.9,16.7,5.4,21
			C414.5,149.1,424,146.7,428.3,139.4z M422,120c6.4,3.8,8.6,12.1,4.7,18.6c-3.8,6.4-12.1,8.6-18.6,4.7c-6.4-3.8-8.6-12.1-4.7-18.6
			C407.2,118.3,415.6,116.2,422,120z"/>
		<path id="XMLID_8586_" class="st19" d="M417.2,141.8c0.2,0,0.3-0.2,0.3-0.4l0.1-6.8c0.3-0.3,0.6-0.6,0.8-1
			c1.1-1.8,0.5-4.2-1.4-5.3c-0.1-0.1-0.3-0.2-0.4-0.2l-4.1-8c-0.1-0.2-0.3-0.3-0.5-0.2c-0.2,0.1-0.3,0.2-0.3,0.4l0.3,9.1
			c-0.1,0.1-0.1,0.2-0.2,0.3c-1.1,1.8-0.5,4.2,1.4,5.3c0.2,0.1,0.4,0.2,0.7,0.3l2.9,6.3c0,0.1,0.1,0.2,0.2,0.2
			C417,141.8,417.1,141.8,417.2,141.8z M412.8,128.5l-0.2-6.3l2.8,5.6C414.5,127.7,413.6,127.9,412.8,128.5z M416.5,132.5
			c-0.5,0.8-1.5,1-2.3,0.6c-0.8-0.5-1-1.5-0.6-2.3c0.5-0.8,1.5-1,2.3-0.6C416.7,130.7,417,131.7,416.5,132.5z M416.7,135.1l0,4.3
			l-1.8-3.9C415.5,135.5,416.1,135.4,416.7,135.1z"/>
		<path id="XMLID_8585_" class="st19" d="M426.1,137.6l-2.8-1.7c-0.2-0.1-0.5-0.1-0.6,0.2c-0.1,0.2-0.1,0.5,0.2,0.6l2.8,1.7
			c0.2,0.1,0.5,0.1,0.6-0.2C426.3,138,426.3,137.7,426.1,137.6z"/>
		<path id="XMLID_8584_" class="st19" d="M407.4,127c0.1-0.2,0.1-0.5-0.2-0.6l-2.8-1.7c-0.2-0.1-0.5-0.1-0.6,0.2
			c-0.1,0.2-0.1,0.5,0.2,0.6l2.8,1.7C407,127.3,407.2,127.3,407.4,127z"/>
		<path id="XMLID_8583_" class="st19" d="M420.1,123.8l1.7-2.8c0.1-0.2,0.1-0.5-0.2-0.6c-0.2-0.1-0.5-0.1-0.6,0.2l-1.7,2.8
			c-0.1,0.2-0.1,0.5,0.2,0.6C419.7,124.1,420,124,420.1,123.8z"/>
		<path id="XMLID_8582_" class="st19" d="M409.9,139.4l-1.7,2.8c-0.1,0.2-0.1,0.5,0.2,0.6c0.2,0.1,0.5,0.1,0.6-0.2l1.7-2.8
			c0.1-0.2,0.1-0.5-0.2-0.6C410.3,139.1,410,139.2,409.9,139.4z"/>
	</g>
</g>
<g>
	<path class="st18" d="M119.7,63.4c0.2,9.7,4.9,18.9,4.9,18.9c-9.3-0.6-15.5-5.7-18.8-9.4c-11,5.2-23.1,6.1-33.9-0.8
		C61.9,65.9,56.8,51.2,56.4,39C56.1,23.6,62.7,15.5,76,13.3c11.2-1.8,22.6-1.1,33.8-1.2c15.3-0.2,33.4,15,22.8,34.8
		C129.4,53,124.9,58.6,119.7,63.4z"/>
	<g id="XMLID_932_">
		<path id="XMLID_947_" class="st20" d="M105.6,35.7C105.7,35.7,105.7,35.7,105.6,35.7c0.5,0.1,0.9,0.1,0.9,0.1c0,0,0,0,0.1,0
			c0.1,0,0.2-0.1,0.3-0.2c0-0.1-0.1-0.3-0.2-0.3c0,0-0.1,0-0.3-0.1c-0.1,0-0.3,0-0.6-0.1c-0.1,0-0.3,0.1-0.3,0.2
			C105.4,35.5,105.5,35.6,105.6,35.7z"/>
		<path id="XMLID_946_" class="st20" d="M81.3,47c-0.2-0.2-0.4-0.4-0.6-0.6c-0.1-0.1-0.3-0.1-0.4,0c-0.1,0.1-0.1,0.3,0,0.4
			c0.3,0.4,0.7,0.7,1,1c0.1,0.1,0.2,0.2,0.3,0.3c0,0,0,0,0,0c0,0,0.1,0,0.1,0c0.1,0,0.2,0,0.2-0.1c0.1-0.1,0.1-0.3,0-0.4
			c-0.1-0.1-0.2-0.2-0.3-0.2C81.6,47.2,81.4,47.1,81.3,47z"/>
		<path id="XMLID_945_" class="st20" d="M96.1,38.4c0.1-0.1,0.2-0.2,0.3-0.3c0.3-0.2,0.5-0.4,0.8-0.6c0.1-0.1,0.1-0.2,0.1-0.4
			C97.2,37,97,37,96.9,37.1c-0.2,0.1-0.3,0.2-0.5,0.4c-0.1,0.1-0.2,0.2-0.3,0.3c-0.2,0.2-0.4,0.3-0.6,0.5c-0.1,0.1-0.1,0.3,0,0.4
			c0.1,0,0.1,0.1,0.2,0.1c0.1,0,0.1,0,0.2-0.1C95.9,38.5,96,38.5,96.1,38.4z"/>
		<path id="XMLID_944_" class="st20" d="M94,41.1c0.1-0.2,0.2-0.4,0.3-0.6c0.1-0.2,0.3-0.4,0.4-0.6c0.1-0.1,0.1-0.3-0.1-0.4
			c-0.1-0.1-0.3-0.1-0.3,0c0,0,0,0,0,0c-0.1,0.2-0.2,0.3-0.3,0.5c-0.2,0.3-0.4,0.7-0.6,1c-0.1,0.1,0,0.3,0.1,0.3c0,0,0.1,0,0.1,0
			c0.1,0,0.2-0.1,0.2-0.1C93.9,41.2,94,41.2,94,41.1z"/>
		<path id="XMLID_943_" class="st20" d="M90.1,47.3c0.1-0.1,0.2-0.2,0.3-0.3c0.3-0.3,0.6-0.7,0.9-1.1c0.1-0.1,0.1-0.3-0.1-0.4
			c-0.1-0.1-0.3-0.1-0.4,0.1c-0.2,0.2-0.3,0.4-0.5,0.6c-0.1,0.1-0.2,0.3-0.4,0.4c-0.1,0.1-0.2,0.2-0.3,0.3c-0.1,0.1-0.1,0.3,0,0.4
			c0.1,0.1,0.1,0.1,0.2,0.1C90,47.4,90,47.4,90.1,47.3C90.1,47.4,90.1,47.3,90.1,47.3z"/>
		<path id="XMLID_942_" class="st20" d="M92.3,44.5C92.4,44.5,92.4,44.4,92.3,44.5c0.3-0.5,0.6-1,0.8-1.6c0.1-0.1,0-0.3-0.1-0.3
			c-0.1-0.1-0.3,0-0.3,0.1c-0.1,0.2-0.2,0.4-0.3,0.6c-0.1,0.2-0.2,0.4-0.3,0.7c0,0.1-0.1,0.2-0.1,0.3c-0.1,0.1,0,0.3,0.1,0.3
			c0,0,0,0,0,0c0,0,0.1,0,0.1,0C92.2,44.6,92.3,44.6,92.3,44.5z"/>
		<path id="XMLID_941_" class="st20" d="M102.8,35.6c0.1,0,0.2,0,0.3,0c0.3,0,0.5,0,0.8,0c0.1,0,0.3-0.1,0.3-0.3
			c0-0.1-0.1-0.3-0.3-0.3c0,0,0,0,0,0c-0.3,0-0.5,0-0.8,0c-0.1,0-0.2,0-0.3,0c-0.2,0-0.5,0-0.7,0.1c-0.1,0-0.2,0.1-0.2,0.3
			c0,0.1,0.1,0.2,0.3,0.2c0,0,0,0,0,0C102.3,35.7,102.6,35.7,102.8,35.6z"/>
		<path id="XMLID_940_" class="st20" d="M79.7,45c-0.1-0.2-0.2-0.3-0.3-0.5c0-0.1-0.1-0.1-0.1-0.2c-0.1-0.1-0.2-0.2-0.4-0.1
			c-0.1,0.1-0.2,0.2-0.1,0.3c0.1,0.3,0.3,0.5,0.5,0.7c0,0,0.1,0.1,0.1,0.1c0,0,0.1,0,0.1,0c0,0,0.1,0,0.1,0
			C79.7,45.3,79.7,45.2,79.7,45z"/>
		<path id="XMLID_936_" class="st20" d="M100.6,25.8v9.8c-0.1-0.1-0.2-0.1-0.3-0.1c-0.5,0.1-1,0.3-1.4,0.5v-9.8
			c0-0.2-0.1-0.3-0.3-0.4c-0.2-0.1-0.4-0.1-0.5,0l-10.1,5.1c-0.2,0.1-0.3,0.3-0.3,0.4v17.1c-0.3,0.1-0.6,0.2-0.8,0.3
			c-0.1,0-0.2,0.2-0.2,0.3c0,0.1,0.1,0.2,0.3,0.2c0,0,0,0,0.1,0c0.2-0.1,0.5-0.1,0.7-0.2v10.5c0,0.2,0.1,0.3,0.3,0.4
			c0.1,0,0.2,0.1,0.3,0.1c0.1,0,0.2,0,0.2-0.1l10.1-5.1c0.2-0.1,0.3-0.3,0.3-0.4V36.6c0.5-0.2,1-0.4,1.6-0.6c0.1,0,0.1-0.1,0.1-0.1
			v18c0,0.2,0.1,0.4,0.3,0.4l10.1,5.1c0.1,0,0.2,0.1,0.2,0.1c0.1,0,0.2,0,0.3-0.1c0.2-0.1,0.3-0.3,0.3-0.4V30.9
			c0-0.2-0.1-0.4-0.3-0.4l-10.1-5.1c-0.2-0.1-0.4-0.1-0.5,0C100.6,25.5,100.5,25.6,100.6,25.8z M101.6,53.6V26.7l5.4,2.7l0.1,0.1
			l3.5,1.8v26.9l-1.7-0.8l-0.2-0.1l-1.7-0.9l-0.2-0.1l-1.6-0.8l-0.4-0.2l-1.7-0.9l-0.3-0.2L101.6,53.6L101.6,53.6z M97.8,54
			l-1.4,0.7l-0.3,0.2l-1.7,0.9L94,55.9l-1.6,0.8L92,56.9l-1.6,0.8l-0.4,0.2l-1.4,0.7V48.4c0.1-0.1,0.1-0.2,0.1-0.3c0,0,0,0-0.1-0.1
			V31.6L92,30l0.3-0.2L94,29l0.3-0.2l1.7-0.9l0.3-0.2l1.4-0.7V54z"/>
		<path id="XMLID_933_" class="st20" d="M85.8,30.5l-10.1-5.1c-0.2-0.1-0.4-0.1-0.5,0c-0.2,0.1-0.3,0.3-0.3,0.4v28.1
			c0,0.2,0.1,0.4,0.3,0.4l2.1,1.1l0.3,0.2l1.8,0.9l0.1,0.1l5.8,2.9c0.1,0,0.2,0.1,0.2,0.1c0.1,0,0.2,0,0.3-0.1
			C86,59.3,86,59.2,86,59V30.9C86,30.7,85.9,30.5,85.8,30.5z M75.9,26.7l1.4,0.7l0.4,0.2l1.7,0.9l0.3,0.2l1.6,0.8l0.3,0.2l1.7,0.8
			l0.3,0.1l1.4,0.7v17.6c-0.5,0-0.9-0.2-1.4-0.3c-0.1,0-0.1,0-0.2-0.1c-0.1,0-0.1,0-0.2,0c-0.1,0-0.1,0.1-0.2,0.1
			c-0.1,0.1,0,0.3,0.1,0.3c0,0,0,0,0,0c0.1,0,0.2,0.1,0.4,0.1c0.4,0.2,0.9,0.2,1.4,0.3v8.8l-1.4-0.7l-0.4-0.2l-1.6-0.8l-0.3-0.2
			l-1.6-0.8l-0.3-0.2l-1.7-0.9l-0.4-0.2l-1.4-0.7V26.7z"/>
	</g>
</g>
</svg>
