<?xml version="1.0" encoding="utf-8"?>
<!-- Generator: Adobe Illustrator 16.0.0, SVG Export Plug-In . SVG Version: 6.00 Build 0)  -->
<!DOCTYPE svg PUBLIC "-//W3C//DTD SVG 1.1//EN" "http://www.w3.org/Graphics/SVG/1.1/DTD/svg11.dtd">
<svg version="1.1" id="圖層_1" xmlns="http://www.w3.org/2000/svg" xmlns:xlink="http://www.w3.org/1999/xlink" x="0px" y="0px"
	 width="185px" height="185px" viewBox="0 0 185 185" enable-background="new 0 0 185 185" xml:space="preserve">
<g>
	<g>
		<g>
			<path fill="#1E7A80" d="M344.601,53.423c0,0.422,0.349,0.773,0.777,0.773c0.432,0,0.78-0.352,0.78-0.773
				c0-0.429-0.349-0.775-0.78-0.775C344.949,52.647,344.601,52.994,344.601,53.423z"/>
			<path fill="#1E7A80" d="M354.321,41.422c0.424,0,0.772-0.348,0.772-0.774c0-0.426-0.349-0.777-0.772-0.777
				c-0.431,0-0.782,0.352-0.782,0.777C353.539,41.074,353.891,41.422,354.321,41.422z"/>
			<path fill="#1E7A80" d="M348.051,53.922c0.196,0,0.377-0.089,0.493-0.245c0.221-0.276,0.169-0.679-0.097-0.889L345.65,50.6
				c-0.121-0.084-0.258-0.13-0.393-0.13c-0.195,0-0.381,0.087-0.506,0.244c-0.102,0.138-0.151,0.3-0.136,0.465
				c0.023,0.175,0.115,0.323,0.251,0.43l2.791,2.183C347.77,53.876,347.91,53.922,348.051,53.922z"/>
			<path fill="#1E7A80" d="M354.461,34.999c0.428,0,0.78-0.353,0.78-0.773c0-0.432-0.353-0.78-0.78-0.78
				c-0.422,0-0.773,0.349-0.773,0.78C353.688,34.646,354.039,34.999,354.461,34.999z"/>
			<path fill="#1E7A80" d="M342.736,57.168c0-0.43-0.351-0.78-0.778-0.78c-0.438,0-0.771,0.351-0.771,0.78
				c0,0.423,0.333,0.771,0.771,0.771C342.386,57.938,342.736,57.591,342.736,57.168z"/>
			<path fill="#1E7A80" d="M347.637,48.993c0-0.43-0.355-0.78-0.779-0.78c-0.43,0-0.783,0.351-0.783,0.78s0.354,0.773,0.783,0.773
				C347.281,49.767,347.637,49.423,347.637,48.993z"/>
			<path fill="#1E7A80" d="M353.104,35.942c-0.421,0-0.773,0.354-0.773,0.781c0,0.424,0.353,0.776,0.773,0.776
				c0.425,0,0.777-0.353,0.777-0.776C353.881,36.296,353.528,35.942,353.104,35.942z"/>
			<path fill="#1E7A80" d="M323.394,77.504l0.048-0.017c1.156-0.402,2.127-0.979,2.885-1.703c1.062-1.025,1.76-2.41,2.058-4.126
				l0.011-0.048c0-0.004-0.006-0.02-0.011-0.021c-0.005-0.008-0.018-0.005-0.022,0.001l-0.039,0.032
				c-0.832,0.711-1.749,1.345-2.734,1.871c0,0.002,0,0.006,0,0.007l-2.213,3.968c0,0.013,0,0.025,0,0.033
				c0.006,0,0.009,0.006,0.009,0.006S323.394,77.508,323.394,77.504z"/>
			<path fill="#1E7A80" d="M335.771,65.031c-0.011,0.005-0.011,0.011-0.011,0.015s0,0.011,0,0.021l0.011,0.015
				c0.568,0.931,1.276,1.713,2.114,2.327v0.006c0.007,0,0.007,0,0.021,0l0,0l0.015-0.003c3.645-1.64,9.443-3.681,16.44-4.135
				l0.013-0.001c0.011,0,0.025-0.009,0.025-0.02v-0.038c0-0.08,0-0.167,0-0.26c0-1.381,1.077-2.507,2.4-2.507
				c0.035,0,0.062,0,0.109,0.004c0.027-0.004,0.064-0.004,0.1-0.004c1.326,0,2.4,1.126,2.4,2.507c0,0.062,0,0.116,0,0.18v0.089
				c0,0.013,0.012,0.024,0.023,0.024l0.014,0.002c5.258,0.285,10.322,1.59,15.059,3.858l0.012,0.004
				c0.006,0.003,0.012,0.003,0.016-0.004h0.012c0.951-0.553,1.801-1.251,2.537-2.088l0.01-0.02c0.008-0.009,0.008-0.011,0.008-0.017
				c0-0.011-0.008-0.018-0.01-0.02l-0.023-0.008c-4.365-2.253-8.996-3.741-13.779-4.404c-0.09-2.721-0.934-5.257-2.355-7.145
				c-1.43-1.904-3.312-2.957-5.29-2.957c-2.058,0-3.987,1.109-5.431,3.118c-1.435,1.995-2.235,4.653-2.246,7.48
				c-5.283,1.03-9.531,2.729-12.17,3.975L335.771,65.031z"/>
			<path fill="#1E7A80" d="M339.795,61.279c0-0.429-0.348-0.779-0.779-0.779c-0.424,0-0.775,0.351-0.775,0.779
				c0,0.428,0.352,0.776,0.775,0.776C339.447,62.056,339.795,61.707,339.795,61.279z"/>
			<path fill="#1E7A80" d="M340.996,59.605c0.025,0.346,0.3,0.617,0.645,0.617h0.021c0.003,0,0.003,0,0.003,0l4.202-0.128
				c0.171-0.003,0.325-0.076,0.44-0.199c0.111-0.122,0.184-0.285,0.174-0.455c-0.015-0.342-0.295-0.617-0.652-0.617l-4.203,0.125
				C341.278,58.958,340.992,59.254,340.996,59.605z"/>
			<path fill="#1E7A80" d="M318.293,86.684l0.043-0.02c0.318-0.132,0.658-0.199,0.991-0.199c0.049,0,0.096,0.003,0.131,0.003
				c0.044,0.002,0.087,0.002,0.157,0.002c0.393,0,1.823-0.037,3.412-0.522l0.006-0.004c0.004,0,0.004-0.009,0.01-0.009l1.83-3.294
				c0.01-0.004,0.01-0.017,0-0.021c0-0.005-0.014-0.013-0.021-0.005l-0.047,0.01c-2.005,0.652-3.832,0.793-4.733,0.824h-0.011
				c-0.02,0-0.02,0.007-0.02,0.016l-1.782,3.195c0,0.005,0,0.013,0.008,0.022c0,0.002,0.012,0.002,0.012,0.002
				C318.287,86.684,318.287,86.684,318.293,86.684z"/>
			<path fill="#1E7A80" d="M367.668,49.285c0-0.425-0.34-0.771-0.768-0.771c-0.432,0-0.783,0.346-0.783,0.771
				c0,0.432,0.352,0.779,0.783,0.779C367.328,50.064,367.668,49.717,367.668,49.285z"/>
			<path fill="#1E7A80" d="M334.127,58.219c0,2.219,0.359,4.155,1.063,5.749l0.015,0.037c0.007,0.004,0.02,0.013,0.02,0.008
				c0.014,0,0.019-0.004,0.025-0.008l4.946-8.894l6.231,1.866c0.066,0.019,0.126,0.026,0.188,0.026c0.285,0,0.521-0.179,0.605-0.454
				c0.049-0.164,0.037-0.338-0.041-0.486c-0.082-0.149-0.222-0.256-0.38-0.309l-5.972-1.782l5.652-10.147l3.164,7.528
				c0.103,0.236,0.328,0.388,0.58,0.388c0.082,0,0.178-0.015,0.246-0.05c0.334-0.133,0.481-0.51,0.348-0.83l-3.221-7.66
				c-0.093-0.227-0.307-0.373-0.562-0.389l2.701-4.835l2.771,11.386c0.068,0.29,0.33,0.491,0.619,0.491
				c0.059,0,0.105-0.006,0.154-0.017c0.164-0.041,0.301-0.144,0.396-0.291c0.083-0.147,0.113-0.32,0.069-0.482l-3.08-12.62
				c-0.002-0.027-0.008-0.061-0.023-0.096l4.9-8.816l0.059,21.4c0,0.348,0.285,0.633,0.637,0.633
				c0.354-0.001,0.637-0.286,0.637-0.637l-0.059-21.773l5.533,9.928c0,0.004,0,0.004,0,0.006l-3.414,12.753
				c-0.094,0.341,0.109,0.691,0.459,0.785c0.047,0.011,0.105,0.017,0.158,0.017c0.291,0,0.537-0.192,0.609-0.469l3.07-11.485
				l2.674,4.793c-0.07-0.023-0.137-0.034-0.205-0.034c-0.242,0-0.465,0.136-0.57,0.354l-3.77,7.541
				c-0.08,0.153-0.09,0.327-0.047,0.485c0.057,0.163,0.17,0.291,0.32,0.37c0.096,0.045,0.197,0.065,0.289,0.065
				c0.236,0,0.459-0.129,0.568-0.351l3.779-7.546c0.023-0.045,0.039-0.094,0.043-0.14l5.088,9.127l-7.096,2.154
				c-0.346,0.103-0.527,0.46-0.43,0.795c0.084,0.266,0.328,0.452,0.605,0.452c0.064,0,0.127-0.009,0.186-0.026l7.371-2.236
				l5.494,9.878l0.008,0.02c0.012,0.004,0.014,0.014,0.02,0.014l0,0c0.006,0,0.008-0.002,0.016-0.012l0.018-0.019
				c0.891-1.201,1.547-2.636,1.943-4.251v-0.005c0-0.003,0-0.009,0-0.013l-21.061-37.842l3.736-6.71
				c0.248-0.452,0.312-0.969,0.17-1.459c-0.145-0.49-0.467-0.896-0.912-1.149c-0.281-0.156-0.605-0.239-0.926-0.239
				c-0.697,0-1.34,0.376-1.668,0.986l-24.75,44.446c0,0.003,0,0.013,0,0.016c0,0.013,0,0.023,0,0.032S334.127,58.205,334.127,58.219
				z"/>
			<path fill="#1E7A80" d="M349.059,43.163c0,0.427,0.35,0.777,0.77,0.777c0.435,0,0.779-0.351,0.779-0.777
				s-0.345-0.774-0.779-0.774C349.408,42.389,349.059,42.736,349.059,43.163z"/>
			<path fill="#1E7A80" d="M363.73,44.253c0-0.425-0.346-0.771-0.773-0.771c-0.43,0-0.77,0.346-0.77,0.771
				c0,0.43,0.34,0.777,0.77,0.777C363.385,45.03,363.73,44.683,363.73,44.253z"/>
			<path fill="#1E7A80" d="M353.262,20.765c0.006,0.004,0.006,0.006,0.02,0.006l0,0c0.006,0,0.016-0.001,0.016-0.006l0.014-0.03
				c0.768-1.423,1.473-2.596,2.242-3.685l0.01-0.01c0.003-0.006,0.003-0.019,0-0.023l-1.866-3.325
				c-0.328-0.61-0.97-0.986-1.671-0.986c-0.318,0-0.641,0.083-0.922,0.239c-0.922,0.519-1.256,1.682-0.743,2.608L353.262,20.765z"/>
			<path fill="#1E7A80" d="M405.998,94.643h-5.762c-0.021,0-0.025,0.001-0.029,0.006c-0.01,0.006-0.01,0.02,0,0.023l2.102,3.775
				l0.006,0.01c0.002,0.004,0.006,0.01,0.014,0.01h3.67c1.053,0,1.914-0.861,1.914-1.913
				C407.912,95.495,407.051,94.643,405.998,94.643z"/>
			<path fill="#1E7A80" d="M318.148,94.733l1.613-2.899l0.016-0.023c0.004-0.009,0.004-0.017,0-0.024
				c-0.01-0.004-0.016-0.007-0.025-0.007l0,0h-0.025c-0.261,0.004-0.424-0.009-0.49-0.009l-0.01-0.003
				c-1.232-0.057-2.295-0.986-2.508-2.195l-0.004-0.052c-0.006-0.003-0.006-0.015-0.02-0.016c-0.016-0.005-0.016,0.004-0.025,0.013
				l-6.859,12.33c-0.512,0.923-0.188,2.088,0.734,2.606c0.295,0.156,0.613,0.24,0.932,0.24c0.697,0,1.334-0.378,1.676-0.984
				l2.861-5.144h80.547l2.861,5.144c0.342,0.606,0.979,0.984,1.674,0.984c0.32,0,0.648-0.084,0.932-0.24
				c0.92-0.519,1.25-1.684,0.734-2.606l-5.988-10.777l-0.012-0.013c-0.004-0.006-0.023-0.014-0.023-0.006l-0.018,0.006
				c-0.326,0.153-0.672,0.237-1.025,0.257c-0.055,0.002-0.195,0.006-0.422,0.006c-0.49,0-1.525-0.029-2.809-0.237l-0.039-0.009
				c0,0-0.01,0.003-0.018,0.012c-0.002,0.008-0.002,0.015,0,0.02l2.018,3.628H318.148z"/>
			<path fill="#1E7A80" d="M310.262,98.457l2.094-3.763l0.012-0.022c0.009-0.004,0.009-0.018,0-0.023
				c0-0.005-0.012-0.006-0.02-0.006h-5.773c-1.053,0-1.913,0.853-1.913,1.911c0,1.052,0.86,1.913,1.913,1.913h3.672
				C310.25,98.467,310.256,98.461,310.262,98.457z"/>
			<path fill="#1E7A80" d="M363.195,53.18c-0.146,0.106-0.238,0.255-0.268,0.423c-0.02,0.167,0.018,0.334,0.121,0.472
				c0.117,0.162,0.309,0.26,0.512,0.26c0.141,0,0.268-0.043,0.377-0.121l2.865-2.093c0.137-0.1,0.227-0.246,0.25-0.416
				s-0.008-0.336-0.113-0.472c-0.119-0.164-0.316-0.261-0.508-0.261c-0.137,0-0.271,0.042-0.379,0.121L363.195,53.18z"/>
			<path fill="#1E7A80" d="M358.891,36.284c-0.422,0-0.766,0.352-0.766,0.78c0,0.426,0.344,0.776,0.766,0.776
				c0.439,0,0.783-0.351,0.783-0.776C359.674,36.636,359.33,36.284,358.891,36.284z"/>
			<path fill="#1E7A80" d="M391.822,82.21h-0.008c-2.035-0.409-3.877-1.116-5.453-2.11l-0.053-0.039
				c-0.004-0.006-0.029-0.006-0.031,0c-0.008,0.007-0.008,0.022,0,0.029l1.699,3.051c0,0.004,0.016,0.005,0.016,0.005
				c0.008,0.016,0.012,0.03,0.025,0.041l0.014,0.022c0.045,0.044,0.088,0.083,0.133,0.13c1.668,1.599,3.945,2.187,5.568,2.397
				l0.035,0.005l0,0c0.012,0,0.014-0.002,0.014-0.009c0.008-0.007,0.008-0.019,0.006-0.022l-1.936-3.487l-0.012-0.005
				C391.84,82.213,391.836,82.21,391.822,82.21z"/>
			<path fill="#1E7A80" d="M365.316,57.837c-0.344,0-0.623,0.272-0.639,0.619c-0.01,0.344,0.262,0.643,0.623,0.656l6.604,0.218
				c0.014,0,0.018,0,0.025,0c0.352,0,0.627-0.271,0.637-0.613c0.016-0.352-0.266-0.648-0.617-0.658l-6.609-0.222H365.316z"/>
			<path fill="#1E7A80" d="M358.238,41.153c0,0.425,0.352,0.779,0.77,0.779c0.434,0,0.781-0.354,0.781-0.779
				s-0.348-0.774-0.781-0.774C358.59,40.379,358.238,40.729,358.238,41.153z"/>
			<path fill="#1E7A80" d="M372.029,60.659c0,0.432,0.342,0.781,0.775,0.781c0.424,0,0.775-0.35,0.775-0.781
				c0-0.428-0.352-0.774-0.775-0.774C372.371,59.885,372.029,60.231,372.029,60.659z"/>
			<path fill="#1E7A80" d="M369.752,56.831c0-0.426-0.352-0.769-0.773-0.769c-0.432,0-0.773,0.343-0.773,0.769
				c0,0.43,0.342,0.776,0.773,0.776C369.4,57.607,369.752,57.261,369.752,56.831z"/>
		</g>
		<path fill="#2B9D9C" d="M329.68,94.733v-7.97l-0.915,0.78c-3.398,2.895-7.872,3.118-9.161,3.118c-0.154,0-0.262-0.004-0.324-0.008
			c-0.417-0.018-0.803-0.196-1.084-0.5c-0.273-0.308-0.415-0.7-0.404-1.107c0.045-0.81,0.732-1.465,1.536-1.465
			c0.029,0,0.049,0,0.096,0c0.005,0.003,0.063,0.004,0.192,0.004c0.773,0,4.81-0.129,7.479-2.679c1.3-1.245,2.124-2.945,2.436-5.052
			l0.202-1.433l-1.111,0.923c-3.381,2.782-7.748,2.999-9.006,2.999c-0.166,0-0.273-0.003-0.36-0.004
			c-0.849-0.049-1.499-0.763-1.464-1.606c0.045-0.801,0.739-1.469,1.531-1.469c0.022,0,0.054,0,0.077,0h0.015
			c0.035,0.004,0.092,0.004,0.182,0.004c0.79,0,4.832-0.132,7.499-2.684c1.6-1.529,2.458-3.7,2.565-6.462l0.064-1.5l-1.025,1.095
			c-2.841,3.045-6.155,3.838-6.301,3.867c-0.095,0.025-0.216,0.04-0.329,0.04c-0.724,0-1.335-0.497-1.497-1.209
			c-0.184-0.823,0.34-1.642,1.164-1.836c0.32-0.073,7.943-1.938,7.943-12.362c0-0.851,0.695-1.54,1.541-1.54
			c0.01,0,0.033,0.003,0.062,0.006l0.061,0.007l0.07-0.007c0.029-0.003,0.049-0.006,0.066-0.006c0.846,0,1.536,0.689,1.536,1.54
			c0,10.312,7.189,11.505,7.499,11.549c0.836,0.117,1.424,0.895,1.303,1.73c-0.096,0.761-0.754,1.333-1.521,1.333
			c-0.072,0-0.139-0.005-0.213-0.015c-0.135-0.018-3.327-0.507-6.109-3.29l-0.986-0.987l0.034,1.395
			c0.083,2.852,0.947,5.089,2.579,6.652c2.666,2.552,6.721,2.684,7.502,2.684c0.107,0,0.164,0,0.174,0l0.062-0.004
			c0.837,0,1.527,0.637,1.565,1.456c0.02,0.413-0.121,0.808-0.399,1.111c-0.271,0.302-0.645,0.485-1.025,0.502l-0.066,0.006
			c-0.016,0-0.121,0.004-0.334,0.004c-1.262,0-5.629-0.217-9-2.999l-1.115-0.92l0.207,1.432c0.309,2.104,1.131,3.805,2.43,5.05
			c2.672,2.55,6.71,2.679,7.492,2.679c0.093,0,0.154-0.001,0.184-0.004h0.053c0.847,0,1.537,0.643,1.575,1.461
			c0.02,0.408-0.121,0.804-0.399,1.111c-0.271,0.301-0.648,0.479-1.054,0.5h-0.038c-0.084,0.008-0.189,0.008-0.334,0.008
			c-1.281,0-5.748-0.223-9.146-3.118l-0.918-0.78v7.97H329.68z M358.289,94.733v-5.812l0.926,0.825
			c2.824,2.506,6.451,2.701,7.49,2.701c0.074,0,0.215,0,0.297-0.007c0.703-0.041,1.254-0.694,1.227-1.457
			c-0.035-0.722-0.613-1.33-1.285-1.33l-0.049,0.006c-0.062,0-0.113,0-0.189,0c-0.641,0-4.023-0.116-6.256-2.441
			c-1.051-1.097-1.725-2.573-2.002-4.4l-0.23-1.48l1.143,0.971c2.795,2.397,6.342,2.58,7.346,2.58c0.152,0,0.244-0.004,0.293-0.012
			h0.016c0.699-0.039,1.242-0.689,1.215-1.456c-0.035-0.729-0.607-1.327-1.289-1.327l-0.045,0.004c-0.023,0-0.076,0.003-0.174,0.003
			c-0.646,0-4.039-0.12-6.271-2.441c-1.293-1.349-2.014-3.255-2.141-5.664l-0.074-1.573l1.047,1.173
			c2.328,2.591,5,3.307,5.111,3.336c0.082,0.017,0.18,0.031,0.268,0.031c0.6,0,1.121-0.45,1.246-1.092
			c0.152-0.744-0.281-1.493-0.979-1.665c-0.262-0.068-6.639-1.751-6.639-11.246c0-0.372-0.133-0.725-0.375-0.983
			c-0.232-0.263-0.562-0.408-0.906-0.408l0,0l-0.072,0.008l-0.102-0.006l-0.012-0.002c-0.01,0-0.014-0.004-0.023-0.004
			c-0.711,0-1.28,0.629-1.28,1.396c0,9.398-6.015,10.464-6.265,10.503c-0.71,0.11-1.19,0.812-1.098,1.572
			c0.091,0.753,0.734,1.298,1.439,1.194c0.112-0.018,2.705-0.504,4.945-2.83l1.021-1.048l-0.059,1.455
			c-0.092,2.5-0.82,4.465-2.145,5.854c-2.237,2.321-5.624,2.441-6.291,2.441c-0.101,0-0.145-0.003-0.163-0.003l-0.039-0.004
			c-0.687,0.004-1.257,0.582-1.288,1.323c-0.035,0.77,0.516,1.421,1.226,1.46h0.019c0.048,0.008,0.142,0.009,0.271,0.009
			c1.014,0,4.555-0.186,7.352-2.577l1.137-0.971l-0.225,1.48c-0.272,1.827-0.95,3.304-1.998,4.4
			c-2.242,2.325-5.614,2.441-6.266,2.441c-0.103,0-0.146,0-0.16,0h-0.047c-0.695,0-1.277,0.577-1.309,1.321
			c-0.035,0.763,0.51,1.419,1.209,1.46c0.07,0,0.161,0.007,0.307,0.007c1.043,0,4.676-0.195,7.486-2.701l0.938-0.825v5.812H358.289z
			 M384.648,94.733v-8.64l0.945,0.808c3.58,3.064,8.309,3.301,9.68,3.301c0.139,0,0.273-0.003,0.363-0.004
			c0.439-0.022,0.828-0.214,1.121-0.533c0.289-0.323,0.441-0.736,0.414-1.169c-0.041-0.863-0.771-1.541-1.66-1.541h-0.047
			c-0.027,0.004-0.086,0.008-0.211,0.008c-0.814,0-5.072-0.139-7.877-2.827c-1.385-1.327-2.248-3.134-2.572-5.378l-0.207-1.442
			l1.137,0.943c3.564,2.955,8.195,3.184,9.52,3.184c0.146,0,0.262-0.002,0.379-0.007c0.443-0.021,0.832-0.213,1.125-0.53
			c0.289-0.325,0.441-0.737,0.414-1.166c-0.041-0.868-0.762-1.546-1.646-1.546l-0.062,0.006c0,0,0,0-0.004,0
			c-0.008,0-0.08,0.002-0.186,0.002c-0.826,0-5.092-0.138-7.896-2.824c-1.732-1.66-2.646-4.033-2.719-7.06l-0.033-1.418l1.006,1.013
			c2.967,2.976,6.441,3.491,6.469,3.501c0.074,0.007,0.133,0.009,0.215,0.009c0.812,0,1.5-0.602,1.619-1.403
			c0.113-0.886-0.508-1.698-1.383-1.819c-0.318-0.056-7.902-1.352-7.902-12.171c0-0.896-0.725-1.62-1.617-1.62
			c-0.025,0-0.043,0-0.074,0.004l-0.064,0.009l-0.061-0.009c-0.027,0-0.049-0.004-0.074-0.004c-0.904,0-1.627,0.725-1.627,1.62
			c0,10.952-8.029,12.945-8.357,13.025c-0.869,0.203-1.428,1.064-1.236,1.936c0.166,0.744,0.82,1.27,1.588,1.27
			c0.117,0,0.232-0.014,0.346-0.038c0.146-0.029,3.643-0.847,6.666-4.104l1.037-1.124l-0.053,1.516
			c-0.104,2.934-1.014,5.244-2.717,6.865c-2.799,2.69-7.059,2.828-7.881,2.828c-0.08,0-0.152-0.002-0.215-0.002
			c-0.027-0.006-0.047-0.008-0.074-0.008c-0.842,0-1.582,0.714-1.619,1.554c-0.041,0.888,0.65,1.65,1.557,1.69
			c0.037,0.004,0.158,0.007,0.359,0.007c1.326,0,5.963-0.229,9.521-3.184l1.131-0.943l-0.197,1.442
			c-0.318,2.244-1.186,4.051-2.582,5.378c-2.799,2.688-7.041,2.827-7.873,2.827c-0.088,0-0.164-0.004-0.201-0.004l-0.043-0.007
			h-0.059c-0.846,0-1.576,0.693-1.613,1.556c-0.041,0.889,0.643,1.646,1.537,1.69c0.053,0.001,0.174,0.004,0.379,0.004
			c1.365,0,6.082-0.236,9.662-3.301l0.938-0.808v8.64H384.648z"/>
	</g>
	<g>
		<g>
			<path fill="#2B9D9C" d="M320.805,119.72c-0.768,0-1.394,0.625-1.394,1.394v11.921c0,0.33-0.266,0.601-0.601,0.601h-7.209
				c-0.32,0-0.567-0.265-0.567-0.601v-18.059c0-0.739-0.648-1.389-1.39-1.389c-0.76,0-1.396,0.637-1.396,1.389v18.059
				c0,0.33-0.271,0.601-0.6,0.601h-6.611c-0.329,0-0.595-0.271-0.595-0.601v-11.763c0-0.78-0.612-1.396-1.395-1.396
				c-0.779,0-1.39,0.615-1.39,1.396v12.807c0,1.289,1.047,2.342,2.34,2.342h19.857c1.292,0,2.342-1.053,2.342-2.342v-12.965
				C322.197,120.345,321.572,119.72,320.805,119.72z"/>
			<path fill="#2B9D9C" d="M338.932,127.151h-3.549c-0.214,0-0.381-0.152-0.381-0.343v-0.253c0-0.719-0.581-1.3-1.291-1.3
				c-0.722,0-1.302,0.581-1.302,1.3v0.253c0,0.2-0.146,0.343-0.351,0.343h-3.157c-0.733,0-1.333,0.611-1.333,1.359
				c0,0.747,0.586,1.332,1.333,1.332h1.39c0.109,0,0.215,0.064,0.273,0.163c0.056,0.102,0.048,0.218-0.015,0.322l-3.003,4.87
				c-0.175,0.28-0.178,0.622-0.018,0.912c0.166,0.291,0.469,0.465,0.802,0.465c0.972,0,1.855-0.512,2.366-1.374l1.49-2.505
				c0.023-0.063,0.071-0.07,0.1-0.07c0.061,0,0.122,0.047,0.122,0.121v4.651c0,0.719,0.58,1.297,1.302,1.297
				c0.71,0,1.291-0.578,1.291-1.297v-4.874c0-0.077,0.08-0.125,0.146-0.125c0.028,0,0.078,0.007,0.113,0.051l1.195,2.16
				c0.451,0.808,1.309,1.31,2.239,1.31c0.321,0,0.604-0.164,0.772-0.444c0.168-0.281,0.168-0.615,0.017-0.898l-2.336-4.278
				c-0.04-0.071-0.015-0.148,0.014-0.196c0.081-0.137,0.288-0.26,0.446-0.26h1.322c0.746,0,1.33-0.585,1.33-1.332
				C340.262,127.763,339.664,127.151,338.932,127.151z"/>
			<path fill="#2B9D9C" d="M351.412,130.299c-0.053-0.098-0.053-0.207,0.004-0.3c0.052-0.099,0.161-0.156,0.284-0.156h0.855
				c0.745,0,1.33-0.585,1.33-1.332c0-0.748-0.599-1.359-1.33-1.359h-2.907c-0.215,0-0.385-0.152-0.385-0.343v-0.253
				c0-0.73-0.557-1.3-1.262-1.3c-0.719,0-1.301,0.581-1.301,1.3v0.253c0,0.19-0.165,0.343-0.377,0.343h-3.805
				c-0.714,0-1.328,0.627-1.328,1.359c0,0.735,0.602,1.332,1.328,1.332h1.642c0.163,0,0.38,0.123,0.468,0.269
				c0.05,0.077,0.054,0.152,0.025,0.221l-2.502,4.363c-0.151,0.28-0.151,0.611,0.016,0.89c0.17,0.286,0.468,0.453,0.806,0.453
				c0.948,0,1.804-0.502,2.24-1.311l1.236-2.152c0.023-0.048,0.069-0.074,0.125-0.074c0.063,0,0.126,0.042,0.126,0.123v4.774
				c0,0.719,0.582,1.297,1.301,1.297c0.705,0,1.262-0.568,1.262-1.297v-4.996c0-0.103,0.072-0.139,0.134-0.139
				c0.052,0,0.097,0.021,0.124,0.059l1.295,2.373c0.485,0.841,1.352,1.343,2.307,1.343c0.334,0,0.634-0.166,0.795-0.447
				c0.166-0.288,0.162-0.634-0.006-0.929L351.412,130.299z"/>
			<path fill="#2B9D9C" d="M341.959,123.357v-5.183c0-0.136,0.117-0.209,0.223-0.209c0.062,0,0.126,0.025,0.166,0.069l3.229,3.292
				c0.83,0.826,1.993,1.305,3.183,1.305c0.325,0,0.597-0.188,0.728-0.494c0.121-0.302,0.062-0.631-0.168-0.856l-4.106-4.176
				c-0.063-0.079-0.085-0.173-0.044-0.258c0.039-0.078,0.121-0.129,0.207-0.129h2.805c0.748,0,1.361-0.61,1.361-1.361
				c0-0.749-0.613-1.36-1.361-1.36h-5.745c-0.265,0-0.476-0.21-0.476-0.474v-0.507c0-0.742-0.585-1.327-1.326-1.327
				c-0.75,0-1.359,0.597-1.359,1.327v0.507c0,0.275-0.188,0.474-0.443,0.474h-5.723c-0.753,0-1.364,0.611-1.364,1.36
				c0,0.751,0.611,1.361,1.364,1.361h2.814c0.084,0,0.156,0.043,0.191,0.121c0.031,0.078,0.007,0.165-0.057,0.234l-4.237,4.177
				c-0.243,0.238-0.317,0.58-0.19,0.887s0.41,0.494,0.75,0.494c1.215,0,2.354-0.478,3.218-1.338l3.321-3.224
				c0.043-0.044,0.1-0.073,0.159-0.073c0.091,0,0.196,0.073,0.196,0.205v5.155c0,0.751,0.609,1.361,1.359,1.361
				C341.365,124.719,341.959,124.108,341.959,123.357z"/>
			<path fill="#2B9D9C" d="M383.578,114.471h-14.58c-0.137,0-0.264-0.066-0.35-0.186c-0.082-0.124-0.107-0.28-0.062-0.399
				l0.412-0.919c0.143-0.344,0.107-0.709-0.088-0.996c-0.188-0.279-0.486-0.44-0.83-0.44c-0.904,0-1.734,0.529-2.182,1.381
				l-0.404,0.948c-0.168,0.422-0.574,0.611-0.891,0.611h-4.904c-0.805,0-1.389,0.584-1.389,1.393c0,0.789,0.584,1.359,1.389,1.359
				h3.578c0.166,0,0.326,0.09,0.42,0.24c0.088,0.134,0.109,0.289,0.055,0.412l-4.559,10.118c-0.137,0.348-0.105,0.715,0.094,1.009
				c0.18,0.268,0.479,0.427,0.797,0.427c0.943,0,1.779-0.537,2.18-1.409l1.449-3.129c0.039-0.079,0.121-0.105,0.182-0.105
				c0.088,0,0.172,0.046,0.172,0.156v12.838c0,0.779,0.543,1.328,1.328,1.328c0.75,0,1.299-0.562,1.299-1.328V134.3
				c0-0.339,0.346-0.634,0.633-0.634h10.939c0.34,0,0.66,0.306,0.66,0.634v3.479c0,0.779,0.561,1.328,1.361,1.328
				c0.785,0,1.33-0.549,1.33-1.328v-15.59c0-1.28-1.008-2.247-2.34-2.247h-12.742c-0.148,0-0.273-0.066-0.352-0.186
				c-0.082-0.118-0.09-0.269-0.035-0.399l0.666-1.459c0.148-0.378,0.535-0.676,0.891-0.676h15.873c0.773,0,1.363-0.586,1.363-1.359
				C384.941,115.055,384.369,114.471,383.578,114.471z M378.266,125.319h-10.939c-0.312,0-0.633-0.344-0.633-0.665v-1.36
				c0-0.321,0.32-0.662,0.633-0.662h10.939c0.328,0,0.66,0.331,0.66,0.662v1.36C378.926,124.981,378.594,125.319,378.266,125.319z
				 M367.326,128.07h10.939c0.328,0,0.66,0.335,0.66,0.663v1.455c0,0.322-0.32,0.63-0.66,0.63h-10.939
				c-0.287,0-0.633-0.291-0.633-0.63v-1.455C366.693,128.414,367.014,128.07,367.326,128.07z"/>
			<path fill="#2B9D9C" d="M412.734,126.044h-3.766c-0.119,0-0.232-0.064-0.311-0.173c-0.086-0.113-0.111-0.26-0.07-0.385
				l0.539-1.643c0.105-0.307,0.057-0.649-0.141-0.927c-0.195-0.277-0.512-0.444-0.836-0.444c-0.857,0-1.602,0.53-1.896,1.349
				l-0.57,1.646c-0.127,0.351-0.438,0.577-0.789,0.577h-4.939c-0.359,0-0.699-0.235-0.822-0.577l-0.631-1.646
				c-0.289-0.805-1.068-1.349-1.926-1.349c-0.336,0-0.637,0.153-0.836,0.429c-0.199,0.279-0.256,0.644-0.141,0.972l0.6,1.613
				c0.041,0.136,0.023,0.28-0.061,0.397c-0.078,0.104-0.191,0.16-0.318,0.16h-3.83c-0.73,0-1.326,0.611-1.326,1.364
				c0,0.748,0.596,1.358,1.326,1.358h8.41c0.334,0,0.604,0.249,0.604,0.566v1.864c0,0.335-0.275,0.603-0.604,0.603h-5.879
				c-0.773,0-1.395,0.611-1.395,1.362c0,0.782,0.611,1.391,1.395,1.391h5.879c0.334,0,0.604,0.249,0.604,0.568v2.623
				c0,0.769,0.607,1.394,1.355,1.394c0.777,0,1.393-0.613,1.393-1.394v-2.623c0-0.331,0.24-0.568,0.572-0.568h5.91
				c0.75,0,1.361-0.627,1.361-1.391c0-0.751-0.611-1.362-1.361-1.362h-5.91c-0.32,0-0.572-0.262-0.572-0.603v-1.864
				c0-0.327,0.24-0.566,0.572-0.566h8.41c0.748,0,1.361-0.61,1.361-1.358C414.096,126.655,413.482,126.044,412.734,126.044z"/>
			<path fill="#2B9D9C" d="M413.523,118.869h-9.199c-0.312,0-0.572-0.258-0.572-0.572v-1.233c0-0.328,0.24-0.565,0.572-0.565h6.799
				c0.732,0,1.363-0.639,1.363-1.395c0-0.767-0.613-1.39-1.363-1.39h-6.994c-0.227,0-0.377-0.139-0.377-0.347v-0.223
				c0-0.78-0.615-1.394-1.393-1.394c-0.748,0-1.355,0.627-1.355,1.394v0.223c0,0.192-0.17,0.347-0.381,0.347h-7.021
				c-0.748,0-1.359,0.623-1.359,1.39c0,0.756,0.623,1.395,1.359,1.395h6.799c0.344,0,0.604,0.242,0.604,0.565v1.233
				c0,0.311-0.277,0.572-0.604,0.572h-9.203c-0.768,0-1.387,0.607-1.387,1.357c0,0.78,0.607,1.391,1.387,1.391h22.326
				c0.781,0,1.391-0.61,1.391-1.391C414.914,119.477,414.291,118.869,413.523,118.869z"/>
		</g>
		<g>
			<path fill="#2B9D9C" d="M304.232,148.108l1.582,0.501c-0.241,0.883-0.641,1.537-1.208,1.963c-0.564,0.428-1.28,0.642-2.144,0.642
				c-1.072,0-1.952-0.366-2.645-1.096c-0.689-0.734-1.038-1.735-1.038-3.004c0-1.344,0.351-2.387,1.05-3.131
				c0.689-0.742,1.6-1.115,2.73-1.115c0.984,0,1.787,0.294,2.407,0.876c0.363,0.343,0.644,0.837,0.825,1.486l-1.609,0.384
				c-0.098-0.414-0.302-0.747-0.604-0.99c-0.301-0.241-0.668-0.363-1.104-0.363c-0.598,0-1.08,0.215-1.453,0.642
				c-0.372,0.43-0.561,1.126-0.561,2.088c0,1.022,0.184,1.75,0.554,2.183c0.363,0.433,0.844,0.647,1.426,0.647
				c0.436,0,0.809-0.134,1.122-0.409C303.875,149.136,304.093,148.7,304.232,148.108z"/>
			<path fill="#2B9D9C" d="M310.32,143.008v2.965c0.503-0.583,1.1-0.875,1.789-0.875c0.359,0,0.68,0.065,0.968,0.195
				c0.286,0.135,0.498,0.307,0.647,0.509c0.145,0.207,0.246,0.433,0.296,0.685c0.056,0.249,0.077,0.637,0.077,1.16v3.428h-1.551
				v-3.087c0-0.611-0.025-1-0.081-1.169c-0.06-0.163-0.161-0.295-0.311-0.392c-0.152-0.098-0.335-0.143-0.561-0.143
				c-0.258,0-0.485,0.061-0.689,0.183c-0.199,0.131-0.351,0.315-0.442,0.568c-0.095,0.248-0.143,0.623-0.143,1.111v2.928h-1.543
				v-8.066H310.32z"/>
			<path fill="#2B9D9C" d="M318.408,147.014l-1.406-0.254c0.158-0.564,0.429-0.983,0.816-1.254c0.382-0.275,0.954-0.408,1.715-0.408
				c0.691,0,1.205,0.079,1.542,0.245c0.339,0.163,0.573,0.37,0.714,0.622c0.136,0.25,0.207,0.713,0.207,1.384l-0.018,1.807
				c0,0.516,0.021,0.894,0.074,1.139c0.049,0.242,0.142,0.504,0.278,0.78H320.8c-0.038-0.098-0.091-0.254-0.153-0.453
				c-0.025-0.094-0.041-0.154-0.051-0.183c-0.266,0.258-0.546,0.452-0.847,0.579c-0.305,0.129-0.624,0.189-0.966,0.189
				c-0.596,0-1.072-0.16-1.422-0.488c-0.346-0.326-0.52-0.738-0.52-1.24c0-0.328,0.081-0.623,0.237-0.881
				c0.156-0.26,0.38-0.459,0.658-0.595c0.288-0.138,0.698-0.258,1.231-0.36c0.724-0.136,1.229-0.265,1.508-0.379v-0.157
				c0-0.296-0.074-0.506-0.221-0.635c-0.145-0.127-0.426-0.188-0.834-0.188c-0.272,0-0.487,0.052-0.639,0.16
				C318.625,146.553,318.504,146.744,318.408,147.014z M320.477,148.271c-0.197,0.065-0.513,0.145-0.943,0.234
				c-0.428,0.093-0.711,0.184-0.844,0.271c-0.197,0.145-0.299,0.325-0.299,0.547c0,0.217,0.082,0.4,0.241,0.56
				c0.163,0.157,0.362,0.238,0.614,0.238c0.277,0,0.545-0.094,0.8-0.275c0.187-0.139,0.312-0.309,0.367-0.513
				c0.038-0.134,0.063-0.384,0.063-0.754V148.271z"/>
			<path fill="#2B9D9C" d="M330.414,151.074h-1.543v-2.982c0-0.628-0.035-1.037-0.102-1.223c-0.062-0.186-0.174-0.33-0.322-0.432
				c-0.15-0.105-0.322-0.153-0.533-0.153c-0.267,0-0.51,0.072-0.724,0.218c-0.212,0.145-0.361,0.341-0.439,0.584
				c-0.075,0.239-0.119,0.689-0.119,1.343v2.646h-1.547v-5.844h1.438v0.859c0.514-0.662,1.15-0.992,1.929-0.992
				c0.343,0,0.653,0.06,0.939,0.184c0.28,0.125,0.491,0.28,0.641,0.474c0.138,0.188,0.245,0.403,0.3,0.646
				c0.057,0.241,0.082,0.589,0.082,1.043V151.074z"/>
			<path fill="#2B9D9C" d="M333.424,151.463l1.767,0.214c0.03,0.207,0.096,0.351,0.202,0.422c0.147,0.112,0.377,0.169,0.692,0.169
				c0.405,0,0.71-0.061,0.909-0.182c0.139-0.081,0.241-0.214,0.312-0.39c0.047-0.129,0.067-0.367,0.067-0.713v-0.852
				c-0.46,0.629-1.045,0.942-1.751,0.942c-0.785,0-1.406-0.329-1.865-0.992c-0.361-0.523-0.537-1.181-0.537-1.964
				c0-0.977,0.234-1.727,0.703-2.242c0.471-0.519,1.059-0.778,1.763-0.778c0.724,0,1.32,0.318,1.792,0.95v-0.817h1.447v5.247
				c0,0.69-0.057,1.206-0.176,1.55c-0.115,0.338-0.27,0.608-0.477,0.801c-0.203,0.194-0.482,0.348-0.822,0.459
				c-0.344,0.106-0.779,0.164-1.305,0.164c-0.986,0-1.693-0.174-2.107-0.509c-0.416-0.343-0.622-0.772-0.622-1.294
				C333.417,151.6,333.418,151.533,333.424,151.463z M334.803,148.032c0,0.621,0.12,1.074,0.358,1.363
				c0.243,0.291,0.54,0.43,0.888,0.43c0.385,0,0.7-0.142,0.961-0.441c0.262-0.295,0.393-0.73,0.393-1.312
				c0-0.604-0.127-1.055-0.373-1.35c-0.252-0.293-0.562-0.438-0.951-0.438c-0.367,0-0.674,0.143-0.917,0.429
				C334.923,147.002,334.803,147.438,334.803,148.032z"/>
			<path fill="#2B9D9C" d="M345.416,149.217l1.542,0.26c-0.194,0.562-0.511,0.993-0.937,1.29c-0.43,0.296-0.964,0.44-1.604,0.44
				c-1.02,0-1.771-0.331-2.258-0.995c-0.386-0.528-0.58-1.202-0.58-2.013c0-0.972,0.253-1.728,0.762-2.277
				c0.503-0.551,1.146-0.824,1.92-0.824c0.873,0,1.554,0.288,2.058,0.861c0.505,0.574,0.742,1.456,0.722,2.644h-3.875
				c0.01,0.455,0.139,0.812,0.374,1.068c0.243,0.255,0.539,0.38,0.894,0.38c0.242,0,0.446-0.063,0.607-0.193
				C345.207,149.72,345.334,149.51,345.416,149.217z M345.504,147.654c-0.01-0.45-0.121-0.789-0.35-1.022
				c-0.221-0.23-0.483-0.348-0.799-0.348c-0.338,0-0.618,0.118-0.836,0.364c-0.219,0.247-0.33,0.579-0.327,1.006H345.504z"/>
			<path fill="#2B9D9C" d="M356.521,151.074v-3.393l-2.959-4.674h1.912l1.896,3.191l1.863-3.191h1.879l-2.967,4.684v3.383H356.521z"
				/>
			<path fill="#2B9D9C" d="M362.297,148.071c0-0.513,0.125-1.012,0.379-1.493c0.256-0.479,0.609-0.849,1.08-1.1
				c0.459-0.256,0.977-0.381,1.553-0.381c0.885,0,1.605,0.288,2.17,0.861c0.566,0.574,0.848,1.303,0.848,2.18
				c0,0.884-0.283,1.615-0.854,2.196c-0.572,0.584-1.287,0.872-2.154,0.872c-0.537,0-1.049-0.121-1.533-0.36
				c-0.488-0.243-0.854-0.598-1.109-1.068C362.422,149.311,362.297,148.744,362.297,148.071z M363.881,148.153
				c0,0.579,0.135,1.024,0.414,1.332c0.273,0.311,0.613,0.463,1.014,0.463c0.404,0,0.748-0.152,1.018-0.463
				c0.277-0.308,0.41-0.753,0.41-1.346c0-0.568-0.133-1.009-0.41-1.321c-0.27-0.304-0.613-0.46-1.018-0.46
				c-0.4,0-0.74,0.156-1.014,0.46C364.016,147.131,363.881,147.574,363.881,148.153z"/>
			<path fill="#2B9D9C" d="M374.967,151.074v-0.873c-0.213,0.315-0.49,0.557-0.836,0.736c-0.35,0.18-0.713,0.27-1.104,0.27
				c-0.389,0-0.742-0.086-1.053-0.259c-0.314-0.172-0.539-0.412-0.678-0.725c-0.139-0.311-0.209-0.745-0.209-1.294v-3.699h1.547
				v2.689c0,0.82,0.027,1.323,0.084,1.508c0.055,0.186,0.158,0.333,0.309,0.441c0.154,0.109,0.344,0.162,0.578,0.162
				c0.262,0,0.5-0.071,0.705-0.214c0.215-0.15,0.352-0.329,0.432-0.545c0.078-0.212,0.113-0.74,0.113-1.577v-2.465h1.551v5.844
				H374.967z"/>
			<path fill="#2B9D9C" d="M381.068,151.074h-1.547v-5.844h1.436v0.83c0.248-0.394,0.467-0.651,0.666-0.776
				c0.193-0.124,0.416-0.187,0.662-0.187c0.355,0,0.699,0.103,1.021,0.292l-0.475,1.352c-0.264-0.172-0.508-0.255-0.727-0.255
				s-0.404,0.06-0.551,0.178c-0.152,0.122-0.268,0.335-0.359,0.648c-0.086,0.312-0.127,0.963-0.127,1.956V151.074z"/>
			<path fill="#2B9D9C" d="M390.318,151.074v-8h1.631v6.642h4.049v1.358H390.318z"/>
			<path fill="#2B9D9C" d="M398.732,144.439v-1.432h1.549v1.432H398.732z M398.732,151.074v-5.844h1.549v5.844H398.732z"/>
			<path fill="#2B9D9C" d="M402.768,145.23h0.855v-0.439c0-0.491,0.053-0.858,0.162-1.104c0.1-0.239,0.295-0.438,0.576-0.59
				c0.277-0.153,0.635-0.229,1.066-0.229c0.441,0,0.875,0.066,1.291,0.197l-0.209,1.078c-0.25-0.057-0.484-0.086-0.713-0.086
				c-0.223,0-0.383,0.051-0.479,0.159c-0.098,0.103-0.148,0.305-0.148,0.601v0.413h1.156v1.215h-1.156v4.629h-1.547v-4.629h-0.855
				V145.23z"/>
			<path fill="#2B9D9C" d="M412.162,149.217l1.541,0.26c-0.195,0.562-0.508,0.993-0.938,1.29c-0.424,0.296-0.965,0.44-1.607,0.44
				c-1.016,0-1.768-0.331-2.254-0.995c-0.385-0.528-0.582-1.202-0.582-2.013c0-0.972,0.254-1.728,0.762-2.277
				c0.508-0.551,1.148-0.824,1.922-0.824c0.873,0,1.553,0.288,2.062,0.861c0.506,0.574,0.74,1.456,0.721,2.644h-3.879
				c0.008,0.455,0.139,0.812,0.373,1.068c0.242,0.255,0.535,0.38,0.895,0.38c0.24,0,0.443-0.063,0.613-0.193
				C411.955,149.72,412.078,149.51,412.162,149.217z M412.252,147.654c-0.012-0.45-0.125-0.789-0.352-1.022
				c-0.221-0.23-0.486-0.348-0.801-0.348c-0.338,0-0.615,0.118-0.836,0.364c-0.215,0.247-0.336,0.579-0.326,1.006H412.252z"/>
		</g>
	</g>
</g>
<g>
	<defs>
		<circle id="SVGID_1_" cx="92.5" cy="92.502" r="92.5"/>
	</defs>
	<clipPath id="SVGID_2_">
		<use xlink:href="#SVGID_1_"  overflow="visible"/>
	</clipPath>
	<path clip-path="url(#SVGID_2_)" fill="#F1F6F2" d="M205.072,92.502c0,62.171-50.4,112.569-112.572,112.569
		c-62.173,0-112.572-50.397-112.572-112.569c0-62.173,50.399-112.574,112.572-112.574C154.672-20.071,205.072,30.33,205.072,92.502z
		"/>
	<g clip-path="url(#SVGID_2_)">
		<g>
			<path fill="#2B9D9C" d="M91.887,88.605l-0.792-0.01c-19.197-0.429-34.526-16.36-34.171-35.515
				c0.358-19.166,16.526-34.713,35.699-34.239c19.259,0.459,34.563,16.458,34.111,35.663
				C126.291,73.309,110.659,88.605,91.887,88.605z M91.781,29.933c-12.86,0-23.519,10.477-23.759,23.354
				c-0.242,13.058,10.219,23.919,23.32,24.212l0.544,0.006c12.792,0,23.449-10.435,23.748-23.26
				c0.308-13.088-10.136-23.992-23.276-24.306L91.781,29.933z"/>
		</g>
		<g>
			<path fill="#2B9D9C" d="M91.887,88.605l-0.792-0.01c-19.197-0.429-34.526-16.36-34.171-35.515
				c0.358-19.166,16.526-34.713,35.699-34.239c19.259,0.459,34.563,16.458,34.111,35.663
				C126.291,73.309,110.659,88.605,91.887,88.605z M91.781,29.933c-12.86,0-23.519,10.477-23.759,23.354
				c-0.242,13.058,10.219,23.919,23.32,24.212l0.544,0.006c12.792,0,23.449-10.435,23.748-23.26
				c0.308-13.088-10.136-23.992-23.276-24.306L91.781,29.933z"/>
		</g>
		<g>
			<path fill="#2B9D9C" d="M149.097,210H36.484c-1.497,0-2.928-0.069-3.973-1.142c-1.045-1.071-1.613-2.248-1.576-3.745
				c0.125-5.116,0.045-12.355-0.03-19.485c-0.089-8.202-0.18-49.619,0.032-55.175c0.724-18.966,14.964-38.234,31.744-42.994
				c2.323-0.657,4.799,0.273,6.134,2.28c3.762,5.65,14.964,10.614,23.976,10.614s20.215-4.95,23.976-10.6
				c1.337-2.008,3.814-2.917,6.134-2.262c16.779,4.761,31.021,24.065,31.743,43.028c0.214,5.557,0.121,47.039,0.032,55.241
				c-0.075,7.129-0.155,14.501-0.028,19.618c0.036,1.496-0.531,2.407-1.578,3.479C152.025,209.931,150.593,210,149.097,210z
				 M42.1,198h101.382c-0.011-3,0.043-8.426,0.094-13.342c0.087-8.068,0.177-48.922-0.024-54.205
				c-0.495-12.987-9.512-26.332-20.391-31.308c-7.465,7.623-20.545,12.195-30.37,12.195c-9.825,0-22.905-4.389-30.371-12.013
				c-10.877,4.972-19.895,18.598-20.39,31.584c-0.201,5.283-0.112,45.662-0.025,53.732C42.057,189.557,42.111,195,42.1,198z"/>
		</g>
	</g>
</g>
<g opacity="0.7">
	<g>
		<path fill="#2B9D9C" d="M392.803,202.46c-0.059-0.493-0.123-0.972-0.186-1.452c-0.051-0.379-0.1-0.76-0.152-1.131
			c-0.068-0.488-0.141-0.964-0.213-1.439c-0.053-0.341-0.105-0.684-0.16-1.018c-0.08-0.481-0.162-0.951-0.246-1.418
			c-0.057-0.309-0.111-0.617-0.168-0.92c-0.09-0.471-0.186-0.931-0.279-1.387c-0.059-0.28-0.119-0.562-0.18-0.836
			c-0.102-0.46-0.207-0.91-0.314-1.355c-0.062-0.254-0.125-0.505-0.188-0.754c-0.115-0.449-0.232-0.891-0.355-1.325
			c-0.039-0.142-0.078-0.286-0.119-0.427c4.66-1.251,7.297-2.091,7.297-2.091l-2.719-3.153c-1.959,0.536-3.889,1.044-5.809,1.538
			c-0.031-0.08-0.064-0.156-0.096-0.235c-0.164-0.423-0.33-0.842-0.504-1.249c-0.064-0.149-0.129-0.293-0.195-0.439
			c-0.186-0.422-0.375-0.84-0.572-1.245c-0.057-0.114-0.115-0.226-0.172-0.339c-0.215-0.427-0.432-0.85-0.658-1.258
			c-0.039-0.069-0.08-0.136-0.119-0.204c-1.969-3.481-4.449-6.355-7.602-8.838c11.42-2.619,18.445-4.856,18.445-4.856l-2.719-3.153
			c-7.002,1.92-13.754,3.555-20.273,4.951c-4.738-2.751-10.633-5.053-18.006-7.352c-0.467-0.146-0.926-0.297-1.373-0.454
			c-0.109-0.038-0.215-0.08-0.324-0.119c-0.338-0.121-0.672-0.243-0.998-0.37c-0.115-0.045-0.229-0.093-0.344-0.139
			c-0.312-0.126-0.625-0.252-0.93-0.384c-0.105-0.045-0.209-0.093-0.314-0.14c-0.307-0.137-0.613-0.274-0.912-0.417
			c-0.09-0.042-0.176-0.086-0.264-0.129c-0.311-0.151-0.617-0.305-0.918-0.463c-0.068-0.035-0.137-0.071-0.203-0.108
			c-0.318-0.169-0.629-0.341-0.934-0.517c-0.047-0.027-0.094-0.054-0.141-0.081c-0.324-0.189-0.643-0.382-0.953-0.577
			c-0.025-0.017-0.051-0.032-0.076-0.049c-0.33-0.211-0.654-0.425-0.971-0.644c-9.053-6.255-11.611-15.465-12.029-22.697
			c-0.02-0.363-0.035-0.722-0.045-1.075c-0.002-0.031-0.002-0.063-0.004-0.095c-0.01-0.355-0.014-0.706-0.016-1.049
			c0-0.037,0-0.074,0-0.111c0.002-0.36,0.006-0.715,0.016-1.062c3.963-1.165,7.729-3.29,10.973-6.564
			c2.422-2.445,4.322-5.552,5.811-9.037c4.32-0.379,9.328-3.437,12.174-7.301c4.09-5.555,3.715-12.774-0.836-16.123
			c-0.215-0.16-0.443-0.298-0.67-0.434c1.816-2.565,5.65-10.035,3.225-25.188c-0.129-0.805-0.334-1.489-0.594-2.079
			c-1.809-10.754-9.762-30.37-43.871-28.391c-35.416,2.055-36.195,32.282-35.507,42.095c-1.706,5.2-0.126,11.476-0.126,11.476
			c-4.777,3.018-5.662,10.191-1.977,16.022c3.32,5.253,10.352,9.408,15.207,7.973c0.227,0.62,0.455,1.227,0.69,1.805
			c1.662,4.08,4.711,7.69,8.557,10.519c0.183,1.178,0.364,2.714,0.442,4.5c0,0,0,0,0,0.001c0.34,7.692-1.244,19.95-12.982,27.435
			l0,0c-0.609,0.389-1.246,0.765-1.91,1.126c-0.006,0.003-0.012,0.006-0.016,0.009c-0.656,0.356-1.34,0.698-2.053,1.026
			c-0.026,0.012-0.054,0.023-0.08,0.035c-0.699,0.32-1.426,0.626-2.182,0.916c-0.036,0.013-0.074,0.026-0.109,0.039
			c-0.763,0.29-1.552,0.565-2.375,0.821c-8.752,2.729-15.425,5.46-20.545,8.945c-12.735-3.153-19.209-6.545-19.209-6.545
			l-1.244,3.153c5.303,2.593,10.86,4.719,16.578,6.454c-3.853,3.545-6.572,7.866-8.518,13.504c-4.524-1.633-6.816-2.832-6.816-2.832
			l-1.244,3.153c2.291,1.12,4.633,2.145,7.01,3.098c-0.029,0.109-0.056,0.225-0.084,0.334c-0.001,0-0.001,0-0.001,0
			c-0.003,0.014-0.007,0.029-0.011,0.044c-0.193,0.739-0.378,1.502-0.553,2.284c-0.029,0.13-0.057,0.264-0.084,0.395
			c-0.148,0.676-0.289,1.365-0.424,2.072c-0.037,0.193-0.072,0.393-0.109,0.59c-0.119,0.656-0.236,1.326-0.346,2.012
			c-0.039,0.242-0.077,0.488-0.115,0.733c-0.101,0.657-0.197,1.327-0.29,2.01c-0.038,0.282-0.076,0.565-0.114,0.851
			c-0.086,0.669-0.167,1.353-0.246,2.047c-0.036,0.313-0.072,0.625-0.107,0.945c-0.041,0.375-0.08,0.755-0.119,1.138
			c-2.1-0.868-3.162-1.424-3.162-1.424l-1.244,3.153c1.342,0.656,2.707,1.273,4.079,1.871c-0.02,0.242-0.04,0.482-0.06,0.728
			c-0.023,0.312-0.051,0.615-0.075,0.932c-0.084,1.111-0.163,2.247-0.237,3.414h14.52c36.08,10.421,78.309,5.412,105.508,0h24.496
			c-0.068-1.067-0.141-2.109-0.215-3.131c-0.031-0.407-0.064-0.798-0.098-1.199c-0.035-0.467-0.072-0.938-0.111-1.395
			c2.67-0.754,4.131-1.22,4.131-1.22l-2.719-3.153c-0.6,0.163-1.189,0.316-1.785,0.478c-0.029-0.267-0.059-0.522-0.09-0.786
			C392.898,203.304,392.852,202.875,392.803,202.46z M285.248,214.133h35.303h2.039h0.002h20.662
			C319.654,216.79,300.278,216.08,285.248,214.133z"/>
	</g>
</g>
<circle fill="#2B9D9C" cx="-52.881" cy="5.119" r="11.619"/>
<rect x="-57.631" y="8" fill="#2B9D9C" width="9.5" height="26.222"/>
<g>
	<circle fill="#2B9D9C" cx="-50" cy="139.539" r="7.564"/>
	<rect x="-53.092" y="141.415" fill="#2B9D9C" width="6.184" height="17.07"/>
</g>
<g>
	<path fill="#2B9D9C" d="M-50.631,168.895l-0.541-0.006c-13.095-0.293-23.552-11.16-23.31-24.226
		c0.244-13.074,11.273-23.68,24.351-23.356c13.137,0.314,23.577,11.228,23.268,24.328
		C-27.163,158.461-37.826,168.895-50.631,168.895z M-50.704,128.872c-8.772,0-16.043,7.147-16.207,15.931
		c-0.166,8.907,6.97,16.316,15.907,16.517l0.372,0.004c8.726,0,15.996-7.118,16.199-15.866c0.21-8.928-6.913-16.365-15.877-16.58
		L-50.704,128.872z"/>
</g>
<text transform="matrix(1 0 0 1 67.1641 143.0742)" fill="#2B9D9C" font-family="'jf-jinxuanlatte-1.0-bold-B5pc-H'" font-size="16">LOGIN</text>
</svg>
