<?xml version="1.0" encoding="utf-8"?>
<!-- Generator: Adobe Illustrator 15.0.0, SVG Export Plug-In . SVG Version: 6.00 Build 0)  -->
<!DOCTYPE svg PUBLIC "-//W3C//DTD SVG 1.1//EN" "http://www.w3.org/Graphics/SVG/1.1/DTD/svg11.dtd">
<svg version="1.1" id="圖層_1" xmlns="http://www.w3.org/2000/svg" xmlns:xlink="http://www.w3.org/1999/xlink" x="0px" y="0px"
	 width="850px" height="350px" viewBox="0 0 850 350" enable-background="new 0 0 850 350" xml:space="preserve">
<g>
	<path fill="#6EC2C5" d="M38.574,30.61c-6.017,4.633-13.271,8.049-20.984,10.243C7.25,43.781,0,51.098,0,59.512v118.049v5.366
		v107.559c0,8.538,7.25,15.732,17.589,18.659c7.867,2.196,15.121,5.73,20.984,10.242c6.17,4.759,10.8,10.491,13.578,16.707
		C55.854,344.267,65.575,350,76.838,350h186.848h322.472h187.004c11.264,0,20.984-5.733,24.687-13.905
		c2.776-6.216,7.407-11.948,13.579-16.707c6.017-4.633,13.268-8.046,20.982-10.242c10.338-2.927,17.59-10.121,17.59-18.659V182.928
		v-5.368V59.512c0-8.536-7.252-15.731-17.59-18.658c-7.868-2.195-15.12-5.732-20.982-10.244
		c-6.172-4.756-10.803-10.488-13.579-16.707C794.147,5.732,784.426,0,773.162,0H586.158H263.686H76.838
		C65.576,0,55.854,5.732,52.151,13.902C49.374,20.122,44.745,25.853,38.574,30.61z"/>
	<path fill="#F2F7F3" d="M66.809,48.903c-4.783,3.78-10.646,6.584-16.972,8.536c-10.183,3.172-16.818,10.61-16.818,19.025v100.854
		v4.636v91.583c0,8.415,6.635,15.977,16.818,19.024c6.327,1.951,12.036,4.877,16.972,8.539c5.092,3.9,8.95,8.535,11.42,13.535
		c3.856,7.925,13.885,13.168,24.839,13.168h181.141h281.583h181.139c10.957,0,20.984-5.243,24.842-13.168
		c2.469-5,6.326-9.757,11.417-13.535c4.784-3.783,10.648-6.588,16.974-8.539c10.183-3.048,16.818-10.609,16.818-19.024V181.95
		v-4.635V76.462c0-8.413-6.636-15.975-16.818-19.024c-6.325-1.951-12.035-4.878-16.974-8.537
		c-5.091-3.902-8.948-8.537-11.417-13.537c-3.855-7.926-13.885-13.17-24.842-13.17H565.792H284.209H103.067
		c-10.954,0-20.983,5.244-24.839,13.17C75.604,40.366,71.747,45,66.809,48.903z"/>
</g>
<g>
	<path fill="#117A80" d="M796.033,26.729c-8.84-6.267-21.037-3.917-27.082,5.148l-1.118,1.566h5.372
		c4.923-6.266,13.766-7.721,20.255-3.133c6.825,4.812,8.616,14.548,3.917,21.486L761.9,104.954
		c-2.46,3.693-7.385,4.588-10.966,2.126l-1.565-1.119c-3.582-2.573-4.478-7.609-2.015-11.302L777.906,49
		c0.671-1.006,0.446-2.461-0.56-3.134c-1.008-0.671-2.351-0.448-3.022,0.561l-30.551,45.659c-3.805,5.707-2.35,13.541,3.135,17.458
		l1.566,1.119c5.594,3.917,13.204,2.461,17.009-3.246l35.475-53.156C807.113,45.417,804.875,32.996,796.033,26.729z"/>
</g>
</svg>
